<?xml version="1.0" standalone="no"?>
<!DOCTYPE svg PUBLIC "-//W3C//DTD SVG 1.1//EN" "http://www.w3.org/Graphics/SVG/1.1/DTD/svg11.dtd" >
<svg>
<metadata>
Created by FontForge 20090622 at Mon Sep  4 15:03:07 2017
 By deploy user
Copyright (c) 2015 by Context Ltd. All rights reserved.
</metadata>
<defs>
<font id="Repo-ExtraBold" horiz-adv-x="583" >
  <font-face 
    font-family="Repo"
    font-weight="800"
    font-stretch="normal"
    units-per-em="1000"
    panose-1="2 0 5 3 4 0 0 2 0 4"
    ascent="800"
    descent="-200"
    x-height="541"
    cap-height="713"
    bbox="-576 -438 1457 1290"
    underline-thickness="120"
    underline-position="-183"
    unicode-range="U+0009-U+FB04"
  />
<missing-glyph horiz-adv-x="526" 
d="M50 0v530h486v-530h-486zM69 74v-2q65 144 202 283q-40 18 -77 25q-72 -123 -125 -306zM348 313q-144 -73 -272 -241q178 125 340 183q-36 38 -68 58zM97 72h420q-9 58 -40 101q-216 -29 -380 -101z" />
    <glyph glyph-name="f_f" unicode="ff" horiz-adv-x="837" 
d="M675 413h-135v-424h-169v385l-27 39l-37 13l27 115l37 8q0 117 37.5 173t136.5 68q69 4 145 -16l-18 -125q-72 14 -102 -11.5t-30 -96.5h135v-128zM492 413h-135v-424h-169v385l-27 39l-37 13l27 115l37 8q0 117 37.5 173t136.5 68q69 4 145 -16l-18 -125
q-72 14 -102 -11.5t-30 -96.5h135v-128z" />
    <glyph glyph-name="f_i" unicode="fi" horiz-adv-x="679" 
d="M291 797q70 0 136 -30l-30 -140q-52 22 -94 22q-48 0 -65.5 -25t-17.5 -80h191v-145h-191v-420h-166v581q0 113 60 175t177 62zM626 544v-565h-166v565h166zM640 676q0 -44 -28.5 -70.5t-69.5 -26.5t-69 26.5t-28 70.5q0 45 28 71.5t69 26.5t69.5 -26.5t28.5 -71.5z" />
    <glyph glyph-name="f_l" unicode="fl" horiz-adv-x="743" 
d="M291 797q70 0 136 -30l-30 -140q-52 22 -94 22q-48 0 -65.5 -25t-17.5 -80h191v-145h-191v-420h-166v581q0 113 60 175t177 62zM753 66l-28 -80q-76 1 -126 15t-76.5 42.5t-36.5 64t-10 88.5v584h169v-555q0 -85 22.5 -114t85.5 -45z" />
    <glyph glyph-name="f_f_i" unicode="ffi" horiz-adv-x="1086" 
d="M291 797q81 0 147 -32l-34 -141q-56 25 -101 25q-48 0 -65.5 -25t-17.5 -80h191v-145h-191v-420h-166v581q0 113 60 175t177 62zM697 797q70 0 136 -30l-30 -140q-52 22 -94 22q-48 0 -65.5 -25t-17.5 -80h191v-145h-191v-420h-166v581q0 113 60 175t177 62zM958 712
q36 -28 60 -76.5t24 -109.5q0 -46 -12 -96q-28 -38 -82 -38q-28 0 -51 10q-42 84 -42 176q0 46 12 96q35 38 91 38zM1036 181q-82 -15 -160 -15q-15 113 -15 220q0 105 15 220h146q14 -238 14 -425z" />
    <glyph glyph-name="f_f_l" unicode="ffl" horiz-adv-x="1183" 
d="M291 797q81 0 147 -32l-34 -141q-56 25 -101 25q-48 0 -65.5 -25t-17.5 -80h191v-145h-191v-420h-166v581q0 113 60 175t177 62zM697 797q70 0 136 -30l-30 -140q-52 22 -94 22q-48 0 -65.5 -25t-17.5 -80h191v-145h-191v-420h-166v581q0 113 60 175t177 62zM1150 66
l-28 -80q-76 1 -126 15t-76.5 42.5t-36.5 64t-10 88.5v584h169v-555q0 -85 22.5 -114t85.5 -45z" />
    <glyph glyph-name=".notdef" horiz-adv-x="526" 
d="M50 0v530h486v-530h-486zM69 74v-2q65 144 202 283q-40 18 -77 25q-72 -123 -125 -306zM348 313q-144 -73 -272 -241q178 125 340 183q-36 38 -68 58zM97 72h420q-9 58 -40 101q-216 -29 -380 -101z" />
    <glyph glyph-name=".null" horiz-adv-x="0" 
 />
    <glyph glyph-name=".null" horiz-adv-x="0" 
 />
    <glyph glyph-name="nonmarkingreturn" horiz-adv-x="333" 
 />
    <glyph glyph-name="CR" unicode="&#x9;" horiz-adv-x="236" 
 />
    <glyph glyph-name="space" unicode=" " horiz-adv-x="296" 
 />
    <glyph glyph-name="exclam" unicode="!" horiz-adv-x="282" 
d="M222 784l-3 -295q-1 -55 -13 -144t-14 -117h-105q-2 23 -14 114t-13 147l-3 295q38 18 82 18q45 0 83 -18zM232 78q0 -40 -26.5 -65.5t-64.5 -25.5t-64.5 25t-26.5 65t25 66t66 26q38 0 64.5 -25.5t26.5 -65.5z" />
    <glyph glyph-name="quotedbl" unicode="&#x22;" horiz-adv-x="480" 
d="M208 784q-12 -158 -34 -304h-90q-22 146 -34 304q38 18 79 18t79 -18zM430 784q-12 -158 -34 -304h-91q-21 147 -34 304q38 18 80 18q41 0 79 -18z" />
    <glyph glyph-name="numbersign" unicode="#" horiz-adv-x="685" 
d="M594 405h-99l-21 -112h103v-110h-123l-34 -194h-124l35 194h-94l-35 -194h-124l35 194h-79v110h99l21 112h-102v111h122l34 184h123l-34 -184h94l34 184h123l-34 -184h80v-111zM371 405h-93l-22 -112h94z" />
    <glyph glyph-name="dollar" unicode="$" horiz-adv-x="567" 
d="M508 200q0 -76 -46 -130.5t-131 -70.5l6 -131h-122l6 126q-105 8 -174 46l44 129q53 -30 115 -38q25 -3 45 -2q82 3 82 64q0 30 -22.5 48.5t-75.5 39.5q-36 15 -61 29t-52.5 36t-42.5 53.5t-16 71.5q-2 18 -1 27q5 72 48.5 122t122.5 66q-1 20 -2.5 59.5t-2.5 59.5h120
q-1 -19 -2.5 -57.5t-2.5 -57.5q80 -8 140 -38q-21 -69 -35 -121q-72 33 -136 33q-39 0 -61 -16t-22 -45t24.5 -47t85.5 -46q7 -3 11 -5q78 -36 118 -83.5t40 -121.5z" />
    <glyph glyph-name="percent" unicode="%" horiz-adv-x="891" 
d="M849 205q0 -95 -39.5 -156t-115.5 -61t-115.5 61t-39.5 156q0 94 39.5 155.5t115.5 61.5t115.5 -61t39.5 -156zM683 781l-382 -907l-136 24l383 907zM345 495q0 -96 -39 -157.5t-116 -61.5t-116.5 62t-39.5 157t40 156.5t116 61.5q77 0 116 -61t39 -157zM746 206
q0 136 -52 136q-51 0 -51 -136t51 -136q52 0 52 136zM241 496q0 136 -51 136q-52 0 -52 -136q0 -137 52 -137q51 0 51 137z" />
    <glyph glyph-name="ampersand" unicode="&#x26;" horiz-adv-x="693" 
d="M32 189q0 125 129 200q-53 63 -56 123q-1 23 2 46q10 72 60 111t131 39q88 0 136.5 -46t48.5 -116q0 -106 -122 -184l106 -108q23 45 33 101l120 -11q-14 -99 -58 -178q78 -86 120 -166h-147q-29 40 -57 68q-91 -77 -205 -77q-66 0 -114.5 17.5t-75 47.5t-39 63t-12.5 70
zM167 199q0 -35 27.5 -62.5t80.5 -27.5q69 0 120 41l-154 158q-74 -42 -74 -109zM356 541q0 24 -15.5 39.5t-45.5 15.5t-46.5 -17.5t-16.5 -47.5q0 -50 48 -94q76 43 76 104z" />
    <glyph glyph-name="quotesingle" unicode="'" horiz-adv-x="245" 
d="M203 722l-3 -74q-3 -62 -24 -229h-101q-20 125 -26 235q0 9 -1 32.5t-2 35.5q26 18 67 18q53 0 90 -18z" />
    <glyph glyph-name="parenleft" unicode="(" horiz-adv-x="342" 
d="M376 -159l-100 -61q-224 242 -224 512q0 272 224 512l100 -60q-153 -215 -153 -452q0 -238 153 -451z" />
    <glyph glyph-name="parenright" unicode=")" horiz-adv-x="342" 
d="M323 292q0 -269 -225 -512l-100 61q153 211 153 451t-153 452l100 60q225 -241 225 -512z" />
    <glyph glyph-name="asterisk" unicode="*" horiz-adv-x="493" 
d="M178 693h130q0 -3 0.5 -19t0 -23.5t-2 -23t-5 -32t-8.5 -35.5q74 42 124 53l40 -123q-36 -21 -133 -29q73 -63 91 -100l-102 -76q-35 33 -71 115q-1 -2 -7.5 -16.5l-9.5 -21.5t-10.5 -21.5t-13 -23t-13.5 -18.5t-15 -15l-105 77q4 9 11.5 19.5t20 24t19 19.5l23 21.5
t17.5 15.5q-91 5 -132 29l39 122q38 -4 124 -53q-20 81 -12 134z" />
    <glyph glyph-name="plus" unicode="+" horiz-adv-x="567" 
d="M514 247h-163v-172h-133v172h-162v133h162v171h133v-171h163v-133z" />
    <glyph glyph-name="comma" unicode="," horiz-adv-x="288" 
d="M241 129q-24 -135 -125 -306l-108 28q35 103 57 251q4 32 4 40q9 2 25 7t23 7t19 4.5t20 4t18.5 2.5t20.5 1q20 0 33.5 -10.5t12.5 -28.5z" />
    <glyph glyph-name="hyphen" unicode="-" horiz-adv-x="371" 
d="M331 245h-291v127h291v-127z" />
    <glyph glyph-name="period" unicode="." horiz-adv-x="270" 
d="M233 78q0 -44 -29 -71.5t-71 -27.5q-41 0 -70 27.5t-29 70.5q0 44 29 72t70 28t70.5 -28t29.5 -71z" />
    <glyph glyph-name="slash" unicode="/" horiz-adv-x="414" 
d="M387 801l137 -25l-411 -995l-136 25z" />
    <glyph glyph-name="zero" unicode="0" horiz-adv-x="567" 
d="M537 346q0 -105 -25 -185.5t-83 -132t-144 -51.5q-127 0 -190 103.5t-63 265.5q0 103 25.5 183.5t84 132t143.5 51.5q86 0 144 -51t83 -131.5t25 -184.5zM370 346q0 239 -85 239q-86 0 -86 -239q0 -237 86 -237q85 0 85 237z" />
    <glyph glyph-name="one" unicode="1" horiz-adv-x="567" 
d="M418 -11h-171v512q-57 -31 -148 -46l-27 79v43q153 34 225 123h121v-711z" />
    <glyph glyph-name="two" unicode="2" horiz-adv-x="567" 
d="M513 -11h-477q3 27 20 64q2 23 12.5 50t21.5 47.5t33 50t34 44l38 44l32 36.5l21 24q60 70 72 116q6 24 3 46q-6 58 -70 63q-19 2 -30 0q-79 -20 -127 -50l-64 115q98 74 222 74q128 0 187.5 -57t59.5 -148q0 -55 -31.5 -108t-92.5 -120q-3 -3 -8.5 -9.5t-8.5 -9.5
q-54 -58 -69 -85q-19 -21 -33 -42h255v-145z" />
    <glyph glyph-name="three" unicode="3" horiz-adv-x="567" 
d="M513 206q0 -103 -73.5 -166t-206.5 -63q-124 0 -212 44q14 43 40 131q74 -37 156 -37q58 0 88.5 24t30.5 68q0 88 -127 95q-18 1 -59 1v117q47 3 82 12q83 15 83 78q0 34 -24 51.5t-63 17.5q-67 0 -139 -40l-53 118q97 56 209 56q116 0 178 -51.5t62 -139.5
q0 -45 -26 -81t-64 -57v-1q118 -52 118 -177z" />
    <glyph glyph-name="four" unicode="4" horiz-adv-x="567" 
d="M541 137h-63v-148h-164v148h-287v107q125 241 291 456h160v-445h63v-118zM316 504q-7 -6 -35 -56q-73 -118 -113 -193h146v142q0 22 1 60t1 47z" />
    <glyph glyph-name="five" unicode="5" horiz-adv-x="567" 
d="M519 207q0 -102 -74 -166t-204 -64q-122 0 -210 42q18 66 39 132q72 -36 154 -36q57 0 87.5 24.5t30.5 66.5q0 38 -22 63t-84.5 38t-165.5 5q22 187 36 388h384v-144h-251q-1 -11 -4 -56.5t-5 -66.5q146 -3 217.5 -62.5t71.5 -163.5z" />
    <glyph glyph-name="six" unicode="6" horiz-adv-x="567" 
d="M537 215q0 -99 -65 -168.5t-180 -69.5q-127 0 -191 80t-64 212q0 84 24.5 155.5t65 121t95 85.5t113 54.5t119.5 21.5l26 -129q-184 -19 -244 -148q26 9 61 9q110 0 175 -58.5t65 -165.5zM373 219q0 108 -102 108q-34 0 -66 -12q-4 -40 -4 -60q4 -149 91 -149q41 0 61 33
t20 80z" />
    <glyph glyph-name="seven" unicode="7" horiz-adv-x="567" 
d="M543 701l-43 -166q-20 -25 -32 -45q-145 -293 -167 -501h-137q-11 3 -30 7t-22 5q35 136 95 284.5t127 269.5h-294v146h503z" />
    <glyph glyph-name="eight" unicode="8" horiz-adv-x="567" 
d="M535 182q0 -92 -67.5 -148.5t-183.5 -56.5q-119 0 -186 59.5t-62 148.5q2 56 30.5 95.5t82.5 74.5q-97 66 -97 161q0 85 65.5 141t166.5 56q95 0 155 -43.5t73 -110.5q6 -20 4 -43q-3 -88 -97 -154q116 -75 116 -180zM366 522q0 30 -21.5 51.5t-57.5 21.5
q-37 0 -58.5 -21t-21.5 -52q0 -33 19 -56t71 -48q69 45 69 104zM374 180q0 37 -24 60.5t-82 52.5q-43 -26 -60 -51.5t-17 -60.5q0 -32 25.5 -56t66.5 -24q42 0 66.5 22.5t24.5 56.5z" />
    <glyph glyph-name="nine" unicode="9" horiz-adv-x="567" 
d="M530 416q0 -105 -34.5 -188t-93.5 -134.5t-132 -79.5t-156 -31q-22 120 -25 129q185 16 246 149q-30 -10 -63 -10q-111 0 -176.5 57t-65.5 166q0 99 65.5 169t180.5 70q128 0 191 -80.5t63 -216.5zM365 427q0 160 -91 160q-41 0 -61 -33t-20 -79q0 -108 104 -108
q36 0 64 12q4 19 4 48z" />
    <glyph glyph-name="colon" unicode=":" horiz-adv-x="268" 
d="M233 435q0 -44 -29 -71.5t-71 -27.5q-41 0 -70 27.5t-29 70.5q0 44 29 72t70 28t70.5 -28t29.5 -71zM233 78q0 -44 -29 -71.5t-71 -27.5q-41 0 -70 27.5t-29 70.5q0 44 29 72t70 28t70.5 -28t29.5 -71z" />
    <glyph glyph-name="semicolon" unicode=";" horiz-adv-x="272" 
d="M234 435q0 -44 -29 -71.5t-71 -27.5q-41 0 -70 27.5t-29 70.5q0 44 29 72t70 28t70.5 -28t29.5 -71zM241 129q-24 -135 -125 -306l-108 28q35 103 57 251q4 32 4 40q9 2 25 7t23 7t19 4.5t20 4t18.5 2.5t20.5 1q20 0 33.5 -10.5t12.5 -28.5z" />
    <glyph glyph-name="less" unicode="&#x3c;" horiz-adv-x="567" 
d="M494 72l-439 183v117l439 183q7 -43 23 -131l-288 -110l288 -111q-16 -88 -23 -131z" />
    <glyph glyph-name="equal" unicode="=" horiz-adv-x="567" 
d="M514 484v-127h-458v127h458zM514 142h-458v127h458v-127z" />
    <glyph glyph-name="greater" unicode="&#x3e;" horiz-adv-x="567" 
d="M513 255l-437 -183q-15 80 -23 131l287 111l-287 110q8 51 23 131l437 -183v-117z" />
    <glyph glyph-name="question" unicode="?" horiz-adv-x="432" 
d="M407 548q0 -38 -17 -72t-41.5 -58.5l-49 -47.5t-41.5 -50.5t-18 -56.5v-56h-126q-6 34 -6 65q0 32 21 68t46.5 61.5t46.5 55.5t21 52q0 37 -20.5 61t-58.5 24q-22 0 -42.5 -5.5t-29.5 -10.5l-30 -17l-36 103q24 15 75 29t92 14q214 0 214 -159zM273 78q0 -40 -26.5 -65.5
t-64.5 -25.5t-64.5 25t-26.5 65t25 66t66 26q38 0 64.5 -25.5t26.5 -65.5z" />
    <glyph glyph-name="at" unicode="@" horiz-adv-x="964" 
d="M854 373q2 -119 -50.5 -211.5t-129.5 -99.5q-54 -3 -82.5 10t-47.5 51q-26 -31 -73.5 -46.5t-89.5 -8.5q-56 10 -87.5 58.5t-31.5 122.5q0 93 57 171t148 78q50 0 75 -41l7 32l78 -13l-30 -279q-5 -30 7 -50t39 -20q48 0 75.5 93t17.5 175q-12 97 -77.5 160t-162.5 63
q-135 0 -223 -93t-103 -235q-16 -160 59 -258t238 -98q144 0 232 80q7 -21 27 -91q-95 -90 -259 -90q-105 0 -188 36.5t-132.5 98t-73.5 140.5t-18 167q11 203 146 327t328 118q137 -4 230 -101t95 -246zM499 184l16 148q2 27 -16.5 42.5t-48.5 13.5q-73 -6 -87 -109
q-5 -43 9.5 -79.5t46.5 -38.5q42 -4 80 23z" />
    <glyph glyph-name="A" unicode="A" horiz-adv-x="697" 
d="M685 -11h-188l-24 83t-13.5 45.5t-5.5 18.5h-230q-35 -103 -47 -147h-170q155 454 257 711h163q109 -278 258 -711zM419 261l-59 186q-21 68 -21 69q-5 -11 -16 -53q-11 -38 -65 -202h161z" />
    <glyph glyph-name="B" unicode="B" horiz-adv-x="659" 
d="M603 197q0 -107 -79.5 -161.5t-232.5 -54.5q-131 0 -230 31v666q101 31 222 31q140 0 217 -50.5t77 -148.5q0 -50 -27 -85.5t-67 -55.5q54 -22 87 -65.5t33 -106.5zM406 502q0 83 -114 83h-3h-7q-30 0 -50 -5v-165h43q69 0 100 19.5t31 67.5zM426 203q0 53 -36 75.5
t-114 22.5h-44v-188q25 -5 60 -5q134 0 134 95z" />
    <glyph glyph-name="C" unicode="C" horiz-adv-x="608" 
d="M557 28q-77 -51 -202 -51q-152 0 -234 101t-82 267q0 162 87 265t233 103q118 0 193 -51l-44 -127q-58 35 -128 35q-59 0 -98.5 -38t-49.5 -108q-13 -53 -9 -104q5 -77 38.5 -129.5t94.5 -61.5q24 -4 52 -1q50 3 104 29z" />
    <glyph glyph-name="D" unicode="D" horiz-adv-x="726" 
d="M638 346q0 -171 -92 -268t-269 -97q-120 0 -216 30v667q104 31 214 31q177 0 270 -94.5t93 -268.5zM459 348q0 116 -42 171t-134 55q-29 0 -47 -4v-447q14 -4 47 -4q91 0 133.5 55.5t42.5 173.5z" />
    <glyph glyph-name="E" unicode="E" horiz-adv-x="591" 
d="M499 -11h-438v711h425v-135h-248v-146h219v-134h-219v-160h261v-136z" />
    <glyph glyph-name="F" unicode="F" horiz-adv-x="558" 
d="M484 565h-246v-146h217v-135h-217v-295h-177v711h423v-135z" />
    <glyph glyph-name="G" unicode="G" horiz-adv-x="689" 
d="M601 19q-86 -41 -227 -41q-161 0 -249 98t-88 271q0 167 94 266.5t248 99.5q130 0 218 -52l-53 -127q-53 31 -125 35q-100 7 -151.5 -50t-51.5 -174q0 -110 41 -169.5t117 -59.5q42 0 58 7v151h-72v135h241v-390z" />
    <glyph glyph-name="H" unicode="H" horiz-adv-x="721" 
d="M617 -11h-176v296h-203v-296h-177v711h177v-282h203v282h176v-711z" />
    <glyph glyph-name="I" unicode="I" horiz-adv-x="296" 
d="M238 -11h-176v711h176v-711z" />
    <glyph glyph-name="J" unicode="J" horiz-adv-x="516" 
d="M352 140q0 -237 -222 -259q-73 -6 -156 26q17 77 31 131q71 -21 112 13q34 22 47 62.5t13 110.5v19v457h175v-560z" />
    <glyph glyph-name="K" unicode="K" horiz-adv-x="658" 
d="M644 -11h-155q-15 3 -49 5q-94 171 -202 306v-311h-176v711h176v-278q28 31 57.5 70.5t47 65.5l50 76l43.5 66h195q-108 -149 -251 -328q139 -166 264 -383z" />
    <glyph glyph-name="L" unicode="L" horiz-adv-x="545" 
d="M477 -11h-415v711h176v-574h239v-137z" />
    <glyph glyph-name="M" unicode="M" horiz-adv-x="887" 
d="M806 -11h-170q-20 362 -26 439q-1 -1 -15 -40l-127 -353h-104l-127 353q-11 35 -14 40q-10 -91 -26 -439h-159q38 492 64 711h166l129 -347l9.5 -30.5l9 -28t5.5 -15.5q2 0 6 11t9.5 29.5t9.5 28.5q79 216 136 352h160q26 -219 64 -711z" />
    <glyph glyph-name="N" unicode="N" horiz-adv-x="742" 
d="M636 -11h-104l-38 6q-101 174 -233 371q-7 10 -16.5 27t-16 27t-8.5 10q0 -8 1 -55.5t1 -74.5v-311h-161v711h146q119 -158 232 -333q37 -61 38 -62q0 16 -1 77t-1 93v225h161v-711z" />
    <glyph glyph-name="O" unicode="O" horiz-adv-x="712" 
d="M673 345q0 -168 -85 -268t-232 -100q-146 0 -231.5 100t-85.5 268t86 268t231 100q146 0 231.5 -100t85.5 -268zM493 349q0 100 -34.5 164t-102.5 64t-102.5 -64t-34.5 -164q0 -101 34.5 -164.5t102.5 -63.5t102.5 63.5t34.5 164.5z" />
    <glyph glyph-name="P" unicode="P" horiz-adv-x="628" 
d="M584 474q0 -117 -80 -178t-238 -60q-5 0 -15 0.5t-16 0.5v-248h-174v689q102 31 219 31q153 0 228.5 -61t75.5 -174zM410 475q0 57 -31.5 82t-94.5 25q-25 0 -49 -4v-213q6 0 15.5 -0.5t14.5 -0.5q76 -2 110.5 23.5t34.5 87.5z" />
    <glyph glyph-name="Q" unicode="Q" horiz-adv-x="785" 
d="M671 345q0 -120 -47 -207t-131 -127q35 -43 151 -91l-84 -126q-167 58 -213 189q-37 0 -68 9q-117 18 -179.5 113t-62.5 240q0 168 86 268t231 100q146 0 231.5 -100t85.5 -268zM491 349q0 100 -34.5 164t-102.5 64t-102.5 -64t-34.5 -164t34.5 -164t102.5 -64t102.5 64
t34.5 164z" />
    <glyph glyph-name="R" unicode="R" horiz-adv-x="663" 
d="M625 -11h-193q-94 183 -153 278h-43v-278h-174v689q102 31 216 31q152 0 229.5 -59t77.5 -171q0 -65 -37 -115t-97 -70v-1q17 -22 35 -49t39 -65.5l32.5 -59t37 -70.5zM408 474q0 58 -32 84.5t-79 26.5q-31 0 -61 -7v-214h61q49 0 80 28t31 82z" />
    <glyph glyph-name="S" unicode="S" horiz-adv-x="562" 
d="M497 197q0 -101 -70 -160.5t-191 -59.5q-134 0 -217 52l46 135q73 -43 153 -43q96 0 96 69q0 34 -29 55t-106 51q-139 64 -146 185q-2 27 3 53q13 81 77.5 130t163.5 49q116 0 195 -49l-45 -126q-72 39 -133 39q-87 0 -87 -64q0 -14 7 -26.5t14.5 -20.5t28.5 -19.5
t33.5 -16.5t44.5 -19q89 -39 125.5 -88.5t36.5 -125.5z" />
    <glyph glyph-name="T" unicode="T" horiz-adv-x="594" 
d="M519 564h-164v-575h-176v575h-164v136h504v-136z" />
    <glyph glyph-name="U" unicode="U" horiz-adv-x="699" 
d="M599 233q0 -117 -71.5 -187t-200.5 -70q-113 0 -183 56t-81 152q-5 37 -5 96v420h176v-392q0 -103 19 -144.5t78 -41.5q90 0 96 103q2 54 2 83v392h170v-467z" />
    <glyph glyph-name="V" unicode="V" horiz-adv-x="693" 
d="M644 700q-136 -414 -249 -711h-103l-53 7q-121 316 -247 704h188l108 -370q32 -108 34 -113q2 5 37 117q39 126 107 366h178z" />
    <glyph glyph-name="W" unicode="W" horiz-adv-x="940" 
d="M885 700q-82 -394 -169 -711h-156q-60 195 -96 323q-4 14 -10 40t-8 32q-2 -5 -4.5 -15.5l-6.5 -27.5l-7 -29q-28 -102 -95 -323h-156q-85 307 -168 711h179q36 -214 65 -358q14 -81 20 -105q2 4 22 80q55 204 89 345h135q53 -217 87 -340q3 -13 8 -31.5t8 -32t6 -20.5
q2 4 3.5 14.5t4.5 27.5l5 28q21 98 74 392h170z" />
    <glyph glyph-name="X" unicode="X" horiz-adv-x="674" 
d="M651 -11h-161q-23 5 -43 6q-47 102 -114 222q-79 -134 -121 -228h-189q86 166 213 366l-201 345h198l107 -203h1l113 203h185l-202 -334q115 -182 214 -377z" />
    <glyph glyph-name="Y" unicode="Y" horiz-adv-x="633" 
d="M601 700q-105 -214 -221 -425v-286h-175v285q-122 223 -220 426h193q65 -156 120 -265q61 122 123 265h180z" />
    <glyph glyph-name="Z" unicode="Z" horiz-adv-x="595" 
d="M514 -11h-499v118q39 87 147 263t118 194h-245v136h480v-100q-23 -50 -128 -218t-148 -256h275v-137z" />
    <glyph glyph-name="bracketleft" unicode="[" horiz-adv-x="353" 
d="M351 -211h-285v1005h285v-119h-130v-766h130v-120z" />
    <glyph glyph-name="backslash" unicode="\" horiz-adv-x="414" 
d="M525 -194l-138 -25l-410 994l136 26z" />
    <glyph glyph-name="bracketright" unicode="]" horiz-adv-x="353" 
d="M296 -211h-285v120h129v766h-129v119h285v-1005z" />
    <glyph glyph-name="asciicircum" unicode="^" horiz-adv-x="567" 
d="M555 394l-105 -67l-153 215l-153 -215l-105 67l172 262q23 33 55 51q52 0 97 -18q20 -35 46.5 -76.5l45.5 -70l52 -77.5z" />
    <glyph glyph-name="underscore" unicode="_" horiz-adv-x="567" 
d="M567 -217h-567v127h567v-127z" />
    <glyph glyph-name="grave" unicode="`" horiz-adv-x="297" 
d="M288 576h-120l-163 208h201z" />
    <glyph glyph-name="a" unicode="a" horiz-adv-x="540" 
d="M493 14q-95 -35 -228 -35q-241 0 -241 181q0 173 260 188q13 1 46 -2q-5 81 -88 81q-70 0 -148 -31l-29 121q94 36 200 36q201 0 223 -166q5 -35 5 -67v-306zM331 102v141q-40 0 -49 -1q-94 -9 -94 -77t86 -68q37 0 57 5z" />
    <glyph glyph-name="b" unicode="b" horiz-adv-x="598" 
d="M557 274q0 -140 -75.5 -218t-211.5 -78q-127 0 -216 37v765h170v-249q45 20 98 20q108 0 171.5 -76t63.5 -201zM387 269q0 158 -100 158q-35 0 -63 -15v-303q18 -5 51 -5q55 0 83.5 43t28.5 122z" />
    <glyph glyph-name="c" unicode="c" horiz-adv-x="488" 
d="M441 15q-59 -37 -153 -37q-122 0 -189 77t-67 211q0 130 70.5 208.5t182.5 78.5q85 0 151 -38l-36 -118q-48 24 -89 24q-53 0 -80 -40t-27 -114q0 -154 110 -154q46 0 95 27z" />
    <glyph glyph-name="d" unicode="d" horiz-adv-x="598" 
d="M534 23q-88 -45 -221 -45q-131 0 -206 75t-75 210q0 132 67 209.5t179 77.5q47 0 87 -14v244h169v-757zM365 112v303q-24 13 -57 13q-106 0 -106 -159q0 -78 29 -120.5t83 -42.5q29 0 51 6z" />
    <glyph glyph-name="e" unicode="e" horiz-adv-x="573" 
d="M531 228l-328 -22q20 -95 125 -95q82 0 150 32l30 -125q-80 -40 -198 -40q-135 0 -206.5 78.5t-71.5 208.5q0 133 72 210.5t186 77.5q107 0 169.5 -61.5t70.5 -177.5q0 -6 1 -35.5t0 -50.5zM369 325q-5 105 -82 105q-41 0 -65 -31.5t-25 -86.5z" />
    <glyph glyph-name="f" unicode="f" horiz-adv-x="435" 
d="M382 413h-135v-424h-169v385l-27 39l-37 13l27 115l37 8q0 117 37.5 173t136.5 68q69 4 145 -16l-18 -125q-72 14 -102 -11.5t-30 -96.5h135v-128z" />
    <glyph glyph-name="g" unicode="g" horiz-adv-x="588" 
d="M527 26q0 -244 -262 -244q-112 0 -205 38q21 78 37 130q54 -25 114 -31q41 -4 76 9q36 6 55.5 26.5t19.5 49.5v17q-31 -18 -94 -18q-107 0 -171.5 69.5t-64.5 193.5q0 133 74 209.5t209 76.5q126 0 212 -37v-489zM360 138v286q-17 6 -50 6q-108 0 -108 -159
q0 -148 99 -148q33 0 59 15z" />
    <glyph glyph-name="h" unicode="h" 
d="M532 -11h-169v276q0 40 -0.5 56.5t-4.5 42t-12 35t-23 17.5t-39 8q-36 0 -60 -11v-424h-170v791h170v-246q38 14 74 15q62 3 106 -10t68.5 -34.5t38 -58.5t17.5 -71.5t4 -83.5v-302z" />
    <glyph glyph-name="i" unicode="i" horiz-adv-x="273" 
d="M234 685q0 -38 -27 -63t-67 -25q-39 0 -66.5 25t-27.5 63q0 39 27.5 64t66.5 25q40 0 67 -25t27 -64zM225 -11h-169v552h169v-552z" />
    <glyph glyph-name="j" unicode="j" horiz-adv-x="273" 
d="M235 685q0 -38 -27.5 -63t-66.5 -25q-40 0 -67 25t-27 63q0 39 27 64t66 25q40 0 67.5 -25.5t27.5 -63.5zM226 41q0 -109 -49 -172t-141 -76q-39 -10 -96 1l12 102q55 13 79 40t25 95v510h170v-500z" />
    <glyph glyph-name="k" unicode="k" horiz-adv-x="554" 
d="M572 -11h-191l-41 73t-67.5 112.5t-47.5 55.5v-241h-169v791h169v-441l148 202h188l-199 -246q114 -138 210 -306z" />
    <glyph glyph-name="l" unicode="l" horiz-adv-x="363" 
d="M333 66l-28 -80q-76 1 -126 15t-76.5 42.5t-36.5 64t-10 88.5v584h169v-555q0 -85 22.5 -114t85.5 -45z" />
    <glyph glyph-name="m" unicode="m" horiz-adv-x="862" 
d="M824 -11h-170v277q0 33 -0.5 46.5t-2 37t-6 33t-12.5 21.5t-20.5 16t-30.5 4q-35 0 -63 -20q5 -47 5 -150v-265h-169v277q0 39 -0.5 57t-4.5 42t-11.5 34t-22.5 17.5t-37 7.5q-32 0 -55 -7v-428h-170v526q109 38 229 38q106 0 161 -50q69 49 169 49q66 0 109.5 -19.5
t65 -58t29 -80.5t7.5 -103v-302z" />
    <glyph glyph-name="n" unicode="n" 
d="M532 -11h-169v277q0 95 -11 121q-16 37 -68 37q-32 0 -60 -7v-428h-170v518q76 45 235 45q78 0 128.5 -18.5t74.5 -57t32 -80t8 -105.5v-302z" />
    <glyph glyph-name="o" unicode="o" horiz-adv-x="599" 
d="M550 266q0 -129 -70 -208.5t-189 -79.5t-189 79.5t-70 208.5q0 128 70.5 207.5t188.5 79.5t188.5 -79.5t70.5 -207.5zM379 267q0 158 -88 158q-45 0 -67 -43t-22 -115q0 -156 89 -156q88 0 88 156z" />
    <glyph glyph-name="p" unicode="p" horiz-adv-x="598" 
d="M557 266q0 -130 -66 -207.5t-179 -77.5q-53 0 -88 14v-206h-170v726q100 37 222 37q130 0 205.5 -75t75.5 -211zM387 265q0 162 -112 162q-35 0 -51 -6v-303q26 -12 57 -12q106 0 106 159z" />
    <glyph glyph-name="q" unicode="q" horiz-adv-x="598" 
d="M534 -211h-169v211q-42 -20 -97 -20q-109 0 -172.5 75t-63.5 201q0 134 73 215t213 81q124 0 216 -37v-726zM365 121v301q-22 6 -51 6q-55 0 -83.5 -42.5t-28.5 -123.5q0 -156 100 -156q37 0 63 15z" />
    <glyph glyph-name="r" unicode="r" horiz-adv-x="408" 
d="M390 538l-29 -121q-39 9 -67 8q-43 0 -70 -9v-427h-170v521q96 40 211 41q60 2 125 -13z" />
    <glyph glyph-name="s" unicode="s" horiz-adv-x="468" 
d="M423 152q0 -81 -59.5 -127.5t-164.5 -46.5t-180 40l38 126q68 -35 130 -35q64 0 64 41q0 20 -20.5 34.5t-75.5 36.5q-63 28 -92 66t-29 93q0 77 55 125t146 48q95 0 171 -37l-37 -118q-62 29 -110 29q-27 0 -42.5 -11t-15.5 -29q0 -10 3 -17t12 -14t16.5 -10.5l27.5 -13
t33 -16.5q72 -32 101 -69.5t29 -94.5z" />
    <glyph glyph-name="t" unicode="t" horiz-adv-x="465" 
d="M418 5q-46 -20 -103 -24q-63 -3 -105 13t-63 49.5t-30 69t-12 86.5q-2 104 -2 213h-72v128h72v140h170v-139h133v-128h-133v-200q0 -55 10 -77t42 -24q42 -1 80 17q2 -21 6.5 -62t6.5 -62z" />
    <glyph glyph-name="u" unicode="u" 
d="M526 25q-66 -46 -235 -46q-129 0 -184 60t-55 178v324h169v-274q0 -36 0.5 -54t4.5 -41.5t12 -34.5t23 -19t37 -8q33 0 59 8v423h169v-516z" />
    <glyph glyph-name="v" unicode="v" horiz-adv-x="529" 
d="M533 541q-85 -280 -192 -552h-110q-23 5 -44 6q-105 260 -190 546h180q35 -152 74 -280l7 -31l6.5 -29t4.5 -16q1 0 20 76q45 154 76 280h168z" />
    <glyph glyph-name="w" unicode="w" horiz-adv-x="781" 
d="M795 541q-76 -284 -167 -552h-145q-47 157 -71 244q-5 15 -9 38.5t-5 26.5q-55 -213 -85 -309h-145q-86 255 -166 552h173q31 -153 62 -276q3 -13 6 -29.5t4.5 -26t3.5 -13.5l8 36q13 58 42 166.5t37 142.5h134q11 -51 36 -151.5t37 -154.5q2 -6 3.5 -15t3 -14.5
t2.5 -8.5q1 0 3 10t5 27.5t6 29.5q39 152 65 277h162z" />
    <glyph glyph-name="x" unicode="x" horiz-adv-x="537" 
d="M542 -11h-185q-46 92 -94 171q-9 -8 -24 -33t-27 -47.5l-27.5 -53.5l-18.5 -37h-174q69 124 179 286l-98 153l-33 51t-39 62h183l87 -149h1l89 149h171l-172 -259q111 -163 182 -293z" />
    <glyph glyph-name="y" unicode="y" horiz-adv-x="556" 
d="M543 541q-96 -327 -210 -633q-24 -57 -57.5 -81t-90.5 -24q-42 0 -126 30l34 113q38 -16 54 -16q7 0 13 2t10 5t8 9l6.5 10t5.5 12t4 12t3.5 13t3.5 12q-110 273 -189 536h179q27 -122 70 -271q23 -88 23 -89q1 1 22 89q24 84 71 271h166z" />
    <glyph glyph-name="z" unicode="z" horiz-adv-x="486" 
d="M443 -11h-424v105q28 49 101.5 162.5t98.5 156.5h-184v128h404v-90l-56 -83q-122 -187 -158 -250h218v-129z" />
    <glyph glyph-name="braceleft" unicode="{" horiz-adv-x="355" 
d="M368 -167q-135 0 -195 48.5t-60 163.5v105q0 59 -19.5 83t-69.5 25v103q22 6 35.5 11.5t27 15.5t20 26t6.5 38v139q0 111 61.5 156.5t193.5 45.5v-113q-57 0 -79 -16t-22 -62v-151q0 -100 -78 -136q34 -4 56 -47.5t22 -92.5v-152q0 -44 22.5 -60t78.5 -16v-114z" />
    <glyph glyph-name="bar" unicode="|" horiz-adv-x="304" 
d="M213 -211h-147v1005h147v-1005z" />
    <glyph glyph-name="braceright" unicode="}" horiz-adv-x="355" 
d="M360 268q-23 -7 -36 -12.5t-27 -15.5t-20 -26t-6 -39v-141q0 -110 -61.5 -155.5t-194.5 -45.5v114q60 0 81.5 17.5t21.5 66.5v144q0 104 77 139v1q-77 35 -77 136v110q0 75 -17.5 97t-85.5 22v113q135 0 195.5 -45.5t60.5 -156.5v-139q0 -79 89 -81v-103z" />
    <glyph glyph-name="asciitilde" unicode="~" horiz-adv-x="567" 
d="M555 368q-14 -57 -50.5 -97.5t-97.5 -42.5q-46 -3 -112.5 35t-97.5 36q-50 -3 -72 -79l-86 72q40 138 147 142q37 2 75.5 -17t72 -37.5t60.5 -16.5q28 1 45 19.5t29 56.5z" />
    <glyph glyph-name="uni00A0" unicode="&#xa0;" horiz-adv-x="236" 
 />
    <glyph glyph-name="exclamdown" unicode="&#xa1;" horiz-adv-x="282" 
d="M229 4v-207h-175v207q0 124 25 312h19h86h20q25 -189 25 -312zM243 462q0 -47 -26 -74.5t-75 -27.5q-42 0 -73 29t-31 73q0 46 30 74t73 28q42 0 72 -28t30 -74z" />
    <glyph glyph-name="cent" unicode="&#xa2;" horiz-adv-x="567" 
d="M227 -130v150q-91 26 -137.5 98t-46.5 174q0 96 49 169.5t135 101.5v150h159v-139q47 -7 106 -31l-39 -141q-49 21 -91 25q-26 3 -42 1q-52 -4 -80 -39.5t-28 -96.5q0 -125 113 -135q20 -2 44 0q52 6 104 29l26 -145q-49 -22 -113 -30v-141h-159z" />
    <glyph glyph-name="sterling" unicode="&#xa3;" horiz-adv-x="567" 
d="M272 462v-56h177v-143h-178l-1 -34q-2 -62 -9 -103h270v-147h-458q26 124 33 250l2 34h-89v143h89v45q0 152 65.5 214t184.5 62q77 0 165 -39l-44 -140q-62 30 -114 31q-46 0 -69.5 -25.5t-23.5 -91.5z" />
    <glyph glyph-name="currency" unicode="&#xa4;" horiz-adv-x="567" 
d="M545 168l-82 -81l-73 73q-47 -28 -105 -28q-59 0 -105 29l-74 -73l-82 80l73 72q-29 47 -29 105t29 105l-73 72l82 81l74 -73q47 28 105 28t105 -28l74 72l81 -80l-73 -71q29 -46 29 -106t-29 -106zM375 345q0 40 -26.5 66.5t-63.5 26.5q-38 0 -64 -26.5t-26 -66.5
q0 -39 26 -65.5t64 -26.5q37 0 63.5 26.5t26.5 65.5z" />
    <glyph glyph-name="yen" unicode="&#xa5;" horiz-adv-x="567" 
d="M367 -21h-167v112h-152v120h152v54h-152v120h100q-101 171 -174 329h185q81 -179 127 -260q47 89 123 260h189q-73 -152 -179 -329h101v-120h-153v-54h153v-120h-153v-112z" />
    <glyph glyph-name="brokenbar" unicode="&#xa6;" horiz-adv-x="290" 
d="M65 -206v433h160v-433h-160zM65 371v433h160v-433h-160z" />
    <glyph glyph-name="section" unicode="&#xa7;" horiz-adv-x="505" 
d="M500 260q0 -85 -91 -149q53 -48 55 -116q2 -79 -54.5 -125t-156.5 -46q-117 0 -196 46q28 85 37 109q36 -16 120 -24q30 -2 49 8q39 6 39 29q0 17 -14.5 31.5t-52.5 33.5q-102 56 -148.5 104t-46.5 127q0 89 91 155q-42 42 -43 103q-3 72 51.5 119t149.5 47t177 -40
l-39 -116q-53 25 -97 30q-27 2 -46 -5q-38 -6 -38 -32q0 -19 12.5 -32.5t47.5 -31.5q3 -2 7.5 -6t6.5 -6q50 -28 79 -47t54.5 -44.5t36 -54.5t10.5 -67zM355 246q0 17 -7 31.5t-24 28.5t-29 22.5t-38 24t-35 21.5q-38 -26 -42 -59q-2 -9 0 -17q1 -9 3.5 -17.5t8.5 -16.5
l10.5 -14t15 -14t15.5 -12.5t19 -12.5t19 -10.5t21 -11.5t20 -11q43 28 43 68z" />
    <glyph glyph-name="dieresis" unicode="&#xa8;" horiz-adv-x="484" 
d="M213 697q0 -39 -25.5 -63.5t-62.5 -24.5t-63 24.5t-26 63.5q0 40 26 64.5t63 24.5t62.5 -24.5t25.5 -64.5zM448 697q0 -39 -25.5 -63.5t-62.5 -24.5t-63 24.5t-26 63.5q0 40 26 64.5t63 24.5t62.5 -24.5t25.5 -64.5z" />
    <glyph glyph-name="copyright" unicode="&#xa9;" horiz-adv-x="925" 
d="M878 345q0 -189 -120.5 -306t-294.5 -117q-113 0 -207 51t-150.5 149t-56.5 223t56.5 223t150.5 149t207 51q174 0 294.5 -117t120.5 -306zM765 346q0 78 -25.5 139.5t-68.5 98.5t-96 56t-112 19t-112 -19t-96 -56t-68.5 -98.5t-25.5 -139.5q0 -152 87.5 -236.5
t214.5 -86.5q59 0 112 20.5t96 59t68.5 101.5t25.5 142zM593 237l50 -71q-73 -63 -167 -63q-103 0 -167.5 68.5t-64.5 174.5q0 105 66 171t166 66q92 0 161 -65l-61 -72q-41 40 -100 40q-54 0 -84.5 -39.5t-30.5 -100.5q0 -60 35.5 -104.5t90.5 -44.5q9 0 17 0.5t17 3.5
t13.5 4t15 6.5l12.5 6.5t15.5 9.5t15.5 9.5z" />
    <glyph glyph-name="ordfeminine" unicode="&#xaa;" horiz-adv-x="436" 
d="M224 403q29 0 39 2v67q-22 2 -36 2q-55 0 -55 -34q0 -18 11 -27.5t41 -9.5zM216 728q101 0 140.5 -45.5t39.5 -133.5v-232q-97 -23 -177 -23q-184 0 -184 143q0 49 29.5 81t72 44.5t95.5 12.5q13 0 31 -3v8q0 21 -22.5 34.5t-60.5 11.5q-44 -3 -91 -18l-20 97
q76 23 147 23z" />
    <glyph glyph-name="guillemotleft" unicode="&#xab;" horiz-adv-x="553" 
d="M532 117l-112 -58l-162 250l162 250l112 -59l-113 -191zM291 117l-111 -58l-163 250l163 250l111 -59l-113 -191z" />
    <glyph glyph-name="logicalnot" unicode="&#xac;" horiz-adv-x="567" 
d="M514 78h-133v197h-325v128h458v-325z" />
    <glyph glyph-name="uni00AD" unicode="&#xad;" horiz-adv-x="332" 
d="M21 242v127h294v-127h-294z" />
    <glyph glyph-name="registered" unicode="&#xae;" horiz-adv-x="930" 
d="M878 345q0 -189 -120.5 -306t-294.5 -117q-113 0 -207 51t-150.5 149t-56.5 223t56.5 223t150.5 149t207 51q174 0 294.5 -117t120.5 -306zM765 346q0 78 -25.5 139.5t-68.5 98.5t-96 56t-112 19t-112 -19t-96 -56t-68.5 -98.5t-25.5 -139.5q0 -152 87.5 -236.5
t214.5 -86.5q59 0 112 20.5t96 59t68.5 101.5t25.5 142zM656 124h-122q-62 121 -97 176h-27v-176h-111v437q67 19 137 19q97 0 146 -37.5t49 -107.5q0 -42 -23.5 -73.5t-61.5 -44.5q14 -18 30.5 -45t25.5 -44l29.5 -57t24.5 -47zM519 431q0 37 -20.5 54t-50.5 17
q-18 0 -38 -5v-135h38q31 0 51 17.5t20 51.5z" />
    <glyph glyph-name="macron" unicode="&#xaf;" horiz-adv-x="376" 
d="M362 610h-347v130h347v-130z" />
    <glyph glyph-name="degree" unicode="&#xb0;" horiz-adv-x="349" 
d="M357 586q0 -71 -49 -117.5t-117 -46.5q-70 0 -118 46t-48 118q0 71 48.5 117.5t117.5 46.5q68 0 117 -46.5t49 -117.5zM251 586q0 27 -17.5 44.5t-42.5 17.5q-26 0 -44 -17.5t-18 -44.5t18 -44.5t44 -17.5q25 0 42.5 17.5t17.5 44.5z" />
    <glyph glyph-name="plusminus" unicode="&#xb1;" horiz-adv-x="567" 
d="M514 359h-163v-172h-133v172h-162v133h162v171h133v-171h163v-133zM30 0v145h507v-145h-507z" />
    <glyph glyph-name="twosuperior" unicode="&#xb2;" horiz-adv-x="362" 
d="M325 590q0 -32 -15 -60.5t-31 -44t-46 -40.5q-29 -24 -34 -39h138v-121h-316q-2 26 -2 47q0 54 27.5 95t85.5 91h-1q21 18 29.5 26t17 19.5t8.5 20.5q0 19 -24 19q-42 0 -98 -47l-67 101q83 73 170 73q158 0 158 -140z" />
    <glyph glyph-name="threesuperior" unicode="&#xb3;" horiz-adv-x="362" 
d="M148 400q52 0 52 25q0 16 -17.5 26.5t-45.5 10.5h-53v86h32q22 0 44 14t22 29q0 9 -15 14q-18 3 -71 -13q-24 -4 -44 -16l-49 103q80 51 155 51q141 0 155 -106q1 -10 1 -31q-4 -38 -34 -68q48 -31 53 -92q2 -15 0 -32q-16 -124 -183 -124q-77 0 -149 35l30 117
q68 -29 117 -29z" />
    <glyph glyph-name="acute" unicode="&#xb4;" horiz-adv-x="328" 
d="M144 597h-119l81 208h202z" />
    <glyph glyph-name="mu" unicode="&#xb5;" horiz-adv-x="588" 
d="M532 17q-88 -37 -206 -37q-60 0 -104 23q2 -38 2 -115v-92h-170v745h170v-336q5 -53 19 -76.5t57 -23.5q39 0 63 9v427h169v-524z" />
    <glyph glyph-name="paragraph" unicode="&#xb6;" horiz-adv-x="682" 
d="M258 699q85 3 176 3h124v-913h-130v805l-76 1v-806h-130v476q-97 15 -149.5 69.5t-52.5 145.5q0 99 64.5 154t173.5 65z" />
    <glyph glyph-name="periodcentered" unicode="&#xb7;" horiz-adv-x="246" 
d="M232 313q0 -45 -29 -72.5t-71 -27.5q-41 0 -70 27.5t-29 71.5t29 72t70 28q42 0 71 -28t29 -71z" />
    <glyph glyph-name="cedilla" unicode="&#xb8;" horiz-adv-x="341" 
d="M239 -30q52 -35 52 -90q0 -52 -38.5 -82t-108.5 -30q-47 0 -108 18l24 116q23 -7 57 -13q26 -2 32 6q-13 9 -57 24q8 27 26 66t28 56h130q-17 -29 -37 -71z" />
    <glyph glyph-name="onesuperior" unicode="&#xb9;" horiz-adv-x="362" 
d="M65 518l-33 101q91 43 157 102h100v-436h-138v267q-34 -15 -86 -34z" />
    <glyph glyph-name="ordmasculine" unicode="&#xba;" horiz-adv-x="521" 
d="M486 502q0 -106 -62.5 -169.5t-162.5 -63.5t-163 63.5t-63 169.5q0 107 63 171.5t163 64.5t162.5 -64.5t62.5 -171.5zM336 502q0 47 -19.5 73.5t-55.5 26.5q-35 0 -55.5 -27t-20.5 -73q0 -45 20 -71.5t56 -26.5q35 0 55 26.5t20 71.5z" />
    <glyph glyph-name="guillemotright" unicode="&#xbb;" horiz-adv-x="553" 
d="M544 309l-163 -250l-112 58l113 192l-113 191l112 59zM303 309l-163 -250l-111 58l113 192l-113 191l111 59z" />
    <glyph glyph-name="onequarter" unicode="&#xbc;" horiz-adv-x="930" 
d="M851 161h48v-92h-48v-89h-123v89h-188v89q82 145 198 259h113v-256zM183 -21l418 735h163l-416 -735h-165zM634 161h96v131q-52 -55 -96 -131zM73 518l-33 101q89 41 157 102h100v-436h-138v267q-28 -14 -86 -34z" />
    <glyph glyph-name="onehalf" unicode="&#xbd;" horiz-adv-x="980" 
d="M65 518l-33 101q91 43 157 102h100v-436h-138v267q-34 -15 -86 -34zM192 -21l390 735h163l-388 -735h-165zM936 285q0 -32 -15.5 -60.5t-30.5 -44t-45 -40.5q-29 -23 -35 -39h139v-120h-316q-2 25 -2 46q0 54 27.5 95.5t84.5 90.5h-1q21 17 30.5 25.5t17.5 20t8 20.5
q0 19 -24 19q-43 0 -99 -47l-67 101q85 73 171 73q157 0 157 -140z" />
    <glyph glyph-name="threequarters" unicode="&#xbe;" horiz-adv-x="959" 
d="M210 -21l425 735h163l-424 -735h-164zM199 593q-2 9 -9.5 12.5t-14 3.5t-18 -2t-13.5 -2q-19 -1 -58 -29l-49 103q80 51 155 51q143 0 155 -109q2 -14 0 -28q-3 -38 -34 -68q49 -32 54 -92q1 -15 0 -30q-6 -57 -51 -91.5t-133 -34.5q-77 0 -149 35l30 117q69 -29 118 -29
q52 0 52 25q0 30 -96 30h-21v86q58 0 70 29q18 10 12 23zM881 161h47v-92h-47v-89h-124v89h-187v89q80 143 197 259h114v-256zM663 161h96v131q-52 -55 -96 -131z" />
    <glyph glyph-name="questiondown" unicode="&#xbf;" horiz-adv-x="432" 
d="M177 -20q0 -46 67 -46q60 0 145 44l50 -134q-96 -59 -207 -59q-64 0 -110.5 17.5t-70.5 46.5t-34.5 59.5t-10.5 63.5q0 40 17 76.5t42 63l49.5 50.5t41.5 51.5t17 54.5q0 14 -4 44h41h71h36q8 -30 8 -63q0 -38 -15 -72.5t-37 -59.5t-44 -47.5t-37 -45.5t-15 -44zM346 477
q0 -50 -28.5 -79.5t-74.5 -29.5q-45 0 -73.5 29.5t-28.5 79.5q0 46 30 74t72 28q43 0 73 -28t30 -74z" />
    <glyph glyph-name="Agrave" unicode="&#xc0;" horiz-adv-x="697" 
d="M685 -11h-188l-24 83t-13.5 45.5t-5.5 18.5h-230q-35 -103 -47 -147h-170q155 454 257 711h163q109 -278 258 -711zM419 261l-59 186q-21 68 -21 69q-5 -11 -16 -53q-11 -38 -65 -202h161zM385 761h-120l-163 208h201z" />
    <glyph glyph-name="Aacute" unicode="&#xc1;" horiz-adv-x="697" 
d="M685 -11h-188l-24 83t-13.5 45.5t-5.5 18.5h-230q-35 -103 -47 -147h-170q155 454 257 711h163q109 -278 258 -711zM419 261l-59 186q-21 68 -21 69q-5 -11 -16 -53q-11 -38 -65 -202h161zM382 781h-119l81 208h202z" />
    <glyph glyph-name="Acircumflex" unicode="&#xc2;" horiz-adv-x="697" 
d="M685 -11h-188l-24 83t-13.5 45.5t-5.5 18.5h-230q-35 -103 -47 -147h-170q155 454 257 711h163q109 -278 258 -711zM419 261l-59 186q-21 68 -21 69q-5 -11 -16 -53q-11 -38 -65 -202h161zM322 839l-105 -85l-75 86l180 166l176 -166l-72 -86z" />
    <glyph glyph-name="Atilde" unicode="&#xc3;" horiz-adv-x="697" 
d="M685 -11h-188l-24 83t-13.5 45.5t-5.5 18.5h-230q-35 -103 -47 -147h-170q155 454 257 711h163q109 -278 258 -711zM419 261l-59 186q-21 68 -21 69q-5 -11 -16 -53q-11 -38 -65 -202h161zM398 773q-27 0 -68.5 18t-56.5 18q-21 0 -46 -53l-97 61q18 48 53.5 86.5
t83.5 38.5q28 0 69.5 -18t56.5 -18q19 0 46 53l99 -63q-70 -123 -140 -123z" />
    <glyph glyph-name="Adieresis" unicode="&#xc4;" horiz-adv-x="697" 
d="M685 -11h-188l-24 83t-13.5 45.5t-5.5 18.5h-230q-35 -103 -47 -147h-170q155 454 257 711h163q109 -278 258 -711zM419 261l-59 186q-21 68 -21 69q-5 -11 -16 -53q-11 -38 -65 -202h161zM290 872q0 -39 -25.5 -63.5t-62.5 -24.5t-63 24.5t-26 63.5q0 40 26 64.5
t63 24.5t62.5 -24.5t25.5 -64.5zM525 872q0 -39 -25.5 -63.5t-62.5 -24.5t-63 24.5t-26 63.5q0 40 26 64.5t63 24.5t62.5 -24.5t25.5 -64.5z" />
    <glyph glyph-name="Aring" unicode="&#xc5;" horiz-adv-x="697" 
d="M685 -11h-188l-24 83t-13.5 45.5t-5.5 18.5h-230q-35 -103 -47 -147h-170q155 454 257 711h163q109 -278 258 -711zM419 261l-59 186q-21 68 -21 69q-5 -11 -16 -53q-11 -38 -65 -202h161zM455 886q0 -61 -38 -95.5t-95 -34.5q-55 0 -93.5 35t-38.5 95t38.5 95t93.5 35
q56 0 94.5 -35t38.5 -95zM350 886q0 14 -8 22t-20 8t-20 -8t-8 -22t8 -22t20 -8t20 8t8 22z" />
    <glyph glyph-name="AE" unicode="&#xc6;" horiz-adv-x="970" 
d="M955 -21h-494v172h-206q-61 -106 -92 -172h-190q245 449 452 735h506v-151h-302v-126h267v-149h-267v-158h326v-151zM461 297v202q-52 -76 -98 -152l-31 -50h129z" />
    <glyph glyph-name="Ccedilla" unicode="&#xc7;" horiz-adv-x="636" 
d="M463 -97q18 -31 10 -61q-29 -74 -138 -74q-47 0 -108 18l24 116q51 -16 76 -16q8 2 3 11q-7 7 -47 22q7 25 19 55q-129 23 -199 119t-70 254q0 178 103 280.5t261 102.5q130 0 234 -63l-53 -145q-91 51 -178 51q-85 0 -137.5 -57.5t-52.5 -166.5q0 -105 47.5 -166
t144.5 -61q94 0 188 46l49 -143q-32 -20 -85.5 -37t-110.5 -20q22 -26 20 -65z" />
    <glyph glyph-name="Egrave" unicode="&#xc8;" horiz-adv-x="591" 
d="M499 -11h-438v711h425v-135h-248v-146h219v-134h-219v-160h261v-136zM339 761h-120l-163 208h201z" />
    <glyph glyph-name="Eacute" unicode="&#xc9;" horiz-adv-x="591" 
d="M499 -11h-438v711h425v-135h-248v-146h219v-134h-219v-160h261v-136zM335 781h-119l81 208h202z" />
    <glyph glyph-name="Ecircumflex" unicode="&#xca;" horiz-adv-x="591" 
d="M499 -11h-438v711h425v-135h-248v-146h219v-134h-219v-160h261v-136zM276 839l-105 -85l-75 86l180 166l176 -166l-72 -86z" />
    <glyph glyph-name="Edieresis" unicode="&#xcb;" horiz-adv-x="591" 
d="M499 -11h-438v711h425v-135h-248v-146h219v-134h-219v-160h261v-136zM244 872q0 -39 -25.5 -63.5t-62.5 -24.5t-63 24.5t-26 63.5q0 40 26 64.5t63 24.5t62.5 -24.5t25.5 -64.5zM479 872q0 -39 -25.5 -63.5t-62.5 -24.5t-63 24.5t-26 63.5q0 40 26 64.5t63 24.5
t62.5 -24.5t25.5 -64.5z" />
    <glyph glyph-name="Igrave" unicode="&#xcc;" horiz-adv-x="296" 
d="M238 -11h-176v711h176v-711zM212 761h-120l-163 208h201z" />
    <glyph glyph-name="Iacute" unicode="&#xcd;" horiz-adv-x="296" 
d="M238 -11h-176v711h176v-711zM209 781h-119l81 208h202z" />
    <glyph glyph-name="Icircumflex" unicode="&#xce;" horiz-adv-x="296" 
d="M238 -11h-176v711h176v-711zM149 839l-105 -85l-75 86l180 166l176 -166l-72 -86z" />
    <glyph glyph-name="Idieresis" unicode="&#xcf;" horiz-adv-x="296" 
d="M238 -11h-176v711h176v-711zM118 872q0 -39 -25.5 -63.5t-62.5 -24.5t-63 24.5t-26 63.5q0 40 26 64.5t63 24.5t62.5 -24.5t25.5 -64.5zM353 872q0 -39 -25.5 -63.5t-62.5 -24.5t-63 24.5t-26 63.5q0 40 26 64.5t63 24.5t62.5 -24.5t25.5 -64.5z" />
    <glyph glyph-name="Eth" unicode="&#xd0;" horiz-adv-x="738" 
d="M706 347q0 -185 -110.5 -280.5t-304.5 -95.5q-118 0 -217 22v298h-81v139h81v270q104 21 221 21q192 0 301.5 -92.5t109.5 -281.5zM245 291v-165q3 0 20.5 -1t33.5 -1q114 0 172 58.5t58 164.5q0 108 -56 165t-170 57q-25 0 -58 -3v-136h128v-139h-128z" />
    <glyph glyph-name="Ntilde" unicode="&#xd1;" horiz-adv-x="742" 
d="M636 -11h-104l-38 6q-101 174 -233 371q-7 10 -16.5 27t-16 27t-8.5 10q0 -8 1 -55.5t1 -74.5v-311h-161v711h146q119 -158 232 -333q37 -61 38 -62q0 16 -1 77t-1 93v225h161v-711zM435 761q-28 0 -69.5 18t-56.5 18q-19 0 -46 -54l-97 62q18 48 53.5 86.5t83.5 38.5
q29 0 70 -18.5t56 -18.5q21 0 46 54l100 -64q-72 -122 -140 -122z" />
    <glyph glyph-name="Ograve" unicode="&#xd2;" horiz-adv-x="712" 
d="M673 345q0 -168 -85 -268t-232 -100q-146 0 -231.5 100t-85.5 268t86 268t231 100q146 0 231.5 -100t85.5 -268zM493 349q0 100 -34.5 164t-102.5 64t-102.5 -64t-34.5 -164q0 -101 34.5 -164.5t102.5 -63.5t102.5 63.5t34.5 164.5zM418 777h-120l-163 208h201z" />
    <glyph glyph-name="Oacute" unicode="&#xd3;" horiz-adv-x="712" 
d="M673 345q0 -168 -85 -268t-232 -100q-146 0 -231.5 100t-85.5 268t86 268t231 100q146 0 231.5 -100t85.5 -268zM493 349q0 100 -34.5 164t-102.5 64t-102.5 -64t-34.5 -164q0 -101 34.5 -164.5t102.5 -63.5t102.5 63.5t34.5 164.5zM415 797h-119l81 208h202z" />
    <glyph glyph-name="Ocircumflex" unicode="&#xd4;" horiz-adv-x="712" 
d="M673 345q0 -168 -85 -268t-232 -100q-146 0 -231.5 100t-85.5 268t86 268t231 100q146 0 231.5 -100t85.5 -268zM493 349q0 100 -34.5 164t-102.5 64t-102.5 -64t-34.5 -164q0 -101 34.5 -164.5t102.5 -63.5t102.5 63.5t34.5 164.5zM355 855l-105 -85l-75 86l180 166
l176 -166l-72 -86z" />
    <glyph glyph-name="Otilde" unicode="&#xd5;" horiz-adv-x="712" 
d="M673 345q0 -168 -85 -268t-232 -100q-146 0 -231.5 100t-85.5 268t86 268t231 100q146 0 231.5 -100t85.5 -268zM493 349q0 100 -34.5 164t-102.5 64t-102.5 -64t-34.5 -164q0 -101 34.5 -164.5t102.5 -63.5t102.5 63.5t34.5 164.5zM412 789q-27 0 -68.5 18t-56.5 18
q-21 0 -46 -53l-97 61q18 48 53.5 86.5t83.5 38.5q28 0 69.5 -18t56.5 -18q19 0 46 53l99 -63q-70 -123 -140 -123z" />
    <glyph glyph-name="Odieresis" unicode="&#xd6;" horiz-adv-x="712" 
d="M673 345q0 -168 -85 -268t-232 -100q-146 0 -231.5 100t-85.5 268t86 268t231 100q146 0 231.5 -100t85.5 -268zM493 349q0 100 -34.5 164t-102.5 64t-102.5 -64t-34.5 -164q0 -101 34.5 -164.5t102.5 -63.5t102.5 63.5t34.5 164.5zM323 888q0 -39 -25.5 -63.5
t-62.5 -24.5t-63 24.5t-26 63.5q0 40 26 64.5t63 24.5t62.5 -24.5t25.5 -64.5zM558 888q0 -39 -25.5 -63.5t-62.5 -24.5t-63 24.5t-26 63.5q0 40 26 64.5t63 24.5t62.5 -24.5t25.5 -64.5z" />
    <glyph glyph-name="multiply" unicode="&#xd7;" horiz-adv-x="567" 
d="M41 439l102 102l140 -142l141 142l102 -102l-141 -142l141 -140l-102 -102l-141 141l-140 -141l-102 102l141 140z" />
    <glyph glyph-name="Oslash" unicode="&#xd8;" horiz-adv-x="785" 
d="M753 347q0 -182 -101.5 -282t-258.5 -100q-103 0 -179 43l-60 -79l-108 80l65 83q-78 94 -78 255q0 180 103.5 281.5t256.5 101.5q97 0 176 -44l61 78l107 -80l-64 -83q80 -101 80 -254zM209 347q0 -57 21 -102l238 310q-30 18 -75 18q-86 0 -135 -61t-49 -165zM576 347
q0 59 -20 102l-240 -310q32 -18 77 -18q85 0 134 61t49 165z" />
    <glyph glyph-name="Ugrave" unicode="&#xd9;" horiz-adv-x="699" 
d="M599 233q0 -117 -71.5 -187t-200.5 -70q-113 0 -183 56t-81 152q-5 37 -5 96v420h176v-392q0 -103 19 -144.5t78 -41.5q90 0 96 103q2 54 2 83v392h170v-467zM396 761h-120l-163 208h201z" />
    <glyph glyph-name="Uacute" unicode="&#xda;" horiz-adv-x="699" 
d="M599 233q0 -117 -71.5 -187t-200.5 -70q-113 0 -183 56t-81 152q-5 37 -5 96v420h176v-392q0 -103 19 -144.5t78 -41.5q90 0 96 103q2 54 2 83v392h170v-467zM392 781h-119l81 208h202z" />
    <glyph glyph-name="Ucircumflex" unicode="&#xdb;" horiz-adv-x="699" 
d="M599 233q0 -117 -71.5 -187t-200.5 -70q-113 0 -183 56t-81 152q-5 37 -5 96v420h176v-392q0 -103 19 -144.5t78 -41.5q90 0 96 103q2 54 2 83v392h170v-467zM333 839l-105 -85l-75 86l180 166l176 -166l-72 -86z" />
    <glyph glyph-name="Udieresis" unicode="&#xdc;" horiz-adv-x="699" 
d="M599 233q0 -117 -71.5 -187t-200.5 -70q-113 0 -183 56t-81 152q-5 37 -5 96v420h176v-392q0 -103 19 -144.5t78 -41.5q90 0 96 103q2 54 2 83v392h170v-467zM301 872q0 -39 -25.5 -63.5t-62.5 -24.5t-63 24.5t-26 63.5q0 40 26 64.5t63 24.5t62.5 -24.5t25.5 -64.5z
M536 872q0 -39 -25.5 -63.5t-62.5 -24.5t-63 24.5t-26 63.5q0 40 26 64.5t63 24.5t62.5 -24.5t25.5 -64.5z" />
    <glyph glyph-name="Yacute" unicode="&#xdd;" horiz-adv-x="633" 
d="M601 700q-105 -214 -221 -425v-286h-175v285q-122 223 -220 426h193q65 -156 120 -265q61 122 123 265h180zM360 781h-119l81 208h202z" />
    <glyph glyph-name="Thorn" unicode="&#xde;" horiz-adv-x="629" 
d="M234 714v-105q20 2 60 2q152 0 236 -60.5t84 -187.5q0 -131 -86 -191t-253 -60h-41v-133h-172v735h172zM288 459q-35 0 -54 -3v-191h39q84 0 124.5 21.5t40.5 77.5q0 95 -150 95z" />
    <glyph glyph-name="germandbls" unicode="&#xdf;" horiz-adv-x="640" 
d="M533 613q0 -77 -55 -137v1q-3 -3 -9 -10.5l-8.5 -10.5l-7.5 -9l-7.5 -9t-6 -8.5t-5 -8.5t-3.5 -7.5t-2.5 -8.5t-0.5 -8q0 -12 12.5 -23.5t23.5 -18t38 -20.5q31 -19 48 -31t37 -33t28.5 -48t8.5 -63q0 -193 -226 -193q-17 0 -34 2t-29.5 4.5t-27.5 7.5t-22 8l-20.5 8.5
t-16.5 6.5l9 44l21 98q54 -26 92 -30q27 -4 48 -1q41 8 41 43q0 23 -21 40t-65 38q-64 31 -85.5 64.5t-21.5 81.5q0 29 10.5 55t22.5 41t36 42v-1l22 26.5t11.5 21t5.5 29.5q0 25 -18 40t-50 15q-89 0 -89 -108v-564h-163v544q0 33 3 65q12 97 74 153t170 56
q116 0 174 -51.5t58 -132.5z" />
    <glyph glyph-name="agrave" unicode="&#xe0;" horiz-adv-x="540" 
d="M493 14q-95 -35 -228 -35q-241 0 -241 181q0 173 260 188q13 1 46 -2q-5 81 -88 81q-70 0 -148 -31l-29 121q94 36 200 36q201 0 223 -166q5 -35 5 -67v-306zM331 102v141q-40 0 -49 -1q-94 -9 -94 -77t86 -68q37 0 57 5zM337 599h-120l-163 208h201z" />
    <glyph glyph-name="aacute" unicode="&#xe1;" horiz-adv-x="540" 
d="M493 14q-95 -35 -228 -35q-241 0 -241 181q0 173 260 188q13 1 46 -2q-5 81 -88 81q-70 0 -148 -31l-29 121q94 36 200 36q201 0 223 -166q5 -35 5 -67v-306zM331 102v141q-40 0 -49 -1q-94 -9 -94 -77t86 -68q37 0 57 5zM305 622h-119l81 208h202z" />
    <glyph glyph-name="acircumflex" unicode="&#xe2;" horiz-adv-x="540" 
d="M493 14q-95 -35 -228 -35q-241 0 -241 181q0 173 260 188q13 1 46 -2q-5 81 -88 81q-70 0 -148 -31l-29 121q94 36 200 36q201 0 223 -166q5 -35 5 -67v-306zM331 102v141q-40 0 -49 -1q-94 -9 -94 -77t86 -68q37 0 57 5zM274 677l-105 -85l-75 86l180 166l176 -166
l-72 -86z" />
    <glyph glyph-name="atilde" unicode="&#xe3;" horiz-adv-x="540" 
d="M493 14q-95 -35 -228 -35q-241 0 -241 181q0 173 260 188q13 1 46 -2q-5 81 -88 81q-70 0 -148 -31l-29 121q94 36 200 36q201 0 223 -166q5 -35 5 -67v-306zM331 102v141q-40 0 -49 -1q-94 -9 -94 -77t86 -68q37 0 57 5zM331 611q-27 0 -68.5 18t-56.5 18q-21 0 -46 -53
l-97 61q18 48 53.5 86.5t83.5 38.5q28 0 69.5 -18t56.5 -18q19 0 46 53l99 -63q-70 -123 -140 -123z" />
    <glyph glyph-name="adieresis" unicode="&#xe4;" horiz-adv-x="540" 
d="M493 14q-95 -35 -228 -35q-241 0 -241 181q0 173 260 188q13 1 46 -2q-5 81 -88 81q-70 0 -148 -31l-29 121q94 36 200 36q201 0 223 -166q5 -35 5 -67v-306zM331 102v141q-40 0 -49 -1q-94 -9 -94 -77t86 -68q37 0 57 5zM243 710q0 -39 -25.5 -63.5t-62.5 -24.5
t-63 24.5t-26 63.5q0 40 26 64.5t63 24.5t62.5 -24.5t25.5 -64.5zM478 710q0 -39 -25.5 -63.5t-62.5 -24.5t-63 24.5t-26 63.5q0 40 26 64.5t63 24.5t62.5 -24.5t25.5 -64.5z" />
    <glyph glyph-name="aring" unicode="&#xe5;" horiz-adv-x="540" 
d="M493 14q-95 -35 -228 -35q-241 0 -241 181q0 173 260 188q13 1 46 -2q-5 81 -88 81q-70 0 -148 -31l-29 121q94 36 200 36q201 0 223 -166q5 -35 5 -67v-306zM331 102v141q-40 0 -49 -1q-94 -9 -94 -77t86 -68q37 0 57 5zM407 724q0 -61 -38 -95.5t-95 -34.5
q-55 0 -93.5 35t-38.5 95t38.5 95t93.5 35q56 0 94.5 -35t38.5 -95zM302 724q0 14 -8 22t-20 8t-20 -8t-8 -22t8 -22t20 -8t20 8t8 22z" />
    <glyph glyph-name="ae" unicode="&#xe6;" horiz-adv-x="868" 
d="M498 332h173q-10 80 -83 80q-36 0 -59.5 -22.5t-30.5 -57.5zM258 -32q-240 0 -240 191q0 96 67.5 140t173.5 44q34 0 69 -7q-3 17 -7 28.5t-13 23t-26 17.5t-41 6q-76 0 -153 -27l-22 143q89 31 188 31q116 0 168 -70q63 62 155 68q26 1 55 -2q98 -12 153 -84t55 -198
q0 -11 -1.5 -35.5t-1.5 -34.5h-337q22 -87 128 -87q79 0 157 36l24 -144q-59 -31 -153 -38q-33 -3 -59 -2q-96 3 -162 46q-78 -45 -177 -45zM333 209q-38 5 -55 5q-94 0 -94 -53t81 -53q48 0 87 16q-18 42 -19 85z" />
    <glyph glyph-name="ccedilla" unicode="&#xe7;" horiz-adv-x="488" 
d="M357 -31q23 -27 21 -66q17 -26 13 -55q-23 -80 -142 -80q-48 0 -107 18l24 116q51 -16 76 -16q8 2 3 11q-11 10 -46 21q7 36 20 61q-95 24 -143.5 99t-48.5 183q0 129 76.5 213t205.5 84q87 0 167 -37l-38 -140q-67 27 -119 27q-60 0 -91.5 -38.5t-31.5 -108.5
q0 -146 131 -146q60 0 130 32l27 -146q-62 -27 -127 -32z" />
    <glyph glyph-name="egrave" unicode="&#xe8;" horiz-adv-x="573" 
d="M531 228l-328 -22q20 -95 125 -95q82 0 150 32l30 -125q-80 -40 -198 -40q-135 0 -206.5 78.5t-71.5 208.5q0 133 72 210.5t186 77.5q107 0 169.5 -61.5t70.5 -177.5q0 -6 1 -35.5t0 -50.5zM369 325q-5 105 -82 105q-41 0 -65 -31.5t-25 -86.5zM344 598h-120l-163 208
h201z" />
    <glyph glyph-name="eacute" unicode="&#xe9;" horiz-adv-x="573" 
d="M531 228l-328 -22q20 -95 125 -95q82 0 150 32l30 -125q-80 -40 -198 -40q-135 0 -206.5 78.5t-71.5 208.5q0 133 72 210.5t186 77.5q107 0 169.5 -61.5t70.5 -177.5q0 -6 1 -35.5t0 -50.5zM369 325q-5 105 -82 105q-41 0 -65 -31.5t-25 -86.5zM341 618h-119l81 208h202z
" />
    <glyph glyph-name="ecircumflex" unicode="&#xea;" horiz-adv-x="573" 
d="M531 228l-328 -22q20 -95 125 -95q82 0 150 32l30 -125q-80 -40 -198 -40q-135 0 -206.5 78.5t-71.5 208.5q0 133 72 210.5t186 77.5q107 0 169.5 -61.5t70.5 -177.5q0 -6 1 -35.5t0 -50.5zM369 325q-5 105 -82 105q-41 0 -65 -31.5t-25 -86.5zM281 676l-105 -85l-75 86
l180 166l176 -166l-72 -86z" />
    <glyph glyph-name="edieresis" unicode="&#xeb;" horiz-adv-x="573" 
d="M531 228l-328 -22q20 -95 125 -95q82 0 150 32l30 -125q-80 -40 -198 -40q-135 0 -206.5 78.5t-71.5 208.5q0 133 72 210.5t186 77.5q107 0 169.5 -61.5t70.5 -177.5q0 -6 1 -35.5t0 -50.5zM369 325q-5 105 -82 105q-41 0 -65 -31.5t-25 -86.5zM250 709
q0 -39 -25.5 -63.5t-62.5 -24.5t-63 24.5t-26 63.5q0 40 26 64.5t63 24.5t62.5 -24.5t25.5 -64.5zM485 709q0 -39 -25.5 -63.5t-62.5 -24.5t-63 24.5t-26 63.5q0 40 26 64.5t63 24.5t62.5 -24.5t25.5 -64.5z" />
    <glyph glyph-name="igrave" unicode="&#xec;" horiz-adv-x="273" 
d="M220 544v-565h-166v565h166zM201 598h-120l-163 208h201z" />
    <glyph glyph-name="iacute" unicode="&#xed;" horiz-adv-x="273" 
d="M220 544v-565h-166v565h166zM197 618h-119l81 208h202z" />
    <glyph glyph-name="icircumflex" unicode="&#xee;" horiz-adv-x="273" 
d="M220 544v-565h-166v565h166zM137 676l-105 -85l-75 86l180 166l176 -166l-72 -86z" />
    <glyph glyph-name="idieresis" unicode="&#xef;" horiz-adv-x="273" 
d="M220 544v-565h-166v565h166zM106 709q0 -39 -25.5 -63.5t-62.5 -24.5t-63 24.5t-26 63.5q0 40 26 64.5t63 24.5t62.5 -24.5t25.5 -64.5zM341 709q0 -39 -25.5 -63.5t-62.5 -24.5t-63 24.5t-26 63.5q0 40 26 64.5t63 24.5t62.5 -24.5t25.5 -64.5z" />
    <glyph glyph-name="eth" unicode="&#xf0;" horiz-adv-x="594" 
d="M27 237q0 128 73 197.5t199 69.5q34 0 79 -21q-11 46 -30 79l-100 -24l-44 83l65 26q-30 29 -74 57l99 101q80 -45 133 -103l124 42l38 -112l-91 -32q69 -124 69 -274q0 -162 -67 -261t-210 -99q-125 0 -194 77.5t-69 193.5zM398 329q-38 32 -96 32q-108 0 -108 -122
q0 -55 25 -89t71 -34q101 0 107 172q1 14 1 41z" />
    <glyph glyph-name="ntilde" unicode="&#xf1;" 
d="M532 -11h-169v277q0 95 -11 121q-16 37 -68 37q-32 0 -60 -7v-428h-170v518q76 45 235 45q78 0 128.5 -18.5t74.5 -57t32 -80t8 -105.5v-302zM356 617q-28 0 -69.5 18t-56.5 18q-19 0 -46 -54l-97 62q18 48 53.5 86.5t83.5 38.5q29 0 70 -18.5t56 -18.5q21 0 46 54
l100 -64q-72 -122 -140 -122z" />
    <glyph glyph-name="ograve" unicode="&#xf2;" horiz-adv-x="599" 
d="M550 266q0 -129 -70 -208.5t-189 -79.5t-189 79.5t-70 208.5q0 128 70.5 207.5t188.5 79.5t188.5 -79.5t70.5 -207.5zM379 267q0 158 -88 158q-45 0 -67 -43t-22 -115q0 -156 89 -156q88 0 88 156zM355 598h-120l-163 208h201z" />
    <glyph glyph-name="oacute" unicode="&#xf3;" horiz-adv-x="599" 
d="M550 266q0 -129 -70 -208.5t-189 -79.5t-189 79.5t-70 208.5q0 128 70.5 207.5t188.5 79.5t188.5 -79.5t70.5 -207.5zM379 267q0 158 -88 158q-45 0 -67 -43t-22 -115q0 -156 89 -156q88 0 88 156zM351 618h-119l81 208h202z" />
    <glyph glyph-name="ocircumflex" unicode="&#xf4;" horiz-adv-x="599" 
d="M550 266q0 -129 -70 -208.5t-189 -79.5t-189 79.5t-70 208.5q0 128 70.5 207.5t188.5 79.5t188.5 -79.5t70.5 -207.5zM379 267q0 158 -88 158q-45 0 -67 -43t-22 -115q0 -156 89 -156q88 0 88 156zM291 676l-105 -85l-75 86l180 166l176 -166l-72 -86z" />
    <glyph glyph-name="otilde" unicode="&#xf5;" horiz-adv-x="599" 
d="M550 266q0 -129 -70 -208.5t-189 -79.5t-189 79.5t-70 208.5q0 128 70.5 207.5t188.5 79.5t188.5 -79.5t70.5 -207.5zM379 267q0 158 -88 158q-45 0 -67 -43t-22 -115q0 -156 89 -156q88 0 88 156zM348 610q-27 0 -68.5 18t-56.5 18q-21 0 -46 -53l-97 61
q18 48 53.5 86.5t83.5 38.5q28 0 69.5 -18t56.5 -18q19 0 46 53l99 -63q-70 -123 -140 -123z" />
    <glyph glyph-name="odieresis" unicode="&#xf6;" horiz-adv-x="599" 
d="M550 266q0 -129 -70 -208.5t-189 -79.5t-189 79.5t-70 208.5q0 128 70.5 207.5t188.5 79.5t188.5 -79.5t70.5 -207.5zM379 267q0 158 -88 158q-45 0 -67 -43t-22 -115q0 -156 89 -156q88 0 88 156zM260 709q0 -39 -25.5 -63.5t-62.5 -24.5t-63 24.5t-26 63.5
q0 40 26 64.5t63 24.5t62.5 -24.5t25.5 -64.5zM495 709q0 -39 -25.5 -63.5t-62.5 -24.5t-63 24.5t-26 63.5q0 40 26 64.5t63 24.5t62.5 -24.5t25.5 -64.5z" />
    <glyph glyph-name="divide" unicode="&#xf7;" horiz-adv-x="567" 
d="M383 533q0 -44 -29 -72t-71 -28q-41 0 -70.5 28t-29.5 71q0 44 29 72t71 28q41 0 70.5 -28t29.5 -71zM383 101q0 -44 -29 -71.5t-71 -27.5t-71 27.5t-29 71.5q0 43 29.5 71.5t70.5 28.5t70.5 -28.5t29.5 -71.5zM536 244h-507v140h507v-140z" />
    <glyph glyph-name="oslash" unicode="&#xf8;" horiz-adv-x="599" 
d="M572 262q0 -134 -74.5 -215t-197.5 -81q-74 0 -130 31l-48 -64l-96 72l55 70q-54 76 -54 187q0 132 77 214t196 82q72 0 128 -32l49 64l96 -72l-54 -70q53 -74 53 -186zM190 270q9 -17 22 -24l121 157q-26 11 -53 7q-40 -7 -64 -44t-26 -96zM409 254q-6 16 -22 23
l-121 -157q25 -12 54 -7q41 8 64.5 45t24.5 96z" />
    <glyph glyph-name="ugrave" unicode="&#xf9;" 
d="M526 25q-66 -46 -235 -46q-129 0 -184 60t-55 178v324h169v-274q0 -36 0.5 -54t4.5 -41.5t12 -34.5t23 -19t37 -8q33 0 59 8v423h169v-516zM358 598h-120l-163 208h201z" />
    <glyph glyph-name="uacute" unicode="&#xfa;" 
d="M526 25q-66 -46 -235 -46q-129 0 -184 60t-55 178v324h169v-274q0 -36 0.5 -54t4.5 -41.5t12 -34.5t23 -19t37 -8q33 0 59 8v423h169v-516zM354 618h-119l81 208h202z" />
    <glyph glyph-name="ucircumflex" unicode="&#xfb;" 
d="M526 25q-66 -46 -235 -46q-129 0 -184 60t-55 178v324h169v-274q0 -36 0.5 -54t4.5 -41.5t12 -34.5t23 -19t37 -8q33 0 59 8v423h169v-516zM295 676l-105 -85l-75 86l180 166l176 -166l-72 -86z" />
    <glyph glyph-name="udieresis" unicode="&#xfc;" 
d="M526 25q-66 -46 -235 -46q-129 0 -184 60t-55 178v324h169v-274q0 -36 0.5 -54t4.5 -41.5t12 -34.5t23 -19t37 -8q33 0 59 8v423h169v-516zM263 709q0 -39 -25.5 -63.5t-62.5 -24.5t-63 24.5t-26 63.5q0 40 26 64.5t63 24.5t62.5 -24.5t25.5 -64.5zM498 709
q0 -39 -25.5 -63.5t-62.5 -24.5t-63 24.5t-26 63.5q0 40 26 64.5t63 24.5t62.5 -24.5t25.5 -64.5z" />
    <glyph glyph-name="yacute" unicode="&#xfd;" horiz-adv-x="556" 
d="M543 541q-96 -327 -210 -633q-24 -57 -57.5 -81t-90.5 -24q-42 0 -126 30l34 113q38 -16 54 -16q7 0 13 2t10 5t8 9l6.5 10t5.5 12t4 12t3.5 13t3.5 12q-110 273 -189 536h179q27 -122 70 -271q23 -88 23 -89q1 1 22 89q24 84 71 271h166zM339 618h-119l81 208h202z" />
    <glyph glyph-name="thorn" unicode="&#xfe;" horiz-adv-x="598" 
d="M54 774l166 27v-255q34 10 69 10q129 0 205.5 -80t76.5 -215q0 -133 -66.5 -213t-186.5 -80q-53 0 -98 20v-194h-166v980zM220 399v-263q38 -20 77 -20q105 0 105 142q0 70 -31.5 109.5t-86.5 39.5q-32 0 -64 -8z" />
    <glyph glyph-name="ydieresis" unicode="&#xff;" horiz-adv-x="556" 
d="M543 541q-96 -327 -210 -633q-24 -57 -57.5 -81t-90.5 -24q-42 0 -126 30l34 113q38 -16 54 -16q7 0 13 2t10 5t8 9l6.5 10t5.5 12t4 12t3.5 13t3.5 12q-110 273 -189 536h179q27 -122 70 -271q23 -88 23 -89q1 1 22 89q24 84 71 271h166zM248 709q0 -39 -25.5 -63.5
t-62.5 -24.5t-63 24.5t-26 63.5q0 40 26 64.5t63 24.5t62.5 -24.5t25.5 -64.5zM483 709q0 -39 -25.5 -63.5t-62.5 -24.5t-63 24.5t-26 63.5q0 40 26 64.5t63 24.5t62.5 -24.5t25.5 -64.5z" />
    <glyph glyph-name="Amacron" unicode="&#x100;" horiz-adv-x="697" 
d="M685 -11h-188l-24 83t-13.5 45.5t-5.5 18.5h-230q-35 -103 -47 -147h-170q155 454 257 711h163q109 -278 258 -711zM419 261l-59 186q-21 68 -21 69q-5 -11 -16 -53q-11 -38 -65 -202h161zM498 785h-347v130h347v-130z" />
    <glyph glyph-name="amacron" unicode="&#x101;" horiz-adv-x="540" 
d="M493 14q-95 -35 -228 -35q-241 0 -241 181q0 173 260 188q13 1 46 -2q-5 81 -88 81q-70 0 -148 -31l-29 121q94 36 200 36q201 0 223 -166q5 -35 5 -67v-306zM331 102v141q-40 0 -49 -1q-94 -9 -94 -77t86 -68q37 0 57 5zM450 623h-347v130h347v-130z" />
    <glyph glyph-name="Abreve" unicode="&#x102;" horiz-adv-x="697" 
d="M685 -11h-188l-24 83t-13.5 45.5t-5.5 18.5h-230q-35 -103 -47 -147h-170q155 454 257 711h163q109 -278 258 -711zM419 261l-59 186q-21 68 -21 69q-5 -11 -16 -53q-11 -38 -65 -202h161zM322 770q-84 0 -128.5 52t-42.5 147h124q5 -73 47 -73t47 73h124
q0 -96 -43.5 -147.5t-127.5 -51.5z" />
    <glyph glyph-name="abreve" unicode="&#x103;" horiz-adv-x="540" 
d="M493 14q-95 -35 -228 -35q-241 0 -241 181q0 173 260 188q13 1 46 -2q-5 81 -88 81q-70 0 -148 -31l-29 121q94 36 200 36q201 0 223 -166q5 -35 5 -67v-306zM331 102v141q-40 0 -49 -1q-94 -9 -94 -77t86 -68q37 0 57 5zM274 608q-84 0 -128.5 52t-42.5 147h124
q5 -73 47 -73t47 73h124q0 -96 -43.5 -147.5t-127.5 -51.5z" />
    <glyph glyph-name="Aogonek" unicode="&#x104;" horiz-adv-x="697" 
d="M685 -11h-188l-24 83t-13.5 45.5t-5.5 18.5h-230q-35 -103 -47 -147h-170q155 454 257 711h163q109 -278 258 -711zM419 261l-59 186q-21 68 -21 69q-5 -11 -16 -53q-11 -38 -65 -202h161zM552 -232q-138 0 -138 106q0 80 114 160h118q-4 -32 -7 -50q-2 -1 -6.5 -3.5
t-6.5 -3.5q1 0 3 1l2 1q-1 -1 -12 -11l-20.5 -19t-19 -20t-10.5 -17q3 -12 21 -10q13 1 56 14l15 -126q-57 -22 -109 -22z" />
    <glyph glyph-name="aogonek" unicode="&#x105;" horiz-adv-x="540" 
d="M254 558q132 0 184.5 -62t52.5 -179v-316l-14.5 -11t-16.5 -13q4 2 5 3q-2 -2 -20.5 -19t-29 -29t-12.5 -20q4 -12 28 -9q3 1 12 3t18.5 4.5t18.5 5.5l15 -126q-40 -16 -81 -19q-21 -3 -41 -1q-83 4 -108 52q-16 29 -9 72q6 38 37 76q-22 -2 -39 -2q-236 0 -236 191
q0 96 67.5 140t173.5 44q35 0 68 -7q-9 28 -48 32q-18 43 -65 42q-63 -4 -126 -26l-22 143q89 31 188 31zM264 108q46 0 66 3v97q-19 4 -37 5h-28q-81 -2 -81 -52q0 -53 80 -53z" />
    <glyph glyph-name="Cacute" unicode="&#x106;" horiz-adv-x="636" 
d="M557 28q-77 -51 -202 -51q-152 0 -234 101t-82 267q0 162 87 265t233 103q118 0 193 -51l-44 -127q-58 35 -128 35q-59 0 -98.5 -38t-49.5 -108q-13 -53 -9 -104q5 -77 38.5 -129.5t94.5 -61.5q24 -4 52 -1q50 3 104 29zM400 781h-119l81 208h202z" />
    <glyph glyph-name="cacute" unicode="&#x107;" horiz-adv-x="488" 
d="M441 15q-59 -37 -153 -37q-122 0 -189 77t-67 211q0 130 70.5 208.5t182.5 78.5q85 0 151 -38l-36 -118q-48 24 -89 24q-53 0 -80 -40t-27 -114q0 -154 110 -154q46 0 95 27zM334 626h-119l81 208h202z" />
    <glyph glyph-name="Ccircumflex" unicode="&#x108;" horiz-adv-x="636" 
d="M557 28q-77 -51 -202 -51q-152 0 -234 101t-82 267q0 162 87 265t233 103q118 0 193 -51l-44 -127q-58 35 -128 35q-59 0 -98.5 -38t-49.5 -108q-13 -53 -9 -104q5 -77 38.5 -129.5t94.5 -61.5q24 -4 52 -1q50 3 104 29zM341 839l-105 -85l-75 86l180 166l176 -166
l-72 -86z" />
    <glyph glyph-name="ccircumflex" unicode="&#x109;" horiz-adv-x="488" 
d="M441 15q-59 -37 -153 -37q-122 0 -189 77t-67 211q0 130 70.5 208.5t182.5 78.5q85 0 151 -38l-36 -118q-48 24 -89 24q-53 0 -80 -40t-27 -114q0 -154 110 -154q46 0 95 27zM275 684l-105 -85l-75 86l180 166l176 -166l-72 -86z" />
    <glyph glyph-name="Cdotaccent" unicode="&#x10a;" horiz-adv-x="636" 
d="M557 28q-77 -51 -202 -51q-152 0 -234 101t-82 267q0 162 87 265t233 103q118 0 193 -51l-44 -127q-58 35 -128 35q-59 0 -98.5 -38t-49.5 -108q-13 -53 -9 -104q5 -77 38.5 -129.5t94.5 -61.5q24 -4 52 -1q50 3 104 29zM339 761q-38 0 -64 25t-26 65q0 41 26 66t64 25
q39 0 65 -25t26 -66q0 -40 -26 -65t-65 -25z" />
    <glyph glyph-name="cdotaccent" unicode="&#x10b;" horiz-adv-x="488" 
d="M441 15q-59 -37 -153 -37q-122 0 -189 77t-67 211q0 130 70.5 208.5t182.5 78.5q85 0 151 -38l-36 -118q-48 24 -89 24q-53 0 -80 -40t-27 -114q0 -154 110 -154q46 0 95 27zM272 606q-38 0 -64 25t-26 65q0 41 26 66t64 25q39 0 65 -25t26 -66q0 -40 -26 -65t-65 -25z
" />
    <glyph glyph-name="Ccaron" unicode="&#x10c;" horiz-adv-x="636" 
d="M557 28q-77 -51 -202 -51q-152 0 -234 101t-82 267q0 162 87 265t233 103q118 0 193 -51l-44 -127q-58 35 -128 35q-59 0 -98.5 -38t-49.5 -108q-13 -53 -9 -104q5 -77 38.5 -129.5t94.5 -61.5q24 -4 52 -1q50 3 104 29zM236 1018l104 -85l105 85l75 -86l-180 -166
l-176 166z" />
    <glyph glyph-name="ccaron" unicode="&#x10d;" horiz-adv-x="488" 
d="M441 15q-59 -37 -153 -37q-122 0 -189 77t-67 211q0 130 70.5 208.5t182.5 78.5q85 0 151 -38l-36 -118q-48 24 -89 24q-53 0 -80 -40t-27 -114q0 -154 110 -154q46 0 95 27zM170 863l104 -85l105 85l75 -86l-180 -166l-176 166z" />
    <glyph glyph-name="Dcaron" unicode="&#x10e;" horiz-adv-x="726" 
d="M638 346q0 -171 -92 -268t-269 -97q-120 0 -216 30v667q104 31 214 31q177 0 270 -94.5t93 -268.5zM459 348q0 116 -42 171t-134 55q-29 0 -47 -4v-447q14 -4 47 -4q91 0 133.5 55.5t42.5 173.5zM213 1018l104 -85l105 85l75 -86l-180 -166l-176 166z" />
    <glyph glyph-name="dcaron" unicode="&#x10f;" horiz-adv-x="742" 
d="M545 791v-769q-90 -44 -228 -44q-131 0 -208 74.5t-77 210.5q0 130 66.5 207.5t179.5 77.5q56 0 96 -19v247q19 2 54 5l63.5 5.5zM374 115v289q-32 18 -66 18q-104 0 -104 -154q0 -77 30 -118t84 -41q32 0 56 6zM588 797h152l-37 -278h-115v278z" />
    <glyph glyph-name="Dcroat" unicode="&#x110;" horiz-adv-x="738" 
d="M706 347q0 -185 -110.5 -280.5t-304.5 -95.5q-118 0 -217 22v298h-81v139h81v270q104 21 221 21q192 0 301.5 -92.5t109.5 -281.5zM245 291v-165q3 0 20.5 -1t33.5 -1q114 0 172 58.5t58 164.5q0 108 -56 165t-170 57q-25 0 -58 -3v-136h128v-139h-128z" />
    <glyph glyph-name="dcroat" unicode="&#x111;" horiz-adv-x="599" 
d="M544 801v-94h67v-122h-67v-584q-113 -35 -228 -35q-134 0 -211.5 78t-77.5 210t68 211.5t188 79.5q49 0 95 -19v59h-155v122h155v67zM378 120v257q-36 21 -77 21q-105 0 -105 -139q0 -66 32.5 -105t88.5 -39q38 0 61 5z" />
    <glyph glyph-name="Emacron" unicode="&#x112;" horiz-adv-x="591" 
d="M499 -11h-438v711h425v-135h-248v-146h219v-134h-219v-160h261v-136zM451 785h-347v130h347v-130z" />
    <glyph glyph-name="emacron" unicode="&#x113;" horiz-adv-x="573" 
d="M531 228l-328 -22q20 -95 125 -95q82 0 150 32l30 -125q-80 -40 -198 -40q-135 0 -206.5 78.5t-71.5 208.5q0 133 72 210.5t186 77.5q107 0 169.5 -61.5t70.5 -177.5q0 -6 1 -35.5t0 -50.5zM369 325q-5 105 -82 105q-41 0 -65 -31.5t-25 -86.5zM457 622h-347v130h347
v-130z" />
    <glyph glyph-name="Ebreve" unicode="&#x114;" horiz-adv-x="591" 
d="M499 -11h-438v711h425v-135h-248v-146h219v-134h-219v-160h261v-136zM275 770q-84 0 -128.5 52t-42.5 147h124q5 -73 47 -73t47 73h124q0 -96 -43.5 -147.5t-127.5 -51.5z" />
    <glyph glyph-name="ebreve" unicode="&#x115;" horiz-adv-x="573" 
d="M531 228l-328 -22q20 -95 125 -95q82 0 150 32l30 -125q-80 -40 -198 -40q-135 0 -206.5 78.5t-71.5 208.5q0 133 72 210.5t186 77.5q107 0 169.5 -61.5t70.5 -177.5q0 -6 1 -35.5t0 -50.5zM369 325q-5 105 -82 105q-41 0 -65 -31.5t-25 -86.5zM281 607q-84 0 -128.5 52
t-42.5 147h124q5 -73 47 -73t47 73h124q0 -96 -43.5 -147.5t-127.5 -51.5z" />
    <glyph glyph-name="Edotaccent" unicode="&#x116;" horiz-adv-x="591" 
d="M499 -11h-438v711h425v-135h-248v-146h219v-134h-219v-160h261v-136zM273 761q-38 0 -64 25t-26 65q0 41 26 66t64 25q39 0 65 -25t26 -66q0 -40 -26 -65t-65 -25z" />
    <glyph glyph-name="edotaccent" unicode="&#x117;" horiz-adv-x="573" 
d="M531 228l-328 -22q20 -95 125 -95q82 0 150 32l30 -125q-80 -40 -198 -40q-135 0 -206.5 78.5t-71.5 208.5q0 133 72 210.5t186 77.5q107 0 169.5 -61.5t70.5 -177.5q0 -6 1 -35.5t0 -50.5zM369 325q-5 105 -82 105q-41 0 -65 -31.5t-25 -86.5zM279 598q-38 0 -64 25
t-26 65q0 41 26 66t64 25q39 0 65 -25t26 -66q0 -40 -26 -65t-65 -25z" />
    <glyph glyph-name="Eogonek" unicode="&#x118;" horiz-adv-x="591" 
d="M398 -21h-37h-299v735h490v-151h-318v-126h282v-149h-282v-158h341v-139q-70 -58 -74 -79q4 -12 28 -9q3 1 12 3t18.5 4.5t18.5 5.5l15 -126q-55 -22 -109 -22q-137 0 -137 106q0 54 51 105z" />
    <glyph glyph-name="eogonek" unicode="&#x119;" horiz-adv-x="573" 
d="M27 259q0 141 78.5 220t186.5 79q119 0 186 -73.5t67 -212.5q0 -11 -1.5 -35.5t-1.5 -34.5h-337q22 -79 113 -86q14 -1 44 1q67 5 128 34l24 -142q-96 -68 -101 -97q3 -12 28 -9q3 1 11.5 3t18 4.5t19.5 5.5l15 -126q-57 -22 -109 -22q-111 0 -132 71q-5 20 -2 49
q6 44 40 81q-35 2 -59 7q-108 20 -162 95t-54 188zM204 332h173q-10 80 -83 80q-36 0 -59.5 -22.5t-30.5 -57.5z" />
    <glyph glyph-name="Ecaron" unicode="&#x11a;" horiz-adv-x="591" 
d="M499 -11h-438v711h425v-135h-248v-146h219v-134h-219v-160h261v-136zM171 1018l104 -85l105 85l75 -86l-180 -166l-176 166z" />
    <glyph glyph-name="ecaron" unicode="&#x11b;" horiz-adv-x="573" 
d="M531 228l-328 -22q20 -95 125 -95q82 0 150 32l30 -125q-80 -40 -198 -40q-135 0 -206.5 78.5t-71.5 208.5q0 133 72 210.5t186 77.5q107 0 169.5 -61.5t70.5 -177.5q0 -6 1 -35.5t0 -50.5zM369 325q-5 105 -82 105q-41 0 -65 -31.5t-25 -86.5zM176 855l104 -85l105 85
l75 -86l-180 -166l-176 166z" />
    <glyph glyph-name="Gcircumflex" unicode="&#x11c;" horiz-adv-x="689" 
d="M601 19q-86 -41 -227 -41q-161 0 -249 98t-88 271q0 167 94 266.5t248 99.5q130 0 218 -52l-53 -127q-53 31 -125 35q-100 7 -151.5 -50t-51.5 -174q0 -110 41 -169.5t117 -59.5q42 0 58 7v151h-72v135h241v-390zM374 839l-105 -85l-75 86l180 166l176 -166l-72 -86z" />
    <glyph glyph-name="gcircumflex" unicode="&#x11d;" horiz-adv-x="588" 
d="M527 26q0 -244 -262 -244q-112 0 -205 38q21 78 37 130q54 -25 114 -31q41 -4 76 9q36 6 55.5 26.5t19.5 49.5v17q-31 -18 -94 -18q-107 0 -171.5 69.5t-64.5 193.5q0 133 74 209.5t209 76.5q126 0 212 -37v-489zM360 138v286q-17 6 -50 6q-108 0 -108 -159
q0 -148 99 -148q33 0 59 15zM305 676l-105 -85l-75 86l180 166l176 -166l-72 -86z" />
    <glyph glyph-name="Gbreve" unicode="&#x11e;" horiz-adv-x="689" 
d="M601 19q-86 -41 -227 -41q-161 0 -249 98t-88 271q0 167 94 266.5t248 99.5q130 0 218 -52l-53 -127q-53 31 -125 35q-100 7 -151.5 -50t-51.5 -174q0 -110 41 -169.5t117 -59.5q42 0 58 7v151h-72v135h241v-390zM374 770q-84 0 -128.5 52t-42.5 147h124q5 -73 47 -73
t47 73h124q0 -96 -43.5 -147.5t-127.5 -51.5z" />
    <glyph glyph-name="gbreve" unicode="&#x11f;" horiz-adv-x="588" 
d="M527 26q0 -244 -262 -244q-112 0 -205 38q21 78 37 130q54 -25 114 -31q41 -4 76 9q36 6 55.5 26.5t19.5 49.5v17q-31 -18 -94 -18q-107 0 -171.5 69.5t-64.5 193.5q0 133 74 209.5t209 76.5q126 0 212 -37v-489zM360 138v286q-17 6 -50 6q-108 0 -108 -159
q0 -148 99 -148q33 0 59 15zM305 607q-84 0 -128.5 52t-42.5 147h124q5 -73 47 -73t47 73h124q0 -96 -43.5 -147.5t-127.5 -51.5z" />
    <glyph glyph-name="Gdotaccent" unicode="&#x120;" horiz-adv-x="689" 
d="M601 19q-86 -41 -227 -41q-161 0 -249 98t-88 271q0 167 94 266.5t248 99.5q130 0 218 -52l-53 -127q-53 31 -125 35q-100 7 -151.5 -50t-51.5 -174q0 -110 41 -169.5t117 -59.5q42 0 58 7v151h-72v135h241v-390zM372 761q-38 0 -64 25t-26 65q0 41 26 66t64 25
q39 0 65 -25t26 -66q0 -40 -26 -65t-65 -25z" />
    <glyph glyph-name="gdotaccent" unicode="&#x121;" horiz-adv-x="588" 
d="M527 26q0 -244 -262 -244q-112 0 -205 38q21 78 37 130q54 -25 114 -31q41 -4 76 9q36 6 55.5 26.5t19.5 49.5v17q-31 -18 -94 -18q-107 0 -171.5 69.5t-64.5 193.5q0 133 74 209.5t209 76.5q126 0 212 -37v-489zM360 138v286q-17 6 -50 6q-108 0 -108 -159
q0 -148 99 -148q33 0 59 15zM303 598q-38 0 -64 25t-26 65q0 41 26 66t64 25q39 0 65 -25t26 -66q0 -40 -26 -65t-65 -25z" />
    <glyph glyph-name="Gcommaaccent" unicode="&#x122;" horiz-adv-x="689" 
d="M427 125q12 66 17 99q-10 23 -17 43v118h187v-367q-86 -40 -234 -40q-165 0 -254 98.5t-89 269.5q0 167 96 268t254 101q132 0 225 -54l-53 -130q-56 31 -133 37q-100 6 -154 -50.5t-54 -171.5q0 -109 41.5 -168t122.5 -59q33 0 45 6zM323 -67v35h139q4 -27 6 -39
q1 -14 0 -20q-1 -71 -42 -104t-104 -35q-7 -1 -25 1q-34 4 -47 10v107q37 0 55 9.5t18 35.5z" />
    <glyph glyph-name="gcommaaccent" unicode="&#x123;" horiz-adv-x="588" 
d="M366 8q-7 3 -25 15q-24 -16 -69 -16q-108 0 -174 68t-66 192q0 130 75 206t210 76q129 0 219 -36v-481q0 -245 -269 -245q-112 0 -207 37l35 134q55 -24 119 -32q46 -3 80 8q67 11 72 74zM367 148v270q-18 5 -54 5q-109 0 -109 -151q0 -141 98 -141q37 0 65 17zM232 588
q-14 182 152 225l63 -90q-36 -21 -53 -44.5t-17 -61.5v-35h-145v6z" />
    <glyph glyph-name="Hcircumflex" unicode="&#x124;" horiz-adv-x="721" 
d="M617 -11h-176v296h-203v-296h-177v711h177v-282h203v282h176v-711zM339 839l-105 -85l-75 86l180 166l176 -166l-72 -86z" />
    <glyph glyph-name="hcircumflex" unicode="&#x125;" 
d="M532 -11h-169v276q0 40 -0.5 56.5t-4.5 42t-12 35t-23 17.5t-39 8q-36 0 -60 -11v-424h-170v791h170v-246q38 14 74 15q62 3 106 -10t68.5 -34.5t38 -58.5t17.5 -71.5t4 -83.5v-302zM293 883l-105 -85l-75 86l180 166l176 -166l-72 -86z" />
    <glyph glyph-name="Hbar" unicode="&#x126;" horiz-adv-x="745" 
d="M752 490h-81v-511h-171v299h-255v-299h-171v511h-81v135h81v89h171v-89h255v89h171v-89h81v-135zM500 431v59h-255v-59h255z" />
    <glyph glyph-name="hbar" unicode="&#x127;" horiz-adv-x="590" 
d="M227 -21h-166v606h-68v122h68v67l166 27v-94h156v-122h-156v-51q34 11 77 11q130 0 183.5 -67.5t53.5 -193.5v-305h-165v286q0 73 -18.5 102.5t-67.5 29.5q-33 0 -63 -10v-408z" />
    <glyph glyph-name="Itilde" unicode="&#x128;" horiz-adv-x="296" 
d="M238 -11h-176v711h176v-711zM206 773q-27 0 -68.5 18t-56.5 18q-21 0 -46 -53l-97 61q18 48 53.5 86.5t83.5 38.5q28 0 69.5 -18t56.5 -18q19 0 46 53l99 -63q-70 -123 -140 -123z" />
    <glyph glyph-name="itilde" unicode="&#x129;" horiz-adv-x="273" 
d="M220 544v-565h-166v565h166zM194 589q-27 0 -68.5 18t-56.5 18q-21 0 -46 -53l-97 61q18 48 53.5 86.5t83.5 38.5q28 0 69.5 -18t56.5 -18q19 0 46 53l99 -63q-70 -123 -140 -123z" />
    <glyph glyph-name="Imacron" unicode="&#x12a;" horiz-adv-x="296" 
d="M238 -11h-176v711h176v-711zM325 785h-347v130h347v-130z" />
    <glyph glyph-name="imacron" unicode="&#x12b;" horiz-adv-x="273" 
d="M220 544v-565h-166v565h166zM313 622h-347v130h347v-130z" />
    <glyph glyph-name="Ibreve" unicode="&#x12c;" horiz-adv-x="296" 
d="M238 -11h-176v711h176v-711zM149 770q-84 0 -128.5 52t-42.5 147h124q5 -73 47 -73t47 73h124q0 -96 -43.5 -147.5t-127.5 -51.5z" />
    <glyph glyph-name="ibreve" unicode="&#x12d;" horiz-adv-x="273" 
d="M220 544v-565h-166v565h166zM137 607q-84 0 -128.5 52t-42.5 147h124q5 -73 47 -73t47 73h124q0 -96 -43.5 -147.5t-127.5 -51.5z" />
    <glyph glyph-name="Iogonek" unicode="&#x12e;" horiz-adv-x="296" 
d="M234 714v-724q-71 -61 -74 -78q5 -12 28 -9q43 11 50 13l14 -126q-55 -22 -108 -22q-138 0 -138 106q0 60 56 111v729h172z" />
    <glyph glyph-name="iogonek" unicode="&#x12f;" horiz-adv-x="273" 
d="M220 544v-554q-5 -4 -15 -13l-14.5 -13l-12.5 -11.5t-12 -12l-9 -10t-7 -10t-3 -8.5q5 -12 28 -9q40 10 49 13l15 -126q-55 -22 -108 -22q-138 0 -138 106q0 54 61 117v553h166zM234 676q0 -44 -28.5 -70.5t-69.5 -26.5t-69.5 26.5t-28.5 70.5q0 45 28.5 71.5t69.5 26.5
t69.5 -26.5t28.5 -71.5z" />
    <glyph glyph-name="Idotaccent" unicode="&#x130;" horiz-adv-x="296" 
d="M63 -11v712h178v-712h-178zM147 745q-38 0 -64 25t-26 65q0 41 26 66t64 25q39 0 65 -25t26 -66q0 -40 -26 -65t-65 -25z" />
    <glyph glyph-name="dotlessi" unicode="&#x131;" horiz-adv-x="273" 
d="M220 544v-565h-166v565h166z" />
    <glyph glyph-name="IJ" unicode="&#x132;" horiz-adv-x="809" 
d="M63 -11v712h178v-712h-178zM684 701v-531q0 -248 -236 -263q-88 -4 -173 40l35 133q76 -31 124 -1q72 35 72 161v461h178z" />
    <glyph glyph-name="ij" unicode="&#x133;" horiz-adv-x="545" 
d="M506 685q0 -38 -27.5 -63t-66.5 -25q-40 0 -67 25t-27 63q0 39 27 64t66 25q40 0 67.5 -25.5t27.5 -63.5zM497 41q0 -109 -49 -172t-141 -76q-39 -10 -96 1l12 102q55 13 79 40t25 95v510h170v-500zM234 685q0 -38 -27 -63t-67 -25q-39 0 -66.5 25t-27.5 63q0 39 27.5 64
t66.5 25q40 0 67 -25t27 -64zM225 -11h-169v552h169v-552z" />
    <glyph glyph-name="Jcircumflex" unicode="&#x134;" horiz-adv-x="516" 
d="M352 140q0 -237 -222 -259q-73 -6 -156 26q17 77 31 131q71 -21 112 13q34 22 47 62.5t13 110.5v19v457h175v-560zM264 839l-105 -85l-75 86l180 166l176 -166l-72 -86z" />
    <glyph glyph-name="jcircumflex" unicode="&#x135;" horiz-adv-x="273" 
d="M11 -207q-48 0 -104 20l23 143q40 -15 71 -15q30 0 41.5 18t11.5 58v527h166v-529q0 -222 -209 -222zM135 676l-105 -85l-75 86l180 166l176 -166l-72 -86z" />
    <glyph glyph-name="Kcommaaccent" unicode="&#x136;" horiz-adv-x="658" 
d="M663 -11h-155q-16 3 -50 5q-94 173 -217 303v-308h-178v712h178v-278q75 76 209 278h199q-117 -155 -263 -328q160 -171 277 -384zM283 -67v35h140q5 -27 6 -39v-20q-1 -71 -42 -104t-104 -35q-8 -1 -25 1q-34 4 -47 10v107q37 0 54.5 9.5t17.5 35.5z" />
    <glyph glyph-name="kcommaaccent" unicode="&#x137;" horiz-adv-x="554" 
d="M225 -67v35h140q5 -30 5 -39q1 -10 1 -20q-2 -71 -43 -104t-103 -35q-7 -1 -26 1q-32 4 -47 10v107q37 0 55 9.5t18 35.5zM572 -11h-191l-41 73t-67.5 112.5t-47.5 55.5v-241h-169v791h169v-441l148 202h188l-199 -246q114 -138 210 -306z" />
    <glyph glyph-name="kgreenlandic" unicode="&#x138;" horiz-adv-x="559" 
d="M220 -21h-166v565h166v-176q118 128 157 176h202q-46 -55 -120.5 -135.5t-118.5 -123.5q62 -56 130 -142t112 -164h-189q-79 125 -173 205v-205z" />
    <glyph glyph-name="Lacute" unicode="&#x139;" horiz-adv-x="545" 
d="M477 -11h-415v711h176v-574h239v-137zM210 781h-119l81 208h202z" />
    <glyph glyph-name="lacute" unicode="&#x13a;" horiz-adv-x="363" 
d="M333 66l-28 -80q-76 1 -126 15t-76.5 42.5t-36.5 64t-10 88.5v584h169v-555q0 -85 22.5 -114t85.5 -45zM200 857h-119l81 208h202z" />
    <glyph glyph-name="Lcommaaccent" unicode="&#x13b;" horiz-adv-x="545" 
d="M241 129h254v-140h-432v712h178v-572zM251 -67v35h139q6 -36 6 -39q1 -14 0 -20q-1 -71 -42 -104t-104 -35q-7 -1 -25 1q-34 4 -47 10v107q37 0 55 9.5t18 35.5z" />
    <glyph glyph-name="lcommaaccent" unicode="&#x13c;" horiz-adv-x="298" 
d="M97 -67v35h139q4 -27 6 -39v-20q-1 -71 -42 -104t-104 -35q-7 -1 -25 1q-34 4 -47 10v107q37 0 55 9.5t18 35.5zM333 66l-28 -80q-76 1 -126 15t-76.5 42.5t-36.5 64t-10 88.5v584h169v-555q0 -85 22.5 -114t85.5 -45z" />
    <glyph glyph-name="Lcaron" unicode="&#x13d;" horiz-adv-x="545" 
d="M241 129h254v-140h-432v712h178v-572zM292 716h152l-36 -278h-116v278z" />
    <glyph glyph-name="lcaron" unicode="&#x13e;" horiz-adv-x="453" 
d="M278 792h152l-36 -278h-116v278zM333 66l-28 -80q-76 1 -126 15t-76.5 42.5t-36.5 64t-10 88.5v584h169v-555q0 -85 22.5 -114t85.5 -45z" />
    <glyph glyph-name="Ldot" unicode="&#x13f;" horiz-adv-x="545" 
d="M241 129h254v-140h-432v712h178v-572zM430 302q-41 0 -70 27.5t-29 71.5t29 72t70 28q42 0 71 -27.5t29 -71.5q0 -45 -29 -72.5t-71 -27.5z" />
    <glyph glyph-name="ldot" unicode="&#x140;" horiz-adv-x="363" 
d="M333 66l-28 -80q-76 1 -126 15t-76.5 42.5t-36.5 64t-10 88.5v584h169v-555q0 -85 22.5 -114t85.5 -45zM139 837q-38 0 -64 25t-26 65q0 41 26 66t64 25q39 0 65 -25t26 -66q0 -40 -26 -65t-65 -25z" />
    <glyph glyph-name="Lslash" unicode="&#x141;" horiz-adv-x="571" 
d="M259 471l109 56l59 -123l-168 -86v-186h313v-153h-484v253l-56 -27l-60 122l116 59v328h171v-243z" />
    <glyph glyph-name="lslash" unicode="&#x142;" horiz-adv-x="331" 
d="M240 531l60 30l57 -117l-117 -59v-205q0 -34 17 -49t67 -19l-24 -143q-101 3 -151.5 31.5t-64.5 88.5q-10 44 -10 102v111l-48 -24l-57 116l105 53v333h166v-249z" />
    <glyph glyph-name="Nacute" unicode="&#x143;" horiz-adv-x="742" 
d="M636 -11h-104l-38 6q-101 174 -233 371q-7 10 -16.5 27t-16 27t-8.5 10q0 -8 1 -55.5t1 -74.5v-311h-161v711h146q119 -158 232 -333q37 -61 38 -62q0 16 -1 77t-1 93v225h161v-711zM414 781h-119l81 208h202z" />
    <glyph glyph-name="nacute" unicode="&#x144;" 
d="M532 -11h-169v277q0 95 -11 121q-16 37 -68 37q-32 0 -60 -7v-428h-170v518q76 45 235 45q78 0 128.5 -18.5t74.5 -57t32 -80t8 -105.5v-302zM347 618h-119l81 208h202z" />
    <glyph glyph-name="Ncommaaccent" unicode="&#x145;" horiz-adv-x="742" 
d="M645 -11h-105l-37 6q-59 102 -154.5 249.5t-124.5 176.5q0 -18 1 -65.5t1 -73.5v-293h-163v712h142q119 -142 232 -314q10 -15 25.5 -40.5t20.5 -32.5q0 21 -1 73.5t-1 80.5v233h164v-712zM311 -67v35h139q6 -27 6 -39q1 -14 0 -20q-1 -71 -42 -104t-103 -35q-8 -1 -26 1
q-34 4 -47 10v107q37 0 55 9.5t18 35.5z" />
    <glyph glyph-name="ncommaaccent" unicode="&#x146;" 
d="M56 -11v516q78 44 237 44q76 0 126.5 -17.5t76.5 -54t35.5 -81t9.5 -109.5v-298h-171v270q0 90 -15 124.5t-68 34.5q-34 0 -60 -6v-423h-171zM224 -67v35h139q5 -27 6 -39q1 -14 0 -20q-1 -71 -42 -104t-104 -35q-7 -1 -25 1q-34 4 -47 10v107q37 0 55 9.5t18 35.5z" />
    <glyph glyph-name="Ncaron" unicode="&#x147;" horiz-adv-x="742" 
d="M636 -11h-104l-38 6q-101 174 -233 371q-7 10 -16.5 27t-16 27t-8.5 10q0 -8 1 -55.5t1 -74.5v-311h-161v711h146q119 -158 232 -333q37 -61 38 -62q0 16 -1 77t-1 93v225h161v-711zM249 1018l104 -85l105 85l75 -86l-180 -166l-176 166z" />
    <glyph glyph-name="ncaron" unicode="&#x148;" 
d="M532 -11h-169v277q0 95 -11 121q-16 37 -68 37q-32 0 -60 -7v-428h-170v518q76 45 235 45q78 0 128.5 -18.5t74.5 -57t32 -80t8 -105.5v-302zM182 855l104 -85l105 85l75 -86l-180 -166l-176 166z" />
    <glyph glyph-name="napostrophe" unicode="&#x149;" horiz-adv-x="604" 
d="M77 -11v516q78 44 237 44q76 0 126.5 -17.5t76.5 -54t35.5 -81t9.5 -109.5v-298h-171v270q0 90 -15 124.5t-68 34.5q-34 0 -60 -6v-423h-171zM4 797h140q7 -11 21 -31q-1 -71 -20 -125t-59 -117l-120 37q47 98 47 173q0 30 -9 63z" />
    <glyph glyph-name="Eng" unicode="&#x14a;" horiz-adv-x="742" 
d="M509 4v25q-123 213 -277 405v-455h-170v735h134q71 -74 158 -188t155 -220v408h171v-710q0 -87 -29 -137.5t-96 -64.5q-36 -10 -82 -9q-40 0 -91 18l23 143q41 -15 65 -15q22 0 30.5 15.5t8.5 49.5z" />
    <glyph glyph-name="eng" unicode="&#x14b;" 
d="M369 -13v289q0 73 -19 102t-68 29q-36 0 -62 -6v-422h-166v542q122 35 237 35q133 0 188 -67.5t55 -193.5v-301q0 -87 -29 -135.5t-101 -59.5q-26 -5 -68 -5q-47 3 -87 18l23 131q41 -12 59 -12q38 0 38 56z" />
    <glyph glyph-name="Omacron" unicode="&#x14c;" horiz-adv-x="785" 
d="M673 345q0 -168 -85 -268t-232 -100q-146 0 -231.5 100t-85.5 268t86 268t231 100q146 0 231.5 -100t85.5 -268zM493 349q0 100 -34.5 164t-102.5 64t-102.5 -64t-34.5 -164q0 -101 34.5 -164.5t102.5 -63.5t102.5 63.5t34.5 164.5zM530 801h-347v130h347v-130z" />
    <glyph glyph-name="omacron" unicode="&#x14d;" horiz-adv-x="599" 
d="M550 266q0 -129 -70 -208.5t-189 -79.5t-189 79.5t-70 208.5q0 128 70.5 207.5t188.5 79.5t188.5 -79.5t70.5 -207.5zM379 267q0 158 -88 158q-45 0 -67 -43t-22 -115q0 -156 89 -156q88 0 88 156zM467 622h-347v130h347v-130z" />
    <glyph glyph-name="Obreve" unicode="&#x14e;" horiz-adv-x="785" 
d="M673 345q0 -168 -85 -268t-232 -100q-146 0 -231.5 100t-85.5 268t86 268t231 100q146 0 231.5 -100t85.5 -268zM493 349q0 100 -34.5 164t-102.5 64t-102.5 -64t-34.5 -164q0 -101 34.5 -164.5t102.5 -63.5t102.5 63.5t34.5 164.5zM355 786q-84 0 -128.5 52t-42.5 147
h124q5 -73 47 -73t47 73h124q0 -96 -43.5 -147.5t-127.5 -51.5z" />
    <glyph glyph-name="obreve" unicode="&#x14f;" horiz-adv-x="599" 
d="M550 266q0 -129 -70 -208.5t-189 -79.5t-189 79.5t-70 208.5q0 128 70.5 207.5t188.5 79.5t188.5 -79.5t70.5 -207.5zM379 267q0 158 -88 158q-45 0 -67 -43t-22 -115q0 -156 89 -156q88 0 88 156zM291 607q-84 0 -128.5 52t-42.5 147h124q5 -73 47 -73t47 73h124
q0 -96 -43.5 -147.5t-127.5 -51.5z" />
    <glyph glyph-name="Ohungarumlaut" unicode="&#x150;" horiz-adv-x="785" 
d="M697 346q0 -171 -90 -270t-240 -99q-149 0 -239.5 99.5t-90.5 269.5q0 169 91 269t239 100q149 0 239.5 -99.5t90.5 -269.5zM515 349q0 101 -38.5 163.5t-109.5 62.5q-70 0 -109 -62.5t-39 -163.5t39 -163.5t109 -62.5q71 0 109.5 62.5t38.5 163.5zM360 982l104 -85
l-158 -186l-90 68zM549 982l110 -89l-165 -182l-89 68z" />
    <glyph glyph-name="ohungarumlaut" unicode="&#x151;" horiz-adv-x="599" 
d="M561 264q0 -128 -72 -207.5t-192 -79.5q-119 0 -192 79.5t-73 207.5q0 127 73.5 206.5t191.5 79.5q119 0 191.5 -79t72.5 -207zM389 266q0 71 -24 111.5t-68 40.5q-45 0 -69 -40.5t-24 -111.5q0 -72 24 -112.5t69 -40.5q44 0 68 40.5t24 112.5zM262 836l104 -85
l-159 -187l-89 69zM458 836l109 -90l-164 -182l-89 69z" />
    <glyph glyph-name="OE" unicode="&#x152;" horiz-adv-x="995" 
d="M486 127v439q-2 0 -17 1t-31 1q-114 0 -171.5 -57t-57.5 -164t57.5 -164.5t171.5 -57.5q8 0 48 2zM980 -21h-433q-48 -6 -105 -6q-189 0 -299 94t-110 280q0 185 110 279t299 94q57 0 105 -6h409v-151h-302v-126h266v-149h-266v-158h326v-151z" />
    <glyph glyph-name="oe" unicode="&#x153;" horiz-adv-x="939" 
d="M297 558q115 0 186 -88q61 77 158 85q37 3 72 -3q94 -15 146 -86t52 -194q0 -11 -1.5 -35.5t-1.5 -34.5h-337q22 -75 108 -84q22 -2 59 1q62 5 118 32l24 -144q-53 -27 -138 -36q-45 -5 -81 -2q-116 7 -183 83q-69 -86 -181 -86q-122 0 -196 81.5t-74 214.5q0 132 75 214
t195 82zM403 262q0 68 -27.5 107t-75.5 39q-49 0 -76.5 -39t-27.5 -107t27.5 -107.5t76.5 -39.5q48 0 75.5 39.5t27.5 107.5zM570 332h173q-10 80 -83 80q-36 0 -59.5 -22.5t-30.5 -57.5z" />
    <glyph glyph-name="Racute" unicode="&#x154;" horiz-adv-x="663" 
d="M625 -11h-193q-94 183 -153 278h-43v-278h-174v689q102 31 216 31q152 0 229.5 -59t77.5 -171q0 -65 -37 -115t-97 -70v-1q17 -22 35 -49t39 -65.5l32.5 -59t37 -70.5zM408 474q0 58 -32 84.5t-79 26.5q-31 0 -61 -7v-214h61q49 0 80 28t31 82zM357 781h-119l81 208h202z
" />
    <glyph glyph-name="racute" unicode="&#x155;" horiz-adv-x="408" 
d="M390 538l-29 -121q-39 9 -67 8q-43 0 -70 -9v-427h-170v521q96 40 211 41q60 2 125 -13zM272 618h-119l81 208h202z" />
    <glyph glyph-name="Rcommaaccent" unicode="&#x156;" horiz-adv-x="652" 
d="M600 477q0 -63 -34.5 -110.5t-89.5 -74.5q66 -84 168 -303h-194q-43 86 -124 231q-28 28 -41 42h-46v-273h-176v692q102 28 218 28q159 0 239 -59.5t80 -172.5zM288 578q-25 0 -49 -2v-211h37q72 0 108.5 25t36.5 83q0 56 -33.5 80.5t-99.5 24.5zM276 -67v35h140
q4 -27 6 -39v-20q-1 -70 -42.5 -103.5t-103.5 -35.5q-8 -1 -25 1q-33 4 -48 10v107q37 0 55 9.5t18 35.5z" />
    <glyph glyph-name="rcommaaccent" unicode="&#x157;" horiz-adv-x="408" 
d="M277 549q64 0 125 -17q-22 -100 -28 -122q-28 4 -58 2q-20 5 -33 5q-30 1 -56 -6v-422h-171v518q97 41 221 42zM65 -67v35h140q5 -27 6 -39v-20q-1 -71 -42 -104t-104 -35q-8 -1 -25 1q-33 4 -47 10v107q36 0 54 9.5t18 35.5z" />
    <glyph glyph-name="Rcaron" unicode="&#x158;" horiz-adv-x="663" 
d="M625 -11h-193q-94 183 -153 278h-43v-278h-174v689q102 31 216 31q152 0 229.5 -59t77.5 -171q0 -65 -37 -115t-97 -70v-1q17 -22 35 -49t39 -65.5l32.5 -59t37 -70.5zM408 474q0 58 -32 84.5t-79 26.5q-31 0 -61 -7v-214h61q49 0 80 28t31 82zM193 1018l104 -85l105 85
l75 -86l-180 -166l-176 166z" />
    <glyph glyph-name="rcaron" unicode="&#x159;" horiz-adv-x="408" 
d="M277 549q64 0 125 -17q-22 -100 -28 -122q-28 4 -58 2q-20 5 -33 5q-30 1 -56 -6v-422h-171v518q97 41 221 42zM136 810l104 -85l105 85l75 -86l-180 -166l-177 166z" />
    <glyph glyph-name="Sacute" unicode="&#x15a;" horiz-adv-x="562" 
d="M497 197q0 -101 -70 -160.5t-191 -59.5q-134 0 -217 52l46 135q73 -43 153 -43q96 0 96 69q0 34 -29 55t-106 51q-139 64 -146 185q-2 27 3 53q13 81 77.5 130t163.5 49q116 0 195 -49l-45 -126q-72 39 -133 39q-87 0 -87 -64q0 -14 7 -26.5t14.5 -20.5t28.5 -19.5
t33.5 -16.5t44.5 -19q89 -39 125.5 -88.5t36.5 -125.5zM305 781h-119l81 208h202z" />
    <glyph glyph-name="sacute" unicode="&#x15b;" horiz-adv-x="468" 
d="M423 152q0 -81 -59.5 -127.5t-164.5 -46.5t-180 40l38 126q68 -35 130 -35q64 0 64 41q0 20 -20.5 34.5t-75.5 36.5q-63 28 -92 66t-29 93q0 77 55 125t146 48q95 0 171 -37l-37 -118q-62 29 -110 29q-27 0 -42.5 -11t-15.5 -29q0 -10 3 -17t12 -14t16.5 -10.5l27.5 -13
t33 -16.5q72 -32 101 -69.5t29 -94.5zM264 618h-119l81 208h202z" />
    <glyph glyph-name="Scircumflex" unicode="&#x15c;" horiz-adv-x="562" 
d="M497 197q0 -101 -70 -160.5t-191 -59.5q-134 0 -217 52l46 135q73 -43 153 -43q96 0 96 69q0 34 -29 55t-106 51q-139 64 -146 185q-2 27 3 53q13 81 77.5 130t163.5 49q116 0 195 -49l-45 -126q-72 39 -133 39q-87 0 -87 -64q0 -14 7 -26.5t14.5 -20.5t28.5 -19.5
t33.5 -16.5t44.5 -19q89 -39 125.5 -88.5t36.5 -125.5zM246 839l-105 -85l-75 86l180 166l176 -166l-72 -86z" />
    <glyph glyph-name="scircumflex" unicode="&#x15d;" horiz-adv-x="468" 
d="M423 152q0 -81 -59.5 -127.5t-164.5 -46.5t-180 40l38 126q68 -35 130 -35q64 0 64 41q0 20 -20.5 34.5t-75.5 36.5q-63 28 -92 66t-29 93q0 77 55 125t146 48q95 0 171 -37l-37 -118q-62 29 -110 29q-27 0 -42.5 -11t-15.5 -29q0 -10 3 -17t12 -14t16.5 -10.5l27.5 -13
t33 -16.5q72 -32 101 -69.5t29 -94.5zM205 676l-105 -85l-75 86l180 166l176 -166l-72 -86z" />
    <glyph glyph-name="Scedilla" unicode="&#x15e;" horiz-adv-x="562" 
d="M342 -28q26 -26 24 -69q17 -26 13 -55q-23 -80 -142 -80q-46 0 -107 18l24 116q51 -16 76 -16q8 2 3 11q-8 8 -49 22l19 49q-115 11 -192 59l51 145q95 -55 198 -55q109 0 109 67q0 35 -30.5 55.5t-107.5 47.5q-36 13 -62 25t-54 31t-45.5 40.5t-29 54t-11.5 71.5
q0 103 72 162t195 59t223 -59l-53 -142q-89 48 -164 48q-98 0 -98 -58q0 -16 7.5 -28.5t27 -24t35 -18l48.5 -19.5q61 -23 96.5 -41t67.5 -46t45.5 -66t13.5 -91q0 -90 -52 -144t-151 -69z" />
    <glyph glyph-name="scedilla" unicode="&#x15f;" horiz-adv-x="468" 
d="M317 -97q17 -37 3 -72q-31 -63 -132 -63q-48 0 -107 18l24 116q51 -16 76 -16q8 2 3 11q-8 7 -49 22q11 30 20 50q-83 8 -139 35l30 145q78 -33 145 -38q18 -1 34 0q57 3 57 29q0 15 -17.5 26t-69.5 32q-84 33 -124.5 71t-40.5 113q0 81 58.5 128.5t160.5 47.5
q87 0 178 -34l-31 -140q-81 31 -140 31q-61 0 -61 -30q0 -15 16 -25.5t62 -28.5q96 -37 135.5 -77.5t39.5 -113.5q0 -67 -41 -109.5t-115 -56.5q27 -29 25 -71z" />
    <glyph glyph-name="Scaron" unicode="&#x160;" horiz-adv-x="562" 
d="M497 197q0 -101 -70 -160.5t-191 -59.5q-134 0 -217 52l46 135q73 -43 153 -43q96 0 96 69q0 34 -29 55t-106 51q-139 64 -146 185q-2 27 3 53q13 81 77.5 130t163.5 49q116 0 195 -49l-45 -126q-72 39 -133 39q-87 0 -87 -64q0 -14 7 -26.5t14.5 -20.5t28.5 -19.5
t33.5 -16.5t44.5 -19q89 -39 125.5 -88.5t36.5 -125.5zM141 1018l104 -85l105 85l75 -86l-180 -166l-176 166z" />
    <glyph glyph-name="scaron" unicode="&#x161;" horiz-adv-x="468" 
d="M423 152q0 -81 -59.5 -127.5t-164.5 -46.5t-180 40l38 126q68 -35 130 -35q64 0 64 41q0 20 -20.5 34.5t-75.5 36.5q-63 28 -92 66t-29 93q0 77 55 125t146 48q95 0 171 -37l-37 -118q-62 29 -110 29q-27 0 -42.5 -11t-15.5 -29q0 -10 3 -17t12 -14t16.5 -10.5l27.5 -13
t33 -16.5q72 -32 101 -69.5t29 -94.5zM100 855l104 -85l105 85l75 -86l-180 -166l-176 166z" />
    <glyph glyph-name="uni0162" unicode="&#x162;" horiz-adv-x="594" 
d="M379 -97q17 -29 10 -61q-29 -74 -139 -74q-48 0 -107 18l24 116q51 -16 76 -16q8 2 3 11q-9 8 -49 22q14 37 24 60h-10v582h-213v153h598v-153h-213v-582h-31q29 -29 27 -76z" />
    <glyph glyph-name="uni0163" unicode="&#x163;" horiz-adv-x="427" 
d="M347 -97q17 -37 3 -72q-32 -63 -132 -63q-47 0 -108 18l25 116q20 -7 56 -13q26 -2 32 6q-4 7 -17 12l-40 12q4 16 21 58q-79 19 -108.5 77.5t-29.5 164.5v461h166v-136h187v-145h-187v-191q0 -47 14 -69t46 -23q7 -1 26 1q44 3 98 26l27 -139q-52 -24 -104 -31
q25 -26 25 -70z" />
    <glyph glyph-name="Tcaron" unicode="&#x164;" horiz-adv-x="594" 
d="M519 564h-164v-575h-176v575h-164v136h504v-136zM159 1018l104 -85l105 85l75 -86l-180 -166l-176 166z" />
    <glyph glyph-name="tcaron" unicode="&#x165;" horiz-adv-x="488" 
d="M418 5q-46 -20 -103 -24q-63 -3 -105 13t-63 49.5t-30 69t-12 86.5q-2 104 -2 213h-72v128h72v140h170v-139h133v-128h-133v-200q0 -55 10 -77t42 -24q42 -1 80 17q2 -21 6.5 -62t6.5 -62zM311 835h151l-38 -234h-113v234z" />
    <glyph glyph-name="Tbar" unicode="&#x166;" horiz-adv-x="594" 
d="M-2 714h598v-153h-213v-161h136v-135h-136v-286h-172v286h-136v135h136v161h-213v153z" />
    <glyph glyph-name="tbar" unicode="&#x167;" horiz-adv-x="427" 
d="M215 706v-162h187v-145h-187v-64h185v-123h-185q0 -19 2.5 -32.5t10 -29.5t26.5 -24.5t48 -8.5h3h3q15 0 29 3t20.5 5t22.5 9.5t19 8.5l27 -139q-80 -37 -160 -37q-121 0 -169 60.5t-48 180.5v471z" />
    <glyph glyph-name="Utilde" unicode="&#x168;" horiz-adv-x="699" 
d="M599 233q0 -117 -71.5 -187t-200.5 -70q-113 0 -183 56t-81 152q-5 37 -5 96v420h176v-392q0 -103 19 -144.5t78 -41.5q90 0 96 103q2 54 2 83v392h170v-467zM389 773q-27 0 -68.5 18t-56.5 18q-21 0 -46 -53l-97 61q18 48 53.5 86.5t83.5 38.5q28 0 69.5 -18t56.5 -18
q19 0 46 53l99 -63q-70 -123 -140 -123z" />
    <glyph glyph-name="utilde" unicode="&#x169;" 
d="M526 25q-66 -46 -235 -46q-129 0 -184 60t-55 178v324h169v-274q0 -36 0.5 -54t4.5 -41.5t12 -34.5t23 -19t37 -8q33 0 59 8v423h169v-516zM352 610q-27 0 -68.5 18t-56.5 18q-21 0 -46 -53l-97 61q18 48 53.5 86.5t83.5 38.5q28 0 69.5 -18t56.5 -18q19 0 46 53l99 -63
q-70 -123 -140 -123z" />
    <glyph glyph-name="Umacron" unicode="&#x16a;" horiz-adv-x="699" 
d="M599 233q0 -117 -71.5 -187t-200.5 -70q-113 0 -183 56t-81 152q-5 37 -5 96v420h176v-392q0 -103 19 -144.5t78 -41.5q90 0 96 103q2 54 2 83v392h170v-467zM508 785h-347v130h347v-130z" />
    <glyph glyph-name="umacron" unicode="&#x16b;" 
d="M526 25q-66 -46 -235 -46q-129 0 -184 60t-55 178v324h169v-274q0 -36 0.5 -54t4.5 -41.5t12 -34.5t23 -19t37 -8q33 0 59 8v423h169v-516zM470 622h-347v130h347v-130z" />
    <glyph glyph-name="Ubreve" unicode="&#x16c;" horiz-adv-x="699" 
d="M599 233q0 -117 -71.5 -187t-200.5 -70q-113 0 -183 56t-81 152q-5 37 -5 96v420h176v-392q0 -103 19 -144.5t78 -41.5q90 0 96 103q2 54 2 83v392h170v-467zM332 770q-84 0 -128.5 52t-42.5 147h124q5 -73 47 -73t47 73h124q0 -96 -43.5 -147.5t-127.5 -51.5z" />
    <glyph glyph-name="ubreve" unicode="&#x16d;" 
d="M526 25q-66 -46 -235 -46q-129 0 -184 60t-55 178v324h169v-274q0 -36 0.5 -54t4.5 -41.5t12 -34.5t23 -19t37 -8q33 0 59 8v423h169v-516zM294 607q-84 0 -128.5 52t-42.5 147h124q5 -73 47 -73t47 73h124q0 -96 -43.5 -147.5t-127.5 -51.5z" />
    <glyph glyph-name="Uring" unicode="&#x16e;" horiz-adv-x="699" 
d="M599 233q0 -117 -71.5 -187t-200.5 -70q-113 0 -183 56t-81 152q-5 37 -5 96v420h176v-392q0 -103 19 -144.5t78 -41.5q90 0 96 103q2 54 2 83v392h170v-467zM465 886q0 -61 -38 -95.5t-95 -34.5q-55 0 -93.5 35t-38.5 95t38.5 95t93.5 35q56 0 94.5 -35t38.5 -95z
M360 886q0 14 -8 22t-20 8t-20 -8t-8 -22t8 -22t20 -8t20 8t8 22z" />
    <glyph glyph-name="uring" unicode="&#x16f;" 
d="M526 25q-66 -46 -235 -46q-129 0 -184 60t-55 178v324h169v-274q0 -36 0.5 -54t4.5 -41.5t12 -34.5t23 -19t37 -8q33 0 59 8v423h169v-516zM427 723q0 -61 -38 -95.5t-95 -34.5q-55 0 -93.5 35t-38.5 95t38.5 95t93.5 35q56 0 94.5 -35t38.5 -95zM322 723q0 14 -8 22
t-20 8t-20 -8t-8 -22t8 -22t20 -8t20 8t8 22z" />
    <glyph glyph-name="Uhungarumlaut" unicode="&#x170;" horiz-adv-x="699" 
d="M599 233q0 -117 -71.5 -187t-200.5 -70q-113 0 -183 56t-81 152q-5 37 -5 96v420h176v-392q0 -103 19 -144.5t78 -41.5q90 0 96 103q2 54 2 83v392h170v-467zM359 794l144 203l109 -90l-164 -182zM404 912l-159 -187l-88 69l143 204z" />
    <glyph glyph-name="uhungarumlaut" unicode="&#x171;" 
d="M526 25q-66 -46 -235 -46q-129 0 -184 60t-55 178v324h169v-274q0 -36 0.5 -54t4.5 -41.5t12 -34.5t23 -19t37 -8q33 0 59 8v423h169v-516zM292 654l144 203l109 -90l-164 -182zM337 772l-159 -187l-88 69l143 204z" />
    <glyph glyph-name="Uogonek" unicode="&#x172;" horiz-adv-x="699" 
d="M305 -32q-26 4 -53 12q-101 22 -149.5 96t-48.5 184v454h172v-442q0 -153 123 -153q58 0 91 37.5t33 115.5v442h172v-454q0 -182 -126 -255q-34 -20 -65.5 -47t-34.5 -46q3 -12 28 -9q3 1 11.5 3t18 4.5t19.5 5.5l15 -126q-57 -22 -109 -22q-138 0 -138 106q0 48 41 94z
" />
    <glyph glyph-name="uogonek" unicode="&#x173;" 
d="M331 -29q-17 -3 -39 -3q-133 0 -188.5 68.5t-55.5 194.5v313h166v-294q0 -73 19.5 -103.5t67.5 -30.5q32 0 62 5v423h166v-540q-29 -23 -31 -25q0 1 2 2t3 1q-3 -3 -16.5 -15t-21 -19.5t-15.5 -17.5t-9 -16q3 -13 28 -8q26 5 49 12l15 -126q-54 -21 -109 -21
q-111 0 -132 70q-6 24 -3 49q7 41 42 81z" />
    <glyph glyph-name="Wcircumflex" unicode="&#x174;" horiz-adv-x="940" 
d="M885 700q-82 -394 -169 -711h-156q-60 195 -96 323q-4 14 -10 40t-8 32q-2 -5 -4.5 -15.5l-6.5 -27.5l-7 -29q-28 -102 -95 -323h-156q-85 307 -168 711h179q36 -214 65 -358q14 -81 20 -105q2 4 22 80q55 204 89 345h135q53 -217 87 -340q3 -13 8 -31.5t8 -32t6 -20.5
q2 4 3.5 14.5t4.5 27.5l5 28q21 98 74 392h170zM448 839l-105 -85l-75 86l180 166l176 -166l-72 -86z" />
    <glyph glyph-name="wcircumflex" unicode="&#x175;" horiz-adv-x="781" 
d="M795 541q-76 -284 -167 -552h-145q-47 157 -71 244q-5 15 -9 38.5t-5 26.5q-55 -213 -85 -309h-145q-86 255 -166 552h173q31 -153 62 -276q3 -13 6 -29.5t4.5 -26t3.5 -13.5l8 36q13 58 42 166.5t37 142.5h134q11 -51 36 -151.5t37 -154.5q2 -6 3.5 -15t3 -14.5
t2.5 -8.5q1 0 3 10t5 27.5t6 29.5q39 152 65 277h162zM397 676l-105 -85l-75 86l180 166l176 -166l-72 -86z" />
    <glyph glyph-name="Ycircumflex" unicode="&#x176;" horiz-adv-x="633" 
d="M601 700q-105 -214 -221 -425v-286h-175v285q-122 223 -220 426h193q65 -156 120 -265q61 122 123 265h180zM300 839l-105 -85l-75 86l180 166l176 -166l-72 -86z" />
    <glyph glyph-name="ycircumflex" unicode="&#x177;" horiz-adv-x="556" 
d="M543 541q-96 -327 -210 -633q-24 -57 -57.5 -81t-90.5 -24q-42 0 -126 30l34 113q38 -16 54 -16q7 0 13 2t10 5t8 9l6.5 10t5.5 12t4 12t3.5 13t3.5 12q-110 273 -189 536h179q27 -122 70 -271q23 -88 23 -89q1 1 22 89q24 84 71 271h166zM280 676l-105 -85l-75 86
l180 166l176 -166l-72 -86z" />
    <glyph glyph-name="Ydieresis" unicode="&#x178;" horiz-adv-x="633" 
d="M601 700q-105 -214 -221 -425v-286h-175v285q-122 223 -220 426h193q65 -156 120 -265q61 122 123 265h180zM268 872q0 -39 -25.5 -63.5t-62.5 -24.5t-63 24.5t-26 63.5q0 40 26 64.5t63 24.5t62.5 -24.5t25.5 -64.5zM503 872q0 -39 -25.5 -63.5t-62.5 -24.5t-63 24.5
t-26 63.5q0 40 26 64.5t63 24.5t62.5 -24.5t25.5 -64.5z" />
    <glyph glyph-name="Zacute" unicode="&#x179;" horiz-adv-x="595" 
d="M514 -11h-499v118q39 87 147 263t118 194h-245v136h480v-100q-23 -50 -128 -218t-148 -256h275v-137zM343 781h-119l81 208h202z" />
    <glyph glyph-name="zacute" unicode="&#x17a;" horiz-adv-x="486" 
d="M443 -11h-424v105q28 49 101.5 162.5t98.5 156.5h-184v128h404v-90l-56 -83q-122 -187 -158 -250h218v-129zM303 618h-119l81 208h202z" />
    <glyph glyph-name="Zdotaccent" unicode="&#x17b;" horiz-adv-x="595" 
d="M514 -11h-499v118q39 87 147 263t118 194h-245v136h480v-100q-23 -50 -128 -218t-148 -256h275v-137zM281 761q-38 0 -64 25t-26 65q0 41 26 66t64 25q39 0 65 -25t26 -66q0 -40 -26 -65t-65 -25z" />
    <glyph glyph-name="zdotaccent" unicode="&#x17c;" horiz-adv-x="486" 
d="M443 -11h-424v105q28 49 101.5 162.5t98.5 156.5h-184v128h404v-90l-56 -83q-122 -187 -158 -250h218v-129zM242 598q-38 0 -64 25t-26 65q0 41 26 66t64 25q39 0 65 -25t26 -66q0 -40 -26 -65t-65 -25z" />
    <glyph glyph-name="Zcaron" unicode="&#x17d;" horiz-adv-x="595" 
d="M514 -11h-499v118q39 87 147 263t118 194h-245v136h480v-100q-23 -50 -128 -218t-148 -256h275v-137zM178 1018l104 -85l105 85l75 -86l-180 -166l-176 166z" />
    <glyph glyph-name="zcaron" unicode="&#x17e;" horiz-adv-x="486" 
d="M443 -11h-424v105q28 49 101.5 162.5t98.5 156.5h-184v128h404v-90l-56 -83q-122 -187 -158 -250h218v-129zM139 855l104 -85l105 85l75 -86l-180 -166l-176 166z" />
    <glyph glyph-name="longs" unicode="&#x17f;" horiz-adv-x="304" 
d="M220 558v-579h-166v581q0 113 60 175t177 62q81 0 147 -32l-34 -141q-56 25 -101 25t-64 -22.5t-19 -68.5z" />
    <glyph glyph-name="uni0180" unicode="&#x180;" horiz-adv-x="598" 
d="M220 801v-94h158v-122h-158v-59q43 19 98 19q120 0 186.5 -79.5t66.5 -208.5q0 -132 -78 -211.5t-211 -79.5q-115 0 -228 35v584h-68v122h68v67zM220 377v-257q20 -5 61 -5q56 0 88.5 39t32.5 105q0 65 -26 102t-79 37q-41 0 -77 -21z" />
    <glyph glyph-name="uni0181" unicode="&#x181;" horiz-adv-x="781" 
d="M390 721q288 0 323 -158q7 -40 3 -74q-8 -70 -64 -112q54 -25 78 -67t24 -105q0 -234 -338 -234q-125 0 -232 24v565q-41 -8 -41 -45q0 -20 9 -59l-141 -18q-15 62 -15 91q0 38 13 68t33 50t53 34t64 21.5t75 12t77 5.5t79 1zM443 290h-90v-167q27 -3 67 -3q160 0 160 88
q0 45 -34 63.5t-103 18.5zM422 574q-44 0 -69 -2v-139h58q72 0 106 14.5t34 56.5q0 70 -129 70z" />
    <glyph glyph-name="uni0182" unicode="&#x182;" horiz-adv-x="639" 
d="M266 311h-37v-184q30 -2 55 -2q156 0 156 92q0 54 -43 74t-131 20zM229 461h43q168 0 255 -57.5t87 -185.5q0 -123 -86 -184.5t-250 -61.5q-109 0 -216 26v716h488v-152h-321v-101z" />
    <glyph glyph-name="uni0183" unicode="&#x183;" horiz-adv-x="598" 
d="M220 646v-119q45 20 98 20q120 0 186.5 -79.5t66.5 -210.5q0 -133 -78 -212t-211 -79q-115 0 -228 35v790h462v-145h-296zM220 379v-259q20 -5 61 -5q57 0 89 39t32 106q0 139 -105 139q-39 0 -77 -20z" />
    <glyph glyph-name="uni0184" unicode="&#x184;" horiz-adv-x="598" 
d="M220 803v-267q48 19 98 19q120 0 186.5 -80t66.5 -214q0 -135 -77.5 -215t-211.5 -80q-115 0 -228 35v601l-92 97q123 69 258 104zM220 387v-267q20 -5 61 -5q57 0 89 40t32 109q0 143 -105 143q-43 0 -77 -20z" />
    <glyph glyph-name="uni0185" unicode="&#x185;" horiz-adv-x="631" 
d="M272 318q-22 0 -42 -2v-190q58 -3 77 -2q133 7 133 96q0 98 -168 98zM230 729v-263q22 2 42 2q342 0 342 -248q0 -247 -337 -247q-110 0 -213 25v529l-93 97q127 70 259 105z" />
    <glyph glyph-name="uni0186" unicode="&#x186;" horiz-adv-x="635" 
d="M236 122q86 0 137.5 57t51.5 167q0 104 -47.5 165.5t-144.5 61.5q-88 0 -187 -47l-48 143q99 61 247 61q169 0 263 -100t94 -283q0 -179 -102 -280.5t-264 -101.5q-128 0 -231 61l51 144q87 -48 180 -48z" />
    <glyph glyph-name="uni0187" unicode="&#x187;" horiz-adv-x="694" 
d="M400 573q-85 0 -137.5 -57.5t-52.5 -166.5q0 -105 47.5 -166t144.5 -61q94 0 188 46l49 -143q-39 -25 -105 -42.5t-143 -17.5q-170 0 -264 99.5t-94 282.5q0 178 103 280.5t261 102.5q53 0 103 -13q40 89 147 89q55 0 113 -28l-41 -137q-37 17 -62 17q-36 0 -49 -45v1
l-27 -90q-96 49 -181 49z" />
    <glyph glyph-name="uni0188" unicode="&#x188;" horiz-adv-x="531" 
d="M356 555q36 82 124 86q18 3 44 -1q40 -6 74 -22l-39 -133q-37 18 -58 18q-13 0 -22 -7t-16 -24.5t-10 -26.5t-8 -35.5t-6 -28.5q-68 27 -120 27q-60 0 -91.5 -38.5t-31.5 -108.5q0 -146 131 -146q58 0 130 31l27 -145q-82 -35 -171 -35q-143 0 -214.5 81t-71.5 214
q0 129 76.5 213t205.5 84q26 0 47 -3z" />
    <glyph glyph-name="uni0189" unicode="&#x189;" horiz-adv-x="738" 
d="M706 347q0 -185 -110.5 -280.5t-304.5 -95.5q-118 0 -217 22v298h-81v139h81v270q104 21 221 21q192 0 301.5 -92.5t109.5 -281.5zM245 291v-165q3 0 20.5 -1t33.5 -1q114 0 172 58.5t58 164.5q0 108 -56 165t-170 57q-25 0 -58 -3v-136h128v-139h-128z" />
    <glyph glyph-name="uni018A" unicode="&#x18a;" horiz-adv-x="848" 
d="M405 721q192 0 301.5 -92.5t109.5 -281.5q0 -185 -110.5 -280.5t-304.5 -95.5q-113 0 -217 22v567q-41 -8 -41 -45q0 -20 9 -59l-141 -18q-15 62 -15 91q0 39 14.5 70t35.5 51t58 34t67 21t78.5 11t77.5 4.5t78 0.5zM411 569q-40 0 -56 -1v-442q3 0 20.5 -1t33.5 -1
q114 0 172 58.5t58 164.5q0 222 -228 222z" />
    <glyph glyph-name="uni018B" unicode="&#x18b;" horiz-adv-x="639" 
d="M410 311h-24q-96 0 -141.5 -18.5t-45.5 -75.5q0 -84 129 -91q51 -3 82 1v184zM367 461h43v101h-321v152h488v-716q-108 -26 -216 -26q-164 0 -250 61.5t-86 184.5q0 128 86.5 185.5t255.5 57.5z" />
    <glyph glyph-name="uni018C" unicode="&#x18c;" horiz-adv-x="598" 
d="M378 527v119h-296v145h462v-790q-113 -35 -228 -35q-134 0 -211.5 79t-77.5 212q0 131 66.5 210.5t185.5 79.5q52 0 99 -20zM378 120v259q-38 20 -77 20q-105 0 -105 -139q0 -67 32 -106t89 -39q41 0 61 5z" />
    <glyph glyph-name="uni018D" unicode="&#x18d;" horiz-adv-x="587" 
d="M562 297q0 -70 -38 -130.5t-100 -98.5q27 -22 40 -45t16 -58q3 -26 -4 -56q-12 -57 -68 -87t-142 -30q-99 0 -196 37l37 140q58 -25 116 -30q24 -4 54 -2q40 6 40 19q0 10 -10 19.5t-23 17t-42 22.5q-5 3 -8 4q-106 55 -157.5 114.5t-51.5 156.5q0 118 71.5 192.5
t196.5 74.5q126 0 197.5 -73t71.5 -187zM301 154q41 21 66.5 58t25.5 79q0 54 -26 86t-74 32q-47 0 -73.5 -30.5t-26.5 -87.5q0 -48 27 -78.5t81 -58.5z" />
    <glyph glyph-name="uni018E" unicode="&#x18e;" horiz-adv-x="591" 
d="M529 -21h-514v151h342v158h-283v149h283v126h-318v151h490v-735z" />
    <glyph glyph-name="uni018F" unicode="&#x18f;" horiz-adv-x="719" 
d="M500 257h-288q8 -65 42.5 -102.5t93.5 -37.5q67 0 104.5 39.5t47.5 100.5zM42 406h463q-20 169 -193 169q-95 0 -194 -54l-47 142q40 24 107 45.5t142 21.5q181 0 274 -103t93 -277q0 -187 -94 -286t-246 -99q-147 0 -231 94.5t-84 273.5q0 31 10 73z" />
    <glyph glyph-name="uni0190" unicode="&#x190;" horiz-adv-x="596" 
d="M331 576q-75 0 -87 -37q-10 -44 57 -63q0 -40 57 -40h113v-149h-101q-81 0 -124 -18.5t-43 -69.5q0 -73 121 -80q27 -1 57 3q79 9 158 48l54 -142q-122 -64 -256 -64q-310 0 -310 231q0 122 114 179q-73 45 -81 127q-3 28 2 58q15 83 87 126.5t181 43.5q135 0 239 -66
l-58 -141q-90 54 -180 54z" />
    <glyph glyph-name="uni0191" unicode="&#x191;" horiz-adv-x="558" 
d="M234 278v-231q0 -126 -42.5 -190.5t-155.5 -64.5q-47 0 -101 19l23 143q41 -15 66 -15q24 0 31 19.5t7 69.5v686h485v-151h-313v-133h278v-152h-278z" />
    <glyph glyph-name="florin" unicode="&#x192;" horiz-adv-x="408" 
d="M220 399v-365q0 -117 -46 -175t-144 -64q-25 -2 -54 2q-43 6 -69 16l23 143q40 -15 71 -15q30 0 41.5 18t11.5 58v524q0 42 3 62q11 94 70.5 144t163.5 50q81 0 147 -32l-34 -141q-56 25 -101 25q-48 0 -65.5 -25t-17.5 -80h191v-145h-191z" />
    <glyph glyph-name="uni0193" unicode="&#x193;" horiz-adv-x="709" 
d="M394 730q55 0 115 -14q20 51 54.5 70.5t93.5 19.5q56 0 112 -28l-40 -137q-39 17 -63 17q-36 0 -49 -45v1q-2 -10 -8 -27.5l-8 -23.5l-34 -27q-70 38 -156 38q-99 0 -150 -59t-51 -168q0 -106 48.5 -167t141.5 -61q50 0 72 5v252h172v-368q-101 -42 -255 -42
q-162 0 -259 101t-97 280q0 178 102.5 280.5t258.5 102.5z" />
    <glyph glyph-name="uni0194" unicode="&#x194;" horiz-adv-x="692" 
d="M346 48q-28 -52 -28 -81t28 -29q29 0 29 29q0 33 -29 81zM443 169l15 -24q70 -113 70 -188q0 -70 -47 -116.5t-134 -46.5t-134.5 46.5t-47.5 116.5q0 77 71 189v-1l14 23q-115 207 -274 546h188q74 -167 184 -390q92 180 181 390h186q-119 -267 -272 -545z" />
    <glyph glyph-name="uni0195" unicode="&#x195;" horiz-adv-x="882" 
d="M523 294v-55q0 -67 16.5 -95.5t56.5 -28.5q39 0 55.5 28.5t16.5 95.5v305h165v-319q0 -130 -57 -194.5t-180 -64.5q-124 0 -181.5 64.5t-57.5 194.5v50q0 75 -15 103.5t-59 28.5q-35 0 -63 -10v-418h-166v795l166 27v-256q39 11 76 11q67 0 112.5 -18.5t70 -55
t34.5 -81.5t10 -107z" />
    <glyph glyph-name="uni0196" unicode="&#x196;" horiz-adv-x="413" 
d="M61 197v517h172v-515q0 -46 14.5 -65t50.5 -19q40 0 93 20l28 -141q-73 -29 -140 -29q-120 0 -169 57t-49 175z" />
    <glyph glyph-name="uni0197" unicode="&#x197;" horiz-adv-x="346" 
d="M259 -21h-172v313h-99v135h99v287h172v-287h99v-135h-99v-313z" />
    <glyph glyph-name="uni0198" unicode="&#x198;" horiz-adv-x="681" 
d="M372 629q28 32 46 49t53.5 33.5t76.5 16.5q43 0 75.5 -16t71.5 -53l-79 -124q-41 39 -64 39q-22 0 -56 -36q-72 -76 -143 -161q83 -66 173.5 -174t159.5 -224h-190q-18 18 -112.5 129.5t-149.5 153.5v-283h-172v735h172v-244q50 64 111 130z" />
    <glyph glyph-name="uni0199" unicode="&#x199;" horiz-adv-x="554" 
d="M54 -21v617q0 103 42.5 152t146.5 49q46 0 96 -19l-22 -130q-43 12 -60 12q-23 0 -30 -17.5t-7 -60.5v-207l153 169h203q-173 -191 -236 -253q59 -54 126.5 -144t109.5 -168h-189q-80 130 -167 211v-211h-166z" />
    <glyph glyph-name="uni019A" unicode="&#x19a;" horiz-adv-x="319" 
d="M320 112l-24 -143q-100 3 -150.5 31.5t-64.5 88.5q-11 39 -11 94v156h-79v124h79v311l166 27v-338h91v-124h-91v-159q0 -34 17 -49t67 -19z" />
    <glyph glyph-name="uni019B" unicode="&#x19b;" horiz-adv-x="530" 
d="M274 325q-73 -170 -118 -346h-171q75 264 195 502q2 15 8 51q-12 -4 -35 -13l-41 -15.5t-32 -10.5l-40 111q28 10 31 11q-24 75 -48 106q-15 23 -21 39q49 28 95 34q12 3 19 3q114 0 178 -101l125 45l41 -113l-114 -41q104 -250 204 -608h-176q-59 234 -100 346z" />
    <glyph glyph-name="uni019C" unicode="&#x19c;" horiz-adv-x="977" 
d="M492 16q-90 -51 -180 -51q-78 0 -130 21.5t-79 63.5t-38 93t-11 121v450h172v-424q0 -94 19.5 -133t75.5 -39q43 0 90 27q-12 49 -12 121v448h171v-428q0 -91 20 -129.5t75 -38.5q44 0 78 8v588h172v-712q-129 -37 -259 -37q-101 0 -164 51z" />
    <glyph glyph-name="uni019D" unicode="&#x19d;" horiz-adv-x="742" 
d="M232 435v-400q0 -122 -42 -182.5t-153 -60.5q-48 0 -102 19l23 143q41 -15 66 -15q38 0 38 65v710h134q71 -74 158 -188t155 -220v408h171v-735h-130q-6 5 -16 16t-14 15q-139 240 -288 425z" />
    <glyph glyph-name="uni019E" unicode="&#x19e;" horiz-adv-x="600" 
d="M54 -21v526q48 51 237 51q133 0 188 -67.5t55 -193.5v-501h-165v482q0 72 -19 101.5t-68 29.5q-36 0 -62 -6v-422h-166z" />
    <glyph glyph-name="uni019F" unicode="&#x19f;" horiz-adv-x="785" 
d="M753 347q0 -182 -101.5 -282t-258.5 -100q-156 0 -258 100.5t-102 281.5q0 180 103.5 281.5t256.5 101.5q155 0 257.5 -101t102.5 -282zM393 121q69 0 115 42.5t60 117.5h-351q13 -75 59 -117.5t117 -42.5zM393 573q-70 0 -115.5 -41t-59.5 -115h349q-14 74 -59.5 115
t-114.5 41z" />
    <glyph glyph-name="Ohorn" unicode="&#x1a0;" horiz-adv-x="785" 
d="M753 347q0 -182 -101.5 -282t-258.5 -100q-156 0 -258 100.5t-102 281.5q0 180 103.5 281.5t256.5 101.5q100 0 180 -47q18 30 18 73q0 21 -3 66h156q7 -42 7 -67q0 -106 -65 -171q67 -99 67 -237zM576 347q0 105 -49 165.5t-134 60.5q-86 0 -135 -61t-49 -165t49 -165
t135 -61q85 0 134 61t49 165z" />
    <glyph glyph-name="ohorn" unicode="&#x1a1;" horiz-adv-x="601" 
d="M572 262q0 -134 -74.5 -215t-197.5 -81q-122 0 -197.5 81.5t-75.5 214.5q0 132 77 214t196 82q79 0 143 -42q19 31 19 71q0 20 -5 64h147q5 -27 7 -49v-37q-4 -83 -71 -153q32 -64 32 -150zM403 262q0 68 -27.5 107t-75.5 39q-49 0 -76.5 -39t-27.5 -107t27.5 -107.5
t76.5 -39.5q48 0 75.5 39.5t27.5 107.5z" />
    <glyph glyph-name="uni01A2" unicode="&#x1a2;" horiz-adv-x="1052" 
d="M380 730q112 0 196 -61q80 60 175 60q60 0 103 -14t69 -38t41.5 -63t20.5 -80t5 -98v-457h-171v453q0 80 -18 111t-63 31q-26 0 -61 -20q50 -90 50 -207q0 -181 -99.5 -281.5t-247.5 -100.5q-147 0 -247 101t-100 281q0 179 101.5 281t245.5 102zM380 121
q77 0 123.5 61.5t46.5 164.5q0 104 -46.5 165t-123.5 61t-124 -61.5t-47 -164.5t46.5 -164.5t124.5 -61.5z" />
    <glyph glyph-name="uni01A3" unicode="&#x1a3;" horiz-adv-x="848" 
d="M560 262q0 -133 -73.5 -214.5t-192.5 -81.5q-118 0 -192.5 81.5t-74.5 214.5q0 132 75 214t192 82q84 0 147 -44q63 41 143 41q54 0 93 -13.5t62.5 -36t37 -58t18 -72t4.5 -86.5v-495h-165v487q0 67 -12 96.5t-46 29.5q-23 0 -44 -12q28 -59 28 -133zM391 262
q0 68 -26 107t-71 39q-48 0 -73 -38.5t-25 -107.5q0 -68 26 -107.5t72 -39.5q45 0 71 39.5t26 107.5z" />
    <glyph glyph-name="uni01A4" unicode="&#x1a4;" horiz-adv-x="751" 
d="M401 721q335 0 335 -248q0 -131 -86 -191t-253 -60h-42v-243h-171v581q-41 -7 -41 -45q0 -20 9 -59l-141 -18q-15 62 -15 91q0 39 14 69.5t35 50.5t57 34t67 21.5t77.5 11.5t77 4.5t77.5 0.5zM409 569q-40 0 -54 -2v-192h40q84 0 124.5 21.5t40.5 77.5q0 95 -151 95z" />
    <glyph glyph-name="uni01A5" unicode="&#x1a5;" horiz-adv-x="598" 
d="M220 603v-57q34 10 69 10q129 0 205.5 -80t76.5 -215q0 -133 -66.5 -213t-186.5 -80q-53 0 -98 20v-194h-166v802q0 88 29 136t101 59q20 5 68 5q50 -3 87 -18l-22 -130q-43 12 -60 12q-37 0 -37 -57zM220 399v-263q38 -20 77 -20q105 0 105 142q0 70 -31.5 109.5
t-86.5 39.5q-35 0 -64 -8z" />
    <glyph glyph-name="uni01A6" unicode="&#x1a6;" horiz-adv-x="652" 
d="M62 797h171v-79q28 2 53 2q159 0 241.5 -61.5t82.5 -181.5q0 -75 -31 -122t-93 -76q50 -70 118.5 -189.5t111.5 -218.5h-190q-45 99 -109.5 206.5t-107.5 163.5q-10 -1 -31 -1h-44v-261h-172v818zM284 568q-32 0 -50 -3v-179h23q93 0 135 18t42 74q0 90 -150 90z" />
    <glyph glyph-name="uni01A7" unicode="&#x1a7;" horiz-adv-x="562" 
d="M302 117q102 0 199 55l51 -145q-106 -62 -250 -62q-140 0 -212 56.5t-72 163.5q0 53 13.5 91t45.5 66t67.5 46t96.5 41q80 31 99 49t19 41q0 58 -98 58q-77 0 -164 -48l-54 142q104 59 224 59q124 0 195 -59t71 -162q0 -48 -16 -85t-47 -62.5t-62 -41.5t-77 -33
q-77 -27 -107 -47.5t-30 -55.5q0 -67 108 -67z" />
    <glyph glyph-name="uni01A8" unicode="&#x1a8;" horiz-adv-x="468" 
d="M255 110q73 0 166 39l31 -143q-89 -40 -197 -40q-115 0 -175.5 44t-60.5 130q0 72 40 113t137 78q45 18 60.5 28t15.5 26q0 30 -61 30q-59 0 -140 -31l-31 140q91 34 179 34q102 0 160 -47t58 -129q0 -75 -40.5 -113t-124.5 -71l-40.5 -17t-25.5 -12.5t-18 -14t-4 -14.5
q0 -30 71 -30z" />
    <glyph glyph-name="uni01A9" unicode="&#x1a9;" horiz-adv-x="582" 
d="M430 353l-92 -103.5t-101 -119.5h326v-151h-551v122q45 56 155 181q5 6 15 20l46 53q-34 44 -106.5 129t-95.5 116v114h536v-151h-298z" />
    <glyph glyph-name="uni01AA" unicode="&#x1aa;" horiz-adv-x="382" 
d="M162 -19v475q-27 -16 -61 -16q-69 0 -119 47.5t-50 129.5q0 87 55 135t137 48q116 0 160 -68.5t44 -197.5v-531q0 -34 17 -49t67 -19q-2 -10 -5.5 -37t-6.5 -41.5t-11 -33.5t-20 -31q-117 3 -162 48t-45 141zM120 578q22 0 42 20v10q0 55 -42 55q-19 0 -28.5 -11.5
t-9.5 -29.5q0 -19 10 -31.5t28 -12.5z" />
    <glyph glyph-name="uni01AB" unicode="&#x1ab;" horiz-adv-x="427" 
d="M284 115q64 0 125 21q14 -103 14 -159q0 -185 -177 -185q-47 0 -101 19l23 132q37 -14 67 -14q26 0 29 28q3 8 6 13q-32 0 -61 3q-63 9 -99 42.5t-48.5 82.5t-12.5 125v456l166 27v-162h187v-145h-187v-191q0 -50 16 -71.5t53 -21.5z" />
    <glyph glyph-name="uni01AC" unicode="&#x1ac;" horiz-adv-x="627" 
d="M244 561h-40q-60 0 -60 -50q0 -20 9 -58l-142 -19q-15 62 -15 91q0 31 7 56.5t16 44t28.5 33t34 23.5t43 15.5t45.5 10t51 5t50 1.5h52h20h285v-153h-213v-582h-171v582z" />
    <glyph glyph-name="uni01AD" unicode="&#x1ad;" horiz-adv-x="427" 
d="M215 544h192v-145h-192v-191q0 -83 53 -90q12 -2 41 0q43 4 93 26l27 -140q-84 -37 -162 -37q-120 0 -169 61t-49 180v352q0 113 59.5 175t176.5 62q80 0 146 -31l-34 -142q-54 25 -100 25q-48 0 -64.5 -24.5t-17.5 -80.5z" />
    <glyph glyph-name="uni01AE" unicode="&#x1ae;" horiz-adv-x="594" 
d="M383 561v-557q0 -34 8.5 -49.5t29.5 -15.5q25 0 66 15l23 -143q-54 -19 -101 -19q-105 0 -151.5 52.5t-46.5 159.5v557h-213v153h598v-153h-213z" />
    <glyph glyph-name="Uhorn" unicode="&#x1af;" horiz-adv-x="731" 
d="M473 714h80q57 0 57 45q0 8 -0.5 18.5t-1.5 23.5t-1 21h153q6 -45 6 -67q0 -133 -121 -161v-334q0 -136 -73.5 -215.5t-223.5 -79.5q-149 0 -221.5 80t-72.5 215v454h172v-389q0 -113 27.5 -159.5t95.5 -46.5q58 0 91 37.5t33 115.5v442z" />
    <glyph glyph-name="uhorn" unicode="&#x1b0;" horiz-adv-x="613" 
d="M529 429v-427q-112 -34 -237 -34q-133 0 -188.5 68.5t-55.5 194.5v313h166v-294q0 -73 19.5 -103.5t67.5 -30.5q32 0 62 5v423h96q43 2 43 45q0 10 -5 62h144q7 -40 7 -71q0 -52 -29 -94.5t-90 -56.5z" />
    <glyph glyph-name="uni01B1" unicode="&#x1b1;" horiz-adv-x="775" 
d="M388 -35q-154 0 -253 93.5t-99 259.5q0 138 90 246h-106v150h331v-125q-138 -114 -138 -268q0 -96 47 -149t128 -53t128 53t47 149q0 153 -139 268v125h331v-150h-106q90 -110 90 -246q0 -167 -98.5 -260t-252.5 -93z" />
    <glyph glyph-name="uni01B2" unicode="&#x1b2;" horiz-adv-x="711" 
d="M675 349q0 -175 -83.5 -279.5t-245.5 -104.5q-145 0 -218.5 81.5t-73.5 219.5v448h172v-436q0 -82 33 -120.5t87 -38.5q153 0 153 227q0 115 -23.5 168.5t-84.5 53.5q-21 0 -60 -12l-15 151q52 13 93 13q140 0 203 -94.5t63 -276.5z" />
    <glyph glyph-name="uni01B3" unicode="&#x1b3;" horiz-adv-x="697" 
d="M318 433l70 133q15 31 21.5 43t24 38t32.5 38t39.5 23.5t52.5 13.5q31 2 55 -3q61 -10 118 -68l-78 -121q-38 40 -62 40q-20 0 -37 -29q-49 -80 -113 -202h1l-39 -91v-269h-172v285q-139 215 -259 450h198q59 -130 148 -281z" />
    <glyph glyph-name="uni01B4" unicode="&#x1b4;" horiz-adv-x="591" 
d="M478 374l-38.5 -120l-46 -142l-40.5 -117q-39 -100 -91.5 -148t-138.5 -52q-31 -2 -55 2q-44 5 -88 24l30 139q57 -21 89 -21q34 0 55 16.5t37 54.5q-126 245 -206 534h175q40 -162 112 -335l57 194q11 39 22.5 64t29.5 46t45.5 30.5t66.5 9.5q55 0 119 -27l-38 -133
q-40 18 -59 18q-15 0 -22.5 -8t-14.5 -30v1z" />
    <glyph glyph-name="uni01B5" unicode="&#x1b5;" horiz-adv-x="595" 
d="M572 714v-124q-46 -48 -136 -165h121v-136h-224q-65 -91 -103 -159h353v-151h-568v106q42 80 124 204h-91v136h187q56 80 105 138h-308v151h540z" />
    <glyph glyph-name="uni01B6" unicode="&#x1b6;" horiz-adv-x="486" 
d="M469 544v-116l-89 -100h73v-119h-174q-20 -27 -60 -88h256v-142h-460v99q30 54 84 131h-53v119h146q46 59 59 74h-223v142h441z" />
    <glyph glyph-name="uni01B7" unicode="&#x1b7;" horiz-adv-x="593" 
d="M561 200q0 -119 -83 -177.5t-229 -58.5q-133 0 -252 67l53 144q107 -58 199 -58q136 0 136 85q0 52 -44 72.5t-125 20.5h-57v88l6 21q79 79 146 159h-275v151h508v-106q-51 -68 -170 -197q187 -43 187 -211z" />
    <glyph glyph-name="uni01B8" unicode="&#x1b8;" horiz-adv-x="594" 
d="M32 200q0 168 187 212q-123 133 -170 197v105h509v-151h-275q74 -87 152 -165v-103h-58q-80 0 -124.5 -20.5t-44.5 -72.5q0 -85 136 -85q96 0 199 57l54 -145q-122 -65 -253 -65q-146 0 -229 58.5t-83 177.5z" />
    <glyph glyph-name="uni01B9" unicode="&#x1b9;" horiz-adv-x="498" 
d="M394 234v-105h-66q-141 0 -141 -93q0 -44 30.5 -68.5t90.5 -24.5q89 0 172 38l39 -140q-96 -47 -218 -47q-134 0 -208 60.5t-74 177.5q0 85 47 137t125 74q-22 30 -77.5 98t-72.5 93v110h450v-145h-230q64 -89 133 -165z" />
    <glyph glyph-name="uni01BA" unicode="&#x1ba;" horiz-adv-x="498" 
d="M315 294q79 -20 116 -58.5t37 -109.5q0 -40 -12.5 -71t-32 -51.5t-54.5 -37t-68 -26.5t-85 -22q-39 -10 -54.5 -18.5t-15.5 -23.5q0 -16 23 -62l-139 -28q-40 48 -40 105q0 53 32 88.5t77.5 52t91 28.5t77.5 27.5t32 39.5q0 31 -38.5 44.5t-149.5 14.5v105q54 50 108 108
h-217v145h447v-114q-73 -83 -135 -136z" />
    <glyph glyph-name="uni01BB" unicode="&#x1bb;" horiz-adv-x="553" 
d="M502 515q0 -59 -46 -124h61v-135h-179q-16 -16 -43 -40t-37.5 -34.5t-20.5 -26t-12 -29.5h298v-147h-494q-6 28 -6 60q0 110 102 217h-74v135h206q25 25 38 39.5t25 36t12 40.5q0 73 -86 73q-78 0 -160 -79l-87 121q49 46 114.5 77t136.5 31q126 0 189 -56.5t63 -158.5z
" />
    <glyph glyph-name="uni01BC" unicode="&#x1bc;" horiz-adv-x="551" 
d="M511 565h-260q-2 -84 -8 -117q295 -28 295 -244q0 -109 -73.5 -174t-224.5 -65q-57 0 -125 17t-95 33l36 150q64 -32 133 -42q52 -5 82 0q93 9 93 77q0 56 -67.5 83.5t-231.5 27.5q21 176 25 254h-93v149h514v-149z" />
    <glyph glyph-name="uni01BD" unicode="&#x1bd;" horiz-adv-x="505" 
d="M481 156q0 -91 -65.5 -140.5t-192.5 -49.5q-61 0 -119.5 12t-87.5 26l30 144q67 -25 138 -32q27 -3 56 -1q75 6 75 43q0 33 -35 45.5t-133 12.5h-93l8 81q1 15 4.5 48t5.5 57h-75v142h463v-142h-235q-4 -35 -5 -54q261 0 261 -192z" />
    <glyph glyph-name="uni01BE" unicode="&#x1be;" horiz-adv-x="477" 
d="M398 400h-184q4 -16 11 -24q23 -27 57.5 -47.5t62.5 -33t53.5 -30t40.5 -48t15 -77.5q0 -86 -61.5 -130t-176.5 -44q-111 0 -197 40l31 143q77 -32 140 -37q18 -2 48 0q51 4 51 28q0 16 -17.5 27t-69.5 32h1q-48 18 -72 31t-47 39t-31 66t-8 103v241l166 27v-162h187
v-144z" />
    <glyph glyph-name="uni01BF" unicode="&#x1bf;" horiz-adv-x="581" 
d="M282 556q127 0 199.5 -68t72.5 -188q0 -76 -25.5 -135.5t-75 -101.5t-104 -70.5t-129.5 -54.5v-144h-166v713q118 49 228 49zM281 406q-29 0 -61 -8v-300q72 30 115 70t48 107q3 21 -1 49q-5 39 -31.5 60.5t-69.5 21.5z" />
    <glyph glyph-name="uni01C0" unicode="&#x1c0;" horiz-adv-x="304" 
d="M68 -206v1000h149v-1000h-149z" />
    <glyph glyph-name="uni01C1" unicode="&#x1c1;" horiz-adv-x="526" 
d="M68 -206v1000h149v-1000h-149zM291 -206v1000h149v-1000h-149z" />
    <glyph glyph-name="uni01C2" unicode="&#x1c2;" horiz-adv-x="570" 
d="M205 468v336h160v-336h190v-134h-190v-61h190v-135h-190v-344h-160v344h-190v135h190v61h-190v134h190z" />
    <glyph glyph-name="uni01C3" unicode="&#x1c3;" horiz-adv-x="282" 
d="M222 784l-3 -295q-1 -55 -13 -144t-14 -117h-105q-2 23 -14 114t-13 147l-3 295q38 18 82 18q45 0 83 -18zM232 78q0 -40 -26.5 -65.5t-64.5 -25.5t-64.5 25t-26.5 65t25 66t66 26q38 0 64.5 -25.5t26.5 -65.5z" />
    <glyph glyph-name="uni01C4" unicode="&#x1c4;" horiz-adv-x="1289" 
d="M655 345q0 -172 -97.5 -268t-279.5 -96q-120 0 -215 28v672q100 28 213 28q184 0 281.5 -95t97.5 -269zM239 569v-445q1 0 7 -0.5t16.5 -1t23.5 -0.5q96 0 142.5 55t46.5 170q0 114 -45.5 169t-142.5 55q-13 0 -24 -0.5t-17 -1t-7 -0.5zM1222 701l-11 -104
q-18 -34 -123 -203.5t-154 -265.5h295v-139h-519l12 98q84 182 272 476h-262v138h490zM893 970l104 -86l105 86l75 -86l-180 -166l-176 166z" />
    <glyph glyph-name="uni01C5" unicode="&#x1c5;" horiz-adv-x="1198" 
d="M655 345q0 -172 -97.5 -268t-279.5 -96q-120 0 -215 28v672q100 28 213 28q184 0 281.5 -95t97.5 -269zM239 569v-445q1 0 7 -0.5t16.5 -1t23.5 -0.5q96 0 142.5 55t46.5 170q0 114 -45.5 169t-142.5 55q-13 0 -24 -0.5t-17 -1t-7 -0.5zM1158 538q-8 -66 -11 -99l-22 -27
q-128 -200 -176 -291h213v-132h-431q6 31 19 113q49 98 188 304h-191v132h411zM854 810l104 -85l105 85l75 -86l-180 -166l-176 166z" />
    <glyph glyph-name="uni01C6" unicode="&#x1c6;" horiz-adv-x="1078" 
d="M545 791v-769q-90 -44 -228 -44q-131 0 -208 74.5t-77 210.5q0 130 66.5 207.5t179.5 77.5q56 0 96 -19v247q19 2 54 5l63.5 5.5zM374 115v289q-32 18 -66 18q-104 0 -104 -154q0 -77 30 -118t84 -41q32 0 56 6zM1038 538q-2 -17 -5.5 -50t-5.5 -49q-77 -95 -198 -318
h213v-132h-431l9.5 55t10.5 58q41 84 187 304h-191v132h411zM728 810l105 -85l105 85l75 -86l-180 -166l-177 166z" />
    <glyph glyph-name="uni01C7" unicode="&#x1c7;" horiz-adv-x="1068" 
d="M241 129h254v-140h-432v712h178v-572zM943 701v-531q0 -248 -236 -263q-88 -4 -173 40l35 133q76 -31 124 -1q72 35 72 161v461h178z" />
    <glyph glyph-name="uni01C8" unicode="&#x1c8;" horiz-adv-x="815" 
d="M241 129h254v-140h-432v712h178v-572zM570 -206q-46 -6 -96 7l13 104q21 4 42 18q39 4 53.5 27.5t14.5 78.5v509h171v-499q0 -225 -198 -245zM779 683q0 -40 -28 -65.5t-68 -25.5t-68 25.5t-28 65.5t27.5 65t67.5 25t68.5 -25.5t28.5 -64.5z" />
    <glyph glyph-name="uni01C9" unicode="&#x1c9;" horiz-adv-x="570" 
d="M271 9l-92 -26q-103 20 -117 112q-6 30 -6 85v596q19 2 53.5 5l63 5.5t54.5 4.5v-517q0 -88 31 -132q-6 -79 13 -133zM324 -206q-44 -6 -96 7l14 104q21 4 42 18q39 4 53 27.5t14 78.5v509h172v-499q0 -225 -199 -245zM533 683q0 -40 -28 -65.5t-68 -25.5t-68 25.5
t-28 65.5t27.5 65t68.5 25q40 0 68 -25.5t28 -64.5z" />
    <glyph glyph-name="uni01CA" unicode="&#x1ca;" horiz-adv-x="1255" 
d="M645 -11h-105l-37 6q-59 102 -154.5 249.5t-124.5 176.5q0 -18 1 -65.5t1 -73.5v-293h-163v712h142q119 -142 232 -314q10 -15 25.5 -40.5t20.5 -32.5q0 21 -1 73.5t-1 80.5v233h164v-712zM1130 701v-531q0 -248 -236 -263q-88 -4 -173 40l36 133q75 -31 123 -1
q73 36 73 161v461h177z" />
    <glyph glyph-name="uni01CB" unicode="&#x1cb;" horiz-adv-x="1014" 
d="M645 -11h-105l-37 6q-59 102 -154.5 249.5t-124.5 176.5q0 -18 1 -65.5t1 -73.5v-293h-163v712h142q119 -142 232 -314q10 -15 25.5 -40.5t20.5 -32.5q0 21 -1 73.5t-1 80.5v233h164v-712zM768 -206q-46 -6 -96 7l13 104q21 4 42 18q39 4 53.5 27.5t14.5 78.5v509h171
v-499q0 -225 -198 -245zM976 683q0 -40 -27.5 -65.5t-67.5 -25.5t-68 25.5t-28 65.5t27.5 65t67.5 25t68 -25.5t28 -64.5z" />
    <glyph glyph-name="uni01CC" unicode="&#x1cc;" horiz-adv-x="856" 
d="M56 -11v516q78 44 237 44q76 0 126.5 -17.5t76.5 -54t35.5 -81t9.5 -109.5v-298h-171v270q0 90 -15 124.5t-68 34.5q-34 0 -60 -6v-423h-171zM611 -206q-45 -6 -96 7l13 104q21 4 42 18q39 4 53.5 27.5t14.5 78.5v509h172v-499q0 -225 -199 -245zM820 683
q0 -40 -28 -65.5t-68 -25.5t-68 25.5t-28 65.5t27.5 65t67.5 25t68.5 -25.5t28.5 -64.5z" />
    <glyph glyph-name="uni01CD" unicode="&#x1cd;" horiz-adv-x="273" 
d="M220 544v-565h-166v565h166zM32 855l104 -85l105 85l75 -86l-180 -166l-176 166z" />
    <glyph glyph-name="uni01CE" unicode="&#x1ce;" horiz-adv-x="540" 
d="M493 14q-95 -35 -228 -35q-241 0 -241 181q0 173 260 188q13 1 46 -2q-5 81 -88 81q-70 0 -148 -31l-29 121q94 36 200 36q201 0 223 -166q5 -35 5 -67v-306zM331 102v141q-40 0 -49 -1q-94 -9 -94 -77t86 -68q37 0 57 5zM169 856l104 -85l105 85l75 -86l-180 -166
l-176 166z" />
    <glyph glyph-name="uni01CF" unicode="&#x1cf;" horiz-adv-x="296" 
d="M238 -11h-176v711h176v-711zM44 1018l104 -85l105 85l75 -86l-180 -166l-176 166z" />
    <glyph glyph-name="uni01D0" unicode="&#x1d0;" horiz-adv-x="273" 
d="M220 544v-565h-166v565h166zM32 855l104 -85l105 85l75 -86l-180 -166l-176 166z" />
    <glyph glyph-name="uni01D1" unicode="&#x1d1;" horiz-adv-x="712" 
d="M673 345q0 -168 -85 -268t-232 -100q-146 0 -231.5 100t-85.5 268t86 268t231 100q146 0 231.5 -100t85.5 -268zM493 349q0 100 -34.5 164t-102.5 64t-102.5 -64t-34.5 -164q0 -101 34.5 -164.5t102.5 -63.5t102.5 63.5t34.5 164.5zM250 1013l104 -85l105 85l75 -86
l-180 -166l-176 166z" />
    <glyph glyph-name="uni01D2" unicode="&#x1d2;" horiz-adv-x="599" 
d="M550 266q0 -129 -70 -208.5t-189 -79.5t-189 79.5t-70 208.5q0 128 70.5 207.5t188.5 79.5t188.5 -79.5t70.5 -207.5zM379 267q0 158 -88 158q-45 0 -67 -43t-22 -115q0 -156 89 -156q88 0 88 156zM186 855l104 -85l105 85l75 -86l-180 -166l-176 166z" />
    <glyph glyph-name="uni01D3" unicode="&#x1d3;" horiz-adv-x="699" 
d="M599 233q0 -117 -71.5 -187t-200.5 -70q-113 0 -183 56t-81 152q-5 37 -5 96v420h176v-392q0 -103 19 -144.5t78 -41.5q90 0 96 103q2 54 2 83v392h170v-467zM228 1018l104 -85l105 85l75 -86l-180 -166l-176 166z" />
    <glyph glyph-name="uni01D4" unicode="&#x1d4;" 
d="M526 25q-66 -46 -235 -46q-129 0 -184 60t-55 178v324h169v-274q0 -36 0.5 -54t4.5 -41.5t12 -34.5t23 -19t37 -8q33 0 59 8v423h169v-516zM190 855l104 -85l105 85l75 -86l-180 -166l-176 166z" />
    <glyph glyph-name="uni01D5" unicode="&#x1d5;" horiz-adv-x="699" 
d="M336 -24q-278 0 -278 299v426h178v-397q0 -98 22.5 -139t80.5 -41q59 0 81 40.5t22 139.5v397h173v-459q0 -123 -72.5 -194.5t-206.5 -71.5zM171 949v108h355v-108h-355zM326 825q-1 -35 -23.5 -55.5t-55.5 -20.5q-35 0 -57.5 21.5t-22.5 57.5q0 42 23 61.5t56 19.5
q36 0 57.5 -21.5t22.5 -62.5zM531 828q0 -36 -22.5 -57.5t-56.5 -21.5t-56.5 21.5t-23.5 60.5q3 75 76 79q15 0 33 -6.5t26 -16.5q24 -30 24 -59z" />
    <glyph glyph-name="uni01D6" unicode="&#x1d6;" 
d="M526 25q-66 -46 -235 -46q-129 0 -184 60t-55 178v324h169v-274q0 -36 0.5 -54t4.5 -41.5t12 -34.5t23 -19t37 -8q33 0 59 8v423h169v-516zM92 791v109h355v-109h-355zM247 667q-1 -34 -24 -55t-56 -21q-35 0 -57 21.5t-22 58.5q0 42 23 61t56 19q36 0 57.5 -21t22.5 -63
zM452 671q0 -36 -23 -58t-56 -22q-34 0 -56.5 22t-23.5 60q1 40 22 59t54 20q15 1 33 -6t26 -17q24 -28 24 -58z" />
    <glyph glyph-name="uni01D7" unicode="&#x1d7;" horiz-adv-x="699" 
d="M390 1021h-119l82 208h201zM599 233q0 -117 -71.5 -187t-200.5 -70q-113 0 -183 56t-81 152q-5 37 -5 96v420h176v-392q0 -103 19 -144.5t78 -41.5q90 0 96 103q2 54 2 83v392h170v-467zM301 872q0 -39 -25.5 -63.5t-62.5 -24.5t-63 24.5t-26 63.5q0 40 26 64.5t63 24.5
t62.5 -24.5t25.5 -64.5zM536 872q0 -39 -25.5 -63.5t-62.5 -24.5t-63 24.5t-26 63.5q0 40 26 64.5t63 24.5t62.5 -24.5t25.5 -64.5z" />
    <glyph glyph-name="uni01D8" unicode="&#x1d8;" 
d="M352 858h-119l82 208h201zM526 25q-66 -46 -235 -46q-129 0 -184 60t-55 178v324h169v-274q0 -36 0.5 -54t4.5 -41.5t12 -34.5t23 -19t37 -8q33 0 59 8v423h169v-516zM263 709q0 -39 -25.5 -63.5t-62.5 -24.5t-63 24.5t-26 63.5q0 40 26 64.5t63 24.5t62.5 -24.5
t25.5 -64.5zM498 709q0 -39 -25.5 -63.5t-62.5 -24.5t-63 24.5t-26 63.5q0 40 26 64.5t63 24.5t62.5 -24.5t25.5 -64.5z" />
    <glyph glyph-name="uni01D9" unicode="&#x1d9;" horiz-adv-x="699" 
d="M224 1273l104 -85l106 85l74 -86l-180 -166l-176 166zM599 233q0 -117 -71.5 -187t-200.5 -70q-113 0 -183 56t-81 152q-5 37 -5 96v420h176v-392q0 -103 19 -144.5t78 -41.5q90 0 96 103q2 54 2 83v392h170v-467zM301 872q0 -39 -25.5 -63.5t-62.5 -24.5t-63 24.5
t-26 63.5q0 40 26 64.5t63 24.5t62.5 -24.5t25.5 -64.5zM536 872q0 -39 -25.5 -63.5t-62.5 -24.5t-63 24.5t-26 63.5q0 40 26 64.5t63 24.5t62.5 -24.5t25.5 -64.5z" />
    <glyph glyph-name="uni01DA" unicode="&#x1da;" 
d="M186 1110l104 -85l106 85l74 -86l-180 -166l-176 166zM526 25q-66 -46 -235 -46q-129 0 -184 60t-55 178v324h169v-274q0 -36 0.5 -54t4.5 -41.5t12 -34.5t23 -19t37 -8q33 0 59 8v423h169v-516zM263 709q0 -39 -25.5 -63.5t-62.5 -24.5t-63 24.5t-26 63.5q0 40 26 64.5
t63 24.5t62.5 -24.5t25.5 -64.5zM498 709q0 -39 -25.5 -63.5t-62.5 -24.5t-63 24.5t-26 63.5q0 40 26 64.5t63 24.5t62.5 -24.5t25.5 -64.5z" />
    <glyph glyph-name="uni01DB" unicode="&#x1db;" horiz-adv-x="699" 
d="M390 1021h-120l-162 208h200zM599 233q0 -117 -71.5 -187t-200.5 -70q-113 0 -183 56t-81 152q-5 37 -5 96v420h176v-392q0 -103 19 -144.5t78 -41.5q90 0 96 103q2 54 2 83v392h170v-467zM301 872q0 -39 -25.5 -63.5t-62.5 -24.5t-63 24.5t-26 63.5q0 40 26 64.5
t63 24.5t62.5 -24.5t25.5 -64.5zM536 872q0 -39 -25.5 -63.5t-62.5 -24.5t-63 24.5t-26 63.5q0 40 26 64.5t63 24.5t62.5 -24.5t25.5 -64.5z" />
    <glyph glyph-name="uni01DC" unicode="&#x1dc;" 
d="M352 858h-120l-162 208h200zM526 25q-66 -46 -235 -46q-129 0 -184 60t-55 178v324h169v-274q0 -36 0.5 -54t4.5 -41.5t12 -34.5t23 -19t37 -8q33 0 59 8v423h169v-516zM263 709q0 -39 -25.5 -63.5t-62.5 -24.5t-63 24.5t-26 63.5q0 40 26 64.5t63 24.5t62.5 -24.5
t25.5 -64.5zM498 709q0 -39 -25.5 -63.5t-62.5 -24.5t-63 24.5t-26 63.5q0 40 26 64.5t63 24.5t62.5 -24.5t25.5 -64.5z" />
    <glyph glyph-name="uni01DD" unicode="&#x1dd;" horiz-adv-x="573" 
d="M546 265q0 -142 -78 -220.5t-187 -78.5q-119 0 -186 73t-67 213q0 6 3 69h337q-22 75 -108 85q-31 2 -59 -1q-57 -5 -118 -32l-24 143q31 16 86.5 29t108.5 13q145 0 218.5 -80.5t73.5 -212.5zM369 191h-174q11 -80 84 -80q36 0 59.5 23t30.5 57z" />
    <glyph glyph-name="uni01DE" unicode="&#x1de;" horiz-adv-x="697" 
d="M668 -11h-139l-49 8l-28 89q-3 9 -7.5 25t-7.5 25h-230l-15 -46l-18 -55t-14 -46h-169q150 447 257 711h162q101 -254 258 -711zM402 261l-59 186q-4 13 -8 29.5l-6.5 26.5t-4.5 13q-2 -3 -3 -7t-2.5 -9.5t-2.5 -8.5q-11 -43 -38 -123.5t-35 -106.5h159zM159 949v108h355
v-108h-355zM314 825q-1 -35 -23.5 -55.5t-55.5 -20.5q-35 0 -57.5 21.5t-22.5 57.5q0 42 23 61.5t56 19.5q36 0 57.5 -21.5t22.5 -62.5zM519 828q0 -36 -22.5 -57.5t-56.5 -21.5t-56.5 21.5t-23.5 60.5q1 40 22.5 59.5t53.5 19.5q34 0 58.5 -24t24.5 -58z" />
    <glyph glyph-name="uni01DF" unicode="&#x1df;" horiz-adv-x="540" 
d="M493 14q-95 -35 -228 -35q-241 0 -241 181q0 173 260 188q24 3 46 3q-2 38 -22 57t-66 19q-70 0 -148 -31l-29 121q94 36 200 36q201 0 223 -166q5 -35 5 -67v-306zM331 102v141q-40 0 -49 -1q-94 -9 -94 -77t86 -68q37 0 57 5zM86 791v109h355v-109h-355zM241 667
q-1 -34 -24 -55t-56 -21q-35 0 -57 21.5t-22 58.5q0 42 23 61t56 19q36 0 57.5 -21t22.5 -63zM446 671q0 -36 -23 -58t-56 -22q-34 0 -56.5 22t-23.5 60q1 40 22 59t54 20q33 2 58 -22.5t25 -58.5z" />
    <glyph glyph-name="uni01E0" unicode="&#x1e0;" horiz-adv-x="697" 
d="M668 -11h-139l-49 8l-28 89q-3 9 -7.5 25t-7.5 25h-230l-15 -46l-18 -55t-14 -46h-169q150 447 257 711h162q101 -254 258 -711zM402 261l-59 186q-4 13 -8 29.5l-6.5 26.5t-4.5 13q-2 -3 -3 -7t-2.5 -9.5t-2.5 -8.5q-11 -43 -38 -123.5t-35 -106.5h159zM174 943v115h300
v-115h-300zM404 829q0 -36 -23 -57.5t-57 -21.5t-56.5 22t-22.5 57q0 37 23 61t58 24q33 0 55.5 -24.5t22.5 -60.5z" />
    <glyph glyph-name="uni01E1" unicode="&#x1e1;" horiz-adv-x="540" 
d="M493 14q-95 -35 -228 -35q-241 0 -241 181q0 173 260 188q24 3 46 3q-2 38 -22 57t-66 19q-70 0 -148 -31l-29 121q94 36 200 36q201 0 223 -166q5 -35 5 -67v-306zM331 102v141q-40 0 -49 -1q-94 -9 -94 -77t86 -68q37 0 57 5zM105 790v114h300v-114h-300zM335 676
q0 -36 -23 -58t-57 -22t-56.5 22.5t-22.5 57.5q0 37 23 60.5t58 23.5q33 0 55.5 -24t22.5 -60z" />
    <glyph glyph-name="uni01E2" unicode="&#x1e2;" horiz-adv-x="970" 
d="M955 -21h-494v172h-206q-74 -133 -92 -172h-190q245 449 452 735h506v-151h-302v-126h267v-149h-267v-158h326v-151zM461 297v202q-52 -76 -98 -152l-31 -50h129zM763 764h-347v130h347v-130z" />
    <glyph glyph-name="uni01E3" unicode="&#x1e3;" horiz-adv-x="868" 
d="M498 332h173q-10 80 -83 80q-36 0 -59.5 -22.5t-30.5 -57.5zM258 -32q-240 0 -240 191q0 96 67.5 140t173.5 44q34 0 69 -7q-3 17 -7 28t-13 23t-26 18t-41 6q-76 0 -153 -27l-22 143q89 31 188 31q116 0 168 -70q63 62 155 68q26 1 55 -2q98 -12 153 -84t55 -198
q0 -11 -1.5 -35.5t-1.5 -34.5h-337q22 -87 128 -87q79 0 157 36l24 -144q-59 -31 -153 -38q-25 -4 -59 -2q-96 3 -162 46q-78 -45 -177 -45zM333 209q-38 5 -55 5q-94 0 -94 -53t81 -53q48 0 87 16q-18 42 -19 85zM593 610h-347v130h347v-130z" />
    <glyph glyph-name="uni01E4" unicode="&#x1e4;" horiz-adv-x="717" 
d="M472 124v60h-102v133h102v80h172v-80h81v-133h-81v-176q-101 -42 -255 -42q-162 0 -259 101t-97 280q0 178 102.5 280.5t258.5 102.5q144 0 247 -64l-53 -143q-91 51 -180 51q-96 0 -147 -59t-51 -168q0 -106 48.5 -167t141.5 -61q50 0 72 5z" />
    <glyph glyph-name="uni01E5" unicode="&#x1e5;" horiz-adv-x="597" 
d="M307 -15q47 5 59 42q-45 -18 -92 -18q-115 0 -181 69t-66 199q0 126 75.5 202.5t206.5 76.5q112 0 225 -35v-175h72v-121h-72v-154q0 -26 -4 -70q-12 -107 -80.5 -158.5t-196.5 -51.5q-95 0 -201 36l30 148q88 -37 173 -37q28 0 40 11t12 36zM368 170v55h-89v121h89v62
q-22 5 -58 5q-55 0 -85 -37.5t-30 -98.5q0 -63 26.5 -94.5t72.5 -31.5q43 0 74 19z" />
    <glyph glyph-name="Gcaron" unicode="&#x1e6;" horiz-adv-x="689" 
d="M601 19q-86 -41 -227 -41q-161 0 -249 98t-88 271q0 167 94 266.5t248 99.5q130 0 218 -52l-53 -127q-53 31 -125 35q-100 7 -151.5 -50t-51.5 -174q0 -110 41 -169.5t117 -59.5q42 0 58 7v151h-72v135h241v-390zM269 1018l104 -85l105 85l75 -86l-180 -166l-176 166z
" />
    <glyph glyph-name="gcaron" unicode="&#x1e7;" horiz-adv-x="588" 
d="M527 26q0 -244 -262 -244q-112 0 -205 38q21 78 37 130q54 -25 114 -31q41 -4 76 9q36 6 55.5 26.5t19.5 49.5v17q-31 -18 -94 -18q-107 0 -171.5 69.5t-64.5 193.5q0 133 74 209.5t209 76.5q126 0 212 -37v-489zM360 138v286q-17 6 -50 6q-108 0 -108 -159
q0 -148 99 -148q33 0 59 15zM200 855l104 -85l105 85l75 -86l-180 -166l-176 166z" />
    <glyph glyph-name="uni01E8" unicode="&#x1e8;" horiz-adv-x="658" 
d="M644 -11h-155q-15 3 -49 5q-94 171 -202 306v-311h-176v711h176v-278q28 31 57.5 70.5t47 65.5l50 76l43.5 66h195q-108 -149 -251 -328q139 -166 264 -383zM216 1015l104 -85l105 85l75 -86l-180 -166l-176 166z" />
    <glyph glyph-name="uni01E9" unicode="&#x1e9;" horiz-adv-x="554" 
d="M572 -11h-191l-41 73t-67.5 112.5t-47.5 55.5v-241h-169v791h169v-441l148 202h188l-199 -246q114 -138 210 -306zM317 855l104 -85l105 85l75 -86l-180 -166l-176 166z" />
    <glyph glyph-name="uni01EA" unicode="&#x1ea;" horiz-adv-x="785" 
d="M576 347q0 105 -49 165.5t-134 60.5q-86 0 -135 -61t-49 -165t49 -165t135 -61q85 0 134 61t49 165zM346 -31q-139 15 -226 113t-87 265q0 180 103.5 281.5t256.5 101.5q155 0 257.5 -101t102.5 -282q0 -219 -156 -323h1q-123 -70 -133 -112q4 -12 28 -9q3 1 12 3
t18.5 4.5t18.5 5.5l15 -126q-57 -22 -109 -22q-111 0 -131 71q-5 30 11 66q-3 32 18 64z" />
    <glyph glyph-name="uni01EB" unicode="&#x1eb;" horiz-adv-x="599" 
d="M442 2q-30 -19 -60.5 -45.5t-33.5 -44.5q4 -12 28 -9q3 1 11.5 3t18 4.5t19.5 5.5l15 -126q-57 -22 -109 -22q-111 0 -131 71q-7 21 -4 47q4 44 43 88q-97 18 -154.5 95.5t-57.5 192.5q0 132 77 214t196 82q120 0 196 -82t76 -214q0 -89 -34 -155.5t-96 -104.5zM403 262
q0 68 -27.5 107t-75.5 39q-49 0 -76.5 -39t-27.5 -107t27.5 -107.5t76.5 -39.5q48 0 75.5 39.5t27.5 107.5z" />
    <glyph glyph-name="uni01EC" unicode="&#x1ec;" horiz-adv-x="785" 
d="M576 347q0 105 -49 165.5t-134 60.5q-86 0 -135 -61t-49 -165t49 -165t135 -61q85 0 134 61t49 165zM346 -31q-139 15 -226 113t-87 265q0 180 103.5 281.5t256.5 101.5q155 0 257.5 -101t102.5 -282q0 -219 -156 -323h1q-123 -68 -133 -112q4 -12 28 -9q3 1 12 3
t18.5 4.5t18.5 5.5l15 -126q-57 -22 -109 -22q-111 0 -131 71q-5 30 11 66q-3 32 18 64zM566 764h-347v130h347v-130z" />
    <glyph glyph-name="uni01ED" unicode="&#x1ed;" horiz-adv-x="599" 
d="M442 2q-26 -15 -58.5 -43.5t-35.5 -46.5q4 -12 28 -9q3 1 11.5 3t18 4.5t19.5 5.5l15 -126q-57 -22 -109 -22q-111 0 -131 71q-7 21 -4 47q4 44 43 88q-97 18 -154.5 95.5t-57.5 192.5q0 132 77 214t196 82q120 0 196 -82t76 -214q0 -89 -34 -155.5t-96 -104.5zM403 262
q0 68 -27.5 107t-75.5 39q-49 0 -76.5 -39t-27.5 -107t27.5 -107.5t76.5 -39.5q48 0 75.5 39.5t27.5 107.5zM473 610h-347v130h347v-130z" />
    <glyph glyph-name="uni01EE" unicode="&#x1ee;" horiz-adv-x="593" 
d="M561 200q0 -119 -83 -177.5t-229 -58.5q-133 0 -252 67l53 144q107 -58 199 -58q136 0 136 85q0 52 -44 72.5t-125 20.5h-57v88l6 21q79 79 146 159h-275v151h508v-106q-51 -68 -170 -197q187 -43 187 -211zM183 970l105 -86l104 86l75 -86l-179 -166l-177 166z" />
    <glyph glyph-name="uni01EF" unicode="&#x1ef;" horiz-adv-x="497" 
d="M103 129v89l5 22q73 81 128 159h-229v145h449v-110q-52 -73 -150 -191q78 -22 125 -74t47 -137q0 -117 -74 -177.5t-207 -60.5q-125 0 -219 47l40 141q89 -39 172 -39q59 0 90 24t31 69q0 93 -141 93h-67zM127 810l105 -85l104 85l75 -86l-179 -166l-177 166z" />
    <glyph glyph-name="uni01F0" unicode="&#x1f0;" horiz-adv-x="273" 
d="M11 -207q-48 0 -104 20l23 143q40 -15 71 -15q30 0 41.5 18t11.5 58v527h166v-529q0 -222 -209 -222zM36 810l105 -85l104 85l75 -86l-179 -166l-177 166z" />
    <glyph glyph-name="uni01F1" unicode="&#x1f1;" horiz-adv-x="1289" 
d="M655 345q0 -172 -97.5 -268t-279.5 -96q-120 0 -215 28v672q100 28 213 28q184 0 281.5 -95t97.5 -269zM239 569v-445q1 0 7 -0.5t16.5 -1t23.5 -0.5q96 0 142.5 55t46.5 170q0 114 -45.5 169t-142.5 55q-13 0 -24 -0.5t-17 -1t-7 -0.5zM1222 701l-11 -104
q-18 -34 -123 -203.5t-154 -265.5h295v-139h-519l12 98q84 182 272 476h-262v138h490z" />
    <glyph glyph-name="uni01F2" unicode="&#x1f2;" horiz-adv-x="1198" 
d="M655 345q0 -172 -97.5 -268t-279.5 -96q-120 0 -215 28v672q100 28 213 28q184 0 281.5 -95t97.5 -269zM239 569v-445q1 0 7 -0.5t16.5 -1t23.5 -0.5q96 0 142.5 55t46.5 170q0 114 -45.5 169t-142.5 55q-13 0 -24 -0.5t-17 -1t-7 -0.5zM1158 538q-8 -66 -11 -99l-22 -27
q-128 -200 -176 -291h213v-132h-431q6 31 19 113q49 98 188 304h-191v132h411z" />
    <glyph glyph-name="uni01F3" unicode="&#x1f3;" horiz-adv-x="1078" 
d="M545 791v-769q-90 -44 -228 -44q-131 0 -208 74.5t-77 210.5q0 130 66.5 207.5t179.5 77.5q56 0 96 -19v247q19 2 54 5l63.5 5.5zM374 115v289q-32 18 -66 18q-104 0 -104 -154q0 -77 30 -118t84 -41q32 0 56 6zM1038 538q-2 -17 -5.5 -50t-5.5 -49q-77 -95 -198 -318
h213v-132h-431l9.5 55t10.5 58q41 84 187 304h-191v132h411z" />
    <glyph glyph-name="uni01F4" unicode="&#x1f4;" horiz-adv-x="689" 
d="M601 19q-86 -41 -227 -41q-161 0 -249 98t-88 271q0 167 94 266.5t248 99.5q130 0 218 -52l-53 -127q-53 31 -125 35q-100 7 -151.5 -50t-51.5 -174q0 -110 41 -169.5t117 -59.5q42 0 58 7v151h-72v135h241v-390zM434 781h-119l81 208h202z" />
    <glyph glyph-name="uni01F5" unicode="&#x1f5;" horiz-adv-x="588" 
d="M527 26q0 -244 -262 -244q-112 0 -205 38q21 78 37 130q54 -25 114 -31q41 -4 76 9q36 6 55.5 26.5t19.5 49.5v17q-31 -18 -94 -18q-107 0 -171.5 69.5t-64.5 193.5q0 133 74 209.5t209 76.5q126 0 212 -37v-489zM360 138v286q-17 6 -50 6q-108 0 -108 -159
q0 -148 99 -148q33 0 59 15zM365 618h-119l81 208h202z" />
    <glyph glyph-name="uni01F6" unicode="&#x1f6;" horiz-adv-x="1057" 
d="M841 263v286h171v-303q0 -64 -12 -112t-41 -87.5t-82 -60.5t-130 -21q-75 0 -128.5 20.5t-82.5 59.5t-42 87.5t-13 111.5v41h-247v-306h-172v735h172v-276h247v276h172v-451q0 -75 22 -109.5t72 -34.5t72 34.5t22 109.5z" />
    <glyph glyph-name="uni01F7" unicode="&#x1f7;" horiz-adv-x="659" 
d="M234 -14v-192h-172v870q150 56 254 56q154 0 236.5 -72t82.5 -209q0 -290 -401 -453zM234 555v-400q109 52 166.5 116.5t57.5 171.5q0 60 -37 92t-104 32q-47 0 -83 -12z" />
    <glyph glyph-name="uni01F8" unicode="&#x1f8;" horiz-adv-x="742" 
d="M636 -11h-104l-38 6q-101 174 -233 371q-7 10 -16.5 27t-16 27t-8.5 10q0 -8 1 -55.5t1 -74.5v-311h-161v711h146q119 -158 232 -333q37 -61 38 -62q0 16 -1 77t-1 93v225h161v-711zM417 761h-120l-163 208h201z" />
    <glyph glyph-name="uni01F9" unicode="&#x1f9;" 
d="M532 -11h-169v277q0 95 -11 121q-16 37 -68 37q-32 0 -60 -7v-428h-170v518q76 45 235 45q78 0 128.5 -18.5t74.5 -57t32 -80t8 -105.5v-302zM350 598h-120l-163 208h201z" />
    <glyph glyph-name="Aringacute" unicode="&#x1fa;" horiz-adv-x="697" 
d="M685 -11h-188l-24 83t-13.5 45.5t-5.5 18.5h-230q-35 -103 -47 -147h-170q155 454 257 711h163q109 -278 258 -711zM419 261l-59 186q-21 68 -21 69q-5 -11 -16 -53q-11 -38 -65 -202h161zM464 846q0 -61 -38 -95.5t-95 -34.5q-55 0 -93.5 35t-38.5 95t38.5 95t93.5 35
q56 0 94.5 -35t38.5 -95zM359 846q0 14 -8 22t-20 8t-20 -8t-8 -22t8 -22t20 -8t20 8t8 22zM367 1253l111 -105l-199 -166l-86 81z" />
    <glyph glyph-name="aringacute" unicode="&#x1fb;" horiz-adv-x="540" 
d="M493 14q-95 -35 -228 -35q-241 0 -241 181q0 173 260 188q24 3 46 3q-2 38 -22 57t-66 19q-70 0 -148 -31l-29 121q94 36 200 36q201 0 223 -166q5 -35 5 -67v-306zM331 102v141q-40 0 -49 -1q-94 -9 -94 -77t86 -68q37 0 57 5zM396 707q0 -61 -38 -95.5t-95 -34.5
q-55 0 -93.5 35t-38.5 95t38.5 95t93.5 35q56 0 94.5 -35t38.5 -95zM291 707q0 14 -8 22t-20 8t-20 -8t-8 -22t8 -22t20 -8t20 8t8 22zM299 1114l111 -105l-199 -166l-86 81z" />
    <glyph glyph-name="AEacute" unicode="&#x1fc;" horiz-adv-x="970" 
d="M955 -21h-494v172h-206q-74 -133 -92 -172h-190q245 449 452 735h506v-151h-302v-126h267v-149h-267v-158h326v-151zM461 297v202q-52 -76 -98 -152l-31 -50h129zM651 980l111 -105l-199 -166l-86 81z" />
    <glyph glyph-name="aeacute" unicode="&#x1fd;" horiz-adv-x="868" 
d="M498 332h173q-10 80 -83 80q-36 0 -59.5 -22.5t-30.5 -57.5zM258 -32q-240 0 -240 191q0 96 67.5 140t173.5 44q34 0 69 -7q-3 17 -7 28t-13 23t-26 18t-41 6q-76 0 -153 -27l-22 143q89 31 188 31q116 0 168 -70q63 62 155 68q26 1 55 -2q98 -12 153 -84t55 -198
q0 -11 -1.5 -35.5t-1.5 -34.5h-337q22 -87 128 -87q79 0 157 36l24 -144q-59 -31 -153 -38q-25 -4 -59 -2q-96 3 -162 46q-78 -45 -177 -45zM333 209q-38 5 -55 5q-94 0 -94 -53t81 -53q48 0 87 16q-18 42 -19 85zM505 821l111 -105l-199 -166l-86 81z" />
    <glyph glyph-name="Oslashacute" unicode="&#x1fe;" horiz-adv-x="785" 
d="M753 347q0 -182 -101.5 -282t-258.5 -100q-103 0 -179 43l-60 -79l-108 80l65 83q-78 94 -78 255q0 180 103.5 281.5t256.5 101.5q97 0 176 -44l61 78l107 -80l-64 -83q80 -101 80 -254zM209 347q0 -57 21 -102l238 310q-30 18 -75 18q-86 0 -135 -61t-49 -165zM576 347
q0 59 -20 102l-240 -310q32 -18 77 -18q85 0 134 61t49 165zM437 980l111 -105l-199 -166l-86 81z" />
    <glyph glyph-name="oslashacute" unicode="&#x1ff;" horiz-adv-x="599" 
d="M572 262q0 -134 -74.5 -215t-197.5 -81q-74 0 -130 31l-48 -64l-96 72l55 70q-54 76 -54 187q0 132 77 214t196 82q72 0 128 -32l49 64l96 -72l-54 -70q53 -74 53 -186zM190 270q9 -17 22 -24l121 157q-25 11 -53 7q-40 -7 -64 -44t-26 -96zM409 254q-6 16 -22 23
l-121 -157q26 -11 54 -7q41 8 64.5 45t24.5 96zM348 821l111 -105l-199 -166l-86 81z" />
    <glyph glyph-name="uni0200" unicode="&#x200;" horiz-adv-x="697" 
d="M681 -11h-141l-49 8l-43 133h-242q-38 -113 -46 -141h-172q157 458 263 712h165q104 -250 265 -712zM329 513q-14 -25 -28 -66t-31.5 -102t-26.5 -88h169l-29.5 94l-31.5 101.5t-22 60.5zM264 918l104 85l144 -203l-89 -68zM56 914l110 89l144 -203l-89 -68z" />
    <glyph glyph-name="uni0201" unicode="&#x201;" horiz-adv-x="540" 
d="M493 14q-95 -35 -228 -35q-241 0 -241 181q0 173 260 188q24 3 46 3q-2 38 -22 57t-66 19q-70 0 -148 -31l-29 121q94 36 200 36q201 0 223 -166q5 -35 5 -67v-306zM331 102v141q-40 0 -49 -1q-94 -9 -94 -77t86 -68q37 0 57 5zM178 764l104 86l144 -203l-89 -69z
M-30 760l109 90l144 -203l-89 -69z" />
    <glyph glyph-name="uni0202" unicode="&#x202;" horiz-adv-x="697" 
d="M681 -11h-141l-49 8l-43 133h-242q-38 -113 -46 -141h-172q157 458 263 712h165q104 -250 265 -712zM329 513q-14 -25 -28 -66t-31.5 -102t-26.5 -88h169l-29.5 94l-31.5 101.5t-22 60.5zM347 933q84 0 127.5 -51.5t43.5 -146.5h-124q-5 72 -47 72t-47 -72h-124
q-2 95 42.5 146.5t128.5 51.5z" />
    <glyph glyph-name="uni0203" unicode="&#x203;" horiz-adv-x="540" 
d="M270 809q84 0 127.5 -51.5t43.5 -146.5h-124q-5 73 -47 73t-47 -73h-124q-2 95 42.5 146.5t128.5 51.5zM493 14q-95 -35 -228 -35q-241 0 -241 181q0 173 260 188q13 1 46 -2q-5 81 -88 81q-70 0 -148 -31l-29 121q94 36 200 36q201 0 223 -166q5 -35 5 -67v-306z
M331 102v141q-40 0 -49 -1q-94 -9 -94 -77t86 -68q37 0 57 5z" />
    <glyph glyph-name="uni0204" unicode="&#x204;" horiz-adv-x="591" 
d="M499 -11h-438v711h425v-135h-248v-142h219v-134h-219v-164h261v-136zM264 918l104 85l144 -203l-89 -68zM56 914l110 89l144 -203l-89 -68z" />
    <glyph glyph-name="uni0205" unicode="&#x205;" horiz-adv-x="573" 
d="M531 228l-328 -22q20 -95 125 -95q82 0 150 32l30 -125q-80 -40 -198 -40q-135 0 -206.5 78.5t-71.5 208.5q0 133 72 210.5t186 77.5q107 0 169.5 -61.5t70.5 -177.5v-26q3 -25 1 -60zM369 325q-5 105 -82 105q-41 0 -65 -31.5t-25 -86.5zM178 764l104 86l144 -203
l-89 -69zM-30 760l109 90l144 -203l-89 -69z" />
    <glyph glyph-name="uni0206" unicode="&#x206;" horiz-adv-x="591" 
d="M518 -11h-455v712h439v-138h-261v-138h230v-136h-230v-161h277v-139zM308 933q84 0 127.5 -51.5t43.5 -146.5h-124q-5 72 -47 72t-47 -72h-124q-2 95 42.5 146.5t128.5 51.5z" />
    <glyph glyph-name="uni0207" unicode="&#x207;" horiz-adv-x="573" 
d="M32 263q0 132 73.5 209.5t187.5 77.5q106 0 168.5 -59.5t72.5 -170.5q3 -20 2 -40q3 -25 1 -60l-331 -14q19 -92 126 -92q83 0 149 31l30 -127q-78 -40 -197 -40q-139 0 -210.5 79t-71.5 206zM200 315l172 7q-5 102 -82 102q-40 0 -64 -30.5t-26 -78.5zM294 774
q84 0 127.5 -51.5t43.5 -146.5h-124q-5 73 -47 73t-47 -73h-124q-2 95 42.5 146.5t128.5 51.5z" />
    <glyph glyph-name="uni0208" unicode="&#x208;" horiz-adv-x="296" 
d="M238 -11h-176v711h176v-711zM67 918l105 85l144 -203l-90 -68zM-141 914l110 89l144 -203l-89 -68z" />
    <glyph glyph-name="uni0209" unicode="&#x209;" horiz-adv-x="273" 
d="M220 544v-565h-166v565h166zM67 764l105 86l144 -203l-90 -69zM-141 760l110 90l144 -203l-89 -69z" />
    <glyph glyph-name="uni020A" unicode="&#x20a;" horiz-adv-x="296" 
d="M63 -11v712h178v-712h-178zM149 966q85 0 128 -51t43 -147h-124q-5 73 -47 73q-43 0 -46 -73h-125q-1 96 43 147t128 51z" />
    <glyph glyph-name="uni020B" unicode="&#x20b;" horiz-adv-x="273" 
d="M220 544v-565h-166v565h166zM138 809q84 0 127.5 -51.5t43.5 -146.5h-124q-5 73 -47 73t-47 -73h-124q-2 95 42.5 146.5t128.5 51.5z" />
    <glyph glyph-name="uni020C" unicode="&#x20c;" horiz-adv-x="785" 
d="M671 345q0 -168 -85 -268t-232 -100t-232 100t-85 268t86 268t231 100q146 0 231.5 -100t85.5 -268zM491 349q0 100 -34.5 164t-102.5 64t-102.5 -64t-34.5 -164q0 -101 34.5 -164.5t102.5 -63.5t102.5 63.5t34.5 164.5zM264 918l104 85l144 -203l-89 -68zM56 914l110 89
l144 -203l-89 -68z" />
    <glyph glyph-name="uni020D" unicode="&#x20d;" horiz-adv-x="599" 
d="M550 266q0 -129 -70 -208.5t-189 -79.5t-189 79.5t-70 208.5q0 128 70.5 207.5t188.5 79.5t188.5 -79.5t70.5 -207.5zM379 267q0 158 -88 158q-45 0 -67 -43t-22 -115q0 -156 89 -156q88 0 88 156zM181 764l104 86l144 -203l-89 -69zM-27 760l109 90l144 -203l-89 -69z
" />
    <glyph glyph-name="uni020E" unicode="&#x20e;" horiz-adv-x="785" 
d="M673 345q0 -168 -85 -268t-232 -100q-146 0 -231.5 100t-85.5 268t86 268t231 100q146 0 231.5 -100t85.5 -268zM493 349q0 100 -34.5 164t-102.5 64t-102.5 -64t-34.5 -164q0 -101 34.5 -164.5t102.5 -63.5t102.5 63.5t34.5 164.5zM336 951q84 0 128.5 -51.5
t42.5 -146.5h-57q-3 39 -31.5 68.5t-82.5 29.5q-53 0 -80.5 -29.5t-30.5 -68.5h-60q-2 95 42.5 146.5t128.5 51.5z" />
    <glyph glyph-name="uni020F" unicode="&#x20f;" horiz-adv-x="599" 
d="M550 266q0 -129 -70 -208.5t-189 -79.5t-189 79.5t-70 208.5q0 128 70.5 207.5t188.5 79.5t188.5 -79.5t70.5 -207.5zM379 267q0 158 -88 158q-45 0 -67 -43t-22 -115q0 -156 89 -156q88 0 88 156zM293 783q84 0 128.5 -51.5t42.5 -146.5h-57q-3 39 -31.5 68.5
t-82.5 29.5q-53 0 -80.5 -29.5t-30.5 -68.5h-60q-2 95 42.5 146.5t128.5 51.5z" />
    <glyph glyph-name="uni0210" unicode="&#x210;" horiz-adv-x="652" 
d="M625 -11h-193q-65 123 -122 221l-44 59h-30v-280h-174v689q102 31 216 31q152 0 229.5 -59t77.5 -171q0 -66 -38 -115.5t-99 -69.5v-1q56 -72 177 -304zM408 474q1 98 -102 106q-7 1 -42 1q-20 -2 -28 -4v-211q18 -2 34 -2q138 0 138 110zM264 918l104 85l144 -203
l-89 -68zM56 914l110 89l144 -203l-89 -68z" />
    <glyph glyph-name="uni0211" unicode="&#x211;" horiz-adv-x="408" 
d="M390 538l-29 -121q-28 4 -54 0q-16 6 -34 6q-28 0 -49 -7v-427h-170v521q96 40 211 41q60 2 125 -13zM178 764l104 86l144 -203l-89 -69zM-30 760l109 90l144 -203l-89 -69z" />
    <glyph glyph-name="uni0212" unicode="&#x212;" horiz-adv-x="652" 
d="M600 477q0 -63 -34.5 -110.5t-89.5 -74.5q66 -84 168 -303h-194q-43 86 -124 231q-28 28 -41 42h-46v-273h-176v692q102 28 218 28q159 0 239 -59.5t80 -172.5zM288 578q-25 0 -49 -2v-211h37q72 0 108.5 25t36.5 83q0 56 -33.5 80.5t-99.5 24.5zM312 933
q84 0 127.5 -51.5t43.5 -146.5h-124q-5 72 -47 72t-47 -72h-124q-2 95 42.5 146.5t128.5 51.5z" />
    <glyph glyph-name="uni0213" unicode="&#x213;" horiz-adv-x="408" 
d="M277 549q64 0 125 -17q-22 -100 -28 -122q-28 4 -58 2q-20 5 -33 5q-30 1 -56 -6v-422h-171v518q97 41 221 42zM240 774q84 0 128 -51.5t43 -146.5h-125q-3 73 -46 73q-42 0 -47 -73h-124q-2 95 42.5 146.5t128.5 51.5z" />
    <glyph glyph-name="uni0214" unicode="&#x214;" horiz-adv-x="699" 
d="M599 233q0 -117 -71.5 -187t-200.5 -70q-113 0 -183 56t-81 152q-5 37 -5 96v420h176v-392q0 -103 19 -144.5t78 -41.5q90 0 96 103q2 54 2 83v392h170v-467zM264 918l104 85l144 -203l-89 -68zM56 914l110 89l144 -203l-89 -68z" />
    <glyph glyph-name="uni0215" unicode="&#x215;" 
d="M526 25q-66 -46 -235 -46q-129 0 -184 60t-55 178v324h169v-274q0 -36 0.5 -54t4.5 -41.5t12 -34.5t23 -19t37 -8q33 0 59 8v423h169v-516zM178 764l104 86l144 -203l-89 -69zM-30 760l109 90l144 -203l-89 -69z" />
    <glyph glyph-name="uni0216" unicode="&#x216;" horiz-adv-x="699" 
d="M336 -24q-278 0 -278 299v426h178v-397q0 -98 22.5 -139t80.5 -41q59 0 81 40.5t22 139.5v397h173v-459q0 -123 -72.5 -194.5t-206.5 -71.5zM350 933q84 0 127.5 -51.5t43.5 -146.5h-124q-5 72 -47 72t-47 -72h-124q-2 95 42.5 146.5t128.5 51.5z" />
    <glyph glyph-name="uni0217" unicode="&#x217;" 
d="M535 538v-515q-67 -44 -239 -44q-128 0 -185.5 59.5t-57.5 177.5v322h170v-269q0 -85 14.5 -120.5t65.5 -35.5q34 0 62 7v418h170zM289 774q84 0 127.5 -51.5t43.5 -146.5h-125q-3 73 -46 73q-42 0 -47 -73h-124q-2 95 42.5 146.5t128.5 51.5z" />
    <glyph glyph-name="Scommaaccent" unicode="&#x218;" horiz-adv-x="562" 
d="M226 122q99 0 99 65q0 16 -6.5 28.5t-15 21.5t-30.5 20t-37.5 18t-51.5 21q-142 65 -150 184q-3 23 1 56q13 83 78.5 131t169.5 48q117 0 203 -51l-47 -129q-71 40 -140 40q-90 0 -90 -59q0 -12 3 -22t14 -19.5l17.5 -15.5t28 -15.5l31 -14t39.5 -16.5q90 -41 129 -89.5
t39 -128.5q0 -101 -71 -159.5t-197 -58.5q-139 0 -225 53l47 138q76 -46 162 -46zM214 -67v35h139q5 -27 6 -39v-20q-1 -71 -42 -104t-104 -35q-7 -1 -25 1q-34 4 -47 10v107q37 0 55 9.5t18 35.5z" />
    <glyph glyph-name="scommaaccent" unicode="&#x219;" horiz-adv-x="468" 
d="M191 111q66 0 66 36q0 19 -20.5 33t-79.5 38q-63 28 -93.5 64.5t-30.5 94.5q0 78 55.5 125.5t149.5 47.5q100 0 174 -36q-7 -20 -19 -60.5l-18 -60.5q-58 28 -114 28q-27 0 -43.5 -9.5t-16.5 -26.5q0 -10 3 -17t12.5 -13.5t18 -10.5l28 -13t34.5 -17q72 -32 102.5 -68.5
t30.5 -95.5q0 -83 -59.5 -128t-168.5 -45q-105 0 -183 39l38 130q68 -35 134 -35zM165 -67v35h139q6 -36 6 -39q1 -14 0 -20q-1 -71 -42 -104t-104 -35q-7 -1 -25 1q-34 4 -47 10v107q37 0 55 9.5t18 35.5z" />
    <glyph glyph-name="uni021A" unicode="&#x21a;" horiz-adv-x="594" 
d="M13 701h529v-139h-176v-573h-177v573h-176v139zM223 -67v35h139q6 -27 6 -39q1 -14 0 -20q-1 -71 -42 -104t-103 -35q-8 -1 -26 1q-34 4 -47 10v107q37 0 55 9.5t18 35.5z" />
    <glyph glyph-name="uni021B" unicode="&#x21b;" horiz-adv-x="427" 
d="M236 700v-162h149v-132h-149v-195q0 -56 14 -77t48 -21q40 0 87 21q9 -77 16 -126q-55 -26 -120 -29q-43 -2 -77.5 5.5t-57 20.5t-39 36t-25 45.5t-13.5 56.5t-6 61t-1 66v136h-36v132h38v127zM176 -67v35h140q6 -36 6 -39v-20q-1 -36 -13 -62.5t-33.5 -41.5t-45 -23
t-54.5 -12q-8 -1 -25 1q-33 4 -47 10v107q36 0 54 9.5t18 35.5z" />
    <glyph glyph-name="uni021C" unicode="&#x21c;" horiz-adv-x="555" 
d="M213 576q-77 0 -164 -47l-60 143q111 58 227 58q113 0 186 -48t88 -145q5 -37 3 -65q-8 -103 -98 -162q62 -32 95.5 -87.5t33.5 -122.5q0 -83 -34 -144t-93.5 -95.5t-131.5 -51t-157 -16.5q-66 0 -110 7l11 155q57 -6 94 -6q163 0 198 81q46 33 43 85q-8 57 -57 82
t-114 25h-78v151h69q69 0 112.5 28t43.5 82q0 44 -28.5 68.5t-78.5 24.5z" />
    <glyph glyph-name="uni021D" unicode="&#x21d;" horiz-adv-x="459" 
d="M170 410q-62 0 -142 -31l-37 143q96 36 180 36q111 0 177.5 -49t66.5 -150q0 -88 -83 -141q105 -51 105 -165q0 -70 -36 -121.5t-99.5 -80.5t-138.5 -43t-164 -15l-10 146q56 2 96 7t86 16.5t70.5 35t24.5 57.5q0 76 -129 76h-44v143q154 0 154 78q0 58 -77 58z" />
    <glyph glyph-name="uni021E" unicode="&#x21e;" horiz-adv-x="721" 
d="M456 426v275h177v-712h-177v298h-215v-298h-178v712h178v-275h215zM256 970l105 -86l104 86l75 -86l-179 -166l-177 166z" />
    <glyph glyph-name="uni021F" unicode="&#x21f;" 
d="M227 -11h-171v787l74 7t97 8v-258q38 13 75 14q74 4 123.5 -13.5t73.5 -56t33 -82.5t9 -107v-299h-171v270q0 91 -15 125t-68 34q-35 0 -60 -9v-420zM375 901l-167 -125l-168 125l58 88l110 -66l108 66z" />
    <glyph glyph-name="uni0220" unicode="&#x220;" horiz-adv-x="692" 
d="M634 420v-626h-171v620q0 84 -34 122.5t-101 38.5q-49 0 -94 -9v-587h-172v697q57 53 277 53q159 0 227 -81.5t68 -227.5z" />
    <glyph glyph-name="uni0221" unicode="&#x221;" horiz-adv-x="759" 
d="M587 20q-23 0 -43 -20v-12q0 -58 44 -58q19 0 29.5 12.5t10.5 31.5t-11 32.5t-30 13.5zM544 801v-660q28 17 63 17q73 0 122 -49t49 -131q0 -88 -53.5 -136t-136.5 -48q-112 0 -161 81l-70 -79l-94 88l50 58q2 4 20 32q-47 -3 -93 4q-100 20 -156.5 93t-56.5 188
q0 137 67.5 216.5t188.5 79.5q49 0 95 -19v238zM378 122v265q-34 20 -77 20q-105 0 -105 -143q0 -69 32 -108.5t89 -39.5q25 0 61 6z" />
    <glyph glyph-name="uni0222" unicode="&#x222;" horiz-adv-x="695" 
d="M347 118q63 0 103 22.5t40 67.5t-38.5 67.5t-104.5 22.5q-65 0 -103.5 -22.5t-38.5 -67.5t39.5 -67.5t102.5 -22.5zM347 -32q-318 0 -318 234q0 57 30 103.5t82 76.5q-66 51 -66 158q0 82 24 174h167q-20 -101 -20 -166q0 -102 101 -102q102 0 102 102q0 65 -20 166h167
q24 -101 24 -174q0 -106 -67 -158q112 -62 112 -180q0 -234 -318 -234z" />
    <glyph glyph-name="uni0223" unicode="&#x223;" horiz-adv-x="595" 
d="M297 115q49 0 76.5 31.5t27.5 88.5t-27.5 90t-76.5 33q-48 0 -76 -33t-28 -90t28 -88.5t76 -31.5zM297 507q78 0 78 112q0 77 -16 178h159q21 -99 21 -182q0 -121 -73 -174q105 -71 105 -210q0 -121 -75 -193t-199 -72q-123 0 -198 72t-75 193q0 139 105 210
q-73 53 -73 174q0 83 21 182h159q-16 -101 -16 -178q0 -112 77 -112z" />
    <glyph glyph-name="uni0224" unicode="&#x224;" horiz-adv-x="595" 
d="M311 -67q29 -9 53 -9q44 0 49 55h-398v106q55 102 150 241.5t175 236.5h-308v151h540v-115q-5 -8 -15 -26q-67 -75 -163 -203.5t-164 -239.5h353v-119q0 -97 -30.5 -149t-103.5 -64q-33 -6 -68 -5q-33 0 -90 18z" />
    <glyph glyph-name="uni0225" unicode="&#x225;" horiz-adv-x="486" 
d="M327 -21h-312v102q73 132 228 318h-215v145h441v-114q-42 -46 -115.5 -136.5t-127.5 -169.5h249v-140q0 -82 -30.5 -128t-97.5 -57q-70 -14 -150 14l27 119q30 -10 63 -10q35 0 40 57z" />
    <glyph glyph-name="uni0226" unicode="&#x226;" horiz-adv-x="697" 
d="M685 -11h-188l-24 83t-13.5 45.5t-5.5 18.5h-230q-35 -103 -47 -147h-170q155 454 257 711h163q109 -278 258 -711zM419 261l-59 186q-21 68 -21 69q-5 -11 -16 -53q-11 -38 -65 -202h161zM320 761q-38 0 -64 25t-26 65q0 41 26 66t64 25q39 0 65 -25t26 -66
q0 -40 -26 -65t-65 -25z" />
    <glyph glyph-name="uni0227" unicode="&#x227;" horiz-adv-x="540" 
d="M493 14q-95 -35 -228 -35q-241 0 -241 181q0 173 260 188q13 1 46 -2q-5 81 -88 81q-70 0 -148 -31l-29 121q94 36 200 36q201 0 223 -166q5 -35 5 -67v-306zM331 102v141q-40 0 -49 -1q-94 -9 -94 -77t86 -68q37 0 57 5zM272 599q-38 0 -64 25t-26 65q0 41 26 66t64 25
q39 0 65 -25t26 -66q0 -40 -26 -65t-65 -25z" />
    <glyph glyph-name="uni0228" unicode="&#x228;" horiz-adv-x="591" 
d="M413 -97q17 -29 10 -61q-29 -74 -139 -74q-48 0 -107 18l24 116q51 -16 76 -16q8 2 3 11q-8 7 -49 22q17 46 24 60h-193v735h490v-151h-318v-126h282v-149h-282v-158h341v-151h-188q28 -28 26 -76z" />
    <glyph glyph-name="uni0229" unicode="&#x229;" horiz-adv-x="573" 
d="M371 -31q22 -28 19 -66q18 -28 13 -55q-11 -37 -47 -58.5t-94 -21.5q-47 0 -108 18l24 116q51 -16 76 -16q8 1 3 11q-7 7 -47 22q8 30 21 58q-102 22 -153 97t-51 185q0 141 78.5 220t186.5 79q119 0 186 -73.5t67 -212.5q0 -11 -1.5 -35.5t-1.5 -34.5h-337
q22 -76 111 -85q21 -2 46 0q67 5 128 34l24 -143q-54 -30 -143 -39zM204 332h173q-10 80 -83 80q-36 0 -59.5 -22.5t-30.5 -57.5z" />
    <glyph glyph-name="uni022A" unicode="&#x22a;" horiz-adv-x="785" 
d="M671 345q0 -168 -85 -268t-232 -100t-232 100t-85 268t86 268t231 100q146 0 231.5 -100t85.5 -268zM491 349q0 100 -34.5 164t-102.5 64t-102.5 -64t-34.5 -164q0 -101 34.5 -164.5t102.5 -63.5t102.5 63.5t34.5 164.5zM175 949v108h355v-108h-355zM330 825
q-1 -35 -23.5 -55.5t-55.5 -20.5q-35 0 -57.5 21.5t-22.5 57.5q0 42 23 61.5t56 19.5q36 0 57.5 -21.5t22.5 -62.5zM536 828q0 -36 -23 -57.5t-57 -21.5t-56.5 21.5t-23.5 60.5q2 40 23.5 59.5t53.5 19.5q33 0 58 -24t25 -58z" />
    <glyph glyph-name="uni022B" unicode="&#x22b;" horiz-adv-x="599" 
d="M550 266q0 -129 -70 -208.5t-189 -79.5t-189 79.5t-70 208.5q0 128 70.5 207.5t188.5 79.5t188.5 -79.5t70.5 -207.5zM379 267q0 158 -88 158q-45 0 -67 -43t-22 -115q0 -156 89 -156q88 0 88 156zM111 791v109h355v-109h-355zM266 667q-1 -34 -23.5 -55t-55.5 -21
q-35 0 -57.5 21.5t-22.5 58.5q0 41 23 60.5t56 19.5q36 0 57.5 -21t22.5 -63zM472 671q0 -36 -23 -58t-57 -22q-33 0 -56 21.5t-24 60.5q2 40 23 59t54 20q33 2 58 -22.5t25 -58.5z" />
    <glyph glyph-name="uni022C" unicode="&#x22c;" horiz-adv-x="785" 
d="M671 345q0 -168 -85 -268t-232 -100t-232 100t-85 268t86 268t231 100q146 0 231.5 -100t85.5 -268zM491 349q0 100 -34.5 164t-102.5 64t-102.5 -64t-34.5 -164q0 -101 34.5 -164.5t102.5 -63.5t102.5 63.5t34.5 164.5zM241 882q44 0 84.5 -19t87.5 -18q63 12 124 39
l14 -36q-16 -40 -47.5 -70t-78.5 -30q-21 0 -60.5 16.5t-58.5 16.5q-7 0 -26 -13.5t-32 -32.5l-79 68q30 58 72 79zM541 912h-320v119h320v-119z" />
    <glyph glyph-name="uni022D" unicode="&#x22d;" horiz-adv-x="599" 
d="M550 266q0 -129 -70 -208.5t-189 -79.5t-189 79.5t-70 208.5q0 128 70.5 207.5t188.5 79.5t188.5 -79.5t70.5 -207.5zM379 267q0 158 -88 158q-45 0 -67 -43t-22 -115q0 -156 89 -156q88 0 88 156zM347 598q-27 0 -68.5 18t-57.5 18q-20 0 -45 -54l-97 62
q18 48 53.5 86.5t83.5 38.5q28 0 69.5 -18.5t56.5 -18.5q19 0 46 54l99 -64q-72 -122 -140 -122zM79 815v109h355v-109h-355z" />
    <glyph glyph-name="uni022E" unicode="&#x22e;" horiz-adv-x="785" 
d="M673 345q0 -168 -85 -268t-232 -100q-146 0 -231.5 100t-85.5 268t86 268t231 100q146 0 231.5 -100t85.5 -268zM493 349q0 100 -34.5 164t-102.5 64t-102.5 -64t-34.5 -164q0 -101 34.5 -164.5t102.5 -63.5t102.5 63.5t34.5 164.5zM353 777q-38 0 -64 25t-26 65
q0 41 26 66t64 25q39 0 65 -25t26 -66q0 -40 -26 -65t-65 -25z" />
    <glyph glyph-name="uni022F" unicode="&#x22f;" horiz-adv-x="599" 
d="M550 266q0 -129 -70 -208.5t-189 -79.5t-189 79.5t-70 208.5q0 128 70.5 207.5t188.5 79.5t188.5 -79.5t70.5 -207.5zM379 267q0 158 -88 158q-45 0 -67 -43t-22 -115q0 -156 89 -156q88 0 88 156zM300 617q-39 0 -65 25t-26 65q0 41 26 66t65 25q38 0 64 -25t26 -66
q0 -40 -26 -65t-64 -25z" />
    <glyph glyph-name="uni0230" unicode="&#x230;" horiz-adv-x="785" 
d="M671 345q0 -168 -85 -268t-232 -100t-232 100t-85 268t86 268t231 100q146 0 231.5 -100t85.5 -268zM491 349q0 100 -34.5 164t-102.5 64t-102.5 -64t-34.5 -164q0 -101 34.5 -164.5t102.5 -63.5t102.5 63.5t34.5 164.5zM203 943v115h299v-115h-299zM432 829
q0 -36 -22.5 -57.5t-56.5 -21.5t-57 22t-23 57q0 37 23 61t58 24q33 0 55.5 -24t22.5 -61z" />
    <glyph glyph-name="uni0231" unicode="&#x231;" horiz-adv-x="599" 
d="M550 266q0 -129 -70 -208.5t-189 -79.5t-189 79.5t-70 208.5q0 128 70.5 207.5t188.5 79.5t188.5 -79.5t70.5 -207.5zM379 267q0 158 -88 158q-45 0 -67 -43t-22 -115q0 -156 89 -156q88 0 88 156zM139 790v114h300v-114h-300zM369 676q0 -36 -23 -58t-57 -22t-56.5 22.5
t-22.5 57.5q0 37 23 60.5t58 23.5q33 0 55.5 -24t22.5 -60z" />
    <glyph glyph-name="uni0232" unicode="&#x232;" horiz-adv-x="633" 
d="M601 700q-105 -214 -221 -425v-286h-175v285q-122 223 -220 426h193q65 -156 120 -265q61 122 123 265h180zM475 785h-347v130h347v-130z" />
    <glyph glyph-name="uni0233" unicode="&#x233;" horiz-adv-x="556" 
d="M543 541q-96 -327 -210 -633q-24 -57 -57.5 -81t-90.5 -24q-42 0 -126 30l34 113q38 -16 54 -16q7 0 13 2t10 5t8 9l6.5 10t5.5 12t4 12t3.5 13t3.5 12q-110 273 -189 536h179q27 -122 70 -271q23 -88 23 -89q1 1 22 89q24 84 71 271h166zM451 610h-347v130h347v-130z
" />
    <glyph glyph-name="uni0234" unicode="&#x234;" horiz-adv-x="463" 
d="M292 20q-23 0 -45 -20v-12q0 -58 45 -58q19 0 29.5 12.5t10.5 31.5t-10.5 32.5t-29.5 13.5zM127 -123l-72 -81l-93 88l121 138q-1 28 -1 82v669l166 27v-658q28 16 64 16q73 0 121.5 -49t48.5 -131q0 -88 -53.5 -136t-136.5 -48q-115 0 -165 83z" />
    <glyph glyph-name="uni0235" unicode="&#x235;" horiz-adv-x="750" 
d="M578 20q-24 0 -44 -20v-12q0 -58 44 -58q19 0 30 13t11 31q0 19 -11 32.5t-30 13.5zM534 295v-154q28 17 64 17q68 0 116 -44t52 -119q3 -34 -5 -69q-15 -64 -64.5 -98t-118.5 -34q-113 0 -165 83l-71 -81l-94 88l121 138v51v203q0 73 -19 102t-68 29q-36 0 -62 -6v-422
h-166v542q122 35 237 35q133 0 188 -67.5t55 -193.5z" />
    <glyph glyph-name="uni0236" unicode="&#x236;" horiz-adv-x="473" 
d="M248 399v-258q28 17 64 17q73 0 121.5 -49t48.5 -131q0 -88 -53.5 -136t-136.5 -48q-115 0 -165 83l-72 -81l-93 88l121 138q-1 20 -1 59v598l166 27v-162h187v-145h-187zM292 19q-23 0 -45 -20v-12q0 -58 45 -58q19 0 29.5 12.5t10.5 31.5q0 20 -10.5 33t-29.5 13z" />
    <glyph glyph-name="uni0237" unicode="&#x237;" horiz-adv-x="273" 
d="M11 -207q-48 0 -104 20l23 143q40 -15 71 -15q30 0 41.5 18t11.5 58v527h166v-529q0 -222 -209 -222z" />
    <glyph glyph-name="uni0238" unicode="&#x238;" horiz-adv-x="922" 
d="M544 387v-267q20 -5 61 -5q57 0 89 40t32 109q0 143 -105 143q-43 0 -77 -20zM544 801v-265q49 19 99 19q120 0 186 -80t66 -214q0 -136 -77.5 -215.5t-211.5 -79.5q-67 0 -145 24q-79 -24 -145 -24q-134 0 -211.5 79t-77.5 214q0 137 67.5 216.5t188.5 79.5q49 0 95 -19
v238zM378 120v267q-34 20 -77 20q-105 0 -105 -143q0 -69 32 -109t89 -40q41 0 61 5z" />
    <glyph glyph-name="uni0239" unicode="&#x239;" horiz-adv-x="922" 
d="M544 402v-266q38 -20 77 -20q105 0 105 142q0 70 -32 109.5t-89 39.5q-41 0 -61 -5zM544 -12v-194h-166v194q-47 -20 -99 -20q-120 0 -186 79t-66 214q0 134 77.5 214.5t211.5 80.5q60 0 144 -26q86 26 146 26q135 0 212 -79.5t77 -215.5q0 -133 -66.5 -213t-185.5 -80
q-52 0 -99 20zM378 136v266q-20 5 -61 5q-57 0 -89 -39.5t-32 -109.5q0 -142 105 -142q39 0 77 20z" />
    <glyph glyph-name="uni023A" unicode="&#x23a;" horiz-adv-x="770" 
d="M505 784l121 -35l-79 -218q28 -65 209 -541h-168l-51 140h-136l-91 -251l-120 40l77 211h-47l-50 -140h-158q171 475 291 725h141q7 -14 19 -46zM260 256h53l86 237q-8 22 -22 53q-72 -162 -117 -290zM448 256h44l-13.5 36.5t-9.5 24.5z" />
    <glyph glyph-name="uni023B" unicode="&#x23b;" horiz-adv-x="651" 
d="M493 811l127 -37l-30 -84l28 -13q5 -1 13.5 -2t14.5 -2t7 -1l-56 -156q-32 18 -57 27l-152 -414q42 -5 79 1q66 10 123 38l49 -143q-39 -25 -105 -42.5t-143 -17.5q-30 0 -57 7l-35 -99l-124 38l33 95q-175 88 -175 341q0 178 103 280.5t261 102.5q34 0 65 -5zM210 349
q0 -116 54 -176l146 397q-26 2 -44 -2q-73 -10 -114.5 -66.5t-41.5 -152.5z" />
    <glyph glyph-name="uni023C" unicode="&#x23c;" horiz-adv-x="502" 
d="M313 -34q-32 0 -56 5l-27 -84l-112 32l29 89q-120 78 -120 253q0 129 76.5 213t205.5 84q4 0 16 -2l26 81l112 -30l-24 -72l56 -21l-38 -141q-39 18 -62 24l-90 -279q18 -3 49 -1q46 5 103 29l27 -145q-82 -35 -171 -35zM150 309q-13 -50 0.5 -104.5t46.5 -81.5l100 315
q-53 5 -94.5 -31t-52.5 -98z" />
    <glyph glyph-name="uni023D" unicode="&#x23d;" horiz-adv-x="557" 
d="M245 132h313v-153h-484v321h-81v136h81v278h171v-278h145v-136h-145v-168z" />
    <glyph glyph-name="uni023E" unicode="&#x23e;" horiz-adv-x="676" 
d="M362 447l41 117h-41v-117zM151 -61l35 269v356h-164v136h433l23 68l162 -37l-294 -841z" />
    <glyph glyph-name="uni023F" unicode="&#x23f;" horiz-adv-x="468" 
d="M343 -64q17 0 72 9l16 -135q-39 -11 -83 -15h-32q-52 1 -92 26t-82 71q-7 8 -23 28t-24.5 29.5l-22.5 24t-28.5 25t-31.5 20.5l49 124q80 -33 152 -33q69 0 69 30q0 16 -17.5 26.5t-68.5 30.5h1q-85 33 -126 71t-41 114q0 82 58.5 128.5t160.5 46.5q93 0 178 -34
l-31 -139q-60 23 -115 28q-25 2 -38 1q-48 -5 -48 -28q0 -16 16.5 -26t63.5 -29h-1q99 -37 136.5 -76.5t37.5 -113.5q0 -125 -138 -152q-21 -6 -49 -6q3 -2 13.5 -11l17.5 -15q22 -20 51 -20z" />
    <glyph glyph-name="uni0240" unicode="&#x240;" horiz-adv-x="486" 
d="M500 -52l17 -138q-36 -10 -69 -13q-32 -3 -53 1q-39 3 -74 22.5t-61.5 45.5l-53.5 52t-62.5 43.5t-77.5 17.5h-51v102q73 132 228 318h-215v145h441v-107q-3 -4 -109 -136t-158 -211q53 -19 114 -80l10.5 -10.5l10.5 -10.5t10.5 -9.5l11 -9.5t10 -8t11 -7.5l10.5 -6
t11.5 -5t11.5 -2.5t12 -1q27 0 75 8z" />
    <glyph glyph-name="uni0241" unicode="&#x241;" horiz-adv-x="497" 
d="M266 183v-204h-171v220q0 46 10.5 80.5t35 62t43 42.5t56.5 41v-1q37 25 53 43t16 47q0 59 -94 59q-43 0 -92.5 -16t-83.5 -36l-57 145q45 25 110 44.5t125 19.5q128 0 197.5 -54.5t69.5 -153.5q0 -72 -28.5 -114.5t-84.5 -82.5q-62 -45 -78 -64q-27 -32 -27 -78z" />
    <glyph glyph-name="uni0242" unicode="&#x242;" horiz-adv-x="437" 
d="M248 106v-127h-166v138q0 63 26 99.5t73 69.5q9 7 30 21.5t28.5 21t15.5 18t8 24.5q0 38 -68 38q-74 0 -159 -48l-53 138q32 20 94.5 39.5t117.5 19.5q112 0 172.5 -48t60.5 -133q0 -60 -25 -97.5t-68 -65.5v1q-55 -38 -69 -57q-18 -23 -18 -52z" />
    <glyph glyph-name="uni0243" unicode="&#x243;" horiz-adv-x="664" 
d="M299 -29q-124 0 -233 24v153h-73v119h73v432q109 22 221 22q316 0 316 -211q0 -86 -68 -133q102 -48 102 -172q0 -234 -338 -234zM344 291l-43 -9v-60l39 -8v-24h-39v-68q44 0 53 1q108 13 108 85q0 42 -29.5 61.5t-88.5 21.5zM235 571v-138h72q64 0 95.5 16t31.5 55
q0 70 -130 70q-45 0 -69 -3z" />
    <glyph glyph-name="uni0244" unicode="&#x244;" horiz-adv-x="734" 
d="M365 -35q-149 0 -221.5 80t-72.5 215v53h-78v135h78v266h172v-266h248v266h171v-266h78v-135h-78v-53q0 -136 -73.5 -215.5t-223.5 -79.5zM366 119q52 0 84.5 31t37.5 94q3 19 3 41v28h-248v-28q0 -17 2 -41q11 -125 121 -125z" />
    <glyph glyph-name="uni0245" unicode="&#x245;" horiz-adv-x="693" 
d="M712 -21h-187q-113 340 -182 506q-59 -143 -181 -506h-181q147 427 290 735h137l31 -39q125 -270 273 -696z" />
    <glyph glyph-name="uni0246" unicode="&#x246;" horiz-adv-x="595" 
d="M582 -21h-281l-43 -111l-116 42l28 69h-108v735h394l33 84l118 -39l-129 -322h44v-149h-100l-63 -158h223v-151zM234 563v-126h114l51 126h-165zM234 288v-111l17 14l40 97h-57z" />
    <glyph glyph-name="uni0247" unicode="&#x247;" horiz-adv-x="582" 
d="M36 262q0 106 49 177.5t119 97t145 12.5l25 79l122 -29l-24 -74q89 -36 116 -90.5t27 -158.5q0 -38 -2 -56l-234 -15l-33 -96q51 -12 106.5 -0.5t107.5 36.5l21 -127q-38 -28 -116 -39t-156 1l-27 -68l-120 19l24 77q-150 52 -150 254zM204 314l76 2l37 124
q-44 3 -72.5 -35t-40.5 -91zM245 205l-55 -3q-5 -57 32 -71zM408 319l55 2q11 76 -20 110z" />
    <glyph glyph-name="uni0248" unicode="&#x248;" horiz-adv-x="536" 
d="M462 714v-282h81v-135h-81v-69q0 -122 -59 -192.5t-201 -70.5q-123 0 -219 69l62 139q88 -55 147 -55q52 0 75.5 27t23.5 91v61h-130v135h130v282h171z" />
    <glyph glyph-name="uni0249" unicode="&#x249;" horiz-adv-x="289" 
d="M18 -207q-49 0 -105 20l23 143q15 -6 47 -13q18 -3 37 -1q24 4 32 24t8 63v188h-89v123h89v204h166v-204h72v-123h-72v-190q0 -120 -50.5 -177t-157.5 -57zM240 676q0 -44 -28.5 -70.5t-69.5 -26.5t-69 26.5t-28 70.5q0 45 28 71.5t69 26.5t69.5 -26.5t28.5 -71.5z" />
    <glyph glyph-name="uni024A" unicode="&#x24a;" horiz-adv-x="805" 
d="M576 347q0 105 -49 165.5t-134 60.5q-86 0 -135 -61t-49 -165t49 -165t135 -61t134.5 59.5t48.5 166.5zM736 -160q-83 11 -120.5 57.5t-38.5 139.5q-74 -72 -191 -72q-150 0 -251.5 101t-101.5 281t103.5 281.5t256.5 101.5q154 0 254.5 -100.5t100.5 -282.5v-343
q0 -65 39 -65q24 0 65 15l23 -143q-38 -13 -68 -16q-59 -2 -71 45z" />
    <glyph glyph-name="uni024B" unicode="&#x24b;" horiz-adv-x="598" 
d="M378 -28q-32 2 -56 9q-18 -13 -43 -13q-120 0 -186 79t-66 214q0 134 77.5 214.5t211.5 80.5q115 0 228 -35v-524q0 -58 32 -58q24 0 64 10l25 -135q-57 -20 -112 -20q-90 0 -131.5 43.5t-43.5 134.5zM378 136v266q-20 5 -61 5q-57 0 -89 -39.5t-32 -109.5
q0 -142 105 -142q39 0 77 20z" />
    <glyph glyph-name="uni024C" unicode="&#x24c;" horiz-adv-x="664" 
d="M321 242q-10 -1 -31 -1h-45v-262h-171v262h-81v145h81v313q107 22 215 22q333 0 333 -244q0 -136 -125 -198q107 -148 179 -300h-190q-98 176 -165 263zM298 569q-11 0 -53 -3v-180h24q93 0 135 18t42 74q0 91 -148 91z" />
    <glyph glyph-name="uni024D" unicode="&#x24d;" horiz-adv-x="414" 
d="M287 555q77 0 142 -26l-31 -144q-49 25 -115 21q-34 -1 -55 -13v-98h135v-123h-135v-193h-166v193h-71v123h71v216q115 44 225 44z" />
    <glyph glyph-name="uni024E" unicode="&#x24e;" horiz-adv-x="711" 
d="M442 -21h-173v284q-63 94 -116 184h-134v135h61q-35 61 -71 132h196q35 -79 64 -132h176q41 77 67 132h189l-72 -132h60v-135h-136q-46 -81 -111 -182v-286zM276 447l78 -105l80 105h-158z" />
    <glyph glyph-name="uni024F" unicode="&#x24f;" horiz-adv-x="607" 
d="M583 244h-96q-59 -167 -107 -270q-44 -95 -91.5 -136t-130.5 -44q-26 -2 -51 3q-43 5 -87 24l30 139q54 -20 89 -20q34 0 54.5 16.5t36.5 54.5q-58 112 -106 233h-102v123h57q-27 73 -55 177h175q24 -99 49 -177h116q9 31 23.5 91t21.5 86h170q-20 -78 -50 -177h54v-123z
M256 212q3 -7 27 -76t30 -80q4 10 14 43.5l21 69.5t13 41q-95 0 -105 2z" />
    <glyph glyph-name="uni0259" unicode="&#x259;" horiz-adv-x="573" 
d="M33 303l328 22q-20 95 -125 95q-82 0 -150 -32l-30 125q80 40 198 40q135 0 206.5 -78.5t71.5 -208.5q0 -133 -72 -210.5t-186 -77.5q-107 0 -169.5 61.5t-70.5 177.5q0 7 -1 36t0 50zM195 206q5 -105 82 -105q41 0 65 31.5t25 86.5z" />
    <glyph glyph-name="uni0292" unicode="&#x292;" horiz-adv-x="497" 
d="M103 129v89l5 22q73 81 128 159h-229v145h449v-110q-52 -73 -150 -191q78 -22 125 -74t47 -137q0 -117 -74 -177.5t-207 -60.5q-125 0 -219 47l40 141q89 -39 172 -39q59 0 90 24t31 69q0 93 -141 93h-67z" />
    <glyph glyph-name="uni02BB" unicode="&#x2bb;" horiz-adv-x="284" 
d="M142 843l67 -33q-40 -71 -40 -112q31 -5 48 -24t16 -44q-2 -60 -65 -75q-54 -11 -87 18q-28 28 -30 62q-4 89 91 208z" />
    <glyph glyph-name="apostrophe" unicode="&#x2bc;" horiz-adv-x="303" 
d="M91 797h140q17 -27 20 -31q-1 -72 -20 -126t-59 -116l-119 37q47 101 47 173q0 26 -9 63z" />
    <glyph glyph-name="circumflex" unicode="&#x2c6;" horiz-adv-x="391" 
d="M196 637l-105 -85l-75 86l180 166l176 -166l-72 -86z" />
    <glyph glyph-name="caron" unicode="&#x2c7;" horiz-adv-x="384" 
d="M92 810l104 -85l105 85l75 -86l-180 -166l-176 166z" />
    <glyph glyph-name="uni02C8" unicode="&#x2c8;" horiz-adv-x="242" 
d="M50 597v276h142v-276h-142z" />
    <glyph glyph-name="uni02C9" unicode="&#x2c9;" horiz-adv-x="376" 
d="M362 610h-347v130h347v-130z" />
    <glyph glyph-name="breve" unicode="&#x2d8;" horiz-adv-x="400" 
d="M200 581q-84 0 -128.5 52t-42.5 147h124q5 -73 47 -73t47 73h124q0 -96 -43.5 -147.5t-127.5 -51.5z" />
    <glyph glyph-name="dotaccent" unicode="&#x2d9;" horiz-adv-x="285" 
d="M142 586q-38 0 -64 25t-26 65q0 41 26 66t64 25q39 0 65 -25t26 -66q0 -40 -26 -65t-65 -25z" />
    <glyph glyph-name="ring" unicode="&#x2da;" horiz-adv-x="340" 
d="M302 692q0 -61 -38 -95.5t-95 -34.5q-55 0 -93.5 35t-38.5 95t38.5 95t93.5 35q56 0 94.5 -35t38.5 -95zM197 692q0 14 -8 22t-20 8t-20 -8t-8 -22t8 -22t20 -8t20 8t8 22z" />
    <glyph glyph-name="ogonek" unicode="&#x2db;" horiz-adv-x="331" 
d="M176 -232q-138 0 -138 106q0 80 114 160h118q-4 -32 -7 -50q-2 -1 -6.5 -3.5t-6.5 -3.5q1 0 3 1l2 1q-1 -1 -12 -11l-20.5 -19t-19 -20t-10.5 -17q3 -12 21 -10q13 1 56 14l15 -126q-57 -22 -109 -22z" />
    <glyph glyph-name="tilde" unicode="&#x2dc;" horiz-adv-x="374" 
d="M254 589q-27 0 -68.5 18t-56.5 18q-21 0 -46 -53l-97 61q18 48 53.5 86.5t83.5 38.5q28 0 69.5 -18t56.5 -18q19 0 46 53l99 -63q-70 -123 -140 -123z" />
    <glyph glyph-name="hungarumlaut" unicode="&#x2dd;" horiz-adv-x="418" 
d="M216 619l144 203l109 -90l-164 -182zM261 737l-159 -187l-88 69l143 204z" />
    <glyph glyph-name="gravecomb" unicode="&#x300;" horiz-adv-x="0" 
d="M-228 576h-120l-163 208h201z" />
    <glyph glyph-name="acutecomb" unicode="&#x301;" horiz-adv-x="0" 
d="M-247 576h-119l82 208h201z" />
    <glyph glyph-name="uni0302" unicode="&#x302;" horiz-adv-x="0" 
d="M-311 665l-105 -85l-75 86l180 166l176 -166l-72 -86z" />
    <glyph glyph-name="tildecomb" unicode="&#x303;" horiz-adv-x="0" 
d="M-265 593q-28 0 -69.5 18t-56.5 18q-19 0 -46 -54l-97 62q18 48 53.5 86.5t83.5 38.5q29 0 70 -18.5t56 -18.5q21 0 46 54l100 -64q-72 -122 -140 -122z" />
    <glyph glyph-name="uni0304" unicode="&#x304;" horiz-adv-x="0" 
d="M-137 610h-347v130h347v-130z" />
    <glyph glyph-name="uni0306" unicode="&#x306;" horiz-adv-x="0" 
d="M-311 613q-84 0 -128.5 51.5t-42.5 146.5h124q5 -73 47 -73t47 73h124q0 -96 -43.5 -147t-127.5 -51z" />
    <glyph glyph-name="uni0307" unicode="&#x307;" horiz-adv-x="0" 
d="M-316 617q-39 0 -65 25t-26 65q0 41 26 66t65 25q38 0 64 -25t26 -66q0 -40 -26 -65t-64 -25z" />
    <glyph glyph-name="uni0308" unicode="&#x308;" horiz-adv-x="0" 
d="M-326 675q0 -40 -26 -64t-63 -24t-63 24t-26 64t26 64.5t63 24.5t63 -24.5t26 -64.5zM-77 675q0 -40 -25.5 -64t-62.5 -24t-63 24t-26 64t26 64.5t63 24.5t62.5 -24.5t25.5 -64.5z" />
    <glyph glyph-name="uni030A" unicode="&#x30a;" horiz-adv-x="0" 
d="M-178 720q0 -61 -38 -95.5t-95 -34.5q-55 0 -93 35t-38 95t38 95t93 35q56 0 94.5 -35t38.5 -95zM-264 720q0 21 -14 35t-33 14q-18 0 -31.5 -14t-13.5 -35q0 -22 13 -35.5t32 -13.5t33 13.5t14 35.5z" />
    <glyph glyph-name="uni030B" unicode="&#x30b;" horiz-adv-x="0" 
d="M-311 647l144 203l109 -90l-164 -182zM-266 765l-159 -187l-88 69l143 204z" />
    <glyph glyph-name="uni030C" unicode="&#x30c;" horiz-adv-x="0" 
d="M-408 845l104 -85l105 85l75 -86l-180 -166l-176 166z" />
    <glyph glyph-name="uni030D" unicode="&#x30d;" horiz-adv-x="0" 
d="M-375 597v276h143v-276h-143z" />
    <glyph glyph-name="uni030E" unicode="&#x30e;" horiz-adv-x="0" 
d="M-452 597v276h143v-276h-143zM-325 597v276h143v-276h-143z" />
    <glyph glyph-name="uni030F" unicode="&#x30f;" horiz-adv-x="0" 
d="M-466 850l144 -203l-89 -69l-165 182zM-209 578l-159 187l104 86l144 -204z" />
    <glyph glyph-name="uni0310" unicode="&#x310;" horiz-adv-x="0" 
d="M-317 662q84 0 128.5 51.5t42.5 146.5h-57q-3 -39 -31.5 -68.5t-82.5 -29.5q-53 0 -80.5 29.5t-30.5 68.5h-60q-2 -95 42.5 -146.5t128.5 -51.5zM-316 811q-38 0 -64.5 25t-26.5 65q0 41 26.5 66t64.5 25t64.5 -25t26.5 -66q0 -40 -26.5 -65t-64.5 -25z" />
    <glyph glyph-name="uni0311" unicode="&#x311;" horiz-adv-x="0" 
d="M-323 783q84 0 128.5 -51.5t42.5 -146.5h-57q-3 39 -31.5 68.5t-82.5 29.5q-53 0 -80.5 -29.5t-30.5 -68.5h-60q-2 95 42.5 146.5t128.5 51.5z" />
    <glyph glyph-name="uni0312" unicode="&#x312;" horiz-adv-x="0" 
d="M-324 864l67 -33q-40 -70 -41 -112q31 -5 48 -23.5t17 -44.5q-2 -60 -65 -75q-54 -11 -87 18q-28 28 -30 62q-5 87 91 208z" />
    <glyph glyph-name="uni0313" unicode="&#x313;" horiz-adv-x="0" 
d="M-343 474l-44 41q46 44 56 81q-35 17 -35 52q0 31 18 50.5t50 19.5q34 0 51.5 -24.5t16.5 -61.5q-5 -81 -113 -158z" />
    <glyph glyph-name="uni0314" unicode="&#x314;" horiz-adv-x="0" 
d="M-229 515l-43 -41q-110 78 -113 158q-2 37 16 61.5t52 24.5q31 0 49 -19.5t18 -50.5q0 -35 -34 -52q10 -36 55 -81z" />
    <glyph glyph-name="uni0320" unicode="&#x320;" horiz-adv-x="0" 
d="M-548 -193v145h507v-145h-507z" />
    <glyph glyph-name="dotbelowcomb" unicode="&#x323;" horiz-adv-x="0" 
d="M-294 -231q-39 0 -65 25t-26 66q0 40 26 65t65 25q38 0 64 -25t26 -65q0 -41 -26 -66t-64 -25z" />
    <glyph glyph-name="uni0324" unicode="&#x324;" horiz-adv-x="0" 
d="M-326 -133q0 -40 -26 -64t-63 -24t-63 24t-26 64t26 64.5t63 24.5t63 -24.5t26 -64.5zM-77 -133q0 -40 -25.5 -64t-62.5 -24t-63 24t-26 64t26 64.5t63 24.5t62.5 -24.5t25.5 -64.5z" />
    <glyph glyph-name="uni0325" unicode="&#x325;" horiz-adv-x="0" 
d="M-178 -189q0 -61 -38 -95.5t-95 -34.5q-55 0 -93 35t-38 95t38 95t93 35q56 0 94.5 -35t38.5 -95zM-264 -189q0 21 -14 35t-33 14q-18 0 -31.5 -14t-13.5 -35q0 -22 13 -35.5t32 -13.5t33 13.5t14 35.5z" />
    <glyph glyph-name="uni0331" unicode="&#x331;" horiz-adv-x="0" 
d="M-122 -176h-347v130h347v-130z" />
    <glyph glyph-name="uni0342" unicode="&#x342;" horiz-adv-x="374" 
d="M254 589q-27 0 -68.5 18t-56.5 18q-21 0 -46 -53l-97 61q18 48 53.5 86.5t83.5 38.5q28 0 69.5 -18t56.5 -18q19 0 46 53l99 -63q-70 -123 -140 -123z" />
    <glyph glyph-name="uni0352" unicode="&#x352;" horiz-adv-x="0" 
d="M-317 992q84 0 128.5 -51.5t42.5 -146.5h-57q-3 39 -31.5 68.5t-82.5 29.5q-53 0 -80.5 -29.5t-30.5 -68.5h-60q-2 95 42.5 146.5t128.5 51.5zM-316 843q-38 0 -64.5 -25t-26.5 -65q0 -41 26.5 -66t64.5 -25t64.5 25t26.5 66q0 40 -26.5 65t-64.5 25z" />
    <glyph glyph-name="tonos" unicode="&#x384;" horiz-adv-x="332" 
d="M144 597h-119l81 208h202z" />
    <glyph glyph-name="dieresistonos" unicode="&#x385;" horiz-adv-x="695" 
d="M242 660l147 213l119 -89l-168 -196zM227 671q0 -40 -25.5 -64.5t-62.5 -24.5t-63 24.5t-26 64.5t26 64.5t63 24.5t62.5 -24.5t25.5 -64.5zM646 671q0 -40 -25.5 -64.5t-62.5 -24.5t-63 24.5t-26 64.5t26 64.5t63 24.5t62.5 -24.5t25.5 -64.5z" />
    <glyph glyph-name="Alphatonos" unicode="&#x386;" horiz-adv-x="743" 
d="M724 -11h-188l-24 83t-13.5 45.5t-5.5 18.5h-230q-35 -103 -47 -147h-170q155 454 257 711h163q109 -278 258 -711zM458 261l-59 186q-21 68 -21 69q-6 -11 -16 -53q-11 -38 -65 -202h161zM124 534h-119l81 208h202z" />
    <glyph glyph-name="anoteleia" unicode="&#x387;" horiz-adv-x="270" 
d="M240 323q0 -45 -29 -72.5t-71 -27.5q-41 0 -70 27.5t-29 71.5t29 72t70 28q42 0 71 -28t29 -71z" />
    <glyph glyph-name="Epsilontonos" unicode="&#x388;" horiz-adv-x="785" 
d="M758 -11h-455v712h439v-138h-261v-138h230v-136h-230v-161h277v-139zM132 542h-119l81 208h202z" />
    <glyph glyph-name="Etatonos" unicode="&#x389;" horiz-adv-x="919" 
d="M696 426v275h177v-712h-177v298h-215v-298h-178v712h178v-275h215zM140 534h-119l81 208h202z" />
    <glyph glyph-name="Iotatonos" unicode="&#x38a;" horiz-adv-x="540" 
d="M313 -11v712h178v-712h-178zM139 534h-119l81 208h202z" />
    <glyph glyph-name="Omicrontonos" unicode="&#x38c;" horiz-adv-x="906" 
d="M859 346q0 -171 -90 -270t-240 -99q-149 0 -239.5 99.5t-90.5 269.5q0 169 91 269t239 100q149 0 239.5 -99.5t90.5 -269.5zM677 349q0 101 -38.5 163.5t-109.5 62.5q-70 0 -109 -62.5t-39 -163.5t39 -163.5t109 -62.5q71 0 109.5 62.5t38.5 163.5zM134 534h-119l81 208
h202z" />
    <glyph glyph-name="Upsilontonos" unicode="&#x38e;" horiz-adv-x="925" 
d="M670 -11h-178v281q-112 197 -227 431h195q60 -143 126 -267q75 141 128 267h184q-113 -230 -228 -429v-283zM136 555h-119l81 208h202z" />
    <glyph glyph-name="Omegatonos" unicode="&#x38f;" horiz-adv-x="851" 
d="M460 730q154 0 253 -93.5t99 -260.5q0 -137 -90 -247h105v-150h-330v125q139 113 139 269q0 96 -47.5 149t-128.5 53t-128 -53t-47 -149q0 -156 138 -269v-125h-330v150h106q-90 109 -90 247q0 166 99 260t252 94zM26 739l150 -41l-89 -246l-122 30z" />
    <glyph glyph-name="iotadieresistonos" unicode="&#x390;" horiz-adv-x="292" 
d="M294 105l-22 -136q-127 0 -174 40.5t-47 140.5v19v375h166v-382q0 -29 16 -41t61 -16zM53 673l147 213l119 -89l-168 -196zM38 684q0 -40 -25.5 -64.5t-62.5 -24.5t-63 24.5t-26 64.5t26 64.5t63 24.5t62.5 -24.5t25.5 -64.5zM457 684q0 -40 -25.5 -64.5t-62.5 -24.5
t-63 24.5t-26 64.5t26 64.5t63 24.5t62.5 -24.5t25.5 -64.5z" />
    <glyph glyph-name="Alpha" unicode="&#x391;" horiz-adv-x="697" 
d="M685 -11h-188l-24 83t-13.5 45.5t-5.5 18.5h-230q-35 -103 -47 -147h-170q155 454 257 711h163q109 -278 258 -711zM419 261l-59 186q-21 68 -21 69q-5 -11 -16 -53q-11 -38 -65 -202h161z" />
    <glyph glyph-name="Beta" unicode="&#x392;" horiz-adv-x="659" 
d="M292 -19q-129 0 -229 29v671q98 28 222 28q144 0 224 -50t80 -151q0 -48 -25 -83.5t-64 -54.5q116 -47 116 -171q0 -218 -324 -218zM300 299q-11 0 -32.5 -0.5t-32.5 -0.5v-183q28 -4 59 -4q143 0 143 95q0 50 -33.5 71.5t-103.5 21.5zM235 579v-162h42q72 0 105.5 17
t33.5 67q0 81 -121 81q-33 0 -60 -3z" />
    <glyph glyph-name="Gamma" unicode="&#x393;" horiz-adv-x="560" 
d="M62 714h485v-152h-313v-583h-172v735z" />
    <glyph glyph-name="uni0394" unicode="&#x394;" horiz-adv-x="674" 
d="M204 130h262q-84 251 -131 357q-60 -146 -131 -357zM693 -21h-683l-3 76q114 349 262 659h135q160 -342 289 -735z" />
    <glyph glyph-name="Epsilon" unicode="&#x395;" horiz-adv-x="591" 
d="M518 -11h-455v712h439v-138h-261v-138h230v-136h-230v-161h277v-139z" />
    <glyph glyph-name="Zeta" unicode="&#x396;" horiz-adv-x="595" 
d="M528 701l-11 -104q-18 -34 -123 -203.5t-154 -265.5h295v-139h-519l13 98q89 194 272 476h-263v138h490z" />
    <glyph glyph-name="Eta" unicode="&#x397;" horiz-adv-x="721" 
d="M456 426v275h177v-712h-177v298h-215v-298h-178v712h178v-275h215z" />
    <glyph glyph-name="Theta" unicode="&#x398;" horiz-adv-x="732" 
d="M470 287h-206v151h206v-151zM697 346q0 -171 -90 -270t-240 -99q-149 0 -239.5 99.5t-90.5 269.5q0 169 91 269t239 100q149 0 239.5 -99.5t90.5 -269.5zM515 349q0 101 -38.5 163.5t-109.5 62.5q-70 0 -109 -62.5t-39 -163.5t39 -163.5t109 -62.5q71 0 109.5 62.5
t38.5 163.5z" />
    <glyph glyph-name="Iota" unicode="&#x399;" horiz-adv-x="296" 
d="M63 -11v712h178v-712h-178z" />
    <glyph glyph-name="Kappa" unicode="&#x39a;" horiz-adv-x="658" 
d="M663 -11h-155q-16 3 -50 5q-94 173 -217 303v-308h-178v712h178v-278q75 76 209 278h199q-117 -155 -263 -328q160 -171 277 -384z" />
    <glyph glyph-name="Lambda" unicode="&#x39b;" horiz-adv-x="693" 
d="M712 -21h-187q-113 340 -182 506q-59 -143 -181 -506h-181q147 427 290 735h137l31 -39q125 -270 273 -696z" />
    <glyph glyph-name="Mu" unicode="&#x39c;" horiz-adv-x="887" 
d="M476 50h-106q-138 353 -148 367q-10 -82 -20 -428h-162q33 485 59 712h121q13 -1 44 -5q17 -37 164 -399q8 16 76 180t97 224h158q26 -227 59 -712h-172q-14 351 -21 428q-17 -28 -149 -367z" />
    <glyph glyph-name="Nu" unicode="&#x39d;" horiz-adv-x="742" 
d="M645 -11h-105l-37 6q-59 102 -154.5 249.5t-124.5 176.5q0 -18 1 -65.5t1 -73.5v-293h-163v712h142q119 -142 232 -314q10 -15 25.5 -40.5t20.5 -32.5q0 21 -1 73.5t-1 80.5v233h164v-712z" />
    <glyph glyph-name="Xi" unicode="&#x39e;" horiz-adv-x="556" 
d="M493 287h-430v151h430v-151zM541 -21h-526v153h526v-153zM20 714h516v-153h-516v153z" />
    <glyph glyph-name="Omicron" unicode="&#x39f;" horiz-adv-x="785" 
d="M697 346q0 -171 -90 -270t-240 -99q-149 0 -239.5 99.5t-90.5 269.5q0 169 91 269t239 100q149 0 239.5 -99.5t90.5 -269.5zM515 349q0 101 -38.5 163.5t-109.5 62.5q-70 0 -109 -62.5t-39 -163.5t39 -163.5t109 -62.5q71 0 109.5 62.5t38.5 163.5z" />
    <glyph glyph-name="Pi" unicode="&#x3a0;" horiz-adv-x="716" 
d="M62 714h592v-735h-171v583h-249v-583h-172v735z" />
    <glyph glyph-name="Rho" unicode="&#x3a1;" horiz-adv-x="628" 
d="M285 709q158 0 236 -61t78 -176q0 -240 -321 -240h-40v-243h-175v692q99 28 222 28zM290 579q-13 0 -52 -3v-213h38q76 0 111.5 24t35.5 86q0 106 -133 106z" />
    <glyph glyph-name="Sigma" unicode="&#x3a3;" horiz-adv-x="582" 
d="M430 353l-92 -103.5t-101 -119.5h326v-151h-551v122q45 56 155 181q5 6 15 20l46 53q-34 44 -106.5 129t-95.5 116v114h536v-151h-298z" />
    <glyph glyph-name="Tau" unicode="&#x3a4;" horiz-adv-x="594" 
d="M13 701h529v-139h-176v-573h-177v573h-176v139z" />
    <glyph glyph-name="Upsilon" unicode="&#x3a5;" horiz-adv-x="633" 
d="M388 -11h-178v281q-112 197 -227 431h195q60 -143 126 -267q75 141 128 267h184q-113 -230 -228 -429v-283z" />
    <glyph glyph-name="Phi" unicode="&#x3a6;" horiz-adv-x="867" 
d="M518 526v-311q68 9 107.5 49.5t39.5 105.5t-39 105.5t-108 50.5zM349 -21v85q-145 10 -232 94t-87 210q0 124 87 209.5t232 100.5v81h169v-81q145 -14 232 -99.5t87 -210.5t-87 -209t-232 -95v-85h-169zM349 215v311q-69 -10 -108 -50.5t-39 -105.5t39.5 -105.5
t107.5 -49.5z" />
    <glyph glyph-name="Chi" unicode="&#x3a7;" horiz-adv-x="655" 
d="M317 499l119 202h189l-210 -334q127 -192 220 -378h-161q-23 5 -44 6q-41 90 -121 223q-89 -143 -128 -229h-190q80 155 219 368l-209 344h200l115 -202h1z" />
    <glyph glyph-name="Psi" unicode="&#x3a8;" horiz-adv-x="832" 
d="M499 -21h-166v172q-146 12 -217 92.5t-71 212.5v258h168v-243q0 -80 29 -120t90 -48v411h168v-411q119 19 119 168v243h168v-258q0 -132 -71 -212.5t-217 -92.5v-172z" />
    <glyph glyph-name="uni03A9" unicode="&#x3a9;" horiz-adv-x="782" 
d="M391 730q154 0 253 -93.5t99 -260.5q0 -135 -90 -247h105v-150h-330v125q139 113 139 269q0 95 -47.5 148.5t-128.5 53.5t-128 -53t-47 -149q0 -158 138 -269v-125h-330v150h106q-90 109 -90 247q0 167 98.5 260.5t252.5 93.5z" />
    <glyph glyph-name="Iotadieresis" unicode="&#x3aa;" horiz-adv-x="296" 
d="M63 -11v712h178v-712h-178zM112 843q0 -40 -26 -64t-63 -24t-63 24t-26 64t26 64.5t63 24.5t63 -24.5t26 -64.5zM361 843q0 -40 -25.5 -64t-62.5 -24t-63 24t-26 64t26 64.5t63 24.5t62.5 -24.5t25.5 -64.5z" />
    <glyph glyph-name="Upsilondieresis" unicode="&#x3ab;" horiz-adv-x="633" 
d="M388 -11h-178v281q-112 197 -227 431h195q60 -143 126 -267q75 141 128 267h184q-113 -230 -228 -429v-283zM281 843q0 -40 -26 -64t-63 -24t-63 24t-26 64t26 64.5t63 24.5t63 -24.5t26 -64.5zM530 843q0 -40 -25.5 -64t-62.5 -24t-63 24t-26 64t26 64.5t63 24.5
t62.5 -24.5t25.5 -64.5z" />
    <glyph glyph-name="alphatonos" unicode="&#x3ac;" horiz-adv-x="612" 
d="M454 22q-66 -54 -170 -54q-123 0 -190 78.5t-67 214.5q0 134 77.5 214.5t210.5 80.5q112 0 222 -36v-343q0 -36 17 -48.5t64 -17.5l-22 -135q-44 -3 -86 12.5t-56 33.5zM372 191v210q-24 6 -55 6q-58 0 -90 -39.5t-32 -109.5q0 -67 26 -105t77 -38q41 0 78 22
q-4 21 -4 54zM357 635h-119l81 208h202z" />
    <glyph glyph-name="epsilontonos" unicode="&#x3ad;" horiz-adv-x="510" 
d="M286 109q48 0 99.5 12.5t80.5 25.5l40 -135q-34 -17 -97 -31.5t-136 -14.5q-49 0 -91 8.5t-79.5 28t-59 56.5t-21.5 89q0 84 71 128q-45 37 -51 91q-3 23 2 48q13 69 77 105.5t167 36.5q49 0 103 -11.5t84 -25.5l-30 -137q-65 28 -131 32q-20 1 -36 0q-67 -5 -67 -38
q0 -40 94 -40h4h81v-134h-84q-22 0 -35.5 -1t-34.5 -5t-31.5 -14.5t-10.5 -27.5q0 -46 92 -46zM312 635h-119l81 208h202z" />
    <glyph glyph-name="etatonos" unicode="&#x3ae;" 
d="M54 -21v526q48 51 237 51q133 0 188 -67.5t55 -193.5v-501h-165v482q0 72 -19 101.5t-68 29.5q-36 0 -62 -6v-422h-166zM332 635h-119l81 208h202z" />
    <glyph glyph-name="iotatonos" unicode="&#x3af;" horiz-adv-x="292" 
d="M294 105l-22 -136q-127 0 -174 40.5t-47 140.5v19v375h166v-382q0 -29 16 -41t61 -16zM189 635h-119l81 208h202z" />
    <glyph glyph-name="upsilondieresistonos" unicode="&#x3b0;" horiz-adv-x="585" 
d="M293 -34q-126 0 -185.5 64.5t-59.5 194.5v319h166v-305q0 -66 18.5 -95t60.5 -29q41 0 59.5 29t18.5 95v305h166v-319q0 -130 -59.5 -194.5t-184.5 -64.5zM182 660l147 213l119 -89l-168 -196zM167 671q0 -40 -25.5 -64.5t-62.5 -24.5t-63 24.5t-26 64.5t26 64.5t63 24.5
t62.5 -24.5t25.5 -64.5zM586 671q0 -40 -25.5 -64.5t-62.5 -24.5t-63 24.5t-26 64.5t26 64.5t63 24.5t62.5 -24.5t25.5 -64.5z" />
    <glyph glyph-name="alpha" unicode="&#x3b1;" horiz-adv-x="612" 
d="M454 22q-66 -54 -170 -54q-123 0 -190 78.5t-67 214.5q0 134 77.5 214.5t210.5 80.5q112 0 222 -36v-343q0 -36 17 -48.5t64 -17.5l-22 -135q-44 -3 -86 12.5t-56 33.5zM372 191v210q-24 6 -55 6q-58 0 -90 -39.5t-32 -109.5q0 -67 26 -105t77 -38q41 0 78 22
q-4 21 -4 54z" />
    <glyph glyph-name="beta" unicode="&#x3b2;" horiz-adv-x="626" 
d="M220 -13v-194h-166v747q0 118 64 187.5t189 69.5q114 0 178.5 -57.5t64.5 -152.5q0 -102 -75 -154q125 -60 125 -207q0 -128 -73 -192.5t-202 -64.5q-49 0 -105 18zM220 538v-398q44 -22 98 -22q52 0 82.5 28t30.5 80q0 113 -135 113h-22v142h18q42 0 67.5 22.5
t25.5 66.5q0 34 -20 55.5t-56 21.5q-89 0 -89 -109z" />
    <glyph glyph-name="gamma" unicode="&#x3b3;" horiz-adv-x="531" 
d="M259 201q33 73 63.5 170t45.5 173h170q-67 -297 -223 -554q11 -64 20 -133v1l9 -64h-148q-3 5 -7.5 14l-8.5 16.5l-8 14.5q-17 120 -52.5 260t-63 225l-73.5 220h175q64 -185 101 -343z" />
    <glyph glyph-name="delta" unicode="&#x3b4;" horiz-adv-x="599" 
d="M298 409q-47 -20 -74.5 -61.5t-27.5 -94.5q0 -63 26.5 -100.5t77.5 -37.5q49 0 76 36.5t27 98.5q0 55 -28 91.5t-77 67.5zM176 492q-57 53 -62 117q-3 28 3 57q13 60 68.5 95.5t142.5 35.5q88 0 196 -44l-39 -138q-73 32 -112 37q-25 4 -57 2q-39 -6 -39 -30
q0 -17 21 -34.5t71 -48.5q49 -30 79 -53t62 -58.5t47 -80.5t15 -102q0 -123 -72.5 -202.5t-199.5 -79.5q-126 0 -199.5 76.5t-73.5 203.5q0 81 40 145t109 102z" />
    <glyph glyph-name="epsilon" unicode="&#x3b5;" horiz-adv-x="510" 
d="M286 109q48 0 99.5 12.5t80.5 25.5l40 -135q-34 -17 -97 -31.5t-136 -14.5q-49 0 -91 8.5t-79.5 28t-59 56.5t-21.5 89q0 84 71 128q-45 37 -51 91q-3 23 2 48q13 69 77 105.5t167 36.5q49 0 103 -11.5t84 -25.5l-30 -137q-65 28 -131 32q-20 1 -36 0q-67 -5 -67 -38
q0 -40 94 -40h4h81v-134h-84q-22 0 -35.5 -1t-34.5 -5t-31.5 -14.5t-10.5 -27.5q0 -46 92 -46z" />
    <glyph glyph-name="zeta" unicode="&#x3b6;" horiz-adv-x="477" 
d="M507 -46q0 -73 -66 -169l-144 50q3 5 9.5 17t9.5 17t8 15t7.5 15.5t5.5 13t4 13.5t1 11q0 22 -19 33.5t-75 25.5q-111 28 -160.5 82t-49.5 162q0 182 223 405h-195v145h423v-124q-33 -30 -35 -32q-46 -42 -79 -76.5t-77 -88t-67.5 -110.5t-23.5 -111q0 -48 24.5 -73
t89.5 -41q105 -29 145.5 -68t40.5 -112z" />
    <glyph glyph-name="eta" unicode="&#x3b7;" 
d="M54 -21v526q48 51 237 51q133 0 188 -67.5t55 -193.5v-501h-165v482q0 72 -19 101.5t-68 29.5q-36 0 -62 -6v-422h-166z" />
    <glyph glyph-name="theta" unicode="&#x3b8;" horiz-adv-x="609" 
d="M305 797q132 0 202.5 -107t70.5 -308q0 -203 -70.5 -310t-202.5 -107t-203.5 107.5t-71.5 309.5q0 201 71.5 308t203.5 107zM305 114q97 0 105 197h-212q8 -197 107 -197zM305 648q-99 0 -107 -192h212q-9 192 -105 192z" />
    <glyph glyph-name="iota" unicode="&#x3b9;" horiz-adv-x="292" 
d="M294 105l-22 -136q-127 0 -174 40.5t-47 140.5v19v375h166v-382q0 -29 16 -41t61 -16z" />
    <glyph glyph-name="kappa" unicode="&#x3ba;" horiz-adv-x="559" 
d="M220 -21h-166v565h166v-176q118 128 157 176h202q-46 -55 -120.5 -135.5t-118.5 -123.5q62 -56 130 -142t112 -164h-189q-79 125 -173 205v-205z" />
    <glyph glyph-name="lambda" unicode="&#x3bb;" horiz-adv-x="530" 
d="M273 330q-70 -166 -117 -351h-171q90 315 210 546q-17 44 -30 64t-34 24q-14 22 -24 28.5t-31 4.5q-17 -2 -47 -14l-30 144q63 21 117 21q74 0 121.5 -35.5t81.5 -112.5q126 -280 230 -670h-159q-23 31 -43.5 94t-40.5 142t-33 115z" />
    <glyph glyph-name="uni03BC" unicode="&#x3bc;" horiz-adv-x="588" 
d="M331 -21q-66 0 -107 26q3 -36 3 -109v-95h-171v737h171v-261q0 -31 0.5 -45t2.5 -39t6.5 -36t13 -24.5t23 -19t33.5 -5.5q41 0 64 7v423h171v-524q-96 -35 -210 -35z" />
    <glyph glyph-name="nu" unicode="&#x3bd;" horiz-adv-x="529" 
d="M269 188q13 25 44.5 140t52.5 210h170q-82 -284 -194 -549h-111q-23 5 -45 6q-111 263 -191 543h181q53 -249 93 -350z" />
    <glyph glyph-name="xi" unicode="&#x3be;" horiz-adv-x="527" 
d="M320 134q105 -29 146 -68t41 -112t-66 -169l-144 50q3 5 9.5 17t9.5 17t8 15t7.5 15.5t5.5 13t4 13.5t1 11q0 22 -19.5 34t-74.5 25q-112 27 -165 78t-53 149q0 128 121 194q-84 54 -84 165q0 100 69.5 157.5t182.5 57.5q87 0 176 -34l-34 -140q-75 28 -131 28
q-50 0 -74 -22.5t-24 -59.5q0 -42 31.5 -63.5t85.5 -21.5h106v-145h-99q-24 0 -47.5 -4t-50 -14.5t-43 -33t-16.5 -55.5q0 -43 28 -62.5t93 -35.5z" />
    <glyph glyph-name="omicron" unicode="&#x3bf;" horiz-adv-x="599" 
d="M561 264q0 -128 -72 -207.5t-192 -79.5q-119 0 -192 79.5t-73 207.5q0 127 73.5 206.5t191.5 79.5q119 0 191.5 -79t72.5 -207zM389 266q0 71 -24 111.5t-68 40.5q-45 0 -69 -40.5t-24 -111.5q0 -72 24 -112.5t69 -40.5q44 0 68 40.5t24 112.5z" />
    <glyph glyph-name="pi" unicode="&#x3c0;" horiz-adv-x="586" 
d="M533 544v-565h-166v420h-147v-420h-166v565h479z" />
    <glyph glyph-name="rho" unicode="&#x3c1;" horiz-adv-x="605" 
d="M318 -32q-54 0 -100 20v-194h-166v498q0 121 67 192.5t187 71.5q133 0 202.5 -76.5t69.5 -218.5q0 -131 -69.5 -212t-190.5 -81zM218 284v-148q32 -20 78 -20q113 0 113 146q0 73 -23.5 109t-76.5 36q-91 0 -91 -123z" />
    <glyph glyph-name="sigma1" unicode="&#x3c2;" horiz-adv-x="485" 
d="M196 265q0 -24 2 -40.5t10.5 -30.5t13.5 -21.5t24 -17t28 -13.5t40 -14.5t46 -16.5q64 -25 90.5 -61t26.5 -96q0 -72 -66 -169l-144 50q3 5 9.5 17t9.5 17t8 15t7.5 15.5t5.5 13t4 13.5t1 11q0 19 -15.5 30.5t-58.5 24.5q-110 30 -160.5 90t-50.5 180q0 131 76.5 213.5
t206.5 82.5q88 0 168 -37l-40 -140q-67 27 -118 27q-60 0 -92 -37.5t-32 -105.5z" />
    <glyph glyph-name="sigma" unicode="&#x3c3;" horiz-adv-x="624" 
d="M568 239q0 -122 -73.5 -197.5t-195.5 -75.5q-121 0 -196.5 78.5t-75.5 208.5q0 142 84 216.5t220 74.5h301v-145h-111q47 -74 47 -160zM401 245q0 100 -56 154h-16q-55 0 -94 -34t-39 -112q0 -65 28 -101.5t75 -36.5q48 0 75 35.5t27 94.5z" />
    <glyph glyph-name="tau" unicode="&#x3c4;" horiz-adv-x="466" 
d="M442 23l-13 -40q-51 -15 -107 -15q-59 0 -98 16t-59.5 48.5t-28.5 73t-8 98.5v195h-136v145h468v-145h-166v-202q0 -65 29 -73q27 -8 89 1q15 -41 30 -102z" />
    <glyph glyph-name="upsilon" unicode="&#x3c5;" horiz-adv-x="585" 
d="M293 -34q-126 0 -185.5 64.5t-59.5 194.5v319h166v-305q0 -66 18.5 -95t60.5 -29q41 0 59.5 29t18.5 95v305h166v-319q0 -130 -59.5 -194.5t-184.5 -64.5z" />
    <glyph glyph-name="phi" unicode="&#x3c6;" horiz-adv-x="780" 
d="M390 558q169 0 266.5 -81.5t97.5 -213.5q0 -118 -75 -195.5t-208 -94.5v-179h-163v179q-132 17 -206.5 95t-74.5 195q0 133 97 214t266 81zM587 263q0 54 -30.5 91.5t-85.5 48.5v-281q56 12 86 49t30 92zM194 263q0 -118 114 -140v279q-55 -11 -84.5 -48t-29.5 -91z" />
    <glyph glyph-name="chi" unicode="&#x3c7;" horiz-adv-x="537" 
d="M267 158q-22 -18 -100 -169h-175q72 132 180 285l-99 152l-74 112h186l90 -146l92 146h173l-174 -257q117 -167 185 -292h-188q-38 79 -96 169z" />
    <glyph glyph-name="psi" unicode="&#x3c8;" horiz-adv-x="798" 
d="M480 -206h-163v177q-138 15 -203.5 93.5t-65.5 201.5v278h165v-268q0 -136 104 -153v421h163v-421q105 17 105 153v268h164v-278q0 -124 -65 -202t-204 -93v-177z" />
    <glyph glyph-name="omega" unicode="&#x3c9;" horiz-adv-x="840" 
d="M337 441h165v-139q0 -112 13 -146q15 -40 53 -40q73 0 73 140q0 121 -96 254l143 51q54 -59 87.5 -141t33.5 -169q0 -147 -62 -214.5t-171 -67.5q-102 0 -156 78q-55 -78 -156 -78q-109 0 -171 67.5t-62 214.5q0 87 33.5 169t86.5 141l143 -51q-95 -131 -95 -254
q0 -140 72 -140q12 0 21.5 3.5t16.5 12t12 17t8 23.5t4.5 26t2.5 31t1 31.5v33.5v8v139z" />
    <glyph glyph-name="iotadieresis" unicode="&#x3ca;" horiz-adv-x="292" 
d="M294 105l-22 -136q-127 0 -174 40.5t-47 140.5v19v375h166v-382q0 -29 16 -41t61 -16zM103 697q0 -39 -25.5 -63.5t-62.5 -24.5t-63 24.5t-26 63.5q0 40 26 64.5t63 24.5t62.5 -24.5t25.5 -64.5zM338 697q0 -39 -25.5 -63.5t-62.5 -24.5t-63 24.5t-26 63.5q0 40 26 64.5
t63 24.5t62.5 -24.5t25.5 -64.5z" />
    <glyph glyph-name="upsilondieresis" unicode="&#x3cb;" horiz-adv-x="585" 
d="M293 -34q-126 0 -185.5 64.5t-59.5 194.5v319h166v-305q0 -66 18.5 -95t60.5 -29q41 0 59.5 29t18.5 95v305h166v-319q0 -130 -59.5 -194.5t-184.5 -64.5zM258 697q0 -39 -25.5 -63.5t-62.5 -24.5t-63 24.5t-26 63.5q0 40 26 64.5t63 24.5t62.5 -24.5t25.5 -64.5z
M493 697q0 -39 -25.5 -63.5t-62.5 -24.5t-63 24.5t-26 63.5q0 40 26 64.5t63 24.5t62.5 -24.5t25.5 -64.5z" />
    <glyph glyph-name="omicrontonos" unicode="&#x3cc;" horiz-adv-x="599" 
d="M561 264q0 -128 -72 -207.5t-192 -79.5q-119 0 -192 79.5t-73 207.5q0 127 73.5 206.5t191.5 79.5q119 0 191.5 -79t72.5 -207zM389 266q0 71 -24 111.5t-68 40.5q-45 0 -69 -40.5t-24 -111.5q0 -72 24 -112.5t69 -40.5q44 0 68 40.5t24 112.5zM351 635h-119l81 208h202z
" />
    <glyph glyph-name="upsilontonos" unicode="&#x3cd;" horiz-adv-x="585" 
d="M293 -34q-126 0 -185.5 64.5t-59.5 194.5v319h166v-305q0 -66 18.5 -95t60.5 -29q41 0 59.5 29t18.5 95v305h166v-319q0 -130 -59.5 -194.5t-184.5 -64.5zM344 635h-119l81 208h202z" />
    <glyph glyph-name="omegatonos" unicode="&#x3ce;" horiz-adv-x="840" 
d="M337 441h165v-139q0 -112 13 -146q15 -40 53 -40q73 0 73 140q0 121 -96 254l143 51q54 -59 87.5 -141t33.5 -169q0 -147 -62 -214.5t-171 -67.5q-102 0 -156 78q-55 -78 -156 -78q-109 0 -171 67.5t-62 214.5q0 87 33.5 169t86.5 141l143 -51q-95 -131 -95 -254
q0 -140 72 -140q12 0 21.5 3.5t16.5 12t12 17t8 23.5t4.5 26t2.5 31t1 31.5v33.5v8v139zM476 635h-119l81 208h202z" />
    <glyph glyph-name="uni0400" unicode="&#x400;" horiz-adv-x="591" 
d="M499 -11h-438v711h425v-135h-248v-142h219v-134h-219v-164h261v-136zM437 744h-120l-163 208h201z" />
    <glyph glyph-name="uni0401" unicode="&#x401;" horiz-adv-x="591" 
d="M499 -11h-438v711h425v-135h-248v-142h219v-134h-219v-164h261v-136zM259 843q0 -40 -26 -64t-63 -24t-63 24t-26 64t26 64.5t63 24.5t63 -24.5t26 -64.5zM508 843q0 -40 -25.5 -64t-62.5 -24t-63 24t-26 64t26 64.5t63 24.5t62.5 -24.5t25.5 -64.5z" />
    <glyph glyph-name="uni0403" unicode="&#x403;" horiz-adv-x="560" 
d="M336 1023l111 -105l-199 -166l-86 81zM231 564v-585h-170v734h474v-149h-304z" />
    <glyph glyph-name="uni0404" unicode="&#x404;" horiz-adv-x="622" 
d="M463 285h-225q20 -140 128 -157q33 -3 81 10q41 2 77 22l48 -130q-87 -53 -204 -53q-147 0 -232.5 100t-85.5 268q0 166 85.5 267.5t231.5 101.5q114 0 203 -51l-45 -127q-48 27 -109 32q-73 6 -119 -33.5t-58 -111.5h224v-138z" />
    <glyph glyph-name="uni0405" unicode="&#x405;" horiz-adv-x="562" 
d="M226 122q99 0 99 65q0 16 -6.5 28.5t-15 21.5t-30.5 20t-37.5 18t-51.5 21q-142 65 -150 184q-3 23 1 56q13 83 78.5 131t169.5 48q117 0 203 -51l-47 -129q-71 40 -140 40q-90 0 -90 -59q0 -12 3 -22t14 -19.5l17.5 -15.5t28 -15.5l31 -14t39.5 -16.5q90 -41 129 -89.5
t39 -128.5q0 -101 -71 -159.5t-197 -58.5q-139 0 -225 53l47 138q76 -46 162 -46z" />
    <glyph glyph-name="uni0406" unicode="&#x406;" horiz-adv-x="296" 
d="M238 -11h-176v711h176v-711z" />
    <glyph glyph-name="uni0407" unicode="&#x407;" horiz-adv-x="296" 
d="M238 -11h-176v711h176v-711zM112 843q0 -40 -26 -64t-63 -24t-63 24t-26 64t26 64.5t63 24.5t63 -24.5t26 -64.5zM361 843q0 -40 -25.5 -64t-62.5 -24t-63 24t-26 64t26 64.5t63 24.5t62.5 -24.5t25.5 -64.5z" />
    <glyph glyph-name="uni0408" unicode="&#x408;" horiz-adv-x="516" 
d="M352 140q0 -237 -222 -259q-73 -6 -156 26q17 77 31 131q71 -21 112 13q60 44 60 158v15v476h175v-560z" />
    <glyph glyph-name="uni040A" unicode="&#x40a;" horiz-adv-x="1014" 
d="M430 15v272h-204v-298h-176v711h176v-277h204v277h172v-246q30 2 47 2q315 -3 315 -241q0 -116 -80.5 -175t-230.5 -59q-125 0 -223 34zM787 218q0 112 -130 112q-39 0 -55 -2v-212q22 -5 53 -5q132 0 132 107z" />
    <glyph glyph-name="uni040C" unicode="&#x40c;" horiz-adv-x="658" 
d="M412 986l111 -105l-199 -166l-86 81zM644 -11h-155q-15 3 -49 5q-94 171 -202 306v-311h-176v711h176v-278q28 31 58 70t47.5 66l49 75.5l43.5 66.5h195l-250 -328q144 -174 263 -383z" />
    <glyph glyph-name="uni040D" unicode="&#x40d;" horiz-adv-x="742" 
d="M204 -21h-142v735h171v-407q67 103 154.5 218t157.5 189h135v-735h-170v456q-161 -198 -306 -456zM220 882q33 43 132 62l133 -170l-90 -46z" />
    <glyph glyph-name="uni040E" unicode="&#x40e;" horiz-adv-x="622" 
d="M327 741q-71 0 -123.5 47.5t-56.5 129.5l122 29q15 -77 58 -77q44 0 57 76l123 -28q-5 -83 -57 -130t-123 -47zM26 -6l28 144q63 -21 103 -20q58 2 91 61q-10 15 -36 60q-100 175 -228 474h188q52 -137 122 -285q5 -12 18.5 -41.5t18.5 -41.5q58 164 118 368h182
q-81 -240 -197 -518q-53 -120 -116 -172.5t-147 -54.5q-64 -1 -145 26z" />
    <glyph glyph-name="uni0410" unicode="&#x410;" horiz-adv-x="698" 
d="M687 0h-180l-51 147h-229l-48 -147h-169q159 464 257 711h163q114 -290 257 -711zM421 271l-58 186q-6 18 -12.5 42t-7.5 28q-6 -21 -7 -26q-12 -43 -39.5 -125.5l-34.5 -104.5h159z" />
    <glyph glyph-name="uni0411" unicode="&#x411;" horiz-adv-x="612" 
d="M36 728h483v-149h-318v-104q32 2 44 2q163 0 248 -58.5t85 -187.5q0 -123 -84.5 -184t-242.5 -61q-105 0 -215 30v712zM406 230q0 100 -165 100q-14 0 -40 -2v-187q27 -5 56 -5q149 0 149 94z" />
    <glyph glyph-name="uni0412" unicode="&#x412;" horiz-adv-x="608" 
d="M578 203q0 -217 -311 -217q-130 0 -230 32v665q98 32 221 32q140 0 217 -50.5t77 -148.5q0 -95 -94 -141q54 -22 87 -66t33 -106zM382 508q0 83 -115 83h-3h-7q-31 -1 -50 -5v-165h43q69 0 100.5 19t31.5 68zM402 209q0 53 -36.5 75.5t-114.5 22.5q-8 0 -22.5 -0.5
t-21.5 -0.5v-187q30 -6 60 -6q135 0 135 96z" />
    <glyph glyph-name="uni0413" unicode="&#x413;" horiz-adv-x="492" 
d="M213 575v-575h-176v711h422v-136h-246z" />
    <glyph glyph-name="uni0414" unicode="&#x414;" horiz-adv-x="817" 
d="M639 -11h-458v-163h-161v292h107l153 582h275l125 -582h118v-294h-159v165zM393 534l-101 -416h216l-89 416q-5 20 -7 38h-12q-2 -16 -7 -38z" />
    <glyph glyph-name="uni0415" unicode="&#x415;" horiz-adv-x="591" 
d="M499 -11h-438v711h425v-135h-248v-142h219v-134h-219v-164h261v-136z" />
    <glyph glyph-name="uni0416" unicode="&#x416;" horiz-adv-x="942" 
d="M195 -11h-197q43 96 115 205t137 175q-123 158 -242 331h195q101 -160 190 -281v281h174v-281q144 206 190 281h196l-242 -331q135 -139 250 -380h-196q-111 194 -198 311v-311h-174v310q-99 -135 -198 -310z" />
    <glyph glyph-name="uni0417" unicode="&#x417;" horiz-adv-x="593" 
d="M535 199q0 -109 -78 -166t-214 -57q-134 0 -234 53l49 127q92 -39 167 -39q62 0 98 27.5t27 75.5q-7 78 -154 78h-68v124h60q66 0 106 21t40 64q0 71 -95 71q-89 0 -157 -38l-48 120q90 53 220 53q116 0 184 -49.5t68 -135.5q0 -51 -27.5 -91t-73.5 -60q130 -48 130 -178
z" />
    <glyph glyph-name="uni0418" unicode="&#x418;" horiz-adv-x="705" 
d="M637 -11h-174v398l2 71q-148 -262 -243 -469h-171v711h176v-380l-3 -76q99 205 249 456h164v-711z" />
    <glyph glyph-name="uni0419" unicode="&#x419;" horiz-adv-x="742" 
d="M433 931l121 -36q-10 -75 -61.5 -118t-123.5 -43q-71 0 -122.5 43.5t-60.5 119.5l122 35q19 -72 62 -72q45 0 63 71zM647 -11h-175v398l3 71q-148 -262 -243 -469h-171v711h175v-380l-3 -76q98 199 249 456h165v-711z" />
    <glyph glyph-name="uni041A" unicode="&#x41a;" horiz-adv-x="658" 
d="M644 -11h-155q-15 3 -49 5q-94 171 -202 306v-311h-176v711h176v-278q28 31 58 70t47.5 66l49 75.5l43.5 66.5h195l-250 -328q144 -174 263 -383z" />
    <glyph glyph-name="uni041B" unicode="&#x41b;" horiz-adv-x="742" 
d="M486 0l-132 437l-9.5 33.5t-8.5 31t-6 17.5q-2 -2 -6 -14.5t-9.5 -34.5t-9.5 -35l-137 -435h-170q136 408 255 711h164q119 -306 255 -711h-186z" />
    <glyph glyph-name="uni041C" unicode="&#x41c;" horiz-adv-x="887" 
d="M802 -11h-170q-21 380 -26 439q-2 -2 -15 -40l-127 -353h-104l-127 353q-11 36 -13 40q-13 -145 -27 -439h-159q36 468 65 711h121q13 -1 44 -5q100 -261 129 -342l9.5 -30.5l9 -28t5.5 -15.5q2 0 6 11t9.5 29.5t9.5 28.5q67 183 136 352h160q26 -219 64 -711z" />
    <glyph glyph-name="uni041D" unicode="&#x41d;" horiz-adv-x="721" 
d="M617 -11h-176v298h-203v-298h-177v711h177v-277h203v277h176v-711z" />
    <glyph glyph-name="uni041E" unicode="&#x41e;" horiz-adv-x="734" 
d="M684 345q0 -168 -85 -268t-232 -100q-146 0 -231.5 100t-85.5 268t86 268t231 100q146 0 231.5 -100t85.5 -268zM504 349q0 100 -34.5 164t-102.5 64t-102.5 -64t-34.5 -164q0 -101 34.5 -164.5t102.5 -63.5t102.5 63.5t34.5 164.5z" />
    <glyph glyph-name="uni041F" unicode="&#x41f;" horiz-adv-x="679" 
d="M629 -21h-170v585h-239v-585h-170v734h579v-734z" />
    <glyph glyph-name="uni0420" unicode="&#x420;" horiz-adv-x="628" 
d="M584 474q0 -117 -80 -178t-238 -60q-5 0 -15 0.5t-16 0.5v-248h-174v689q102 31 219 31q153 0 228.5 -61t75.5 -174zM410 475q0 57 -31.5 82t-94.5 25q-25 0 -49 -4v-213q6 0 15.5 -0.5t14.5 -0.5q76 -2 110.5 23.5t34.5 87.5z" />
    <glyph glyph-name="uni0421" unicode="&#x421;" horiz-adv-x="618" 
d="M568 29q-74 -52 -202 -52q-152 0 -234 101t-82 267q0 162 87 265t233 103q118 0 193 -51l-44 -127q-58 35 -128 35q-59 0 -98.5 -38t-49.5 -108q-13 -53 -9 -104q5 -78 38.5 -130t94.5 -61q24 -4 52 -1q54 3 105 30z" />
    <glyph glyph-name="uni0422" unicode="&#x422;" horiz-adv-x="544" 
d="M524 564h-164v-575h-176v575h-164v136h504v-136z" />
    <glyph glyph-name="uni0423" unicode="&#x423;" horiz-adv-x="622" 
d="M77 -7q0 40 2 116q85 -13 103 11q19 1 29.5 12.5t22.5 37.5l-17 32t-15 27q-95 195 -207 471h184q44 -125 117 -307l15 -43.5t15 -48.5l30 107q17 54 45.5 155t39.5 137h176q-73 -223 -188 -537q-38 -94 -97 -136.5t-143 -46.5q-51 -1 -112 13z" />
    <glyph glyph-name="uni0424" unicode="&#x424;" horiz-adv-x="867" 
d="M506 -33h-167v83q-146 7 -229.5 95.5t-83.5 218.5q0 129 83.5 218.5t229.5 100.5v78h167v-78q146 -11 229.5 -100t83.5 -219q0 -129 -84 -218t-229 -96v-83zM506 545v-359q66 -1 104.5 52.5t38.5 129.5q0 73 -37.5 125.5t-105.5 51.5zM339 186v359q-71 2 -107 -49.5
t-36 -129.5q0 -72 37.5 -126t105.5 -54z" />
    <glyph glyph-name="uni0425" unicode="&#x425;" horiz-adv-x="655" 
d="M619 -11h-161q-23 5 -43 6q-53 116 -114 222q-79 -137 -121 -228h-189q94 178 213 366l-201 345h198l107 -203h1l113 203h185l-202 -334q115 -182 214 -377z" />
    <glyph glyph-name="uni0426" unicode="&#x426;" horiz-adv-x="761" 
d="M615 124h107v-299h-166v164h-495v711h177v-576h201v576h176v-576z" />
    <glyph glyph-name="uni0427" unicode="&#x427;" horiz-adv-x="659" 
d="M575 -11h-175v244q-50 -13 -108 -13q-120 0 -186.5 61.5t-66.5 183.5v235h176v-235q0 -55 24.5 -80t75.5 -25q49 0 85 13v327h175v-711z" />
    <glyph glyph-name="uni0428" unicode="&#x428;" horiz-adv-x="1004" 
d="M907 -11h-846v711h177v-576h158v576h176v-576h158v576h177v-711z" />
    <glyph glyph-name="uni0429" unicode="&#x429;" horiz-adv-x="1048" 
d="M846 -11h-785v711h177v-576h158v576h176v-576h158v576h177v-576h105v-299h-166v164z" />
    <glyph glyph-name="uni042A" unicode="&#x42a;" horiz-adv-x="753" 
d="M-29 700h318v-246q30 2 48 2q315 -3 315 -241q0 -116 -80 -175t-231 -59q-127 0 -223 34v556h-147v129zM475 218q0 112 -131 112q-39 0 -55 -2v-212q23 -5 53 -5q133 0 133 107z" />
    <glyph glyph-name="uni042B" unicode="&#x42b;" horiz-adv-x="895" 
d="M61 700h172v-246q30 2 46 2q312 -3 312 -241q0 -115 -80.5 -174.5t-228.5 -59.5q-122 0 -221 34v685zM414 218q0 104 -116 112q-7 0 -21.5 0.5t-22.5 0.5l-21 -3v-212q22 -5 53 -5q128 0 128 107zM838 -11h-175v711h175v-711z" />
    <glyph glyph-name="uni042C" unicode="&#x42c;" horiz-adv-x="640" 
d="M61 700h172v-246q30 2 48 2q315 -3 315 -241q0 -116 -80.5 -175t-231.5 -59q-125 0 -223 34v685zM419 218q0 112 -131 112q-38 0 -55 -2v-212q22 -5 53 -5q133 0 133 107z" />
    <glyph glyph-name="uni042D" unicode="&#x42d;" horiz-adv-x="658" 
d="M360 285h-225v138h224q-12 72 -58 111.5t-119 33.5q-61 -5 -109 -32l-45 127q88 51 203 51q145 0 231 -101.5t86 -267.5q0 -168 -86 -268t-233 -100q-116 0 -203 53q3 9 20.5 57t27.5 73q36 -20 76 -22q48 -13 82 -10q108 18 128 157z" />
    <glyph glyph-name="uni042E" unicode="&#x42e;" horiz-adv-x="1060" 
d="M943 345q0 -168 -84.5 -268t-227.5 -100q-130 0 -212.5 83.5t-96.5 227.5h-84v-299h-177v711h177v-278h87q19 135 100 213.5t206 78.5q145 0 228.5 -101t83.5 -268zM763 349q0 101 -33 164.5t-99 63.5t-99 -63.5t-33 -164.5q0 -102 32.5 -165t99.5 -63q66 0 99 63t33 165
z" />
    <glyph glyph-name="uni042F" unicode="&#x42f;" horiz-adv-x="666" 
d="M195 -11h-189q92 164 192 308q-19 9 -34 21q-42 18 -71 58.5t-32 92.5q-3 32 6 73q21 80 97.5 123.5t201.5 43.5q109 0 216 -32v-688h-175v275h-43q-7 -10 -23 -29t-23 -29q-65 -104 -123 -217zM235 477q0 -54 32.5 -75t100.5 -21q17 0 39 2v194q-13 3 -29 3q-18 2 -38 0
q-50 -4 -78 -29t-27 -74z" />
    <glyph glyph-name="uni0430" unicode="&#x430;" horiz-adv-x="558" 
d="M508 358v-338q-90 -34 -228 -34q-240 0 -240 181q0 92 68 138t164 49h29q14 0 44 -3q0 42 -20.5 62t-66.5 20q-86 0 -148 -31l-30 121q22 14 78 25t123 11q103 0 165 -49.5t62 -151.5zM347 109v140q-21 2 -49 0q-45 -5 -69.5 -22.5t-24.5 -55.5q0 -68 85 -68q39 0 58 6z
" />
    <glyph glyph-name="uni0431" unicode="&#x431;" horiz-adv-x="595" 
d="M385 249q0 135 -98 135q-47 0 -77 -23l-1 -239q23 -15 75 -15q101 0 101 142zM50 42v443q0 51 13.5 89t50.5 76t112.5 64.5t188.5 41.5q55 6 94 13l9 -128l-102 -19q-119 -24 -156.5 -49t-49.5 -98q49 28 113 28q105 0 168.5 -67t63.5 -182q0 -127 -73.5 -198t-202.5 -71
q-173 0 -229 57z" />
    <glyph glyph-name="uni0432" unicode="&#x432;" horiz-adv-x="589" 
d="M517 569q3 -51 -19 -90t-60 -60q56 -26 83.5 -81t27.5 -117q0 -102 -75 -172t-207 -70q-117 0 -217 34v507q0 68 21.5 117t57.5 73t73.5 34t79.5 10q117 0 174 -52t61 -133zM378 219q0 113 -96 118q-41 0 -62 -11q0 -37 -0.5 -110.5t-0.5 -109.5q9 -3 34 -5q19 0 28 1
q43 2 70 36.5t27 80.5zM218 447q46 9 85 10q1 0 2.5 -0.5t2.5 -0.5q60 13 57 95q0 42 -20 65t-60 22q-62 -3 -65 -79q0 -12 -1 -36t-1 -37v-39z" />
    <glyph glyph-name="uni0433" unicode="&#x433;" horiz-adv-x="488" 
d="M40 145q0 57 30.5 96t102.5 72q55 24 74 37.5t19 36.5q0 18 -16 29t-43 11q-50 0 -110 -29l-36 119q76 36 173 36q94 0 146 -44t52 -116q0 -64 -37.5 -105.5t-110.5 -72.5q-39 -16 -55.5 -30.5t-16.5 -32.5q0 -43 64 -43q66 0 136 34q15 -58 36 -128q-78 -38 -188 -38
q-101 0 -160.5 44.5t-59.5 123.5z" />
    <glyph glyph-name="uni0434" unicode="&#x434;" horiz-adv-x="585" 
d="M535 26q0 -244 -262 -244q-112 0 -205 38q21 78 37 130q54 -25 114 -31q41 -4 76 9q36 6 55.5 26.5t19.5 49.5v17q-31 -18 -94 -18q-107 0 -171.5 69.5t-64.5 193.5q0 133 74 209.5t209 76.5q126 0 212 -37v-489zM368 138v286q-17 6 -50 6q-108 0 -108 -159
q0 -148 99 -148q33 0 59 15z" />
    <glyph glyph-name="uni0435" unicode="&#x435;" horiz-adv-x="580" 
d="M539 228l-328 -22q20 -95 125 -95q82 0 150 32l31 -125q-82 -40 -199 -40q-135 0 -206.5 78.5t-71.5 208.5q0 133 72 210.5t186 77.5q107 0 169.5 -61.5t70.5 -177.5q0 -6 1 -35.5t0 -50.5zM377 325q-5 105 -82 105q-41 0 -64.5 -31.5t-25.5 -86.5z" />
    <glyph glyph-name="uni0436" unicode="&#x436;" horiz-adv-x="812" 
d="M184 -11h-189q93 155 209 300q-113 140 -194 252h185q63 -96 146 -208v447h168v-448l59 71l88 138h182q-87 -128 -192 -252q108 -131 210 -300h-190q-8 12 -37.5 67t-61 103t-58.5 70v-240h-168v238q-21 -20 -45 -53.5t-39 -59l-40.5 -69.5z" />
    <glyph glyph-name="uni0437" unicode="&#x437;" horiz-adv-x="519" 
d="M479 154q0 -85 -63 -131t-168 -46q-132 0 -208 39l34 118q67 -25 124 -27q107 -5 107 52q0 17 -8 28.5t-19 17.5t-29.5 9.5t-31.5 4t-33 0.5h-47v108h48q107 0 107 53q0 39 -52 45q-18 3 -36 2q-58 -2 -115 -25l-31 106q21 22 75 33.5t116 11.5q96 0 153 -38t57 -113
q0 -38 -22.5 -67.5t-54.5 -44.5q46 -15 71.5 -50.5t25.5 -85.5z" />
    </font>
</defs>
</svg>
