<?xml version="1.0" standalone="no"?>
<!DOCTYPE svg PUBLIC "-//W3C//DTD SVG 1.1//EN" "http://www.w3.org/Graphics/SVG/1.1/DTD/svg11.dtd" >
<svg>
<metadata>
Created by FontForge 20090622 at Mon Sep  4 15:03:23 2017
 By deploy user
Copyright (c) 2015 by Context Ltd. All rights reserved.
</metadata>
<defs>
<font id="Repo-DemiBold" horiz-adv-x="592" >
  <font-face 
    font-family="Repo"
    font-weight="600"
    font-stretch="normal"
    units-per-em="1000"
    panose-1="2 0 5 3 4 0 0 2 0 4"
    ascent="800"
    descent="-200"
    x-height="536"
    cap-height="704"
    bbox="-552 -308 1429 1245"
    underline-thickness="120"
    underline-position="-183"
    unicode-range="U+0009-U+FB04"
  />
<missing-glyph horiz-adv-x="550" 
d="M50 0v530h486v-530h-486zM69 74v-2q65 144 202 283q-40 18 -77 25q-72 -123 -125 -306zM348 313q-144 -73 -272 -241q178 125 340 183q-36 38 -68 58zM97 72h420q-9 58 -40 101q-216 -29 -380 -101z" />
    <glyph glyph-name="f_f" unicode="ff" horiz-adv-x="803" 
d="M529 442h-143v-448h-125v424l-52 24l-22 25l52 69l22 16q0 109 35 164.5t125 67.5q59 4 121 -11l-13 -93q-84 16 -113 -19t-30 -125h143v-94zM566 442h-143v-448h-125v424l-52 24l-22 25l52 69l22 16q0 109 35 164.5t125 67.5q59 4 121 -11l-13 -93q-84 16 -113 -19
t-30 -125h143v-94z" />
    <glyph glyph-name="f_i" unicode="fi" horiz-adv-x="653" 
d="M285 789q73 0 123 -26l-24 -106q-45 20 -91 20q-61 0 -81 -32.5t-20 -111.5h198v-109h-198v-437h-125v578q0 109 55 166.5t163 57.5zM586 533v-546h-125v546h125zM601 675q0 -36 -22.5 -57t-55.5 -21t-55.5 21t-22.5 57t22.5 57.5t55.5 21.5t55.5 -21.5t22.5 -57.5z" />
    <glyph glyph-name="f_l" unicode="fl" horiz-adv-x="698" 
d="M285 789q73 0 123 -26l-24 -106q-45 20 -91 20q-61 0 -81 -32.5t-20 -111.5h198v-109h-198v-437h-125v578q0 109 55 166.5t163 57.5zM692 52l-22 -66q-114 6 -157.5 50t-43.5 145v599h126v-551q0 -70 10 -104.5t27.5 -47.5t59.5 -25z" />
    <glyph glyph-name="f_f_i" unicode="ffi" horiz-adv-x="1047" 
d="M285 789q74 0 130 -27l-26 -107q-51 22 -96 22q-61 0 -80.5 -32.5t-20.5 -111.5h198v-109h-198v-437h-125v578q0 109 55 166.5t163 57.5zM679 789q73 0 123 -26l-23 -106q-47 20 -92 20q-61 0 -80.5 -32.5t-20.5 -111.5h198v-109h-198v-437h-125v578q0 109 55 166.5
t163 57.5zM936 634q50 -124 50 -249q0 -71 -7 -127q-25 -23 -62 -23q-22 0 -43 6q-26 130 -26 244q0 62 8 126q32 23 80 23zM989 378q-47 -29 -116 -29q-27 72 -27 152q0 78 27 152h88q28 -143 28 -275z" />
    <glyph glyph-name="f_f_l" unicode="ffl" horiz-adv-x="1112" 
d="M285 789q74 0 130 -27l-26 -107q-51 22 -96 22q-61 0 -80.5 -32.5t-20.5 -111.5h198v-109h-198v-437h-125v578q0 109 55 166.5t163 57.5zM679 789q73 0 123 -26l-23 -106q-47 20 -92 20q-61 0 -80.5 -32.5t-20.5 -111.5h198v-109h-198v-437h-125v578q0 109 55 166.5
t163 57.5zM1080 52l-22 -66q-114 6 -157.5 50t-43.5 145v599h126v-551q0 -70 10 -104.5t27.5 -47.5t59.5 -25z" />
    <glyph glyph-name=".notdef" horiz-adv-x="550" 
d="M50 0v530h486v-530h-486zM69 74v-2q65 144 202 283q-40 18 -77 25q-72 -123 -125 -306zM348 313q-144 -73 -272 -241q178 125 340 183q-36 38 -68 58zM97 72h420q-9 58 -40 101q-216 -29 -380 -101z" />
    <glyph glyph-name=".null" horiz-adv-x="0" 
 />
    <glyph glyph-name=".null" horiz-adv-x="0" 
 />
    <glyph glyph-name="nonmarkingreturn" horiz-adv-x="333" 
 />
    <glyph glyph-name="CR" unicode="&#x9;" horiz-adv-x="233" 
 />
    <glyph glyph-name="space" unicode=" " horiz-adv-x="274" 
 />
    <glyph glyph-name="exclam" unicode="!" horiz-adv-x="248" 
d="M186 759l-3 -276q-1 -57 -10.5 -155.5t-10.5 -110.5h-77q-2 27 -8 79.5t-10 98t-4 88.5l-3 276q30 14 62 14q36 0 64 -14zM198 63q0 -33 -21 -53t-53 -20q-31 0 -52.5 20.5t-21.5 52.5t20.5 53t53.5 21q32 0 53 -20.5t21 -53.5z" />
    <glyph glyph-name="quotedbl" unicode="&#x22;" horiz-adv-x="404" 
d="M173 759q-11 -147 -28 -279h-67q-17 132 -28 279q28 14 61 14q34 0 62 -14zM354 759q-11 -153 -29 -279h-66q-18 145 -28 279q28 14 61 14q34 0 62 -14z" />
    <glyph glyph-name="numbersign" unicode="#" horiz-adv-x="672" 
d="M575 421h-105l-27 -143h114v-83h-128l-37 -201h-93l36 201h-118l-37 -201h-94l37 200h-88v84h103l27 142h-112v84h127l36 192h93q-24 -128 -35 -192h118l11 60.5l13 71.5t12 60h93l-36 -192h90v-83zM377 421h-118l-28 -143h119z" />
    <glyph glyph-name="dollar" unicode="$" horiz-adv-x="566" 
d="M487 194q0 -75 -46.5 -127t-129.5 -65l6 -128h-94q4 85 5 125q-104 4 -169 43l34 96q52 -31 116 -37q22 -3 50 -1q98 9 98 89q0 40 -28 63.5t-92 48.5q-71 29 -113.5 66.5t-49.5 100.5q-3 26 -2 32q3 72 46.5 120.5t122.5 61.5q-1 20 -2.5 59t-2.5 59h92
q-1 -19 -2.5 -57.5t-2.5 -57.5q79 -5 137 -35l-27 -90q-66 31 -132 31q-50 0 -77 -22.5t-27 -63.5q0 -17 7 -31.5t15 -23.5t29 -21t32.5 -17.5t42.5 -18.5q82 -34 123 -81t41 -118z" />
    <glyph glyph-name="percent" unicode="%" horiz-adv-x="866" 
d="M816 201q0 -93 -38 -153.5t-110 -60.5t-110.5 60.5t-37.5 153.5q0 92 38 152t110 60t110 -60t38 -152zM649 744l-355 -820l-101 16l355 820zM344 496q0 -93 -38 -153.5t-110 -60.5q-73 0 -111 60.5t-38 153.5t38 153t111 60q72 0 110 -60t38 -153zM734 201q2 148 -66 148
q-66 0 -66 -148t66 -148t66 148zM262 496q0 149 -66 149q-67 0 -67 -149q0 -148 67 -148q66 0 66 148z" />
    <glyph glyph-name="ampersand" unicode="&#x26;" horiz-adv-x="675" 
d="M39 185q0 128 141 202q-58 61 -64 121q-3 21 -1 44q6 74 54.5 115t125.5 41q82 0 128.5 -44t46.5 -112q0 -106 -137 -188l140 -144q32 58 42 128l94 -9q-19 -107 -64 -182q77 -84 116 -157h-114q-33 48 -64 80q-96 -89 -213 -89q-119 0 -175 58t-56 136zM144 191
q0 -44 32 -77t96 -33q83 0 147 59l-179 187q-44 -24 -70 -54t-26 -82zM371 549q0 32 -20 52t-56 20q-82 0 -82 -83q0 -64 61 -116q97 50 97 127z" />
    <glyph glyph-name="quotesingle" unicode="'" horiz-adv-x="243" 
d="M180 721l-2 -65q-3 -69 -21 -212h-73q-20 135 -22 223q0 8 -1 27t-2 27q22 14 54 14q40 0 67 -14z" />
    <glyph glyph-name="parenleft" unicode="(" horiz-adv-x="329" 
d="M347 -167l-75 -47q-209 242 -209 506q0 265 209 506l75 -46q-156 -214 -156 -460q0 -247 156 -459z" />
    <glyph glyph-name="parenright" unicode=")" horiz-adv-x="329" 
d="M293 292q0 -262 -209 -506l-76 47q156 210 156 459q0 248 -156 460l76 46q209 -242 209 -506z" />
    <glyph glyph-name="asterisk" unicode="*" horiz-adv-x="485" 
d="M188 693h105q0 -80 -17 -150q99 49 139 60l32 -100q-48 -21 -148 -31l23.5 -22.5t29 -28.5t25 -28.5t23.5 -32.5l-83 -62q-30 32 -78 131q-1 -1 -11 -23.5t-14.5 -31l-14 -26t-18.5 -29.5t-18 -22l-85 63q6 10 14 21t21 24.5l20 21t25 24.5l22 21q-100 9 -148 31l31 100
q20 -4 42 -12.5t58 -27l40 -20.5q-20 85 -15 150z" />
    <glyph glyph-name="plus" unicode="+" horiz-adv-x="566" 
d="M499 263h-171v-183h-100v183h-170v100h170v182h100v-182h171v-100z" />
    <glyph glyph-name="comma" unicode="," horiz-adv-x="271" 
d="M210 102q-23 -123 -111 -274l-81 22q37 100 57 227l4 39q79 18 99 18q15 0 24 -8.5t8 -23.5z" />
    <glyph glyph-name="hyphen" unicode="-" horiz-adv-x="342" 
d="M302 259h-262v96h262v-96z" />
    <glyph glyph-name="period" unicode="." horiz-adv-x="261" 
d="M207 63q0 -34 -23 -56t-56 -22t-56 22t-23 56q0 35 22.5 57t56.5 22t56.5 -22t22.5 -57z" />
    <glyph glyph-name="slash" unicode="/" horiz-adv-x="392" 
d="M395 796l102 -19l-409 -990l-102 19z" />
    <glyph glyph-name="zero" unicode="0" horiz-adv-x="566" 
d="M513 345q0 -160 -58.5 -261.5t-176.5 -101.5t-176.5 101.5t-58.5 261.5q0 103 23.5 182.5t77.5 130.5t134 51t134.5 -51t77.5 -130.5t23 -182.5zM388 346q0 268 -110 268t-110 -268q0 -266 110 -266t110 266z" />
    <glyph glyph-name="one" unicode="1" horiz-adv-x="566" 
d="M388 -6h-126v546q-60 -40 -158 -58l-19 56l-3 35q147 32 217 123h89v-702z" />
    <glyph glyph-name="two" unicode="2" horiz-adv-x="566" 
d="M490 -6h-443q3 15 22 57q3 24 14 50t21.5 45t32 47.5t32 41l37 43l31.5 36.5v-1l32 38q64 77 72 136q4 26 -2 51q-10 55 -72 64q-18 5 -42 3q-76 -10 -130 -49l-49 85q90 68 202 68q113 0 170.5 -53.5t57.5 -142.5q0 -51 -28.5 -102t-84.5 -114q-19 -23 -32 -37
q-75 -82 -90 -120q-17 -20 -30 -39h279v-107z" />
    <glyph glyph-name="three" unicode="3" horiz-adv-x="566" 
d="M490 200q0 -99 -69.5 -158.5t-191.5 -59.5q-119 0 -193 40q11 32 31 98q63 -36 150 -36q69 0 105 30.5t36 86.5q0 114 -152 120q-14 1 -46 1v88q37 1 66 9q107 18 107 101q0 45 -29 66.5t-75 21.5q-72 0 -136 -38l-41 88q88 51 188 51q104 0 162 -49t58 -131
q0 -52 -31 -89.5t-74 -56.5v-1q135 -48 135 -182z" />
    <glyph glyph-name="four" unicode="4" horiz-adv-x="566" 
d="M518 153h-67v-159h-121v159h-292v80q122 241 293 463h120v-454h67v-89zM331 552q-14 -15 -46 -70q-82 -126 -141 -240h186v174q0 25 0.5 71.5t0.5 64.5z" />
    <glyph glyph-name="five" unicode="5" horiz-adv-x="566" 
d="M495 202q0 -96 -69 -158t-190 -62q-115 0 -191 39l13.5 44.5l16.5 53.5q68 -35 150 -35q65 0 101.5 31.5t36.5 84.5q0 72 -62.5 107.5t-214.5 24.5q19 171 31 364h353v-107h-254q-6 -104 -13 -165q146 1 219 -58.5t73 -163.5z" />
    <glyph glyph-name="six" unicode="6" horiz-adv-x="566" 
d="M514 209q0 -93 -60 -160t-167 -67q-117 0 -177 76t-60 207q0 105 34.5 188.5t92 135t124 80t139.5 33.5l9.5 -46t10.5 -49q-205 -28 -262 -196q41 17 87 17q107 0 168 -58t61 -161zM390 211q0 131 -122 131q-45 0 -90 -18q-5 -30 -5 -67q2 -180 114 -180q52 0 77.5 39
t25.5 95z" />
    <glyph glyph-name="seven" unicode="7" horiz-adv-x="566" 
d="M517 697l-45 -155q-26 -34 -36 -53q-62 -125 -109 -259t-59 -236h-96l-45 6q36 144 101 302.5t137 285.5h-313v109h465z" />
    <glyph glyph-name="eight" unicode="8" horiz-adv-x="566" 
d="M511 177q0 -87 -63.5 -141t-169.5 -54q-110 0 -174 58.5t-55 147.5q5 99 121 168q-57 35 -82 74.5t-25 90.5q0 82 61 135t154 53q90 0 146.5 -45.5t64.5 -114.5q4 -17 1 -36q-5 -87 -106 -154q127 -73 127 -182zM379 527q0 39 -26.5 66t-73.5 27q-46 0 -72.5 -27
t-26.5 -67q0 -42 23.5 -69.5t88.5 -55.5q46 28 66.5 57t20.5 69zM389 174q0 49 -29 76t-100 61q-53 -29 -74.5 -60.5t-21.5 -75.5q0 -43 31 -71.5t82 -28.5q52 0 82 28t30 71z" />
    <glyph glyph-name="nine" unicode="9" horiz-adv-x="566" 
d="M506 421q0 -105 -33.5 -188.5t-90 -134.5t-125 -78.5t-144.5 -31.5q-1 4 -7 40.5t-11 54.5q207 20 265 197q-45 -18 -89 -18q-107 0 -168 57t-61 160q0 93 60 161t167 68q117 0 177 -77t60 -210zM382 427q0 187 -114 187q-52 0 -77.5 -39t-25.5 -95q0 -130 123 -130
q45 0 90 18q4 25 4 59z" />
    <glyph glyph-name="colon" unicode=":" horiz-adv-x="259" 
d="M207 422q0 -34 -23 -56.5t-56 -22.5t-56 22.5t-23 56.5q0 35 22.5 57t56.5 22t56.5 -22t22.5 -57zM207 63q0 -34 -23 -56t-56 -22t-56 22t-23 56q0 35 22.5 57t56.5 22t56.5 -22t22.5 -57z" />
    <glyph glyph-name="semicolon" unicode=";" horiz-adv-x="255" 
d="M209 422q0 -34 -23 -56.5t-56 -22.5t-56.5 22.5t-23.5 56.5q0 35 23 57t57 22t56.5 -22t22.5 -57zM210 102q-23 -123 -111 -274l-81 22q37 100 57 227l4 39q79 18 99 18q15 0 24 -8.5t8 -23.5z" />
    <glyph glyph-name="less" unicode="&#x3c;" horiz-adv-x="566" 
d="M482 88l-424 181v89l424 181l18 -99l-314 -127l314 -127z" />
    <glyph glyph-name="equal" unicode="=" horiz-adv-x="566" 
d="M499 462v-96h-441v96h441zM499 163h-441v96h441v-96z" />
    <glyph glyph-name="greater" unicode="&#x3e;" horiz-adv-x="566" 
d="M498 269l-424 -181l-18 98l313 127l-313 127l18 99l424 -181v-89z" />
    <glyph glyph-name="question" unicode="?" horiz-adv-x="411" 
d="M385 548q0 -39 -17 -73t-41.5 -59l-49 -49t-42 -54.5t-18.5 -63.5q0 -8 -0.5 -35.5t-0.5 -31.5h-94q-8 42 -8 84q0 34 23 71.5t50.5 65t50.5 61t23 60.5q0 42 -26 67.5t-70 25.5q-54 0 -107 -31l-30 79q24 15 69 27t87 12q97 0 149 -39.5t52 -116.5zM250 63
q0 -32 -21.5 -52.5t-52.5 -20.5t-52.5 20.5t-21.5 52.5t20.5 53t53.5 21q31 0 52.5 -21t21.5 -53z" />
    <glyph glyph-name="at" unicode="@" horiz-adv-x="954" 
d="M845 370q2 -112 -47.5 -201.5t-124.5 -102.5q-48 -5 -76.5 7t-47.5 50q-30 -31 -78 -46.5t-90 -8.5q-56 10 -87.5 58.5t-31.5 122.5q0 59 23.5 115t71.5 95t110 39q59 0 88 -44l7 35l65 -13l-31 -287q-7 -33 7 -52.5t41 -19.5q38 0 66.5 51t39 116t4.5 117
q-12 103 -82.5 168.5t-175.5 65.5q-141 0 -235 -95.5t-109 -245.5q-16 -165 65 -270t250 -105q145 0 232 81q1 -4 9.5 -33l10.5 -36q-91 -89 -252 -89q-135 0 -231 60.5t-138.5 159.5t-33.5 222q12 195 146 317t324 110q134 -8 222 -101.5t89 -239.5zM513 169l20 185
q1 29 -26.5 46t-60.5 13q-85 -13 -100 -134q-5 -49 11.5 -92t56.5 -47q51 -7 99 29z" />
    <glyph glyph-name="A" unicode="A" horiz-adv-x="662" 
d="M646 -6h-139l-56 173h-255q-43 -122 -58 -173h-126q152 442 257 702h119q89 -222 258 -702zM424 260l-74 221q-5 15 -10.5 33.5t-9 29t-6.5 15.5q-4 -9 -15 -46q-14 -45 -44.5 -131.5t-41.5 -121.5h201z" />
    <glyph glyph-name="B" unicode="B" horiz-adv-x="648" 
d="M574 194q0 -104 -76.5 -156.5t-220.5 -52.5q-119 0 -206 30v660q88 30 200 30q129 0 202 -48t73 -141q0 -55 -30 -92.5t-75 -55.5q57 -17 95 -62t38 -112zM419 510q0 102 -142 102h-6h-9q-35 0 -64 -8v-201h54q86 0 126.5 23.5t40.5 83.5zM443 197q0 67 -45.5 93.5
t-143.5 26.5q-10 0 -28 -0.5t-28 -0.5v-227q40 -8 80 -8q165 0 165 116z" />
    <glyph glyph-name="C" unicode="C" horiz-adv-x="608" 
d="M538 27q-67 -45 -187 -45q-141 0 -222.5 99.5t-81.5 263.5q0 160 85 262t221 102q113 0 181 -47l-34 -95q-59 36 -129 36q-63 0 -107 -36t-61 -102q-21 -59 -19 -135q3 -89 37.5 -151.5t99.5 -79.5q28 -9 64 -7q64 2 119 31z" />
    <glyph glyph-name="D" unicode="D" horiz-adv-x="717" 
d="M616 347q0 -170 -90.5 -266t-256.5 -96q-113 0 -198 29v661q88 30 196 30q167 0 258 -93t91 -265zM482 349q0 256 -210 256q-41 0 -71 -7v-503q23 -7 71 -7q210 0 210 261z" />
    <glyph glyph-name="E" unicode="E" horiz-adv-x="576" 
d="M480 -6h-409v702h396v-101h-265v-189h235v-101h-235v-210h278v-101z" />
    <glyph glyph-name="F" unicode="F" horiz-adv-x="543" 
d="M464 595h-262v-191h233v-100h-233v-310h-131v702h393v-101z" />
    <glyph glyph-name="G" unicode="G" horiz-adv-x="676" 
d="M579 21q-78 -39 -212 -39q-147 0 -234 96t-87 269q0 168 91.5 265t234.5 97q120 0 201 -47l-40 -95q-54 32 -137 35q-103 4 -159.5 -62t-56.5 -196q0 -123 50.5 -191.5t139.5 -68.5q58 0 82 12v188h-70v102h197v-365z" />
    <glyph glyph-name="H" unicode="H" horiz-adv-x="710" 
d="M590 -6h-130v311h-258v-311h-131v702h131v-291h258v291h130v-702z" />
    <glyph glyph-name="I" unicode="I" horiz-adv-x="277" 
d="M203 -6h-131v702h131v-702z" />
    <glyph glyph-name="J" unicode="J" horiz-adv-x="505" 
d="M320 131q0 -104 -49 -168t-150 -76q-70 -6 -144 22l25 98q63 -19 108 5q47 19 63.5 62.5t16.5 127.5v38v456h130v-565z" />
    <glyph glyph-name="K" unicode="K" horiz-adv-x="635" 
d="M596 -6h-107l-43 3q-112 182 -243 324v-327h-131v702h131v-296q95 104 233 296h146l-268 -326q164 -178 282 -376z" />
    <glyph glyph-name="L" unicode="L" horiz-adv-x="528" 
d="M456 -6h-384v702h131v-601h253v-101z" />
    <glyph glyph-name="M" unicode="M" horiz-adv-x="878" 
d="M785 -6h-127q-24 382 -36 509q-2 -2 -17 -47l-150 -415h-85q-24 74 -83 236.5l-65 178.5q-3 8 -7 20t-6.5 18.5t-3.5 8.5q-14 -149 -37 -509h-119q44 516 66 702h125q100 -258 153 -410q6 -17 13.5 -42t9.5 -30q2 0 5.5 10.5t9 29.5t9.5 29q89 245 159 413h120
q29 -244 66 -702z" />
    <glyph glyph-name="N" unicode="N" horiz-adv-x="729" 
d="M618 -6h-75l-34 3q-111 194 -277 441q-7 11 -17.5 29t-17 28t-8.5 10q0 -12 1 -79.5t1 -104.5v-327h-120v702h113q157 -215 278 -412q7 -11 15.5 -26.5t14 -24.5t8.5 -12q0 23 -1 108.5t-1 128.5v238h120v-702z" />
    <glyph glyph-name="O" unicode="O" horiz-adv-x="701" 
d="M653 345q0 -167 -81 -265t-222 -98q-140 0 -221.5 98.5t-81.5 264.5t82 265t221 99q140 0 221.5 -99t81.5 -265zM520 348q0 114 -43 186.5t-127 72.5t-126.5 -72.5t-42.5 -186.5q0 -115 42.5 -187.5t126.5 -72.5q85 0 127.5 72.5t42.5 187.5z" />
    <glyph glyph-name="P" unicode="P" horiz-adv-x="614" 
d="M553 480q0 -112 -78 -170.5t-230 -54.5h-45v-261h-129v681q88 30 197 30q142 0 213.5 -59t71.5 -166zM423 481q0 129 -153 129q-27 0 -70 -8v-251h42q93 -4 137 27t44 103z" />
    <glyph glyph-name="Q" unicode="Q" horiz-adv-x="781" 
d="M652 346q0 -125 -49.5 -213t-138.5 -126q34 -55 159 -109l-62 -96q-164 70 -204 186q-33 -3 -72 6q-115 16 -177 110.5t-62 241.5q0 165 82 264t221 99q140 0 221.5 -99t81.5 -264zM519 348q0 115 -42.5 187t-127.5 72q-84 0 -126.5 -72.5t-42.5 -186.5t42 -186.5
t127 -72.5t127.5 72.5t42.5 186.5z" />
    <glyph glyph-name="R" unicode="R" horiz-adv-x="645" 
d="M587 -6h-144q-102 187 -175 286h-67v-286h-129v681q92 30 195 30q141 0 213.5 -57t72.5 -164q0 -72 -41.5 -122.5t-112.5 -65.5v-1q63 -79 188 -301zM421 481q0 132 -142 132q-46 0 -78 -10v-247h78q142 0 142 125z" />
    <glyph glyph-name="S" unicode="S" horiz-adv-x="544" 
d="M473 190q0 -96 -65.5 -152t-178.5 -56q-127 0 -201 47l36 101q69 -42 153 -42q59 0 90 25t31 72q0 44 -32 69.5t-110 56.5q-137 58 -152 167q-4 29 -1 51q8 81 68.5 130.5t157.5 49.5q107 0 180 -46l-36 -94q-65 38 -134 38q-51 0 -79.5 -23t-28.5 -66t31.5 -67
t102.5 -52q90 -38 129 -87t39 -122z" />
    <glyph glyph-name="T" unicode="T" horiz-adv-x="576" 
d="M492 595h-171v-601h-131v601h-171v101h473v-101z" />
    <glyph glyph-name="U" unicode="U" horiz-adv-x="691" 
d="M575 230q0 -112 -66 -180.5t-188 -68.5q-107 0 -172 55t-76 147q-4 40 -4 95v418h130v-400q0 -108 27 -157.5t98 -49.5q51 0 83.5 30t38.5 88q3 42 3 90v399h126v-466z" />
    <glyph glyph-name="V" unicode="V" horiz-adv-x="665" 
d="M605 696q-141 -429 -243 -702h-73l-43 3q-117 312 -242 699h140l131 -433l33 -103q2 5 34 105q54 166 131 431h132z" />
    <glyph glyph-name="W" unicode="W" horiz-adv-x="932" 
d="M861 696q-81 -396 -167 -702h-119q-78 252 -115 384q-4 13 -8 30t-7 28.5t-5 16.5q-2 -5 -5 -16.5t-6.5 -28.5t-7.5 -30q-39 -141 -116 -384h-117q-80 274 -167 702h134q40 -227 81 -421q21 -98 23 -105q1 1 26 87q63 224 108 399h102q58 -227 108 -396q24 -84 26 -89
q2 4 4 14.5l5 27.5l5 28q39 176 92 455h126z" />
    <glyph glyph-name="X" unicode="X" horiz-adv-x="626" 
d="M600 -6h-111q-4 0 -12.5 1t-15 1.5t-11.5 0.5q-46 99 -140 260q-93 -157 -145 -263h-139q71 137 212 364l-198 338h147l128 -235h1l134 235h137l-200 -330q127 -204 213 -372z" />
    <glyph glyph-name="Y" unicode="Y" horiz-adv-x="608" 
d="M565 696q-110 -219 -219 -411v-291h-130v290q-109 193 -218 412h144q76 -170 143 -297q69 131 146 297h134z" />
    <glyph glyph-name="Z" unicode="Z" horiz-adv-x="581" 
d="M489 -6h-467v90q32 71 81 157.5l122 205.5l90 148h-275v101h444v-80q-25 -49 -138 -236.5t-160 -284.5h303v-101z" />
    <glyph glyph-name="bracketleft" unicode="[" horiz-adv-x="336" 
d="M326 -206h-250v996h250v-88h-134v-820h134v-88z" />
    <glyph glyph-name="backslash" unicode="\" horiz-adv-x="392" 
d="M499 -194q-41 -8 -104 -19l-409 990l102 19z" />
    <glyph glyph-name="bracketright" unicode="]" horiz-adv-x="336" 
d="M269 -206h-250v88h134v820h-134v88h250v-996z" />
    <glyph glyph-name="asciicircum" unicode="^" horiz-adv-x="566" 
d="M525 406l-76 -50l-158 229l-159 -229q-50 34 -76 50l161 248q22 31 48 48q43 0 79 -15q29 -50 181 -281z" />
    <glyph glyph-name="underscore" unicode="_" horiz-adv-x="546" 
d="M546 -204h-546v96h546v-96z" />
    <glyph glyph-name="grave" unicode="`" horiz-adv-x="266" 
d="M248 576h-84l-154 195h155z" />
    <glyph glyph-name="a" unicode="a" horiz-adv-x="527" 
d="M462 16q-82 -32 -208 -32q-220 0 -220 171q0 167 243 183q21 2 64 -1q-2 58 -24.5 86.5t-79.5 28.5q-71 0 -139 -29l-22 90q75 34 177 34q192 0 206 -170q3 -32 3 -63v-298zM341 81v175q-32 4 -67 1q-56 -7 -87 -29t-31 -70q0 -86 107 -86q48 0 78 9z" />
    <glyph glyph-name="b" unicode="b" 
d="M530 271q0 -135 -71.5 -211.5t-197.5 -76.5q-119 0 -196 35v762h125v-260q52 25 111 25q105 0 167 -75t62 -199zM403 268q0 184 -126 184q-49 0 -87 -23v-343q29 -9 74 -9q68 0 103.5 50t35.5 141z" />
    <glyph glyph-name="c" unicode="c" horiz-adv-x="477" 
d="M426 18q-56 -35 -143 -35q-114 0 -178 76t-64 206q0 128 66 205t174 77q81 0 140 -34l-29 -89q-44 24 -93 24q-65 0 -97.5 -47.5t-32.5 -134.5q0 -86 33 -134t101 -48q52 0 97 27z" />
    <glyph glyph-name="d" unicode="d" 
d="M505 22q-76 -39 -200 -39q-123 0 -193.5 74t-70.5 204t65.5 206.5t175.5 76.5q52 0 98 -19v255h125v-758zM380 89v345q-38 18 -77 18q-135 0 -135 -186q0 -88 35.5 -137.5t103.5 -49.5q52 0 73 10z" />
    <glyph glyph-name="e" unicode="e" horiz-adv-x="563" 
d="M506 245l-338 -24q15 -138 149 -138q77 0 141 31l24 -94q-70 -37 -177 -37q-128 0 -196 75t-68 207q0 133 68 207.5t173 74.5q98 0 156 -57t66 -168q2 -38 2 -77zM385 320q-3 134 -105 134q-52 0 -83.5 -40t-32.5 -111z" />
    <glyph glyph-name="f" unicode="f" horiz-adv-x="411" 
d="M353 442h-143v-448h-125v424l-52 24l-22 25l52 69l22 16q0 109 35 164.5t125 67.5q59 4 121 -11l-13 -93q-84 16 -113 -19t-30 -125h143v-94z" />
    <glyph glyph-name="g" unicode="g" horiz-adv-x="582" 
d="M499 18q0 -231 -243 -231q-104 0 -186 35l29 97q55 -27 123 -31q59 -1 95 22q60 25 60 93v25q-43 -24 -107 -24q-103 0 -166 68.5t-63 192.5q0 128 69.5 204.5t195.5 76.5q116 0 193 -35v-493zM376 118v326q-23 10 -73 10q-66 0 -100.5 -49t-34.5 -136t32.5 -130.5
t92.5 -43.5q49 0 83 23z" />
    <glyph glyph-name="h" unicode="h" horiz-adv-x="577" 
d="M504 -6h-125v280q0 38 -1 60t-6.5 47t-16.5 38t-30.5 21.5t-48.5 8.5q-53 0 -85 -17v-438h-126v786h126v-258q49 21 96 21q58 2 99 -11.5t63.5 -35t35.5 -58t16 -68t3 -76.5v-300z" />
    <glyph glyph-name="i" unicode="i" horiz-adv-x="259" 
d="M203 684q0 -31 -21 -51t-52 -20t-52.5 20t-21.5 51q0 30 21.5 50t52.5 20q30 0 51.5 -20t21.5 -50zM193 -6h-126v542h126v-542z" />
    <glyph glyph-name="j" unicode="j" horiz-adv-x="259" 
d="M204 684q0 -31 -21 -51t-52 -20t-52 20t-21 51q0 30 21 50t52 20q30 0 51.5 -20t21.5 -50zM194 29q0 -203 -167 -230q-30 -9 -79 -2l9 79q58 12 84 44t27 102v514h126v-507z" />
    <glyph glyph-name="k" unicode="k" horiz-adv-x="530" 
d="M524 -6h-142q-5 7 -30.5 46.5t-41 61.5l-39.5 55t-43.5 55t-35.5 34v-252h-125v786h125v-463q101 120 177 219h140l-210 -247q123 -133 225 -295z" />
    <glyph glyph-name="l" unicode="l" horiz-adv-x="320" 
d="M290 52l-22 -66q-114 6 -157.5 50t-43.5 145v599h126v-551q0 -70 10 -104.5t27.5 -47.5t59.5 -25z" />
    <glyph glyph-name="m" unicode="m" horiz-adv-x="863" 
d="M798 -6h-125v282q0 39 -1 58.5t-5.5 46t-14 39t-27 21.5t-44.5 9q-54 0 -93 -33q7 -55 7 -152v-271h-126v283q0 40 -1 61.5t-6 46.5t-15.5 37t-29 20.5t-46.5 8.5q-46 0 -80 -12v-445h-126v517q100 36 211 36q105 0 157 -55q69 54 168 54q52 0 89.5 -14.5t58 -36.5
t32 -57.5t14.5 -67t3 -75.5v-301z" />
    <glyph glyph-name="n" unicode="n" horiz-adv-x="577" 
d="M504 -6h-125v282q0 39 -1 58.5t-6 46t-15.5 39t-31 22t-50.5 9.5q-46 0 -84 -12v-445h-126v512q74 40 217 40q59 0 100.5 -14t65 -35.5t36.5 -57t16.5 -67t3.5 -77.5v-301z" />
    <glyph glyph-name="o" unicode="o" 
d="M525 265q0 -127 -64.5 -205t-177.5 -78q-112 0 -177 78t-65 205q0 126 65.5 204t176.5 78q112 0 177 -77.5t65 -204.5zM398 266q0 83 -28.5 134.5t-86.5 51.5t-86.5 -52t-28.5 -134q0 -84 28 -134t87 -50t87 50.5t28 133.5z" />
    <glyph glyph-name="p" unicode="p" 
d="M530 267q0 -129 -65 -205.5t-176 -76.5q-57 0 -99 19v-210h-125v717q85 35 201 35q122 0 193 -74t71 -205zM403 265q0 90 -35 138.5t-104 48.5q-50 0 -74 -9v-346q40 -19 77 -19q136 0 136 187z" />
    <glyph glyph-name="q" unicode="q" 
d="M505 -206h-124v215q-48 -25 -110 -25q-107 0 -168.5 74t-61.5 199q0 132 69.5 210.5t198.5 78.5q112 0 196 -35v-717zM381 102v341q-27 10 -74 10q-67 0 -103 -50t-36 -142q0 -183 127 -183q50 0 86 24z" />
    <glyph glyph-name="r" unicode="r" horiz-adv-x="394" 
d="M362 535q-10 -44 -23 -93q-36 9 -74 8q-45 0 -74 -12v-444h-126v513q82 35 184 38q56 2 113 -10z" />
    <glyph glyph-name="s" unicode="s" horiz-adv-x="452" 
d="M399 146q0 -74 -55.5 -118.5t-151.5 -44.5q-97 0 -164 36l30 96q54 -33 126 -33q40 0 64 16t24 46q0 29 -22.5 47t-80.5 41q-66 28 -96.5 65t-30.5 91q0 70 50.5 114.5t135.5 44.5q88 0 152 -34l-13.5 -43l-14.5 -47q-56 29 -110 29q-35 0 -56 -16t-21 -43
q0 -20 12 -34.5t27 -22.5t51 -24q6 -3 9 -4q72 -30 103.5 -67.5t31.5 -94.5z" />
    <glyph glyph-name="t" unicode="t" horiz-adv-x="434" 
d="M378 8q-44 -20 -94 -21q-56 -2 -93.5 15t-55.5 51t-25 68.5t-9 83.5q-2 134 -2 235h-68v94h68v146h126v-144h141v-94h-141v-237q0 -63 12 -89.5t49 -30.5q41 -4 81 15q3 -27 11 -92z" />
    <glyph glyph-name="u" unicode="u" horiz-adv-x="577" 
d="M497 25q-72 -42 -215 -42q-122 0 -171 61t-49 178v314h126v-279q0 -93 18.5 -134t82.5 -41q55 0 83 13v441h125v-511z" />
    <glyph glyph-name="v" unicode="v" horiz-adv-x="509" 
d="M499 536q-80 -268 -188 -542h-77q-24 2 -37 3q-109 273 -187 539h133q36 -144 96 -332q4 -12 8 -27.5l6.5 -26t4.5 -14.5q1 1 20 68q63 198 98 332h123z" />
    <glyph glyph-name="w" unicode="w" horiz-adv-x="779" 
d="M771 536q-79 -295 -166 -542h-108q-57 180 -90 297q-4 14 -8.5 36.5t-6.5 26.5q-55 -206 -104 -360h-109q-89 253 -165 542h129q32 -145 83 -331q3 -12 6 -26.5t5 -23t4 -11.5l11 43l47 171.5l48 177.5h101q20 -86 91 -347q2 -8 4 -18t4 -17t3 -10q2 1 4 9.5t5 24.5t6 26
q45 150 85 332h121z" />
    <glyph glyph-name="x" unicode="x" horiz-adv-x="522" 
d="M503 -6h-137q-47 90 -114 197q-36 -44 -115 -197h-130q73 129 177 281l-97 152l-69 109h137l102 -173h1l105 173h127l-166 -255q117 -175 179 -287z" />
    <glyph glyph-name="y" unicode="y" horiz-adv-x="523" 
d="M503 536q-95 -333 -195 -599q-25 -61 -54 -89t-77 -28q-41 0 -111 29l25 83q43 -20 58 -20q16 0 28.5 14t18 29.5t11.5 37.5q1 5 2 8q-111 268 -191 535h133q40 -162 95 -324q21 -75 24 -81q2 2 5 14.5t8.5 33.5l8.5 33q37 120 89 324h122z" />
    <glyph glyph-name="z" unicode="z" horiz-adv-x="474" 
d="M421 -6h-396v76q36 66 131 217.5t97 153.5h-212v95h374v-70l-55 -85q-110 -163 -181 -293h242v-94z" />
    <glyph glyph-name="braceleft" unicode="{" horiz-adv-x="341" 
d="M342 -165q-126 0 -173 49.5t-47 166.5v106q0 58 -19.5 84.5t-67.5 27.5v79q43 7 65 30.5t22 71.5v140q0 106 50.5 151.5t169.5 45.5v-84q-57 0 -81 -19.5t-25 -68.5v-164q0 -106 -76 -139q35 -8 55.5 -47t20.5 -94v-164q0 -49 24.5 -68t81.5 -19v-85z" />
    <glyph glyph-name="bar" unicode="|" horiz-adv-x="287" 
d="M186 -206h-110v996h110v-996z" />
    <glyph glyph-name="braceright" unicode="}" horiz-adv-x="341" 
d="M329 276q-44 -8 -65.5 -31.5t-21.5 -72.5v-141q0 -106 -50 -151t-169 -45v85q61 0 83.5 22t22.5 80v149q0 109 75 140v1q-75 33 -75 139v116q0 82 -18.5 109t-87.5 27v84q121 0 170 -45.5t49 -151.5v-140q0 -94 87 -96v-78z" />
    <glyph glyph-name="asciitilde" unicode="~" horiz-adv-x="566" 
d="M530 360q-31 -120 -134 -124q-44 -3 -108.5 36t-97.5 37q-48 -1 -72 -76l-67 51q36 121 132 125q37 2 74 -17.5l70.5 -38.5t60.5 -17q52 3 74 75z" />
    <glyph glyph-name="uni00A0" unicode="&#xa0;" horiz-adv-x="233" 
 />
    <glyph glyph-name="exclamdown" unicode="&#xa1;" horiz-adv-x="279" 
d="M206 5v-201h-133v201q0 127 23 302h17h52h18q23 -175 23 -302zM222 450q0 -38 -21.5 -60.5t-61.5 -22.5q-35 0 -59.5 23.5t-24.5 59.5q0 37 24 60t60 23t59.5 -22.5t23.5 -60.5z" />
    <glyph glyph-name="cent" unicode="&#xa2;" horiz-adv-x="566" 
d="M258 -122v148q-92 21 -141 92t-49 173q0 99 51 172t139 95v147h119v-140q52 -4 110 -28l-30 -106q-55 22 -99 24q-22 1 -46 -2q-115 -17 -115 -162q0 -141 119 -159q25 -3 51 -2q53 2 107 26l21 -109q-46 -21 -118 -28v-141h-119z" />
    <glyph glyph-name="sterling" unicode="&#xa3;" horiz-adv-x="566" 
d="M260 465v-76h186v-108h-186l-1 -23q-2 -92 -12 -160h283v-111h-426q26 145 29 269l2 25h-92v108h92v66q0 146 60.5 205t171.5 59q71 0 150 -35l-34 -108q-56 29 -115 30q-55 0 -81.5 -31t-26.5 -110z" />
    <glyph glyph-name="currency" unicode="&#xa4;" horiz-adv-x="566" 
d="M522 163l-63 -62l-74 74q-46 -31 -107 -31q-60 0 -107 32l-74 -75q-21 22 -63 62l74 73q-32 46 -32 108t32 109l-74 72l63 63l74 -74q51 31 107 31q60 0 107 -32l75 74l62 -62l-73 -73q31 -46 31 -108t-31 -108zM386 344q0 47 -31.5 79t-76.5 32t-76 -31.5t-31 -79.5
q0 -47 31 -78.5t76 -31.5t76.5 31.5t31.5 78.5z" />
    <glyph glyph-name="yen" unicode="&#xa5;" horiz-adv-x="566" 
d="M346 -13h-126v114h-157v93h157v80h-157v93h120q-112 183 -186 339h138q71 -157 150 -285q76 126 147 285h140q-65 -136 -190 -339h121v-93h-157v-80h157v-93h-157v-114z" />
    <glyph glyph-name="brokenbar" unicode="&#xa6;" horiz-adv-x="279" 
d="M79 -198v410h121v-410h-121zM79 386v410h121v-410h-121z" />
    <glyph glyph-name="section" unicode="&#xa7;" horiz-adv-x="496" 
d="M473 259q0 -89 -98 -152q58 -48 61 -115q3 -75 -50 -119.5t-146 -44.5q-106 0 -172 41q12 37 29 82q47 -23 120 -27q41 0 67 18q33 12 33 40q0 24 -18 45t-67 45q-98 53 -140 98t-42 119q0 90 98 157q-47 42 -50 102q-6 69 45 114.5t138 45.5t157 -36l-30 -86
q-52 26 -102 28q-33 2 -58 -11q-34 -12 -34 -44q0 -25 16 -43.5t58 -40.5q13 -10 14 -11q94 -52 132.5 -94t38.5 -111zM364 247q0 27 -16.5 51t-33.5 36t-51 32t-47 29q-51 -33 -59 -75q-2 -14 -1 -23q1 -21 8.5 -38t26.5 -33t30.5 -24t42 -24.5t38.5 -21.5q62 36 62 91z
" />
    <glyph glyph-name="dieresis" unicode="&#xa8;" horiz-adv-x="436" 
d="M185 688q0 -33 -20.5 -53t-51.5 -20q-30 0 -50.5 20t-20.5 53q0 32 20.5 52t50.5 20q31 0 51.5 -20t20.5 -52zM395 688q0 -33 -20.5 -53t-51.5 -20t-51.5 20t-20.5 53q0 32 20.5 52t51.5 20t51.5 -20t20.5 -52z" />
    <glyph glyph-name="copyright" unicode="&#xa9;" horiz-adv-x="886" 
d="M831 345q0 -176 -112.5 -286t-274.5 -110t-274.5 110t-112.5 286q0 175 112.5 286t274.5 111t274.5 -111t112.5 -286zM745 345q0 146 -87.5 230t-213.5 84t-213.5 -84t-87.5 -230q0 -142 85.5 -228t215.5 -91q126 0 213.5 86.5t87.5 232.5zM571 228l40 -52
q-64 -59 -158 -59q-95 0 -156.5 64.5t-61.5 164.5q0 99 62.5 162t156.5 63q92 0 153 -61l-46 -57q-45 43 -107 43q-58 0 -94 -42.5t-36 -107.5t39 -110t99 -45q47 0 109 37z" />
    <glyph glyph-name="ordfeminine" unicode="&#xaa;" horiz-adv-x="416" 
d="M212 393q38 0 54 4v88q-26 4 -48 4q-75 -2 -75 -46q0 -25 15 -37.5t54 -12.5zM205 718q94 0 128 -44t34 -131v-215q-83 -19 -157 -19q-171 0 -171 130q0 66 52 97t130 31q21 0 45 -4v8q0 30 -20 49t-62 18q-48 -1 -93 -16l-15 77q61 19 129 19z" />
    <glyph glyph-name="guillemotleft" unicode="&#xab;" horiz-adv-x="513" 
d="M484 120l-25.5 -14.5l-30 -16.5l-25.5 -14l-158 234l158 233l81 -44l-118 -189zM270 120q-15 -9 -43 -24.5l-37 -20.5l-158 234l158 233l80 -44l-117 -189z" />
    <glyph glyph-name="logicalnot" unicode="&#xac;" horiz-adv-x="566" 
d="M499 87h-101v206h-340v96h441v-302z" />
    <glyph glyph-name="uni00AD" unicode="&#xad;" horiz-adv-x="312" 
d="M27 253v96h266v-96h-266z" />
    <glyph glyph-name="registered" unicode="&#xae;" horiz-adv-x="889" 
d="M831 345q0 -176 -112.5 -286t-274.5 -110t-274.5 110t-112.5 286q0 175 112.5 286t274.5 111t274.5 -111t112.5 -286zM745 345q0 146 -87.5 230t-213.5 84t-213.5 -84t-87.5 -230q0 -142 85.5 -228t215.5 -91q126 0 213.5 86.5t87.5 232.5zM628 125h-92q-63 115 -113 184
h-43v-184h-83v437q57 19 126 19q90 0 136.5 -36t46.5 -105q0 -47 -26.5 -79t-72.5 -42v-1q39 -48 121 -193zM521 438q0 84 -91 84q-30 0 -50 -6v-159h50q91 0 91 81z" />
    <glyph glyph-name="macron" unicode="&#xaf;" horiz-adv-x="376" 
d="M345 625h-314v100h314v-100z" />
    <glyph glyph-name="degree" unicode="&#xb0;" horiz-adv-x="337" 
d="M343 590q0 -67 -45.5 -110.5t-109.5 -43.5t-109 43.5t-45 110.5t45 110.5t109 43.5t109.5 -43.5t45.5 -110.5zM264 590q0 33 -22 55t-54 22q-31 0 -53 -22t-22 -55t22 -54.5t53 -21.5q32 0 54 21.5t22 54.5z" />
    <glyph glyph-name="plusminus" unicode="&#xb1;" horiz-adv-x="566" 
d="M499 330h-171v-183h-100v183h-170v100h170v182h100v-182h171v-100zM40 0v106h485v-106h-485z" />
    <glyph glyph-name="twosuperior" unicode="&#xb2;" horiz-adv-x="361" 
d="M308 594q0 -30 -14.5 -57t-30 -42.5t-44.5 -39.5q-51 -39 -55 -66h160v-91h-289q-2 18 -2 36q0 37 17.5 71t36 53.5t56.5 53.5q25 21 32.5 28t17.5 22t10 29q0 35 -41 35q-44 0 -96 -44l-51 76q69 63 152 63q141 0 141 -127z" />
    <glyph glyph-name="threesuperior" unicode="&#xb3;" horiz-adv-x="361" 
d="M147 383q70 0 70 42q0 25 -24 38.5t-60 13.5h-38v70h26q31 0 54.5 13.5t23.5 37.5q0 16 -17 25q-21 7 -62 -4q-34 -1 -62 -20l-38 79q68 43 138 43q133 0 140 -101q2 -17 -1 -31q-6 -39 -43 -63q55 -28 64 -85q3 -12 1 -31q-4 -54 -45.5 -87t-124.5 -33q-74 0 -130 29
l23 89q59 -25 105 -25z" />
    <glyph glyph-name="acute" unicode="&#xb4;" horiz-adv-x="308" 
d="M123 597h-84l84 195h154z" />
    <glyph glyph-name="mu" unicode="&#xb5;" horiz-adv-x="583" 
d="M504 20q-83 -35 -198 -35q-70 0 -118 32q2 -42 2 -127v-92h-125v738h126v-350q9 -57 30 -82t71 -25q52 0 87 13v444h125v-516z" />
    <glyph glyph-name="paragraph" unicode="&#xb6;" horiz-adv-x="655" 
d="M249 694q102 2 154 2h122v-902h-99v822h-98v-822h-99v486q-96 11 -148.5 64t-52.5 142q0 94 60 146t161 62z" />
    <glyph glyph-name="periodcentered" unicode="&#xb7;" horiz-adv-x="246" 
d="M206 315q0 -35 -23 -57t-57 -22q-33 0 -56 22t-23 57t23 57t56 22q34 0 57 -22t23 -57z" />
    <glyph glyph-name="cedilla" unicode="&#xb8;" horiz-adv-x="355" 
d="M226 -33q55 -31 55 -84q0 -43 -31.5 -70t-95.5 -27q-50 0 -93 16l18 87q19 -9 57 -12q31 -2 36 15q-8 16 -58 33q15 47 49 108h96l-9 -17.5l-13.5 -26.5t-10.5 -22z" />
    <glyph glyph-name="onesuperior" unicode="&#xb9;" horiz-adv-x="361" 
d="M69 542l-24 74q85 38 145 96h75v-414h-105v282q-34 -18 -91 -38z" />
    <glyph glyph-name="ordmasculine" unicode="&#xba;" horiz-adv-x="496" 
d="M461 502q0 -101 -60 -162.5t-153 -61.5t-153 61.5t-60 162.5t60 163t153 62t153 -62t60 -163zM345 502q0 58 -25.5 91.5t-71.5 33.5q-45 0 -71.5 -34t-26.5 -91t26 -91t72 -34t71.5 34t25.5 91z" />
    <glyph glyph-name="guillemotright" unicode="&#xbb;" horiz-adv-x="513" 
d="M495 309l-159 -234q-65 36 -80 45l117 189l-117 189l80 44zM282 309l-159 -234l-81 45l118 189l-118 189l81 44z" />
    <glyph glyph-name="onequarter" unicode="&#xbc;" horiz-adv-x="908" 
d="M826 153h49v-73h-49v-92h-95v92h-188v67q35 63 88.5 135t107.5 121h87v-250zM184 -13l409 719h124l-408 -719h-125zM622 153h110v150q-59 -62 -110 -150zM74 542l-24 74q83 36 145 96h75v-414h-105v282q-31 -17 -91 -38z" />
    <glyph glyph-name="onehalf" unicode="&#xbd;" horiz-adv-x="937" 
d="M69 542l-24 74q85 38 145 96h75v-414h-105v282q-34 -18 -91 -38zM189 -13l392 719h125l-392 -719h-125zM881 285q0 -30 -14.5 -57t-30 -42.5t-44.5 -39.5q-32 -26 -42.5 -39.5t-12.5 -26.5h160v-91h-289q-2 18 -2 36q0 37 17.5 71t36 53.5t56.5 53.5q22 18 32 27t19 23.5
t9 28.5q0 35 -41 35q-44 0 -96 -44l-51 75q68 64 152 64q70 0 105.5 -33t35.5 -94z" />
    <glyph glyph-name="threequarters" unicode="&#xbe;" horiz-adv-x="925" 
d="M214 -13l413 719h125l-413 -719h-125zM209 599q-1 11 -7.5 17.5t-15 8.5t-18.5 2.5t-20 -0.5q-26 0 -70 -28l-37 79q66 43 137 43q134 0 141 -103q0 -20 -1 -29q-8 -40 -44 -63q55 -28 64 -85q2 -9 2 -30q-4 -54 -45.5 -87.5t-124.5 -33.5q-75 0 -131 29l23 89
q59 -25 105 -25q71 0 71 42q0 48 -105 48h-17v69q38 0 59.5 8.5t26.5 34.5q9 9 7 14zM844 153h49v-73h-49v-92h-95v92h-188v67q33 61 87 133.5t109 122.5h87v-250zM640 153h110v150q-57 -58 -110 -150z" />
    <glyph glyph-name="questiondown" unicode="&#xbf;" horiz-adv-x="411" 
d="M146 -28q0 -63 89 -63q62 0 136 39l38 -102q-81 -49 -184 -49q-59 0 -102 15.5t-65.5 41.5t-32.5 53.5t-10 57.5q0 39 17.5 75t42.5 62.5l49.5 52t42 55.5t17.5 61q0 12 -2 33h34h43h32q6 -28 6 -52q0 -37 -15.5 -71t-37.5 -59.5t-44.5 -49t-38 -49.5t-15.5 -51zM317 471
q0 -40 -23 -64t-60 -24q-38 0 -61 24t-23 64q0 37 24 60t60 23q35 0 59 -23t24 -60z" />
    <glyph glyph-name="Agrave" unicode="&#xc0;" horiz-adv-x="675" 
d="M646 -6h-139l-56 173h-255q-43 -122 -58 -173h-126q152 442 257 702h119q89 -222 258 -702zM424 260l-74 221q-5 15 -10.5 33.5t-9 29t-6.5 15.5q-4 -9 -15 -46q-14 -45 -44.5 -131.5t-41.5 -121.5h201zM356 754h-84l-154 195h155z" />
    <glyph glyph-name="Aacute" unicode="&#xc1;" horiz-adv-x="675" 
d="M646 -6h-139l-56 173h-255q-43 -122 -58 -173h-126q152 442 257 702h119q89 -222 258 -702zM424 260l-74 221q-5 15 -10.5 33.5t-9 29t-6.5 15.5q-4 -9 -15 -46q-14 -45 -44.5 -131.5t-41.5 -121.5h201zM356 775h-84l84 195h154z" />
    <glyph glyph-name="Acircumflex" unicode="&#xc2;" horiz-adv-x="675" 
d="M646 -6h-139l-56 173h-255q-43 -122 -58 -173h-126q152 442 257 702h119q89 -222 258 -702zM424 260l-74 221q-5 15 -10.5 33.5t-9 29t-6.5 15.5q-4 -9 -15 -46q-14 -45 -44.5 -131.5t-41.5 -121.5h201zM314 836l-105 -89l-56 64l161 158l158 -158l-54 -64z" />
    <glyph glyph-name="Atilde" unicode="&#xc3;" horiz-adv-x="675" 
d="M646 -6h-139l-56 173h-255q-43 -122 -58 -173h-126q152 442 257 702h119q89 -222 258 -702zM424 260l-74 221q-5 15 -10.5 33.5t-9 29t-6.5 15.5q-4 -9 -15 -46q-14 -45 -44.5 -131.5t-41.5 -121.5h201zM383 765q-28 0 -71 18.5t-56 18.5q-24 0 -49 -50l-73 44
q15 41 46 74t74 33q30 0 72 -18.5t55 -18.5q23 0 50 50l73 -46q-57 -105 -121 -105z" />
    <glyph glyph-name="Adieresis" unicode="&#xc4;" horiz-adv-x="675" 
d="M646 -6h-139l-56 173h-255q-43 -122 -58 -173h-126q152 442 257 702h119q89 -222 258 -702zM424 260l-74 221q-5 15 -10.5 33.5t-9 29t-6.5 15.5q-4 -9 -15 -46q-14 -45 -44.5 -131.5t-41.5 -121.5h201zM278 849q0 -33 -20.5 -53t-51.5 -20q-30 0 -50.5 20t-20.5 53
q0 32 20.5 52t50.5 20q31 0 51.5 -20t20.5 -52zM488 849q0 -33 -20.5 -53t-51.5 -20t-51.5 20t-20.5 53q0 32 20.5 52t51.5 20t51.5 -20t20.5 -52z" />
    <glyph glyph-name="Aring" unicode="&#xc5;" horiz-adv-x="675" 
d="M646 -6h-139l-56 173h-255q-43 -122 -58 -173h-126q152 442 257 702h119q89 -222 258 -702zM424 260l-74 221q-5 15 -10.5 33.5t-9 29t-6.5 15.5q-4 -9 -15 -46q-14 -45 -44.5 -131.5t-41.5 -121.5h201zM430 872q0 -54 -34 -85.5t-83 -31.5t-83.5 31.5t-34.5 85.5
q0 53 34.5 84.5t83.5 31.5t83 -32t34 -84zM352 872q0 19 -11 30t-28 11t-28.5 -11t-11.5 -30q0 -20 11.5 -31t28.5 -11t28 11t11 31z" />
    <glyph glyph-name="AE" unicode="&#xc6;" horiz-adv-x="948" 
d="M923 -13h-461v179h-238q-55 -94 -96 -179h-142q209 395 442 719h471v-115h-309v-172h273v-112h-273v-205h333v-115zM462 277v277q-90 -129 -136 -206l-43 -71h179z" />
    <glyph glyph-name="Ccedilla" unicode="&#xc7;" horiz-adv-x="625" 
d="M424 -73q34 -29 30 -67q-19 -74 -122 -74q-51 0 -93 16l17 87q32 -14 70 -14q21 2 18 18q-4 10 -14.5 16t-37.5 16q7 23 21 55q-126 21 -197.5 116t-71.5 251q0 174 99 274t248 100q127 0 218 -56l-40 -110q-84 47 -171 47q-101 0 -160 -67t-59 -187q0 -119 55 -188
t161 -69q98 0 184 43l37 -109q-26 -18 -81 -33t-120 -17q11 -20 9 -48z" />
    <glyph glyph-name="Egrave" unicode="&#xc8;" horiz-adv-x="576" 
d="M480 -6h-409v702h396v-101h-265v-189h235v-101h-235v-210h278v-101zM318 754h-84l-154 195h155z" />
    <glyph glyph-name="Eacute" unicode="&#xc9;" horiz-adv-x="576" 
d="M480 -6h-409v702h396v-101h-265v-189h235v-101h-235v-210h278v-101zM318 775h-84l84 195h154z" />
    <glyph glyph-name="Ecircumflex" unicode="&#xca;" horiz-adv-x="576" 
d="M480 -6h-409v702h396v-101h-265v-189h235v-101h-235v-210h278v-101zM276 836l-105 -89l-56 64l161 158l158 -158l-54 -64z" />
    <glyph glyph-name="Edieresis" unicode="&#xcb;" horiz-adv-x="576" 
d="M480 -6h-409v702h396v-101h-265v-189h235v-101h-235v-210h278v-101zM240 849q0 -33 -20.5 -53t-51.5 -20q-30 0 -50.5 20t-20.5 53q0 32 20.5 52t50.5 20q31 0 51.5 -20t20.5 -52zM450 849q0 -33 -20.5 -53t-51.5 -20t-51.5 20t-20.5 53q0 32 20.5 52t51.5 20t51.5 -20
t20.5 -52z" />
    <glyph glyph-name="Igrave" unicode="&#xcc;" horiz-adv-x="277" 
d="M203 -6h-131v702h131v-702zM179 754h-84l-154 195h155z" />
    <glyph glyph-name="Iacute" unicode="&#xcd;" horiz-adv-x="277" 
d="M203 -6h-131v702h131v-702zM180 775h-84l84 195h154z" />
    <glyph glyph-name="Icircumflex" unicode="&#xce;" horiz-adv-x="277" 
d="M203 -6h-131v702h131v-702zM137 836l-105 -89l-56 64l161 158l158 -158l-54 -64z" />
    <glyph glyph-name="Idieresis" unicode="&#xcf;" horiz-adv-x="277" 
d="M203 -6h-131v702h131v-702zM101 849q0 -33 -20.5 -53t-51.5 -20q-30 0 -50.5 20t-20.5 53q0 32 20.5 52t50.5 20q31 0 51.5 -20t20.5 -52zM311 849q0 -33 -20.5 -53t-51.5 -20t-51.5 20t-20.5 53q0 32 20.5 52t51.5 20t51.5 -20t20.5 -52z" />
    <glyph glyph-name="Eth" unicode="&#xd0;" horiz-adv-x="729" 
d="M685 347q0 -180 -108 -273.5t-293 -93.5q-109 0 -198 21v308h-80v105h80v278q88 20 200 20q185 0 292 -91.5t107 -273.5zM216 309v-209q36 -4 76 -4q127 0 192.5 66t65.5 185q0 120 -64.5 185t-191.5 65q-38 0 -78 -4v-179h130v-105h-130z" />
    <glyph glyph-name="Ntilde" unicode="&#xd1;" horiz-adv-x="729" 
d="M618 -6h-75l-34 3q-111 194 -277 441q-7 11 -17.5 29t-17 28t-8.5 10q0 -12 1 -79.5t1 -104.5v-327h-120v702h113q157 -215 278 -412q7 -11 15.5 -26.5t14 -24.5t8.5 -12q0 23 -1 108.5t-1 128.5v238h120v-702zM428 776q-28 0 -71.5 18.5t-55.5 18.5q-24 0 -49 -50
l-74 44q16 42 47 74.5t74 32.5q30 0 72 -18.5t55 -18.5q24 0 49 50l74 -45q-58 -106 -121 -106z" />
    <glyph glyph-name="Ograve" unicode="&#xd2;" horiz-adv-x="701" 
d="M653 345q0 -167 -81 -265t-222 -98q-140 0 -221.5 98.5t-81.5 264.5t82 265t221 99q140 0 221.5 -99t81.5 -265zM520 348q0 114 -43 186.5t-127 72.5t-126.5 -72.5t-42.5 -186.5q0 -115 42.5 -187.5t126.5 -72.5q85 0 127.5 72.5t42.5 187.5zM393 776h-84l-154 195h155z
" />
    <glyph glyph-name="Oacute" unicode="&#xd3;" horiz-adv-x="701" 
d="M653 345q0 -167 -81 -265t-222 -98q-140 0 -221.5 98.5t-81.5 264.5t82 265t221 99q140 0 221.5 -99t81.5 -265zM520 348q0 114 -43 186.5t-127 72.5t-126.5 -72.5t-42.5 -186.5q0 -115 42.5 -187.5t126.5 -72.5q85 0 127.5 72.5t42.5 187.5zM393 797h-84l84 195h154z
" />
    <glyph glyph-name="Ocircumflex" unicode="&#xd4;" horiz-adv-x="701" 
d="M653 345q0 -167 -81 -265t-222 -98q-140 0 -221.5 98.5t-81.5 264.5t82 265t221 99q140 0 221.5 -99t81.5 -265zM520 348q0 114 -43 186.5t-127 72.5t-126.5 -72.5t-42.5 -186.5q0 -115 42.5 -187.5t126.5 -72.5q85 0 127.5 72.5t42.5 187.5zM351 857l-105 -89l-56 64
l161 158l158 -158l-54 -64z" />
    <glyph glyph-name="Otilde" unicode="&#xd5;" horiz-adv-x="701" 
d="M653 345q0 -167 -81 -265t-222 -98q-140 0 -221.5 98.5t-81.5 264.5t82 265t221 99q140 0 221.5 -99t81.5 -265zM520 348q0 114 -43 186.5t-127 72.5t-126.5 -72.5t-42.5 -186.5q0 -115 42.5 -187.5t126.5 -72.5q85 0 127.5 72.5t42.5 187.5zM409 787q-28 0 -71 18.5
t-56 18.5q-24 0 -49 -50l-73 44q15 41 46 74t74 33q30 0 72 -18.5t55 -18.5q23 0 50 50l73 -46q-57 -105 -121 -105z" />
    <glyph glyph-name="Odieresis" unicode="&#xd6;" horiz-adv-x="701" 
d="M653 345q0 -167 -81 -265t-222 -98q-140 0 -221.5 98.5t-81.5 264.5t82 265t221 99q140 0 221.5 -99t81.5 -265zM520 348q0 114 -43 186.5t-127 72.5t-126.5 -72.5t-42.5 -186.5q0 -115 42.5 -187.5t126.5 -72.5q85 0 127.5 72.5t42.5 187.5zM315 871q0 -33 -20.5 -53
t-51.5 -20q-30 0 -50.5 20t-20.5 53q0 32 20.5 52t50.5 20q31 0 51.5 -20t20.5 -52zM525 871q0 -33 -20.5 -53t-51.5 -20t-51.5 20t-20.5 53q0 32 20.5 52t51.5 20t51.5 -20t20.5 -52z" />
    <glyph glyph-name="multiply" unicode="&#xd7;" horiz-adv-x="566" 
d="M61 442l76 77l146 -147l146 147l76 -77l-146 -146l146 -145l-76 -77l-146 146l-146 -146l-76 77l146 145z" />
    <glyph glyph-name="Oslash" unicode="&#xd8;" horiz-adv-x="781" 
d="M736 347q0 -178 -97.5 -276t-248.5 -98q-105 0 -184 50l-60 -79l-84 62l65 84q-83 94 -83 257q0 176 99.5 275t246.5 99q105 0 184 -52l62 81l84 -63l-66 -85q82 -98 82 -255zM179 347q0 -86 36 -144l283 367q-45 33 -108 33q-97 0 -154 -69t-57 -187zM602 347
q0 83 -35 143l-284 -368q45 -31 107 -31q98 0 155 69t57 187z" />
    <glyph glyph-name="Ugrave" unicode="&#xd9;" horiz-adv-x="691" 
d="M575 230q0 -112 -66 -180.5t-188 -68.5q-107 0 -172 55t-76 147q-4 40 -4 95v418h130v-400q0 -108 27 -157.5t98 -49.5q51 0 83.5 30t38.5 88q3 42 3 90v399h126v-466zM369 754h-84l-154 195h155z" />
    <glyph glyph-name="Uacute" unicode="&#xda;" horiz-adv-x="691" 
d="M575 230q0 -112 -66 -180.5t-188 -68.5q-107 0 -172 55t-76 147q-4 40 -4 95v418h130v-400q0 -108 27 -157.5t98 -49.5q51 0 83.5 30t38.5 88q3 42 3 90v399h126v-466zM370 775h-84l84 195h154z" />
    <glyph glyph-name="Ucircumflex" unicode="&#xdb;" horiz-adv-x="691" 
d="M575 230q0 -112 -66 -180.5t-188 -68.5q-107 0 -172 55t-76 147q-4 40 -4 95v418h130v-400q0 -108 27 -157.5t98 -49.5q51 0 83.5 30t38.5 88q3 42 3 90v399h126v-466zM327 836l-105 -89l-56 64l161 158l158 -158l-54 -64z" />
    <glyph glyph-name="Udieresis" unicode="&#xdc;" horiz-adv-x="691" 
d="M575 230q0 -112 -66 -180.5t-188 -68.5q-107 0 -172 55t-76 147q-4 40 -4 95v418h130v-400q0 -108 27 -157.5t98 -49.5q51 0 83.5 30t38.5 88q3 42 3 90v399h126v-466zM291 849q0 -33 -20.5 -53t-51.5 -20q-30 0 -50.5 20t-20.5 53q0 32 20.5 52t50.5 20q31 0 51.5 -20
t20.5 -52zM501 849q0 -33 -20.5 -53t-51.5 -20t-51.5 20t-20.5 53q0 32 20.5 52t51.5 20t51.5 -20t20.5 -52z" />
    <glyph glyph-name="Yacute" unicode="&#xdd;" horiz-adv-x="608" 
d="M565 696q-110 -219 -219 -411v-291h-130v290q-109 193 -218 412h144q76 -170 143 -297q69 131 146 297h134zM329 775h-84l84 195h154z" />
    <glyph glyph-name="Thorn" unicode="&#xde;" horiz-adv-x="614" 
d="M203 706v-112q33 3 79 3q149 0 229 -59t80 -176q0 -124 -83 -180.5t-242 -56.5h-63v-138h-130v719h130zM279 482q-40 0 -76 -4v-237h58q99 0 147.5 26t48.5 96q0 119 -178 119z" />
    <glyph glyph-name="germandbls" unicode="&#xdf;" horiz-adv-x="622" 
d="M510 615q0 -31 -11 -59t-22.5 -43t-31.5 -36q-28 -30 -39 -46t-11 -35q0 -13 10.5 -24.5t21.5 -18.5t33 -18q5 -3 8 -4q34 -19 52.5 -31t39.5 -33t30 -48.5t9 -64.5q0 -87 -53.5 -133t-159.5 -46q-65 0 -141 33l8 39l15 70q58 -27 107 -30q33 -2 53 5q46 14 46 61
q0 30 -21.5 50t-72.5 46q-65 32 -87 61t-22 75q0 37 16.5 64t51.5 64q2 3 10.5 12t10.5 11.5l8 10t7.5 10.5t5.5 9.5t5 11.5t2 12t1 14q0 34 -23.5 54t-63.5 20q-111 0 -111 -128v-563h-124v527q0 22 2 64q7 97 66 154t160 57q108 0 161.5 -48t53.5 -126z" />
    <glyph glyph-name="agrave" unicode="&#xe0;" horiz-adv-x="527" 
d="M462 16q-82 -32 -208 -32q-220 0 -220 171q0 167 243 183q21 2 64 -1q-2 58 -24.5 86.5t-79.5 28.5q-71 0 -139 -29l-22 90q75 34 177 34q192 0 206 -170q3 -32 3 -63v-298zM341 81v175q-32 4 -67 1q-56 -7 -87 -29t-31 -70q0 -86 107 -86q48 0 78 9zM307 595h-84
l-154 195h155z" />
    <glyph glyph-name="aacute" unicode="&#xe1;" horiz-adv-x="527" 
d="M462 16q-82 -32 -208 -32q-220 0 -220 171q0 167 243 183q21 2 64 -1q-2 58 -24.5 86.5t-79.5 28.5q-71 0 -139 -29l-22 90q75 34 177 34q192 0 206 -170q3 -32 3 -63v-298zM341 81v175q-32 4 -67 1q-56 -7 -87 -29t-31 -70q0 -86 107 -86q48 0 78 9zM290 621h-84l84 195
h154z" />
    <glyph glyph-name="acircumflex" unicode="&#xe2;" horiz-adv-x="527" 
d="M462 16q-82 -32 -208 -32q-220 0 -220 171q0 167 243 183q21 2 64 -1q-2 58 -24.5 86.5t-79.5 28.5q-71 0 -139 -29l-22 90q75 34 177 34q192 0 206 -170q3 -32 3 -63v-298zM341 81v175q-32 4 -67 1q-56 -7 -87 -29t-31 -70q0 -86 107 -86q48 0 78 9zM265 676l-105 -89
l-56 64l161 158l158 -158l-54 -64z" />
    <glyph glyph-name="atilde" unicode="&#xe3;" horiz-adv-x="527" 
d="M462 16q-82 -32 -208 -32q-220 0 -220 171q0 167 243 183q21 2 64 -1q-2 58 -24.5 86.5t-79.5 28.5q-71 0 -139 -29l-22 90q75 34 177 34q192 0 206 -170q3 -32 3 -63v-298zM341 81v175q-32 4 -67 1q-56 -7 -87 -29t-31 -70q0 -86 107 -86q48 0 78 9zM323 606
q-28 0 -71 18.5t-56 18.5q-24 0 -49 -50l-73 44q15 41 46 74t74 33q30 0 72 -18.5t55 -18.5q23 0 50 50l73 -46q-57 -105 -121 -105z" />
    <glyph glyph-name="adieresis" unicode="&#xe4;" horiz-adv-x="527" 
d="M462 16q-82 -32 -208 -32q-220 0 -220 171q0 167 243 183q21 2 64 -1q-2 58 -24.5 86.5t-79.5 28.5q-71 0 -139 -29l-22 90q75 34 177 34q192 0 206 -170q3 -32 3 -63v-298zM341 81v175q-32 4 -67 1q-56 -7 -87 -29t-31 -70q0 -86 107 -86q48 0 78 9zM229 690
q0 -33 -20.5 -53t-51.5 -20q-30 0 -50.5 20t-20.5 53q0 32 20.5 52t50.5 20q31 0 51.5 -20t20.5 -52zM439 690q0 -33 -20.5 -53t-51.5 -20t-51.5 20t-20.5 53q0 32 20.5 52t51.5 20t51.5 -20t20.5 -52z" />
    <glyph glyph-name="aring" unicode="&#xe5;" horiz-adv-x="527" 
d="M462 16q-82 -32 -208 -32q-220 0 -220 171q0 167 243 183q21 2 64 -1q-2 58 -24.5 86.5t-79.5 28.5q-71 0 -139 -29l-22 90q75 34 177 34q192 0 206 -170q3 -32 3 -63v-298zM341 81v175q-32 4 -67 1q-56 -7 -87 -29t-31 -70q0 -86 107 -86q48 0 78 9zM382 712
q0 -54 -34 -85.5t-83 -31.5t-83.5 31.5t-34.5 85.5q0 53 34.5 84.5t83.5 31.5t83 -32t34 -84zM304 712q0 19 -11 30t-28 11t-28.5 -11t-11.5 -30q0 -20 11.5 -31t28.5 -11t28 11t11 31z" />
    <glyph glyph-name="ae" unicode="&#xe6;" horiz-adv-x="862" 
d="M471 319h223q-4 55 -31.5 86t-74.5 31q-48 0 -79.5 -33.5t-37.5 -83.5zM256 -24q-226 0 -226 180q0 89 64 131.5t168 42.5q50 0 80 -10q-1 26 -4.5 42t-13 35t-30.5 28.5t-53 9.5q-79 0 -143 -24l-16 108q69 27 168 27q123 0 168 -81q58 67 144 78q23 3 52 1
q98 -8 153 -76.5t55 -194.5q0 -9 -1.5 -27t-1.5 -27h-347q16 -131 152 -131q76 0 146 32l19 -108q-57 -31 -149 -35q-30 -1 -57 0q-89 6 -147 51q-78 -52 -180 -52zM346 220q-30 10 -74 10q-116 0 -116 -73t104 -73q65 0 111 28q-24 46 -25 108z" />
    <glyph glyph-name="ccedilla" unicode="&#xe7;" horiz-adv-x="477" 
d="M336 -23q13 -22 8 -50q36 -27 32 -63q-15 -78 -124 -78q-50 0 -92 16l17 87q32 -14 69 -14q10 1 15 5.5t4 12.5q-6 15 -51 32q10 37 22 59q-97 20 -147.5 93t-50.5 183q0 126 71.5 206t193.5 80q90 0 154 -32l-30 -106q-59 25 -116 25q-70 0 -107 -45.5t-37 -127.5
q0 -172 154 -172q59 0 123 30l21 -110q-55 -27 -129 -31z" />
    <glyph glyph-name="egrave" unicode="&#xe8;" horiz-adv-x="563" 
d="M506 245l-338 -24q15 -138 149 -138q77 0 141 31l24 -94q-70 -37 -177 -37q-128 0 -196 75t-68 207q0 133 68 207.5t173 74.5q98 0 156 -57t66 -168q2 -38 2 -77zM385 320q-3 134 -105 134q-52 0 -83.5 -40t-32.5 -111zM317 589h-84l-154 195h155z" />
    <glyph glyph-name="eacute" unicode="&#xe9;" horiz-adv-x="563" 
d="M506 245l-338 -24q15 -138 149 -138q77 0 141 31l24 -94q-70 -37 -177 -37q-128 0 -196 75t-68 207q0 133 68 207.5t173 74.5q98 0 156 -57t66 -168q2 -38 2 -77zM385 320q-3 134 -105 134q-52 0 -83.5 -40t-32.5 -111zM317 610h-84l84 195h154z" />
    <glyph glyph-name="ecircumflex" unicode="&#xea;" horiz-adv-x="563" 
d="M506 245l-338 -24q15 -138 149 -138q77 0 141 31l24 -94q-70 -37 -177 -37q-128 0 -196 75t-68 207q0 133 68 207.5t173 74.5q98 0 156 -57t66 -168q2 -38 2 -77zM385 320q-3 134 -105 134q-52 0 -83.5 -40t-32.5 -111zM275 670l-105 -89l-56 64l161 158l158 -158
l-54 -64z" />
    <glyph glyph-name="edieresis" unicode="&#xeb;" horiz-adv-x="563" 
d="M506 245l-338 -24q15 -138 149 -138q77 0 141 31l24 -94q-70 -37 -177 -37q-128 0 -196 75t-68 207q0 133 68 207.5t173 74.5q98 0 156 -57t66 -168q2 -38 2 -77zM385 320q-3 134 -105 134q-52 0 -83.5 -40t-32.5 -111zM239 683q0 -33 -20.5 -53t-51.5 -20
q-30 0 -50.5 20t-20.5 53q0 32 20.5 52t50.5 20q31 0 51.5 -20t20.5 -52zM449 683q0 -33 -20.5 -53t-51.5 -20t-51.5 20t-20.5 53q0 32 20.5 52t51.5 20t51.5 -20t20.5 -52z" />
    <glyph glyph-name="igrave" unicode="&#xec;" horiz-adv-x="259" 
d="M192 533v-546h-125v546h125zM172 589h-84l-154 195h155z" />
    <glyph glyph-name="iacute" unicode="&#xed;" horiz-adv-x="259" 
d="M192 533v-546h-125v546h125zM172 610h-84l84 195h154z" />
    <glyph glyph-name="icircumflex" unicode="&#xee;" horiz-adv-x="259" 
d="M192 533v-546h-125v546h125zM130 670l-105 -89l-56 64l161 158l158 -158l-54 -64z" />
    <glyph glyph-name="idieresis" unicode="&#xef;" horiz-adv-x="259" 
d="M192 533v-546h-125v546h125zM94 683q0 -33 -20.5 -53t-51.5 -20q-30 0 -50.5 20t-20.5 53q0 32 20.5 52t50.5 20q31 0 51.5 -20t20.5 -52zM304 683q0 -33 -20.5 -53t-51.5 -20t-51.5 20t-20.5 53q0 32 20.5 52t51.5 20t51.5 -20t20.5 -52z" />
    <glyph glyph-name="eth" unicode="&#xf0;" horiz-adv-x="588" 
d="M38 240q0 122 69 189.5t187 67.5q57 0 109 -33q-10 64 -45 118l-112 -32l-34 67l86 33q-33 36 -83 67l77 77q73 -43 125 -103l123 42l29 -85l-97 -34q75 -127 75 -287q0 -73 -13 -133t-42 -111t-81.5 -79.5t-125.5 -28.5q-115 0 -181 76t-66 189zM418 344q-48 44 -119 44
q-68 0 -100.5 -40.5t-32.5 -106.5q0 -67 31 -110t88 -43q128 0 134 217q0 26 -1 39z" />
    <glyph glyph-name="ntilde" unicode="&#xf1;" horiz-adv-x="577" 
d="M504 -6h-125v282q0 39 -1 58.5t-6 46t-15.5 39t-31 22t-50.5 9.5q-46 0 -84 -12v-445h-126v512q74 40 217 40q59 0 100.5 -14t65 -35.5t36.5 -57t16.5 -67t3.5 -77.5v-301zM353 622q-28 0 -71.5 18.5t-55.5 18.5q-24 0 -49 -50l-74 44q16 42 47 74.5t74 32.5
q30 0 72 -18.5t55 -18.5q24 0 49 50l74 -45q-58 -106 -121 -106z" />
    <glyph glyph-name="ograve" unicode="&#xf2;" 
d="M525 265q0 -127 -64.5 -205t-177.5 -78q-112 0 -177 78t-65 205q0 126 65.5 204t176.5 78q112 0 177 -77.5t65 -204.5zM398 266q0 83 -28.5 134.5t-86.5 51.5t-86.5 -52t-28.5 -134q0 -84 28 -134t87 -50t87 50.5t28 133.5zM326 589h-84l-154 195h155z" />
    <glyph glyph-name="oacute" unicode="&#xf3;" 
d="M525 265q0 -127 -64.5 -205t-177.5 -78q-112 0 -177 78t-65 205q0 126 65.5 204t176.5 78q112 0 177 -77.5t65 -204.5zM398 266q0 83 -28.5 134.5t-86.5 51.5t-86.5 -52t-28.5 -134q0 -84 28 -134t87 -50t87 50.5t28 133.5zM326 610h-84l84 195h154z" />
    <glyph glyph-name="ocircumflex" unicode="&#xf4;" 
d="M525 265q0 -127 -64.5 -205t-177.5 -78q-112 0 -177 78t-65 205q0 126 65.5 204t176.5 78q112 0 177 -77.5t65 -204.5zM398 266q0 83 -28.5 134.5t-86.5 51.5t-86.5 -52t-28.5 -134q0 -84 28 -134t87 -50t87 50.5t28 133.5zM284 670l-105 -89l-56 64l161 158l158 -158
l-54 -64z" />
    <glyph glyph-name="otilde" unicode="&#xf5;" 
d="M525 265q0 -127 -64.5 -205t-177.5 -78q-112 0 -177 78t-65 205q0 126 65.5 204t176.5 78q112 0 177 -77.5t65 -204.5zM398 266q0 83 -28.5 134.5t-86.5 51.5t-86.5 -52t-28.5 -134q0 -84 28 -134t87 -50t87 50.5t28 133.5zM342 600q-28 0 -71 18.5t-56 18.5
q-24 0 -49 -50l-73 44q15 41 46 74t74 33q30 0 72 -18.5t55 -18.5q23 0 50 50l73 -46q-57 -105 -121 -105z" />
    <glyph glyph-name="odieresis" unicode="&#xf6;" 
d="M525 265q0 -127 -64.5 -205t-177.5 -78q-112 0 -177 78t-65 205q0 126 65.5 204t176.5 78q112 0 177 -77.5t65 -204.5zM398 266q0 83 -28.5 134.5t-86.5 51.5t-86.5 -52t-28.5 -134q0 -84 28 -134t87 -50t87 50.5t28 133.5zM248 683q0 -33 -20.5 -53t-51.5 -20
q-30 0 -50.5 20t-20.5 53q0 32 20.5 52t50.5 20q31 0 51.5 -20t20.5 -52zM458 683q0 -33 -20.5 -53t-51.5 -20t-51.5 20t-20.5 53q0 32 20.5 52t51.5 20t51.5 -20t20.5 -52z" />
    <glyph glyph-name="divide" unicode="&#xf7;" horiz-adv-x="566" 
d="M361 511q0 -35 -22.5 -57t-56.5 -22t-57 22t-23 56q0 35 23 57t57 22q33 0 56 -22t23 -56zM361 102q0 -35 -22.5 -57t-56.5 -22t-57 22t-23 56q0 35 23 57.5t57 22.5q33 0 56 -22.5t23 -56.5zM525 251h-485v106h485v-106z" />
    <glyph glyph-name="oslash" unicode="&#xf8;" 
d="M554 261q0 -129 -71 -207.5t-187 -78.5q-77 0 -133 37l-49 -66l-75 56l55 71q-56 73 -56 188q0 127 72.5 206t185.5 79q78 0 134 -38l22 29l28 36l74 -55l-55 -71q55 -75 55 -186zM164 265q3 -40 25 -68l168 217q-33 23 -72 20q-56 -5 -88 -50t-33 -119zM429 255
q-5 43 -26 67l-168 -217q30 -21 73 -19q56 5 88 50t33 119z" />
    <glyph glyph-name="ugrave" unicode="&#xf9;" horiz-adv-x="577" 
d="M497 25q-72 -42 -215 -42q-122 0 -171 61t-49 178v314h126v-279q0 -93 18.5 -134t82.5 -41q55 0 83 13v441h125v-511zM330 589h-84l-154 195h155z" />
    <glyph glyph-name="uacute" unicode="&#xfa;" horiz-adv-x="577" 
d="M497 25q-72 -42 -215 -42q-122 0 -171 61t-49 178v314h126v-279q0 -93 18.5 -134t82.5 -41q55 0 83 13v441h125v-511zM330 610h-84l84 195h154z" />
    <glyph glyph-name="ucircumflex" unicode="&#xfb;" horiz-adv-x="577" 
d="M497 25q-72 -42 -215 -42q-122 0 -171 61t-49 178v314h126v-279q0 -93 18.5 -134t82.5 -41q55 0 83 13v441h125v-511zM288 670l-105 -89l-56 64l161 158l158 -158l-54 -64z" />
    <glyph glyph-name="udieresis" unicode="&#xfc;" horiz-adv-x="577" 
d="M497 25q-72 -42 -215 -42q-122 0 -171 61t-49 178v314h126v-279q0 -93 18.5 -134t82.5 -41q55 0 83 13v441h125v-511zM252 683q0 -33 -20.5 -53t-51.5 -20q-30 0 -50.5 20t-20.5 53q0 32 20.5 52t50.5 20q31 0 51.5 -20t20.5 -52zM462 683q0 -33 -20.5 -53t-51.5 -20
t-51.5 20t-20.5 53q0 32 20.5 52t51.5 20t51.5 -20t20.5 -52z" />
    <glyph glyph-name="yacute" unicode="&#xfd;" horiz-adv-x="523" 
d="M503 536q-95 -333 -195 -599q-25 -61 -54 -89t-77 -28q-41 0 -111 29l25 83q43 -20 58 -20q16 0 28.5 14t18 29.5t11.5 37.5q1 5 2 8q-111 268 -191 535h133q40 -162 95 -324q21 -75 24 -81q2 2 5 14.5t8.5 33.5l8.5 33q37 120 89 324h122zM305 610h-84l84 195h154z" />
    <glyph glyph-name="thorn" unicode="&#xfe;" 
d="M67 770l125 21v-263q47 16 93 16q122 0 195.5 -77.5t73.5 -206.5q0 -128 -65 -206t-180 -78q-61 0 -117 29v-203h-125v968zM192 417v-298q46 -30 101 -30q132 0 132 169q0 81 -39.5 127t-106.5 46q-51 0 -87 -14z" />
    <glyph glyph-name="ydieresis" unicode="&#xff;" horiz-adv-x="523" 
d="M503 536q-95 -333 -195 -599q-25 -61 -54 -89t-77 -28q-41 0 -111 29l25 83q43 -20 58 -20q16 0 28.5 14t18 29.5t11.5 37.5q1 5 2 8q-111 268 -191 535h133q40 -162 95 -324q21 -75 24 -81q2 2 5 14.5t8.5 33.5l8.5 33q37 120 89 324h122zM226 683q0 -33 -20.5 -53
t-51.5 -20q-30 0 -50.5 20t-20.5 53q0 32 20.5 52t50.5 20q31 0 51.5 -20t20.5 -52zM436 683q0 -33 -20.5 -53t-51.5 -20t-51.5 20t-20.5 53q0 32 20.5 52t51.5 20t51.5 -20t20.5 -52z" />
    <glyph glyph-name="Amacron" unicode="&#x100;" horiz-adv-x="675" 
d="M646 -6h-139l-56 173h-255q-43 -122 -58 -173h-126q152 442 257 702h119q89 -222 258 -702zM424 260l-74 221q-5 15 -10.5 33.5t-9 29t-6.5 15.5q-4 -9 -15 -46q-14 -45 -44.5 -131.5t-41.5 -121.5h201zM470 787h-314v100h314v-100z" />
    <glyph glyph-name="amacron" unicode="&#x101;" horiz-adv-x="527" 
d="M462 16q-82 -32 -208 -32q-220 0 -220 171q0 167 243 183q21 2 64 -1q-2 58 -24.5 86.5t-79.5 28.5q-71 0 -139 -29l-22 90q75 34 177 34q192 0 206 -170q3 -32 3 -63v-298zM341 81v175q-32 4 -67 1q-56 -7 -87 -29t-31 -70q0 -86 107 -86q48 0 78 9zM421 627h-314v100
h314v-100z" />
    <glyph glyph-name="Abreve" unicode="&#x102;" horiz-adv-x="675" 
d="M646 -6h-139l-56 173h-255q-43 -122 -58 -173h-126q152 442 257 702h119q89 -222 258 -702zM424 260l-74 221q-5 15 -10.5 33.5t-9 29t-6.5 15.5q-4 -9 -15 -46q-14 -45 -44.5 -131.5t-41.5 -121.5h201zM313 763q-71 0 -112.5 45t-38.5 127h91q4 -74 60 -74t60 74h92
q0 -84 -40 -128t-112 -44z" />
    <glyph glyph-name="abreve" unicode="&#x103;" horiz-adv-x="527" 
d="M462 16q-82 -32 -208 -32q-220 0 -220 171q0 167 243 183q21 2 64 -1q-2 58 -24.5 86.5t-79.5 28.5q-71 0 -139 -29l-22 90q75 34 177 34q192 0 206 -170q3 -32 3 -63v-298zM341 81v175q-32 4 -67 1q-56 -7 -87 -29t-31 -70q0 -86 107 -86q48 0 78 9zM264 604
q-71 0 -112.5 45t-38.5 127h91q4 -74 60 -74t60 74h92q0 -84 -40 -128t-112 -44z" />
    <glyph glyph-name="Aogonek" unicode="&#x104;" horiz-adv-x="675" 
d="M646 -6h-139l-56 173h-255q-43 -122 -58 -173h-126q152 442 257 702h119q89 -222 258 -702zM424 260l-74 221q-5 15 -10.5 33.5t-9 29t-6.5 15.5q-4 -9 -15 -46q-14 -45 -44.5 -131.5t-41.5 -121.5h201zM545 -213q-122 0 -122 91q0 76 102 146h99q-25 -47 -26 -49
q-1 0 -3.5 -1.5t-3.5 -2.5q2 1 3 1q-50 -50 -52 -65q1 -20 30 -20q22 2 48 11l11 -95q-40 -16 -86 -16z" />
    <glyph glyph-name="aogonek" unicode="&#x105;" horiz-adv-x="527" 
d="M250 546q123 0 169.5 -61t46.5 -176v-304q-24 -20 -38 -33q1 0 3 2l-12 -12.5l-14 -14.5t-11.5 -13t-9.5 -14.5t-4 -12.5q3 -21 33 -19q22 2 45 10l11 -95q-27 -11 -70 -15q-23 -1 -43 2q-70 7 -86 57q-9 31 4 69q11 32 43 64q-40 -4 -69 -4q-218 0 -218 180
q0 89 64 131.5t168 42.5q48 0 80 -10q-6 23 -29 32q-5 37 -24 60t-65 22q-67 -1 -126 -23l-16 108q69 27 168 27zM258 84q58 0 85 5v131q-23 7 -43 8q-20 2 -36 2q-108 -2 -108 -73q0 -73 102 -73z" />
    <glyph glyph-name="Cacute" unicode="&#x106;" horiz-adv-x="625" 
d="M538 27q-67 -45 -187 -45q-141 0 -222.5 99.5t-81.5 263.5q0 160 85 262t221 102q113 0 181 -47l-34 -95q-59 36 -129 36q-63 0 -107 -36t-61 -102q-21 -59 -19 -135q3 -89 37.5 -151.5t99.5 -79.5q28 -9 64 -7q64 2 119 31zM378 775h-84l84 195h154z" />
    <glyph glyph-name="cacute" unicode="&#x107;" horiz-adv-x="477" 
d="M426 18q-56 -35 -143 -35q-114 0 -178 76t-64 206q0 128 66 205t174 77q81 0 140 -34l-29 -89q-44 24 -93 24q-65 0 -97.5 -47.5t-32.5 -134.5q0 -86 33 -134t101 -48q52 0 97 27zM309 626h-84l84 195h154z" />
    <glyph glyph-name="Ccircumflex" unicode="&#x108;" horiz-adv-x="625" 
d="M538 27q-67 -45 -187 -45q-141 0 -222.5 99.5t-81.5 263.5q0 160 85 262t221 102q113 0 181 -47l-34 -95q-59 36 -129 36q-63 0 -107 -36t-61 -102q-21 -59 -19 -135q3 -89 37.5 -151.5t99.5 -79.5q28 -9 64 -7q64 2 119 31zM336 836l-105 -89l-56 64l161 158l158 -158
l-54 -64z" />
    <glyph glyph-name="ccircumflex" unicode="&#x109;" horiz-adv-x="477" 
d="M426 18q-56 -35 -143 -35q-114 0 -178 76t-64 206q0 128 66 205t174 77q81 0 140 -34l-29 -89q-44 24 -93 24q-65 0 -97.5 -47.5t-32.5 -134.5q0 -86 33 -134t101 -48q52 0 97 27zM267 686l-105 -89l-56 64l161 158l158 -158l-54 -64z" />
    <glyph glyph-name="Cdotaccent" unicode="&#x10a;" horiz-adv-x="625" 
d="M538 27q-67 -45 -187 -45q-141 0 -222.5 99.5t-81.5 263.5q0 160 85 262t221 102q113 0 181 -47l-34 -95q-59 36 -129 36q-63 0 -107 -36t-61 -102q-21 -59 -19 -135q3 -89 37.5 -151.5t99.5 -79.5q28 -9 64 -7q64 2 119 31zM334 762q-32 0 -53 20t-21 54t21 54t53 20
q31 0 52 -20t21 -54t-21 -54t-52 -20z" />
    <glyph glyph-name="cdotaccent" unicode="&#x10b;" horiz-adv-x="477" 
d="M426 18q-56 -35 -143 -35q-114 0 -178 76t-64 206q0 128 66 205t174 77q81 0 140 -34l-29 -89q-44 24 -93 24q-65 0 -97.5 -47.5t-32.5 -134.5q0 -86 33 -134t101 -48q52 0 97 27zM265 612q-32 0 -53 20t-21 54t21 54t53 20q31 0 52 -20t21 -54t-21 -54t-52 -20z" />
    <glyph glyph-name="Ccaron" unicode="&#x10c;" horiz-adv-x="625" 
d="M538 27q-67 -45 -187 -45q-141 0 -222.5 99.5t-81.5 263.5q0 160 85 262t221 102q113 0 181 -47l-34 -95q-59 36 -129 36q-63 0 -107 -36t-61 -102q-21 -59 -19 -135q3 -89 37.5 -151.5t99.5 -79.5q28 -9 64 -7q64 2 119 31zM231 985l104 -89l104 89l57 -64l-161 -158
l-159 158z" />
    <glyph glyph-name="ccaron" unicode="&#x10d;" horiz-adv-x="477" 
d="M426 18q-56 -35 -143 -35q-114 0 -178 76t-64 206q0 128 66 205t174 77q81 0 140 -34l-29 -89q-44 24 -93 24q-65 0 -97.5 -47.5t-32.5 -134.5q0 -86 33 -134t101 -48q52 0 97 27zM162 835l104 -89l104 89l57 -64l-161 -158l-159 158z" />
    <glyph glyph-name="Dcaron" unicode="&#x10e;" horiz-adv-x="717" 
d="M616 347q0 -170 -90.5 -266t-256.5 -96q-113 0 -198 29v661q88 30 196 30q167 0 258 -93t91 -265zM482 349q0 256 -210 256q-41 0 -71 -7v-503q23 -7 71 -7q210 0 210 261zM205 985l104 -89l104 89l57 -64l-161 -158l-159 158z" />
    <glyph glyph-name="dcaron" unicode="&#x10f;" horiz-adv-x="691" 
d="M526 785v-766q-88 -37 -212 -37q-125 0 -199 73.5t-74 205.5q0 126 65 202.5t177 76.5q67 0 114 -28v259q86 10 129 14zM397 93v319q-43 29 -94 29q-131 0 -131 -177q0 -87 38 -133.5t105 -46.5q48 0 82 9zM583 789h120l-32 -254h-88v254z" />
    <glyph glyph-name="Dcroat" unicode="&#x110;" horiz-adv-x="729" 
d="M685 347q0 -180 -108 -273.5t-293 -93.5q-109 0 -198 21v308h-80v105h80v278q88 20 200 20q185 0 292 -91.5t107 -273.5zM216 309v-209q36 -4 76 -4q127 0 192.5 66t65.5 185q0 120 -64.5 185t-191.5 65q-38 0 -78 -4v-179h130v-105h-130z" />
    <glyph glyph-name="dcroat" unicode="&#x111;" horiz-adv-x="593" 
d="M525 791v-95h73v-94h-73v-595q-100 -32 -212 -32q-126 0 -200.5 76t-74.5 205q0 127 66 204.5t181 77.5q61 0 115 -28v92h-166v94h166v74zM400 96v300q-46 30 -102 30q-68 0 -99.5 -45t-31.5 -122q0 -80 39.5 -125.5t107.5 -45.5q52 0 86 8z" />
    <glyph glyph-name="Emacron" unicode="&#x112;" horiz-adv-x="576" 
d="M480 -6h-409v702h396v-101h-265v-189h235v-101h-235v-210h278v-101zM432 787h-314v100h314v-100z" />
    <glyph glyph-name="emacron" unicode="&#x113;" horiz-adv-x="563" 
d="M506 245l-338 -24q15 -138 149 -138q77 0 141 31l24 -94q-70 -37 -177 -37q-128 0 -196 75t-68 207q0 133 68 207.5t173 74.5q98 0 156 -57t66 -168q2 -38 2 -77zM385 320q-3 134 -105 134q-52 0 -83.5 -40t-32.5 -111zM431 621h-314v100h314v-100z" />
    <glyph glyph-name="Ebreve" unicode="&#x114;" horiz-adv-x="576" 
d="M480 -6h-409v702h396v-101h-265v-189h235v-101h-235v-210h278v-101zM275 763q-71 0 -112.5 45t-38.5 127h91q4 -74 60 -74t60 74h92q0 -84 -40 -128t-112 -44z" />
    <glyph glyph-name="ebreve" unicode="&#x115;" horiz-adv-x="563" 
d="M506 245l-338 -24q15 -138 149 -138q77 0 141 31l24 -94q-70 -37 -177 -37q-128 0 -196 75t-68 207q0 133 68 207.5t173 74.5q98 0 156 -57t66 -168q2 -38 2 -77zM385 320q-3 134 -105 134q-52 0 -83.5 -40t-32.5 -111zM274 598q-71 0 -112.5 45t-38.5 127h91
q4 -74 60 -74t60 74h92q0 -84 -40 -128t-112 -44z" />
    <glyph glyph-name="Edotaccent" unicode="&#x116;" horiz-adv-x="576" 
d="M480 -6h-409v702h396v-101h-265v-189h235v-101h-235v-210h278v-101zM274 762q-32 0 -53 20t-21 54t21 54t53 20q31 0 52 -20t21 -54t-21 -54t-52 -20z" />
    <glyph glyph-name="edotaccent" unicode="&#x117;" horiz-adv-x="563" 
d="M506 245l-338 -24q15 -138 149 -138q77 0 141 31l24 -94q-70 -37 -177 -37q-128 0 -196 75t-68 207q0 133 68 207.5t173 74.5q98 0 156 -57t66 -168q2 -38 2 -77zM385 320q-3 134 -105 134q-52 0 -83.5 -40t-32.5 -111zM273 596q-32 0 -53 20t-21 54t21 54t53 20
q31 0 52 -20t21 -54t-21 -54t-52 -20z" />
    <glyph glyph-name="Eogonek" unicode="&#x118;" horiz-adv-x="576" 
d="M417 -13h-70h-274v719h454v-115h-324v-172h288v-112h-288v-205h349v-107q-74 -57 -77 -88q3 -21 34 -19q21 2 44 10l11 -95q-40 -16 -87 -16q-121 0 -121 91q0 58 61 109z" />
    <glyph glyph-name="eogonek" unicode="&#x119;" horiz-adv-x="563" 
d="M38 259q0 136 74 211.5t176 75.5q111 0 173 -69.5t62 -203.5q0 -9 -1.5 -27t-1.5 -27h-347q14 -115 122 -128q20 -3 47 -1q65 2 128 30l19 -107q-99 -72 -101 -106q3 -21 34 -19q21 2 44 10l11 -95q-42 -16 -87 -16q-105 0 -118 70q-3 24 3 47q12 40 49 75q-37 0 -54 3
q-117 12 -174.5 86t-57.5 191zM173 319h222q-4 56 -31 86.5t-75 30.5t-79 -33.5t-37 -83.5z" />
    <glyph glyph-name="Ecaron" unicode="&#x11a;" horiz-adv-x="576" 
d="M480 -6h-409v702h396v-101h-265v-189h235v-101h-235v-210h278v-101zM171 985l104 -89l104 89l57 -64l-161 -158l-159 158z" />
    <glyph glyph-name="ecaron" unicode="&#x11b;" horiz-adv-x="563" 
d="M506 245l-338 -24q15 -138 149 -138q77 0 141 31l24 -94q-70 -37 -177 -37q-128 0 -196 75t-68 207q0 133 68 207.5t173 74.5q98 0 156 -57t66 -168q2 -38 2 -77zM385 320q-3 134 -105 134q-52 0 -83.5 -40t-32.5 -111zM170 819l104 -89l104 89l57 -64l-161 -158
l-159 158z" />
    <glyph glyph-name="Gcircumflex" unicode="&#x11c;" horiz-adv-x="676" 
d="M579 21q-78 -39 -212 -39q-147 0 -234 96t-87 269q0 168 91.5 265t234.5 97q120 0 201 -47l-40 -95q-54 32 -137 35q-103 4 -159.5 -62t-56.5 -196q0 -123 50.5 -191.5t139.5 -68.5q58 0 82 12v188h-70v102h197v-365zM364 836l-105 -89l-56 64l161 158l158 -158l-54 -64z
" />
    <glyph glyph-name="gcircumflex" unicode="&#x11d;" horiz-adv-x="582" 
d="M499 18q0 -231 -243 -231q-104 0 -186 35l29 97q55 -27 123 -31q59 -1 95 22q60 25 60 93v25q-43 -24 -107 -24q-103 0 -166 68.5t-63 192.5q0 128 69.5 204.5t195.5 76.5q116 0 193 -35v-493zM376 118v326q-23 10 -73 10q-66 0 -100.5 -49t-34.5 -136t32.5 -130.5
t92.5 -43.5q49 0 83 23zM301 670l-105 -89l-56 64l161 158l158 -158l-54 -64z" />
    <glyph glyph-name="Gbreve" unicode="&#x11e;" horiz-adv-x="676" 
d="M579 21q-78 -39 -212 -39q-147 0 -234 96t-87 269q0 168 91.5 265t234.5 97q120 0 201 -47l-40 -95q-54 32 -137 35q-103 4 -159.5 -62t-56.5 -196q0 -123 50.5 -191.5t139.5 -68.5q58 0 82 12v188h-70v102h197v-365zM363 763q-71 0 -112.5 45t-38.5 127h91q4 -74 60 -74
t60 74h92q0 -84 -40 -128t-112 -44z" />
    <glyph glyph-name="gbreve" unicode="&#x11f;" horiz-adv-x="582" 
d="M499 18q0 -231 -243 -231q-104 0 -186 35l29 97q55 -27 123 -31q59 -1 95 22q60 25 60 93v25q-43 -24 -107 -24q-103 0 -166 68.5t-63 192.5q0 128 69.5 204.5t195.5 76.5q116 0 193 -35v-493zM376 118v326q-23 10 -73 10q-66 0 -100.5 -49t-34.5 -136t32.5 -130.5
t92.5 -43.5q49 0 83 23zM299 598q-71 0 -112.5 45t-38.5 127h91q4 -74 60 -74t60 74h92q0 -84 -40 -128t-112 -44z" />
    <glyph glyph-name="Gdotaccent" unicode="&#x120;" horiz-adv-x="676" 
d="M579 21q-78 -39 -212 -39q-147 0 -234 96t-87 269q0 168 91.5 265t234.5 97q120 0 201 -47l-40 -95q-54 32 -137 35q-103 4 -159.5 -62t-56.5 -196q0 -123 50.5 -191.5t139.5 -68.5q58 0 82 12v188h-70v102h197v-365zM363 762q-32 0 -53 20t-21 54t21 54t53 20
q31 0 52 -20t21 -54t-21 -54t-52 -20z" />
    <glyph glyph-name="gdotaccent" unicode="&#x121;" horiz-adv-x="582" 
d="M499 18q0 -231 -243 -231q-104 0 -186 35l29 97q55 -27 123 -31q59 -1 95 22q60 25 60 93v25q-43 -24 -107 -24q-103 0 -166 68.5t-63 192.5q0 128 69.5 204.5t195.5 76.5q116 0 193 -35v-493zM376 118v326q-23 10 -73 10q-66 0 -100.5 -49t-34.5 -136t32.5 -130.5
t92.5 -43.5q49 0 83 23zM299 596q-32 0 -53 20t-21 54t21 54t53 20q31 0 52 -20t21 -54t-21 -54t-52 -20z" />
    <glyph glyph-name="Gcommaaccent" unicode="&#x122;" horiz-adv-x="676" 
d="M465 100q4 40 10 130q-1 4 -5 13t-5 13v106h140v-343q-83 -38 -225 -38q-155 0 -244 97.5t-89 268.5q0 167 95 266t246 99q130 0 215 -52l-42 -101q-55 36 -152 41q-104 4 -164.5 -61.5t-60.5 -191.5q0 -122 51.5 -189.5t149.5 -67.5q60 0 80 10zM328 -67v26h109
q4 -17 4 -31v-20q-3 -58 -36.5 -87.5t-85.5 -32.5h-23q-27 2 -41 8v81q38 0 55.5 12.5t17.5 43.5z" />
    <glyph glyph-name="gcommaaccent" unicode="&#x123;" horiz-adv-x="582" 
d="M389 15l-15 23q-35 -26 -97 -26q-104 0 -170 65.5t-66 190.5q0 123 71.5 197.5t197.5 74.5q119 0 206 -33v-477q0 -122 -64.5 -177.5t-192.5 -55.5q-102 0 -189 32l27 104q56 -25 131 -30q66 -2 101 19q57 21 60 93zM389 137v295q-29 9 -81 9q-65 0 -100.5 -45.5
t-35.5 -124.5q0 -81 34.5 -121t88.5 -40q58 0 94 27zM245 606q-4 82 33 129.5t98 63.5l46 -69q-33 -20 -48.5 -43t-15.5 -66v-26h-112q-1 3 -1 11z" />
    <glyph glyph-name="Hcircumflex" unicode="&#x124;" horiz-adv-x="710" 
d="M590 -6h-130v311h-258v-311h-131v702h131v-291h258v291h130v-702zM330 836l-105 -89l-56 64l161 158l158 -158l-54 -64z" />
    <glyph glyph-name="hcircumflex" unicode="&#x125;" horiz-adv-x="577" 
d="M504 -6h-125v280q0 38 -1 60t-6.5 47t-16.5 38t-30.5 21.5t-48.5 8.5q-53 0 -85 -17v-438h-126v786h126v-258q49 21 96 21q58 2 99 -11.5t63.5 -35t35.5 -58t16 -68t3 -76.5v-300zM289 883l-104 -90l-56 65l160 158l159 -158l-54 -65z" />
    <glyph glyph-name="Hbar" unicode="&#x126;" horiz-adv-x="735" 
d="M730 507h-81v-520h-130v313h-303v-313h-130v520h-80v103h80v96h130v-96h303v96h130v-96h81v-103zM519 416v91h-303v-91h303z" />
    <glyph glyph-name="hbar" unicode="&#x127;" horiz-adv-x="582" 
d="M196 -13h-125v615h-73v94h73v74l125 21v-95h169v-94h-169v-81q51 17 99 17q124 0 174.5 -65t50.5 -187v-299h-125v279q0 89 -24 124t-88 35q-51 0 -87 -15v-423z" />
    <glyph glyph-name="Itilde" unicode="&#x128;" horiz-adv-x="277" 
d="M203 -6h-131v702h131v-702zM195 765q-28 0 -71 18.5t-56 18.5q-24 0 -49 -50l-73 44q15 41 46 74t74 33q30 0 72 -18.5t55 -18.5q23 0 50 50l73 -46q-57 -105 -121 -105z" />
    <glyph glyph-name="itilde" unicode="&#x129;" horiz-adv-x="259" 
d="M192 533v-546h-125v546h125zM188 587q-28 0 -71 18.5t-56 18.5q-24 0 -49 -50l-73 44q15 41 46 74t74 33q30 0 72 -18.5t55 -18.5q23 0 50 50l73 -46q-57 -105 -121 -105z" />
    <glyph glyph-name="Imacron" unicode="&#x12a;" horiz-adv-x="277" 
d="M203 -6h-131v702h131v-702zM293 787h-314v100h314v-100z" />
    <glyph glyph-name="imacron" unicode="&#x12b;" horiz-adv-x="259" 
d="M192 533v-546h-125v546h125zM286 621h-314v100h314v-100z" />
    <glyph glyph-name="Ibreve" unicode="&#x12c;" horiz-adv-x="277" 
d="M203 -6h-131v702h131v-702zM136 763q-71 0 -112.5 45t-38.5 127h91q4 -74 60 -74t60 74h92q0 -84 -40 -128t-112 -44z" />
    <glyph glyph-name="ibreve" unicode="&#x12d;" horiz-adv-x="259" 
d="M192 533v-546h-125v546h125zM129 598q-71 0 -112.5 45t-38.5 127h91q4 -74 60 -74t60 74h92q0 -84 -40 -128t-112 -44z" />
    <glyph glyph-name="Iogonek" unicode="&#x12e;" horiz-adv-x="277" 
d="M203 706v-712q-72 -63 -74 -87q3 -21 34 -19q21 2 44 10l11 -95q-40 -16 -87 -16q-121 0 -121 91q0 60 63 113v715h130z" />
    <glyph glyph-name="iogonek" unicode="&#x12f;" horiz-adv-x="259" 
d="M192 533v-539q-4 -3 -19 -17t-20.5 -19.5t-15 -16.5t-13.5 -19t-4 -15q1 -21 33 -19q22 2 45 10l11 -95q-42 -16 -87 -16q-122 0 -122 91q0 56 67 117v538h125zM207 675q0 -36 -22.5 -57t-55.5 -21t-55.5 21t-22.5 57t22.5 57.5t55.5 21.5t55.5 -21.5t22.5 -57.5z" />
    <glyph glyph-name="Idotaccent" unicode="&#x130;" horiz-adv-x="277" 
d="M74 -6v704h134v-704h-134zM138 758q-31 0 -52 20.5t-21 54.5q0 33 21 53.5t52 20.5t52.5 -20.5t21.5 -53.5q0 -34 -21 -54.5t-53 -20.5z" />
    <glyph glyph-name="dotlessi" unicode="&#x131;" horiz-adv-x="259" 
d="M192 533v-546h-125v546h125z" />
    <glyph glyph-name="IJ" unicode="&#x132;" horiz-adv-x="780" 
d="M74 -6v704h134v-704h-134zM669 698v-509q0 -242 -225 -251q-98 -1 -177 48l34 102q73 -38 132 -22q54 11 78.5 50.5t24.5 117.5v464h133z" />
    <glyph glyph-name="ij" unicode="&#x133;" horiz-adv-x="517" 
d="M462 684q0 -31 -21 -51t-52 -20t-52 20t-21 51q0 30 21 50t52 20q30 0 51.5 -20t21.5 -50zM452 29q0 -203 -167 -230q-30 -9 -79 -2l9 79q58 12 84 44t27 102v514h126v-507zM203 684q0 -31 -21 -51t-52 -20t-52.5 20t-21.5 51q0 30 21.5 50t52.5 20q30 0 51.5 -20
t21.5 -50zM193 -6h-126v542h126v-542z" />
    <glyph glyph-name="Jcircumflex" unicode="&#x134;" horiz-adv-x="505" 
d="M320 131q0 -104 -49 -168t-150 -76q-70 -6 -144 22l25 98q63 -19 108 5q47 19 63.5 62.5t16.5 127.5v38v456h130v-565zM256 836l-105 -89l-56 64l161 158l158 -158l-54 -64z" />
    <glyph glyph-name="jcircumflex" unicode="&#x135;" horiz-adv-x="259" 
d="M2 -199q-41 0 -83 16l17 107q34 -12 60 -12q40 0 55.5 23.5t15.5 75.5v522h125v-522q0 -107 -46.5 -158.5t-143.5 -51.5zM129 670l-105 -89l-56 64l161 158l158 -158l-54 -64z" />
    <glyph glyph-name="Kcommaaccent" unicode="&#x136;" horiz-adv-x="635" 
d="M634 -6h-109l-45 3q-53 89 -126.5 175t-145.5 143v-321h-134v704h134v-296q137 134 255 296h153q-118 -144 -290 -328q80 -68 168.5 -175t139.5 -201zM288 -67v26h110q1 -8 2.5 -18.5t1.5 -12.5q0 -16 -1 -20q-3 -58 -36.5 -87.5t-85.5 -32.5h-23q-25 2 -41 8v81
q39 0 56 12.5t17 43.5z" />
    <glyph glyph-name="kcommaaccent" unicode="&#x137;" horiz-adv-x="530" 
d="M231 -67v26h109q1 -8 2.5 -18.5t1.5 -12.5q0 -16 -1 -20q-3 -58 -36.5 -87.5t-84.5 -32.5h-24q-25 2 -41 8v81q39 0 56.5 12.5t17.5 43.5zM524 -6h-142q-5 7 -30.5 46.5t-41 61.5l-39.5 55t-43.5 55t-35.5 34v-252h-125v786h125v-463q101 120 177 219h140l-210 -247
q123 -133 225 -295z" />
    <glyph glyph-name="kgreenlandic" unicode="&#x138;" horiz-adv-x="538" 
d="M192 -13h-125v546h125v-201q126 128 189 201h153q-119 -137 -240 -252q65 -52 136 -135.5t114 -158.5h-144q-40 62 -98 124.5t-110 101.5v-226z" />
    <glyph glyph-name="Lacute" unicode="&#x139;" horiz-adv-x="528" 
d="M456 -6h-384v702h131v-601h253v-101zM181 775h-84l84 195h154z" />
    <glyph glyph-name="lacute" unicode="&#x13a;" horiz-adv-x="320" 
d="M290 52l-22 -66q-114 6 -157.5 50t-43.5 145v599h126v-551q0 -70 10 -104.5t27.5 -47.5t59.5 -25zM173 857h-84l84 195h154z" />
    <glyph glyph-name="Lcommaaccent" unicode="&#x13b;" horiz-adv-x="528" 
d="M208 101h283v-107h-417v704h134v-597zM255 -67v26h110q1 -8 2.5 -18.5t1.5 -12.5q0 -5 -0.5 -12t-0.5 -8q-3 -58 -36.5 -87.5t-85.5 -32.5h-23q-25 2 -41 8v81q38 0 55.5 12.5t17.5 43.5z" />
    <glyph glyph-name="lcommaaccent" unicode="&#x13c;" horiz-adv-x="281" 
d="M103 -67v26h109q4 -26 4 -31q0 -16 -1 -20q-3 -58 -36.5 -87.5t-84.5 -32.5h-24q-26 2 -40 8v81q38 0 55.5 12.5t17.5 43.5zM290 52l-22 -66q-114 6 -157.5 50t-43.5 145v599h126v-551q0 -70 10 -104.5t27.5 -47.5t59.5 -25z" />
    <glyph glyph-name="Lcaron" unicode="&#x13d;" horiz-adv-x="528" 
d="M208 101h283v-107h-417v704h134v-597zM278 707h120l-32 -254h-88v254z" />
    <glyph glyph-name="lcaron" unicode="&#x13e;" horiz-adv-x="405" 
d="M258 786h120l-31 -254h-89v254zM290 52l-22 -66q-114 6 -157.5 50t-43.5 145v599h126v-551q0 -70 10 -104.5t27.5 -47.5t59.5 -25z" />
    <glyph glyph-name="Ldot" unicode="&#x13f;" horiz-adv-x="528" 
d="M208 101h283v-107h-417v704h134v-597zM408 307q-32 0 -55 22t-23 57q0 36 22.5 58t55.5 22t56 -22t23 -57q0 -36 -23 -58t-56 -22z" />
    <glyph glyph-name="ldot" unicode="&#x140;" horiz-adv-x="320" 
d="M290 52l-22 -66q-114 6 -157.5 50t-43.5 145v599h126v-551q0 -70 10 -104.5t27.5 -47.5t59.5 -25zM129 844q-32 0 -53 20t-21 54t21 54t53 20q31 0 52 -20t21 -54t-21 -54t-52 -20z" />
    <glyph glyph-name="Lslash" unicode="&#x141;" horiz-adv-x="549" 
d="M224 439q17 8 54.5 28t56.5 29l44 -93l-155 -80v-220h319v-116h-449v270l-64 -32l-46 93l110 56v332h130v-267z" />
    <glyph glyph-name="lslash" unicode="&#x142;" horiz-adv-x="301" 
d="M206 494l65 33l43 -89l-108 -55v-225q0 -39 16.5 -53.5t64.5 -19.5l-18 -108q-88 4 -131 33t-51 93q-7 46 -7 105v111l-50 -26l-43 89l93 48v350h126v-286z" />
    <glyph glyph-name="Nacute" unicode="&#x143;" horiz-adv-x="729" 
d="M618 -6h-75l-34 3q-111 194 -277 441q-7 11 -17.5 29t-17 28t-8.5 10q0 -12 1 -79.5t1 -104.5v-327h-120v702h113q157 -215 278 -412q7 -11 15.5 -26.5t14 -24.5t8.5 -12q0 23 -1 108.5t-1 128.5v238h120v-702zM394 775h-84l84 195h154z" />
    <glyph glyph-name="nacute" unicode="&#x144;" horiz-adv-x="577" 
d="M504 -6h-125v282q0 39 -1 58.5t-6 46t-15.5 39t-31 22t-50.5 9.5q-46 0 -84 -12v-445h-126v512q74 40 217 40q59 0 100.5 -14t65 -35.5t36.5 -57t16.5 -67t3.5 -77.5v-301zM318 610h-84l84 195h154z" />
    <glyph glyph-name="Ncommaaccent" unicode="&#x145;" horiz-adv-x="729" 
d="M635 -6h-75l-33 3q-61 106 -170 269.5t-160 219.5q0 -31 0.5 -98t0.5 -102v-292h-124v704h107q139 -162 278 -374q12 -18 31 -50t20 -34v205v253h125v-704zM317 -67v26h110q1 -8 2.5 -18.5t1.5 -12.5q0 -5 -0.5 -12t-0.5 -8q-3 -58 -36.5 -87.5t-85.5 -32.5h-23
q-25 2 -41 8v81q38 0 55.5 12.5t17.5 43.5z" />
    <glyph glyph-name="ncommaaccent" unicode="&#x146;" horiz-adv-x="577" 
d="M68 -6v509q81 37 221 37q133 0 182 -63t49 -189v-294h-128v269q0 97 -22.5 136t-87.5 39q-56 0 -85 -9v-435h-129zM237 -67v26h110q1 -8 2.5 -18.5t1.5 -12.5q0 -16 -1 -20q-3 -58 -36.5 -87.5t-85.5 -32.5h-23q-25 2 -41 8v81q39 0 56 12.5t17 43.5z" />
    <glyph glyph-name="Ncaron" unicode="&#x147;" horiz-adv-x="729" 
d="M618 -6h-75l-34 3q-111 194 -277 441q-7 11 -17.5 29t-17 28t-8.5 10q0 -12 1 -79.5t1 -104.5v-327h-120v702h113q157 -215 278 -412q7 -11 15.5 -26.5t14 -24.5t8.5 -12q0 23 -1 108.5t-1 128.5v238h120v-702zM247 985l104 -89l104 89l57 -64l-161 -158l-159 158z" />
    <glyph glyph-name="ncaron" unicode="&#x148;" horiz-adv-x="577" 
d="M504 -6h-125v282q0 39 -1 58.5t-6 46t-15.5 39t-31 22t-50.5 9.5q-46 0 -84 -12v-445h-126v512q74 40 217 40q59 0 100.5 -14t65 -35.5t36.5 -57t16.5 -67t3.5 -77.5v-301zM171 819l104 -89l104 89l57 -64l-161 -158l-159 158z" />
    <glyph glyph-name="napostrophe" unicode="&#x149;" horiz-adv-x="590" 
d="M81 -6v509q81 37 221 37q132 0 181.5 -63t49.5 -189v-294h-129v269q0 97 -22 136t-87 39q-57 0 -86 -9v-435h-128zM29 789h114q0 -1 4.5 -13.5t6.5 -19.5q-3 -61 -20.5 -109.5t-52.5 -104.5l-90 30q44 93 44 165q0 29 -6 52z" />
    <glyph glyph-name="Eng" unicode="&#x14a;" horiz-adv-x="729" 
d="M526 -13v37q-57 100 -153.5 240t-170.5 230v-507h-129v719h102q83 -90 184.5 -226.5t166.5 -244.5v471h130v-714q0 -84 -27.5 -131t-98.5 -55q-27 -6 -62 -4q-33 2 -64 13l17 108q28 -11 54 -11q28 0 39.5 18t11.5 57z" />
    <glyph glyph-name="eng" unicode="&#x14b;" horiz-adv-x="577" 
d="M391 -22v295q0 88 -24.5 123t-87.5 35q-55 0 -87 -8v-436h-125v525q112 32 221 32q125 0 176.5 -65t51.5 -187v-306q0 -85 -27 -129.5t-101 -51.5q-29 -3 -53 -2q-33 2 -61 13l17 100q27 -9 50 -9q27 0 38.5 17t11.5 54z" />
    <glyph glyph-name="Omacron" unicode="&#x14c;" horiz-adv-x="781" 
d="M653 345q0 -167 -81 -265t-222 -98q-140 0 -221.5 98.5t-81.5 264.5t82 265t221 99q140 0 221.5 -99t81.5 -265zM520 348q0 114 -43 186.5t-127 72.5t-126.5 -72.5t-42.5 -186.5q0 -115 42.5 -187.5t126.5 -72.5q85 0 127.5 72.5t42.5 187.5zM507 808h-314v100h314v-100z
" />
    <glyph glyph-name="omacron" unicode="&#x14d;" 
d="M525 265q0 -127 -64.5 -205t-177.5 -78q-112 0 -177 78t-65 205q0 126 65.5 204t176.5 78q112 0 177 -77.5t65 -204.5zM398 266q0 83 -28.5 134.5t-86.5 51.5t-86.5 -52t-28.5 -134q0 -84 28 -134t87 -50t87 50.5t28 133.5zM440 621h-314v100h314v-100z" />
    <glyph glyph-name="Obreve" unicode="&#x14e;" horiz-adv-x="781" 
d="M653 345q0 -167 -81 -265t-222 -98q-140 0 -221.5 98.5t-81.5 264.5t82 265t221 99q140 0 221.5 -99t81.5 -265zM520 348q0 114 -43 186.5t-127 72.5t-126.5 -72.5t-42.5 -186.5q0 -115 42.5 -187.5t126.5 -72.5q85 0 127.5 72.5t42.5 187.5zM350 785q-71 0 -112.5 45
t-38.5 127h91q4 -74 60 -74t60 74h92q0 -84 -40 -128t-112 -44z" />
    <glyph glyph-name="obreve" unicode="&#x14f;" 
d="M525 265q0 -127 -64.5 -205t-177.5 -78q-112 0 -177 78t-65 205q0 126 65.5 204t176.5 78q112 0 177 -77.5t65 -204.5zM398 266q0 83 -28.5 134.5t-86.5 51.5t-86.5 -52t-28.5 -134q0 -84 28 -134t87 -50t87 50.5t28 133.5zM283 598q-71 0 -112.5 45t-38.5 127h91
q4 -74 60 -74t60 74h92q0 -84 -40 -128t-112 -44z" />
    <glyph glyph-name="Ohungarumlaut" unicode="&#x150;" horiz-adv-x="781" 
d="M703 346q0 -170 -91 -268t-237 -98q-145 0 -236.5 98t-91.5 268t92 268t236 98q145 0 236.5 -98t91.5 -268zM565 348q0 116 -50.5 186t-139.5 70q-88 0 -139 -70t-51 -186t51 -186t139 -70q89 0 139.5 70t50.5 186zM374 961l81 -68l-146 -171l-69 52zM550 961l84 -71
l-149 -168l-69 52z" />
    <glyph glyph-name="ohungarumlaut" unicode="&#x151;" 
d="M548 262q0 -126 -70 -203t-184 -77q-113 0 -183 77t-70 203q0 125 70.5 202.5t182.5 77.5q113 0 183.5 -77.5t70.5 -202.5zM416 263q0 82 -32 129t-90 47q-57 0 -89.5 -47.5t-32.5 -128.5q0 -82 32.5 -129t89.5 -47q58 0 90 47t32 129zM277 811l80 -68l-145 -172l-70 53z
M457 811l84 -71l-149 -169l-69 53z" />
    <glyph glyph-name="OE" unicode="&#x152;" horiz-adv-x="993" 
d="M507 100v493q-2 0 -11 1t-25 2t-35 1q-126 0 -191 -65.5t-65 -184.5q0 -120 65 -185.5t191 -65.5q11 0 71 4zM968 -13h-424q-48 -6 -103 -6q-182 0 -288.5 93t-106.5 273t106.5 272.5t288.5 92.5q55 0 103 -6h399v-115h-308v-172h273v-112h-273v-205h333v-115z" />
    <glyph glyph-name="oe" unicode="&#x153;" horiz-adv-x="941" 
d="M295 546q124 0 190 -105q54 85 147 101q39 4 66 1q96 -9 149.5 -77t53.5 -193q0 -9 -1.5 -27t-1.5 -27h-347q14 -107 112 -126q29 -5 63 -3q61 3 122 30l19 -108q-50 -28 -140 -34q-40 -3 -81 2q-109 14 -164 96q-67 -101 -187 -101q-115 0 -186 78.5t-71 207.5
q0 128 71.5 206.5t185.5 78.5zM425 261q0 79 -34.5 125.5t-94.5 46.5t-94.5 -46.5t-34.5 -125.5q0 -80 34.5 -126.5t94.5 -46.5t94.5 46.5t34.5 126.5zM551 319h222q-4 56 -31 86.5t-75 30.5t-79 -33.5t-37 -83.5z" />
    <glyph glyph-name="Racute" unicode="&#x154;" horiz-adv-x="645" 
d="M587 -6h-144q-102 187 -175 286h-67v-286h-129v681q92 30 195 30q141 0 213.5 -57t72.5 -164q0 -72 -41.5 -122.5t-112.5 -65.5v-1q63 -79 188 -301zM421 481q0 132 -142 132q-46 0 -78 -10v-247h78q142 0 142 125zM335 775h-84l84 195h154z" />
    <glyph glyph-name="racute" unicode="&#x155;" horiz-adv-x="394" 
d="M362 535q-10 -44 -23 -93q-36 9 -74 8q-45 0 -74 -12v-444h-126v513q82 35 184 38q56 2 113 -10zM248 610h-84l84 195h154z" />
    <glyph glyph-name="Rcommaaccent" unicode="&#x156;" horiz-adv-x="639" 
d="M581 480q0 -67 -36.5 -114.5t-97.5 -71.5q39 -49 91 -137t86 -163h-146q-44 87 -149 251l-50 24h-72v-275h-133v686q88 25 200 25q307 0 307 -225zM282 603q-41 0 -75 -4v-245h59q87 0 133 26.5t46 97.5q0 125 -163 125zM284 -67v26h109q4 -26 4 -31q0 -16 -1 -20
q-3 -58 -36.5 -87.5t-84.5 -32.5h-24q-25 2 -41 8v81q39 0 56.5 12.5t17.5 43.5z" />
    <glyph glyph-name="rcommaaccent" unicode="&#x157;" horiz-adv-x="394" 
d="M271 540q65 0 115 -16l-22 -96q-25 8 -73 7q-15 3 -21 3q-46 0 -73 -10v-434h-129v507q88 39 203 39zM74 -67v26h109q4 -17 4 -31v-20q-4 -58 -37.5 -87.5t-84.5 -32.5h-24q-26 2 -40 8v81q38 0 55.5 12.5t17.5 43.5z" />
    <glyph glyph-name="Rcaron" unicode="&#x158;" horiz-adv-x="645" 
d="M587 -6h-144q-102 187 -175 286h-67v-286h-129v681q92 30 195 30q141 0 213.5 -57t72.5 -164q0 -72 -41.5 -122.5t-112.5 -65.5v-1q63 -79 188 -301zM421 481q0 132 -142 132q-46 0 -78 -10v-247h78q142 0 142 125zM187 985l104 -89l104 89l57 -64l-161 -158l-159 158z
" />
    <glyph glyph-name="rcaron" unicode="&#x159;" horiz-adv-x="394" 
d="M271 540q65 0 115 -16l-22 -96q-25 8 -73 7q-15 3 -21 3q-46 0 -73 -10v-434h-129v507q88 39 203 39zM131 792l104 -89l104 89l57 -64l-161 -158l-159 158z" />
    <glyph glyph-name="Sacute" unicode="&#x15a;" horiz-adv-x="544" 
d="M473 190q0 -96 -65.5 -152t-178.5 -56q-127 0 -201 47l36 101q69 -42 153 -42q59 0 90 25t31 72q0 44 -32 69.5t-110 56.5q-137 58 -152 167q-4 29 -1 51q8 81 68.5 130.5t157.5 49.5q107 0 180 -46l-36 -94q-65 38 -134 38q-51 0 -79.5 -23t-28.5 -66t31.5 -67
t102.5 -52q90 -38 129 -87t39 -122zM285 775h-84l84 195h154z" />
    <glyph glyph-name="sacute" unicode="&#x15b;" horiz-adv-x="452" 
d="M399 146q0 -74 -55.5 -118.5t-151.5 -44.5q-97 0 -164 36l30 96q54 -33 126 -33q40 0 64 16t24 46q0 29 -22.5 47t-80.5 41q-66 28 -96.5 65t-30.5 91q0 70 50.5 114.5t135.5 44.5q88 0 152 -34l-13.5 -43l-14.5 -47q-56 29 -110 29q-35 0 -56 -16t-21 -43
q0 -20 12 -34.5t27 -22.5t51 -24q6 -3 9 -4q72 -30 103.5 -67.5t31.5 -94.5zM246 610h-84l84 195h154z" />
    <glyph glyph-name="Scircumflex" unicode="&#x15c;" horiz-adv-x="544" 
d="M473 190q0 -96 -65.5 -152t-178.5 -56q-127 0 -201 47l36 101q69 -42 153 -42q59 0 90 25t31 72q0 44 -32 69.5t-110 56.5q-137 58 -152 167q-4 29 -1 51q8 81 68.5 130.5t157.5 49.5q107 0 180 -46l-36 -94q-65 38 -134 38q-51 0 -79.5 -23t-28.5 -66t31.5 -67
t102.5 -52q90 -38 129 -87t39 -122zM242 836l-105 -89l-56 64l161 158l158 -158l-54 -64z" />
    <glyph glyph-name="scircumflex" unicode="&#x15d;" horiz-adv-x="452" 
d="M399 146q0 -74 -55.5 -118.5t-151.5 -44.5q-97 0 -164 36l30 96q54 -33 126 -33q40 0 64 16t24 46q0 29 -22.5 47t-80.5 41q-66 28 -96.5 65t-30.5 91q0 70 50.5 114.5t135.5 44.5q88 0 152 -34l-13.5 -43l-14.5 -47q-56 29 -110 29q-35 0 -56 -16t-21 -43
q0 -20 12 -34.5t27 -22.5t51 -24q6 -3 9 -4q72 -30 103.5 -67.5t31.5 -94.5zM203 670l-105 -89l-56 64l161 158l158 -158l-54 -64z" />
    <glyph glyph-name="Scedilla" unicode="&#x15e;" horiz-adv-x="544" 
d="M315 -22q14 -19 10 -51q35 -25 32 -63q-15 -78 -124 -78q-50 0 -93 16l18 87q32 -14 69 -14q10 1 15 5.5t4 12.5q-3 7 -11.5 13t-15.5 9t-26 10q2 6 20 50q-120 7 -193 54l39 111q92 -52 193 -52q133 0 133 90q0 26 -9.5 44.5t-34 34t-44.5 24t-63 24.5
q-96 36 -145.5 81.5t-49.5 129.5q0 97 66 151t183 54q121 0 206 -54l-41 -108q-78 47 -163 47q-119 0 -119 -82q0 -18 7.5 -33t16.5 -24.5t31 -21t35 -17t44 -17.5q57 -22 89.5 -38.5t64.5 -43t46 -62.5t14 -87q0 -88 -52.5 -139t-151.5 -63z" />
    <glyph glyph-name="scedilla" unicode="&#x15f;" horiz-adv-x="452" 
d="M279 -73q34 -34 26 -73q-21 -68 -118 -68q-51 0 -93 16l17 87q32 -14 69 -14q10 1 15 5.5t4 12.5q-7 15 -53 32q10 26 22 52q-81 4 -143 32l26 111q71 -33 140 -35q26 0 38 1q69 8 69 49q0 25 -20.5 39t-83.5 40q-79 32 -118 67t-39 104q0 74 54.5 117.5t148.5 43.5
q87 0 161 -30l-25 -107q-70 29 -133 29q-36 0 -58 -12.5t-22 -36.5q0 -25 20 -39t75 -36q88 -35 127 -72t39 -106q0 -64 -40.5 -104.5t-114.5 -51.5q12 -21 10 -53z" />
    <glyph glyph-name="Scaron" unicode="&#x160;" horiz-adv-x="544" 
d="M473 190q0 -96 -65.5 -152t-178.5 -56q-127 0 -201 47l36 101q69 -42 153 -42q59 0 90 25t31 72q0 44 -32 69.5t-110 56.5q-137 58 -152 167q-4 29 -1 51q8 81 68.5 130.5t157.5 49.5q107 0 180 -46l-36 -94q-65 38 -134 38q-51 0 -79.5 -23t-28.5 -66t31.5 -67
t102.5 -52q90 -38 129 -87t39 -122zM137 985l104 -89l104 89l57 -64l-161 -158l-159 158z" />
    <glyph glyph-name="scaron" unicode="&#x161;" horiz-adv-x="452" 
d="M399 146q0 -74 -55.5 -118.5t-151.5 -44.5q-97 0 -164 36l30 96q54 -33 126 -33q40 0 64 16t24 46q0 29 -22.5 47t-80.5 41q-66 28 -96.5 65t-30.5 91q0 70 50.5 114.5t135.5 44.5q88 0 152 -34l-13.5 -43l-14.5 -47q-56 29 -110 29q-35 0 -56 -16t-21 -43
q0 -20 12 -34.5t27 -22.5t51 -24q6 -3 9 -4q72 -30 103.5 -67.5t31.5 -94.5zM98 819l104 -89l104 89l57 -64l-161 -158l-159 158z" />
    <glyph glyph-name="uni0162" unicode="&#x162;" horiz-adv-x="576" 
d="M340 -73q34 -29 30 -67q-19 -74 -122 -74q-50 0 -93 16l18 87q30 -14 69 -14q21 1 18 18q-6 15 -53 32q16 42 27 62h-11v603h-217v116h563v-116h-216v-603h-23q14 -21 10 -60z" />
    <glyph glyph-name="uni0163" unicode="&#x163;" horiz-adv-x="411" 
d="M305 -73q35 -33 27 -73q-23 -68 -119 -68q-50 0 -93 16l18 87q19 -9 57 -12q31 -1 36 15q-3 11 -20 21l-37 12q2 10 11 30.5t11 27.5q-79 16 -106.5 72.5t-27.5 168.5v456h126v-147h194v-109h-194v-224q0 -57 16 -82t51 -29h27q52 2 101 27l23 -105q-51 -27 -111 -32
q13 -21 10 -52z" />
    <glyph glyph-name="Tcaron" unicode="&#x164;" horiz-adv-x="576" 
d="M492 595h-171v-601h-131v601h-171v101h473v-101zM149 985l104 -89l104 89l57 -64l-161 -158l-159 158z" />
    <glyph glyph-name="tcaron" unicode="&#x165;" horiz-adv-x="448" 
d="M200 692v-162h172v-102h-172v-226q0 -67 19 -91t61 -24q47 0 95 24q9 -60 16 -98q-52 -27 -121 -30q-64 -2 -105 15.5t-61 56t-26.5 80t-6.5 104.5h-11v100l11 148v179zM255 811h119l-33 -218h-86v218z" />
    <glyph glyph-name="Tbar" unicode="&#x166;" horiz-adv-x="576" 
d="M6 706h563v-116h-216v-197h131v-103h-131v-303h-130v303h-131v103h131v197h-217v116z" />
    <glyph glyph-name="tbar" unicode="&#x167;" horiz-adv-x="411" 
d="M188 696v-163h194v-109h-194v-104h192v-95h-192q2 -42 22 -56q3 -48 21.5 -64t54.5 -15q47 1 97 26l23 -105q-70 -35 -146 -35q-110 0 -154 56t-44 170v473z" />
    <glyph glyph-name="Utilde" unicode="&#x168;" horiz-adv-x="691" 
d="M575 230q0 -112 -66 -180.5t-188 -68.5q-107 0 -172 55t-76 147q-4 40 -4 95v418h130v-400q0 -108 27 -157.5t98 -49.5q51 0 83.5 30t38.5 88q3 42 3 90v399h126v-466zM385 765q-28 0 -71 18.5t-56 18.5q-24 0 -49 -50l-73 44q15 41 46 74t74 33q30 0 72 -18.5t55 -18.5
q23 0 50 50l73 -46q-57 -105 -121 -105z" />
    <glyph glyph-name="utilde" unicode="&#x169;" horiz-adv-x="577" 
d="M497 25q-72 -42 -215 -42q-122 0 -171 61t-49 178v314h126v-279q0 -93 18.5 -134t82.5 -41q55 0 83 13v441h125v-511zM346 600q-28 0 -71 18.5t-56 18.5q-24 0 -49 -50l-73 44q15 41 46 74t74 33q30 0 72 -18.5t55 -18.5q23 0 50 50l73 -46q-57 -105 -121 -105z" />
    <glyph glyph-name="Umacron" unicode="&#x16a;" horiz-adv-x="691" 
d="M575 230q0 -112 -66 -180.5t-188 -68.5q-107 0 -172 55t-76 147q-4 40 -4 95v418h130v-400q0 -108 27 -157.5t98 -49.5q51 0 83.5 30t38.5 88q3 42 3 90v399h126v-466zM483 787h-314v100h314v-100z" />
    <glyph glyph-name="umacron" unicode="&#x16b;" horiz-adv-x="577" 
d="M497 25q-72 -42 -215 -42q-122 0 -171 61t-49 178v314h126v-279q0 -93 18.5 -134t82.5 -41q55 0 83 13v441h125v-511zM444 621h-314v100h314v-100z" />
    <glyph glyph-name="Ubreve" unicode="&#x16c;" horiz-adv-x="691" 
d="M575 230q0 -112 -66 -180.5t-188 -68.5q-107 0 -172 55t-76 147q-4 40 -4 95v418h130v-400q0 -108 27 -157.5t98 -49.5q51 0 83.5 30t38.5 88q3 42 3 90v399h126v-466zM326 763q-71 0 -112.5 45t-38.5 127h91q4 -74 60 -74t60 74h92q0 -84 -40 -128t-112 -44z" />
    <glyph glyph-name="ubreve" unicode="&#x16d;" horiz-adv-x="577" 
d="M497 25q-72 -42 -215 -42q-122 0 -171 61t-49 178v314h126v-279q0 -93 18.5 -134t82.5 -41q55 0 83 13v441h125v-511zM287 598q-71 0 -112.5 45t-38.5 127h91q4 -74 60 -74t60 74h92q0 -84 -40 -128t-112 -44z" />
    <glyph glyph-name="Uring" unicode="&#x16e;" horiz-adv-x="691" 
d="M575 230q0 -112 -66 -180.5t-188 -68.5q-107 0 -172 55t-76 147q-4 40 -4 95v418h130v-400q0 -108 27 -157.5t98 -49.5q51 0 83.5 30t38.5 88q3 42 3 90v399h126v-466zM444 872q0 -54 -34 -85.5t-83 -31.5t-83.5 31.5t-34.5 85.5q0 53 34.5 84.5t83.5 31.5t83 -32t34 -84
zM366 872q0 19 -11 30t-28 11t-28.5 -11t-11.5 -30q0 -20 11.5 -31t28.5 -11t28 11t11 31z" />
    <glyph glyph-name="uring" unicode="&#x16f;" horiz-adv-x="577" 
d="M497 25q-72 -42 -215 -42q-122 0 -171 61t-49 178v314h126v-279q0 -93 18.5 -134t82.5 -41q55 0 83 13v441h125v-511zM404 706q0 -54 -34 -85.5t-83 -31.5t-83.5 31.5t-34.5 85.5q0 53 34.5 84.5t83.5 31.5t83 -32t34 -84zM326 706q0 19 -11 30t-28 11t-28.5 -11
t-11.5 -30q0 -20 11.5 -31t28.5 -11t28 11t11 31z" />
    <glyph glyph-name="Uhungarumlaut" unicode="&#x170;" horiz-adv-x="691" 
d="M575 230q0 -112 -66 -180.5t-188 -68.5q-107 0 -172 55t-76 147q-4 40 -4 95v418h130v-400q0 -108 27 -157.5t98 -49.5q51 0 83.5 30t38.5 88q3 42 3 90v399h126v-466zM363 783l133 187l84 -71l-149 -169zM393 901l-146 -171l-68 53l133 188z" />
    <glyph glyph-name="uhungarumlaut" unicode="&#x171;" horiz-adv-x="577" 
d="M497 25q-72 -42 -215 -42q-122 0 -171 61t-49 178v314h126v-279q0 -93 18.5 -134t82.5 -41q55 0 83 13v441h125v-511zM297 640l133 187l84 -71l-149 -169zM327 758l-146 -171l-68 53l133 188z" />
    <glyph glyph-name="Uogonek" unicode="&#x172;" horiz-adv-x="691" 
d="M327 -25q-25 4 -40 7q-113 14 -166.5 87.5t-53.5 189.5v447h130v-436q0 -92 39.5 -136t108.5 -44q70 0 109.5 44.5t39.5 135.5v436h130v-447q0 -179 -119 -248q-39 -23 -71.5 -52t-34.5 -52q1 -21 33 -19q22 2 45 10l11 -95q-42 -16 -87 -16q-122 0 -122 91q0 49 48 97z
" />
    <glyph glyph-name="uogonek" unicode="&#x173;" horiz-adv-x="577" 
d="M363 -17q-40 -6 -74 -6q-124 0 -176 65.5t-52 187.5v303h126v-284q0 -88 25 -124t87 -36q50 0 86 9v435h126v-525q-8 -6 -39 -35q0 1 1 1t2 1q-49 -49 -51 -67q1 -21 33 -19q32 5 45 10l11 -94q-40 -17 -87 -17q-106 0 -118 70q-4 23 2 48q12 37 53 77z" />
    <glyph glyph-name="Wcircumflex" unicode="&#x174;" horiz-adv-x="932" 
d="M861 696q-81 -396 -167 -702h-119q-78 252 -115 384q-4 13 -8 30t-7 28.5t-5 16.5q-2 -5 -5 -16.5t-6.5 -28.5t-7.5 -30q-39 -141 -116 -384h-117q-80 274 -167 702h134q40 -227 81 -421q21 -98 23 -105q1 1 26 87q63 224 108 399h102q58 -227 108 -396q24 -84 26 -89
q2 4 4 14.5l5 27.5l5 28q39 176 92 455h126zM443 836l-105 -89l-56 64l161 158l158 -158l-54 -64z" />
    <glyph glyph-name="wcircumflex" unicode="&#x175;" horiz-adv-x="779" 
d="M771 536q-79 -295 -166 -542h-108q-57 180 -90 297q-4 14 -8.5 36.5t-6.5 26.5q-55 -206 -104 -360h-109q-89 253 -165 542h129q32 -145 83 -331q3 -12 6 -26.5t5 -23t4 -11.5l11 43l47 171.5l48 177.5h101q20 -86 91 -347q2 -8 4 -18t4 -17t3 -10q2 1 4 9.5t5 24.5t6 26
q45 150 85 332h121zM393 670l-105 -89l-56 64l161 158l158 -158l-54 -64z" />
    <glyph glyph-name="Ycircumflex" unicode="&#x176;" horiz-adv-x="608" 
d="M565 696q-110 -219 -219 -411v-291h-130v290q-109 193 -218 412h144q76 -170 143 -297q69 131 146 297h134zM287 836l-105 -89l-56 64l161 158l158 -158l-54 -64z" />
    <glyph glyph-name="ycircumflex" unicode="&#x177;" horiz-adv-x="523" 
d="M503 536q-95 -333 -195 -599q-25 -61 -54 -89t-77 -28q-41 0 -111 29l25 83q43 -20 58 -20q16 0 28.5 14t18 29.5t11.5 37.5q1 5 2 8q-111 268 -191 535h133q40 -162 95 -324q21 -75 24 -81q2 2 5 14.5t8.5 33.5l8.5 33q37 120 89 324h122zM262 670l-105 -89l-56 64
l161 158l158 -158l-54 -64z" />
    <glyph glyph-name="Ydieresis" unicode="&#x178;" horiz-adv-x="608" 
d="M565 696q-110 -219 -219 -411v-291h-130v290q-109 193 -218 412h144q76 -170 143 -297q69 131 146 297h134zM251 849q0 -33 -20.5 -53t-51.5 -20q-30 0 -50.5 20t-20.5 53q0 32 20.5 52t50.5 20q31 0 51.5 -20t20.5 -52zM461 849q0 -33 -20.5 -53t-51.5 -20t-51.5 20
t-20.5 53q0 32 20.5 52t51.5 20t51.5 -20t20.5 -52z" />
    <glyph glyph-name="Zacute" unicode="&#x179;" horiz-adv-x="581" 
d="M489 -6h-467v90q32 71 81 157.5l122 205.5l90 148h-275v101h444v-80q-25 -49 -138 -236.5t-160 -284.5h303v-101zM312 775h-84l84 195h154z" />
    <glyph glyph-name="zacute" unicode="&#x17a;" horiz-adv-x="474" 
d="M421 -6h-396v76q36 66 131 217.5t97 153.5h-212v95h374v-70l-55 -85q-110 -163 -181 -293h242v-94zM277 610h-84l84 195h154z" />
    <glyph glyph-name="Zdotaccent" unicode="&#x17b;" horiz-adv-x="581" 
d="M489 -6h-467v90q32 71 81 157.5l122 205.5l90 148h-275v101h444v-80q-25 -49 -138 -236.5t-160 -284.5h303v-101zM268 762q-32 0 -53 20t-21 54t21 54t53 20q31 0 52 -20t21 -54t-21 -54t-52 -20z" />
    <glyph glyph-name="zdotaccent" unicode="&#x17c;" horiz-adv-x="474" 
d="M421 -6h-396v76q36 66 131 217.5t97 153.5h-212v95h374v-70l-55 -85q-110 -163 -181 -293h242v-94zM233 596q-32 0 -53 20t-21 54t21 54t53 20q31 0 52 -20t21 -54t-21 -54t-52 -20z" />
    <glyph glyph-name="Zcaron" unicode="&#x17d;" horiz-adv-x="581" 
d="M489 -6h-467v90q32 71 81 157.5l122 205.5l90 148h-275v101h444v-80q-25 -49 -138 -236.5t-160 -284.5h303v-101zM164 985l104 -89l104 89l57 -64l-161 -158l-159 158z" />
    <glyph glyph-name="zcaron" unicode="&#x17e;" horiz-adv-x="474" 
d="M421 -6h-396v76q36 66 131 217.5t97 153.5h-212v95h374v-70l-55 -85q-110 -163 -181 -293h242v-94zM130 819l104 -89l104 89l57 -64l-161 -158l-159 158z" />
    <glyph glyph-name="longs" unicode="&#x17f;" horiz-adv-x="281" 
d="M192 563v-576h-125v578q0 109 55 166.5t163 57.5q74 0 130 -27l-26 -107q-51 22 -96 22q-54 0 -77.5 -28t-23.5 -86z" />
    <glyph glyph-name="uni0180" unicode="&#x180;" 
d="M192 791v-95h173v-94h-173v-92q54 28 117 28q115 0 180 -77.5t65 -203.5q0 -129 -74.5 -205.5t-200.5 -76.5q-112 0 -212 32v595h-73v94h73v74zM192 396v-300q32 -8 86 -8q68 0 107.5 45.5t39.5 125.5q0 76 -32 121.5t-100 45.5q-55 0 -101 -30z" />
    <glyph glyph-name="uni0181" unicode="&#x181;" horiz-adv-x="754" 
d="M372 712q284 0 305 -167q4 -31 -3 -71q-16 -67 -75 -100q116 -43 116 -173q0 -221 -330 -221q-108 0 -206 22v588q-62 -6 -62 -67q0 -20 7 -48l-107 -14q-12 46 -12 74q0 34 11 61t28 45.5t45.5 31.5t57.5 20.5t69.5 12t74.5 5.5t81 1zM420 307h-112v-210q36 -4 83 -4
q191 0 191 110q0 57 -40.5 80.5t-121.5 23.5zM391 601q-59 0 -83 -2v-183h70q87 0 130.5 18t43.5 75q0 92 -161 92z" />
    <glyph glyph-name="uni0182" unicode="&#x182;" horiz-adv-x="628" 
d="M257 333h-57v-233q6 0 20 -1.5t28 -2t30 -0.5q183 0 183 118q0 68 -51 93.5t-153 25.5zM200 446h64q163 0 246.5 -55t83.5 -176q0 -234 -321 -234q-111 0 -200 23v702h458v-115h-331v-145z" />
    <glyph glyph-name="uni0183" unicode="&#x183;" 
d="M192 674v-163q54 28 117 28q115 0 180 -77t65 -204q0 -130 -74.5 -206.5t-200.5 -76.5q-112 0 -212 32v776h430v-109h-305zM192 397v-301q32 -8 86 -8q68 0 107.5 45.5t39.5 125.5q0 77 -32 122.5t-100 45.5q-51 0 -101 -30z" />
    <glyph glyph-name="uni0184" unicode="&#x184;" 
d="M192 792v-276q54 28 117 28q116 0 180.5 -77.5t64.5 -206.5q0 -131 -74.5 -208t-200.5 -77q-112 0 -212 32v615l-81 85q103 59 206 85zM192 402v-306q32 -8 86 -8q68 0 107.5 46t39.5 128q0 170 -132 170q-55 0 -101 -30z" />
    <glyph glyph-name="uni0185" unicode="&#x185;" horiz-adv-x="619" 
d="M272 341q-38 0 -68 -4v-238q46 -4 90 -3q78 2 123 29t45 93q0 68 -50 95.5t-140 27.5zM204 716v-265q45 3 67 3q324 0 324 -236q0 -237 -320 -237q-109 0 -198 23v541l-82 86q102 57 209 85z" />
    <glyph glyph-name="uni0186" unicode="&#x186;" horiz-adv-x="622" 
d="M227 91q103 0 159.5 66.5t56.5 188.5q0 118 -55 187t-160 69q-100 0 -181 -43l-37 109q33 21 93.5 37t134.5 16q157 0 248.5 -98.5t91.5 -275.5q0 -176 -96.5 -275t-252.5 -99q-123 0 -215 53l39 110q80 -45 174 -45z" />
    <glyph glyph-name="uni0187" unicode="&#x187;" horiz-adv-x="671" 
d="M398 602q-101 0 -160 -67t-59 -187q0 -119 55 -188t161 -69q98 0 184 43l37 -109q-32 -20 -93.5 -36t-136.5 -16q-158 0 -250 98t-92 276q0 174 99 274t248 100q66 0 115 -18q34 94 140 94q44 0 90 -20l-29 -102q-31 14 -55 14q-25 0 -38 -14.5t-22 -42.5l-22 -74
q-85 44 -172 44z" />
    <glyph glyph-name="uni0188" unicode="&#x188;" horiz-adv-x="514" 
d="M360 542q30 80 106 90q18 3 46 1q36 -3 66 -16l-28 -99q-29 13 -52 13q-14 0 -24.5 -6.5t-17 -15t-11.5 -23.5t-7.5 -25t-5.5 -28l-4 -24q-58 24 -117 24q-70 0 -107 -45.5t-37 -127.5q0 -172 154 -172q57 0 123 29l21 -109q-70 -33 -157 -33q-133 0 -201.5 77.5
t-68.5 207.5q0 126 71.5 206t193.5 80q25 0 57 -4z" />
    <glyph glyph-name="uni0189" unicode="&#x189;" horiz-adv-x="729" 
d="M685 347q0 -180 -108 -273.5t-293 -93.5q-109 0 -198 21v308h-80v105h80v278q88 20 200 20q185 0 292 -91.5t107 -273.5zM216 309v-209q36 -4 76 -4q127 0 192.5 66t65.5 185q0 120 -64.5 185t-191.5 65q-38 0 -78 -4v-179h130v-105h-130z" />
    <glyph glyph-name="uni018A" unicode="&#x18a;" horiz-adv-x="823" 
d="M379 712q185 0 292 -91.5t107 -273.5q0 -180 -108 -273.5t-293 -93.5q-104 0 -198 21v589q-62 -6 -62 -67q0 -20 7 -48l-107 -14q-12 46 -12 74q0 40 14 70.5t43 49.5t60 31t79 17.5t85.5 7t92.5 1.5zM385 597q-67 0 -76 -1v-496q36 -4 76 -4q127 0 193 66t66 185
q0 120 -65.5 185t-193.5 65z" />
    <glyph glyph-name="uni018B" unicode="&#x18b;" horiz-adv-x="628" 
d="M428 333h-32q-119 0 -174 -23t-55 -96q0 -113 167 -117q53 -3 94 3v233zM364 446h64v145h-331v115h458v-702q-93 -24 -200 -24q-157 0 -239 59t-82 176q0 123 83.5 177t246.5 54z" />
    <glyph glyph-name="uni018C" unicode="&#x18c;" 
d="M400 511v163h-305v109h430v-776q-100 -32 -212 -32q-126 0 -200.5 76.5t-74.5 206.5q0 127 65 204t180 77q63 0 117 -28zM400 96v301q-50 30 -102 30q-68 0 -99.5 -45.5t-31.5 -122.5q0 -80 39.5 -125.5t107.5 -45.5q54 0 86 8z" />
    <glyph glyph-name="uni018D" unicode="&#x18d;" horiz-adv-x="581" 
d="M544 294q0 -74 -41.5 -136.5t-109.5 -97.5q54 -37 63 -89q5 -22 2 -52q-7 -60 -62 -89t-137 -29q-94 0 -174 33l27 104q54 -23 122 -27q33 -2 56 1q46 10 46 34q0 15 -12.5 28t-25.5 20.5t-49 24.5q-7 3 -10 5q-100 51 -151 108.5t-51 154.5q0 113 66 186t187 73
q122 0 188 -72.5t66 -179.5zM298 122q51 25 84 68.5t33 99.5q0 63 -31 103.5t-94 40.5q-60 0 -92 -38t-32 -107q0 -35 10.5 -61.5t32 -46.5t40 -32t49.5 -27z" />
    <glyph glyph-name="uni018E" unicode="&#x18e;" horiz-adv-x="576" 
d="M503 -13h-478v115h348v205h-288v112h288v172h-324v115h454v-719z" />
    <glyph glyph-name="uni018F" unicode="&#x18f;" horiz-adv-x="709" 
d="M524 276h-344q5 -86 46 -137t115 -51q83 0 128.5 55t54.5 133zM50 388h477q-7 108 -62.5 162t-152.5 54q-52 0 -104 -15t-85 -35l-37 108q35 22 96 40.5t135 18.5q166 0 257 -99.5t91 -270.5q0 -183 -91 -280.5t-235 -97.5q-140 0 -218 91.5t-78 267.5q0 19 7 56z" />
    <glyph glyph-name="uni0190" unicode="&#x190;" horiz-adv-x="578" 
d="M325 605q-75 0 -100 -35q-21 -39 19 -72q0 -41 32.5 -59t77.5 -18h91v-113h-79q-93 0 -143 -24t-50 -89q0 -91 125 -104q28 -3 60 0q84 5 166 47l41 -109q-105 -57 -233 -57q-294 0 -294 221q0 134 136 182q-83 35 -100 118q-5 30 -2 56q9 85 76.5 128.5t175.5 43.5
q127 0 218 -58l-44 -108q-79 50 -173 50z" />
    <glyph glyph-name="uni0191" unicode="&#x191;" horiz-adv-x="543" 
d="M203 299v-224q0 -53 -2 -86.5t-11.5 -73.5t-27 -62t-50 -37.5t-79.5 -15.5q-37 0 -82 15l17 108q28 -11 55 -11q15 0 24.5 5.5t14.5 12.5t7.5 25t3 31t0.5 43v5v672h449v-115h-319v-177h284v-115h-284z" />
    <glyph glyph-name="florin" unicode="&#x192;" horiz-adv-x="395" 
d="M192 424v-375q0 -118 -35 -175.5t-119 -68.5q-18 -4 -57 -2q-36 4 -62 14l17 107q34 -12 60 -12q40 0 55.5 23.5t15.5 75.5v517q0 42 2 63q14 198 216 198q74 0 130 -27l-26 -107q-51 22 -96 22q-61 0 -80.5 -32.5t-20.5 -111.5h198v-109h-198z" />
    <glyph glyph-name="uni0193" unicode="&#x193;" horiz-adv-x="691" 
d="M392 721q65 0 123 -18q18 51 51 72.5t90 21.5q46 0 90 -20l-29 -102q-32 14 -55 14q-25 0 -38 -15t-22 -43v1l-5.5 -16.5t-4.5 -14.5l-26 -36q-68 38 -162 38q-106 0 -165.5 -66.5t-59.5 -189.5q0 -120 55.5 -188.5t161.5 -68.5q65 0 96 9v258h130v-345q-92 -38 -237 -38
q-153 0 -247 98.5t-94 274.5q0 174 99 274t249 100z" />
    <glyph glyph-name="uni0194" unicode="&#x194;" horiz-adv-x="665" 
d="M333 70q-44 -73 -44 -111q0 -47 44 -47q43 0 43 47q0 38 -43 111zM405 164l14 -23q39 -65 57 -106.5t18 -82.5q0 -60 -39.5 -104.5t-121.5 -44.5t-121.5 44.5t-39.5 104.5q0 66 76 190l-1 -1l13 21q-124 218 -270 544h143q106 -245 201 -427q86 164 200 427h140
q-109 -260 -269 -542z" />
    <glyph glyph-name="uni0195" unicode="&#x195;" horiz-adv-x="883" 
d="M504 291v-57q0 -79 22.5 -112t73.5 -33q50 0 73 33.5t23 111.5v299h126v-309q0 -123 -52.5 -186t-169.5 -63t-169.5 63t-52.5 186v47q0 90 -20.5 125t-79.5 35q-50 0 -86 -15v-429h-125v783l125 21v-263q48 16 98 16q121 0 167.5 -64.5t46.5 -188.5z" />
    <glyph glyph-name="uni0196" unicode="&#x196;" horiz-adv-x="393" 
d="M72 185v521h130v-521q0 -55 19 -76.5t60 -21.5t87 19l23 -107q-61 -26 -125 -26q-104 0 -149 50.5t-45 161.5z" />
    <glyph glyph-name="uni0197" unicode="&#x197;" horiz-adv-x="331" 
d="M230 -13h-130v322h-98v103h98v294h130v-294h99v-103h-99v-322z" />
    <glyph glyph-name="uni0198" unicode="&#x198;" horiz-adv-x="669" 
d="M383 634q25 28 42.5 43.5t48 29t66.5 13.5q40 0 68.5 -15t59.5 -45l-61 -93q-37 37 -65 37t-68 -40q-68 -70 -169 -190q87 -62 185.5 -173.5t156.5 -213.5h-144q-186 231 -300 308v-308h-130v719h130v-278q81 99 143 166z" />
    <glyph glyph-name="uni0199" unicode="&#x199;" horiz-adv-x="530" 
d="M67 -13v617q0 94 35 139.5t128 45.5q38 0 79 -15l-17 -99q-32 9 -50 9q-33 0 -41.5 -23.5t-8.5 -87.5v-234q124 126 182 194h154l-234 -246q60 -49 130 -136.5t113 -163.5h-145q-38 63 -93.5 127.5t-106.5 103.5v-231h-125z" />
    <glyph glyph-name="uni019A" unicode="&#x19a;" horiz-adv-x="295" 
d="M286 85l-18 -108q-88 4 -131 33t-51 93q-6 34 -6 90v161h-79v96h79v320l125 21v-341h92v-96h-92v-196q0 -39 17 -53.5t64 -19.5z" />
    <glyph glyph-name="uni019B" unicode="&#x19b;" horiz-adv-x="515" 
d="M268 377q-92 -192 -140 -390h-129q69 255 202 512q-1 9 -2.5 27t-2.5 28l-109 -38l-32 88l62 21q-15 41 -30.5 62.5t-40.5 33.5q-21 14 -27 20q21 26 53 42q12 6 36 6q59 0 98 -28t69 -80l124 44l33 -89l-118 -41q106 -257 204 -608h-132q-58 227 -118 390z" />
    <glyph glyph-name="uni019C" unicode="&#x19c;" horiz-adv-x="972" 
d="M493 32q-93 -59 -184 -59q-72 0 -121 20.5t-74.5 60.5t-36 89t-10.5 117v446h130v-419q0 -109 25 -153.5t95 -44.5q61 0 116 41q-15 55 -15 133v443h130v-426q0 -103 25 -147t93 -44q55 0 103 12v605h130v-697q-119 -36 -239 -36q-106 0 -167 59z" />
    <glyph glyph-name="uni019D" unicode="&#x19d;" horiz-adv-x="729" 
d="M202 495v-444q0 -49 -2.5 -81.5t-12.5 -67.5t-27.5 -55.5t-49 -33.5t-76.5 -13q-38 0 -83 15l17 108q28 -11 55 -11t38.5 18t11.5 57v719h102q83 -90 184.5 -226.5t166.5 -244.5v471h130v-719h-101q-27 38 -34 47q-65 111 -155.5 242t-163.5 219z" />
    <glyph glyph-name="uni019E" unicode="&#x19e;" horiz-adv-x="587" 
d="M67 -13v516q59 41 221 41q125 0 176.5 -65t51.5 -187v-490h-125v471q0 87 -24.5 122.5t-87.5 35.5q-55 0 -87 -8v-436h-125z" />
    <glyph glyph-name="uni019F" unicode="&#x19f;" horiz-adv-x="781" 
d="M736 347q0 -178 -97.5 -276t-248.5 -98q-149 0 -247.5 98.5t-98.5 275.5q0 176 99.5 275t246.5 99q149 0 247.5 -98.5t98.5 -275.5zM390 91q86 0 141 55t65 151h-412q10 -97 65 -151.5t141 -54.5zM390 603q-85 0 -139.5 -53t-65.5 -148h411q-11 95 -65.5 148t-140.5 53z
" />
    <glyph glyph-name="Ohorn" unicode="&#x1a0;" horiz-adv-x="781" 
d="M736 347q0 -178 -97.5 -276t-248.5 -98q-149 0 -247.5 98.5t-98.5 275.5q0 176 99.5 275t246.5 99q110 0 190 -56q32 37 32 95q0 23 -3 53h120q5 -35 5 -51q0 -108 -70 -172q72 -95 72 -243zM602 347q0 118 -57 187t-155 69q-97 0 -154 -69t-57 -187t57 -187t154 -69
q98 0 155 69t57 187z" />
    <glyph glyph-name="ohorn" unicode="&#x1a1;" horiz-adv-x="595" 
d="M554 261q0 -129 -71 -207.5t-187 -78.5q-115 0 -186.5 79t-71.5 207q0 127 72.5 206t185.5 79q87 0 150 -51q32 38 32 93q0 22 -4 53h115q4 -32 4 -40q1 -16 -1 -42q-7 -83 -74 -144q36 -66 36 -154zM425 261q0 79 -34.5 125.5t-94.5 46.5t-94.5 -46.5t-34.5 -125.5
q0 -80 34.5 -126.5t94.5 -46.5t94.5 46.5t34.5 126.5z" />
    <glyph glyph-name="uni01A2" unicode="&#x1a2;" horiz-adv-x="1032" 
d="M377 721q113 0 195 -63q80 62 171 62q67 0 110.5 -18.5t66 -57.5t31 -85.5t8.5 -114.5v-457h-130v453q0 91 -20.5 127.5t-76.5 36.5q-36 0 -83 -32q61 -91 61 -225q0 -177 -95 -275.5t-238 -98.5q-141 0 -237 99t-96 275q0 175 97 274.5t236 99.5zM377 91q91 0 145 69
t54 187t-54 187t-145 69q-90 0 -144 -69.5t-54 -186.5t54 -186.5t144 -69.5z" />
    <glyph glyph-name="uni01A3" unicode="&#x1a3;" horiz-adv-x="828" 
d="M543 261q0 -128 -70 -207t-182 -79t-182.5 79t-70.5 207q0 127 71 206t182 79q83 0 144 -46q61 44 137 44q49 0 84.5 -12.5t56.5 -33t33.5 -53.5t16.5 -68t4 -82v-493h-125v484q0 78 -16 112.5t-60 34.5q-32 0 -61 -21q38 -66 38 -151zM414 261q0 79 -33 125.5t-90 46.5
q-59 0 -91.5 -46t-32.5 -126t33 -126.5t91 -46.5q57 0 90 46.5t33 126.5z" />
    <glyph glyph-name="uni01A4" unicode="&#x1a4;" horiz-adv-x="720" 
d="M377 712q320 0 320 -235q0 -124 -83 -180.5t-242 -56.5h-63v-253h-130v603q-62 -7 -62 -67q0 -20 7 -48l-107 -14q-12 46 -12 74q0 40 14 70.5t42.5 49.5t59.5 31t78 17.5t85 7t93 1.5zM384 597q-66 0 -75 -1v-240h58q99 0 147.5 26.5t48.5 95.5q0 119 -179 119z" />
    <glyph glyph-name="uni01A5" unicode="&#x1a5;" 
d="M192 613v-85q47 16 93 16q122 0 195.5 -77.5t73.5 -206.5q0 -128 -65 -206t-180 -78q-61 0 -117 29v-203h-125v802q0 85 27 130t101 51q11 2 53 2q33 -3 61 -13l-17 -99q-32 9 -50 9q-27 0 -38.5 -17t-11.5 -54zM192 417v-298q46 -30 101 -30q132 0 132 169
q0 81 -39.5 127t-106.5 46q-53 0 -87 -14z" />
    <glyph glyph-name="uni01A6" unicode="&#x1a6;" horiz-adv-x="639" 
d="M73 789h130v-82q25 3 74 3q310 0 310 -230q0 -141 -134 -194q49 -66 117.5 -181t116.5 -226h-143q-96 209 -225 379q-28 -2 -44 -2h-72v-269h-130v802zM277 595q-49 0 -74 -3v-225h33q44 0 71 1.5t58.5 7.5t48 18t28 33.5t11.5 53.5q0 63 -47 88.5t-129 25.5z" />
    <glyph glyph-name="uni01A7" unicode="&#x1a7;" horiz-adv-x="544" 
d="M293 88q102 0 192 52l39 -111q-93 -56 -232 -56q-130 0 -198.5 53t-68.5 154q0 51 14 87t46 62.5t65 43t90 38.5q37 15 54 22.5t39.5 21.5t31 30.5t8.5 38.5q0 82 -119 82q-85 0 -162 -47l-42 108q88 54 208 54q117 0 182.5 -54t65.5 -151q0 -84 -49.5 -129.5
t-146.5 -81.5q-38 -14 -51.5 -19.5t-39 -18.5t-34.5 -23.5t-17.5 -27.5t-8.5 -38q0 -90 134 -90z" />
    <glyph glyph-name="uni01A8" unicode="&#x1a8;" horiz-adv-x="452" 
d="M247 84q75 0 154 36l25 -110q-73 -35 -179 -35q-107 0 -163.5 41t-56.5 120q0 69 40 106t129 72q54 22 73.5 36t19.5 39q0 24 -22 36.5t-58 12.5q-61 0 -134 -29l-25 107q74 30 163 30q95 0 148 -43t53 -118q0 -69 -39 -104t-118 -67q-63 -26 -83.5 -40t-20.5 -39
q0 -51 94 -51z" />
    <glyph glyph-name="uni01A9" unicode="&#x1a9;" horiz-adv-x="570" 
d="M401 357q-13 -16 -98 -113t-117 -142h356v-115h-520v97q35 49 145 177q6 7 17 21t14 17l49 59q-33 43 -110 134.5t-101 125.5v88h505v-115h-327q20 -28 88 -111z" />
    <glyph glyph-name="uni01AA" unicode="&#x1aa;" horiz-adv-x="349" 
d="M156 -33v525q-30 -24 -72 -24q-63 0 -107 43.5t-44 115.5q0 77 48.5 120t120.5 43q47 0 81 -14t52.5 -36t29.5 -58t14 -70t3 -81v-550q0 -39 16.5 -53.5t64.5 -19.5q-2 -8 -4.5 -27.5t-5 -31t-7.5 -26t-13 -23.5q-97 4 -137 42.5t-40 124.5zM100 572q27 0 56 31v15
q0 68 -56 68q-52 0 -52 -56q0 -26 13 -42t39 -16z" />
    <glyph glyph-name="uni01AB" unicode="&#x1ab;" horiz-adv-x="411" 
d="M272 89q66 0 118 18q11 -77 11 -131q0 -87 -36 -131t-120 -44q-41 0 -82 15l18 100q27 -11 54 -11q45 0 46 55q2 18 2 22q-26 -3 -61 -1q-94 8 -127 67t-33 182v445l126 21v-163h194v-109h-194v-224q0 -63 20 -87t64 -24z" />
    <glyph glyph-name="uni01AC" unicode="&#x1ac;" horiz-adv-x="601" 
d="M248 590h-55q-75 0 -75 -69q0 -20 7 -48l-108 -15q-12 48 -12 74q0 37 10 65t23.5 46t41 31t47 19t59.5 9t60 3.5t65 0.5h23h261v-116h-217v-603h-130v603z" />
    <glyph glyph-name="uni01AD" unicode="&#x1ad;" horiz-adv-x="411" 
d="M188 533h198v-109h-198v-224q0 -49 12 -74t40 -32q18 -6 47 -4q46 2 98 26l22 -105q-70 -35 -147 -35q-109 0 -153.5 56t-44.5 170v363q0 109 54.5 166.5t163.5 57.5q75 0 129 -26l-26 -108q-47 22 -95 22q-61 0 -80.5 -32.5t-19.5 -111.5z" />
    <glyph glyph-name="uni01AE" unicode="&#x1ae;" horiz-adv-x="576" 
d="M353 590v-603q0 -39 11.5 -57t38.5 -18t55 11l17 -108q-45 -15 -82 -15q-94 0 -132 48t-38 144v598h-217v116h563v-116h-216z" />
    <glyph glyph-name="Uhorn" unicode="&#x1af;" horiz-adv-x="716" 
d="M494 706h74q59 0 59 56q0 7 -3 52h118q4 -28 4 -51q0 -131 -122 -151v-353q0 -131 -68.5 -208.5t-210.5 -77.5t-210 77.5t-68 208.5v447h130v-405q0 -111 36.5 -161t111.5 -50q70 0 109.5 44.5t39.5 135.5v436z" />
    <glyph glyph-name="uhorn" unicode="&#x1b0;" horiz-adv-x="602" 
d="M511 443v-435q-109 -31 -222 -31q-124 0 -176 65.5t-52 187.5v303h126v-284q0 -88 25 -124t87 -36q50 0 86 9v435h82q51 2 51 56q0 19 -4 52h112q6 -32 6 -54q0 -52 -29.5 -93t-91.5 -51z" />
    <glyph glyph-name="uni01B1" unicode="&#x1b1;" horiz-adv-x="777" 
d="M389 -27q-147 0 -242.5 92t-95.5 256q0 157 109 272h-125v113h299v-93q-149 -118 -149 -291q0 -108 55.5 -170t148.5 -62t148 62t55 170q0 173 -149 291v93h299v-113h-125q110 -118 110 -272q0 -164 -96 -256t-242 -92z" />
    <glyph glyph-name="uni01B2" unicode="&#x1b2;" horiz-adv-x="699" 
d="M647 354q0 -60 -9.5 -113.5t-32 -103.5t-57 -85.5t-88 -57t-120.5 -21.5q-138 0 -205.5 78t-67.5 209v446h130v-435q0 -91 38.5 -136t101.5 -45q177 0 177 258q0 127 -29 187t-97 60q-20 0 -50 -8l-11 112q37 11 78 11q242 0 242 -356z" />
    <glyph glyph-name="uni01B3" unicode="&#x1b3;" horiz-adv-x="680" 
d="M305 397l80 151q45 87 67 113q37 44 84 50q25 5 52 2q61 -6 114 -61l-60 -91q-36 38 -65 38q-16 0 -25 -7t-21 -27q-80 -133 -139 -247h1q-21 -69 -24 -77v-254h-130v285q-141 217 -252 434h151q66 -142 167 -309z" />
    <glyph glyph-name="uni01B4" unicode="&#x1b4;" horiz-adv-x="576" 
d="M455 384q-76 -256 -119 -372q-40 -102 -86 -150.5t-122 -57.5q-32 -4 -59 -1q-44 3 -81 21l24 104q45 -18 78 -18q43 0 69.5 21t46.5 70q-131 248 -207 532h133q45 -190 135 -385q21 67 68 233q10 36 16.5 55.5t18.5 43.5t26.5 35.5t37 19.5t53.5 8q46 0 100 -23
l-28 -100q-33 15 -55 15q-21 0 -31 -11.5t-18 -40.5v1z" />
    <glyph glyph-name="uni01B5" unicode="&#x1b5;" horiz-adv-x="581" 
d="M547 706v-99q-52 -57 -155 -195h136v-104h-213q-89 -126 -132 -206h375v-115h-534v85q54 101 144 236h-105v104h178q89 124 137 179h-336v115h505z" />
    <glyph glyph-name="uni01B6" unicode="&#x1b6;" horiz-adv-x="474" 
d="M444 533v-91q-28 -30 -106 -125h95v-93h-171q-40 -54 -86 -130h275v-107h-427v78q38 71 102 159h-72v93h143q53 71 85 109h-244v107h406z" />
    <glyph glyph-name="uni01B7" unicode="&#x1b7;" horiz-adv-x="574" 
d="M535 196q0 -115 -78.5 -169.5t-216.5 -54.5q-128 0 -231 59l41 110q96 -53 191 -53q159 0 159 109q0 45 -27 72t-67 36t-99 9h-38v61l4 21q76 76 173 196h-301v114h474v-80q-50 -72 -189 -223q205 -36 205 -207z" />
    <glyph glyph-name="uni01B8" unicode="&#x1b8;" horiz-adv-x="575" 
d="M39 196q0 91 56 141t149 66q-133 144 -189 223v80h474v-114h-299q81 -104 176 -200v-78h-39q-91 0 -142.5 -26t-51.5 -91q0 -109 160 -109q97 0 191 53l41 -110q-105 -59 -231 -59q-138 0 -216.5 54.5t-78.5 169.5z" />
    <glyph glyph-name="uni01B9" unicode="&#x1b9;" horiz-adv-x="483" 
d="M369 227v-83h-49q-164 0 -164 -113q0 -55 36.5 -85t108.5 -30q89 0 163 34l30 -106q-78 -42 -197 -42q-127 0 -198 58t-71 169q0 90 53 139.5t138 64.5q-133 163 -168 219v81h418v-109h-255q72 -105 155 -197z" />
    <glyph glyph-name="uni01BA" unicode="&#x1ba;" horiz-adv-x="480" 
d="M273 287q89 -17 130 -53.5t41 -106.5q0 -47 -16 -80t-52.5 -54.5t-70.5 -33t-96 -26.5q-35 -9 -50.5 -14.5t-28.5 -16.5t-13 -27q0 -25 18 -56l-106 -22q-30 39 -30 88q0 43 23.5 73.5t58.5 45t76.5 27.5t76.5 22.5t58.5 28.5t23.5 46q0 39 -42 56t-151 20v83
q75 68 135 137h-246v109h414v-86q-69 -86 -153 -160z" />
    <glyph glyph-name="uni01BB" unicode="&#x1bb;" horiz-adv-x="542" 
d="M477 518q0 -67 -59 -142h75v-103h-167q-10 -10 -30 -28.5l-29.5 -27.5t-24.5 -24.5t-22 -25l-15.5 -22t-12 -24t-4.5 -22.5h309v-112h-456q-4 19 -4 46q0 69 34 124.5t94 115.5h-97v103h199q79 77 79 136q0 49 -28.5 72.5t-76.5 23.5q-81 0 -158 -74l-66 91
q38 38 97.5 67t128.5 29q116 0 175 -53t59 -150z" />
    <glyph glyph-name="uni01BC" unicode="&#x1bc;" horiz-adv-x="546" 
d="M494 592h-266q-6 -124 -11 -155q304 -25 304 -237q0 -105 -70 -166t-214 -61q-57 0 -119.5 16t-84.5 30l28 113q65 -34 145 -40q57 -3 94 7q88 19 88 98q0 68 -70 101t-235 33q21 183 24 261h-95v114h482v-114z" />
    <glyph glyph-name="uni01BD" unicode="&#x1bd;" horiz-adv-x="499" 
d="M467 152q0 -83 -61.5 -130t-182.5 -47q-56 0 -112 11t-81 24l25 109q72 -28 144 -31q38 -2 60 2q81 11 81 64q0 46 -41 63t-152 17h-74l9 90q5 45 9 102h-77v107h431v-107h-239q-4 -43 -8 -91q131 0 200 -43t69 -140z" />
    <glyph glyph-name="uni01BE" unicode="&#x1be;" horiz-adv-x="466" 
d="M378 425h-193q3 -21 7 -35q15 -34 46 -57.5t63.5 -37.5t63.5 -31t51 -48.5t20 -79.5q0 -79 -58 -120t-165 -41q-108 0 -181 35l25 110q69 -32 140 -35q34 0 57 4q56 9 56 46q0 25 -22 40.5t-84 40.5q-42 16 -64 28t-43.5 35t-30 58.5t-8.5 90.5v247l126 21v-163h194v-108
z" />
    <glyph glyph-name="uni01BF" unicode="&#x1bf;" horiz-adv-x="575" 
d="M279 544q122 0 190 -64.5t68 -180.5q0 -76 -27 -135t-78.5 -100.5t-107 -69t-132.5 -52.5v-140h-125v697q101 45 212 45zM278 431q-44 0 -86 -14v-354q44 16 74.5 31t66 41t54.5 63.5t20 85.5q1 29 -5 58q-10 43 -42 66t-82 23z" />
    <glyph glyph-name="uni01C0" unicode="&#x1c0;" horiz-adv-x="287" 
d="M81 -198v988h114v-988h-114z" />
    <glyph glyph-name="uni01C1" unicode="&#x1c1;" horiz-adv-x="494" 
d="M81 -198v988h114v-988h-114zM288 -198v988h114v-988h-114z" />
    <glyph glyph-name="uni01C2" unicode="&#x1c2;" horiz-adv-x="569" 
d="M224 451v345h121v-345h195v-104h-195v-89h195v-103h-195v-353h-121v353h-195v103h195v89h-195v104h195z" />
    <glyph glyph-name="uni01C3" unicode="&#x1c3;" horiz-adv-x="279" 
d="M186 759l-3 -276q-1 -57 -10.5 -155.5t-10.5 -110.5h-77q-2 27 -8 79.5t-10 98t-4 88.5l-3 276q30 14 62 14q36 0 64 -14zM198 63q0 -33 -21 -53t-53 -20q-31 0 -52.5 20.5t-21.5 52.5t20.5 53t53.5 21q32 0 53 -20.5t21 -53.5z" />
    <glyph glyph-name="uni01C4" unicode="&#x1c4;" horiz-adv-x="1278" 
d="M649 346q0 -172 -100 -266t-279 -94q-106 0 -196 24v671q89 24 195 24q180 0 280 -93t100 -266zM207 594v-495q24 -4 71 -4q234 0 234 252q0 251 -233 251q-48 0 -72 -4zM1218 698l-7 -87q-1 -2 -63 -93l-94 -140l-83.5 -132.5t-84.5 -144.5h340v-107h-504l7 79
q54 110 150 262.5t173 255.5h-309v107h475zM890 950l104 -89l104 89l57 -64l-161 -158l-159 158z" />
    <glyph glyph-name="uni01C5" unicode="&#x1c5;" horiz-adv-x="1181" 
d="M649 346q0 -172 -100 -266t-279 -94q-106 0 -196 24v671q89 24 195 24q180 0 280 -93t100 -266zM207 594v-495q24 -4 71 -4q234 0 234 252q0 251 -233 251q-48 0 -72 -4zM1138 530l-6 -81l-32 -38q-132 -183 -205 -316h249v-101h-409q8 61 11 86q68 133 229 348h-225v102
h388zM841 792l105 -89l104 89l56 -64l-160 -158l-159 158z" />
    <glyph glyph-name="uni01C6" unicode="&#x1c6;" horiz-adv-x="1062" 
d="M526 785v-766q-88 -37 -212 -37q-125 0 -199 73.5t-74 205.5q0 126 65 202.5t177 76.5q67 0 114 -28v259q86 10 129 14zM397 93v319q-43 29 -94 29q-131 0 -131 -177q0 -87 38 -133.5t105 -46.5q48 0 82 9zM1019 530q-3 -30 -7 -81q-46 -55 -117 -160t-119 -194h249v-101
h-410l12 86q70 137 228 348h-224v102h388zM719 792l104 -89l105 89l56 -64l-161 -158l-159 158z" />
    <glyph glyph-name="uni01C7" unicode="&#x1c7;" horiz-adv-x="1048" 
d="M208 101h283v-107h-417v704h134v-597zM938 698v-509q0 -242 -226 -251q-98 -1 -177 48l35 102q71 -38 131 -22q54 11 78.5 50.5t24.5 117.5v464h134z" />
    <glyph glyph-name="uni01C8" unicode="&#x1c8;" horiz-adv-x="785" 
d="M208 101h283v-107h-417v704h134v-597zM538 -198q-39 -4 -78 8l12 84q23 0 42 8q46 2 62.5 28.5t16.5 87.5v512h129v-504q0 -214 -184 -224zM734 679q0 -33 -22 -53.5t-54 -20.5q-33 0 -55 20.5t-22 53.5t22 53.5t54 20.5q33 0 55 -20.5t22 -53.5z" />
    <glyph glyph-name="uni01C9" unicode="&#x1c9;" horiz-adv-x="539" 
d="M253 23l-59 -37q-59 8 -89 36t-34 84q-4 37 -4 88v577q97 11 129 14v-496q0 -97 19 -153q-1 -43 7.5 -67.5t30.5 -45.5zM292 -198q-39 -4 -78 8l11 84q25 0 42 8q46 2 63 28.5t17 87.5v512h129v-504q0 -214 -184 -224zM488 679q0 -33 -22 -53.5t-54 -20.5q-33 0 -55 20.5
t-22 53.5t22 53.5t54 20.5q33 0 55 -20.5t22 -53.5z" />
    <glyph glyph-name="uni01CA" unicode="&#x1ca;" horiz-adv-x="1232" 
d="M635 -6h-75l-33 3q-61 106 -170 269.5t-160 219.5q0 -31 0.5 -98t0.5 -102v-292h-124v704h107q139 -162 278 -374q12 -18 31 -50t20 -34v205v253h125v-704zM1122 698v-509q0 -242 -226 -251q-100 -1 -176 48l34 102q71 -38 131 -22q54 11 78.5 50.5t24.5 117.5v464h134z
" />
    <glyph glyph-name="uni01CB" unicode="&#x1cb;" horiz-adv-x="987" 
d="M635 -6h-75l-33 3q-61 106 -170 269.5t-160 219.5q0 -31 0.5 -98t0.5 -102v-292h-124v704h107q139 -162 278 -374q12 -18 31 -50t20 -34v205v253h125v-704zM740 -198q-40 -4 -78 8l11 84q23 0 42 8q46 2 63 28.5t17 87.5v512h129v-504q0 -214 -184 -224zM936 679
q0 -33 -22.5 -53.5t-54.5 -20.5t-54.5 20.5t-22.5 53.5t22.5 53.5t54.5 20.5t54.5 -21t22.5 -53z" />
    <glyph glyph-name="uni01CC" unicode="&#x1cc;" horiz-adv-x="836" 
d="M68 -6v509q81 37 221 37q133 0 182 -63t49 -189v-294h-128v269q0 97 -22.5 136t-87.5 39q-56 0 -85 -9v-435h-129zM590 -198q-40 -4 -79 8l12 84q23 0 42 8q46 2 63 28.5t17 87.5v512h129v-504q0 -214 -184 -224zM786 679q0 -33 -22.5 -53.5t-54.5 -20.5t-54.5 20.5
t-22.5 53.5t22.5 53.5t54.5 20.5t54.5 -21t22.5 -53z" />
    <glyph glyph-name="uni01CD" unicode="&#x1cd;" horiz-adv-x="259" 
d="M192 533v-546h-125v546h125zM25 819l104 -89l104 89l57 -64l-161 -158l-159 158z" />
    <glyph glyph-name="uni01CE" unicode="&#x1ce;" horiz-adv-x="527" 
d="M462 16q-82 -32 -208 -32q-220 0 -220 171q0 167 243 183q21 2 64 -1q-2 58 -24.5 86.5t-79.5 28.5q-71 0 -139 -29l-22 90q75 34 177 34q192 0 206 -170q3 -32 3 -63v-298zM341 81v175q-32 4 -67 1q-56 -7 -87 -29t-31 -70q0 -86 107 -86q48 0 78 9zM160 825l104 -89
l104 89l57 -64l-161 -158l-159 158z" />
    <glyph glyph-name="uni01CF" unicode="&#x1cf;" horiz-adv-x="277" 
d="M203 -6h-131v702h131v-702zM32 985l104 -89l104 89l57 -64l-161 -158l-159 158z" />
    <glyph glyph-name="uni01D0" unicode="&#x1d0;" horiz-adv-x="259" 
d="M192 533v-546h-125v546h125zM25 819l104 -89l104 89l57 -64l-161 -158l-159 158z" />
    <glyph glyph-name="uni01D1" unicode="&#x1d1;" horiz-adv-x="701" 
d="M653 345q0 -167 -81 -265t-222 -98q-140 0 -221.5 98.5t-81.5 264.5t82 265t221 99q140 0 221.5 -99t81.5 -265zM520 348q0 114 -43 186.5t-127 72.5t-126.5 -72.5t-42.5 -186.5q0 -115 42.5 -187.5t126.5 -72.5q85 0 127.5 72.5t42.5 187.5zM246 982l104 -89l104 89
l57 -64l-161 -158l-159 158z" />
    <glyph glyph-name="uni01D2" unicode="&#x1d2;" 
d="M525 265q0 -127 -64.5 -205t-177.5 -78q-112 0 -177 78t-65 205q0 126 65.5 204t176.5 78q112 0 177 -77.5t65 -204.5zM398 266q0 83 -28.5 134.5t-86.5 51.5t-86.5 -52t-28.5 -134q0 -84 28 -134t87 -50t87 50.5t28 133.5zM179 819l104 -89l104 89l57 -64l-161 -158
l-159 158z" />
    <glyph glyph-name="uni01D3" unicode="&#x1d3;" horiz-adv-x="691" 
d="M575 230q0 -112 -66 -180.5t-188 -68.5q-107 0 -172 55t-76 147q-4 40 -4 95v418h130v-400q0 -108 27 -157.5t98 -49.5q51 0 83.5 30t38.5 88q3 42 3 90v399h126v-466zM222 985l104 -89l104 89l57 -64l-161 -158l-159 158z" />
    <glyph glyph-name="uni01D4" unicode="&#x1d4;" horiz-adv-x="577" 
d="M497 25q-72 -42 -215 -42q-122 0 -171 61t-49 178v314h126v-279q0 -93 18.5 -134t82.5 -41q55 0 83 13v441h125v-511zM183 819l104 -89l104 89l57 -64l-161 -158l-159 158z" />
    <glyph glyph-name="uni01D5" unicode="&#x1d5;" horiz-adv-x="691" 
d="M337 -20q-267 0 -267 288v430h134v-409q0 -102 33 -149t103 -47t102.5 46.5t32.5 149.5v409h131v-450q0 -123 -68 -195.5t-201 -72.5zM189 929v87h313v-87h-313zM311 814q-1 -29 -20 -47t-47 -18q-29 0 -47.5 18.5t-18.5 48.5q0 34 19 51t47 17q29 0 47.5 -18t19.5 -52z
M513 816q0 -30 -19 -48.5t-47 -18.5q-29 0 -47 18.5t-19 50.5q1 32 18.5 48.5t45.5 17.5q30 2 49 -19t19 -49z" />
    <glyph glyph-name="uni01D6" unicode="&#x1d6;" horiz-adv-x="577" 
d="M497 25q-72 -42 -215 -42q-122 0 -171 61t-49 178v314h126v-279q0 -93 18.5 -134t82.5 -41q55 0 83 13v441h125v-511zM108 767v87h314v-87h-314zM230 652q-1 -29 -19.5 -47t-46.5 -18q-29 0 -47.5 18.5t-18.5 48.5q0 34 19 51t47 17q29 0 47 -18t19 -52zM433 654
q0 -30 -19 -48.5t-47 -18.5q-29 0 -47.5 18.5t-18.5 50.5q1 32 18.5 49t45.5 18q32 0 48 -19q20 -24 20 -50z" />
    <glyph glyph-name="uni01D7" unicode="&#x1d7;" horiz-adv-x="691" 
d="M575 230q0 -112 -66 -180.5t-188 -68.5q-107 0 -172 55t-76 147q-4 40 -4 95v418h130v-400q0 -108 27 -157.5t98 -49.5q51 0 83.5 30t38.5 88q3 42 3 90v399h126v-466zM250 814l133 198l94 -69l-152 -183zM233 829q0 -33 -20.5 -53t-50.5 -20q-31 0 -51.5 20t-20.5 53
q0 32 20.5 52t51.5 20q30 0 50.5 -20t20.5 -52zM583 829q0 -33 -20.5 -53t-51.5 -20q-30 0 -50.5 20t-20.5 53q0 32 20.5 52t50.5 20q31 0 51.5 -20t20.5 -52z" />
    <glyph glyph-name="uni01D8" unicode="&#x1d8;" horiz-adv-x="582" 
d="M502 25q-72 -42 -215 -42q-122 0 -171 61t-49 178v314h126v-279q0 -93 18.5 -134t82.5 -41q56 0 82 13v441h126v-511zM199 637l133 198l94 -69l-152 -183zM182 652q0 -33 -20.5 -53t-50.5 -20q-31 0 -51.5 20t-20.5 53q0 32 20.5 52t51.5 20q30 0 50.5 -20t20.5 -52z
M532 652q0 -33 -20.5 -53t-51.5 -20q-30 0 -50.5 20t-20.5 53q0 32 20.5 52t50.5 20q31 0 51.5 -20t20.5 -52z" />
    <glyph glyph-name="uni01D9" unicode="&#x1d9;" horiz-adv-x="599" 
d="M557 230q0 -112 -66 -180.5t-188 -68.5q-108 0 -172.5 55t-75.5 147q-5 37 -5 95v418h130v-400q0 -108 27.5 -157.5t98.5 -49.5q50 0 83 30t38 88q4 37 4 90v399h126v-466zM195 1046l104 -90l104 90l57 -64l-161 -159l-159 159zM235 822q0 -33 -20.5 -53t-50.5 -20
q-31 0 -51.5 20t-20.5 53q0 32 20.5 52t51.5 20q30 0 50.5 -20t20.5 -52zM500 822q0 -33 -20.5 -53t-51.5 -20q-30 0 -50.5 20t-20.5 53q0 32 20.5 52t50.5 20q31 0 51.5 -20t20.5 -52z" />
    <glyph glyph-name="uni01DA" unicode="&#x1da;" horiz-adv-x="593" 
d="M485 25q-72 -42 -216 -42q-121 0 -170 61t-49 178v314h126v-279q0 -93 18.5 -134t82.5 -41q56 0 82 13v441h126v-511zM165 899l104 -89l104 89l57 -64l-161 -158l-159 158zM205 675q0 -32 -20.5 -52t-50.5 -20q-31 0 -51.5 20t-20.5 52q0 33 20.5 52.5t51.5 19.5
q30 0 50.5 -19.5t20.5 -52.5zM470 675q0 -32 -20.5 -52t-51.5 -20q-30 0 -50.5 20t-20.5 52q0 33 20.5 52.5t50.5 19.5q31 0 51.5 -19.5t20.5 -52.5z" />
    <glyph glyph-name="uni01DB" unicode="&#x1db;" horiz-adv-x="689" 
d="M582 230q0 -112 -66 -180.5t-188 -68.5q-107 0 -172 55t-76 147q-5 50 -5 95v418h131v-400q0 -108 27 -157.5t98 -49.5q51 0 83.5 30t38.5 88q3 42 3 90v399h126v-466zM438 805q0 -33 -21 -53t-53 -20q-31 0 -52.5 20.5t-21.5 52.5t20.5 53t53.5 21q32 0 53 -20.5
t21 -53.5zM368 805q0 -33 -21 -53t-53 -20q-31 0 -52.5 20.5t-21.5 52.5t20.5 53t53.5 21q32 0 53 -20.5t21 -53.5zM264 1039l133 -197l-75 -55l-152 183z" />
    <glyph glyph-name="uni01DC" unicode="&#x1dc;" horiz-adv-x="525" 
d="M485 25q-72 -42 -216 -42q-121 0 -170 61t-49 178v314h126v-279q0 -93 18.5 -134t82.5 -41q56 0 82 13v441h126v-511zM369 656q0 -33 -21 -53t-53 -20q-31 0 -52.5 20.5t-21.5 52.5t20.5 53t53.5 21q32 0 53 -20.5t21 -53.5zM299 656q0 -33 -21 -53t-53 -20
q-31 0 -52.5 20.5t-21.5 52.5t20.5 53t53.5 21q32 0 53 -20.5t21 -53.5zM195 890l133 -197l-75 -55l-152 183z" />
    <glyph glyph-name="uni01DD" unicode="&#x1dd;" horiz-adv-x="563" 
d="M525 262q0 -136 -73.5 -211.5t-176.5 -75.5q-110 0 -172 69.5t-62 203.5q0 20 2 54h347q-14 108 -112 126q-28 4 -63 3q-67 -4 -122 -30l-19 108q26 14 75 25.5t99 11.5q140 0 208.5 -77t68.5 -207zM390 202h-222q4 -55 31 -85.5t75 -30.5t79 33.5t37 82.5z" />
    <glyph glyph-name="uni01DE" unicode="&#x1de;" horiz-adv-x="675" 
d="M636 -6h-97l-42 4l-37 111q-4 11 -10 30.5t-9 27.5h-255q-43 -122 -58 -173h-126q152 442 257 702h119q89 -222 258 -702zM414 260l-75 221q-5 15 -10 33.5l-8 29t-6 15.5q-1 -1 -10 -29q-15 -49 -47.5 -143l-43.5 -127h200zM165 929v87h314v-87h-314zM287 814
q-1 -29 -19.5 -47t-46.5 -18q-29 0 -47.5 18.5t-18.5 48.5q0 34 19 51t47 17q29 0 47 -18t19 -52zM490 816q0 -30 -19 -48.5t-47 -18.5t-46.5 18.5t-19.5 50.5q1 32 18.5 49t45.5 17t48 -19.5t20 -48.5z" />
    <glyph glyph-name="uni01DF" unicode="&#x1df;" horiz-adv-x="527" 
d="M462 16q-82 -32 -208 -32q-220 0 -220 171q0 167 243 183q15 2 64 2q-2 57 -24.5 84.5t-79.5 27.5q-71 0 -139 -29l-22 90q75 34 177 34q192 0 206 -170q3 -32 3 -63v-298zM341 81v175q-32 4 -67 1q-56 -7 -87 -29t-31 -70q0 -86 107 -86q48 0 78 9zM97 767v87h313v-87
h-313zM219 652q-1 -29 -20 -47t-47 -18t-47 18.5t-19 48.5q0 34 19 51t47 17q29 0 47.5 -18t19.5 -52zM421 654q0 -30 -19 -48.5t-47 -18.5t-46.5 18.5t-19.5 50.5q1 32 18.5 49t45.5 18q28 0 48 -20t20 -49z" />
    <glyph glyph-name="uni01E0" unicode="&#x1e0;" horiz-adv-x="675" 
d="M636 -6h-97l-42 4l-37 111q-4 11 -10 30.5t-9 27.5h-255q-43 -122 -58 -173h-126q152 442 257 702h119q89 -222 258 -702zM414 260l-75 221q-5 15 -10 33.5l-8 29t-6 15.5q-1 -1 -10 -29q-15 -49 -47.5 -143l-43.5 -127h200zM176 925v90h280v-90h-280zM382 816
q0 -30 -19 -48.5t-47 -18.5t-47 18.5t-19 48.5q0 31 19 50.5t48 19.5q28 0 46.5 -19.5t18.5 -50.5z" />
    <glyph glyph-name="uni01E1" unicode="&#x1e1;" horiz-adv-x="527" 
d="M462 16q-82 -32 -208 -32q-220 0 -220 171q0 167 243 183q15 2 64 2q-2 57 -24.5 84.5t-79.5 27.5q-71 0 -139 -29l-22 90q75 34 177 34q192 0 206 -170q3 -32 3 -63v-298zM341 81v175q-32 4 -67 1q-56 -7 -87 -29t-31 -70q0 -86 107 -86q48 0 78 9zM104 771v90h280v-90
h-280zM311 662q0 -30 -19.5 -48.5t-47.5 -18.5t-47 18.5t-19 48.5q0 31 19 50.5t48 19.5q28 0 47 -20t19 -50z" />
    <glyph glyph-name="uni01E2" unicode="&#x1e2;" horiz-adv-x="948" 
d="M923 -13h-461v179h-238q-65 -115 -96 -179h-142q209 395 442 719h471v-115h-309v-172h273v-112h-273v-205h333v-115zM462 277v277q-90 -129 -136 -206l-43 -71h179zM736 780h-315v100h315v-100z" />
    <glyph glyph-name="uni01E3" unicode="&#x1e3;" horiz-adv-x="862" 
d="M471 319h223q-4 55 -31.5 86t-74.5 31q-48 0 -79.5 -33.5t-37.5 -83.5zM256 -24q-226 0 -226 180q0 89 64 131.5t168 42.5q50 0 80 -10q-2 27 -5 42t-12.5 34.5t-30.5 29t-53 9.5q-79 0 -143 -24l-16 108q69 27 168 27q123 0 168 -81q58 67 144 78q23 3 52 1
q98 -8 153 -76.5t55 -194.5q0 -3 -3 -54h-347q16 -131 152 -131q76 0 146 32l19 -108q-57 -31 -149 -35q-20 -2 -57 0q-89 6 -147 51q-78 -52 -180 -52zM346 220q-30 10 -74 10q-116 0 -116 -73t104 -73q65 0 111 28q-24 46 -25 108zM576 625h-315v100h315v-100z" />
    <glyph glyph-name="uni01E4" unicode="&#x1e4;" horiz-adv-x="706" 
d="M492 99v94h-108v101h108v85h130v-85h81v-101h-81v-181q-92 -38 -237 -38q-153 0 -247 98.5t-94 274.5q0 174 99 274t249 100q138 0 228 -57l-41 -109q-80 48 -180 48q-101 0 -160.5 -67t-59.5 -189q0 -120 55.5 -188.5t161.5 -68.5q65 0 96 9z" />
    <glyph glyph-name="uni01E5" unicode="&#x1e5;" horiz-adv-x="593" 
d="M354 2q28 8 35 38q-49 -27 -110 -27q-109 0 -175 66.5t-66 194.5q0 120 72 195t195 75q112 0 210 -32v-184h77v-94h-77v-159q0 -22 -2 -64q-7 -110 -71.5 -161t-191.5 -51q-89 0 -185 32l24 112q76 -32 163 -32q55 0 78.5 20.5t23.5 70.5zM390 150v84h-103v94h103v99
q-34 8 -84 8q-66 0 -103 -44.5t-37 -116.5q0 -76 35 -114t89 -38q59 0 100 28z" />
    <glyph glyph-name="Gcaron" unicode="&#x1e6;" horiz-adv-x="676" 
d="M579 21q-78 -39 -212 -39q-147 0 -234 96t-87 269q0 168 91.5 265t234.5 97q120 0 201 -47l-40 -95q-54 32 -137 35q-103 4 -159.5 -62t-56.5 -196q0 -123 50.5 -191.5t139.5 -68.5q58 0 82 12v188h-70v102h197v-365zM259 985l104 -89l104 89l57 -64l-161 -158l-159 158z
" />
    <glyph glyph-name="gcaron" unicode="&#x1e7;" horiz-adv-x="582" 
d="M499 18q0 -231 -243 -231q-104 0 -186 35l29 97q55 -27 123 -31q59 -1 95 22q60 25 60 93v25q-43 -24 -107 -24q-103 0 -166 68.5t-63 192.5q0 128 69.5 204.5t195.5 76.5q116 0 193 -35v-493zM376 118v326q-23 10 -73 10q-66 0 -100.5 -49t-34.5 -136t32.5 -130.5
t92.5 -43.5q49 0 83 23zM196 819l104 -89l104 89l57 -64l-161 -158l-159 158z" />
    <glyph glyph-name="uni01E8" unicode="&#x1e8;" horiz-adv-x="635" 
d="M596 -6h-107l-43 3q-112 182 -243 324v-327h-131v702h131v-296q95 104 233 296h146l-268 -326q164 -178 282 -376zM198 979l104 -89l104 89l57 -64l-161 -158l-159 158z" />
    <glyph glyph-name="uni01E9" unicode="&#x1e9;" horiz-adv-x="530" 
d="M524 -6h-142q-5 7 -30.5 46.5t-41 61.5l-39.5 55t-43.5 55t-35.5 34v-252h-125v786h125v-463q101 120 177 219h140l-210 -247q123 -133 225 -295zM278 819l104 -89l104 89l57 -64l-161 -158l-159 158z" />
    <glyph glyph-name="uni01EA" unicode="&#x1ea;" horiz-adv-x="781" 
d="M602 347q0 118 -57 187t-155 69q-97 0 -154 -69t-57 -187t57 -187t154 -69q98 0 155 69t57 187zM362 -25q-138 9 -228 106.5t-90 265.5q0 176 99.5 275t246.5 99q149 0 247.5 -98.5t98.5 -275.5q0 -230 -165 -326q-41 -22 -81 -53.5t-45 -60.5q3 -21 34 -19q20 2 45 10
l11 -95q-42 -16 -87 -16q-106 0 -118 70q-4 37 30 80q-6 18 2 38z" />
    <glyph glyph-name="uni01EB" unicode="&#x1eb;" 
d="M429 9q-99 -62 -102 -102q3 -21 34 -19q21 2 44 10l11 -95q-40 -16 -86 -16q-106 0 -119 70q-3 24 1 43q8 38 48 80q-100 11 -161 87t-61 194q0 127 72.5 206t185.5 79q114 0 186 -78.5t72 -206.5q0 -86 -33 -151t-92 -101zM425 261q0 79 -34.5 125.5t-94.5 46.5
t-94.5 -46.5t-34.5 -125.5q0 -80 34.5 -126.5t94.5 -46.5t94.5 46.5t34.5 126.5z" />
    <glyph glyph-name="uni01EC" unicode="&#x1ec;" horiz-adv-x="781" 
d="M602 347q0 118 -57 187t-155 69q-97 0 -154 -69t-57 -187t57 -187t154 -69q98 0 155 69t57 187zM362 -25q-138 9 -228 106.5t-90 265.5q0 176 99.5 275t246.5 99q149 0 247.5 -98.5t98.5 -275.5q0 -230 -165 -326q-41 -22 -81 -53.5t-45 -60.5q3 -21 34 -19q20 2 45 10
l11 -95q-42 -16 -87 -16q-106 0 -118 70q-4 37 30 80q-6 18 2 38zM548 780h-314v100h314v-100z" />
    <glyph glyph-name="uni01ED" unicode="&#x1ed;" 
d="M429 9q-98 -59 -102 -102q3 -21 34 -19q21 2 44 10l11 -95q-40 -16 -86 -16q-106 0 -119 70q-3 24 1 43q8 38 48 80q-100 11 -161 87t-61 194q0 127 72.5 206t185.5 79q114 0 186 -78.5t72 -206.5q0 -86 -33 -151t-92 -101zM425 261q0 79 -34.5 125.5t-94.5 46.5
t-94.5 -46.5t-34.5 -125.5q0 -80 34.5 -126.5t94.5 -46.5t94.5 46.5t34.5 126.5zM453 625h-314v100h314v-100z" />
    <glyph glyph-name="uni01EE" unicode="&#x1ee;" horiz-adv-x="574" 
d="M535 196q0 -115 -78.5 -169.5t-216.5 -54.5q-128 0 -231 59l41 110q96 -53 191 -53q159 0 159 109q0 45 -27 72t-67 36t-99 9h-38v61l4 21q76 76 173 196h-301v114h474v-80q-50 -72 -189 -223q205 -36 205 -207zM175 950l105 -89l104 89l56 -64l-160 -158l-159 158z" />
    <glyph glyph-name="uni01EF" unicode="&#x1ef;" horiz-adv-x="480" 
d="M112 144v63l3 23q87 99 152 194h-254v109h418v-81q-69 -103 -168 -219q84 -15 137 -64.5t53 -139.5q0 -111 -71 -169t-198 -58q-117 0 -197 42l30 106q77 -34 163 -34q72 0 109 29.5t37 85.5q0 113 -164 113h-50zM115 792l104 -89l105 89l56 -64l-161 -158l-158 158z" />
    <glyph glyph-name="uni01F0" unicode="&#x1f0;" horiz-adv-x="259" 
d="M2 -199q-41 0 -83 16l17 107q34 -12 60 -12q40 0 55.5 23.5t15.5 75.5v522h125v-522q0 -107 -46.5 -158.5t-143.5 -51.5zM28 792l104 -89l104 89l57 -64l-161 -158l-159 158z" />
    <glyph glyph-name="uni01F1" unicode="&#x1f1;" horiz-adv-x="1278" 
d="M649 346q0 -172 -100 -266t-279 -94q-106 0 -196 24v671q89 24 195 24q180 0 280 -93t100 -266zM207 594v-495q24 -4 71 -4q234 0 234 252q0 251 -233 251q-48 0 -72 -4zM1218 698l-7 -87q-1 -2 -63 -93l-94 -140l-83.5 -132.5t-84.5 -144.5h340v-107h-504l7 79
q54 110 150 262.5t173 255.5h-309v107h475z" />
    <glyph glyph-name="uni01F2" unicode="&#x1f2;" horiz-adv-x="1181" 
d="M649 346q0 -172 -100 -266t-279 -94q-106 0 -196 24v671q89 24 195 24q180 0 280 -93t100 -266zM207 594v-495q24 -4 71 -4q234 0 234 252q0 251 -233 251q-48 0 -72 -4zM1138 530l-6 -81l-32 -38q-132 -183 -205 -316h249v-101h-409q8 61 11 86q68 133 229 348h-225v102
h388z" />
    <glyph glyph-name="uni01F3" unicode="&#x1f3;" horiz-adv-x="1062" 
d="M526 785v-766q-88 -37 -212 -37q-125 0 -199 73.5t-74 205.5q0 126 65 202.5t177 76.5q67 0 114 -28v259q86 10 129 14zM397 93v319q-43 29 -94 29q-131 0 -131 -177q0 -87 38 -133.5t105 -46.5q48 0 82 9zM1019 530q-3 -30 -7 -81q-46 -55 -117 -160t-119 -194h249v-101
h-410l12 86q70 137 228 348h-224v102h388z" />
    <glyph glyph-name="uni01F4" unicode="&#x1f4;" horiz-adv-x="676" 
d="M579 21q-78 -39 -212 -39q-147 0 -234 96t-87 269q0 168 91.5 265t234.5 97q120 0 201 -47l-40 -95q-54 32 -137 35q-103 4 -159.5 -62t-56.5 -196q0 -123 50.5 -191.5t139.5 -68.5q58 0 82 12v188h-70v102h197v-365zM407 775h-84l84 195h154z" />
    <glyph glyph-name="uni01F5" unicode="&#x1f5;" horiz-adv-x="582" 
d="M499 18q0 -231 -243 -231q-104 0 -186 35l29 97q55 -27 123 -31q59 -1 95 22q60 25 60 93v25q-43 -24 -107 -24q-103 0 -166 68.5t-63 192.5q0 128 69.5 204.5t195.5 76.5q116 0 193 -35v-493zM376 118v326q-23 10 -73 10q-66 0 -100.5 -49t-34.5 -136t32.5 -130.5
t92.5 -43.5q49 0 83 23zM343 610h-84l84 195h154z" />
    <glyph glyph-name="uni01F6" unicode="&#x1f6;" horiz-adv-x="1053" 
d="M864 261v273h130v-290q0 -61 -11.5 -107.5t-38 -85t-76 -58.5t-120.5 -20q-136 0 -192 71t-56 199v61h-297v-317h-130v719h130v-286h297v286h131v-445q0 -90 27 -130.5t90 -40.5q62 0 89 40.5t27 130.5z" />
    <glyph glyph-name="uni01F7" unicode="&#x1f7;" horiz-adv-x="647" 
d="M203 -8v-190h-130v857q145 53 236 53q146 0 224.5 -69t78.5 -201q0 -84 -31 -154.5t-90 -124.5t-128 -94.5t-160 -76.5zM203 577v-457q50 23 85.5 42t73.5 48.5t61.5 61t38.5 76.5t15 98q0 74 -43.5 112t-123.5 38q-57 0 -107 -19z" />
    <glyph glyph-name="uni01F8" unicode="&#x1f8;" horiz-adv-x="729" 
d="M618 -6h-75l-34 3q-111 194 -277 441q-7 11 -17.5 29t-17 28t-8.5 10q0 -12 1 -79.5t1 -104.5v-327h-120v702h113q157 -215 278 -412q7 -11 15.5 -26.5t14 -24.5t8.5 -12q0 23 -1 108.5t-1 128.5v238h120v-702zM394 754h-84l-154 195h155z" />
    <glyph glyph-name="uni01F9" unicode="&#x1f9;" horiz-adv-x="577" 
d="M504 -6h-125v282q0 39 -1 58.5t-6 46t-15.5 39t-31 22t-50.5 9.5q-46 0 -84 -12v-445h-126v512q74 40 217 40q59 0 100.5 -14t65 -35.5t36.5 -57t16.5 -67t3.5 -77.5v-301zM318 589h-84l-154 195h155z" />
    <glyph glyph-name="Aringacute" unicode="&#x1fa;" horiz-adv-x="675" 
d="M646 -6h-139l-56 173h-255q-43 -122 -58 -173h-126q152 442 257 702h119q89 -222 258 -702zM424 260l-74 221q-5 15 -10.5 33.5t-9 29t-6.5 15.5q-4 -9 -15 -46q-14 -45 -44.5 -131.5t-41.5 -121.5h201zM440 829q0 -54 -34 -85.5t-83 -31.5t-83.5 31.5t-34.5 85.5
q0 53 34.5 84.5t83.5 31.5t83 -32t34 -84zM362 829q0 19 -11 30t-28 11t-28.5 -11t-11.5 -30q0 -20 11.5 -31t28.5 -11t28 11t11 31zM370 1185l85 -83l-188 -155l-65 63z" />
    <glyph glyph-name="aringacute" unicode="&#x1fb;" horiz-adv-x="527" 
d="M462 16q-82 -32 -208 -32q-220 0 -220 171q0 167 243 183q15 2 64 2q-2 57 -24.5 84.5t-79.5 27.5q-71 0 -139 -29l-22 90q75 34 177 34q192 0 206 -170q3 -32 3 -63v-298zM341 81v175q-32 4 -67 1q-56 -7 -87 -29t-31 -70q0 -86 107 -86q48 0 78 9zM368 695
q0 -54 -34 -85.5t-83 -31.5t-83.5 31.5t-34.5 85.5q0 53 34.5 84.5t83.5 31.5t83 -32t34 -84zM290 695q0 19 -11 30t-28 11t-28.5 -11t-11.5 -30q0 -20 11.5 -31t28.5 -11t28 11t11 31zM298 1051l85 -83l-188 -155l-65 63z" />
    <glyph glyph-name="AEacute" unicode="&#x1fc;" horiz-adv-x="948" 
d="M923 -13h-461v179h-238q-65 -115 -96 -179h-142q209 395 442 719h471v-115h-309v-172h273v-112h-273v-205h333v-115zM462 277v277q-90 -129 -136 -206l-43 -71h179zM652 960l85 -84l-187 -155l-65 64z" />
    <glyph glyph-name="aeacute" unicode="&#x1fd;" horiz-adv-x="862" 
d="M471 319h223q-4 55 -31.5 86t-74.5 31q-48 0 -79.5 -33.5t-37.5 -83.5zM256 -24q-226 0 -226 180q0 89 64 131.5t168 42.5q50 0 80 -10q-2 27 -5 42t-12.5 34.5t-30.5 29t-53 9.5q-79 0 -143 -24l-16 108q69 27 168 27q123 0 168 -81q58 67 144 78q23 3 52 1
q98 -8 153 -76.5t55 -194.5q0 -3 -3 -54h-347q16 -131 152 -131q76 0 146 32l19 -108q-57 -31 -149 -35q-20 -2 -57 0q-89 6 -147 51q-78 -52 -180 -52zM346 220q-30 10 -74 10q-116 0 -116 -73t104 -73q65 0 111 28q-24 46 -25 108zM506 802l86 -83l-188 -156l-65 64z" />
    <glyph glyph-name="Oslashacute" unicode="&#x1fe;" horiz-adv-x="781" 
d="M736 347q0 -178 -97.5 -276t-248.5 -98q-105 0 -184 50l-60 -79l-84 62l65 84q-83 94 -83 257q0 176 99.5 275t246.5 99q105 0 184 -52l62 81l84 -63l-66 -85q82 -98 82 -255zM179 347q0 -86 36 -144l283 367q-45 33 -108 33q-97 0 -154 -69t-57 -187zM602 347
q0 83 -35 143l-284 -368q45 -31 107 -31q98 0 155 69t57 187zM454 960l85 -84l-188 -155l-65 64z" />
    <glyph glyph-name="oslashacute" unicode="&#x1ff;" 
d="M554 261q0 -129 -71 -207.5t-187 -78.5q-77 0 -133 37l-49 -66l-75 56l55 71q-56 73 -56 188q0 127 72.5 206t185.5 79q78 0 134 -38l22 29l28 36l74 -55l-55 -71q55 -75 55 -186zM164 265q3 -40 25 -68l168 217q-33 23 -72 20q-56 -5 -88 -50t-33 -119zM429 255
q-5 43 -26 67l-168 -217q31 -21 73 -19q56 5 88 50t33 119zM362 802l85 -83l-188 -156l-65 64z" />
    <glyph glyph-name="uni0200" unicode="&#x200;" horiz-adv-x="675" 
d="M661 -6h-100l-44 4q-37 106 -53 156h-280l-56 -160h-131q172 484 270 704h123q91 -208 271 -704zM325 554q-14 -28 -29.5 -68t-26 -70l-28.5 -83.5l-27 -79.5h220l-36.5 105.5l-41 116t-31.5 79.5zM265 905l81 69l134 -187l-69 -53zM78 903l84 71l134 -187l-69 -53z" />
    <glyph glyph-name="uni0201" unicode="&#x201;" horiz-adv-x="527" 
d="M462 16q-82 -32 -208 -32q-220 0 -220 171q0 167 243 183q15 2 64 2q-2 57 -24.5 84.5t-79.5 27.5q-71 0 -139 -29l-22 90q75 34 177 34q192 0 206 -170q3 -32 3 -63v-298zM341 81v175q-32 4 -67 1q-56 -7 -87 -29t-31 -70q0 -86 107 -86q48 0 78 9zM180 752l81 68
l134 -187l-69 -52zM-7 749l84 71l134 -187l-69 -52z" />
    <glyph glyph-name="uni0202" unicode="&#x202;" horiz-adv-x="675" 
d="M661 -6h-100l-44 4q-37 106 -53 156h-280l-56 -160h-131q172 484 270 704h123q91 -208 271 -704zM325 554q-14 -28 -29.5 -68t-26 -70l-28.5 -83.5l-27 -79.5h220l-36.5 105.5l-41 116t-31.5 79.5zM336 920q72 0 112 -44t40 -128h-92q-4 75 -60 75q-57 0 -59 -75h-92
q-3 83 38.5 127.5t112.5 44.5z" />
    <glyph glyph-name="uni0203" unicode="&#x203;" horiz-adv-x="527" 
d="M266 784q72 0 111.5 -44t39.5 -128h-91q-4 74 -60 74t-60 -74h-92q-2 82 39.5 127t112.5 45zM462 16q-82 -32 -208 -32q-220 0 -220 171q0 167 243 183q21 2 64 -1q-2 58 -24.5 86.5t-79.5 28.5q-71 0 -139 -29l-22 90q75 34 177 34q192 0 206 -170q3 -32 3 -63v-298z
M341 81v175q-32 4 -67 1q-56 -7 -87 -29t-31 -70q0 -86 107 -86q48 0 78 9z" />
    <glyph glyph-name="uni0204" unicode="&#x204;" horiz-adv-x="576" 
d="M480 -6h-409v702h396v-101h-265v-187h235v-100h-235v-213h278v-101zM265 905l81 69l134 -187l-69 -53zM78 903l84 71l134 -187l-69 -53z" />
    <glyph glyph-name="uni0205" unicode="&#x205;" horiz-adv-x="563" 
d="M506 245l-338 -24q15 -138 149 -138q77 0 141 31l24 -94q-70 -37 -177 -37q-128 0 -196 75t-68 207q0 133 68 207.5t173 74.5q98 0 156 -57t66 -168q0 -5 1 -14t1 -14q2 -24 0 -49zM385 320q-3 134 -105 134q-52 0 -83.5 -40t-32.5 -111zM180 752l81 68l134 -187l-69 -52
zM-7 749l84 71l134 -187l-69 -52z" />
    <glyph glyph-name="uni0206" unicode="&#x206;" horiz-adv-x="576" 
d="M517 -6h-443v704h423v-107h-289v-179h256v-105h-256v-206h309v-107zM301 920q72 0 111.5 -44t39.5 -128h-91q-4 75 -60 75t-60 -75h-91q-3 83 38.5 127.5t112.5 44.5z" />
    <glyph glyph-name="uni0207" unicode="&#x207;" horiz-adv-x="563" 
d="M41 262q0 130 71 205t176 75q96 0 154.5 -53.5t70.5 -155.5q5 -28 4 -54q2 -25 0 -49l-344 -9q14 -134 151 -134q76 0 141 30l23 -99q-70 -36 -176 -36q-136 0 -203.5 76.5t-67.5 203.5zM171 309l221 4q-2 62 -29 96t-76 34q-51 0 -82.5 -38.5t-33.5 -95.5zM288 763
q72 0 112 -44t40 -128h-92q-4 74 -60 74q-57 0 -59 -74h-92q-2 82 39 127t112 45z" />
    <glyph glyph-name="uni0208" unicode="&#x208;" horiz-adv-x="277" 
d="M203 -6h-131v702h131v-702zM58 905l81 69l134 -187l-70 -53zM-130 903l84 71l134 -187l-69 -53z" />
    <glyph glyph-name="uni0209" unicode="&#x209;" horiz-adv-x="259" 
d="M192 533v-546h-125v546h125zM66 752l81 68l134 -187l-69 -52zM-122 749l85 71l134 -187l-69 -52z" />
    <glyph glyph-name="uni020A" unicode="&#x20a;" horiz-adv-x="277" 
d="M74 -6v704h134v-704h-134zM140 941q71 0 111 -44t40 -128h-92q-2 74 -59 74q-56 0 -60 -74h-92q-2 82 39.5 127t112.5 45z" />
    <glyph glyph-name="uni020B" unicode="&#x20b;" horiz-adv-x="259" 
d="M192 533v-546h-125v546h125zM130 784q72 0 112 -44t40 -128h-92q-4 74 -60 74q-57 0 -59 -74h-92q-3 82 38.5 127t112.5 45z" />
    <glyph glyph-name="uni020C" unicode="&#x20c;" horiz-adv-x="781" 
d="M652 345q0 -167 -81 -265t-222 -98q-140 0 -221.5 98.5t-81.5 264.5t82 265t221 99q140 0 221.5 -99t81.5 -265zM518 348q0 114 -42.5 186.5t-126.5 72.5t-126.5 -72.5t-42.5 -186.5q0 -115 42.5 -187.5t126.5 -72.5q85 0 127 72.5t42 187.5zM265 905l81 69l134 -187
l-69 -53zM78 903l84 71l134 -187l-69 -53z" />
    <glyph glyph-name="uni020D" unicode="&#x20d;" 
d="M525 265q0 -127 -64.5 -205t-177.5 -78q-112 0 -177 78t-65 205q0 126 65.5 204t176.5 78q112 0 177 -77.5t65 -204.5zM398 266q0 83 -28.5 134.5t-86.5 51.5t-86.5 -52t-28.5 -134q0 -84 28 -134t87 -50t87 50.5t28 133.5zM186 752l81 68l134 -187l-69 -52zM-2 749
l85 71l134 -187l-70 -52z" />
    <glyph glyph-name="uni020E" unicode="&#x20e;" horiz-adv-x="781" 
d="M653 345q0 -167 -81 -265t-222 -98q-140 0 -221.5 98.5t-81.5 264.5t82 265t221 99q140 0 221.5 -99t81.5 -265zM520 348q0 114 -43 186.5t-127 72.5t-126.5 -72.5t-42.5 -186.5q0 -115 42.5 -187.5t126.5 -72.5q85 0 127.5 72.5t42.5 187.5zM334 926q71 0 112 -44.5
t39 -127.5h-51q-2 33 -26 61.5t-74 28.5t-73.5 -28t-25.5 -62h-53q-2 83 39 127.5t113 44.5z" />
    <glyph glyph-name="uni020F" unicode="&#x20f;" 
d="M525 265q0 -127 -64.5 -205t-177.5 -78q-112 0 -177 78t-65 205q0 126 65.5 204t176.5 78q112 0 177 -77.5t65 -204.5zM398 266q0 83 -28.5 134.5t-86.5 51.5t-86.5 -52t-28.5 -134q0 -84 28 -134t87 -50t87 50.5t28 133.5zM285 757q71 0 112 -44.5t39 -127.5h-51
q-2 33 -26 61.5t-74 28.5t-73.5 -28t-25.5 -62h-53q-2 83 39 127.5t113 44.5z" />
    <glyph glyph-name="uni0210" unicode="&#x210;" horiz-adv-x="639" 
d="M587 -6h-144q-43 75 -144 233l-57 57h-41v-290h-129v681q92 30 195 30q141 0 213.5 -57t72.5 -164q0 -74 -43.5 -123.5t-115.5 -64.5v-1q80 -100 193 -301zM421 481q1 64 -34.5 94.5t-101.5 33.5q-34 0 -49 -1q-8 -1 -35 -6v-247q45 -3 54 -3q82 0 124 30.5t42 98.5z
M265 905l81 69l134 -187l-69 -53zM78 903l84 71l134 -187l-69 -53z" />
    <glyph glyph-name="uni0211" unicode="&#x211;" horiz-adv-x="394" 
d="M362 535q-10 -44 -23 -93q-34 6 -66 4q-15 3 -21 3q-35 0 -61 -11v-444h-126v513q82 35 184 38q56 2 113 -10zM180 752l81 68l134 -187l-69 -52zM-7 749l84 71l134 -187l-69 -52z" />
    <glyph glyph-name="uni0212" unicode="&#x212;" horiz-adv-x="639" 
d="M581 480q0 -67 -36.5 -114.5t-97.5 -71.5q39 -49 91 -137t86 -163h-146q-44 87 -149 251l-50 24h-72v-275h-133v686q88 25 200 25q307 0 307 -225zM282 603q-41 0 -75 -4v-245h59q87 0 133 26.5t46 97.5q0 125 -163 125zM303 920q72 0 111.5 -44t39.5 -128h-91
q-4 75 -60 75t-60 -75h-92q-2 83 39 127.5t113 44.5z" />
    <glyph glyph-name="uni0213" unicode="&#x213;" horiz-adv-x="394" 
d="M271 540q65 0 115 -16l-22 -96q-25 8 -73 7q-15 3 -21 3q-46 0 -73 -10v-434h-129v507q88 39 203 39zM235 763q71 0 112 -45t39 -127h-92q-2 74 -59 74q-56 0 -60 -74h-92q-2 82 39.5 127t112.5 45z" />
    <glyph glyph-name="uni0214" unicode="&#x214;" horiz-adv-x="691" 
d="M575 230q0 -112 -66 -180.5t-188 -68.5q-107 0 -172 55t-76 147q-4 40 -4 95v418h130v-400q0 -108 27 -157.5t98 -49.5q51 0 83.5 30t38.5 88q3 42 3 90v399h126v-466zM265 905l81 69l134 -187l-69 -53zM78 903l84 71l134 -187l-69 -53z" />
    <glyph glyph-name="uni0215" unicode="&#x215;" horiz-adv-x="577" 
d="M497 25q-72 -42 -215 -42q-122 0 -171 61t-49 178v314h126v-279q0 -93 18.5 -134t82.5 -41q55 0 83 13v441h125v-511zM180 752l81 68l134 -187l-69 -52zM-7 749l84 71l134 -187l-69 -52z" />
    <glyph glyph-name="uni0216" unicode="&#x216;" horiz-adv-x="691" 
d="M337 -20q-267 0 -267 288v430h134v-409q0 -102 33 -149t103 -47t102.5 46.5t32.5 149.5v409h131v-450q0 -123 -68 -195.5t-201 -72.5zM346 920q72 0 111.5 -44t39.5 -128h-91q-4 75 -60 75t-60 -75h-92q-2 83 39 127.5t113 44.5z" />
    <glyph glyph-name="uni0217" unicode="&#x217;" horiz-adv-x="577" 
d="M514 530v-509q-73 -38 -222 -38q-121 0 -174.5 60.5t-53.5 176.5v310h128v-269q0 -94 22.5 -133.5t85.5 -39.5q59 0 86 9v433h128zM286 763q71 0 111 -44t40 -128h-92q-2 74 -59 74q-56 0 -60 -74h-92q-2 82 39.5 127t112.5 45z" />
    <glyph glyph-name="Scommaaccent" unicode="&#x218;" horiz-adv-x="544" 
d="M231 91q128 0 128 89q0 25 -9 43.5t-30.5 33t-42.5 24.5t-59 25l-13 5q-72 32 -111.5 71t-48.5 94q-5 27 -3 56q8 85 71 132.5t167 47.5q119 0 194 -49l-38 -100q-66 42 -147 42q-115 0 -115 -83q0 -22 8 -38.5t29.5 -30.5t39 -22.5t55.5 -24.5q8 -3 12 -5
q94 -41 137 -86.5t43 -128.5q0 -97 -68.5 -151.5t-188.5 -54.5q-137 0 -217 51l37 106q77 -46 170 -46zM220 -67v26h109q4 -26 4 -31q0 -16 -1 -20q-3 -58 -36.5 -87.5t-84.5 -32.5h-24q-26 2 -40 8v81q38 0 55.5 12.5t17.5 43.5z" />
    <glyph glyph-name="scommaaccent" unicode="&#x219;" horiz-adv-x="452" 
d="M191 85q91 0 91 54q0 28 -21.5 43.5t-89.5 43.5q-67 30 -99.5 63.5t-32.5 91.5q0 73 52.5 117t141.5 44q93 0 159 -32q-10 -32 -28 -96q-56 27 -118 27q-35 0 -57.5 -13t-22.5 -39q0 -9 2 -16.5t7.5 -14t10 -11t15.5 -10.5t19 -9.5l24.5 -11l27.5 -12.5q74 -33 107.5 -67
t33.5 -95q0 -77 -56.5 -118.5t-158.5 -41.5q-104 0 -171 35l30 101q63 -33 134 -33zM172 -67v26h109q4 -17 4 -31v-20q-3 -58 -36.5 -87.5t-85.5 -32.5h-23q-27 2 -41 8v81q38 0 55.5 12.5t17.5 43.5z" />
    <glyph glyph-name="uni021A" unicode="&#x21a;" horiz-adv-x="576" 
d="M15 698h522v-107h-194v-597h-134v597h-194v107zM229 -67v26h110q1 -8 2.5 -18.5t1.5 -12.5q0 -5 -0.5 -12t-0.5 -8q-3 -58 -36.5 -87.5t-85.5 -32.5h-23q-25 2 -41 8v81q38 0 55.5 12.5t17.5 43.5z" />
    <glyph glyph-name="uni021B" unicode="&#x21b;" horiz-adv-x="411" 
d="M200 692v-162h172v-102h-172v-226q0 -67 19 -91t61 -24q47 0 95 24q9 -60 16 -98q-52 -27 -121 -30q-64 -2 -105 15.5t-61 56t-26.5 80t-6.5 104.5h-11v100l11 148v179zM186 -67v26h109q4 -26 4 -31q0 -16 -1 -20q-3 -58 -36.5 -87.5t-84.5 -32.5h-24q-26 2 -40 8v81
q38 0 55.5 12.5t17.5 43.5z" />
    <glyph glyph-name="uni021C" unicode="&#x21c;" horiz-adv-x="542" 
d="M212 605q-88 0 -166 -47l-45 109q97 54 212 54q110 0 179 -50t78 -149q3 -29 0 -59q-8 -49 -38.5 -90t-78.5 -65q70 -28 109.5 -84t39.5 -128q0 -79 -33 -138t-91 -92t-126.5 -48.5t-148.5 -15.5q-62 0 -92 5l8 116q33 -4 78 -4q43 0 81 6.5t73.5 20.5t58.5 41.5t29 65.5
q27 35 22 77q-10 41 -43.5 67t-70 35t-77.5 9h-61v114h52q76 0 127 34t51 100q0 55 -33 85.5t-94 30.5z" />
    <glyph glyph-name="uni021D" unicode="&#x21d;" horiz-adv-x="442" 
d="M164 435q-67 0 -135 -29l-29 107q77 33 165 33q102 0 163 -46t61 -144q0 -45 -26.5 -83t-69.5 -60q119 -41 119 -163q0 -55 -24 -98t-62.5 -70.5t-92.5 -46t-109.5 -26t-117.5 -7.5l-7 110q40 2 71 4.5t73.5 11.5t70.5 23t48 39.5t20 60.5q0 96 -149 96h-34v108
q162 0 162 98q0 82 -97 82z" />
    <glyph glyph-name="uni021E" unicode="&#x21e;" horiz-adv-x="710" 
d="M487 412v286h133v-704h-133v311h-279v-311h-134v704h134v-286h279zM250 950l105 -89l104 89l56 -64l-160 -158l-159 158z" />
    <glyph glyph-name="uni021F" unicode="&#x21f;" horiz-adv-x="577" 
d="M197 -6h-129v777q90 10 129 14v-264q46 16 97 18q68 2 114 -15t70 -53t33 -79t9 -103v-295h-128v269q0 97 -22.5 136t-88.5 39q-45 0 -84 -14v-430zM338 910l-148 -114l-148 114l44 66l104 -66l104 66z" />
    <glyph glyph-name="uni0220" unicode="&#x220;" horiz-adv-x="681" 
d="M611 427v-625h-130v613q0 98 -37 143.5t-118 45.5q-72 0 -123 -14v-603h-130v687q67 46 263 46q275 0 275 -293z" />
    <glyph glyph-name="uni0221" unicode="&#x221;" horiz-adv-x="738" 
d="M584 28q-30 0 -59 -32v-18q0 -34 16 -53t44 -19q26 0 40.5 17t14.5 43t-14.5 44t-41.5 18zM525 791v-684q31 25 75 25q68 0 111 -45t43 -118q0 -79 -47 -123t-122 -44q-112 0 -153 90l-72 -83l-70 65l71 84q2 7 6 16.5l6 14.5q-50 -10 -106 -6q-106 12 -167.5 84.5
t-61.5 191.5q0 130 65.5 207.5t181.5 77.5q61 0 115 -28v254zM400 101v301q-46 30 -102 30q-68 0 -99.5 -46t-31.5 -124q0 -82 39.5 -127.5t107.5 -45.5q41 0 86 12z" />
    <glyph glyph-name="uni0222" unicode="&#x222;" horiz-adv-x="678" 
d="M339 92q75 0 121 28t46 85q0 58 -45 85.5t-122 27.5t-122 -27.5t-45 -85.5q0 -57 46 -85t121 -28zM339 -21q-152 0 -226.5 58t-74.5 165q0 63 36 109.5t91 70.5q-81 45 -81 160q0 77 23 164h125q-19 -95 -19 -157q0 -119 126 -119t126 119q0 59 -18 157h125
q22 -86 22 -164q0 -115 -80 -160q55 -24 90.5 -70t35.5 -110q0 -107 -74 -165t-227 -58z" />
    <glyph glyph-name="uni0223" unicode="&#x223;" 
d="M296 87q60 0 94.5 39t34.5 109q0 69 -34.5 109t-94.5 40t-94.5 -40t-34.5 -109q0 -70 34.5 -109t94.5 -39zM296 495q101 0 101 132q0 63 -16 162h121q19 -89 19 -171q0 -125 -79 -173q51 -30 81.5 -85t30.5 -128q0 -117 -70 -187t-188 -70t-188 70t-70 187q0 73 30.5 128
t81.5 85q-79 48 -79 173q0 74 19 171h121q-15 -93 -15 -162q0 -132 100 -132z" />
    <glyph glyph-name="uni0224" unicode="&#x224;" horiz-adv-x="581" 
d="M326 -90q24 -8 46 -8q31 0 43.5 20t14.5 65h-406v85q59 112 166 267.5t188 251.5h-336v115h505v-94l-22 -31q-74 -86 -174.5 -225.5t-167.5 -253.5h375v-97q0 -97 -28 -145.5t-103 -55.5q-28 -3 -54 -2q-28 2 -63 14z" />
    <glyph glyph-name="uni0225" unicode="&#x225;" horiz-adv-x="474" 
d="M338 -13h-314v81q43 78 117 180.5t136 175.5h-239v109h406v-90q-44 -48 -125.5 -153t-137.5 -193h270v-108q0 -88 -27 -133t-99 -51q-54 -9 -111 12l20 92q25 -8 52 -8q30 0 40.5 20t11.5 66z" />
    <glyph glyph-name="uni0226" unicode="&#x226;" horiz-adv-x="675" 
d="M646 -6h-139l-56 173h-255q-43 -122 -58 -173h-126q152 442 257 702h119q89 -222 258 -702zM424 260l-74 221q-5 15 -10.5 33.5t-9 29t-6.5 15.5q-4 -9 -15 -46q-14 -45 -44.5 -131.5t-41.5 -121.5h201zM312 762q-32 0 -53 20t-21 54t21 54t53 20q31 0 52 -20t21 -54
t-21 -54t-52 -20z" />
    <glyph glyph-name="uni0227" unicode="&#x227;" horiz-adv-x="527" 
d="M462 16q-82 -32 -208 -32q-220 0 -220 171q0 167 243 183q21 2 64 -1q-2 58 -24.5 86.5t-79.5 28.5q-71 0 -139 -29l-22 90q75 34 177 34q192 0 206 -170q3 -32 3 -63v-298zM341 81v175q-32 4 -67 1q-56 -7 -87 -29t-31 -70q0 -86 107 -86q48 0 78 9zM264 603
q-32 0 -53 20t-21 54t21 54t53 20q31 0 52 -20t21 -54t-21 -54t-52 -20z" />
    <glyph glyph-name="uni0228" unicode="&#x228;" horiz-adv-x="576" 
d="M375 -73q34 -29 30 -67q-19 -74 -122 -74q-51 0 -93 16l17 87q32 -14 69 -14q10 1 15 5.5t4 12.5q-7 15 -53 32q15 42 26 62h-195v719h454v-115h-324v-172h288v-112h-288v-205h349v-115h-186q13 -22 9 -60z" />
    <glyph glyph-name="uni0229" unicode="&#x229;" horiz-adv-x="563" 
d="M348 -23q12 -22 7 -50q36 -27 33 -63q-17 -78 -125 -78q-50 0 -92 16l17 87q32 -14 69 -14q10 1 15 5.5t4 12.5q-4 10 -14.5 16t-37.5 16q8 27 22 58q-105 18 -156.5 91t-51.5 185q0 136 74 211.5t176 75.5q111 0 173 -69.5t62 -203.5q0 -9 -1.5 -27t-1.5 -27h-347
q14 -111 118 -127q19 -4 51 -2q65 2 128 30l19 -108q-52 -29 -141 -35zM173 319h222q-4 56 -31 86.5t-75 30.5t-79 -33.5t-37 -83.5z" />
    <glyph glyph-name="uni022A" unicode="&#x22a;" horiz-adv-x="781" 
d="M652 345q0 -167 -81 -265t-222 -98q-140 0 -221.5 98.5t-81.5 264.5t82 265t221 99q140 0 221.5 -99t81.5 -265zM518 348q0 114 -42.5 186.5t-126.5 72.5t-126.5 -72.5t-42.5 -186.5q0 -115 42.5 -187.5t126.5 -72.5q85 0 127 72.5t42 187.5zM191 929v87h314v-87h-314z
M313 814q-1 -29 -19.5 -47t-46.5 -18q-29 0 -47.5 18.5t-18.5 48.5q0 34 18.5 51t46.5 17q30 0 48 -18t19 -52zM516 816q0 -30 -19 -48.5t-47 -18.5q-29 0 -47.5 18.5t-19.5 50.5q1 33 19 49.5t46 16.5t48 -19.5t20 -48.5z" />
    <glyph glyph-name="uni022B" unicode="&#x22b;" 
d="M525 265q0 -127 -64.5 -205t-177.5 -78q-112 0 -177 78t-65 205q0 126 65.5 204t176.5 78q112 0 177 -77.5t65 -204.5zM398 266q0 83 -28.5 134.5t-86.5 51.5t-86.5 -52t-28.5 -134q0 -84 28 -134t87 -50t87 50.5t28 133.5zM124 767v87h314v-87h-314zM246 652
q-1 -29 -19.5 -47t-46.5 -18q-29 0 -47.5 18.5t-18.5 48.5q0 34 19 51t47 17q29 0 47 -18t19 -52zM449 654q0 -30 -19 -48.5t-47 -18.5q-29 0 -47 18.5t-19 50.5q1 32 18.5 49t45.5 18q27 0 47.5 -20t20.5 -49z" />
    <glyph glyph-name="uni022C" unicode="&#x22c;" horiz-adv-x="781" 
d="M652 345q0 -167 -81 -265t-222 -98q-140 0 -221.5 98.5t-81.5 264.5t82 265t221 99q140 0 221.5 -99t81.5 -265zM518 348q0 114 -42.5 186.5t-126.5 72.5t-126.5 -72.5t-42.5 -186.5q0 -115 42.5 -187.5t126.5 -72.5q85 0 127 72.5t42 187.5zM249 873q41 0 84.5 -18.5
t89.5 -17.5q56 6 114 41l15 -35q-37 -95 -123 -95q-23 0 -66.5 18.5t-62.5 18.5q-10 0 -36 -11.5t-40 -29.5l-61 59q46 60 86 70zM527 912h-320v99h320v-99z" />
    <glyph glyph-name="uni022D" unicode="&#x22d;" 
d="M525 265q0 -127 -64.5 -205t-177.5 -78q-112 0 -177 78t-65 205q0 126 65.5 204t176.5 78q112 0 177 -77.5t65 -204.5zM398 266q0 83 -28.5 134.5t-86.5 51.5t-86.5 -52t-28.5 -134q0 -84 28 -134t87 -50t87 50.5t28 133.5zM341 598q-28 0 -71 18.5t-56 18.5
q-24 0 -49 -50l-73 44q15 41 46.5 74t73.5 33q30 0 72 -18.5t55 -18.5q23 0 50 50l73 -45q-58 -106 -121 -106zM103 786v86h313v-86h-313z" />
    <glyph glyph-name="uni022E" unicode="&#x22e;" horiz-adv-x="781" 
d="M653 345q0 -167 -81 -265t-222 -98q-140 0 -221.5 98.5t-81.5 264.5t82 265t221 99q140 0 221.5 -99t81.5 -265zM520 348q0 114 -43 186.5t-127 72.5t-126.5 -72.5t-42.5 -186.5q0 -115 42.5 -187.5t126.5 -72.5q85 0 127.5 72.5t42.5 187.5zM350 784q-32 0 -53 20
t-21 54t21 54t53 20q31 0 52 -20t21 -54t-21 -54t-52 -20z" />
    <glyph glyph-name="uni022F" unicode="&#x22f;" 
d="M525 265q0 -127 -64.5 -205t-177.5 -78q-112 0 -177 78t-65 205q0 126 65.5 204t176.5 78q112 0 177 -77.5t65 -204.5zM398 266q0 83 -28.5 134.5t-86.5 51.5t-86.5 -52t-28.5 -134q0 -84 28 -134t87 -50t87 50.5t28 133.5zM296 619q-31 0 -52 20.5t-21 54.5
q0 33 21 53.5t52 20.5t52.5 -20.5t21.5 -53.5q0 -34 -21 -54.5t-53 -20.5z" />
    <glyph glyph-name="uni0230" unicode="&#x230;" horiz-adv-x="781" 
d="M652 345q0 -167 -81 -265t-222 -98q-140 0 -221.5 98.5t-81.5 264.5t82 265t221 99q140 0 221.5 -99t81.5 -265zM518 348q0 114 -42.5 186.5t-126.5 72.5t-126.5 -72.5t-42.5 -186.5q0 -115 42.5 -187.5t126.5 -72.5q85 0 127 72.5t42 187.5zM209 925v90h280v-90h-280z
M415 816q0 -30 -19 -48.5t-47 -18.5t-47 18.5t-19 48.5q0 31 19 50.5t48 19.5q28 0 46.5 -19.5t18.5 -50.5z" />
    <glyph glyph-name="uni0231" unicode="&#x231;" 
d="M525 265q0 -127 -64.5 -205t-177.5 -78q-112 0 -177 78t-65 205q0 126 65.5 204t176.5 78q112 0 177 -77.5t65 -204.5zM398 266q0 83 -28.5 134.5t-86.5 51.5t-86.5 -52t-28.5 -134q0 -84 28 -134t87 -50t87 50.5t28 133.5zM142 771v90h280v-90h-280zM348 662
q0 -30 -19 -48.5t-47 -18.5t-47 18.5t-19 48.5q0 31 19 50.5t48 19.5q28 0 46.5 -19.5t18.5 -50.5z" />
    <glyph glyph-name="uni0232" unicode="&#x232;" horiz-adv-x="608" 
d="M565 696q-110 -219 -219 -411v-291h-130v290q-109 193 -218 412h144q76 -170 143 -297q69 131 146 297h134zM443 787h-314v100h314v-100z" />
    <glyph glyph-name="uni0233" unicode="&#x233;" horiz-adv-x="523" 
d="M503 536q-95 -333 -195 -599q-25 -61 -54 -89t-77 -28q-41 0 -111 29l25 83q43 -20 58 -20q16 0 28.5 14t18 29.5t11.5 37.5q1 5 2 8q-111 268 -191 535h133q40 -162 95 -324q21 -75 24 -81q2 2 5 14.5t8.5 33.5l8.5 33q37 120 89 324h122zM418 625h-314v100h314v-100z
" />
    <glyph glyph-name="uni0234" unicode="&#x234;" horiz-adv-x="421" 
d="M267 28q-31 0 -59 -32v-18q0 -34 15.5 -53t44.5 -19q26 0 40.5 17t14.5 43t-14.5 44t-41.5 18zM112 -107l-72 -84l-70 65l113 131v62v702l125 22v-683q31 24 75 24q68 0 111 -45t43 -118q0 -79 -47 -123t-122 -44q-114 0 -156 91z" />
    <glyph glyph-name="uni0235" unicode="&#x235;" horiz-adv-x="729" 
d="M575 28q-29 0 -59 -32v-18q0 -34 15.5 -53t44.5 -19q26 0 40.5 17t14.5 43t-14.5 44t-41.5 18zM516 292v-185q31 25 76 25q58 0 99.5 -35.5t48.5 -95.5q6 -30 1 -63q-10 -65 -54.5 -100.5t-110.5 -35.5q-114 0 -156 91l-72 -84l-70 65l113 131v44v224q0 87 -24.5 122.5
t-87.5 35.5q-55 0 -87 -8v-436h-125v525q112 32 221 32q125 0 176.5 -65t51.5 -187z" />
    <glyph glyph-name="uni0236" unicode="&#x236;" horiz-adv-x="439" 
d="M208 424v-317q31 25 75 25q68 0 111 -45t43 -118q0 -79 -47 -123t-122 -44q-114 0 -156 91l-72 -84l-70 65l113 131v49v621l125 21v-163h195v-109h-195zM267 27q-32 0 -59 -32v-17q0 -34 15.5 -53t44.5 -19q27 0 41 17t14 43t-15 43.5t-41 17.5z" />
    <glyph glyph-name="uni0237" unicode="&#x237;" horiz-adv-x="259" 
d="M2 -199q-41 0 -83 16l17 107q34 -12 60 -12q40 0 55.5 23.5t15.5 75.5v522h125v-522q0 -107 -46.5 -158.5t-143.5 -51.5z" />
    <glyph glyph-name="uni0238" unicode="&#x238;" horiz-adv-x="925" 
d="M525 402v-306q32 -8 86 -8q68 0 107.5 46t39.5 128q0 170 -132 170q-55 0 -101 -30zM525 791v-275q54 28 117 28q116 0 180.5 -77.5t64.5 -206.5q0 -131 -74.5 -208t-200.5 -77q-72 0 -150 24q-78 -24 -149 -24q-126 0 -200.5 76t-74.5 208q0 130 65.5 207.5t181.5 77.5
q61 0 115 -28v254zM400 96v306q-46 30 -102 30q-68 0 -99.5 -46t-31.5 -124q0 -82 39.5 -128t107.5 -46q54 0 86 8z" />
    <glyph glyph-name="uni0239" unicode="&#x239;" horiz-adv-x="925" 
d="M525 423v-304q46 -30 101 -30q132 0 132 169q0 82 -39.5 127.5t-107.5 45.5q-54 0 -86 -8zM525 5v-203h-125v203q-56 -29 -117 -29q-116 0 -180.5 77t-64.5 207t74.5 207t200.5 77q74 0 149 -25q73 25 150 25q126 0 200.5 -76.5t74.5 -207.5q0 -128 -65 -206t-180 -78
q-61 0 -117 29zM400 119v304q-32 8 -86 8q-68 0 -107.5 -45.5t-39.5 -127.5q0 -169 131 -169q56 0 102 30z" />
    <glyph glyph-name="uni023A" unicode="&#x23a;" horiz-adv-x="718" 
d="M494 780l95 -29l-85 -234l57.5 -142l78 -204.5l66.5 -176.5h-131l-58 160h-145l-96 -265l-95 31l85 234h-74l-19 -50.5l-21 -58.5l-18 -51h-123q171 470 287 712h109q16 -34 32 -75zM224 252h78l87 238q-20 50 -36 84q-74 -167 -129 -322zM409 252h73l-37 100z" />
    <glyph glyph-name="uni023B" unicode="&#x23b;" horiz-adv-x="641" 
d="M499 796l98 -30l-30 -79l32 -14q6 -2 17.5 -5t13.5 -4l-43 -117q-31 19 -60 29l-184 -471q43 -12 91 -9q83 6 145 38l37 -109q-32 -20 -93.5 -36t-136.5 -16q-44 0 -86 14l-39 -103l-95 31l39 103q-161 92 -161 329q0 174 99 274t248 100q47 0 77 -7zM179 348
q0 -137 70 -204l178 455q-33 2 -50 1q-93 -6 -145.5 -73t-52.5 -179z" />
    <glyph glyph-name="uni023C" unicode="&#x23c;" horiz-adv-x="490" 
d="M308 -25q-34 0 -68 8l-27 -85l-88 26l29 90q-116 72 -116 246q0 126 71.5 206t193.5 80q3 0 11 -0.5t11 -0.5l27 83l88 -25l-24 -75q47 -16 57 -20l-30 -107q-38 18 -61 23l-106 -329q29 -6 61 -5q54 2 107 27l21 -109q-70 -33 -157 -33zM140 288q-8 -53 6 -103t46 -76
l110 342q-69 3 -112 -40t-50 -123z" />
    <glyph glyph-name="uni023D" unicode="&#x23d;" horiz-adv-x="540" 
d="M216 103h318v-116h-448v327h-80v103h80v289h130v-289h152v-103h-152v-211z" />
    <glyph glyph-name="uni023E" unicode="&#x23e;" horiz-adv-x="599" 
d="M328 447l50 148h-50v-148zM67 -56l130 293v358h-174v101h393l22 64l43 1l-25 -65h58v-101h-94l-86 -248v-347h-137v143l-93 -208z" />
    <glyph glyph-name="uni023F" unicode="&#x23f;" horiz-adv-x="452" 
d="M337 -90q15 0 56 6l13 -102q-31 -9 -70 -11q-26 0 -35 1q-46 3 -80 24.5t-76 66.5l-31.5 38t-30.5 36t-27 26t-36 26l38 96q73 -32 146 -32q94 0 94 50q0 25 -20 39t-83 40h1q-80 31 -119.5 66t-39.5 104q0 74 54.5 117.5t148.5 43.5q87 0 161 -30l-25 -107
q-54 25 -118 27q-23 2 -40 -1q-55 -8 -55 -46q0 -25 20 -38.5t76 -36.5q89 -35 127 -71t38 -106q0 -65 -42 -101t-119 -44q-28 -4 -51 -1l43 -44q34 -36 82 -36z" />
    <glyph glyph-name="uni0240" unicode="&#x240;" horiz-adv-x="473" 
d="M479 -81l14 -104q-28 -8 -62 -10q-32 -1 -57 4q-34 6 -65 26.5t-55 45.5t-49.5 49t-61.5 40.5t-78 16.5h-41v81q43 78 117 180.5t136 175.5h-239v109h406v-85q-195 -238 -278 -372q63 -14 135 -86l18 -18t19.5 -19t17.5 -15t20.5 -14t20.5 -7.5t24 -3.5q32 0 58 6z" />
    <glyph glyph-name="uni0241" unicode="&#x241;" horiz-adv-x="487" 
d="M242 190v-203h-130v214q0 45 9 77.5t32 58.5t42 41t60 41v-1q42 27 60 48.5t18 55.5q0 41 -33 61.5t-87 20.5q-84 0 -171 -50l-43 109q34 22 96 40t120 18q122 0 186.5 -50.5t64.5 -143.5q0 -49 -18 -86t-40 -56t-63 -47q-60 -41 -81.5 -68t-21.5 -80z" />
    <glyph glyph-name="uni0242" unicode="&#x242;" horiz-adv-x="424" 
d="M221 109v-122h-126v131q0 59 23.5 93.5t67.5 64.5l30.5 20.5t28 19t18.5 16t14.5 21t3.5 23.5q0 58 -92 58q-80 0 -154 -46l-41 104q29 19 85 36.5t110 17.5q106 0 162 -44t56 -122q0 -57 -26.5 -92t-74.5 -65q-32 -21 -46 -32.5t-26.5 -33t-12.5 -48.5z" />
    <glyph glyph-name="uni0243" unicode="&#x243;" horiz-adv-x="656" 
d="M287 -20q-108 0 -206 22v166h-75v66h75v457q88 21 202 21q301 0 301 -198q0 -47 -22 -84t-61 -56q117 -44 117 -173q0 -221 -331 -221zM333 307l-84 -5v-68h76v-66h-76v-71q29 -4 75 -2q160 8 160 108q0 56 -38 79.5t-113 24.5zM210 596v-180h96q72 0 110 21t38 72
q0 92 -161 92q-54 0 -83 -5z" />
    <glyph glyph-name="uni0244" unicode="&#x244;" horiz-adv-x="719" 
d="M359 -27q-142 0 -210 77.5t-68 208.5v69h-75v103h75v275h130v-275h297v275h130v-275h76v-103h-76v-69q0 -131 -68 -208.5t-211 -77.5zM359 90q66 0 105 40.5t43 122.5q1 13 1 41v34h-297v-34q0 -15 2 -41q3 -83 41.5 -123t104.5 -40z" />
    <glyph glyph-name="uni0245" unicode="&#x245;" horiz-adv-x="665" 
d="M673 -13h-143q-122 363 -200 549q-78 -185 -200 -549h-137q147 428 282 719h107l35 -60q112 -247 256 -659z" />
    <glyph glyph-name="uni0246" unicode="&#x246;" horiz-adv-x="584" 
d="M559 -13h-285l-45 -112l-90 33l32 79h-98v719h386l32 77l91 -31l-136 -333h53v-112h-96l-84 -205h240v-115zM203 591v-172h141l71 172h-212zM203 307v-177l27 8l70 169h-97z" />
    <glyph glyph-name="uni0247" unicode="&#x247;" horiz-adv-x="569" 
d="M44 261q0 142 88.5 221t207.5 57l26 83l93 -24l-26 -79q76 -32 104 -88t28 -155q0 -28 -2 -46l-220 -9l-43 -132q51 -14 105.5 -5.5t106.5 32.5l18 -98q-43 -27 -117 -35t-143 6l-27 -75l-92 18l26 82q-133 58 -133 247zM172 307l96 1l45 145q-56 6 -93.5 -38t-47.5 -108
zM241 221l-78 -2q-3 -76 44 -106zM367 310l81 1q5 92 -40 129z" />
    <glyph glyph-name="uni0248" unicode="&#x248;" horiz-adv-x="523" 
d="M437 706v-292h81v-102h-81v-88q0 -117 -54.5 -184t-185.5 -67q-120 0 -204 65l50 106q76 -55 145 -55q63 0 91 32.5t28 110.5v80h-137v102h137v292h130z" />
    <glyph glyph-name="uni0249" unicode="&#x249;" horiz-adv-x="280" 
d="M13 -199q-40 0 -84 16l17 107q24 -8 45 -10q24 -2 39 1q29 7 38 34t9 86v195h-92v95h92v208h125v-208h77v-95h-77v-196q0 -122 -43.5 -177.5t-145.5 -55.5zM217 675q0 -36 -22.5 -57t-55.5 -21t-55.5 21t-22.5 57t22.5 57.5t55.5 21.5t55.5 -21.5t22.5 -57.5z" />
    <glyph glyph-name="uni024A" unicode="&#x24a;" horiz-adv-x="799" 
d="M602 347q0 118 -57 187t-155 69q-97 0 -154 -69t-57 -187t57 -187t154 -69q99 0 155.5 68t56.5 188zM635 -131q-18 42 -24 82t-6 121q-35 -44 -93 -71.5t-126 -27.5q-146 0 -244 98.5t-98 275.5q0 176 99.5 275t246.5 99q149 0 246.5 -98.5t97.5 -275.5v-360
q0 -39 11.5 -57t38.5 -18t55 11l17 -108q-39 -13 -62 -13q-72 0 -105.5 16t-53.5 51z" />
    <glyph glyph-name="uni024B" unicode="&#x24b;" 
d="M400 19q-17 -8 -34 -18q-33 -25 -83 -25q-116 0 -180.5 77t-64.5 207t74.5 207t200.5 77q112 0 212 -32v-529q0 -37 10.5 -54.5t36.5 -17.5q21 0 53 9l18 -103q-42 -15 -89 -15q-84 0 -118.5 54t-35.5 163zM400 119v304q-32 8 -86 8q-68 0 -107.5 -45.5t-39.5 -127.5
q0 -169 131 -169q56 0 102 30z" />
    <glyph glyph-name="uni024C" unicode="&#x24c;" horiz-adv-x="651" 
d="M331 259q-7 -1 -43 -1h-72v-271h-130v271h-80v109h80v324q92 21 199 21q315 0 315 -232q0 -138 -135 -194q122 -163 184 -299h-143q-82 151 -175 272zM293 597q-41 0 -77 -4v-226h33q44 0 71 1.5t58.5 7.5t48 18t28 33.5t11.5 53.5q0 116 -173 116z" />
    <glyph glyph-name="uni024D" unicode="&#x24d;" horiz-adv-x="401" 
d="M280 544q76 0 125 -22l-24 -109q-49 25 -127 17q-31 -3 -54 -13v-133h143v-95h-143v-202h-125v202h-74v95h74v220q102 40 205 40z" />
    <glyph glyph-name="uni024E" unicode="&#x24e;" horiz-adv-x="662" 
d="M397 -13h-131v285q-62 92 -117 186h-129v102h73q-43 75 -79 146h149q35 -80 72 -146h195q37 67 75 146h143l-80 -146h73v-102h-131q-40 -70 -113 -184v-287zM251 458l80 -116l80 116h-160z" />
    <glyph glyph-name="uni024F" unicode="&#x24f;" horiz-adv-x="566" 
d="M545 249h-91q-51 -158 -102 -271q-41 -90 -84.5 -130t-117.5 -46q-26 -2 -49 1q-44 3 -81 21l24 104q45 -17 77 -17q44 0 70 20.5t46 70.5q-60 111 -114 247h-98v95h64q-35 95 -59 189h133q23 -96 55 -189h143q12 42 47 189h128q-24 -97 -51 -189h60v-95zM230 229
l30 -77.5t40 -95.5q17 52 53 172q-94 0 -123 1z" />
    <glyph glyph-name="uni0259" unicode="&#x259;" horiz-adv-x="563" 
d="M42 285l338 24q-15 138 -149 138q-77 0 -141 -31l-24 94q70 37 177 37q128 0 196 -75t68 -207q0 -133 -68 -207.5t-173 -74.5q-98 0 -156 57t-66 168q-2 38 -2 77zM163 210q3 -134 105 -134q52 0 83.5 40t32.5 111z" />
    <glyph glyph-name="uni0292" unicode="&#x292;" horiz-adv-x="480" 
d="M112 144v63l3 23q87 99 152 194h-254v109h418v-81q-69 -103 -168 -219q84 -15 137 -64.5t53 -139.5q0 -111 -71 -169t-198 -58q-117 0 -197 42l30 106q77 -34 163 -34q72 0 109 29.5t37 85.5q0 113 -164 113h-50z" />
    <glyph glyph-name="uni02BB" unicode="&#x2bb;" horiz-adv-x="256" 
d="M131 819l56 -28q-38 -65 -40 -104q59 -9 59 -60q-2 -54 -62 -64q-45 -8 -69 17q-23 27 -24 58q-1 80 80 181z" />
    <glyph glyph-name="apostrophe" unicode="&#x2bc;" horiz-adv-x="332" 
d="M119 789h113l4 -10.5l4.5 -12t3.5 -10.5q-3 -61 -20.5 -109.5t-52.5 -104.5l-90 30q44 93 44 165q0 29 -6 52z" />
    <glyph glyph-name="circumflex" unicode="&#x2c6;" horiz-adv-x="385" 
d="M193 654l-105 -89l-56 64l161 158l158 -158l-54 -64z" />
    <glyph glyph-name="caron" unicode="&#x2c7;" horiz-adv-x="381" 
d="M89 792l104 -89l104 89l57 -64l-161 -158l-159 158z" />
    <glyph glyph-name="uni02C8" unicode="&#x2c8;" horiz-adv-x="209" 
d="M50 597v228h109v-228h-109z" />
    <glyph glyph-name="uni02C9" unicode="&#x2c9;" horiz-adv-x="376" 
d="M345 625h-314v100h314v-100z" />
    <glyph glyph-name="breve" unicode="&#x2d8;" horiz-adv-x="390" 
d="M195 594q-71 0 -112.5 45t-38.5 127h91q4 -74 60 -74t60 74h92q0 -84 -40 -128t-112 -44z" />
    <glyph glyph-name="dotaccent" unicode="&#x2d9;" horiz-adv-x="321" 
d="M161 601q-32 0 -53 20t-21 54t21 54t53 20q31 0 52 -20t21 -54t-21 -54t-52 -20z" />
    <glyph glyph-name="ring" unicode="&#x2da;" horiz-adv-x="354" 
d="M294 686q0 -54 -34 -85.5t-83 -31.5t-83.5 31.5t-34.5 85.5q0 53 34.5 84.5t83.5 31.5t83 -32t34 -84zM216 686q0 19 -11 30t-28 11t-28.5 -11t-11.5 -30q0 -20 11.5 -31t28.5 -11t28 11t11 31z" />
    <glyph glyph-name="ogonek" unicode="&#x2db;" horiz-adv-x="349" 
d="M177 -213q-122 0 -122 91q0 76 102 146h99q-25 -47 -26 -49q-1 0 -3.5 -1.5t-3.5 -2.5q2 1 3 1q-50 -50 -52 -65q1 -20 30 -20q22 2 48 11l11 -95q-40 -16 -86 -16z" />
    <glyph glyph-name="tilde" unicode="&#x2dc;" horiz-adv-x="375" 
d="M253 587q-28 0 -71 18.5t-56 18.5q-24 0 -49 -50l-73 44q15 41 46 74t74 33q30 0 72 -18.5t55 -18.5q23 0 50 50l73 -46q-57 -105 -121 -105z" />
    <glyph glyph-name="hungarumlaut" unicode="&#x2dd;" horiz-adv-x="403" 
d="M203 616l133 187l84 -71l-149 -169zM233 734l-146 -171l-68 53l133 188z" />
    <glyph glyph-name="gravecomb" unicode="&#x300;" horiz-adv-x="0" 
d="M-253 576h-84l-154 195h155z" />
    <glyph glyph-name="acutecomb" unicode="&#x301;" horiz-adv-x="0" 
d="M-265 576h-84l84 195h155z" />
    <glyph glyph-name="uni0302" unicode="&#x302;" horiz-adv-x="0" 
d="M-309 671l-104 -90l-56 65l160 158l159 -158l-54 -65z" />
    <glyph glyph-name="tildecomb" unicode="&#x303;" horiz-adv-x="0" 
d="M-255 607q-28 0 -71.5 18.5t-55.5 18.5q-24 0 -49 -50l-74 44q16 42 47 74.5t74 32.5q30 0 72 -18.5t55 -18.5q24 0 49 50l74 -45q-58 -106 -121 -106z" />
    <glyph glyph-name="uni0304" unicode="&#x304;" horiz-adv-x="0" 
d="M-155 625h-314v100h314v-100z" />
    <glyph glyph-name="uni0306" unicode="&#x306;" horiz-adv-x="0" 
d="M-311 613q-71 0 -112.5 44.5t-38.5 127.5h91q4 -74 60 -74t60 74h91q0 -84 -39.5 -128t-111.5 -44z" />
    <glyph glyph-name="uni0307" unicode="&#x307;" horiz-adv-x="0" 
d="M-316 619q-31 0 -52 20.5t-21 54.5q0 33 21 53.5t52 20.5t52.5 -20.5t21.5 -53.5q0 -34 -21 -54.5t-53 -20.5z" />
    <glyph glyph-name="uni0308" unicode="&#x308;" horiz-adv-x="0" 
d="M-337 660q0 -33 -20.5 -53t-51.5 -20q-30 0 -50.5 20t-20.5 53q0 32 20.5 52t50.5 20q31 0 51.5 -20t20.5 -52zM-118 660q0 -33 -20.5 -53t-51.5 -20t-51.5 20t-20.5 53q0 32 20.5 52t51.5 20t51.5 -20t20.5 -52z" />
    <glyph glyph-name="uni030A" unicode="&#x30a;" horiz-adv-x="0" 
d="M-191 702q0 -53 -34 -84.5t-84 -31.5t-84 31.5t-34 84.5t34.5 84.5t83.5 31.5q50 0 84 -31.5t34 -84.5zM-258 702q0 24 -15 38.5t-36 14.5t-35.5 -14.5t-14.5 -38.5q0 -25 14.5 -39t35.5 -14t36 14.5t15 38.5z" />
    <glyph glyph-name="uni030B" unicode="&#x30b;" horiz-adv-x="0" 
d="M-299 633l133 187l84 -71l-149 -169zM-269 751l-146 -171l-68 53l133 188z" />
    <glyph glyph-name="uni030C" unicode="&#x30c;" horiz-adv-x="0" 
d="M-408 813l104 -89l104 89l57 -64l-161 -158l-159 158z" />
    <glyph glyph-name="uni030D" unicode="&#x30d;" horiz-adv-x="0" 
d="M-359 597v228h109v-228h-109z" />
    <glyph glyph-name="uni030E" unicode="&#x30e;" horiz-adv-x="0" 
d="M-386 597v228h109v-228h-109zM-358 597v228h109v-228h-109z" />
    <glyph glyph-name="uni030F" unicode="&#x30f;" horiz-adv-x="0" 
d="M-467 820l133 -188l-68 -53l-150 170zM-218 579l-146 172l81 69l133 -188z" />
    <glyph glyph-name="uni0310" unicode="&#x310;" horiz-adv-x="0" 
d="M-311 657q72 0 113 44.5t39 127.5h-52q-2 -34 -26 -62t-74 -28t-73 28t-25 62h-53q-3 -83 38.5 -127.5t112.5 -44.5zM-310 780q-32 0 -53 20t-21 54t21 54t53 20q31 0 52 -20t21 -54t-21 -54t-52 -20z" />
    <glyph glyph-name="uni0311" unicode="&#x311;" horiz-adv-x="0" 
d="M-322 757q71 0 112 -44.5t39 -127.5h-51q-2 33 -26 61.5t-74 28.5t-73.5 -28t-25.5 -62h-53q-2 83 39 127.5t113 44.5z" />
    <glyph glyph-name="uni0312" unicode="&#x312;" horiz-adv-x="0" 
d="M-320 832l57 -28q-38 -64 -41 -104q60 -9 59 -60q0 -54 -61 -64q-45 -8 -70 17q-23 27 -24 57q0 81 80 182z" />
    <glyph glyph-name="uni0313" unicode="&#x313;" horiz-adv-x="0" 
d="M-341 487l-38 34q48 42 59 85q-18 5 -28.5 19.5t-10.5 30.5q0 27 16.5 44t43.5 17q34 0 49.5 -24.5t13.5 -60.5q-8 -77 -105 -145z" />
    <glyph glyph-name="uni0314" unicode="&#x314;" horiz-adv-x="0" 
d="M-234 521l-38 -34q-96 68 -104 145q-2 36 13 60.5t49 24.5q27 0 43.5 -17t16.5 -44q0 -16 -10.5 -30.5t-28.5 -19.5q11 -43 59 -85z" />
    <glyph glyph-name="uni0320" unicode="&#x320;" horiz-adv-x="0" 
d="M-543 -154v106h485v-106h-485z" />
    <glyph glyph-name="dotbelowcomb" unicode="&#x323;" horiz-adv-x="0" 
d="M-301 -200q-31 0 -52.5 20.5t-21.5 53.5q0 34 21.5 54.5t52.5 20.5q32 0 53 -20.5t21 -54.5t-21 -54t-53 -20z" />
    <glyph glyph-name="uni0324" unicode="&#x324;" horiz-adv-x="0" 
d="M-337 -116q0 -33 -20.5 -53t-51.5 -20q-30 0 -50.5 20t-20.5 53q0 32 20.5 52t50.5 20q31 0 51.5 -20t20.5 -52zM-118 -116q0 -33 -20.5 -53t-51.5 -20t-51.5 20t-20.5 53q0 32 20.5 52t51.5 20t51.5 -20t20.5 -52z" />
    <glyph glyph-name="uni0325" unicode="&#x325;" horiz-adv-x="0" 
d="M-191 -176q0 -53 -34 -84.5t-84 -31.5t-84 31.5t-34 84.5t34.5 84.5t83.5 31.5q50 0 84 -31.5t34 -84.5zM-258 -176q0 24 -15 38.5t-36 14.5t-35.5 -14.5t-14.5 -38.5q0 -25 14.5 -39t35.5 -14t36 14.5t15 38.5z" />
    <glyph glyph-name="uni0331" unicode="&#x331;" horiz-adv-x="0" 
d="M-141 -150h-314v100h314v-100z" />
    <glyph glyph-name="uni0342" unicode="&#x342;" horiz-adv-x="375" 
d="M253 587q-28 0 -71 18.5t-56 18.5q-24 0 -49 -50l-73 44q15 41 46 74t74 33q30 0 72 -18.5t55 -18.5q23 0 50 50l73 -46q-57 -105 -121 -105z" />
    <glyph glyph-name="uni0352" unicode="&#x352;" horiz-adv-x="0" 
d="M-311 928q72 0 113 -44.5t39 -127.5h-52q-2 34 -26 62t-74 28t-73 -28t-25 -62h-53q-3 83 38.5 127.5t112.5 44.5zM-310 805q-32 0 -53 -20t-21 -54t21 -54t53 -20q31 0 52 20t21 54t-21 54t-52 20z" />
    <glyph glyph-name="tonos" unicode="&#x384;" horiz-adv-x="310" 
d="M123 597h-84l84 195h154z" />
    <glyph glyph-name="dieresistonos" unicode="&#x385;" horiz-adv-x="590" 
d="M210 631l133 198l94 -69l-152 -183zM193 646q0 -33 -20.5 -53t-50.5 -20q-31 0 -51.5 20t-20.5 53q0 32 20.5 52t51.5 20q30 0 50.5 -20t20.5 -52zM543 646q0 -33 -20.5 -53t-51.5 -20q-30 0 -50.5 20t-20.5 53q0 32 20.5 52t50.5 20q31 0 51.5 -20t20.5 -52z" />
    <glyph glyph-name="Alphatonos" unicode="&#x386;" horiz-adv-x="681" 
d="M665 -6h-139l-56 173h-255q-43 -122 -58 -173h-126q152 442 257 702h119q89 -222 258 -702zM443 260l-74 221q-5 15 -10.5 33.5t-9 29t-6.5 15.5q-4 -9 -15 -46q-14 -45 -44.5 -131.5t-41.5 -121.5h201zM112 543h-84l84 195h154z" />
    <glyph glyph-name="anoteleia" unicode="&#x387;" horiz-adv-x="261" 
d="M221 321q0 -35 -23 -57t-57 -22q-33 0 -56 22t-23 57t23 57t56 22q34 0 57 -22t23 -57z" />
    <glyph glyph-name="Epsilontonos" unicode="&#x388;" horiz-adv-x="725" 
d="M697 -6h-443v704h423v-107h-289v-179h256v-105h-256v-206h309v-107zM94 548h-84l84 195h154z" />
    <glyph glyph-name="Etatonos" unicode="&#x389;" horiz-adv-x="848" 
d="M671 412v286h133v-704h-133v311h-279v-311h-134v704h134v-286h279zM105 543h-84l84 195h154z" />
    <glyph glyph-name="Iotatonos" unicode="&#x38a;" horiz-adv-x="451" 
d="M267 -6v704h134v-704h-134zM101 543h-84l84 195h154z" />
    <glyph glyph-name="Omicrontonos" unicode="&#x38c;" horiz-adv-x="860" 
d="M811 346q0 -170 -91 -268t-237 -98q-145 0 -236.5 98t-91.5 268t92 268t236 98q145 0 236.5 -98t91.5 -268zM673 348q0 116 -50.5 186t-139.5 70q-88 0 -139 -70t-51 -186t51 -186t139 -70q89 0 139.5 70t50.5 186zM99 543h-84l84 195h154z" />
    <glyph glyph-name="Upsilontonos" unicode="&#x38e;" horiz-adv-x="847" 
d="M588 -6h-133v282q-123 203 -233 422h148q69 -156 155 -301q83 141 156 301h140q-122 -237 -233 -420v-284zM102 555h-84l84 195h154z" />
    <glyph glyph-name="Omegatonos" unicode="&#x38f;" horiz-adv-x="833" 
d="M442 721q147 0 242.5 -92t95.5 -257q0 -153 -109 -272h125v-113h-300v93q150 117 150 292q0 108 -55.5 170t-148.5 62t-148 -62t-55 -170q0 -175 149 -292v-93h-300v113h126q-110 118 -110 272q0 165 95.5 257t242.5 92zM24 726l118 -32l-79 -224l-94 22z" />
    <glyph glyph-name="iotadieresistonos" unicode="&#x390;" horiz-adv-x="277" 
d="M266 81l-17 -103q-103 1 -144 37.5t-41 124.5v37v356h126v-386q0 -35 15.5 -48t60.5 -18zM65 656l133 198l94 -69l-152 -183zM48 671q0 -33 -20.5 -53t-50.5 -20q-31 0 -51.5 20t-20.5 53q0 32 20.5 52t51.5 20q30 0 50.5 -20t20.5 -52zM398 671q0 -33 -20.5 -53
t-51.5 -20q-30 0 -50.5 20t-20.5 53q0 32 20.5 52t50.5 20q31 0 51.5 -20t20.5 -52z" />
    <glyph glyph-name="Alpha" unicode="&#x391;" horiz-adv-x="675" 
d="M646 -6h-139l-56 173h-255q-43 -122 -58 -173h-126q152 442 257 702h119q89 -222 258 -702zM424 260l-74 221q-5 15 -10.5 33.5t-9 29t-6.5 15.5q-4 -9 -15 -46q-14 -45 -44.5 -131.5t-41.5 -121.5h201z" />
    <glyph glyph-name="Beta" unicode="&#x392;" horiz-adv-x="648" 
d="M277 -14q-114 0 -203 25v669q82 25 202 25q136 0 215 -47t79 -145q0 -51 -26.5 -88.5t-68.5 -55.5q124 -40 124 -171q0 -212 -322 -212zM301 312h-97v-219q27 -5 78 -5q182 0 182 114q0 60 -40.5 85t-122.5 25zM204 601v-195h52q45 0 73 3t55.5 12.5t40.5 30.5t13 55
q0 99 -156 99q-45 0 -78 -5z" />
    <glyph glyph-name="Gamma" unicode="&#x393;" horiz-adv-x="529" 
d="M73 706h441v-115h-311v-604h-130v719z" />
    <glyph glyph-name="uni0394" unicode="&#x394;" horiz-adv-x="656" 
d="M162 101h328q-94 277 -164 437q-81 -190 -164 -437zM664 -13h-654l21 111q111 326 244 608h106q151 -319 283 -719z" />
    <glyph glyph-name="Epsilon" unicode="&#x395;" horiz-adv-x="576" 
d="M517 -6h-443v704h423v-107h-289v-179h256v-105h-256v-206h309v-107z" />
    <glyph glyph-name="Zeta" unicode="&#x396;" horiz-adv-x="581" 
d="M521 698l-7 -87q-1 -2 -63 -93l-94 -140l-83.5 -132.5t-84.5 -144.5h340v-107h-504l8 79q53 110 148.5 262t173.5 256h-309v107h475z" />
    <glyph glyph-name="Eta" unicode="&#x397;" horiz-adv-x="710" 
d="M487 412v286h133v-704h-133v311h-279v-311h-134v704h134v-286h279z" />
    <glyph glyph-name="Theta" unicode="&#x398;" horiz-adv-x="749" 
d="M507 306h-265v114h265v-114zM703 346q0 -170 -91 -268t-237 -98q-145 0 -236.5 98t-91.5 268t92 268t236 98q145 0 236.5 -98t91.5 -268zM565 348q0 116 -50.5 186t-139.5 70q-88 0 -139 -70t-51 -186t51 -186t139 -70q89 0 139.5 70t50.5 186z" />
    <glyph glyph-name="Iota" unicode="&#x399;" horiz-adv-x="277" 
d="M74 -6v704h134v-704h-134z" />
    <glyph glyph-name="Kappa" unicode="&#x39a;" horiz-adv-x="635" 
d="M634 -6h-109l-45 3q-53 89 -126.5 175t-145.5 143v-321h-134v704h134v-296q137 134 255 296h153q-118 -144 -290 -328q80 -68 168.5 -175t139.5 -201z" />
    <glyph glyph-name="Lambda" unicode="&#x39b;" horiz-adv-x="665" 
d="M673 -13h-143q-122 363 -200 549q-78 -185 -200 -549h-137q147 428 282 719h107l35 -60q112 -247 256 -659z" />
    <glyph glyph-name="Mu" unicode="&#x39c;" horiz-adv-x="878" 
d="M470 70h-87l-106 252t-74 160q-12 -110 -26 -488h-124q26 441 55 704h85l38 -3q48 -92 200 -445l52.5 120l83.5 188t68 140h118q25 -227 55 -704h-131q-14 355 -27 488q-18 -33 -76.5 -165.5t-103.5 -246.5z" />
    <glyph glyph-name="Nu" unicode="&#x39d;" horiz-adv-x="729" 
d="M635 -6h-75l-33 3q-61 106 -170 269.5t-160 219.5q0 -31 0.5 -98t0.5 -102v-292h-124v704h107q139 -162 278 -374q12 -18 31 -50t20 -34v205v253h125v-704z" />
    <glyph glyph-name="Xi" unicode="&#x39e;" horiz-adv-x="554" 
d="M476 306h-399v114h399v-114zM529 -13h-504v116h504v-116zM33 706h488v-116h-488v116z" />
    <glyph glyph-name="Omicron" unicode="&#x39f;" horiz-adv-x="781" 
d="M703 346q0 -170 -91 -268t-237 -98q-145 0 -236.5 98t-91.5 268t92 268t236 98q145 0 236.5 -98t91.5 -268zM565 348q0 116 -50.5 186t-139.5 70q-88 0 -139 -70t-51 -186t51 -186t139 -70q89 0 139.5 70t50.5 186z" />
    <glyph glyph-name="Pi" unicode="&#x3a0;" horiz-adv-x="704" 
d="M73 706h558v-719h-130v604h-298v-604h-130v719z" />
    <glyph glyph-name="Rho" unicode="&#x3a1;" horiz-adv-x="614" 
d="M277 705q153 0 229 -59t76 -169q0 -230 -314 -230h-62v-253h-132v686q87 25 203 25zM281 603q-39 0 -75 -4v-250h57q94 0 139.5 27.5t45.5 101.5q0 125 -167 125z" />
    <glyph glyph-name="Sigma" unicode="&#x3a3;" horiz-adv-x="570" 
d="M401 357q-13 -16 -98 -113t-117 -142h356v-115h-520v97q35 49 145 177q6 7 17 21t14 17l49 59q-33 43 -110 134.5t-101 125.5v88h505v-115h-327q20 -28 88 -111z" />
    <glyph glyph-name="Tau" unicode="&#x3a4;" horiz-adv-x="576" 
d="M15 698h522v-107h-194v-597h-134v597h-194v107z" />
    <glyph glyph-name="Upsilon" unicode="&#x3a5;" horiz-adv-x="608" 
d="M360 -6h-133v282q-123 203 -233 422h148q69 -156 155 -301q83 141 156 301h140q-122 -237 -233 -420v-284z" />
    <glyph glyph-name="Phi" unicode="&#x3a6;" horiz-adv-x="864" 
d="M496 555v-369q87 5 140 52.5t53 131.5q0 85 -53 132.5t-140 52.5zM368 -13v86q-139 6 -232 85t-93 211q0 131 93 211t232 89v82h128v-82q140 -9 233 -89t93 -211t-93.5 -210t-232.5 -86v-86h-128zM368 186v369q-87 -5 -140 -52.5t-53 -132.5q0 -84 53.5 -131.5
t139.5 -52.5z" />
    <glyph glyph-name="Chi" unicode="&#x3a7;" horiz-adv-x="636" 
d="M311 465l147 233h143l-215 -330q150 -223 226 -374h-111q-28 2 -41 3q-44 93 -154 261q-109 -162 -158 -264h-143q72 139 225 367l-214 337h151z" />
    <glyph glyph-name="Psi" unicode="&#x3a8;" horiz-adv-x="820" 
d="M473 -13h-126v177q-151 6 -222 85t-71 210v247h128v-235q0 -96 40.5 -141.5t123.5 -50.5v427h128v-427q81 6 122.5 51.5t41.5 140.5v235h128v-247q0 -131 -70.5 -210t-222.5 -85v-177z" />
    <glyph glyph-name="uni03A9" unicode="&#x3a9;" horiz-adv-x="781" 
d="M391 721q147 0 242.5 -92t95.5 -257q0 -152 -110 -272h126v-113h-300v93q149 118 149 292q0 108 -55 170t-148 62t-148.5 -62t-55.5 -170q0 -174 149 -292v-93h-299v113h125q-109 117 -109 272q0 165 95.5 257t242.5 92z" />
    <glyph glyph-name="Iotadieresis" unicode="&#x3aa;" horiz-adv-x="277" 
d="M74 -6v704h134v-704h-134zM100 829q0 -33 -20.5 -53t-51.5 -20q-30 0 -50.5 20t-20.5 53q0 32 20.5 52t50.5 20q31 0 51.5 -20t20.5 -52zM319 829q0 -33 -20.5 -53t-51.5 -20t-51.5 20t-20.5 53q0 32 20.5 52t51.5 20t51.5 -20t20.5 -52z" />
    <glyph glyph-name="Upsilondieresis" unicode="&#x3ab;" horiz-adv-x="608" 
d="M360 -6h-133v282q-123 203 -233 422h148q69 -156 155 -301q83 141 156 301h140q-122 -237 -233 -420v-284zM266 829q0 -33 -20.5 -53t-51.5 -20q-30 0 -50.5 20t-20.5 53q0 32 20.5 52t50.5 20q31 0 51.5 -20t20.5 -52zM485 829q0 -33 -20.5 -53t-51.5 -20t-51.5 20
t-20.5 53q0 32 20.5 52t51.5 20t51.5 -20t20.5 -52z" />
    <glyph glyph-name="alphatonos" unicode="&#x3ac;" horiz-adv-x="606" 
d="M453 30q-66 -54 -164 -54q-121 0 -186 77.5t-65 206.5q0 131 75 207.5t203 76.5q102 0 203 -33v-354q0 -40 17.5 -53t63.5 -19l-17 -103q-43 -1 -79 13.5t-51 34.5zM394 171v250q-40 10 -75 10q-72 0 -112 -45.5t-40 -127.5q0 -77 31.5 -123.5t99.5 -46.5q57 0 101 32
q-5 25 -5 51zM341 620h-84l84 195h154z" />
    <glyph glyph-name="epsilontonos" unicode="&#x3ad;" horiz-adv-x="505" 
d="M281 84q51 0 100 12.5t74 25.5l33 -104q-29 -15 -87.5 -29t-128.5 -14q-105 0 -171 40.5t-66 127.5q0 93 87 133q-53 31 -64 82q-4 21 -1 45q8 70 67.5 106.5t160.5 36.5q99 0 173 -33l-24 -105q-64 28 -133 29q-25 2 -42 -1q-76 -9 -76 -57q0 -57 113 -57h75v-103h-79
q-126 0 -126 -70q0 -65 115 -65zM295 620h-84l84 195h154z" />
    <glyph glyph-name="etatonos" unicode="&#x3ae;" horiz-adv-x="577" 
d="M67 -13v516q59 41 221 41q125 0 176.5 -65t51.5 -187v-490h-125v471q0 87 -24.5 122.5t-87.5 35.5q-55 0 -87 -8v-436h-125zM316 620h-84l84 195h154z" />
    <glyph glyph-name="iotatonos" unicode="&#x3af;" horiz-adv-x="277" 
d="M266 81l-17 -103q-103 1 -144 37.5t-41 124.5v37v356h126v-386q0 -35 15.5 -48t60.5 -18zM166 620h-84l84 195h154z" />
    <glyph glyph-name="upsilondieresistonos" unicode="&#x3b0;" horiz-adv-x="578" 
d="M289 -25q-228 0 -228 248v310h126v-299q0 -78 25 -111.5t77 -33.5q53 0 78 33.5t25 111.5v299h125v-310q0 -121 -54.5 -184.5t-173.5 -63.5zM198 631l133 198l94 -69l-152 -183zM181 646q0 -33 -20.5 -53t-50.5 -20q-31 0 -51.5 20t-20.5 53q0 32 20.5 52t51.5 20
q30 0 50.5 -20t20.5 -52zM531 646q0 -33 -20.5 -53t-51.5 -20q-30 0 -50.5 20t-20.5 53q0 32 20.5 52t50.5 20q31 0 51.5 -20t20.5 -52z" />
    <glyph glyph-name="alpha" unicode="&#x3b1;" horiz-adv-x="606" 
d="M453 30q-66 -54 -164 -54q-121 0 -186 77.5t-65 206.5q0 131 75 207.5t203 76.5q102 0 203 -33v-354q0 -40 17.5 -53t63.5 -19l-17 -103q-43 -1 -79 13.5t-51 34.5zM394 171v250q-40 10 -75 10q-72 0 -112 -45.5t-40 -127.5q0 -77 31.5 -123.5t99.5 -46.5q57 0 101 32
q-5 25 -5 51z" />
    <glyph glyph-name="beta" unicode="&#x3b2;" horiz-adv-x="615" 
d="M192 4v-202h-125v740q0 114 58.5 180.5t177.5 66.5q103 0 164 -53.5t61 -147.5q0 -49 -24 -91t-68 -65q142 -53 142 -208q0 -119 -69.5 -182.5t-195.5 -63.5q-64 0 -121 26zM192 540v-419q46 -30 117 -30q64 0 102 34.5t38 98.5q0 137 -165 137h-16v108h15q54 0 86.5 29
t32.5 80q0 44 -25.5 71t-73.5 27q-111 0 -111 -136z" />
    <glyph glyph-name="gamma" unicode="&#x3b3;" horiz-adv-x="508" 
d="M244 146q41 78 79.5 190.5t52.5 196.5h127q-63 -294 -219 -542q11 -65 17 -115v1l9 -75h-114q-7 27 -18 64q-41 281 -181 667h134q65 -172 113 -387z" />
    <glyph glyph-name="delta" unicode="&#x3b4;" 
d="M301 433q-61 -21 -97.5 -69t-36.5 -114q0 -71 32.5 -117t96.5 -46q61 0 95 44.5t34 114.5q0 38 -10.5 68.5t-33 54t-37.5 35t-43 29.5zM205 497q-62 48 -73 104q-5 24 -2 55q7 62 61 97.5t137 35.5q80 0 176 -40l-30 -105q-71 32 -117 35q-23 2 -60 -2q-45 -11 -45 -45
q0 -22 21 -41.5t80 -55.5l59.5 -38.5t52.5 -42t48 -55t28.5 -68t12.5 -89.5q0 -111 -66.5 -189.5t-191.5 -78.5q-122 0 -190 76.5t-68 196.5q0 84 46 150t121 100z" />
    <glyph glyph-name="epsilon" unicode="&#x3b5;" horiz-adv-x="505" 
d="M281 84q51 0 100 12.5t74 25.5l33 -104q-29 -15 -87.5 -29t-128.5 -14q-105 0 -171 40.5t-66 127.5q0 93 87 133q-53 31 -64 82q-4 21 -1 45q8 70 67.5 106.5t160.5 36.5q99 0 173 -33l-24 -105q-64 28 -133 29q-25 2 -42 -1q-76 -9 -76 -57q0 -57 113 -57h75v-103h-79
q-126 0 -126 -70q0 -65 115 -65z" />
    <glyph glyph-name="zeta" unicode="&#x3b6;" horiz-adv-x="455" 
d="M481 -50q0 -74 -60 -154l-107 38q2 4 10.5 18t12.5 21.5t9.5 19.5t8 22t2.5 19q0 29 -22.5 42.5t-87.5 28.5q-109 25 -155.5 76t-46.5 155q0 201 250 436h-220v110h387v-96q-22 -20 -36 -34v1q-252 -239 -252 -412q0 -60 28 -87t104 -45q99 -25 137 -58.5t38 -100.5z" />
    <glyph glyph-name="eta" unicode="&#x3b7;" horiz-adv-x="577" 
d="M67 -13v516q59 41 221 41q125 0 176.5 -65t51.5 -187v-490h-125v471q0 87 -24.5 122.5t-87.5 35.5q-55 0 -87 -8v-436h-125z" />
    <glyph glyph-name="theta" unicode="&#x3b8;" horiz-adv-x="603" 
d="M302 789q126 0 192.5 -107t66.5 -301t-66.5 -301t-192.5 -107q-127 0 -193.5 107t-66.5 301t66.5 301t193.5 107zM302 87q123 0 131 244h-264q8 -244 133 -244zM302 675q-123 0 -133 -235h263q-8 235 -130 235z" />
    <glyph glyph-name="iota" unicode="&#x3b9;" horiz-adv-x="277" 
d="M266 81l-17 -103q-103 1 -144 37.5t-41 124.5v37v356h126v-386q0 -35 15.5 -48t60.5 -18z" />
    <glyph glyph-name="kappa" unicode="&#x3ba;" horiz-adv-x="538" 
d="M192 -13h-125v546h125v-201q126 128 189 201h153q-119 -137 -240 -252q65 -52 136 -135.5t114 -158.5h-144q-40 62 -98 124.5t-110 101.5v-226z" />
    <glyph glyph-name="lambda" unicode="&#x3bb;" horiz-adv-x="515" 
d="M268 380q-88 -182 -140 -393h-129q35 131 92.5 277.5t118.5 261.5q-27 70 -50 82q-22 44 -36.5 56.5t-45.5 11.5q-17 -1 -43 -11l-22 107q47 17 95 17q69 0 111.5 -36t73.5 -106q125 -292 225 -660h-123q-25 56 -68 201.5t-59 191.5z" />
    <glyph glyph-name="uni03BC" unicode="&#x3bc;" horiz-adv-x="583" 
d="M315 -16q-81 0 -123 37q4 -38 4 -115v-99h-128v723h129v-264q0 -95 21 -138.5t86 -43.5q56 0 88 10v436h128v-514q-90 -32 -205 -32z" />
    <glyph glyph-name="nu" unicode="&#x3bd;" horiz-adv-x="509" 
d="M258 141q24 49 60.5 168t59.5 221h128q-72 -260 -192 -536h-79l-40 3q-116 265 -190 533h136q22 -100 55.5 -212t61.5 -177z" />
    <glyph glyph-name="xi" unicode="&#x3be;" horiz-adv-x="500" 
d="M309 109q99 -24 137.5 -58t38.5 -101q0 -73 -59 -154l-108 38q2 4 10.5 18t12.5 21.5t9.5 19.5t8 22t2.5 19q0 29 -22.5 42.5t-87.5 28.5q-109 24 -160 72.5t-51 139.5q0 77 41.5 125.5t96.5 73.5q-48 21 -75 67.5t-27 101.5q0 97 65.5 150.5t169.5 53.5q83 0 157 -29
l-27 -107q-61 25 -121 25q-117 0 -117 -103q0 -53 37.5 -80.5t104.5 -27.5h86v-109h-77q-28 0 -56.5 -6t-59.5 -19.5t-50 -42t-19 -67.5q0 -51 32 -73.5t108 -40.5z" />
    <glyph glyph-name="omicron" unicode="&#x3bf;" 
d="M548 262q0 -126 -70 -203t-184 -77q-113 0 -183 77t-70 203q0 125 70.5 202.5t182.5 77.5q113 0 183.5 -77.5t70.5 -202.5zM416 263q0 82 -32 129t-90 47q-57 0 -89.5 -47.5t-32.5 -128.5q0 -82 32.5 -129t89.5 -47q58 0 90 47t32 129z" />
    <glyph glyph-name="pi" unicode="&#x3c0;" horiz-adv-x="580" 
d="M514 533v-546h-126v437h-196v-437h-125v546h447z" />
    <glyph glyph-name="rho" unicode="&#x3c1;" horiz-adv-x="598" 
d="M307 -24q-67 0 -118 29v-203h-126v489q0 117 62 185t177 68q127 0 192.5 -72.5t65.5 -211.5q0 -126 -67 -205t-186 -79zM189 280v-161q42 -30 103 -30q72 0 105.5 46t33.5 125q0 171 -127 171q-115 0 -115 -151z" />
    <glyph glyph-name="sigma1" unicode="&#x3c2;" horiz-adv-x="470" 
d="M167 262q0 -25 3.5 -44.5t8 -33.5t18 -26l22.5 -19.5t33 -16.5t38.5 -14t49.5 -16q65 -21 91.5 -53t26.5 -89q0 -71 -60 -154l-107 38q2 4 10.5 18t12.5 21.5t9.5 19.5t8 22t2.5 19q0 24 -17 38t-61 26q-118 30 -168 88.5t-50 172.5q0 129 72 208t194 79q91 0 155 -32
l-30 -106q-61 25 -117 25q-69 0 -107 -45t-38 -126z" />
    <glyph glyph-name="sigma" unicode="&#x3c3;" horiz-adv-x="617" 
d="M550 238q0 -120 -70 -191.5t-185 -71.5q-114 0 -185.5 74t-71.5 198q0 143 82.5 214.5t209.5 71.5h284v-109h-129q65 -85 65 -186zM422 241q0 116 -73 183h-21q-27 0 -52 -7.5t-51.5 -25t-42 -55t-15.5 -89.5q0 -74 35.5 -116.5t92.5 -42.5q60 0 93.5 40.5t33.5 112.5z
" />
    <glyph glyph-name="tau" unicode="&#x3c4;" horiz-adv-x="451" 
d="M420 38l-6 -47q-43 -13 -95 -13q-103 0 -140.5 54t-37.5 165v227h-138v109h436v-109h-173v-230q0 -72 28 -88q27 -16 82 -10q18 -19 44 -58z" />
    <glyph glyph-name="upsilon" unicode="&#x3c5;" horiz-adv-x="578" 
d="M289 -25q-228 0 -228 248v310h126v-299q0 -78 25 -111.5t77 -33.5q53 0 78 33.5t25 111.5v299h125v-310q0 -121 -54.5 -184.5t-173.5 -63.5z" />
    <glyph glyph-name="phi" unicode="&#x3c6;" horiz-adv-x="771" 
d="M386 546q159 0 253.5 -77.5t94.5 -206.5q0 -119 -77 -194t-210 -87v-179h-123v179q-132 11 -209 86t-77 195q0 129 94 206.5t254 77.5zM607 262q0 68 -42 114t-118 55v-339q79 10 119.5 54.5t40.5 115.5zM165 262q0 -150 159 -170v339q-77 -9 -118 -54.5t-41 -114.5z" />
    <glyph glyph-name="chi" unicode="&#x3c7;" horiz-adv-x="522" 
d="M259 189q-31 -35 -121 -195h-132q66 121 180 280l-100 149l-72 107h143l107 -167l110 167h132l-171 -250q124 -172 184 -286h-141q-43 85 -119 195z" />
    <glyph glyph-name="psi" unicode="&#x3c8;" horiz-adv-x="783" 
d="M453 -198h-123v177q-137 9 -203 83.5t-66 199.5v271h125v-259q0 -89 36.5 -132t107.5 -48v439h123v-439q144 11 144 180v259h125v-271q0 -125 -65.5 -199.5t-203.5 -83.5v-177z" />
    <glyph glyph-name="omega" unicode="&#x3c9;" horiz-adv-x="838" 
d="M356 433h126v-144q0 -30 0.5 -46t2.5 -43.5t8 -43t15 -32.5t25 -25t37 -8q97 0 97 163q0 122 -92 253l109 40q44 -49 77 -128t33 -169q0 -272 -219 -272q-108 0 -156 88q-48 -88 -156 -88q-219 0 -219 272q0 90 33 169t77 128l109 -40q-92 -131 -92 -253q0 -163 97 -163
q31 0 50 17t26.5 51.5t9.5 60t2 69.5v144z" />
    <glyph glyph-name="iotadieresis" unicode="&#x3ca;" horiz-adv-x="277" 
d="M266 81l-17 -103q-103 1 -144 37.5t-41 124.5v37v356h126v-386q0 -35 15.5 -48t60.5 -18zM92 688q0 -33 -20.5 -53t-51.5 -20q-30 0 -50.5 20t-20.5 53q0 32 20.5 52t50.5 20q31 0 51.5 -20t20.5 -52zM302 688q0 -33 -20.5 -53t-51.5 -20t-51.5 20t-20.5 53q0 32 20.5 52
t51.5 20t51.5 -20t20.5 -52z" />
    <glyph glyph-name="upsilondieresis" unicode="&#x3cb;" horiz-adv-x="578" 
d="M289 -25q-228 0 -228 248v310h126v-299q0 -78 25 -111.5t77 -33.5q53 0 78 33.5t25 111.5v299h125v-310q0 -121 -54.5 -184.5t-173.5 -63.5zM251 688q0 -33 -20.5 -53t-51.5 -20q-30 0 -50.5 20t-20.5 53q0 32 20.5 52t50.5 20q31 0 51.5 -20t20.5 -52zM461 688
q0 -33 -20.5 -53t-51.5 -20t-51.5 20t-20.5 53q0 32 20.5 52t51.5 20t51.5 -20t20.5 -52z" />
    <glyph glyph-name="omicrontonos" unicode="&#x3cc;" 
d="M548 262q0 -126 -70 -203t-184 -77q-113 0 -183 77t-70 203q0 125 70.5 202.5t182.5 77.5q113 0 183.5 -77.5t70.5 -202.5zM416 263q0 82 -32 129t-90 47q-57 0 -89.5 -47.5t-32.5 -128.5q0 -82 32.5 -129t89.5 -47q58 0 90 47t32 129zM334 620h-84l84 195h154z" />
    <glyph glyph-name="upsilontonos" unicode="&#x3cd;" horiz-adv-x="578" 
d="M289 -25q-228 0 -228 248v310h126v-299q0 -78 25 -111.5t77 -33.5q53 0 78 33.5t25 111.5v299h125v-310q0 -121 -54.5 -184.5t-173.5 -63.5zM325 620h-84l84 195h154z" />
    <glyph glyph-name="omegatonos" unicode="&#x3ce;" horiz-adv-x="838" 
d="M356 433h126v-144q0 -30 0.5 -46t2.5 -43.5t8 -43t15 -32.5t25 -25t37 -8q97 0 97 163q0 122 -92 253l109 40q44 -49 77 -128t33 -169q0 -272 -219 -272q-108 0 -156 88q-48 -88 -156 -88q-219 0 -219 272q0 90 33 169t77 128l109 -40q-92 -131 -92 -253q0 -163 97 -163
q31 0 50 17t26.5 51.5t9.5 60t2 69.5v144zM460 620h-84l84 195h154z" />
    <glyph glyph-name="uni0400" unicode="&#x400;" horiz-adv-x="576" 
d="M480 -6h-409v702h396v-101h-265v-187h235v-100h-235v-213h278v-101zM407 745h-84l-154 195h155z" />
    <glyph glyph-name="uni0401" unicode="&#x401;" horiz-adv-x="576" 
d="M480 -6h-409v702h396v-101h-265v-187h235v-100h-235v-213h278v-101zM250 829q0 -33 -20.5 -53t-51.5 -20q-30 0 -50.5 20t-20.5 53q0 32 20.5 52t50.5 20q31 0 51.5 -20t20.5 -52zM469 829q0 -33 -20.5 -53t-51.5 -20t-51.5 20t-20.5 53q0 32 20.5 52t51.5 20t51.5 -20
t20.5 -52z" />
    <glyph glyph-name="uni0403" unicode="&#x403;" horiz-adv-x="529" 
d="M321 994l85 -84l-188 -155l-65 63zM198 595v-608h-127v717h420v-109h-293z" />
    <glyph glyph-name="uni0404" unicode="&#x404;" horiz-adv-x="591" 
d="M429 305h-240q6 -81 40 -135.5t95 -70.5q32 -7 82 -1q53 1 99 27l36 -96q-73 -47 -185 -47q-140 0 -223 98.5t-83 264.5q0 163 83 264t220 101q108 0 186 -47l-33 -94q-51 29 -121 33q-84 4 -134 -49.5t-60 -144.5h238v-103z" />
    <glyph glyph-name="uni0405" unicode="&#x405;" horiz-adv-x="544" 
d="M231 91q128 0 128 89q0 25 -9 43.5t-30.5 33t-42.5 24.5t-59 25l-13 5q-72 32 -111.5 71t-48.5 94q-5 27 -3 56q8 85 71 132.5t167 47.5q119 0 194 -49l-38 -100q-66 42 -147 42q-115 0 -115 -83q0 -22 8 -38.5t29.5 -30.5t39 -22.5t55.5 -24.5q8 -3 12 -5
q94 -41 137 -86.5t43 -128.5q0 -97 -68.5 -151.5t-188.5 -54.5q-137 0 -217 51l37 106q77 -46 170 -46z" />
    <glyph glyph-name="uni0406" unicode="&#x406;" horiz-adv-x="277" 
d="M203 -6h-131v702h131v-702z" />
    <glyph glyph-name="uni0407" unicode="&#x407;" horiz-adv-x="277" 
d="M203 -6h-131v702h131v-702zM100 829q0 -33 -20.5 -53t-51.5 -20q-30 0 -50.5 20t-20.5 53q0 32 20.5 52t50.5 20q31 0 51.5 -20t20.5 -52zM319 829q0 -33 -20.5 -53t-51.5 -20t-51.5 20t-20.5 53q0 32 20.5 52t51.5 20t51.5 -20t20.5 -52z" />
    <glyph glyph-name="uni0408" unicode="&#x408;" horiz-adv-x="505" 
d="M320 131q0 -104 -49 -168t-150 -76q-70 -6 -144 22l25 98q63 -19 108 5q80 37 80 162v28v494h130v-565z" />
    <glyph glyph-name="uni040A" unicode="&#x40a;" horiz-adv-x="985" 
d="M438 18v288h-257v-312h-131v702h131v-288h257v288h128v-254q27 5 70 5q299 -2 299 -234q0 -113 -76 -170.5t-217 -57.5q-118 0 -204 33zM803 214q0 68 -41.5 102.5t-119.5 34.5q-48 0 -76 -5v-253q38 -10 76 -10q161 0 161 131z" />
    <glyph glyph-name="uni040C" unicode="&#x40c;" horiz-adv-x="635" 
d="M389 971l85 -83l-188 -155l-65 63zM596 -6h-107l-43 3q-112 182 -243 324v-327h-131v702h131v-296q102 111 233 296h146q-79 -103 -267 -326q169 -185 281 -376z" />
    <glyph glyph-name="uni040D" unicode="&#x40d;" horiz-adv-x="729" 
d="M181 -13h-108v719h129v-470q66 107 168 244t183 226h103v-719h-129v508q-79 -94 -182 -246.5t-164 -261.5zM219 881q23 28 97 57l143 -163l-67 -43z" />
    <glyph glyph-name="uni040E" unicode="&#x40e;" horiz-adv-x="593" 
d="M306 760q-63 0 -109 42t-48 118l91 17q11 -77 66 -77q34 0 47.5 21t18.5 56l91 -18q-2 -75 -48 -117t-109 -42zM41 -4q2 18 8 53.5l9 53.5q48 -15 88 -14q71 4 102 77l-36 62q-102 194 -218 476h140q50 -140 132 -317q34 -76 43 -100q68 184 137 417h136
q-79 -242 -189 -504q-48 -112 -100 -164t-133 -56q-49 -4 -119 16z" />
    <glyph glyph-name="uni0410" unicode="&#x410;" horiz-adv-x="664" 
d="M648 0h-135l-60 173h-255l-58 -173h-127q161 462 258 703h118q79 -197 259 -703zM426 267l-75 221q-7 20 -14.5 46.5t-9.5 31.5q-4 -8 -10 -30q-15 -48 -47 -139.5l-45 -129.5h201z" />
    <glyph glyph-name="uni0411" unicode="&#x411;" horiz-adv-x="569" 
d="M36 713h449v-109h-326v-151q33 4 67 4q312 0 312 -236q0 -117 -78.5 -174.5t-224.5 -57.5q-106 0 -199 29v695zM409 219q0 130 -186 130q-31 0 -64 -3v-239q38 -9 79 -9q171 0 171 121z" />
    <glyph glyph-name="uni0412" unicode="&#x412;" horiz-adv-x="569" 
d="M540 197q0 -104 -76.5 -156t-221.5 -52q-119 0 -206 30v659q85 30 200 30q129 0 202 -48t73 -140q0 -56 -30 -93t-75 -55q57 -18 95.5 -63t38.5 -112zM384 513q0 102 -142 102h-6h-8q-38 -1 -65 -7v-202h54q86 0 126.5 23.5t40.5 83.5zM408 200q0 67 -45.5 93.5
t-143.5 26.5h-56v-228q40 -8 80 -8q165 0 165 116z" />
    <glyph glyph-name="uni0413" unicode="&#x413;" horiz-adv-x="456" 
d="M167 602v-602h-131v703h389v-101h-258z" />
    <glyph glyph-name="uni0414" unicode="&#x414;" horiz-adv-x="768" 
d="M629 -6h-489v-158h-120v254h94l181 606h187q30 -104 83 -305l81 -301h102v-255h-119v159zM369 553l-130 -463h277l-121 463q-8 32 -8 39h-9q-2 -12 -9 -39z" />
    <glyph glyph-name="uni0415" unicode="&#x415;" horiz-adv-x="576" 
d="M480 -6h-409v702h396v-101h-265v-187h235v-100h-235v-213h278v-101z" />
    <glyph glyph-name="uni0416" unicode="&#x416;" horiz-adv-x="904" 
d="M152 -6h-147q47 91 125.5 198t148.5 176q-148 176 -261 328h145q75 -107 229 -298v298h129v-298q166 208 229 298h146q-106 -140 -262 -328q73 -72 147 -174t126 -200h-146q-116 187 -240 327v-327h-129v327q-127 -144 -240 -327z" />
    <glyph glyph-name="uni0417" unicode="&#x417;" horiz-adv-x="578" 
d="M504 196q0 -105 -74 -160t-200 -55q-129 0 -215 47l37 96q81 -39 166 -39q71 0 112.5 32t35.5 91q-4 110 -179 110h-58v93h55q71 0 115.5 27t44.5 80q0 44 -30 67t-84 23q-91 0 -154 -37l-37 90q79 48 201 48q106 0 170 -46t64 -130q0 -57 -33.5 -98t-84.5 -58
q65 -19 106.5 -63t41.5 -118z" />
    <glyph glyph-name="uni0418" unicode="&#x418;" horiz-adv-x="658" 
d="M594 -6h-130v452l3 69q-190 -318 -287 -521h-128v702h130v-439l-3 -73q111 223 291 512h124v-702z" />
    <glyph glyph-name="uni0419" unicode="&#x419;" horiz-adv-x="729" 
d="M429 904l88 -31q-14 -62 -57.5 -96t-109.5 -34q-64 0 -108 35t-55 98l89 28q21 -66 76 -66q54 0 77 66zM613 -6h-130v452l3 69q-180 -298 -288 -521h-128v702h130v-439l-3 -73q107 214 292 512h124v-702z" />
    <glyph glyph-name="uni041A" unicode="&#x41a;" horiz-adv-x="635" 
d="M596 -6h-107l-43 3q-112 182 -243 324v-327h-131v702h131v-296q102 111 233 296h146q-79 -103 -267 -326q169 -185 281 -376z" />
    <glyph glyph-name="uni041B" unicode="&#x41b;" horiz-adv-x="697" 
d="M491 0l-153 478l-10.5 34.5l-9 30t-6.5 17.5q-3 -3 -6.5 -15l-9.5 -32t-11 -35q-73 -210 -157 -478h-127q140 413 255 703h119q116 -296 254 -703h-138z" />
    <glyph glyph-name="uni041C" unicode="&#x41c;" horiz-adv-x="878" 
d="M777 -6h-126q-31 448 -37 509l-17 -47l-67.5 -186.5l-81.5 -228.5h-85q-8 24 -149 415l-7 20.5t-6 18t-3 8.5q-19 -201 -37 -509h-119q37 458 66 702h85l39 -3q102 -258 153 -407q6 -17 14 -42t10 -30q2 0 5.5 10.5t9 29.5t9.5 29q73 206 158 413h120q29 -244 66 -702z
" />
    <glyph glyph-name="uni041D" unicode="&#x41d;" horiz-adv-x="710" 
d="M590 -6h-130v312h-258v-312h-131v702h131v-288h258v288h130v-702z" />
    <glyph glyph-name="uni041E" unicode="&#x41e;" horiz-adv-x="706" 
d="M656 345q0 -167 -81 -265t-222 -98q-140 0 -221.5 98.5t-81.5 264.5t82 265t221 99q140 0 221.5 -99t81.5 -265zM522 348q0 114 -42.5 186.5t-126.5 72.5t-126.5 -72.5t-42.5 -186.5q0 -115 42.5 -187.5t126.5 -72.5q85 0 127 72.5t42 187.5z" />
    <glyph glyph-name="uni041F" unicode="&#x41f;" horiz-adv-x="631" 
d="M581 -13h-126v608h-278v-608h-127v717h531v-717z" />
    <glyph glyph-name="uni0420" unicode="&#x420;" horiz-adv-x="614" 
d="M553 480q0 -112 -78 -170.5t-230 -54.5h-45v-261h-129v681q88 30 197 30q142 0 213.5 -59t71.5 -166zM423 481q0 129 -153 129q-27 0 -70 -8v-251h42q93 -4 137 27t44 103z" />
    <glyph glyph-name="uni0421" unicode="&#x421;" 
d="M542 28q-65 -46 -189 -46q-141 0 -222 99.5t-81 263.5q0 160 85 262t221 102q114 0 180 -47l-34 -95q-59 36 -129 36q-63 0 -106.5 -36t-60.5 -102q-22 -63 -19 -135q2 -89 37 -151.5t100 -79.5q29 -9 63 -7q64 2 121 32z" />
    <glyph glyph-name="uni0422" unicode="&#x422;" horiz-adv-x="514" 
d="M494 595h-172v-601h-130v601h-172v101h474v-101z" />
    <glyph glyph-name="uni0423" unicode="&#x423;" horiz-adv-x="593" 
d="M72 -4q0 14 0.5 44.5t0.5 45.5q63 -11 88 5q55 4 79 70q-7 12 -18.5 34t-14.5 27q-101 205 -206 474h137q51 -146 129 -330q3 -9 18.5 -49t20.5 -57l44 136q33 99 91 300h133q-71 -217 -183 -516q-38 -94 -89 -141t-131 -52q-45 -3 -99 9z" />
    <glyph glyph-name="uni0424" unicode="&#x424;" horiz-adv-x="864" 
d="M473 -36h-125v82q-140 1 -226.5 88t-86.5 227q0 139 86.5 227t226.5 92v75h125v-75q140 -4 227 -91.5t87 -226.5q0 -140 -87 -227.5t-227 -88.5v-82zM473 578v-431q87 -4 136 57.5t49 159.5q0 93 -48.5 154t-136.5 60zM348 147v431q-89 4 -137 -56.5t-48 -159.5
q0 -92 49 -154t136 -61z" />
    <glyph glyph-name="uni0425" unicode="&#x425;" horiz-adv-x="636" 
d="M581 -6h-111l-40 3q-42 90 -139 260q-99 -166 -146 -263h-139q66 127 213 364l-199 338h147l128 -235h1l135 235h137l-200 -330q127 -204 213 -372z" />
    <glyph glyph-name="uni0426" unicode="&#x426;" horiz-adv-x="734" 
d="M587 94h92v-258h-124v158h-484v702h131v-602h255v602h130v-602z" />
    <glyph glyph-name="uni0427" unicode="&#x427;" horiz-adv-x="639" 
d="M540 -6h-130v261q-53 -19 -125 -19q-120 0 -179.5 61.5t-59.5 175.5v223h131v-223q0 -132 124 -132q69 0 109 21v334h130v-702z" />
    <glyph glyph-name="uni0428" unicode="&#x428;" horiz-adv-x="989" 
d="M865 -6h-794v702h131v-602h201v602h131v-602h201v602h130v-702z" />
    <glyph glyph-name="uni0429" unicode="&#x429;" horiz-adv-x="1019" 
d="M829 -6h-758v702h131v-602h201v602h131v-602h200v602h131v-602h88v-258h-124v158z" />
    <glyph glyph-name="uni042A" unicode="&#x42a;" horiz-adv-x="735" 
d="M-20 696h274v-254q29 5 72 5q298 -2 298 -234q0 -113 -76 -170.5t-217 -57.5q-119 0 -203 33v581h-148v97zM492 214q0 68 -42 102.5t-119 34.5q-49 0 -77 -5v-253q40 -10 77 -10q161 0 161 131z" />
    <glyph glyph-name="uni042B" unicode="&#x42b;" horiz-adv-x="866" 
d="M71 696h128v-254q26 5 68 5q296 -2 296 -234q0 -113 -75.5 -170.5t-214.5 -57.5q-115 0 -202 33v678zM431 214q0 66 -39.5 100.5t-111.5 36.5h-49q-13 -1 -32 -5v-253q38 -10 75 -10q157 0 157 131zM770 -6h-130v702h130v-702z" />
    <glyph glyph-name="uni042C" unicode="&#x42c;" horiz-adv-x="622" 
d="M71 696h128v-254q28 5 70 5q299 -2 299 -234q0 -113 -76 -170.5t-217 -57.5q-119 0 -204 33v678zM436 214q0 68 -41.5 102.5t-119.5 34.5q-49 0 -76 -5v-253q38 -10 76 -10q161 0 161 131z" />
    <glyph glyph-name="uni042D" unicode="&#x42d;" horiz-adv-x="636" 
d="M385 305h-240v103h239q-11 91 -61 144.5t-134 49.5q-72 -4 -120 -33l-34 94q78 47 186 47q137 0 220 -101t83 -264q0 -166 -83 -264.5t-223 -98.5q-110 0 -185 47l36 96q48 -26 100 -27q49 -6 81 1q61 16 95 70.5t40 135.5z" />
    <glyph glyph-name="uni042E" unicode="&#x42e;" horiz-adv-x="1041" 
d="M893 345q0 -166 -80 -264.5t-218 -98.5q-128 0 -206.5 87t-88.5 238h-98v-313h-131v702h131v-289h100q15 140 93 221.5t200 81.5q138 0 218 -99.5t80 -265.5zM759 348q0 115 -41 187.5t-123 72.5q-81 0 -122 -72.5t-41 -187.5q0 -116 40.5 -188t122.5 -72q83 0 123.5 72
t40.5 188z" />
    <glyph glyph-name="uni042F" unicode="&#x42f;" horiz-adv-x="645" 
d="M153 -6h-142q88 152 202 311q-18 6 -35 18q-49 15 -81.5 52.5t-39.5 92.5q-4 37 3 73q17 78 89 121t188 43q101 0 193 -29v-682h-129v290h-48q-10 -11 -31 -30t-29 -27q-70 -105 -140 -233zM184 488q0 -65 40 -90.5t122 -25.5q10 0 55 3v228q-19 4 -34 5q-14 1 -45 1
q-65 -2 -102 -31.5t-36 -89.5z" />
    <glyph glyph-name="uni0430" unicode="&#x430;" horiz-adv-x="518" 
d="M468 353v-333q-85 -33 -208 -33q-220 0 -220 172q0 88 64.5 133t162.5 50q4 0 15.5 0.5t17.5 0.5q19 0 47 -4q0 60 -23 88.5t-81 28.5q-81 0 -139 -30l-22 91q22 13 70.5 23.5t106.5 10.5q97 0 153 -48.5t56 -149.5zM348 85v175q-45 2 -67 0q-56 -6 -87.5 -28t-31.5 -70
q0 -86 107 -86q47 0 79 9z" />
    <glyph glyph-name="uni0431" unicode="&#x431;" horiz-adv-x="559" 
d="M392 246q0 160 -125 160q-59 0 -99 -36v-271q29 -20 96 -20q65 0 96.5 44.5t31.5 122.5zM50 37v436q0 40 7 72t28 66t56 58.5t95.5 45t142.5 30.5q82 9 100 13l7 -98l-112 -18q-112 -18 -154.5 -57t-50.5 -125q51 37 125 37q103 0 164 -67t61 -181q0 -118 -67 -190
t-191 -72q-157 0 -211 50z" />
    <glyph glyph-name="uni0432" unicode="&#x432;" horiz-adv-x="547" 
d="M477 567q3 -109 -86 -158q58 -25 87 -78t29 -119q0 -99 -71.5 -163.5t-192.5 -64.5q-111 0 -193 32v514q0 63 19 108.5t51 68t65.5 32.5t70.5 10q110 0 164.5 -50t56.5 -132zM380 211q0 54 -27.5 95t-93.5 43q-53 0 -84 -10v-255q20 -7 44 -8q0 -1 17 0h16q58 1 93 40
t35 95zM175 430q98 10 108 10h1l2 -1q39 6 58 38t18 76q0 52 -25.5 80.5t-77.5 27.5q-37 -1 -60 -27.5t-24 -73.5v-86v-44z" />
    <glyph glyph-name="uni0433" unicode="&#x433;" horiz-adv-x="454" 
d="M40 142q0 57 32 95t105 69q55 22 77.5 40t22.5 47q0 27 -21 43t-57 16q-54 0 -110 -28l-28 90q66 33 154 33q87 0 136 -42t49 -110q0 -59 -36 -97.5t-107 -68.5q-50 -21 -70 -38t-20 -46q0 -30 23.5 -47t64.5 -17q71 0 130 33l29 -96q-67 -36 -169 -36q-93 0 -149 43.5
t-56 116.5z" />
    <glyph glyph-name="uni0434" unicode="&#x434;" horiz-adv-x="548" 
d="M498 18q0 -231 -243 -231q-104 0 -186 35l29 97q55 -27 123 -31q59 -1 95 22q60 25 60 93v25q-43 -24 -107 -24q-103 0 -166 68.5t-63 192.5q0 128 69.5 204.5t195.5 76.5q116 0 193 -35v-493zM375 118v326q-23 10 -73 10q-66 0 -100.5 -49t-34.5 -136t32.5 -130.5
t92.5 -43.5q49 0 83 23z" />
    <glyph glyph-name="uni0435" unicode="&#x435;" horiz-adv-x="546" 
d="M505 245l-338 -24q15 -138 148 -138q78 0 142 31l24 -94q-70 -37 -177 -37q-128 0 -196 75t-68 207q0 133 68 207.5t173 74.5q98 0 156 -57t66 -168q2 -38 2 -77zM384 320q-3 134 -105 134q-52 0 -83.5 -40t-32.5 -111z" />
    <glyph glyph-name="uni0436" unicode="&#x436;" horiz-adv-x="778" 
d="M142 -6h-142q101 154 226 291q-141 165 -208 251h139q49 -67 177 -224v468h125v-469l73 84q66 85 105 141h137q-85 -112 -207 -251q120 -131 226 -291h-142q-10 14 -39 57.5l-49.5 72.5t-50 65t-53.5 55v-250h-125v249q-66 -61 -192 -249z" />
    <glyph glyph-name="uni0437" unicode="&#x437;" horiz-adv-x="485" 
d="M445 151q0 -81 -59.5 -125t-159.5 -44q-118 0 -186 36l26 89q60 -26 128 -28q57 -1 89.5 18t32.5 57q0 23 -10.5 39.5t-23.5 24.5t-36.5 12t-36.5 4.5t-36 0.5h-38v84h38q127 0 127 71q0 46 -52 57q-17 6 -49 6q-60 -1 -117 -26l-24 82q19 17 66 27.5t103 10.5
q90 0 143.5 -36t53.5 -106q0 -42 -26 -72.5t-62 -43.5q50 -13 79.5 -48.5t29.5 -89.5z" />
    <glyph glyph-name="uni0438" unicode="&#x438;" horiz-adv-x="535" 
d="M485 21q-84 -38 -216 -38q-121 0 -170 61t-49 178v314h126v-279q0 -93 18.5 -134t82.5 -41q56 0 82 13v441h126v-515z" />
    <glyph glyph-name="uni0439" unicode="&#x439;" horiz-adv-x="535" 
d="M485 21q-84 -38 -216 -38q-121 0 -170 61t-49 178v314h126v-279q0 -93 18.5 -134t82.5 -41q56 0 82 13v441h126v-515zM270 598q-66 0 -116 40.5t-59 110.5l97 21q15 -72 78 -72q64 0 78 72l96 -21q-9 -70 -58.5 -110.5t-115.5 -40.5z" />
    <glyph glyph-name="uni043A" unicode="&#x43a;" horiz-adv-x="531" 
d="M511 -6h-143l-41 59l-54 78t-50 65t-48 49v-251h-125v786h125v-465l180 221h140q-90 -111 -212 -248q125 -133 228 -294z" />
    </font>
</defs>
</svg>
