<?xml version="1.0" standalone="no"?>
<!DOCTYPE svg PUBLIC "-//W3C//DTD SVG 1.1//EN" "http://www.w3.org/Graphics/SVG/1.1/DTD/svg11.dtd" >
<svg>
<metadata>
Created by FontForge 20090622 at Mon Sep  4 15:02:37 2017
 By deploy user
Copyright (c) 2015 by Context Ltd. All rights reserved.
</metadata>
<defs>
<font id="Repo-ExtraBlack" horiz-adv-x="589" >
  <font-face 
    font-family="Repo"
    font-weight="1000"
    font-stretch="normal"
    units-per-em="1000"
    panose-1="2 0 5 3 4 0 0 2 0 4"
    ascent="800"
    descent="-200"
    x-height="547"
    cap-height="723"
    bbox="-602 -375 1487 1352"
    underline-thickness="120"
    underline-position="-183"
    unicode-range="U+0009-U+FB04"
  />
<missing-glyph horiz-adv-x="500" 
d="M50 0v530h486v-530h-486zM69 74v-2q65 144 202 283q-40 18 -77 25q-72 -123 -125 -306zM348 313q-144 -73 -272 -241q178 125 340 183q-36 38 -68 58zM97 72h420q-9 58 -40 101q-216 -29 -380 -101z" />
    <glyph glyph-name="f_f" unicode="ff" horiz-adv-x="873" 
d="M832 382h-128v-397h-216v341v56h-53v164h53q0 126 40 182t150 69q76 5 170 -21l-22 -160q-62 13 -92 -1.5t-30 -67.5h128v-165zM414 382h-128v-397h-216v341v56h-53v164h53q0 126 40 182t150 69q77 5 170 -21l-22 -160q-62 13 -92 -1.5t-30 -67.5h128v-165z" />
    <glyph glyph-name="f_i" unicode="fi" horiz-adv-x="708" 
d="M298 806q68 0 150 -35l-38 -176q-60 25 -97 25q-64 0 -64 -64h184v-184h-184v-402h-209v584q0 118 66 185t192 67zM668 556v-586h-209v586h209zM682 678q0 -54 -34.5 -86t-84.5 -32t-84.5 32t-34.5 86t34.5 86t84.5 32t84.5 -32t34.5 -86z" />
    <glyph glyph-name="f_l" unicode="fl" horiz-adv-x="791" 
d="M298 806q68 0 150 -35l-38 -176q-60 25 -97 25q-64 0 -64 -64h184v-184h-184v-402h-209v584q0 118 66 185t192 67zM818 80l-33 -94q-77 0 -132.5 11.5t-88 30.5t-51 49.5t-24.5 61t-6 73.5v568h217v-559q0 -70 26 -97.5t92 -43.5z" />
    <glyph glyph-name="f_f_i" unicode="ffi" horiz-adv-x="1127" 
d="M298 806q81 0 166 -38l-43 -178q-68 30 -108 30q-62 0 -64 -64h184v-184h-184v-402h-209v584q0 118 66 185t192 67zM717 806q68 0 150 -35l-38 -176q-60 25 -97 25q-62 0 -64 -64h184v-184h-184v-402h-209v584q0 118 66 185t192 67zM982 796q50 0 84.5 -32t34.5 -86
q0 -37 -17 -63q-33 -55 -102 -55q-31 0 -59 14q-60 33 -60 104q0 37 17 63q33 55 102 55zM1087 -30h-209v293v293h209v-586z" />
    <glyph glyph-name="f_f_l" unicode="ffl" horiz-adv-x="1258" 
d="M298 806q81 0 166 -38l-43 -178q-68 30 -108 30q-62 0 -64 -64h184v-184h-184v-402h-209v584q0 118 66 185t192 67zM717 806q68 0 150 -35l-38 -176q-60 25 -97 25q-62 0 -64 -64h184v-184h-184v-402h-209v584q0 118 66 185t192 67zM1224 80l-33 -94q-77 0 -132.5 11.5
t-88 30.5t-51 49.5t-24.5 61t-6 73.5v568h217v-559q0 -70 26 -97.5t92 -43.5z" />
    <glyph glyph-name=".notdef" horiz-adv-x="500" 
d="M50 0v530h486v-530h-486zM69 74v-2q65 144 202 283q-40 18 -77 25q-72 -123 -125 -306zM348 313q-144 -73 -272 -241q178 125 340 183q-36 38 -68 58zM97 72h420q-9 58 -40 101q-216 -29 -380 -101z" />
    <glyph glyph-name=".null" horiz-adv-x="0" 
 />
    <glyph glyph-name=".null" horiz-adv-x="0" 
 />
    <glyph glyph-name="nonmarkingreturn" horiz-adv-x="333" 
 />
    <glyph glyph-name="CR" unicode="&#x9;" horiz-adv-x="240" 
 />
    <glyph glyph-name="space" unicode=" " horiz-adv-x="320" 
 />
    <glyph glyph-name="exclam" unicode="!" horiz-adv-x="319" 
d="M260 810l-2 -315q-1 -53 -16 -137.5t-17 -117.5h-135q-3 31 -17.5 115.5t-15.5 139.5l-3 315q2 1 9.5 5t11 5.5t12 4.5t17 4.5t22.5 2.5t31 1t31 -1t22.5 -2.5t17 -4.5t12 -4.5t11 -5.5t9.5 -5zM269 94q0 -49 -32 -79t-78 -30q-45 0 -77 30t-32 78t30 79t79 31
q46 0 78 -30.5t32 -78.5z" />
    <glyph glyph-name="quotedbl" unicode="&#x22;" horiz-adv-x="561" 
d="M246 810q-13 -166 -40 -330h-116q-27 164 -40 330q46 23 98 23t98 -23zM511 810q-13 -166 -40 -330h-116q-29 191 -40 330q46 23 98 23t98 -23z" />
    <glyph glyph-name="numbersign" unicode="#" horiz-adv-x="699" 
d="M615 389h-94l-15 -79h92v-140h-116l-33 -185h-156l33 185h-67l-33 -185h-157l33 185h-68v140h93l15 78h-91v141h116l33 176h155q-24 -128 -32 -176h67l33 176h155q-8 -48 -32 -176h69v-140zM365 389h-67l-15 -79h67z" />
    <glyph glyph-name="dollar" unicode="$" horiz-adv-x="568" 
d="M531 206q0 -76 -46 -133.5t-133 -77.5q3 -42 7 -133h-153q1 22 3.5 64.5t3.5 63.5q-109 9 -179 49l56 163q53 -29 112 -39q28 -4 41 -4q65 0 65 39q0 18 -17 31t-58 31q-40 17 -64.5 30.5t-56 39t-47 61.5t-15.5 83q0 16 2 23q6 71 50.5 122.5t122.5 70.5l-6 121h151
l-6 -116q80 -11 143 -41l-43 -153q-77 35 -141 35q-59 0 -59 -35q0 -18 21 -32.5t70 -39.5l23 -11q74 -37 113.5 -85.5t39.5 -126.5z" />
    <glyph glyph-name="percent" unicode="%" horiz-adv-x="918" 
d="M884 210q0 -98 -40.5 -160t-121.5 -62t-121.5 62.5t-40.5 159.5t41 159.5t121 62.5q81 0 121.5 -62t40.5 -160zM720 821l-412 -999l-173 32l412 999zM346 494q0 -98 -40.5 -161t-122.5 -63q-81 0 -122 63t-41 161t41 161t122 63q82 0 122.5 -63t40.5 -161zM758 211
q0 123 -36 123q-35 0 -35 -123t35 -123q36 0 36 123zM219 495q0 124 -36 124t-36 -124t36 -124t36 124z" />
    <glyph glyph-name="ampersand" unicode="&#x26;" horiz-adv-x="713" 
d="M24 193q0 123 118 199q-49 65 -49 124q0 24 5 49q14 69 66.5 106t135.5 37q94 0 145.5 -47.5t51.5 -120.5q0 -108 -105 -181l69 -69q15 34 23 72l148 -12q-3 -33 -18 -85.5t-33 -87.5q82 -95 124 -177h-183q-21 27 -49 55q-88 -64 -198 -64q-131 0 -191 59.5t-60 142.5z
M193 207q0 -26 21.5 -46.5t64.5 -20.5q57 0 91 21l-127 127q-50 -32 -50 -81zM339 533q0 37 -43 37q-21 0 -32.5 -13t-11.5 -34q0 -34 35 -69q52 34 52 79z" />
    <glyph glyph-name="quotesingle" unicode="'" horiz-adv-x="247" 
d="M228 723l-4 -83q-4 -77 -28 -248h-131q-23 135 -29 249q0 13 -1.5 41t-2.5 41q32 22 81 22q67 0 115 -22z" />
    <glyph glyph-name="parenleft" unicode="(" horiz-adv-x="356" 
d="M408 -150l-127 -77q-241 244 -241 519q0 277 241 519l127 -76q-150 -213 -150 -443q0 -231 150 -442z" />
    <glyph glyph-name="parenright" unicode=")" horiz-adv-x="356" 
d="M355 292q0 -274 -241 -519l-127 77q149 210 149 442q0 231 -149 443l127 76q241 -244 241 -519z" />
    <glyph glyph-name="asterisk" unicode="*" horiz-adv-x="502" 
d="M168 693h156q0 -3 1 -16t1 -23.5t-3.5 -31t-11.5 -44.5q54 36 108 45l48 -148q-26 -23 -115 -26q17 -11 43.5 -37t34.5 -49l-121 -92q-41 32 -65 99q-31 -88 -61 -100l-126 93q7 29 79 86q-81 0 -114 26l46 147q36 1 109 -45q-7 20 -10.5 49.5t1.5 66.5z" />
    <glyph glyph-name="plus" unicode="+" horiz-adv-x="568" 
d="M531 230h-155v-160h-168v160h-155v168h155v160h168v-160h155v-168z" />
    <glyph glyph-name="comma" unicode="," horiz-adv-x="306" 
d="M274 158q-23 -144 -140 -341l-137 36q10 30 18 59.5t12.5 49t9.5 47.5l7 40t6 41.5t5 37.5q4 28 4 43l34.5 10.5t33.5 10t26.5 6.5t31 5.5t28.5 1.5q26 0 43.5 -12.5t17.5 -34.5z" />
    <glyph glyph-name="hyphen" unicode="-" horiz-adv-x="403" 
d="M363 230h-323v160h323v-160z" />
    <glyph glyph-name="period" unicode="." horiz-adv-x="281" 
d="M261 94q0 -54 -36 -87.5t-86 -33.5t-85.5 33.5t-35.5 86.5q0 54 35.5 88t85.5 34t86 -34t36 -87z" />
    <glyph glyph-name="slash" unicode="/" horiz-adv-x="437" 
d="M379 806l173 -32l-412 -999l-173 32z" />
    <glyph glyph-name="zero" unicode="0" horiz-adv-x="568" 
d="M563 346q0 -164 -68 -268.5t-203 -104.5q-70 0 -123 29.5t-85 81t-48 117.5t-16 145q0 162 69 267t203 105q135 0 203 -104.5t68 -267.5zM351 347q0 104 -13 155.5t-46 51.5t-46.5 -52t-13.5 -155t13.5 -155t46.5 -52t46 51.5t13 155.5z" />
    <glyph glyph-name="one" unicode="1" horiz-adv-x="568" 
d="M450 -15h-219v474q-53 -22 -137 -34l-35 104l2 53q77 17 139.5 51t93.5 72h156v-720z" />
    <glyph glyph-name="two" unicode="2" horiz-adv-x="568" 
d="M538 -15h-514q2 35 19 71q0 28 10.5 58t36.5 67l38.5 54t49.5 60l38 43v-1l9 9q60 71 72 97q9 19 9 39q0 62 -69 62q-9 0 -16 -3q-107 -42 -123 -52l-80 147q104 82 243 82q74 0 128 -18t83 -49.5t42.5 -68t13.5 -80.5q0 -59 -34.5 -114t-102.5 -126h1l-16.5 -16
l-18 -17.5t-13.5 -14.5q-23 -25 -36 -44h230v-185z" />
    <glyph glyph-name="three" unicode="3" horiz-adv-x="568" 
d="M539 212q0 -108 -78.5 -173.5t-222.5 -65.5q-63 0 -127.5 14t-105.5 33l50 167q83 -39 161 -39q47 0 72 17t25 48q0 61 -100 68q-23 2 -74 2v148q58 3 99 15q58 13 58 54q0 22 -18.5 34.5t-49.5 12.5q-65 0 -143 -42l-65 151q109 62 230 62q129 0 195 -55t66 -148
q0 -38 -20.5 -73t-53.5 -57v-1q102 -53 102 -172z" />
    <glyph glyph-name="four" unicode="4" horiz-adv-x="568" 
d="M567 120h-60v-135h-210v135h-282v136q125 236 289 449h203v-436h60v-149zM300 453q-5 -3 -24 -42l-41.5 -70.5t-41.5 -71.5h104v107q0 20 1 48z" />
    <glyph glyph-name="five" unicode="5" horiz-adv-x="568" 
d="M545 213q0 -107 -79.5 -173.5t-219.5 -66.5q-64 0 -128 13.5t-103 31.5l49 167q78 -37 159 -37q49 0 73 17.5t24 46.5q0 98 -266 79q21 164 41 414h417v-184h-248q0 -3 -2 -32.5t-4 -44.5q287 -16 287 -231z" />
    <glyph glyph-name="six" unicode="6" horiz-adv-x="568" 
d="M563 221q0 -105 -71.5 -176.5t-194.5 -71.5q-93 0 -156 41.5t-90 107t-27 151.5q0 104 39 188.5t103.5 137t141.5 81.5t160 32q6 -26 17 -81l17 -83q-69 -4 -130 -28t-95 -69q9 1 32 1q115 0 184.5 -59t69.5 -172zM354 227q0 84 -80 84q-19 0 -39 -5q0 -7 -1.5 -24.5
t-1.5 -28.5q6 -117 66 -117q29 0 42.5 27t13.5 64z" />
    <glyph glyph-name="seven" unicode="7" horiz-adv-x="568" 
d="M571 706q-10 -46 -41 -179q-16 -18 -28 -37q-145 -296 -166 -505h-180q-20 6 -60 16q71 268 205 519h-273v186h543z" />
    <glyph glyph-name="eight" unicode="8" horiz-adv-x="568" 
d="M561 188q0 -98 -71.5 -156.5t-198.5 -58.5q-130 0 -199 60.5t-69 147.5q0 58 26 97.5t77 74.5q-87 71 -87 158q0 89 70.5 148t181.5 59q99 0 163 -41.5t83 -106.5q7 -24 7 -51q0 -88 -88 -155q105 -74 105 -176zM353 518q0 19 -16 34.5t-42 15.5q-27 0 -43 -15t-16 -35
q0 -23 14.5 -41.5t51.5 -39.5q51 37 51 81zM357 186q0 25 -19 45t-62 43q-55 -38 -55 -87q0 -21 19 -39t50 -18q32 0 49.5 16t17.5 40z" />
    <glyph glyph-name="nine" unicode="9" horiz-adv-x="568" 
d="M556 412q0 -104 -36 -187t-97.5 -135t-140 -80t-168.5 -31q-22 134 -32 165q163 9 226 98q-16 -3 -35 -3q-116 0 -186 57t-70 173q0 105 71.5 177t194.5 72q140 0 206.5 -84t66.5 -222zM347 426q-2 133 -67 133q-29 0 -42.5 -26.5t-13.5 -63.5q0 -84 82 -84q21 0 38 5
q3 13 3 36z" />
    <glyph glyph-name="colon" unicode=":" horiz-adv-x="278" 
d="M261 449q0 -54 -36 -87.5t-86 -33.5t-85.5 33.5t-35.5 86.5q0 54 35.5 88t85.5 34t86 -34t36 -87zM261 94q0 -54 -36 -87.5t-86 -33.5t-85.5 33.5t-35.5 86.5q0 54 35.5 88t85.5 34t86 -34t36 -87z" />
    <glyph glyph-name="semicolon" unicode=";" horiz-adv-x="290" 
d="M261 449q0 -54 -36 -87.5t-86 -33.5t-85.5 33.5t-35.5 86.5q0 54 35.5 88t85.5 34t86 -34t36 -87zM274 158q-23 -144 -140 -341l-137 36q10 30 18 59.5t12.5 49t9.5 47.5l7 40t6 41.5t5 37.5q4 28 4 43l34.5 10.5t33.5 10t26.5 6.5t31 5.5t28.5 1.5q26 0 43.5 -12.5
t17.5 -34.5z" />
    <glyph glyph-name="less" unicode="&#x3c;" horiz-adv-x="568" 
d="M506 54l-453 187v145l453 187q7 -43 29 -166l-261 -93l261 -94z" />
    <glyph glyph-name="equal" unicode="=" horiz-adv-x="568" 
d="M531 507v-160h-478v160h478zM531 120h-478v160h478v-160z" />
    <glyph glyph-name="greater" unicode="&#x3e;" horiz-adv-x="568" 
d="M530 241l-452 -187l-29 166l260 94l-260 93q9 56 29 166l452 -187v-145z" />
    <glyph glyph-name="question" unicode="?" horiz-adv-x="455" 
d="M431 548q0 -38 -17 -71.5t-41.5 -57.5l-48.5 -46t-41 -46.5t-17 -48.5v-44h-160q-2 15 -5 45q0 30 19 64t42 58t42 49.5t19 42.5q0 33 -14 54.5t-45 21.5q-14 0 -25 -1.5t-22.5 -6.5t-15.5 -6.5t-18.5 -10t-15.5 -9.5l-44 128q24 15 81 30.5t99 15.5q111 0 169.5 -34.5
t58.5 -126.5zM298 94q0 -49 -32 -79t-78 -30q-45 0 -77 30t-32 78t30 79t79 31q46 0 78 -30.5t32 -78.5z" />
    <glyph glyph-name="at" unicode="@" horiz-adv-x="974" 
d="M864 375q3 -125 -53.5 -221.5t-136.5 -96.5q-59 0 -87.5 14.5t-47.5 52.5q-23 -32 -70.5 -47.5t-87.5 -8.5q-56 10 -87.5 58.5t-31.5 122.5q0 93 57 171t148 78q39 0 62 -37l6 28l92 -13l-29 -270q-4 -28 6 -48.5t38 -20.5q39 0 62 86.5t13 165.5q-12 89 -73 150t-148 61
q-127 0 -209.5 -89.5t-97.5 -224.5q-17 -155 52 -246t226 -91q67 0 129 21.5t104 58.5q9 -24 33 -114q-97 -92 -266 -92q-108 0 -193 38t-135 101.5t-74 141t-20 162.5q10 211 146.5 337.5t332.5 126.5q140 0 238 -100.5t102 -254.5zM484 201l12 108q9 52 -42 52
q-37 0 -51.5 -20.5t-20.5 -61.5q-5 -37 7.5 -66t35.5 -29q33 0 59 17z" />
    <glyph glyph-name="A" unicode="A" horiz-adv-x="735" 
d="M726 -15h-239q-23 91 -31 119h-202q-4 -14 -17 -56t-19 -63h-215q145 437 256 720h210q122 -316 257 -720zM413 261l-42 149q-12 48 -16 60q-7 -21 -17 -61q-9 -35 -42 -148h117z" />
    <glyph glyph-name="B" unicode="B" horiz-adv-x="672" 
d="M633 201q0 -225 -326 -225q-143 0 -256 33v672q110 33 244 33q152 0 233 -53t81 -157q0 -82 -81 -134q49 -25 77 -68.5t28 -100.5zM393 494q0 33 -20 48t-64 15h-6q-21 0 -35 -2v-126h32q51 0 72 14.5t21 50.5zM409 210q0 39 -26 57t-84 18q-5 0 -15 -0.5t-16 -0.5v-145
q22 -2 39 -2q52 0 77 16.5t25 56.5z" />
    <glyph glyph-name="C" unicode="C" horiz-adv-x="607" 
d="M577 29q-83 -56 -217 -56q-163 0 -246.5 102t-83.5 270q0 163 90 268t245 105q124 0 207 -56l-55 -161q-61 34 -126 34q-55 0 -90 -40t-39 -114q-2 -43 2 -72q7 -65 39.5 -106.5t90.5 -41.5q19 0 39 5q40 5 88 28z" />
    <glyph glyph-name="D" unicode="D" horiz-adv-x="737" 
d="M662 344q0 -171 -94.5 -269.5t-281.5 -98.5q-126 0 -235 32v674q117 32 232 32q189 0 284 -97t95 -273zM435 347q0 104 -32.5 149t-107.5 45h-21v-389h20q74 0 107.5 44.5t33.5 150.5z" />
    <glyph glyph-name="E" unicode="E" horiz-adv-x="606" 
d="M519 -15h-468v720h456v-173h-231v-98h202v-171h-202v-105h243v-173z" />
    <glyph glyph-name="F" unicode="F" horiz-adv-x="574" 
d="M505 532h-229v-98h200v-171h-200v-278h-225v720h454v-173z" />
    <glyph glyph-name="G" unicode="G" horiz-adv-x="702" 
d="M625 18q-92 -44 -244 -44q-176 0 -265 99.5t-89 272.5q0 167 97 269.5t263 102.5q136 0 236 -57l-67 -161q-54 28 -113 34q-189 17 -189 -188q0 -196 124 -196q28 0 32 2v111h-74v171h289v-416z" />
    <glyph glyph-name="H" unicode="H" horiz-adv-x="734" 
d="M646 -15h-224v278h-146v-278h-225v720h225v-272h146v272h224v-720z" />
    <glyph glyph-name="I" unicode="I" horiz-adv-x="316" 
d="M276 -15h-225v720h225v-720z" />
    <glyph glyph-name="J" unicode="J" horiz-adv-x="529" 
d="M387 149q0 -254 -246 -275q-81 -5 -170 31l37 167q83 -25 116 21q39 50 39 154v458h224v-556z" />
    <glyph glyph-name="K" unicode="K" horiz-adv-x="684" 
d="M695 -15h-206q-16 3 -55 7q-75 161 -158 285v-292h-225v720h225v-259q33 36 59 77.5t55.5 99t44.5 82.5h249l-233 -330q109 -147 244 -390z" />
    <glyph glyph-name="L" unicode="L" horiz-adv-x="563" 
d="M500 -15h-449v720h225v-546h224v-174z" />
    <glyph glyph-name="M" unicode="M" horiz-adv-x="897" 
d="M829 -15h-216q-15 348 -16 363q-2 -3 -12 -32q-50 -151 -103 -287h-125l-103 287l-11 32q-3 -14 -15 -363h-202q37 502 63 720h210l102 -280l9.5 -30.5t9.5 -29l6 -17.5q2 0 6 11.5l10.5 31t9.5 27.5q68 180 113 287h201q26 -218 63 -720z" />
    <glyph glyph-name="N" unicode="N" horiz-adv-x="756" 
d="M656 -15h-137l-41 8q-102 173 -186 297q-6 8 -15 24.5t-15.5 26.5t-8.5 10q0 -5 1 -30.5t1 -42.5v-293h-204v720h180q87 -108 183 -250q8 -11 21.5 -33.5t17.5 -27.5q0 10 -1 44t-1 55v212h205v-720z" />
    <glyph glyph-name="O" unicode="O" horiz-adv-x="724" 
d="M694 345q0 -170 -88.5 -271t-243.5 -101q-154 0 -243 101t-89 271q0 169 90 271t242 102q153 0 242.5 -101.5t89.5 -271.5zM465 350q0 85 -26 139.5t-77 54.5t-77 -54.5t-26 -139.5q0 -86 26 -140t77 -54t77 54t26 140z" />
    <glyph glyph-name="P" unicode="P" horiz-adv-x="644" 
d="M617 467q0 -123 -82 -186.5t-246 -63.5h-16v-232h-222v696q114 33 242 33q164 0 244 -64t80 -183zM396 468q0 46 -23 65.5t-74 19.5q-5 0 -14 -0.5t-12 -0.5v-173h17q57 0 81.5 19.5t24.5 69.5z" />
    <glyph glyph-name="Q" unicode="Q" horiz-adv-x="790" 
d="M691 345q0 -116 -44 -201.5t-123 -128.5q36 -30 142 -71l-107 -159q-92 27 -144.5 74.5t-77.5 118.5q-37 3 -65 13q-119 20 -182 115t-63 239q0 169 90 271t242 102q153 0 242.5 -101.5t89.5 -271.5zM462 350q0 85 -26 139.5t-77 54.5t-77 -54.5t-26 -139.5
q0 -86 26 -140t77 -54t77 54t26 140z" />
    <glyph glyph-name="R" unicode="R" horiz-adv-x="683" 
d="M665 -15h-246q-82 180 -128 269h-17v-269h-223v696q117 33 238 33q165 0 248 -62t83 -179q0 -57 -32.5 -106.5t-80.5 -75.5v-1q21 -27 44.5 -69t38.5 -73l40.5 -87.5zM395 467q0 41 -23 64.5t-55 23.5q-23 0 -43 -4v-178h43q31 0 54.5 26.5t23.5 67.5z" />
    <glyph glyph-name="S" unicode="S" horiz-adv-x="582" 
d="M522 204q0 -105 -73.5 -168t-204.5 -63q-146 0 -234 56l57 172q74 -45 153 -45q68 0 68 39q0 23 -25.5 39.5t-101.5 46.5q-139 68 -139 203q0 29 6 56q18 81 87 129.5t171 48.5q118 0 212 -53l-57 -160q-74 39 -131 39q-64 0 -64 -35q0 -23 23.5 -38t86.5 -41q8 -3 12 -5
q87 -41 120.5 -91t33.5 -130z" />
    <glyph glyph-name="T" unicode="T" horiz-adv-x="614" 
d="M547 531h-156v-546h-224v546h-156v174h536v-174z" />
    <glyph glyph-name="U" unicode="U" horiz-adv-x="707" 
d="M624 236q0 -123 -77 -193.5t-213 -70.5q-119 0 -194.5 56t-87.5 157q-6 47 -6 98v422h225v-385q0 -98 11 -130.5t57 -32.5q68 0 68 87v77v384h217v-469z" />
    <glyph glyph-name="V" unicode="V" horiz-adv-x="722" 
d="M685 705q-134 -411 -255 -720h-135l-64 9q-126 318 -251 711h239l82 -303q5 -16 13 -45l13.5 -48t10.5 -30q5 11 11 32l14 50t14 47l82 297h226z" />
    <glyph glyph-name="W" unicode="W" horiz-adv-x="948" 
d="M911 705q-84 -398 -171 -720h-196l-75 256q-4 14 -9.5 38.5t-7.5 29.5q-2 -4 -4 -14.5t-5.5 -26t-6.5 -26.5l-74 -257h-196q-82 299 -171 720h228q35 -228 47 -292q16 -93 19 -105q2 5 4.5 16t6 28t6.5 30q41 160 68 286h170q44 -194 66 -279q16 -73 18 -79q2 4 3.5 14.5
t3.5 27.5t4 28q19 102 55 325h217z" />
    <glyph glyph-name="X" unicode="X" horiz-adv-x="725" 
d="M705 -15h-215l-46 8q-46 106 -87 182q-64 -115 -95 -190h-242q95 180 213 368l-203 352h253l84 -170h1l90 170h237l-204 -338q104 -164 214 -382z" />
    <glyph glyph-name="Y" unicode="Y" horiz-adv-x="661" 
d="M640 705q-100 -211 -223 -440v-280h-224v279q-112 209 -222 441h245q47 -125 96 -232q61 135 98 232h230z" />
    <glyph glyph-name="Z" unicode="Z" horiz-adv-x="610" 
d="M542 -15h-535v146q33 77 122.5 217.5t113.5 183.5h-213v173h517v-122q-17 -46 -114.5 -195.5t-137.5 -229.5h247v-173z" />
    <glyph glyph-name="bracketleft" unicode="[" horiz-adv-x="371" 
d="M377 -215h-322v1014h322v-152h-124v-710h124v-152z" />
    <glyph glyph-name="backslash" unicode="\" horiz-adv-x="437" 
d="M552 -193q-116 -22 -174 -32l-411 999l172 32z" />
    <glyph glyph-name="bracketright" unicode="]" horiz-adv-x="371" 
d="M325 -215h-323v152h124v710h-124v152h323v-1014z" />
    <glyph glyph-name="asciicircum" unicode="^" horiz-adv-x="568" 
d="M587 382l-136 -87l-147 202l-148 -202l-135 87l183 277q25 35 62 53q63 0 118 -20q26 -48 57.5 -96.5l81 -120z" />
    <glyph glyph-name="underscore" unicode="_" horiz-adv-x="590" 
d="M590 -230h-590v160h590v-160z" />
    <glyph glyph-name="grave" unicode="`" horiz-adv-x="330" 
d="M330 576h-157l-173 222h251z" />
    <glyph glyph-name="a" unicode="a" horiz-adv-x="553" 
d="M526 11q-108 -36 -250 -36q-262 0 -262 191q0 179 277 192q19 0 27 -1q-7 43 -70 43q-74 0 -158 -32l-37 153q109 38 226 38q208 0 241 -161q6 -33 6 -71v-316zM320 125v103q-21 0 -30 -1q-68 -5 -68 -54q0 -50 63 -50q28 0 35 2z" />
    <glyph glyph-name="b" unicode="b" horiz-adv-x="604" 
d="M586 277q0 -146 -80 -224.5t-226 -78.5q-141 0 -237 39v767h217v-236q41 13 85 13q111 0 176 -76.5t65 -203.5zM370 270q0 67 -15.5 98.5t-56.5 31.5q-23 0 -38 -6v-260q6 -1 28 -1q82 0 82 137z" />
    <glyph glyph-name="c" unicode="c" horiz-adv-x="500" 
d="M458 13q-67 -40 -164 -40q-130 0 -201 78.5t-71 216.5q0 131 75.5 211t192.5 80q90 0 163 -41l-45 -149q-48 23 -84 23q-83 0 -83 -124q0 -123 86 -123q43 0 92 26z" />
    <glyph glyph-name="d" unicode="d" horiz-adv-x="604" 
d="M565 24q-39 -21 -105 -35.5t-139 -14.5q-139 0 -219 75t-80 216q0 134 68.5 212.5t183.5 78.5q48 0 75 -8v232h216v-756zM349 138v258q-14 6 -35 6q-75 0 -75 -130q0 -136 83 -136q11 0 27 2z" />
    <glyph glyph-name="e" unicode="e" horiz-adv-x="584" 
d="M558 210l-317 -21q25 -47 100 -47q87 0 158 33l38 -158q-92 -44 -221 -44q-144 0 -219 82t-75 210q0 134 76.5 214t199.5 80q117 0 184 -66t75 -188q0 -10 1 -43t0 -52zM351 331q-6 73 -57 73q-60 0 -62 -82z" />
    <glyph glyph-name="f" unicode="f" horiz-adv-x="460" 
d="M414 382h-128v-397h-216v341v56h-53v164h53q0 126 40 182t150 69q77 5 170 -21l-22 -160q-62 13 -92 -1.5t-30 -67.5h128v-165z" />
    <glyph glyph-name="g" unicode="g" horiz-adv-x="594" 
d="M557 34q0 -257 -281 -257q-125 0 -227 42l45 165q57 -25 106 -33q24 -4 56 -4q42 0 66 16.5t24 42.5v7q-33 -11 -80 -11q-111 0 -177.5 70.5t-66.5 193.5q0 137 78.5 214.5t224.5 77.5q137 0 232 -39v-485zM344 160v242q-7 2 -26 2q-79 0 -79 -130q0 -63 17 -91.5
t54 -28.5q19 0 34 6z" />
    <glyph glyph-name="h" unicode="h" 
d="M563 -15h-216v270v20q0 31 -0.5 45t-3 32.5t-8 26t-16 13t-26.5 5.5q-23 0 -33 -3v-409h-217v795h217v-233q25 7 50 8q66 5 113 -7t73.5 -34.5t42 -60.5t20 -75t4.5 -90v-303z" />
    <glyph glyph-name="i" unicode="i" horiz-adv-x="289" 
d="M268 687q0 -47 -34 -77.5t-83 -30.5q-48 0 -82 30.5t-34 77.5t34 77.5t82 30.5q49 0 83 -30.5t34 -77.5zM260 -15h-217v562h217v-562z" />
    <glyph glyph-name="j" unicode="j" horiz-adv-x="289" 
d="M268 687q0 -47 -34 -77.5t-82 -30.5q-49 0 -83 30.5t-34 77.5t34 77.5t82 30.5q49 0 83 -30.5t34 -77.5zM260 54q0 -117 -55.5 -185.5t-158.5 -82.5q-49 -9 -115 5l15 127q52 16 66 28q31 26 31 94v507h217v-493z" />
    <glyph glyph-name="k" unicode="k" horiz-adv-x="579" 
d="M623 -15h-243q-1 3 -14 32l-27 59l-30 62.5t-29.5 53.5t-19.5 21v-228h-216v795h216v-417q72 107 117 184h239l-186 -246q103 -142 193 -316z" />
    <glyph glyph-name="l" unicode="l" horiz-adv-x="409" 
d="M378 80l-33 -94q-77 0 -132.5 11.5t-88 30.5t-51 49.5t-24.5 61t-6 73.5v568h217v-559q0 -70 26 -97.5t92 -43.5z" />
    <glyph glyph-name="m" unicode="m" horiz-adv-x="862" 
d="M851 -15h-217v271q0 94 -9 115q-11 25 -42 25q-14 0 -31 -5q3 -28 3 -149v-257h-216v270v14v39.5t-1.5 31t-4.5 26t-9 16t-14.5 11.5t-21.5 3q-10 0 -28 -2v-409h-217v534q117 40 248 40q103 0 164 -43q71 42 170 42q68 0 113.5 -18.5t69.5 -56.5t33.5 -84.5t9.5 -112.5
v-301z" />
    <glyph glyph-name="n" unicode="n" 
d="M563 -15h-216v270v17q0 31 -0.5 45.5t-3 33.5t-8 26t-16 13t-26.5 6q-20 0 -33 -2v-409h-217v523q79 50 254 50q85 0 139 -17.5t81 -56t36.5 -83.5t9.5 -115v-301z" />
    <glyph glyph-name="o" unicode="o" horiz-adv-x="607" 
d="M576 267q0 -132 -75 -213t-202 -81q-126 0 -201.5 81.5t-75.5 212.5q0 129 77 210.5t200 81.5q125 0 201 -81t76 -211zM359 269q0 127 -60 127t-60 -127t60 -127t60 127z" />
    <glyph glyph-name="p" unicode="p" horiz-adv-x="604" 
d="M586 265q0 -131 -67.5 -209.5t-182.5 -78.5q-51 0 -76 8v-200h-217v734q108 39 244 39q139 0 219 -75.5t80 -217.5zM370 264q0 135 -83 135q-20 0 -27 -1v-258q15 -5 35 -5q39 0 57 31.5t18 97.5z" />
    <glyph glyph-name="q" unicode="q" horiz-adv-x="604" 
d="M565 -215h-216v204q-38 -13 -84 -13q-111 0 -177 75.5t-66 203.5q0 137 77 220t229 83q136 0 237 -39v-734zM349 141v258q-14 2 -28 2q-82 0 -82 -137q0 -129 71 -129q24 0 39 6z" />
    <glyph glyph-name="r" unicode="r" horiz-adv-x="422" 
d="M419 541l-34 -151q-41 9 -59 8q-33 1 -66 -5v-408h-217v528q110 44 240 45q66 0 136 -17z" />
    <glyph glyph-name="s" unicode="s" horiz-adv-x="485" 
d="M448 158q0 -87 -63 -136t-178 -49q-111 0 -197 43l47 160q74 -37 133 -37q39 0 39 17q0 10 -19 21.5t-69 31.5q-61 28 -88 67t-27 96q0 84 59 135.5t158 51.5q105 0 190 -40l-46 -149q-62 29 -110 29q-38 0 -38 -18q0 -7 2.5 -11.5t10 -8.5t15.5 -7.5t24.5 -11.5
t32.5 -17q71 -33 97.5 -71t26.5 -96z" />
    <glyph glyph-name="t" unicode="t" horiz-adv-x="498" 
d="M462 3q-54 -23 -115 -28q-69 -4 -115.5 11t-71 48t-35 69t-15.5 89q-3 54 -3 190h-77v165h77v133h217v-133h125v-165h-125v-160q0 -47 8.5 -64t34.5 -17q35 0 79 19q9 -94 16 -157z" />
    <glyph glyph-name="u" unicode="u" 
d="M558 25q-67 -51 -257 -51q-136 0 -198 59t-62 178v336h216v-269v-25.5v-24.5v-21t1.5 -19.5t4 -15.5t6 -13.5t9 -9t12.5 -6.5t17 -2q19 0 35 3v403h216v-522z" />
    <glyph glyph-name="v" unicode="v" horiz-adv-x="550" 
d="M569 547q-95 -310 -196 -562h-146q-34 6 -51 8q-102 257 -192 554h229q41 -187 50 -225l7 -34l6.5 -32.5t4.5 -17.5q1 0 20 84q24 96 53 225h215z" />
    <glyph glyph-name="w" unicode="w" horiz-adv-x="784" 
d="M821 547q-80 -295 -168 -562h-185l-51 187q-4 15 -8 39t-5 27q-5 -18 -17 -70.5l-24 -100.5t-22 -82h-185q-82 249 -167 562h220q6 -31 18.5 -103t21.5 -114l5 -32.5t4.5 -30.5t3.5 -15l5 28q6 40 17 86.5l24.5 101l19.5 79.5h169l19 -82t21 -94t15 -86q4 -25 6 -32
q1 0 3 11t5 31l5 33l44 219h206z" />
    <glyph glyph-name="x" unicode="x" horiz-adv-x="554" 
d="M585 -15h-238q-38 83 -72 141q-4 0 -12.5 -12.5t-18.5 -32.5l-19 -38.5l-17 -36.5t-10 -21h-222q78 141 182 289l-99 154l-77 119h234l70 -124h1l73 124h217l-179 -265q105 -150 187 -297z" />
    <glyph glyph-name="y" unicode="y" horiz-adv-x="591" 
d="M585 547q-97 -328 -224 -669q-25 -54 -62 -73.5t-106 -19.5q-43 0 -142 30l44 146q32 -11 51 -11q10 0 17 3t12 11.5l7 12t6 18t4 15.5q-110 282 -187 537h228q31 -152 45 -215q18 -87 22 -97q2 6 5 20l8 38t9 40l51 214h212z" />
    <glyph glyph-name="z" unicode="z" horiz-adv-x="500" 
d="M466 -15h-454v134l80.5 122t90.5 141h-155v165h436v-111l-55 -83l-40 -58l-49.5 -73.5t-44.5 -71.5h191v-165z" />
    <glyph glyph-name="braceleft" unicode="{" horiz-adv-x="371" 
d="M397 -168q-148 0 -220.5 45.5t-72.5 160.5v105q0 59 -19.5 80.5t-72.5 21.5v130l26.5 9.5t26.5 10.5t19 11.5t15.5 19.5t4.5 28v138q0 117 73 162t220 45v-143q-57 0 -77.5 -13t-20.5 -54v-137q0 -96 -80 -134q34 0 57 -47.5t23 -91.5v-138q0 -40 20.5 -52.5t77.5 -12.5
v-144z" />
    <glyph glyph-name="bar" unicode="|" horiz-adv-x="322" 
d="M241 -215h-186v1014h186v-1014z" />
    <glyph glyph-name="braceright" unicode="}" horiz-adv-x="371" 
d="M392 260q-10 -4 -27 -10t-25.5 -10.5t-19 -12t-15 -19.5t-4.5 -30v-140q0 -117 -73 -161.5t-221 -44.5v144q58 0 78.5 12t20.5 53v138q0 100 80 138l-1 1q-79 39 -79 134v103q0 67 -15.5 84t-83.5 17v143q150 0 222 -45t72 -162v-138q0 -64 91 -64v-130z" />
    <glyph glyph-name="asciitilde" unicode="~" horiz-adv-x="568" 
d="M582 376q-15 -64 -56.5 -109.5t-106.5 -46.5q-48 -2 -116.5 34t-97.5 34q-51 -4 -72 -81l-107 94q12 42 30 74.5t52.5 58t79.5 26.5q47 2 115 -34t97 -34q27 2 44 18t30 59z" />
    <glyph glyph-name="uni00A0" unicode="&#xa0;" horiz-adv-x="240" 
 />
    <glyph glyph-name="exclamdown" unicode="&#xa1;" horiz-adv-x="286" 
d="M253 4v-214h-219v214q0 121 27 323h20h123h23q26 -198 26 -323zM266 474q0 -56 -31 -89t-91 -33q-48 0 -86 35t-38 87q0 56 36.5 89t86.5 33t86.5 -33t36.5 -89z" />
    <glyph glyph-name="cent" unicode="&#xa2;" horiz-adv-x="568" 
d="M194 -139v153q-90 31 -134.5 104t-44.5 175q0 93 48 167.5t131 107.5v154h202v-139q37 -8 102 -34l-49 -177q-51 20 -83 26q-17 4 -38 4q-48 0 -74.5 -29t-26.5 -80q0 -109 107 -109q17 0 38 3q48 9 100 31l32 -184q-58 -23 -108 -32v-141h-202z" />
    <glyph glyph-name="sterling" unicode="&#xa3;" horiz-adv-x="568" 
d="M285 459v-35h166v-181h-167l-2 -44q-1 -13 -5 -44h256v-185h-492q26 116 35 230l3 43h-86v181h87v23q0 157 71 223t198 66q78 0 180 -43l-55 -176q-67 33 -112 34q-37 0 -57 -20t-20 -72z" />
    <glyph glyph-name="currency" unicode="&#xa4;" horiz-adv-x="568" 
d="M571 173l-103 -101l-73 72q-48 -24 -103 -24q-57 0 -103 25l-74 -72l-102 100l73 71q-26 47 -26 102t26 102l-73 71l102 101l74 -72q48 24 103 24q56 0 103 -24l74 71l102 -100l-73 -70q25 -47 25 -103t-25 -103zM363 346q0 32 -20.5 53t-50.5 21t-50.5 -21t-20.5 -53
t20.5 -52.5t50.5 -20.5t50.5 20.5t20.5 52.5z" />
    <glyph glyph-name="yen" unicode="&#xa5;" horiz-adv-x="568" 
d="M390 -30h-211v111h-148v149h148v25h-148v149h79q-94 170 -161 319h235l49.5 -115t53.5 -119l48 116l49 118h242q-87 -177 -167 -319h79v-149h-148v-25h148v-149h-148v-111z" />
    <glyph glyph-name="brokenbar" unicode="&#xa6;" horiz-adv-x="302" 
d="M50 -215v457h202v-457h-202zM50 356v457h202v-457h-202z" />
    <glyph glyph-name="section" unicode="&#xa7;" horiz-adv-x="515" 
d="M529 262q0 -80 -83 -146q47 -48 47 -119q0 -82 -60 -129.5t-167 -47.5q-131 0 -221 52l46 136q3 -1 120 -21q18 -2 30 -2q45 0 45 18q0 16 -48 39q-51 28 -82 48t-63.5 50t-47.5 66.5t-15 81.5q0 88 83 153q-36 40 -36 102q0 76 59 125t162 49t198 -45l-49 -147
q-55 24 -91 30q-16 3 -34 3q-42 0 -42 -20q0 -11 9.5 -19.5t35.5 -22.5l15 -12q104 -58 146.5 -102.5t42.5 -119.5zM345 244q0 18 -19.5 38.5t-40 34t-57.5 35.5q-23 -18 -23 -42q0 -8 1 -12q7 -41 116 -97q23 20 23 43z" />
    <glyph glyph-name="dieresis" unicode="&#xa8;" horiz-adv-x="536" 
d="M244 708q0 -48 -31.5 -77t-75.5 -29t-75.5 29t-31.5 77t31.5 77t75.5 29t75.5 -29t31.5 -77zM506 708q0 -48 -31.5 -77t-75.5 -29t-75.5 29t-31.5 77t31.5 77t75.5 29t75.5 -29t31.5 -77z" />
    <glyph glyph-name="copyright" unicode="&#xa9;" horiz-adv-x="968" 
d="M928 345q0 -203 -128.5 -327t-315.5 -124t-315.5 124t-128.5 327t128.5 327.5t315.5 124.5t315.5 -124.5t128.5 -327.5zM786 346q0 84 -26 147t-70.5 98t-96 52t-109.5 17t-109.5 -17t-96 -52t-71 -98t-26.5 -147t26.5 -149t70.5 -102.5t96.5 -56.5t109.5 -19t109 19
t96 56.5t70.5 102.5t26.5 149zM616 247l61 -92q-85 -67 -177 -67q-111 0 -179 72.5t-68 185.5q0 111 69.5 180t177.5 69q94 0 169 -69l-77 -87q-23 23 -43 30t-49 7q-50 0 -75 -36.5t-25 -93.5q0 -55 32.5 -98.5t82.5 -43.5q12 0 21 1t19.5 6t15.5 8l21 13z" />
    <glyph glyph-name="ordfeminine" unicode="&#xaa;" horiz-adv-x="457" 
d="M236 413q16 0 24 1v45h-24q-34 -1 -34 -22q0 -24 34 -24zM227 738q108 0 154 -46.5t46 -136.5v-251q-116 -26 -198 -26q-97 0 -148 36.5t-51 119.5q0 78 62.5 113.5t152.5 35.5h15v7q0 13 -25.5 19.5t-58.5 3.5t-89 -21l-25 119q83 27 165 27z" />
    <glyph glyph-name="guillemotleft" unicode="&#xab;" horiz-adv-x="597" 
d="M583 115l-144 -73l-167 267l167 267l144 -73l-108 -194zM313 115l-144 -73l-167 267l167 267l144 -73l-108 -194z" />
    <glyph glyph-name="logicalnot" unicode="&#xac;" horiz-adv-x="568" 
d="M531 68h-169v187h-309v162h478v-349z" />
    <glyph glyph-name="uni00AD" unicode="&#xad;" horiz-adv-x="354" 
d="M15 230v160h323v-160h-323z" />
    <glyph glyph-name="registered" unicode="&#xae;" horiz-adv-x="975" 
d="M928 345q0 -203 -128.5 -327t-315.5 -124t-315.5 124t-128.5 327t128.5 327.5t315.5 124.5t315.5 -124.5t128.5 -327.5zM786 346q0 84 -26 147t-70.5 98t-96 52t-109.5 17t-109.5 -17t-96 -52t-71 -98t-26.5 -147t26.5 -149t70.5 -102.5t96.5 -56.5t109.5 -19t109 19
t96 56.5t70.5 102.5t26.5 149zM687 125h-154q-61 131 -80 168h-11v-168h-139v435q74 21 149 21q207 0 207 -151q0 -36 -20.5 -66.5t-50.5 -47.5v-1q13 -17 28 -43t24.5 -46l25 -54zM518 426q0 26 -14.5 40.5t-34.5 14.5q-13 0 -27 -2v-112h27q20 0 34.5 16.5t14.5 42.5z" />
    <glyph glyph-name="macron" unicode="&#xaf;" horiz-adv-x="376" 
d="M379 593h-382v162h382v-162z" />
    <glyph glyph-name="degree" unicode="&#xb0;" horiz-adv-x="363" 
d="M371 581q0 -76 -52 -125.5t-126 -49.5t-126 49.5t-52 125.5t52 125.5t126 49.5t126 -49.5t52 -125.5zM238 581q0 20 -13.5 33.5t-31.5 13.5q-19 0 -32.5 -13.5t-13.5 -33.5q0 -19 13.5 -32.5t32.5 -13.5q18 0 31.5 13.5t13.5 32.5z" />
    <glyph glyph-name="plusminus" unicode="&#xb1;" horiz-adv-x="568" 
d="M531 390h-155v-160h-168v160h-155v168h155v160h168v-160h155v-168zM19 0v185h530v-185h-530z" />
    <glyph glyph-name="twosuperior" unicode="&#xb2;" horiz-adv-x="363" 
d="M342 586q0 -34 -15.5 -64.5t-31 -46t-46.5 -41.5q-8 -7 -10 -8l-3 -3h116v-151h-345q-3 33 -3 58q0 55 28 99.5t87 94.5h-1q50 43 50 52q0 3 -5 3q-39 0 -102 -51l-84 128q41 35 92.5 59t98.5 24q174 0 174 -153z" />
    <glyph glyph-name="threesuperior" unicode="&#xb3;" horiz-adv-x="363" 
d="M149 418q33 0 33 7t-11 14t-29 7h-71v104h40q15 0 34.5 13.5t19.5 20.5q0 2 -14 2q-17 0 -80 -24q-4 -2 -12.5 -5.5t-12.5 -5.5l-61 130q39 24 87.5 41t86.5 17q149 0 169 -110q3 -15 3 -32q0 -39 -24 -72q43 -35 43 -101q0 -16 -3 -33q-21 -127 -197 -127q-84 0 -168 41
l37 147q82 -34 130 -34z" />
    <glyph glyph-name="acute" unicode="&#xb4;" horiz-adv-x="349" 
d="M167 597h-157l79 222h251z" />
    <glyph glyph-name="mu" unicode="&#xb5;" horiz-adv-x="594" 
d="M563 13q-97 -38 -215 -38q-48 0 -89 12q1 -32 1 -102v-90h-217v752h217v-321v-18.5v-17.5t0.5 -15t2.5 -14.5t5.5 -11t8.5 -9.5t13 -5t18 -2q20 0 39 4v410h216v-534z" />
    <glyph glyph-name="paragraph" unicode="&#xb6;" horiz-adv-x="710" 
d="M268 704q107 5 199 5h126v-924h-163v786l-52 1v-787h-164v465q-201 37 -201 223q0 106 68.5 164t186.5 67z" />
    <glyph glyph-name="periodcentered" unicode="&#xb7;" horiz-adv-x="246" 
d="M261 310q0 -54 -36 -87.5t-86 -33.5t-85.5 33.5t-35.5 86.5q0 54 35.5 88t85.5 34t86 -34t36 -87z" />
    <glyph glyph-name="cedilla" unicode="&#xb8;" horiz-adv-x="326" 
d="M253 -28q48 -36 48 -95q0 -62 -45 -95t-123 -33q-47 0 -123 21l31 147l55 -15q22 -4 28 -4l-27 6.5t-29 7.5q23 74 60 138h165q-21 -38 -40 -78z" />
    <glyph glyph-name="onesuperior" unicode="&#xb9;" horiz-adv-x="363" 
d="M61 492l-43 131q86 40 170 108h127v-459h-174v251q-19 -8 -80 -31z" />
    <glyph glyph-name="ordmasculine" unicode="&#xba;" horiz-adv-x="549" 
d="M514 503q0 -112 -66.5 -178t-172.5 -66q-107 0 -173.5 66t-66.5 178q0 114 66.5 180.5t173.5 66.5t173 -66.5t66 -180.5zM326 503q0 34 -13.5 53.5t-37.5 19.5t-38 -19.5t-14 -53.5q0 -32 14 -51t38 -19t37.5 19t13.5 51z" />
    <glyph glyph-name="guillemotright" unicode="&#xbb;" horiz-adv-x="597" 
d="M596 309l-168 -267l-144 73l108 194l-108 194l144 73zM326 309l-168 -267l-144 73l108 194l-108 194l144 73z" />
    <glyph glyph-name="onequarter" unicode="&#xbc;" horiz-adv-x="954" 
d="M878 170h46v-113h-46v-86h-154v86h-187v113q75 130 199 261h142v-261zM182 -30l428 753h205l-426 -753h-207zM646 170h81v110q-45 -51 -81 -110zM73 492l-43 131q86 40 170 108h127v-459h-174v251q-19 -8 -80 -31z" />
    <glyph glyph-name="onehalf" unicode="&#xbd;" horiz-adv-x="1025" 
d="M61 492l-43 131q86 40 170 108h127v-459h-174v251q-19 -8 -80 -31zM195 -30l388 753h205l-386 -753h-207zM995 286q0 -34 -15.5 -64.5t-31 -46t-46.5 -41.5q-8 -6 -9.5 -7.5l-3.5 -3.5h116v-151h-345q-3 33 -3 58q0 55 28 99.5t87 94.5h-1q50 43 50 52q0 3 -5 3
q-39 0 -102 -51l-84 128q41 35 92.5 59t98.5 24q174 0 174 -153z" />
    <glyph glyph-name="threequarters" unicode="&#xbe;" horiz-adv-x="996" 
d="M205 -30l438 753h205l-436 -753h-207zM189 587q-8 15 -50 -6q-2 -1 -22.5 -15t-22.5 -15l-61 130q39 24 87.5 41t86.5 17q152 0 170 -114q2 -18 2 -28q0 -39 -24 -72q43 -35 43 -101q0 -11 -2 -29q-19 -131 -198 -131q-37 0 -85 12t-83 29l37 147q82 -34 130 -34
q33 0 33 7q0 11 -76 11h-11h-24v104q32 0 53 14q25 17 17 33zM920 170h46v-113h-46v-86h-154v86h-187v113q75 130 199 261h142v-261zM688 170h81v110q-45 -51 -81 -110z" />
    <glyph glyph-name="questiondown" unicode="&#xbf;" horiz-adv-x="455" 
d="M211 -12q0 -12 11.5 -20t31.5 -8q56 0 155 51l63 -168q-111 -70 -233 -70q-69 0 -119.5 19t-76 51.5t-37 66t-11.5 69.5q0 42 17 78.5t41.5 63t49 49.5t41.5 47.5t17 47.5q0 16 -5 56h47h102h41q9 -39 9 -74q0 -48 -22.5 -91t-49.5 -68t-49.5 -52.5t-22.5 -47.5zM377 483
q0 -61 -34.5 -96.5t-88.5 -35.5t-88.5 35.5t-34.5 96.5q0 56 36.5 89t86.5 33t86.5 -33t36.5 -89z" />
    <glyph glyph-name="Agrave" unicode="&#xc0;" horiz-adv-x="721" 
d="M726 -15h-239q-23 91 -31 119h-202q-4 -14 -17 -56t-19 -63h-215q145 437 256 720h210q122 -316 257 -720zM413 261l-42 149q-12 48 -16 60q-7 -21 -17 -61q-9 -35 -42 -148h117zM416 769h-157l-173 222h251z" />
    <glyph glyph-name="Aacute" unicode="&#xc1;" horiz-adv-x="721" 
d="M726 -15h-239q-23 91 -31 119h-202q-4 -14 -17 -56t-19 -63h-215q145 437 256 720h210q122 -316 257 -720zM413 261l-42 149q-12 48 -16 60q-7 -21 -17 -61q-9 -35 -42 -148h117zM410 787h-157l79 222h251z" />
    <glyph glyph-name="Acircumflex" unicode="&#xc2;" horiz-adv-x="721" 
d="M726 -15h-239q-23 91 -31 119h-202q-4 -14 -17 -56t-19 -63h-215q145 437 256 720h210q122 -316 257 -720zM413 261l-42 149q-12 48 -16 60q-7 -21 -17 -61q-9 -35 -42 -148h117zM331 843l-105 -81l-95 110l200 174l196 -174l-91 -110z" />
    <glyph glyph-name="Atilde" unicode="&#xc3;" horiz-adv-x="721" 
d="M726 -15h-239q-23 91 -31 119h-202q-4 -14 -17 -56t-19 -63h-215q145 437 256 720h210q122 -316 257 -720zM413 261l-42 149q-12 48 -16 60q-7 -21 -17 -61q-9 -35 -42 -148h117zM415 782q-26 0 -66.5 17.5t-58.5 17.5q-15 0 -42 -57l-122 80q21 55 61.5 99.5t93.5 44.5
q26 0 66 -17.5t59 -17.5q15 0 42 57l127 -83q-50 -82 -88 -112q-36 -29 -72 -29z" />
    <glyph glyph-name="Adieresis" unicode="&#xc4;" horiz-adv-x="721" 
d="M726 -15h-239q-23 91 -31 119h-202q-4 -14 -17 -56t-19 -63h-215q145 437 256 720h210q122 -316 257 -720zM413 261l-42 149q-12 48 -16 60q-7 -21 -17 -61q-9 -35 -42 -148h117zM305 898q0 -48 -31.5 -77t-75.5 -29t-75.5 29t-31.5 77t31.5 77t75.5 29t75.5 -29
t31.5 -77zM567 898q0 -48 -31.5 -77t-75.5 -29t-75.5 29t-31.5 77t31.5 77t75.5 29t75.5 -29t31.5 -77z" />
    <glyph glyph-name="Aring" unicode="&#xc5;" horiz-adv-x="721" 
d="M726 -15h-239q-23 91 -31 119h-202q-4 -14 -17 -56t-19 -63h-215q145 437 256 720h210q122 -316 257 -720zM413 261l-42 149q-12 48 -16 60q-7 -21 -17 -61q-9 -35 -42 -148h117zM480 902q0 -68 -43 -106.5t-106 -38.5q-61 0 -104 38.5t-43 106.5t43 106.5t104 38.5
q63 0 106 -38.5t43 -106.5zM347 902q0 17 -16 17q-15 0 -15 -17t15 -17q16 0 16 17z" />
    <glyph glyph-name="AE" unicode="&#xc6;" horiz-adv-x="994" 
d="M989 -30h-529v164h-172q-75 -137 -88 -164h-241q271 486 462 753h545v-191h-295v-76h260v-188h-260v-107h318v-191zM460 318v122l-57 -94l-18 -28h75z" />
    <glyph glyph-name="Ccedilla" unicode="&#xc7;" horiz-adv-x="648" 
d="M506 -123q0 -31 -12 -55q-36 -73 -156 -73q-47 0 -123 21l31 147q61 -19 83 -19q-2 0 -6.5 1t-6.5 2q-7 2 -21.5 5.5t-21.5 5.5q5 19 18 55q-133 27 -202 124t-69 256q0 182 107.5 287t276.5 105q131 0 250 -70l-65 -181q-97 53 -187 53q-68 0 -114 -47t-46 -144
q0 -90 40.5 -143t127.5 -53q84 0 192 50l62 -180q-86 -52 -191 -63q33 -33 33 -84z" />
    <glyph glyph-name="Egrave" unicode="&#xc8;" horiz-adv-x="606" 
d="M519 -15h-468v720h456v-173h-231v-98h202v-171h-202v-105h243v-173zM360 769h-157l-173 222h251z" />
    <glyph glyph-name="Eacute" unicode="&#xc9;" horiz-adv-x="606" 
d="M519 -15h-468v720h456v-173h-231v-98h202v-171h-202v-105h243v-173zM354 787h-157l79 222h251z" />
    <glyph glyph-name="Ecircumflex" unicode="&#xca;" horiz-adv-x="606" 
d="M519 -15h-468v720h456v-173h-231v-98h202v-171h-202v-105h243v-173zM275 843l-105 -81l-95 110l200 174l196 -174l-91 -110z" />
    <glyph glyph-name="Edieresis" unicode="&#xcb;" horiz-adv-x="606" 
d="M519 -15h-468v720h456v-173h-231v-98h202v-171h-202v-105h243v-173zM249 898q0 -48 -31.5 -77t-75.5 -29t-75.5 29t-31.5 77t31.5 77t75.5 29t75.5 -29t31.5 -77zM511 898q0 -48 -31.5 -77t-75.5 -29t-75.5 29t-31.5 77t31.5 77t75.5 29t75.5 -29t31.5 -77z" />
    <glyph glyph-name="Igrave" unicode="&#xcc;" horiz-adv-x="316" 
d="M276 -15h-225v720h225v-720zM247 769h-157l-173 222h251z" />
    <glyph glyph-name="Iacute" unicode="&#xcd;" horiz-adv-x="316" 
d="M276 -15h-225v720h225v-720zM241 787h-157l79 222h251z" />
    <glyph glyph-name="Icircumflex" unicode="&#xce;" horiz-adv-x="316" 
d="M276 -15h-225v720h225v-720zM162 843l-105 -81l-95 110l200 174l196 -174l-91 -110z" />
    <glyph glyph-name="Idieresis" unicode="&#xcf;" horiz-adv-x="316" 
d="M276 -15h-225v720h225v-720zM136 898q0 -48 -31.5 -77t-75.5 -29t-75.5 29t-31.5 77t31.5 77t75.5 29t75.5 -29t31.5 -77zM398 898q0 -48 -31.5 -77t-75.5 -29t-75.5 29t-31.5 77t31.5 77t75.5 29t75.5 -29t31.5 -77z" />
    <glyph glyph-name="Eth" unicode="&#xd0;" horiz-adv-x="748" 
d="M728 347q0 -191 -113.5 -288.5t-315.5 -97.5q-123 0 -238 24v287h-81v175h81v262q120 22 243 22q200 0 312 -93.5t112 -290.5zM277 272v-117h30q100 0 150 50t50 142q0 191 -195 191h-35v-91h126v-175h-126z" />
    <glyph glyph-name="Ntilde" unicode="&#xd1;" horiz-adv-x="756" 
d="M656 -15h-137l-41 8q-102 173 -186 297q-6 8 -15 24.5t-15.5 26.5t-8.5 10q0 -5 1 -30.5t1 -42.5v-293h-204v720h180q87 -108 183 -250q8 -11 21.5 -33.5t17.5 -27.5q0 10 -1 44t-1 55v212h205v-720zM442 744q-26 0 -66.5 17.5t-58.5 17.5q-15 0 -42 -57l-122 80
q21 55 61.5 99.5t93.5 44.5q26 0 66 -17.5t59 -17.5q15 0 42 57l127 -83q-50 -82 -88 -112q-36 -29 -72 -29z" />
    <glyph glyph-name="Ograve" unicode="&#xd2;" horiz-adv-x="724" 
d="M694 345q0 -170 -88.5 -271t-243.5 -101q-154 0 -243 101t-89 271q0 169 90 271t242 102q153 0 242.5 -101.5t89.5 -271.5zM465 350q0 85 -26 139.5t-77 54.5t-77 -54.5t-26 -139.5q0 -86 26 -140t77 -54t77 54t26 140zM444 779h-157l-173 222h251z" />
    <glyph glyph-name="Oacute" unicode="&#xd3;" horiz-adv-x="724" 
d="M694 345q0 -170 -88.5 -271t-243.5 -101q-154 0 -243 101t-89 271q0 169 90 271t242 102q153 0 242.5 -101.5t89.5 -271.5zM465 350q0 85 -26 139.5t-77 54.5t-77 -54.5t-26 -139.5q0 -86 26 -140t77 -54t77 54t26 140zM438 797h-157l79 222h251z" />
    <glyph glyph-name="Ocircumflex" unicode="&#xd4;" horiz-adv-x="724" 
d="M694 345q0 -170 -88.5 -271t-243.5 -101q-154 0 -243 101t-89 271q0 169 90 271t242 102q153 0 242.5 -101.5t89.5 -271.5zM465 350q0 85 -26 139.5t-77 54.5t-77 -54.5t-26 -139.5q0 -86 26 -140t77 -54t77 54t26 140zM359 853l-105 -81l-95 110l200 174l196 -174
l-91 -110z" />
    <glyph glyph-name="Otilde" unicode="&#xd5;" horiz-adv-x="724" 
d="M694 345q0 -170 -88.5 -271t-243.5 -101q-154 0 -243 101t-89 271q0 169 90 271t242 102q153 0 242.5 -101.5t89.5 -271.5zM465 350q0 85 -26 139.5t-77 54.5t-77 -54.5t-26 -139.5q0 -86 26 -140t77 -54t77 54t26 140zM416 792q-26 0 -66.5 17.5t-58.5 17.5
q-15 0 -42 -57l-122 80q21 55 61.5 99.5t93.5 44.5q26 0 66 -17.5t59 -17.5q15 0 42 57l127 -83q-50 -82 -88 -112q-36 -29 -72 -29z" />
    <glyph glyph-name="Odieresis" unicode="&#xd6;" horiz-adv-x="724" 
d="M694 345q0 -170 -88.5 -271t-243.5 -101q-154 0 -243 101t-89 271q0 169 90 271t242 102q153 0 242.5 -101.5t89.5 -271.5zM465 350q0 85 -26 139.5t-77 54.5t-77 -54.5t-26 -139.5q0 -86 26 -140t77 -54t77 54t26 140zM333 908q0 -48 -31.5 -77t-75.5 -29t-75.5 29
t-31.5 77t31.5 77t75.5 29t75.5 -29t31.5 -77zM595 908q0 -48 -31.5 -77t-75.5 -29t-75.5 29t-31.5 77t31.5 77t75.5 29t75.5 -29t31.5 -77z" />
    <glyph glyph-name="multiply" unicode="&#xd7;" horiz-adv-x="568" 
d="M20 435l129 129l135 -136l136 136l129 -129l-136 -136l136 -135l-129 -129l-136 136l-135 -136l-129 129l136 135z" />
    <glyph glyph-name="Oslash" unicode="&#xd8;" horiz-adv-x="790" 
d="M770 347q0 -187 -104.5 -289t-270.5 -102q-101 0 -172 35l-60 -78l-133 99l65 83q-75 94 -75 252q0 124 52.5 214.5t136.5 134t186 43.5q89 0 169 -36l59 77l133 -99l-63 -81q77 -101 77 -253zM241 347q0 -27 5 -57l190 248q-13 4 -41 4q-72 0 -113 -53.5t-41 -141.5z
M549 347q0 29 -5 59l-193 -248q22 -5 44 -5q72 0 113 52.5t41 141.5z" />
    <glyph glyph-name="Ugrave" unicode="&#xd9;" horiz-adv-x="707" 
d="M624 236q0 -123 -77 -193.5t-213 -70.5q-119 0 -194.5 56t-87.5 157q-6 47 -6 98v422h225v-385q0 -98 11 -130.5t57 -32.5q68 0 68 87v77v384h217v-469zM423 769h-157l-173 222h251z" />
    <glyph glyph-name="Uacute" unicode="&#xda;" horiz-adv-x="707" 
d="M624 236q0 -123 -77 -193.5t-213 -70.5q-119 0 -194.5 56t-87.5 157q-6 47 -6 98v422h225v-385q0 -98 11 -130.5t57 -32.5q68 0 68 87v77v384h217v-469zM417 787h-157l79 222h251z" />
    <glyph glyph-name="Ucircumflex" unicode="&#xdb;" horiz-adv-x="707" 
d="M624 236q0 -123 -77 -193.5t-213 -70.5q-119 0 -194.5 56t-87.5 157q-6 47 -6 98v422h225v-385q0 -98 11 -130.5t57 -32.5q68 0 68 87v77v384h217v-469zM338 843l-105 -81l-95 110l200 174l196 -174l-91 -110z" />
    <glyph glyph-name="Udieresis" unicode="&#xdc;" horiz-adv-x="707" 
d="M624 236q0 -123 -77 -193.5t-213 -70.5q-119 0 -194.5 56t-87.5 157q-6 47 -6 98v422h225v-385q0 -98 11 -130.5t57 -32.5q68 0 68 87v77v384h217v-469zM312 898q0 -48 -31.5 -77t-75.5 -29t-75.5 29t-31.5 77t31.5 77t75.5 29t75.5 -29t31.5 -77zM574 898
q0 -48 -31.5 -77t-75.5 -29t-75.5 29t-31.5 77t31.5 77t75.5 29t75.5 -29t31.5 -77z" />
    <glyph glyph-name="Yacute" unicode="&#xdd;" horiz-adv-x="661" 
d="M640 705q-100 -211 -223 -440v-280h-224v279q-112 209 -222 441h245q47 -125 96 -232q61 135 98 232h230zM393 787h-157l79 222h251z" />
    <glyph glyph-name="Thorn" unicode="&#xde;" horiz-adv-x="644" 
d="M266 723v-97h42q155 0 243 -63t88 -199q0 -138 -89.5 -202t-264.5 -64h-19v-128h-216v753h216zM298 434q-22 0 -32 -1v-142h19q69 0 101 16.5t32 57.5q0 38 -30 53.5t-90 15.5z" />
    <glyph glyph-name="germandbls" unicode="&#xdf;" horiz-adv-x="659" 
d="M558 610q0 -47 -10 -77t-34 -58v1l-14 -17t-14.5 -18l-10.5 -14.5t-8.5 -15.5t-2.5 -14q0 -12 17.5 -24.5t56.5 -33.5q28 -19 43.5 -31t34 -33t27 -48t8.5 -61q0 -103 -57.5 -155.5t-183.5 -52.5q-21 0 -40 2.5t-37.5 8t-29 9.5t-28.5 12t-23 10l10 50l26 127
q63 -28 78 -31q24 -6 41 -6q37 0 37 24t-78 59q-64 29 -85 66.5t-21 88.5q0 32 11 60t23 44.5t37 44.5v-1q28 34 28 61q0 35 -48 35q-65 0 -65 -86v-566h-206v563q0 30 5 65q16 97 82 152.5t180 55.5q125 0 188 -55.5t63 -140.5z" />
    <glyph glyph-name="agrave" unicode="&#xe0;" horiz-adv-x="553" 
d="M526 11q-108 -36 -250 -36q-262 0 -262 191q0 179 277 192q19 0 27 -1q-7 43 -70 43q-74 0 -158 -32l-37 153q109 38 226 38q208 0 241 -161q6 -33 6 -71v-316zM320 125v103q-21 0 -30 -1q-68 -5 -68 -54q0 -50 63 -50q28 0 35 2zM369 604h-157l-173 222h251z" />
    <glyph glyph-name="aacute" unicode="&#xe1;" horiz-adv-x="553" 
d="M526 11q-108 -36 -250 -36q-262 0 -262 191q0 179 277 192q19 0 27 -1q-7 43 -70 43q-74 0 -158 -32l-37 153q109 38 226 38q208 0 241 -161q6 -33 6 -71v-316zM320 125v103q-21 0 -30 -1q-68 -5 -68 -54q0 -50 63 -50q28 0 35 2zM321 624h-157l79 222h251z" />
    <glyph glyph-name="acircumflex" unicode="&#xe2;" horiz-adv-x="553" 
d="M526 11q-108 -36 -250 -36q-262 0 -262 191q0 179 277 192q19 0 27 -1q-7 43 -70 43q-74 0 -158 -32l-37 153q109 38 226 38q208 0 241 -161q6 -33 6 -71v-316zM320 125v103q-21 0 -30 -1q-68 -5 -68 -54q0 -50 63 -50q28 0 35 2zM284 678l-105 -81l-95 110l200 174
l196 -174l-91 -110z" />
    <glyph glyph-name="atilde" unicode="&#xe3;" horiz-adv-x="553" 
d="M526 11q-108 -36 -250 -36q-262 0 -262 191q0 179 277 192q19 0 27 -1q-7 43 -70 43q-74 0 -158 -32l-37 153q109 38 226 38q208 0 241 -161q6 -33 6 -71v-316zM320 125v103q-21 0 -30 -1q-68 -5 -68 -54q0 -50 63 -50q28 0 35 2zM341 617q-26 0 -66.5 17.5t-58.5 17.5
q-15 0 -42 -57l-122 80q21 55 61.5 99.5t93.5 44.5q26 0 66 -17.5t59 -17.5q15 0 42 57l127 -83q-50 -82 -88 -112q-36 -29 -72 -29z" />
    <glyph glyph-name="adieresis" unicode="&#xe4;" horiz-adv-x="553" 
d="M526 11q-108 -36 -250 -36q-262 0 -262 191q0 179 277 192q19 0 27 -1q-7 43 -70 43q-74 0 -158 -32l-37 153q109 38 226 38q208 0 241 -161q6 -33 6 -71v-316zM320 125v103q-21 0 -30 -1q-68 -5 -68 -54q0 -50 63 -50q28 0 35 2zM258 733q0 -48 -31.5 -77t-75.5 -29
t-75.5 29t-31.5 77t31.5 77t75.5 29t75.5 -29t31.5 -77zM520 733q0 -48 -31.5 -77t-75.5 -29t-75.5 29t-31.5 77t31.5 77t75.5 29t75.5 -29t31.5 -77z" />
    <glyph glyph-name="aring" unicode="&#xe5;" horiz-adv-x="553" 
d="M526 11q-108 -36 -250 -36q-262 0 -262 191q0 179 277 192q19 0 27 -1q-7 43 -70 43q-74 0 -158 -32l-37 153q109 38 226 38q208 0 241 -161q6 -33 6 -71v-316zM320 125v103q-21 0 -30 -1q-68 -5 -68 -54q0 -50 63 -50q28 0 35 2zM433 737q0 -68 -43 -106.5t-106 -38.5
q-61 0 -104 38.5t-43 106.5t43 106.5t104 38.5q63 0 106 -38.5t43 -106.5zM300 737q0 17 -16 17q-15 0 -15 -17t15 -17q16 0 16 17z" />
    <glyph glyph-name="ae" unicode="&#xe6;" horiz-adv-x="874" 
d="M526 346h121q-14 41 -59 41q-42 0 -62 -41zM261 -41q-256 0 -256 203q0 70 37 115.5t91 62.5t124 17q31 0 55 -3q-13 32 -70 32q-78 0 -164 -31l-28 181q107 34 209 34q112 0 168 -57q69 57 167 57q28 0 58 -5q98 -18 152.5 -93.5t54.5 -201.5q0 -13 -1.5 -43t-1.5 -43
h-326q30 -40 103 -40q84 0 169 39l29 -181q-59 -29 -157 -42q-28 -4 -61 -4q-105 0 -179 42q-75 -39 -173 -39zM319 196q-15 1 -34 1q-72 0 -72 -31q0 -32 58 -32q38 0 61 4q-10 31 -13 58z" />
    <glyph glyph-name="ccedilla" unicode="&#xe7;" horiz-adv-x="500" 
d="M380 -40q34 -33 34 -83q0 -24 -8 -46q-30 -82 -160 -82q-47 0 -123 21l31 147q61 -19 83 -19q-2 0 -6.5 1t-6.5 2q-7 2 -20.5 5.5t-20.5 4.5q8 41 18 62q-93 30 -139.5 106.5t-46.5 183.5q0 131 81.5 219t219.5 88q86 0 180 -41l-46 -177q-79 30 -122 30q-50 0 -75.5 -32
t-25.5 -87q0 -59 25 -89t82 -30q59 0 138 34l32 -184q-70 -26 -124 -34z" />
    <glyph glyph-name="egrave" unicode="&#xe8;" horiz-adv-x="584" 
d="M558 210l-317 -21q25 -47 100 -47q87 0 158 33l38 -158q-92 -44 -221 -44q-144 0 -219 82t-75 210q0 134 76.5 214t199.5 80q117 0 184 -66t75 -188q0 -10 1 -43t0 -52zM351 331q-6 73 -57 73q-60 0 -62 -82zM373 609h-157l-173 222h251z" />
    <glyph glyph-name="eacute" unicode="&#xe9;" horiz-adv-x="584" 
d="M558 210l-317 -21q25 -47 100 -47q87 0 158 33l38 -158q-92 -44 -221 -44q-144 0 -219 82t-75 210q0 134 76.5 214t199.5 80q117 0 184 -66t75 -188q0 -10 1 -43t0 -52zM351 331q-6 73 -57 73q-60 0 -62 -82zM367 627h-157l79 222h251z" />
    <glyph glyph-name="ecircumflex" unicode="&#xea;" horiz-adv-x="584" 
d="M558 210l-317 -21q25 -47 100 -47q87 0 158 33l38 -158q-92 -44 -221 -44q-144 0 -219 82t-75 210q0 134 76.5 214t199.5 80q117 0 184 -66t75 -188q0 -10 1 -43t0 -52zM351 331q-6 73 -57 73q-60 0 -62 -82zM288 683l-105 -81l-95 110l200 174l196 -174l-91 -110z" />
    <glyph glyph-name="edieresis" unicode="&#xeb;" horiz-adv-x="584" 
d="M558 210l-317 -21q25 -47 100 -47q87 0 158 33l38 -158q-92 -44 -221 -44q-144 0 -219 82t-75 210q0 134 76.5 214t199.5 80q117 0 184 -66t75 -188q0 -10 1 -43t0 -52zM351 331q-6 73 -57 73q-60 0 -62 -82zM262 738q0 -48 -31.5 -77t-75.5 -29t-75.5 29t-31.5 77
t31.5 77t75.5 29t75.5 -29t31.5 -77zM524 738q0 -48 -31.5 -77t-75.5 -29t-75.5 29t-31.5 77t31.5 77t75.5 29t75.5 -29t31.5 -77z" />
    <glyph glyph-name="igrave" unicode="&#xec;" horiz-adv-x="289" 
d="M249 556v-586h-209v586h209zM230 609h-157l-173 222h251z" />
    <glyph glyph-name="iacute" unicode="&#xed;" horiz-adv-x="289" 
d="M249 556v-586h-209v586h209zM224 627h-157l79 222h251z" />
    <glyph glyph-name="icircumflex" unicode="&#xee;" horiz-adv-x="289" 
d="M249 556v-586h-209v586h209zM145 683l-105 -81l-95 110l200 174l196 -174l-91 -110z" />
    <glyph glyph-name="idieresis" unicode="&#xef;" horiz-adv-x="289" 
d="M249 556v-586h-209v586h209zM119 738q0 -48 -31.5 -77t-75.5 -29t-75.5 29t-31.5 77t31.5 77t75.5 29t75.5 -29t31.5 -77zM381 738q0 -48 -31.5 -77t-75.5 -29t-75.5 29t-31.5 77t31.5 77t75.5 29t75.5 -29t31.5 -77z" />
    <glyph glyph-name="eth" unicode="&#xf0;" horiz-adv-x="601" 
d="M15 234q0 133 77.5 205t212.5 72q11 0 46 -7q-2 6 -6.5 18t-7.5 18l-86 -14l-56 99l42 20q-14 11 -63 45l123 128q83 -46 140 -105l126 42l47 -140l-84 -29q62 -122 62 -262q0 -170 -73 -269t-219 -99q-135 0 -208 79t-73 199zM376 313q-27 19 -71 19q-80 0 -80 -96
q0 -91 71 -91q70 0 79 125q1 14 1 43z" />
    <glyph glyph-name="ntilde" unicode="&#xf1;" 
d="M563 -15h-216v270v17q0 31 -0.5 45.5t-3 33.5t-8 26t-16 13t-26.5 6q-20 0 -33 -2v-409h-217v523q79 50 254 50q85 0 139 -17.5t81 -56t36.5 -83.5t9.5 -115v-301zM359 612q-26 0 -66.5 17.5t-58.5 17.5q-15 0 -42 -57l-122 80q21 55 61.5 99.5t93.5 44.5q26 0 66 -17.5
t59 -17.5q15 0 42 57l127 -83q-50 -82 -88 -112q-36 -29 -72 -29z" />
    <glyph glyph-name="ograve" unicode="&#xf2;" horiz-adv-x="607" 
d="M576 267q0 -132 -75 -213t-202 -81q-126 0 -201.5 81.5t-75.5 212.5q0 129 77 210.5t200 81.5q125 0 201 -81t76 -211zM359 269q0 127 -60 127t-60 -127t60 -127t60 127zM384 609h-157l-173 222h251z" />
    <glyph glyph-name="oacute" unicode="&#xf3;" horiz-adv-x="607" 
d="M576 267q0 -132 -75 -213t-202 -81q-126 0 -201.5 81.5t-75.5 212.5q0 129 77 210.5t200 81.5q125 0 201 -81t76 -211zM359 269q0 127 -60 127t-60 -127t60 -127t60 127zM378 627h-157l79 222h251z" />
    <glyph glyph-name="ocircumflex" unicode="&#xf4;" horiz-adv-x="607" 
d="M576 267q0 -132 -75 -213t-202 -81q-126 0 -201.5 81.5t-75.5 212.5q0 129 77 210.5t200 81.5q125 0 201 -81t76 -211zM359 269q0 127 -60 127t-60 -127t60 -127t60 127zM299 683l-105 -81l-95 110l200 174l196 -174l-91 -110z" />
    <glyph glyph-name="otilde" unicode="&#xf5;" horiz-adv-x="607" 
d="M576 267q0 -132 -75 -213t-202 -81q-126 0 -201.5 81.5t-75.5 212.5q0 129 77 210.5t200 81.5q125 0 201 -81t76 -211zM359 269q0 127 -60 127t-60 -127t60 -127t60 127zM356 622q-26 0 -66.5 17.5t-58.5 17.5q-15 0 -42 -57l-122 80q21 55 61.5 99.5t93.5 44.5
q26 0 66 -17.5t59 -17.5q15 0 42 57l127 -83q-50 -82 -88 -112q-36 -29 -72 -29z" />
    <glyph glyph-name="odieresis" unicode="&#xf6;" horiz-adv-x="607" 
d="M576 267q0 -132 -75 -213t-202 -81q-126 0 -201.5 81.5t-75.5 212.5q0 129 77 210.5t200 81.5q125 0 201 -81t76 -211zM359 269q0 127 -60 127t-60 -127t60 -127t60 127zM273 738q0 -48 -31.5 -77t-75.5 -29t-75.5 29t-31.5 77t31.5 77t75.5 29t75.5 -29t31.5 -77z
M535 738q0 -48 -31.5 -77t-75.5 -29t-75.5 29t-31.5 77t31.5 77t75.5 29t75.5 -29t31.5 -77z" />
    <glyph glyph-name="divide" unicode="&#xf7;" horiz-adv-x="568" 
d="M406 556q0 -54 -36 -87.5t-86 -33.5t-85.5 33.5t-35.5 86.5q0 54 35.5 88t85.5 34t86 -34t36 -87zM406 101q0 -54 -36 -87.5t-86 -33.5t-85.5 33.5t-35.5 86.5q0 54 35.5 88t85.5 34t86 -34t36 -87zM549 236h-531v177h531v-177z" />
    <glyph glyph-name="oslash" unicode="&#xf8;" horiz-adv-x="607" 
d="M592 264q0 -139 -78.5 -223.5t-209.5 -84.5q-71 0 -126 26l-47 -63l-118 89l54 69q-52 76 -52 187q0 136 81.5 221t207.5 85q69 0 123 -24l48 62l118 -89l-53 -69q52 -74 52 -186zM219 275l18 23l70 92q-14 0 -31 -5q-54 -22 -57 -110zM388 252l-18 -23l-72 -93
q22 0 34 5q53 22 56 111z" />
    <glyph glyph-name="ugrave" unicode="&#xf9;" 
d="M558 25q-67 -51 -257 -51q-136 0 -198 59t-62 178v336h216v-269v-25.5v-24.5v-21t1.5 -19.5t4 -15.5t6 -13.5t9 -9t12.5 -6.5t17 -2q19 0 35 3v403h216v-522zM387 609h-157l-173 222h251z" />
    <glyph glyph-name="uacute" unicode="&#xfa;" 
d="M558 25q-67 -51 -257 -51q-136 0 -198 59t-62 178v336h216v-269v-25.5v-24.5v-21t1.5 -19.5t4 -15.5t6 -13.5t9 -9t12.5 -6.5t17 -2q19 0 35 3v403h216v-522zM381 627h-157l79 222h251z" />
    <glyph glyph-name="ucircumflex" unicode="&#xfb;" 
d="M558 25q-67 -51 -257 -51q-136 0 -198 59t-62 178v336h216v-269v-25.5v-24.5v-21t1.5 -19.5t4 -15.5t6 -13.5t9 -9t12.5 -6.5t17 -2q19 0 35 3v403h216v-522zM302 683l-105 -81l-95 110l200 174l196 -174l-91 -110z" />
    <glyph glyph-name="udieresis" unicode="&#xfc;" 
d="M558 25q-67 -51 -257 -51q-136 0 -198 59t-62 178v336h216v-269v-25.5v-24.5v-21t1.5 -19.5t4 -15.5t6 -13.5t9 -9t12.5 -6.5t17 -2q19 0 35 3v403h216v-522zM276 738q0 -48 -31.5 -77t-75.5 -29t-75.5 29t-31.5 77t31.5 77t75.5 29t75.5 -29t31.5 -77zM538 738
q0 -48 -31.5 -77t-75.5 -29t-75.5 29t-31.5 77t31.5 77t75.5 29t75.5 -29t31.5 -77z" />
    <glyph glyph-name="yacute" unicode="&#xfd;" horiz-adv-x="591" 
d="M585 547q-97 -328 -224 -669q-25 -54 -62 -73.5t-106 -19.5q-43 0 -142 30l44 146q32 -11 51 -11q10 0 17 3t12 11.5l7 12t6 18t4 15.5q-110 282 -187 537h228q31 -152 45 -215q18 -87 22 -97q2 6 5 20l8 38t9 40l51 214h212zM377 627h-157l79 222h251z" />
    <glyph glyph-name="thorn" unicode="&#xfe;" horiz-adv-x="604" 
d="M40 778l209 34v-247q24 3 45 3q136 0 215.5 -82.5t79.5 -222.5q0 -138 -68 -220.5t-192 -82.5q-46 0 -80 10v-185h-209v993zM249 379v-224q21 -9 52 -9q76 0 76 113q0 56 -23 89t-65 33q-29 0 -40 -2z" />
    <glyph glyph-name="ydieresis" unicode="&#xff;" horiz-adv-x="591" 
d="M585 547q-97 -328 -224 -669q-25 -54 -62 -73.5t-106 -19.5q-43 0 -142 30l44 146q32 -11 51 -11q10 0 17 3t12 11.5l7 12t6 18t4 15.5q-110 282 -187 537h228q31 -152 45 -215q18 -87 22 -97q2 6 5 20l8 38t9 40l51 214h212zM272 738q0 -48 -31.5 -77t-75.5 -29
t-75.5 29t-31.5 77t31.5 77t75.5 29t75.5 -29t31.5 -77zM534 738q0 -48 -31.5 -77t-75.5 -29t-75.5 29t-31.5 77t31.5 77t75.5 29t75.5 -29t31.5 -77z" />
    <glyph glyph-name="Amacron" unicode="&#x100;" horiz-adv-x="721" 
d="M726 -15h-239q-23 91 -31 119h-202q-4 -14 -17 -56t-19 -63h-215q145 437 256 720h210q122 -316 257 -720zM413 261l-42 149q-12 48 -16 60q-7 -21 -17 -61q-9 -35 -42 -148h117zM526 783h-382v162h382v-162z" />
    <glyph glyph-name="amacron" unicode="&#x101;" horiz-adv-x="553" 
d="M526 11q-108 -36 -250 -36q-262 0 -262 191q0 179 277 192q19 0 27 -1q-7 43 -70 43q-74 0 -158 -32l-37 153q109 38 226 38q208 0 241 -161q6 -33 6 -71v-316zM320 125v103q-21 0 -30 -1q-68 -5 -68 -54q0 -50 63 -50q28 0 35 2zM479 618h-382v162h382v-162z" />
    <glyph glyph-name="Abreve" unicode="&#x102;" horiz-adv-x="721" 
d="M726 -15h-239q-23 91 -31 119h-202q-4 -14 -17 -56t-19 -63h-215q145 437 256 720h210q122 -316 257 -720zM413 261l-42 149q-12 48 -16 60q-7 -21 -17 -61q-9 -35 -42 -148h117zM331 778q-192 0 -192 226h159q5 -71 33 -71t33 71h159q0 -226 -192 -226z" />
    <glyph glyph-name="abreve" unicode="&#x103;" horiz-adv-x="553" 
d="M526 11q-108 -36 -250 -36q-262 0 -262 191q0 179 277 192q19 0 27 -1q-7 43 -70 43q-74 0 -158 -32l-37 153q109 38 226 38q208 0 241 -161q6 -33 6 -71v-316zM320 125v103q-21 0 -30 -1q-68 -5 -68 -54q0 -50 63 -50q28 0 35 2zM284 613q-192 0 -192 226h159
q5 -71 33 -71t33 71h159q0 -226 -192 -226z" />
    <glyph glyph-name="Aogonek" unicode="&#x104;" horiz-adv-x="721" 
d="M726 -15h-239q-23 91 -31 119h-202q-4 -14 -17 -56t-19 -63h-215q145 437 256 720h210q122 -316 257 -720zM413 261l-42 149q-12 48 -16 60q-7 -21 -17 -61q-9 -35 -42 -148h117zM561 -251q-155 0 -155 121q0 84 125 175h140l12 -51q-3 -2 -9 -5.5t-9 -5.5q1 1 3.5 2.5
t3.5 1.5q-10 -7 -40 -33t-34 -37q6 0 12 1q16 3 64 17l19 -159q-65 -27 -132 -27z" />
    <glyph glyph-name="aogonek" unicode="&#x105;" horiz-adv-x="553" 
d="M259 570q142 0 200.5 -62.5t58.5 -182.5v-328l-23 -14q1 1 3.5 2.5t3.5 1.5l-22 -19q-23 -18 -36.5 -31t-15.5 -20q10 0 22 3q46 13 54 15l19 -159q-40 -17 -93 -24q-21 -3 -39 -3q-94 0 -132 47q-23 29 -23 74q0 44 32 89h-7q-256 0 -256 203q0 70 37 115.5t91 62.5
t124 17q30 0 54 -3q-13 32 -69 32q-11 0 -39 -2q-58 -6 -125 -29l-28 181q107 34 209 34zM271 134q39 0 44 1v60q-20 2 -30 2q-4 0 -10 -0.5t-9 -0.5q-53 -3 -53 -30q0 -32 58 -32z" />
    <glyph glyph-name="Cacute" unicode="&#x106;" horiz-adv-x="648" 
d="M577 29q-83 -56 -217 -56q-163 0 -246.5 102t-83.5 270q0 163 90 268t245 105q124 0 207 -56l-55 -161q-61 34 -126 34q-55 0 -90 -40t-39 -114q-2 -43 2 -72q7 -65 39.5 -106.5t90.5 -41.5q19 0 39 5q40 5 88 28zM425 787h-157l79 222h251z" />
    <glyph glyph-name="cacute" unicode="&#x107;" horiz-adv-x="500" 
d="M458 13q-67 -40 -164 -40q-130 0 -201 78.5t-71 216.5q0 131 75.5 211t192.5 80q90 0 163 -41l-45 -149q-48 23 -84 23q-83 0 -83 -124q0 -123 86 -123q43 0 92 26zM362 627h-157l79 222h251z" />
    <glyph glyph-name="Ccircumflex" unicode="&#x108;" horiz-adv-x="648" 
d="M577 29q-83 -56 -217 -56q-163 0 -246.5 102t-83.5 270q0 163 90 268t245 105q124 0 207 -56l-55 -161q-61 34 -126 34q-55 0 -90 -40t-39 -114q-2 -43 2 -72q7 -65 39.5 -106.5t90.5 -41.5q19 0 39 5q40 5 88 28zM346 843l-105 -81l-95 110l200 174l196 -174l-91 -110z
" />
    <glyph glyph-name="ccircumflex" unicode="&#x109;" horiz-adv-x="500" 
d="M458 13q-67 -40 -164 -40q-130 0 -201 78.5t-71 216.5q0 131 75.5 211t192.5 80q90 0 163 -41l-45 -149q-48 23 -84 23q-83 0 -83 -124q0 -123 86 -123q43 0 92 26zM283 683l-105 -81l-95 110l200 174l196 -174l-91 -110z" />
    <glyph glyph-name="Cdotaccent" unicode="&#x10a;" horiz-adv-x="648" 
d="M577 29q-83 -56 -217 -56q-163 0 -246.5 102t-83.5 270q0 163 90 268t245 105q124 0 207 -56l-55 -161q-61 34 -126 34q-55 0 -90 -40t-39 -114q-2 -43 2 -72q7 -65 39.5 -106.5t90.5 -41.5q19 0 39 5q40 5 88 28zM345 760q-46 0 -77.5 30t-31.5 78t31.5 78t77.5 30
t77.5 -30t31.5 -78t-31.5 -78t-77.5 -30z" />
    <glyph glyph-name="cdotaccent" unicode="&#x10b;" horiz-adv-x="500" 
d="M458 13q-67 -40 -164 -40q-130 0 -201 78.5t-71 216.5q0 131 75.5 211t192.5 80q90 0 163 -41l-45 -149q-48 23 -84 23q-83 0 -83 -124q0 -123 86 -123q43 0 92 26zM282 600q-46 0 -77.5 30t-31.5 78t31.5 78t77.5 30t77.5 -30t31.5 -78t-31.5 -78t-77.5 -30z" />
    <glyph glyph-name="Ccaron" unicode="&#x10c;" horiz-adv-x="648" 
d="M577 29q-83 -56 -217 -56q-163 0 -246.5 102t-83.5 270q0 163 90 268t245 105q124 0 207 -56l-55 -161q-61 34 -126 34q-55 0 -90 -40t-39 -114q-2 -43 2 -72q7 -65 39.5 -106.5t90.5 -41.5q19 0 39 5q40 5 88 28zM241 1054l105 -81l105 81l95 -110l-200 -174l-196 174z
" />
    <glyph glyph-name="ccaron" unicode="&#x10d;" horiz-adv-x="500" 
d="M458 13q-67 -40 -164 -40q-130 0 -201 78.5t-71 216.5q0 131 75.5 211t192.5 80q90 0 163 -41l-45 -149q-48 23 -84 23q-83 0 -83 -124q0 -123 86 -123q43 0 92 26zM178 894l105 -81l105 81l95 -110l-200 -174l-196 174z" />
    <glyph glyph-name="Dcaron" unicode="&#x10e;" horiz-adv-x="737" 
d="M662 344q0 -171 -94.5 -269.5t-281.5 -98.5q-126 0 -235 32v674q117 32 232 32q189 0 284 -97t95 -273zM435 347q0 104 -32.5 149t-107.5 45h-21v-389h20q74 0 107.5 44.5t33.5 150.5zM221 1054l105 -81l105 81l95 -110l-200 -174l-196 174z" />
    <glyph glyph-name="dcaron" unicode="&#x10f;" horiz-adv-x="796" 
d="M565 798v-774q-39 -21 -105 -35.5t-139 -14.5q-139 0 -219 75t-80 216q0 134 68.5 212.5t183.5 78.5q48 0 75 -8v233q144 12 216 17zM349 138v258q-14 6 -35 6q-75 0 -75 -130q0 -136 83 -136q11 0 27 2zM593 806h187l-42 -304h-145v304z" />
    <glyph glyph-name="Dcroat" unicode="&#x110;" horiz-adv-x="748" 
d="M728 347q0 -191 -113.5 -288.5t-315.5 -97.5q-123 0 -238 24v287h-81v175h81v262q120 22 243 22q200 0 312 -93.5t112 -290.5zM277 272v-117h30q100 0 150 50t50 142q0 191 -195 191h-35v-91h126v-175h-126z" />
    <glyph glyph-name="dcroat" unicode="&#x111;" horiz-adv-x="606" 
d="M564 812v-93h62v-153h-62v-572q-122 -37 -245 -37q-142 0 -223 80.5t-81 215.5q0 137 70.5 218.5t194.5 81.5q40 0 75 -10v23h-143v153h143v59zM355 145v213q-21 9 -52 9q-76 0 -76 -107q0 -52 24.5 -84t68.5 -32q24 0 35 1z" />
    <glyph glyph-name="Emacron" unicode="&#x112;" horiz-adv-x="606" 
d="M519 -15h-468v720h456v-173h-231v-98h202v-171h-202v-105h243v-173zM470 783h-382v162h382v-162z" />
    <glyph glyph-name="emacron" unicode="&#x113;" horiz-adv-x="584" 
d="M558 210l-317 -21q25 -47 100 -47q87 0 158 33l38 -158q-92 -44 -221 -44q-144 0 -219 82t-75 210q0 134 76.5 214t199.5 80q117 0 184 -66t75 -188q0 -10 1 -43t0 -52zM351 331q-6 73 -57 73q-60 0 -62 -82zM483 623h-382v162h382v-162z" />
    <glyph glyph-name="Ebreve" unicode="&#x114;" horiz-adv-x="606" 
d="M519 -15h-468v720h456v-173h-231v-98h202v-171h-202v-105h243v-173zM275 778q-192 0 -192 226h159q5 -71 33 -71t33 71h159q0 -226 -192 -226z" />
    <glyph glyph-name="ebreve" unicode="&#x115;" horiz-adv-x="584" 
d="M558 210l-317 -21q25 -47 100 -47q87 0 158 33l38 -158q-92 -44 -221 -44q-144 0 -219 82t-75 210q0 134 76.5 214t199.5 80q117 0 184 -66t75 -188q0 -10 1 -43t0 -52zM351 331q-6 73 -57 73q-60 0 -62 -82zM288 618q-192 0 -192 226h159q5 -71 33 -71t33 71h159
q0 -226 -192 -226z" />
    <glyph glyph-name="Edotaccent" unicode="&#x116;" horiz-adv-x="606" 
d="M519 -15h-468v720h456v-173h-231v-98h202v-171h-202v-105h243v-173zM274 760q-46 0 -77.5 30t-31.5 78t31.5 78t77.5 30t77.5 -30t31.5 -78t-31.5 -78t-77.5 -30z" />
    <glyph glyph-name="edotaccent" unicode="&#x117;" horiz-adv-x="584" 
d="M558 210l-317 -21q25 -47 100 -47q87 0 158 33l38 -158q-92 -44 -221 -44q-144 0 -219 82t-75 210q0 134 76.5 214t199.5 80q117 0 184 -66t75 -188q0 -10 1 -43t0 -52zM351 331q-6 73 -57 73q-60 0 -62 -82zM287 600q-46 0 -77.5 30t-31.5 78t31.5 78t77.5 30t77.5 -30
t31.5 -78t-31.5 -78t-77.5 -30z" />
    <glyph glyph-name="Eogonek" unicode="&#x118;" horiz-adv-x="606" 
d="M378 -30h-3h-325v753h528v-191h-312v-76h277v-188h-277v-107h335v-175q-68 -59 -72 -69q10 0 22 3q46 13 54 15l19 -159q-65 -27 -132 -27q-155 0 -155 121q0 51 41 100z" />
    <glyph glyph-name="eogonek" unicode="&#x119;" horiz-adv-x="584" 
d="M15 259q0 146 83.5 228.5t198.5 82.5q127 0 199.5 -77.5t72.5 -222.5q0 -13 -1.5 -43t-1.5 -43h-326q30 -40 103 -40q20 0 41 3q69 10 128 36l29 -178q-31 -20 -64.5 -48t-37.5 -40q10 0 22 3q46 13 54 15l19 -159q-65 -27 -132 -27q-117 0 -146 71q-9 22 -9 50
q0 46 31 88q-26 2 -63 12q-99 28 -149.5 104.5t-50.5 184.5zM237 346h121q-14 41 -59 41q-42 0 -62 -41z" />
    <glyph glyph-name="Ecaron" unicode="&#x11a;" horiz-adv-x="606" 
d="M519 -15h-468v720h456v-173h-231v-98h202v-171h-202v-105h243v-173zM170 1054l105 -81l105 81l95 -110l-200 -174l-196 174z" />
    <glyph glyph-name="ecaron" unicode="&#x11b;" horiz-adv-x="584" 
d="M558 210l-317 -21q25 -47 100 -47q87 0 158 33l38 -158q-92 -44 -221 -44q-144 0 -219 82t-75 210q0 134 76.5 214t199.5 80q117 0 184 -66t75 -188q0 -10 1 -43t0 -52zM351 331q-6 73 -57 73q-60 0 -62 -82zM183 894l105 -81l105 81l95 -110l-200 -174l-196 174z" />
    <glyph glyph-name="Gcircumflex" unicode="&#x11c;" horiz-adv-x="702" 
d="M625 18q-92 -44 -244 -44q-176 0 -265 99.5t-89 272.5q0 167 97 269.5t263 102.5q136 0 236 -57l-67 -161q-54 28 -113 34q-189 17 -189 -188q0 -196 124 -196q28 0 32 2v111h-74v171h289v-416zM385 843l-105 -81l-95 110l200 174l196 -174l-91 -110z" />
    <glyph glyph-name="gcircumflex" unicode="&#x11d;" horiz-adv-x="594" 
d="M557 34q0 -257 -281 -257q-125 0 -227 42l45 165q57 -25 106 -33q24 -4 56 -4q42 0 66 16.5t24 42.5v7q-33 -11 -80 -11q-111 0 -177.5 70.5t-66.5 193.5q0 137 78.5 214.5t224.5 77.5q137 0 232 -39v-485zM344 160v242q-7 2 -26 2q-79 0 -79 -130q0 -63 17 -91.5
t54 -28.5q19 0 34 6zM310 683l-105 -81l-95 110l200 174l196 -174l-91 -110z" />
    <glyph glyph-name="Gbreve" unicode="&#x11e;" horiz-adv-x="702" 
d="M625 18q-92 -44 -244 -44q-176 0 -265 99.5t-89 272.5q0 167 97 269.5t263 102.5q136 0 236 -57l-67 -161q-54 28 -113 34q-189 17 -189 -188q0 -196 124 -196q28 0 32 2v111h-74v171h289v-416zM385 778q-192 0 -192 226h159q5 -71 33 -71t33 71h159q0 -226 -192 -226z
" />
    <glyph glyph-name="gbreve" unicode="&#x11f;" horiz-adv-x="594" 
d="M557 34q0 -257 -281 -257q-125 0 -227 42l45 165q57 -25 106 -33q24 -4 56 -4q42 0 66 16.5t24 42.5v7q-33 -11 -80 -11q-111 0 -177.5 70.5t-66.5 193.5q0 137 78.5 214.5t224.5 77.5q137 0 232 -39v-485zM344 160v242q-7 2 -26 2q-79 0 -79 -130q0 -63 17 -91.5
t54 -28.5q19 0 34 6zM310 618q-192 0 -192 226h159q5 -71 33 -71t33 71h159q0 -226 -192 -226z" />
    <glyph glyph-name="Gdotaccent" unicode="&#x120;" horiz-adv-x="702" 
d="M625 18q-92 -44 -244 -44q-176 0 -265 99.5t-89 272.5q0 167 97 269.5t263 102.5q136 0 236 -57l-67 -161q-54 28 -113 34q-189 17 -189 -188q0 -196 124 -196q28 0 32 2v111h-74v171h289v-416zM384 760q-46 0 -77.5 30t-31.5 78t31.5 78t77.5 30t77.5 -30t31.5 -78
t-31.5 -78t-77.5 -30z" />
    <glyph glyph-name="gdotaccent" unicode="&#x121;" horiz-adv-x="594" 
d="M557 34q0 -257 -281 -257q-125 0 -227 42l45 165q57 -25 106 -33q24 -4 56 -4q42 0 66 16.5t24 42.5v7q-33 -11 -80 -11q-111 0 -177.5 70.5t-66.5 193.5q0 137 78.5 214.5t224.5 77.5q137 0 232 -39v-485zM344 160v242q-7 2 -26 2q-79 0 -79 -130q0 -63 17 -91.5
t54 -28.5q19 0 34 6zM309 600q-46 0 -77.5 30t-31.5 78t31.5 78t77.5 30t77.5 -30t31.5 -78t-31.5 -78t-77.5 -30z" />
    <glyph glyph-name="Gcommaaccent" unicode="&#x122;" horiz-adv-x="702" 
d="M386 152q18 44 24 66l-24 61v130h239v-391q-92 -44 -244 -44q-176 0 -265 99.5t-89 272.5q0 167 97 269.5t263 102.5q136 0 236 -57l-67 -161q-54 28 -113 34q-189 17 -189 -188q0 -196 124 -196q4 0 8 2zM317 -66v44h172q7 -42 8 -49q1 -11 1 -18q0 -85 -49 -123
t-123 -38q-7 0 -27 2q-33 5 -54 13v135q36 0 54 6.5t18 27.5z" />
    <glyph glyph-name="gcommaaccent" unicode="&#x123;" horiz-adv-x="594" 
d="M342 0q-13 0 -36 7q-12 -5 -40 -5q-111 0 -177.5 70.5t-66.5 193.5q0 137 78.5 214.5t224.5 77.5q137 0 232 -39v-485q0 -257 -281 -257q-125 0 -227 42l45 165q57 -25 106 -33q24 -4 56 -4q78 0 86 53zM344 160v242q-7 2 -26 2q-79 0 -79 -130q0 -63 17 -91.5t54 -28.5
q19 0 34 6zM218 569q-21 208 174 258l81 -111q-39 -24 -57.5 -47.5t-18.5 -55.5v-44h-179z" />
    <glyph glyph-name="Hcircumflex" unicode="&#x124;" horiz-adv-x="734" 
d="M646 -15h-224v278h-146v-278h-225v720h225v-272h146v272h224v-720zM348 843l-105 -81l-95 110l200 174l196 -174l-91 -110z" />
    <glyph glyph-name="hcircumflex" unicode="&#x125;" 
d="M563 -15h-216v270v20q0 31 -0.5 45t-3 32.5t-8 26t-16 13t-26.5 5.5q-23 0 -33 -3v-409h-217v795h217v-233q25 7 50 8q66 5 113 -7t73.5 -34.5t42 -60.5t20 -75t4.5 -90v-303zM296 883l-105 -81l-95 110l200 174l196 -174l-91 -110z" />
    <glyph glyph-name="Hbar" unicode="&#x126;" horiz-adv-x="756" 
d="M776 472h-81v-502h-216v284h-202v-284h-216v502h-81v170h81v81h216v-81h202v81h216v-81h81v-170zM479 448v24h-202v-24h202z" />
    <glyph glyph-name="hbar" unicode="&#x127;" horiz-adv-x="599" 
d="M259 -30h-209v596h-62v153h62v59l209 34v-93h143v-153h-143v-18q22 5 54 5q138 0 194.5 -70t56.5 -201v-312h-209v294q0 56 -12.5 79t-44.5 23q-23 0 -39 -4v-392z" />
    <glyph glyph-name="Itilde" unicode="&#x128;" horiz-adv-x="316" 
d="M276 -15h-225v720h225v-720zM219 782q-26 0 -66.5 17.5t-58.5 17.5q-15 0 -42 -57l-122 80q21 55 61.5 99.5t93.5 44.5q26 0 66 -17.5t59 -17.5q15 0 42 57l127 -83q-50 -82 -88 -112q-36 -29 -72 -29z" />
    <glyph glyph-name="itilde" unicode="&#x129;" horiz-adv-x="289" 
d="M249 556v-586h-209v586h209zM202 592q-26 0 -66.5 17.5t-58.5 17.5q-15 0 -42 -57l-122 80q21 55 61.5 99.5t93.5 44.5q26 0 66 -17.5t59 -17.5q15 0 42 57l127 -83q-50 -82 -88 -112q-36 -29 -72 -29z" />
    <glyph glyph-name="Imacron" unicode="&#x12a;" horiz-adv-x="316" 
d="M276 -15h-225v720h225v-720zM357 783h-382v162h382v-162z" />
    <glyph glyph-name="imacron" unicode="&#x12b;" horiz-adv-x="289" 
d="M249 556v-586h-209v586h209zM340 623h-382v162h382v-162z" />
    <glyph glyph-name="Ibreve" unicode="&#x12c;" horiz-adv-x="316" 
d="M276 -15h-225v720h225v-720zM162 778q-192 0 -192 226h159q5 -71 33 -71t33 71h159q0 -226 -192 -226z" />
    <glyph glyph-name="ibreve" unicode="&#x12d;" horiz-adv-x="289" 
d="M249 556v-586h-209v586h209zM145 618q-192 0 -192 226h159q5 -71 33 -71t33 71h159q0 -226 -192 -226z" />
    <glyph glyph-name="Iogonek" unicode="&#x12e;" horiz-adv-x="316" 
d="M266 723v-737q-68 -59 -72 -69q10 0 22 3q46 13 54 15l19 -159q-65 -27 -132 -27q-155 0 -155 121q0 61 48 109v744h216z" />
    <glyph glyph-name="iogonek" unicode="&#x12f;" horiz-adv-x="289" 
d="M249 556v-570q-68 -59 -72 -69q10 0 22 3q46 13 54 15l19 -159q-65 -27 -132 -27q-155 0 -155 121q0 51 55 117v569h209zM263 678q0 -54 -34.5 -86t-84.5 -32t-84.5 32t-34.5 86t34.5 86t84.5 32t84.5 -32t34.5 -86z" />
    <glyph glyph-name="Idotaccent" unicode="&#x130;" horiz-adv-x="316" 
d="M51 -15v720h225v-720h-225zM157 730q-46 0 -77.5 30t-31.5 78t31.5 78t77.5 30t77.5 -30t31.5 -78t-31.5 -78t-77.5 -30z" />
    <glyph glyph-name="dotlessi" unicode="&#x131;" horiz-adv-x="289" 
d="M249 556v-586h-209v586h209z" />
    <glyph glyph-name="IJ" unicode="&#x132;" horiz-adv-x="841" 
d="M51 -15v720h225v-720h-225zM699 705v-556q0 -254 -246 -275q-81 -5 -170 31l37 167q83 -25 116 21q39 50 39 154v458h224z" />
    <glyph glyph-name="ij" unicode="&#x133;" horiz-adv-x="576" 
d="M554 687q0 -47 -34 -77.5t-82 -30.5q-49 0 -83 30.5t-34 77.5t34 77.5t82 30.5q49 0 83 -30.5t34 -77.5zM546 54q0 -117 -55.5 -185.5t-158.5 -82.5q-49 -9 -115 5l15 127q52 16 66 28q31 26 31 94v507h217v-493zM268 687q0 -47 -34 -77.5t-83 -30.5q-48 0 -82 30.5
t-34 77.5t34 77.5t82 30.5q49 0 83 -30.5t34 -77.5zM260 -15h-217v562h217v-562z" />
    <glyph glyph-name="Jcircumflex" unicode="&#x134;" horiz-adv-x="529" 
d="M387 149q0 -254 -246 -275q-81 -5 -170 31l37 167q83 -25 116 21q39 50 39 154v458h224v-556zM273 843l-105 -81l-95 110l200 174l196 -174l-91 -110z" />
    <glyph glyph-name="jcircumflex" unicode="&#x135;" horiz-adv-x="289" 
d="M21 -215q-58 0 -127 24l29 181q53 -19 84 -19q33 0 33 52v533h209v-537q0 -234 -228 -234zM142 683l-105 -81l-95 110l200 174l196 -174l-91 -110z" />
    <glyph glyph-name="Kcommaaccent" unicode="&#x136;" horiz-adv-x="684" 
d="M695 -15h-206q-16 3 -55 7q-75 161 -158 285v-292h-225v720h225v-259q33 36 59 77.5t55.5 99t44.5 82.5h249l-233 -330q109 -147 244 -390zM278 -66v44h172q7 -42 8 -49q1 -11 1 -18q0 -85 -49 -123t-123 -38q-7 0 -27 2q-33 5 -54 13v135q36 0 54 6.5t18 27.5z" />
    <glyph glyph-name="kcommaaccent" unicode="&#x137;" horiz-adv-x="579" 
d="M219 -66v44h172q7 -42 8 -49q1 -11 1 -18q0 -85 -49 -123t-123 -38q-7 0 -27 2q-33 5 -54 13v135q36 0 54 6.5t18 27.5zM623 -15h-243q-1 3 -14 32l-27 59l-30 62.5t-29.5 53.5t-19.5 21v-228h-216v795h216v-417q72 107 117 184h239l-186 -246q103 -142 193 -316z" />
    <glyph glyph-name="kgreenlandic" unicode="&#x138;" horiz-adv-x="582" 
d="M249 -30h-209v586h209v-149l123 149h255q-134 -164 -237 -267q60 -63 124.5 -151t107.5 -168h-237q-83 131 -136 184v-184z" />
    <glyph glyph-name="Lacute" unicode="&#x139;" horiz-adv-x="563" 
d="M500 -15h-449v720h225v-546h224v-174zM242 787h-157l79 222h251z" />
    <glyph glyph-name="lacute" unicode="&#x13a;" horiz-adv-x="409" 
d="M378 80l-33 -94q-77 0 -132.5 11.5t-88 30.5t-51 49.5t-24.5 61t-6 73.5v568h217v-559q0 -70 26 -97.5t92 -43.5zM230 857h-157l79 222h251z" />
    <glyph glyph-name="Lcommaaccent" unicode="&#x13b;" horiz-adv-x="563" 
d="M276 159h224v-174h-449v720h225v-546zM246 -66v44h172q7 -42 8 -49q1 -11 1 -18q0 -85 -49 -123t-123 -38q-7 0 -27 2q-33 5 -54 13v135q36 0 54 6.5t18 27.5z" />
    <glyph glyph-name="lcommaaccent" unicode="&#x13c;" horiz-adv-x="316" 
d="M90 -66v44h172q7 -42 8 -49q1 -11 1 -18q0 -85 -49 -123t-123 -38q-7 0 -27 2q-33 5 -54 13v135q36 0 54 6.5t18 27.5zM378 80l-33 -94q-77 0 -132.5 11.5t-88 30.5t-51 49.5t-24.5 61t-6 73.5v568h217v-559q0 -70 26 -97.5t92 -43.5z" />
    <glyph glyph-name="Lcaron" unicode="&#x13d;" horiz-adv-x="563" 
d="M276 159h224v-174h-449v720h225v-546zM307 725h187l-42 -304h-145v304z" />
    <glyph glyph-name="lcaron" unicode="&#x13e;" horiz-adv-x="505" 
d="M299 799h187l-42 -304h-145v304zM378 80l-33 -94q-77 0 -132.5 11.5t-88 30.5t-51 49.5t-24.5 61t-6 73.5v568h217v-559q0 -70 26 -97.5t92 -43.5z" />
    <glyph glyph-name="Ldot" unicode="&#x13f;" horiz-adv-x="563" 
d="M276 159h224v-174h-449v720h225v-546zM454 297q-50 0 -85.5 33.5t-35.5 86.5q0 54 35.5 88t85.5 34t86 -34t36 -87q0 -54 -36 -87.5t-86 -33.5z" />
    <glyph glyph-name="ldot" unicode="&#x140;" horiz-adv-x="409" 
d="M378 80l-33 -94q-77 0 -132.5 11.5t-88 30.5t-51 49.5t-24.5 61t-6 73.5v568h217v-559q0 -70 26 -97.5t92 -43.5zM150 830q-46 0 -77.5 30t-31.5 78t31.5 78t77.5 30t77.5 -30t31.5 -78t-31.5 -78t-77.5 -30z" />
    <glyph glyph-name="Lslash" unicode="&#x141;" horiz-adv-x="594" 
d="M297 506l106 54l75 -155l-181 -92v-149h307v-194h-523v235l-46 -22l-75 155l121 61v324h216v-217z" />
    <glyph glyph-name="lslash" unicode="&#x142;" horiz-adv-x="364" 
d="M276 570l54 27l72 -147l-126 -62v-185q0 -29 17.5 -44t70.5 -18l-31 -181q-113 2 -171.5 30.5t-79.5 84.5q-15 38 -15 98v110l-26.5 -13l-18.5 -9l-72 146l117 58v315h209v-210z" />
    <glyph glyph-name="Nacute" unicode="&#x143;" horiz-adv-x="756" 
d="M656 -15h-137l-41 8q-102 173 -186 297q-6 8 -15 24.5t-15.5 26.5t-8.5 10q0 -5 1 -30.5t1 -42.5v-293h-204v720h180q87 -108 183 -250q8 -11 21.5 -33.5t17.5 -27.5q0 10 -1 44t-1 55v212h205v-720zM436 787h-157l79 222h251z" />
    <glyph glyph-name="nacute" unicode="&#x144;" 
d="M563 -15h-216v270v17q0 31 -0.5 45.5t-3 33.5t-8 26t-16 13t-26.5 6q-20 0 -33 -2v-409h-217v523q79 50 254 50q85 0 139 -17.5t81 -56t36.5 -83.5t9.5 -115v-301zM378 627h-157l79 222h251z" />
    <glyph glyph-name="Ncommaaccent" unicode="&#x145;" horiz-adv-x="756" 
d="M656 -15h-137l-41 8q-213 358 -225 358q0 -5 1 -30.5t1 -42.5v-293h-204v720h180q87 -108 183 -250q8 -11 21.5 -33.5t17.5 -27.5q0 10 -1 44t-1 55v212h205v-720zM304 -66v44h172q7 -42 8 -49q1 -11 1 -18q0 -85 -49 -123t-123 -38q-7 0 -27 2q-33 5 -54 13v135
q36 0 54 6.5t18 27.5z" />
    <glyph glyph-name="ncommaaccent" unicode="&#x146;" 
d="M43 -15v523q79 50 254 50q85 0 139 -17.5t81 -56t36.5 -83.5t9.5 -115v-301h-216v270v17q0 31 -0.5 45.5t-3 33.5t-8 26t-16 13t-26.5 6q-20 0 -33 -2v-409h-217zM209 -66v44h172q7 -42 8 -49q1 -11 1 -18q0 -85 -49 -123t-123 -38q-7 0 -27 2q-33 5 -54 13v135
q36 0 54 6.5t18 27.5z" />
    <glyph glyph-name="Ncaron" unicode="&#x147;" horiz-adv-x="756" 
d="M656 -15h-137l-41 8q-102 173 -186 297q-6 8 -15 24.5t-15.5 26.5t-8.5 10q0 -5 1 -30.5t1 -42.5v-293h-204v720h180q87 -108 183 -250q8 -11 21.5 -33.5t17.5 -27.5q0 10 -1 44t-1 55v212h205v-720zM252 1054l105 -81l105 81l95 -110l-200 -174l-196 174z" />
    <glyph glyph-name="ncaron" unicode="&#x148;" 
d="M563 -15h-216v270v17q0 31 -0.5 45.5t-3 33.5t-8 26t-16 13t-26.5 6q-20 0 -33 -2v-409h-217v523q79 50 254 50q85 0 139 -17.5t81 -56t36.5 -83.5t9.5 -115v-301zM194 894l105 -81l105 81l95 -110l-200 -174l-196 174z" />
    <glyph glyph-name="napostrophe" unicode="&#x149;" horiz-adv-x="619" 
d="M73 -15v523q79 50 254 50q85 0 139 -17.5t81 -56t36.5 -83.5t9.5 -115v-301h-216v270v17q0 31 -0.5 45.5t-3 33.5t-8 26t-16 13t-26.5 6q-20 0 -33 -2v-409h-217zM-23 806h169l30 -30q0 -82 -20 -142t-65 -129l-152 43q50 107 50 183q0 31 -12 75z" />
    <glyph glyph-name="Eng" unicode="&#x14a;" horiz-adv-x="756" 
d="M491 21v13q-100 172 -227 336v-400h-214v753h169q118 -118 272 -341v341h215v-706q0 -178 -125 -220q-41 -14 -102 -14q-53 0 -121 23l29 181q49 -18 78 -18q26 0 26 52z" />
    <glyph glyph-name="eng" unicode="&#x14b;" 
d="M345 -2v281q0 56 -13 79t-47 23q-23 0 -36 -2v-409h-209v561q130 37 254 37q143 0 201.5 -70t58.5 -201v-294q0 -91 -31 -142t-102 -68q-32 -8 -84 -8q-54 0 -114 23l28 164q53 -15 69 -15q25 0 25 41z" />
    <glyph glyph-name="Omacron" unicode="&#x14c;" horiz-adv-x="790" 
d="M694 345q0 -170 -88.5 -271t-243.5 -101q-154 0 -243 101t-89 271q0 169 90 271t242 102q153 0 242.5 -101.5t89.5 -271.5zM465 350q0 85 -26 139.5t-77 54.5t-77 -54.5t-26 -139.5q0 -86 26 -140t77 -54t77 54t26 140zM554 793h-382v162h382v-162z" />
    <glyph glyph-name="omacron" unicode="&#x14d;" horiz-adv-x="607" 
d="M576 267q0 -132 -75 -213t-202 -81q-126 0 -201.5 81.5t-75.5 212.5q0 129 77 210.5t200 81.5q125 0 201 -81t76 -211zM359 269q0 127 -60 127t-60 -127t60 -127t60 127zM494 623h-382v162h382v-162z" />
    <glyph glyph-name="Obreve" unicode="&#x14e;" horiz-adv-x="790" 
d="M694 345q0 -170 -88.5 -271t-243.5 -101q-154 0 -243 101t-89 271q0 169 90 271t242 102q153 0 242.5 -101.5t89.5 -271.5zM465 350q0 85 -26 139.5t-77 54.5t-77 -54.5t-26 -139.5q0 -86 26 -140t77 -54t77 54t26 140zM359 788q-192 0 -192 226h159q5 -71 33 -71t33 71
h159q0 -226 -192 -226z" />
    <glyph glyph-name="obreve" unicode="&#x14f;" horiz-adv-x="607" 
d="M576 267q0 -132 -75 -213t-202 -81q-126 0 -201.5 81.5t-75.5 212.5q0 129 77 210.5t200 81.5q125 0 201 -81t76 -211zM359 269q0 127 -60 127t-60 -127t60 -127t60 127zM299 618q-192 0 -192 226h159q5 -71 33 -71t33 71h159q0 -226 -192 -226z" />
    <glyph glyph-name="Ohungarumlaut" unicode="&#x150;" horiz-adv-x="790" 
d="M691 345q0 -170 -88.5 -271t-243.5 -101q-154 0 -243 101t-89 271q0 169 90 271t242 102q153 0 242.5 -101.5t89.5 -271.5zM462 350q0 85 -26 139.5t-77 54.5t-77 -54.5t-26 -139.5q0 -86 26 -140t77 -54t77 54t26 140zM346 1005l129 -104l-173 -202l-111 85zM548 1005
l137 -110l-181 -196l-111 85z" />
    <glyph glyph-name="ohungarumlaut" unicode="&#x151;" horiz-adv-x="607" 
d="M576 267q0 -132 -75 -213t-202 -81q-126 0 -201.5 81.5t-75.5 212.5q0 129 77 210.5t200 81.5q125 0 201 -81t76 -211zM359 269q0 127 -60 127t-60 -127t60 -127t60 127zM247 863l129 -104l-173 -202l-111 85zM459 863l137 -110l-181 -196l-111 85z" />
    <glyph glyph-name="OE" unicode="&#x152;" horiz-adv-x="997" 
d="M463 156v381h-22q-201 0 -201 -190q0 -191 201 -191h22zM992 -30h-442q-46 -6 -107 -6q-197 0 -310 95.5t-113 287.5q0 191 113 286.5t310 95.5q61 0 107 -6h419v-191h-295v-76h260v-188h-260v-107h318v-191z" />
    <glyph glyph-name="oe" unicode="&#x153;" horiz-adv-x="937" 
d="M300 570q104 0 181 -70q69 70 169 70q46 0 78 -8q93 -21 143.5 -95.5t50.5 -196.5q0 -13 -1.5 -43t-1.5 -43h-326q30 -40 103 -40q24 0 56 5q58 9 113 34l29 -181q-50 -25 -136 -39q-47 -7 -82 -7q-125 0 -202 70q-73 -70 -174 -70q-129 0 -207 84.5t-78 223.5
q0 137 79.5 221.5t205.5 84.5zM380 264q0 55 -20 86.5t-56 31.5q-37 0 -57 -31.5t-20 -86.5q0 -56 20.5 -88t56.5 -32t56 32t20 88zM590 346h121q-14 41 -59 41q-42 0 -62 -41z" />
    <glyph glyph-name="Racute" unicode="&#x154;" horiz-adv-x="683" 
d="M665 -15h-246q-82 180 -128 269h-17v-269h-223v696q117 33 238 33q165 0 248 -62t83 -179q0 -57 -32.5 -106.5t-80.5 -75.5v-1q21 -27 44.5 -69t38.5 -73l40.5 -87.5zM395 467q0 41 -23 64.5t-55 23.5q-23 0 -43 -4v-178h43q31 0 54.5 26.5t23.5 67.5zM382 787h-157
l79 222h251z" />
    <glyph glyph-name="racute" unicode="&#x155;" horiz-adv-x="422" 
d="M419 541l-34 -151q-41 9 -59 8q-33 1 -66 -5v-408h-217v528q110 44 240 45q66 0 136 -17zM298 627h-157l79 222h251z" />
    <glyph glyph-name="Rcommaaccent" unicode="&#x156;" horiz-adv-x="667" 
d="M620 473q0 -57 -32.5 -106t-80.5 -77q21 -27 44.5 -69t38.5 -73l40.5 -87.5l34.5 -75.5h-246l-97 208l-31 61h-17v-269h-223v696q117 33 238 33q165 0 248 -62t83 -179zM295 552q-15 0 -21 -1v-174q1 0 5 -0.5t7 -0.5q109 0 109 91q1 44 -22 64.5t-78 20.5zM268 -66v44
h172q7 -42 8 -49q1 -11 1 -18q0 -85 -49 -123t-123 -38q-7 0 -27 2q-33 5 -54 13v135q36 0 54 6.5t18 27.5z" />
    <glyph glyph-name="rcommaaccent" unicode="&#x157;" horiz-adv-x="422" 
d="M283 558q66 0 136 -17l-34 -151q-21 2 -41 -3q-24 8 -48 8q-17 1 -36 -2v-408h-217v528q110 44 240 45zM56 -66v44h172q7 -42 8 -49q1 -11 1 -18q0 -85 -49 -123t-123 -38q-7 0 -27 2q-33 5 -54 13v135q36 0 54 6.5t18 27.5z" />
    <glyph glyph-name="Rcaron" unicode="&#x158;" horiz-adv-x="683" 
d="M665 -15h-246q-82 180 -128 269h-17v-269h-223v696q117 33 238 33q165 0 248 -62t83 -179q0 -57 -32.5 -106.5t-80.5 -75.5v-1q21 -27 44.5 -69t38.5 -73l40.5 -87.5zM395 467q0 41 -23 64.5t-55 23.5q-23 0 -43 -4v-178h43q31 0 54.5 26.5t23.5 67.5zM198 1054l105 -81
l105 81l95 -110l-200 -174l-196 174z" />
    <glyph glyph-name="rcaron" unicode="&#x159;" horiz-adv-x="422" 
d="M283 558q66 0 136 -17l-34 -151q-21 2 -41 -3q-24 8 -48 8q-17 1 -36 -2v-408h-217v528q110 44 240 45zM141 830l105 -81l105 81l95 -110l-200 -174l-196 174z" />
    <glyph glyph-name="Sacute" unicode="&#x15a;" horiz-adv-x="582" 
d="M522 204q0 -105 -73.5 -168t-204.5 -63q-146 0 -234 56l57 172q74 -45 153 -45q68 0 68 39q0 23 -25.5 39.5t-101.5 46.5q-139 68 -139 203q0 29 6 56q18 81 87 129.5t171 48.5q118 0 212 -53l-57 -160q-74 39 -131 39q-64 0 -64 -35q0 -23 23.5 -38t86.5 -41q8 -3 12 -5
q87 -41 120.5 -91t33.5 -130zM328 787h-157l79 222h251z" />
    <glyph glyph-name="sacute" unicode="&#x15b;" horiz-adv-x="485" 
d="M448 158q0 -87 -63 -136t-178 -49q-111 0 -197 43l47 160q74 -37 133 -37q39 0 39 17q0 10 -19 21.5t-69 31.5q-61 28 -88 67t-27 96q0 84 59 135.5t158 51.5q105 0 190 -40l-46 -149q-62 29 -110 29q-38 0 -38 -18q0 -7 2.5 -11.5t10 -8.5t15.5 -7.5t24.5 -11.5
t32.5 -17q71 -33 97.5 -71t26.5 -96zM285 627h-157l79 222h251z" />
    <glyph glyph-name="Scircumflex" unicode="&#x15c;" horiz-adv-x="582" 
d="M522 204q0 -105 -73.5 -168t-204.5 -63q-146 0 -234 56l57 172q74 -45 153 -45q68 0 68 39q0 23 -25.5 39.5t-101.5 46.5q-139 68 -139 203q0 29 6 56q18 81 87 129.5t171 48.5q118 0 212 -53l-57 -160q-74 39 -131 39q-64 0 -64 -35q0 -23 23.5 -38t86.5 -41q8 -3 12 -5
q87 -41 120.5 -91t33.5 -130zM249 843l-105 -81l-95 110l200 174l196 -174l-91 -110z" />
    <glyph glyph-name="scircumflex" unicode="&#x15d;" horiz-adv-x="485" 
d="M448 158q0 -87 -63 -136t-178 -49q-111 0 -197 43l47 160q74 -37 133 -37q39 0 39 17q0 10 -19 21.5t-69 31.5q-61 28 -88 67t-27 96q0 84 59 135.5t158 51.5q105 0 190 -40l-46 -149q-62 29 -110 29q-38 0 -38 -18q0 -7 2.5 -11.5t10 -8.5t15.5 -7.5t24.5 -11.5
t32.5 -17q71 -33 97.5 -71t26.5 -96zM206 683l-105 -81l-95 110l200 174l196 -174l-91 -110z" />
    <glyph glyph-name="Scedilla" unicode="&#x15e;" horiz-adv-x="582" 
d="M371 -35q39 -33 39 -88q0 -24 -8 -46q-30 -82 -160 -82q-47 0 -123 21l31 147q61 -19 83 -19q-2 0 -6.5 1t-6.5 2l-23 5.5t-22 5.5l18 49q-108 13 -192 64l63 182q104 -58 205 -58q82 0 82 42q0 21 -27 37.5t-95 39.5q-45 16 -76.5 31.5t-65 42t-51 67t-17.5 92.5
q0 109 77.5 173.5t207.5 64.5q124 0 242 -64l-66 -179q-100 50 -166 50q-75 0 -75 -33q0 -19 24 -32.5t76 -31.5q129 -47 181 -99t52 -160q0 -186 -201 -225z" />
    <glyph glyph-name="scedilla" unicode="&#x15f;" horiz-adv-x="485" 
d="M358 -123q0 -43 -21 -71q-41 -57 -147 -57q-47 0 -123 21l31 147q61 -19 83 -19q-2 0 -6.5 1t-6.5 2l-22.5 5.5l-22.5 5.5l19 49q-75 11 -137 38l37 181q82 -33 148 -41q22 -2 31 -2q45 0 45 9q0 7 -70 34q-43 16 -71 31.5t-53 38t-37 55t-12 75.5q0 89 63 139.5
t173 50.5q93 0 196 -38l-38 -174q-92 32 -147 32q-40 0 -40 -9t59 -32q106 -40 145.5 -84t39.5 -121q0 -69 -41 -115t-115 -63q40 -35 40 -89z" />
    <glyph glyph-name="Scaron" unicode="&#x160;" horiz-adv-x="582" 
d="M522 204q0 -105 -73.5 -168t-204.5 -63q-146 0 -234 56l57 172q74 -45 153 -45q68 0 68 39q0 23 -25.5 39.5t-101.5 46.5q-139 68 -139 203q0 29 6 56q18 81 87 129.5t171 48.5q118 0 212 -53l-57 -160q-74 39 -131 39q-64 0 -64 -35q0 -23 23.5 -38t86.5 -41q8 -3 12 -5
q87 -41 120.5 -91t33.5 -130zM144 1054l105 -81l105 81l95 -110l-200 -174l-196 174z" />
    <glyph glyph-name="scaron" unicode="&#x161;" horiz-adv-x="485" 
d="M448 158q0 -87 -63 -136t-178 -49q-111 0 -197 43l47 160q74 -37 133 -37q39 0 39 17q0 10 -19 21.5t-69 31.5q-61 28 -88 67t-27 96q0 84 59 135.5t158 51.5q105 0 190 -40l-46 -149q-62 29 -110 29q-38 0 -38 -18q0 -7 2.5 -11.5t10 -8.5t15.5 -7.5t24.5 -11.5
t32.5 -17q71 -33 97.5 -71t26.5 -96zM101 894l105 -81l105 81l95 -110l-200 -174l-196 174z" />
    <glyph glyph-name="uni0162" unicode="&#x162;" horiz-adv-x="614" 
d="M421 -123q0 -31 -12 -55q-37 -73 -156 -73q-47 0 -123 21l31 147q61 -19 83 -19q-2 0 -6.5 1t-6.5 2l-23 5.5t-22 5.5l22 58h-9v560h-209v193h634v-193h-209v-560h-40q46 -34 46 -93z" />
    <glyph glyph-name="uni0163" unicode="&#x163;" horiz-adv-x="444" 
d="M391 -123q0 -43 -21 -71q-40 -57 -147 -57q-47 0 -123 21l31 147l55 -15q22 -4 28 -4q-2 0 -6.5 1t-6.5 2l-43 11q5 26 19 59q-79 23 -110.5 83t-31.5 161v465h209v-124h179v-184h-179v-155q0 -37 11.5 -55t41.5 -18q6 0 24 2q48 7 95 26l32 -175q-54 -23 -97 -31
q40 -34 40 -89z" />
    <glyph glyph-name="Tcaron" unicode="&#x164;" horiz-adv-x="614" 
d="M547 531h-156v-546h-224v546h-156v174h536v-174zM170 1054l105 -81l105 81l95 -110l-200 -174l-196 174z" />
    <glyph glyph-name="tcaron" unicode="&#x165;" horiz-adv-x="532" 
d="M274 708v-161h125v-165h-125v-160q0 -46 8.5 -63.5t34.5 -17.5q35 0 79 19q9 -94 16 -157q-54 -23 -115 -28q-39 -2 -71.5 3t-56 13.5t-42 26.5t-30 33.5t-19.5 44t-12 46.5t-6 53t-2.5 53t-0.5 55h-27v238l27 23v99zM309 860h185l-43 -251h-142v251z" />
    <glyph glyph-name="Tbar" unicode="&#x166;" horiz-adv-x="614" 
d="M-10 723h634v-193h-209v-123h141v-170h-141v-267h-216v267h-141v170h141v123h-209v193z" />
    <glyph glyph-name="tbar" unicode="&#x167;" horiz-adv-x="444" 
d="M244 717v-161h179v-184h-179v-21h178v-153h-178q5 -54 53 -54q15 0 34 3q35 6 85 25l32 -176q-90 -38 -175 -38q-132 0 -185 66t-53 191v468z" />
    <glyph glyph-name="Utilde" unicode="&#x168;" horiz-adv-x="707" 
d="M624 236q0 -123 -77 -193.5t-213 -70.5q-119 0 -194.5 56t-87.5 157q-6 47 -6 98v422h225v-385q0 -98 11 -130.5t57 -32.5q68 0 68 87v77v384h217v-469zM395 782q-26 0 -66.5 17.5t-58.5 17.5q-15 0 -42 -57l-122 80q21 55 61.5 99.5t93.5 44.5q26 0 66 -17.5t59 -17.5
q15 0 42 57l127 -83q-50 -82 -88 -112q-36 -29 -72 -29z" />
    <glyph glyph-name="utilde" unicode="&#x169;" 
d="M558 25q-67 -51 -257 -51q-136 0 -198 59t-62 178v336h216v-269v-25.5v-24.5v-21t1.5 -19.5t4 -15.5t6 -13.5t9 -9t12.5 -6.5t17 -2q19 0 35 3v403h216v-522zM359 622q-26 0 -66.5 17.5t-58.5 17.5q-15 0 -42 -57l-122 80q21 55 61.5 99.5t93.5 44.5q26 0 66 -17.5
t59 -17.5q15 0 42 57l127 -83q-50 -82 -88 -112q-36 -29 -72 -29z" />
    <glyph glyph-name="Umacron" unicode="&#x16a;" horiz-adv-x="707" 
d="M624 236q0 -123 -77 -193.5t-213 -70.5q-119 0 -194.5 56t-87.5 157q-6 47 -6 98v422h225v-385q0 -98 11 -130.5t57 -32.5q68 0 68 87v77v384h217v-469zM533 783h-382v162h382v-162z" />
    <glyph glyph-name="umacron" unicode="&#x16b;" 
d="M558 25q-67 -51 -257 -51q-136 0 -198 59t-62 178v336h216v-269v-25.5v-24.5v-21t1.5 -19.5t4 -15.5t6 -13.5t9 -9t12.5 -6.5t17 -2q19 0 35 3v403h216v-522zM497 623h-382v162h382v-162z" />
    <glyph glyph-name="Ubreve" unicode="&#x16c;" horiz-adv-x="707" 
d="M624 236q0 -123 -77 -193.5t-213 -70.5q-119 0 -194.5 56t-87.5 157q-6 47 -6 98v422h225v-385q0 -98 11 -130.5t57 -32.5q68 0 68 87v77v384h217v-469zM338 778q-192 0 -192 226h159q5 -71 33 -71t33 71h159q0 -226 -192 -226z" />
    <glyph glyph-name="ubreve" unicode="&#x16d;" 
d="M558 25q-67 -51 -257 -51q-136 0 -198 59t-62 178v336h216v-269v-25.5v-24.5v-21t1.5 -19.5t4 -15.5t6 -13.5t9 -9t12.5 -6.5t17 -2q19 0 35 3v403h216v-522zM302 618q-192 0 -192 226h159q5 -71 33 -71t33 71h159q0 -226 -192 -226z" />
    <glyph glyph-name="Uring" unicode="&#x16e;" horiz-adv-x="707" 
d="M624 236q0 -123 -77 -193.5t-213 -70.5q-119 0 -194.5 56t-87.5 157q-6 47 -6 98v422h225v-385q0 -98 11 -130.5t57 -32.5q68 0 68 87v77v384h217v-469zM487 902q0 -68 -43 -106.5t-106 -38.5q-61 0 -104 38.5t-43 106.5t43 106.5t104 38.5q63 0 106 -38.5t43 -106.5z
M354 902q0 17 -16 17q-15 0 -15 -17t15 -17q16 0 16 17z" />
    <glyph glyph-name="uring" unicode="&#x16f;" 
d="M558 25q-67 -51 -257 -51q-136 0 -198 59t-62 178v336h216v-269v-25.5v-24.5v-21t1.5 -19.5t4 -15.5t6 -13.5t9 -9t12.5 -6.5t17 -2q19 0 35 3v403h216v-522zM451 742q0 -68 -43 -106.5t-106 -38.5q-61 0 -104 38.5t-43 106.5t43 106.5t104 38.5q63 0 106 -38.5
t43 -106.5zM318 742q0 17 -16 17q-15 0 -15 -17t15 -17q16 0 16 17z" />
    <glyph glyph-name="Uhungarumlaut" unicode="&#x170;" horiz-adv-x="707" 
d="M624 236q0 -123 -77 -193.5t-213 -70.5q-119 0 -194.5 56t-87.5 157q-6 47 -6 98v422h225v-385q0 -98 11 -130.5t57 -32.5q68 0 68 87v77v384h217v-469zM356 806l155 221l137 -110l-181 -196zM418 923l-173 -202l-111 85l155 221z" />
    <glyph glyph-name="uhungarumlaut" unicode="&#x171;" 
d="M558 25q-67 -51 -257 -51q-136 0 -198 59t-62 178v336h216v-269v-25.5v-24.5v-21t1.5 -19.5t4 -15.5t6 -13.5t9 -9t12.5 -6.5t17 -2q19 0 35 3v403h216v-522zM286 669l155 221l137 -110l-181 -196zM348 786l-173 -202l-111 85l155 221z" />
    <glyph glyph-name="Uogonek" unicode="&#x172;" horiz-adv-x="707" 
d="M281 -39q-33 6 -66 17q-175 64 -175 284v461h216v-448q0 -124 97 -124q98 0 98 124v448h216v-461q0 -184 -132 -263q-29 -17 -59.5 -42.5t-35.5 -39.5q10 0 22 3q46 13 54 15l19 -159q-65 -27 -132 -27q-155 0 -155 121q0 47 33 91z" />
    <glyph glyph-name="uogonek" unicode="&#x173;" 
d="M296 -42h-1q-143 0 -201.5 71.5t-58.5 203.5v323h209v-305q0 -58 13 -82t47 -24q24 0 36 1v410h209v-556l-23 -14q1 1 3.5 2.5t3.5 1.5l-23 -18q-22 -19 -35.5 -32t-15.5 -20q10 0 22 3q46 13 54 15l19 -159q-65 -27 -132 -27q-117 0 -146 71q-9 23 -9 50q0 43 29 85z
" />
    <glyph glyph-name="Wcircumflex" unicode="&#x174;" horiz-adv-x="948" 
d="M911 705q-84 -398 -171 -720h-196l-75 256q-4 14 -9.5 38.5t-7.5 29.5q-2 -4 -4 -14.5t-5.5 -26t-6.5 -26.5l-74 -257h-196q-82 299 -171 720h228q35 -228 47 -292q16 -93 19 -105q2 5 4.5 16t6 28t6.5 30q41 160 68 286h170q44 -194 66 -279q16 -73 18 -79q2 4 3.5 14.5
t3.5 27.5t4 28q19 102 55 325h217zM454 843l-105 -81l-95 110l200 174l196 -174l-91 -110z" />
    <glyph glyph-name="wcircumflex" unicode="&#x175;" horiz-adv-x="784" 
d="M821 547q-80 -295 -168 -562h-185l-51 187q-4 15 -8 39t-5 27q-5 -18 -17 -70.5l-24 -100.5t-22 -82h-185q-82 249 -167 562h220q6 -31 18.5 -103t21.5 -114l5 -32.5t4.5 -30.5t3.5 -15l5 28q6 40 17 86.5l24.5 101l19.5 79.5h169l19 -82t21 -94t15 -86q4 -25 6 -32
q1 0 3 11t5 31l5 33l44 219h206zM402 683l-105 -81l-95 110l200 174l196 -174l-91 -110z" />
    <glyph glyph-name="Ycircumflex" unicode="&#x176;" horiz-adv-x="661" 
d="M640 705q-100 -211 -223 -440v-280h-224v279q-112 209 -222 441h245q47 -125 96 -232q61 135 98 232h230zM314 843l-105 -81l-95 110l200 174l196 -174l-91 -110z" />
    <glyph glyph-name="ycircumflex" unicode="&#x177;" horiz-adv-x="591" 
d="M585 547q-97 -328 -224 -669q-25 -54 -62 -73.5t-106 -19.5q-43 0 -142 30l44 146q32 -11 51 -11q10 0 17 3t12 11.5l7 12t6 18t4 15.5q-110 282 -187 537h228q31 -152 45 -215q18 -87 22 -97q2 6 5 20l8 38t9 40l51 214h212zM298 683l-105 -81l-95 110l200 174l196 -174
l-91 -110z" />
    <glyph glyph-name="Ydieresis" unicode="&#x178;" horiz-adv-x="661" 
d="M640 705q-100 -211 -223 -440v-280h-224v279q-112 209 -222 441h245q47 -125 96 -232q61 135 98 232h230zM288 898q0 -48 -31.5 -77t-75.5 -29t-75.5 29t-31.5 77t31.5 77t75.5 29t75.5 -29t31.5 -77zM550 898q0 -48 -31.5 -77t-75.5 -29t-75.5 29t-31.5 77t31.5 77
t75.5 29t75.5 -29t31.5 -77z" />
    <glyph glyph-name="Zacute" unicode="&#x179;" horiz-adv-x="610" 
d="M542 -15h-535v146q33 77 122.5 217.5t113.5 183.5h-213v173h517v-122q-17 -46 -114.5 -195.5t-137.5 -229.5h247v-173zM377 787h-157l79 222h251z" />
    <glyph glyph-name="zacute" unicode="&#x17a;" horiz-adv-x="500" 
d="M466 -15h-454v134l80.5 122t90.5 141h-155v165h436v-111l-55 -83l-40 -58l-49.5 -73.5t-44.5 -71.5h191v-165zM332 627h-157l79 222h251z" />
    <glyph glyph-name="Zdotaccent" unicode="&#x17b;" horiz-adv-x="610" 
d="M542 -15h-535v146q33 77 122.5 217.5t113.5 183.5h-213v173h517v-122q-17 -46 -114.5 -195.5t-137.5 -229.5h247v-173zM297 760q-46 0 -77.5 30t-31.5 78t31.5 78t77.5 30t77.5 -30t31.5 -78t-31.5 -78t-77.5 -30z" />
    <glyph glyph-name="zdotaccent" unicode="&#x17c;" horiz-adv-x="500" 
d="M466 -15h-454v134l80.5 122t90.5 141h-155v165h436v-111l-55 -83l-40 -58l-49.5 -73.5t-44.5 -71.5h191v-165zM252 600q-46 0 -77.5 30t-31.5 78t31.5 78t77.5 30t77.5 -30t31.5 -78t-31.5 -78t-77.5 -30z" />
    <glyph glyph-name="Zcaron" unicode="&#x17d;" horiz-adv-x="610" 
d="M542 -15h-535v146q33 77 122.5 217.5t113.5 183.5h-213v173h517v-122q-17 -46 -114.5 -195.5t-137.5 -229.5h247v-173zM193 1054l105 -81l105 81l95 -110l-200 -174l-196 174z" />
    <glyph glyph-name="zcaron" unicode="&#x17e;" horiz-adv-x="500" 
d="M466 -15h-454v134l80.5 122t90.5 141h-155v165h436v-111l-55 -83l-40 -58l-49.5 -73.5t-44.5 -71.5h191v-165zM148 894l105 -81l105 81l95 -110l-200 -174l-196 174z" />
    <glyph glyph-name="longs" unicode="&#x17f;" horiz-adv-x="329" 
d="M249 552v-582h-209v584q0 118 66 185t192 67q81 0 166 -38l-43 -178q-68 30 -108 30q-64 0 -64 -68z" />
    <glyph glyph-name="uni0180" unicode="&#x180;" horiz-adv-x="604" 
d="M249 812v-93h143v-153h-143v-23q34 10 80 10q123 0 191.5 -81.5t68.5 -215.5q0 -135 -81 -217t-223 -82q-123 0 -245 37v572h-62v153h62v59zM249 358v-213q9 -1 35 -1q44 0 68.5 32t24.5 84q0 107 -76 107q-31 0 -52 -9z" />
    <glyph glyph-name="uni0181" unicode="&#x181;" horiz-adv-x="811" 
d="M410 731q142 0 228 -34.5t113 -114.5q11 -35 11 -76q0 -73 -52 -125q49 -29 67.5 -70.5t18.5 -100.5q0 -249 -346 -249q-142 0 -261 26v541q-19 -9 -19 -22q0 -20 12 -70l-177 -23q-20 77 -20 110q0 42 15.5 75t38.5 54.5t61 37t71 23.5t81.5 12t80 5t77.5 1zM469 272
h-68v-122q17 -1 51 -1q126 0 126 64q0 59 -109 59zM455 545q-41 0 -54 -1v-93h46q56 0 80 11t24 37q0 46 -96 46z" />
    <glyph glyph-name="uni0182" unicode="&#x182;" horiz-adv-x="650" 
d="M275 288h-16v-132h32q126 0 126 64q0 39 -35 53.5t-107 14.5zM259 477h21q175 0 265 -60t90 -196q0 -128 -90.5 -193t-261.5 -65q-113 0 -233 29v731h520v-192h-311v-54z" />
    <glyph glyph-name="uni0183" unicode="&#x183;" horiz-adv-x="604" 
d="M249 616v-71q34 10 80 10q124 0 192 -81t68 -217q0 -137 -81 -218.5t-223 -81.5q-123 0 -245 37v805h496v-183h-287zM249 360v-215q9 -1 35 -1q45 0 69 32t24 85q0 108 -76 108q-31 0 -52 -9z" />
    <glyph glyph-name="uni0184" unicode="&#x184;" horiz-adv-x="604" 
d="M249 815v-258q34 10 80 10q124 0 192 -82t68 -222q0 -141 -80.5 -223.5t-223.5 -82.5q-123 0 -245 37v587l-104 109q153 83 313 125zM249 372v-227q9 -1 35 -1q45 0 69 33t24 90q0 114 -76 114q-31 0 -52 -9z" />
    <glyph glyph-name="uni0185" unicode="&#x185;" horiz-adv-x="643" 
d="M271 293h-12v-139q52 0 62 1q96 9 96 67q0 71 -146 71zM259 742v-260h14q362 0 362 -260q0 -258 -355 -258q-113 0 -230 27v517l-104 109q153 83 313 125z" />
    <glyph glyph-name="uni0186" unicode="&#x186;" horiz-adv-x="648" 
d="M246 154q68 0 114 47t46 144q0 90 -40.5 143t-127.5 53q-88 0 -192 -51l-62 181q113 68 268 68q183 0 279.5 -101.5t96.5 -289.5q0 -182 -107.5 -287t-276.5 -105q-131 0 -250 70l65 181q97 -53 187 -53z" />
    <glyph glyph-name="uni0187" unicode="&#x187;" horiz-adv-x="720" 
d="M402 541q-68 0 -114 -47t-46 -144q0 -90 40.5 -143t127.5 -53q84 0 192 50l62 -180q-113 -68 -268 -68q-183 0 -279.5 101.5t-96.5 289.5q0 182 107.5 287t276.5 105q54 0 89 -8q47 85 156 85q63 0 137 -37l-53 -175q-50 22 -71 22q-27 0 -37 -32v1l-33 -108
q-101 54 -190 54z" />
    <glyph glyph-name="uni0188" unicode="&#x188;" horiz-adv-x="548" 
d="M351 569q42 83 144 83q18 0 43 -5q43 -9 81 -28l-50 -169q-45 22 -65 22q-6 0 -11.5 -4t-10 -12.5t-8 -16.5t-7.5 -21.5t-6 -22l-5.5 -23.5t-4.5 -21q-78 31 -123 31q-50 0 -75.5 -32t-25.5 -87q0 -59 25 -89t82 -30q59 0 138 34l32 -184q-89 -38 -185 -38
q-153 0 -228.5 84.5t-75.5 222.5q0 131 81.5 219t219.5 88q24 0 35 -1z" />
    <glyph glyph-name="uni0189" unicode="&#x189;" horiz-adv-x="748" 
d="M728 347q0 -191 -113.5 -288.5t-315.5 -97.5q-123 0 -238 24v287h-81v175h81v262q120 22 243 22q200 0 312 -93.5t112 -290.5zM277 272v-117h30q100 0 150 50t50 142q0 191 -195 191h-35v-91h126v-175h-126z" />
    <glyph glyph-name="uni018A" unicode="&#x18a;" horiz-adv-x="876" 
d="M432 731q200 0 312 -93.5t112 -290.5q0 -191 -113.5 -288.5t-315.5 -97.5q-118 0 -238 24v543q-19 -9 -19 -22q0 -20 12 -70l-177 -23q-20 77 -20 110q0 43 17 77t40.5 55.5t65 37t74 22.5t84.5 11t79.5 4.5t75.5 0.5h11zM440 538h-35v-383h30q100 0 150 50t50 142
q0 191 -195 191z" />
    <glyph glyph-name="uni018B" unicode="&#x18b;" horiz-adv-x="650" 
d="M391 288h-16q-72 0 -107 -14t-35 -54q0 -53 88 -62q46 -4 70 -2v132zM370 477h21v54h-311v192h520v-731q-120 -29 -233 -29q-171 0 -261.5 65t-90.5 193q0 136 90 196t265 60z" />
    <glyph glyph-name="uni018C" unicode="&#x18c;" horiz-adv-x="604" 
d="M355 545v71h-287v183h496v-805q-122 -37 -245 -37q-142 0 -223 81.5t-81 218.5q0 136 68 217t192 81q46 0 80 -10zM355 145v215q-21 9 -52 9q-76 0 -76 -108q0 -53 24 -85t69 -32q26 0 35 1z" />
    <glyph glyph-name="uni018D" unicode="&#x18d;" horiz-adv-x="593" 
d="M581 301q0 -66 -34 -125t-91 -100q26 -24 37.5 -50t11.5 -68q0 -32 -9 -59q-39 -117 -223 -117q-105 0 -218 43l47 176q63 -25 110 -33q24 -4 52 -4q32 0 32 2q0 12 -66 47q-75 40 -120 76t-71.5 87t-26.5 116q0 124 77.5 200.5t206.5 76.5q130 0 207.5 -73.5
t77.5 -194.5zM304 188q31 17 48.5 47t17.5 58q0 44 -20.5 66.5t-53.5 22.5t-53 -22t-20 -67q0 -31 18.5 -55.5t62.5 -49.5z" />
    <glyph glyph-name="uni018E" unicode="&#x18e;" horiz-adv-x="606" 
d="M556 -30h-551v191h335v107h-277v188h277v76h-312v191h528v-753z" />
    <glyph glyph-name="uni018F" unicode="&#x18f;" horiz-adv-x="730" 
d="M474 238h-227q22 -90 109 -90q95 0 118 90zM33 426h448q-13 64 -53.5 91t-115.5 27t-198 -57l-58 177q43 26 116 50.5t150 24.5q100 0 176 -29.5t121.5 -83t68 -122.5t22.5 -154q0 -192 -97.5 -293t-257.5 -101q-155 0 -245 97t-90 280q0 32 13 93z" />
    <glyph glyph-name="uni0190" unicode="&#x190;" horiz-adv-x="615" 
d="M337 545q-73 0 -73 -38q0 -54 99 -54h135v-188h-124q-68 0 -103 -12.5t-35 -48.5q0 -55 117 -55q25 0 53 6q64 13 150 49l67 -177q-57 -30 -134 -51t-147 -21q-327 0 -327 243q0 110 90 175q-60 56 -60 136q0 34 7 61q21 82 97.5 125t186.5 43q144 0 262 -74l-72 -178
q-102 59 -189 59z" />
    <glyph glyph-name="uni0191" unicode="&#x191;" horiz-adv-x="574" 
d="M266 256v-239q0 -120 -54.5 -177t-172.5 -57q-53 0 -121 23l29 181q49 -18 78 -18q25 0 25 52v702h524v-191h-308v-85h274v-191h-274z" />
    <glyph glyph-name="florin" unicode="&#x192;" horiz-adv-x="422" 
d="M249 372v-353q0 -234 -228 -234q-24 0 -51 5q-49 9 -76 19l29 181q53 -19 84 -19q33 0 33 52v531q0 37 5 62q16 90 80.5 140t172.5 50q81 0 166 -38l-43 -178q-68 30 -108 30q-62 0 -64 -64h184v-184h-184z" />
    <glyph glyph-name="uni0193" unicode="&#x193;" horiz-adv-x="729" 
d="M397 739q51 0 105 -9q24 50 60 68t96 18q63 0 137 -37l-53 -175q-50 22 -71 22q-27 0 -38 -32l1 1q-3 -12 -11 -36l-12 -36l-43 -18q-71 38 -150 38q-176 0 -176 -196q0 -90 41.5 -143.5t120.5 -53.5q35 0 47 1v245h216v-393q-114 -46 -273 -46q-172 0 -273 103t-101 287
q0 182 107 287t270 105z" />
    <glyph glyph-name="uni0194" unicode="&#x194;" horiz-adv-x="721" 
d="M361 25q-12 -30 -12 -49q0 -11 12 -11t12 11q0 23 -12 49zM484 175l16 -25h-1q66 -106 66 -188q-1 -81 -55.5 -129t-148.5 -48t-148.5 48.5t-55.5 128.5q0 88 67 189l-1 -1l16 25q-102 188 -277 548h236q30 -68 89.5 -191.5t75.5 -159.5q85 169 161 351h234
q-129 -280 -274 -548z" />
    <glyph glyph-name="uni0195" unicode="&#x195;" horiz-adv-x="881" 
d="M544 297v-53q0 -55 10 -77.5t37 -22.5t36.5 22.5t9.5 77.5v312h209v-329q0 -140 -62.5 -205.5t-192.5 -65.5t-193 65.5t-63 205.5v52q0 58 -9 80t-38 22q-23 0 -39 -4v-407h-209v808l209 34v-249q23 5 54 5q137 0 189 -69t52 -202z" />
    <glyph glyph-name="uni0196" unicode="&#x196;" horiz-adv-x="435" 
d="M50 209v514h216v-510q0 -36 10 -52.5t40 -16.5q34 0 100 22l33 -177q-85 -33 -155 -33q-138 0 -191 63.5t-53 189.5z" />
    <glyph glyph-name="uni0197" unicode="&#x197;" horiz-adv-x="362" 
d="M289 -30h-216v304h-101v170h101v279h216v-279h101v-170h-101v-304z" />
    <glyph glyph-name="uni0198" unicode="&#x198;" horiz-adv-x="695" 
d="M360 625q24 28 37 41t39 33.5t55.5 29t65.5 8.5q47 0 83 -17t84 -62l-98 -157q-44 41 -63 41q-16 0 -44 -32l-114 -130q152 -135 323 -410h-239q-32 20 -108 121t-115 137v-258h-216v753h216v-207q30 37 77 90z" />
    <glyph glyph-name="uni0199" unicode="&#x199;" horiz-adv-x="579" 
d="M40 -30v618q0 113 50 165.5t167 52.5q54 0 114 -23l-28 -164q-53 15 -69 15q-25 0 -25 -41v-179l122 142h257q-169 -193 -238 -261q58 -59 123 -152t106 -173h-237q-90 142 -133 190v-190h-209z" />
    <glyph glyph-name="uni019A" unicode="&#x19a;" horiz-adv-x="344" 
d="M357 141l-31 -181q-113 2 -171.5 30.5t-79.5 84.5q-15 38 -15 98v150h-80v155h80v300l209 34v-334h90v-155h-90v-120q0 -29 17.5 -44t70.5 -18z" />
    <glyph glyph-name="uni019B" unicode="&#x19b;" horiz-adv-x="547" 
d="M280 269q-55 -154 -93 -299h-216q79 266 186 492q4 9 12 25t10 21q-99 -37 -106 -39l-50 136h-1q-9 39 -25 117q-2 10 -6.5 29.5l-6.5 28.5q82 26 141 26q123 0 189 -94l126 46l51 -139l-111 -40q106 -249 204 -609h-222l-23 93.5t-31 117.5t-28 88z" />
    <glyph glyph-name="uni019C" unicode="&#x19c;" horiz-adv-x="982" 
d="M491 -2q-86 -42 -176 -42q-83 0 -139 22.5t-85 67t-40 97t-11 126.5v454h216v-431q0 -77 14.5 -109.5t55.5 -32.5q30 0 61 11q-9 53 -9 108v454h216v-431q0 -78 14.5 -110t54.5 -32q38 0 53 2v571h216v-728q-142 -39 -280 -39q-95 0 -161 42z" />
    <glyph glyph-name="uni019D" unicode="&#x19d;" horiz-adv-x="756" 
d="M264 371v-354q0 -120 -53.5 -177t-171.5 -57q-53 0 -121 23l29 181q49 -18 78 -18q25 0 25 52v702h169q118 -118 272 -341v341h215v-753h-161l-26 15q-122 218 -255 386z" />
    <glyph glyph-name="uni019E" unicode="&#x19e;" horiz-adv-x="614" 
d="M40 -30v538q42 60 254 60q143 0 201.5 -70t58.5 -201v-512h-209v494q0 56 -13 79t-47 23q-23 0 -36 -2v-409h-209z" />
    <glyph glyph-name="uni019F" unicode="&#x19f;" horiz-adv-x="790" 
d="M770 347q0 -187 -104.5 -289t-270.5 -102q-78 0 -146 25.5t-119 73.5t-80.5 123t-29.5 169q0 124 52.5 214.5t136.5 134t186 43.5q162 0 268.5 -103t106.5 -289zM395 153q52 0 89 29.5t53 81.5h-285q16 -53 53 -82t90 -29zM395 542q-109 0 -142 -108h283
q-33 108 -141 108z" />
    <glyph glyph-name="Ohorn" unicode="&#x1a0;" horiz-adv-x="790" 
d="M770 347q0 -187 -104.5 -289t-270.5 -102q-78 0 -146 25.5t-119 73.5t-80.5 123t-29.5 169q0 124 52.5 214.5t136.5 134t186 43.5q93 0 170 -36q4 17 4 49q0 3 -4 79h196q8 -52 8 -84q0 -103 -60 -170q61 -97 61 -230zM549 347q0 89 -41 142t-113 53t-113 -53.5
t-41 -141.5q0 -89 41 -141.5t113 -52.5t113 52.5t41 141.5z" />
    <glyph glyph-name="ohorn" unicode="&#x1a1;" horiz-adv-x="607" 
d="M592 264q0 -139 -78.5 -223.5t-209.5 -84.5q-129 0 -209 85t-80 223q0 136 81.5 221t207.5 85q73 0 135 -31q5 16 5 47q0 28 -5 76h182q8 -43 9 -58q1 -14 1 -32q0 -85 -68 -163q29 -64 29 -145zM380 264q0 55 -20 86.5t-56 31.5q-37 0 -57 -31.5t-20 -86.5
q0 -56 20.5 -88t56.5 -32t56 32t20 88z" />
    <glyph glyph-name="uni01A2" unicode="&#x1a2;" horiz-adv-x="1074" 
d="M382 739q114 0 198 -57q80 57 180 57q66 0 114 -15.5t76.5 -41t45.5 -66.5t22.5 -84.5t5.5 -103.5v-458h-216v455q0 69 -14.5 93.5t-49.5 24.5q-19 0 -38 -8q38 -82 38 -188q0 -185 -103.5 -288t-258.5 -103q-152 0 -257 103.5t-105 287.5q0 93 30.5 169t81.5 124
t115.5 73.5t134.5 25.5zM382 153q63 0 102 53.5t39 140.5q0 88 -39 141.5t-102 53.5q-62 0 -101.5 -54.5t-39.5 -140.5q0 -87 39 -140.5t102 -53.5z" />
    <glyph glyph-name="uni01A3" unicode="&#x1a3;" horiz-adv-x="869" 
d="M578 264q0 -138 -77 -223t-204 -85q-125 0 -203.5 85t-78.5 223q0 136 80 221t202 85q88 0 150 -41q63 38 150 38q73 0 121.5 -21t73 -62.5t33.5 -88t9 -112.5v-498h-209v490q0 57 -7.5 81t-30.5 24q-17 0 -26 -3q17 -50 17 -113zM366 264q0 55 -18 86.5t-51 31.5
q-70 0 -70 -118q0 -56 18.5 -88t51.5 -32t51 32t18 88z" />
    <glyph glyph-name="uni01A4" unicode="&#x1a4;" horiz-adv-x="783" 
d="M427 731q174 0 262.5 -63.5t88.5 -199.5q0 -138 -89.5 -202t-264.5 -64h-19v-232h-216v558q-19 -9 -19 -22q0 -20 12 -70l-177 -23q-20 77 -20 110q0 34 10.5 62.5t26 48.5t43.5 36t51 26t62 17t63 10.5t66.5 5.5t61.5 2h58zM437 538q-22 0 -32 -1v-142h19q69 0 101 16.5
t32 57.5q0 38 -30 53.5t-90 15.5z" />
    <glyph glyph-name="uni01A5" unicode="&#x1a5;" horiz-adv-x="604" 
d="M249 593v-28q24 3 45 3q136 0 215.5 -82.5t79.5 -222.5q0 -138 -68 -220.5t-192 -82.5q-46 0 -80 10v-185h-209v803q0 91 31 142t102 68q32 8 84 8q54 0 114 -23l-28 -164q-53 15 -69 15q-25 0 -25 -41zM249 379v-224q21 -9 52 -9q76 0 76 113q0 56 -23 89t-65 33
q-29 0 -40 -2z" />
    <glyph glyph-name="uni01A6" unicode="&#x1a6;" horiz-adv-x="667" 
d="M50 806h215v-76h31q164 0 251.5 -65.5t87.5 -191.5q0 -74 -27.5 -122.5t-86.5 -79.5q50 -71 118.5 -196t106.5 -213h-240q-39 86 -102.5 197.5t-104.5 163.5h-17h-16v-253h-216v836zM292 538q-18 0 -26 -1v-130h14q72 0 103 15.5t31 51.5q0 64 -122 64z" />
    <glyph glyph-name="uni01A7" unicode="&#x1a7;" horiz-adv-x="582" 
d="M313 149q101 0 205 58l63 -182q-120 -69 -268 -69q-150 0 -226.5 60.5t-76.5 173.5q0 108 52 160t181 99q28 10 41 15t29.5 13.5t23 17t6.5 18.5q0 33 -75 33q-68 0 -166 -50l-66 179q116 64 242 64q131 0 208 -64.5t77 -173.5q0 -52 -17.5 -92.5t-51 -67t-65 -42
t-76.5 -31.5q-68 -23 -95 -39.5t-27 -37.5q0 -42 82 -42z" />
    <glyph glyph-name="uni01A8" unicode="&#x1a8;" horiz-adv-x="485" 
d="M263 137q71 0 179 43l37 -179q-102 -45 -215 -45q-123 0 -188.5 48t-65.5 140q0 77 39.5 121t145.5 84q59 23 59 32t-40 9q-55 0 -147 -32l-38 174q103 38 196 38q110 0 173 -50.5t63 -139.5q0 -43 -12 -75.5t-37 -55t-53 -38t-71 -31.5q-70 -27 -70 -34q0 -9 45 -9z" />
    <glyph glyph-name="uni01A9" unicode="&#x1a9;" horiz-adv-x="595" 
d="M462 348q-18 -21 -87 -95t-84 -92h294v-191h-584v149q21 25 165 185h-1l43 48q-33 43 -102.5 124l-89.5 105v142h569v-191h-268q86 -105 145 -184z" />
    <glyph glyph-name="uni01AA" unicode="&#x1aa;" horiz-adv-x="417" 
d="M168 -4v421q-28 -6 -50 -6q-74 0 -131 51.5t-57 144.5q0 97 63 150t155 53q123 0 176 -69t53 -204v-511q0 -29 17.5 -44t70.5 -18q-2 -12 -7 -47.5t-8.5 -53.5t-14.5 -42t-28 -38q-139 2 -189 54t-50 159zM142 584q14 0 26 8v6q0 41 -26 41q-11 0 -17.5 -7.5t-6.5 -18.5
q0 -12 6.5 -20.5t17.5 -8.5z" />
    <glyph glyph-name="uni01AB" unicode="&#x1ab;" horiz-adv-x="444" 
d="M297 144q64 0 132 24q18 -128 18 -190q0 -195 -199 -195q-54 0 -122 24l29 165q47 -18 80 -18q8 0 11 1l9 3q-35 2 -59 7q-89 18 -125 81.5t-36 168.5v468l209 34v-161h179v-184h-179v-155q0 -37 11.5 -55t41.5 -18z" />
    <glyph glyph-name="uni01AC" unicode="&#x1ac;" horiz-adv-x="654" 
d="M239 530h-24q-43 0 -43 -29q0 -20 12 -70l-179 -23q-20 78 -20 110q0 33 7.5 61t18.5 48t31.5 35.5t37.5 25.5t47 17t49.5 10.5t54.5 5.5t53 2h54h15h311v-193h-209v-560h-216v560z" />
    <glyph glyph-name="uni01AD" unicode="&#x1ad;" horiz-adv-x="444" 
d="M244 556h185v-184h-185v-155q0 -36 12 -54.5t43 -18.5q8 0 34 4q47 9 87 25l32 -176q-93 -39 -177 -39q-132 0 -186 66t-54 191v339q0 118 65 185t191 67q81 0 164 -37l-43 -178q-64 29 -106 29q-60 0 -62 -64z" />
    <glyph glyph-name="uni01AE" unicode="&#x1ae;" horiz-adv-x="614" 
d="M415 530v-509q0 -52 25 -52q29 0 78 18l29 -181q-68 -23 -121 -23q-118 0 -172.5 57t-54.5 177v513h-209v193h634v-193h-209z" />
    <glyph glyph-name="Uhorn" unicode="&#x1af;" horiz-adv-x="747" 
d="M451 723h87q53 0 53 33q0 10 -1 35t-1 40h190q8 -52 8 -84q0 -136 -120 -172v-313q0 -142 -79 -224t-237 -82q-156 0 -233.5 82.5t-77.5 223.5v461h216v-373q0 -115 18.5 -157t78.5 -42q98 0 98 124v448z" />
    <glyph glyph-name="uhorn" unicode="&#x1b0;" horiz-adv-x="626" 
d="M549 415v-420q-123 -37 -254 -37q-143 0 -201.5 71.5t-58.5 203.5v323h209v-305q0 -58 13 -82t47 -24q24 0 36 1v410h111q33 1 33 32q0 19 -6 74h178q10 -53 10 -90q0 -51 -29.5 -95t-87.5 -62z" />
    <glyph glyph-name="uni01B1" unicode="&#x1b1;" horiz-adv-x="773" 
d="M387 -44q-162 0 -264 95t-102 264q0 122 68 219h-84v189h363v-159q-60 -53 -93 -109.5t-33 -134.5q0 -81 38.5 -125t106.5 -44t106.5 44t38.5 125q0 77 -33.5 134t-93.5 110v159h363v-189h-84q69 -99 69 -219q0 -169 -102 -264t-264 -95z" />
    <glyph glyph-name="uni01B2" unicode="&#x1b2;" horiz-adv-x="724" 
d="M704 344q0 -189 -93.5 -288.5t-257.5 -99.5q-153 0 -233 85t-80 231v451h216v-438q0 -71 27.5 -102.5t71.5 -31.5q128 0 128 193q0 102 -18 148t-71 46q-18 0 -71 -15l-19 192q66 16 110 16q151 0 220.5 -95t69.5 -292z" />
    <glyph glyph-name="uni01B3" unicode="&#x1b3;" horiz-adv-x="715" 
d="M332 472l58 113q16 33 27.5 51.5t34 45t55 39t74.5 12.5q31 0 59 -7q61 -16 123 -76l-97 -154q-42 42 -59 42q-15 0 -28 -23q-25 -42 -85 -154h1l-56 -105v-286h-216v285q-135 208 -267 468h249q50 -112 127 -251z" />
    <glyph glyph-name="uni01B4" unicode="&#x1b4;" horiz-adv-x="607" 
d="M504 364q-26 -70 -69.5 -201.5l-62.5 -185.5q-38 -99 -98 -145.5t-156 -46.5q-24 0 -52 5q-48 8 -95 29l38 175q66 -23 101 -23q43 0 65 49q-118 236 -205 536h221q36 -139 86 -281q32 113 45 151q22 73 61 105.5t116 32.5q64 0 139 -32l-47 -168q-48 21 -64 21
q-14 0 -23 -22v1z" />
    <glyph glyph-name="uni01B5" unicode="&#x1b5;" horiz-adv-x="610" 
d="M599 723v-150q-46 -48 -116 -134h104v-170h-234q-54 -74 -73 -108h330v-191h-605v130q45 81 103 169h-76v170h196q47 65 71 93h-278v191h578z" />
    <glyph glyph-name="uni01B6" unicode="&#x1b6;" horiz-adv-x="500" 
d="M495 556v-144q-27 -30 -71 -72h51v-148h-178l-33 -43h236v-179h-495v121q31 53 66 101h-34v148h151l30 37h-201v179h478z" />
    <glyph glyph-name="uni01B7" unicode="&#x1b7;" horiz-adv-x="614" 
d="M589 205q0 -126 -88 -188t-242 -62q-141 0 -276 76l67 181q121 -64 208 -64q110 0 110 59q0 69 -141 69h-79v116l9 21q97 96 116 120h-247v190h545v-134q-51 -65 -150 -169q88 -26 128 -78.5t40 -136.5z" />
    <glyph glyph-name="uni01B8" unicode="&#x1b8;" horiz-adv-x="614" 
d="M25 205q0 84 40 137t128 79q-104 110 -150 169v133h545v-190h-247q39 -43 125 -129v-128h-79q-141 0 -141 -69q0 -59 110 -59q90 0 208 61l67 -181q-49 -27 -123 -50t-153 -23q-154 0 -242 62t-88 188z" />
    <glyph glyph-name="uni01B9" unicode="&#x1b9;" horiz-adv-x="515" 
d="M421 242v-129h-84q-117 0 -117 -72q0 -32 24.5 -50t70.5 -18q88 0 182 42l49 -176q-48 -23 -115.5 -38.5t-125.5 -15.5q-140 0 -217.5 63.5t-77.5 186.5q0 155 152 219q-24 35 -74 92.5t-57 67.5v142h483v-184h-203q58 -74 110 -130z" />
    <glyph glyph-name="uni01BA" unicode="&#x1ba;" horiz-adv-x="518" 
d="M361 301q68 -23 100 -63t32 -113q0 -52 -17.5 -89t-56 -62t-82.5 -40.5t-114 -31.5q-45 -11 -45 -24q0 -16 28 -68l-176 -35q-50 58 -50 123q0 55 31 93t75.5 56.5t89 30t75.5 23t31 26.5q0 14 -10.5 21.5t-52 12.5t-119.5 5v129l79 77h-186v184h483v-144
q-77 -77 -115 -111z" />
    <glyph glyph-name="uni01BB" unicode="&#x1bb;" horiz-adv-x="565" 
d="M529 511q0 -53 -33 -103h47v-170h-193q-22 -22 -44 -39t-30.5 -25t-11.5 -19h286v-185h-534q-8 34 -8 75q0 105 75 193h-51v170h215l11.5 11.5l11.5 11.5l10 10.5t10 11l8.5 10t7.5 10.5t5 9t4 10t1 9q0 50 -64 50q-70 0 -163 -85l-109 153q129 120 278 120
q138 0 204.5 -59.5t66.5 -168.5z" />
    <glyph glyph-name="uni01BC" unicode="&#x1bc;" horiz-adv-x="556" 
d="M529 535h-253q-2 -60 -4 -74q139 -17 211.5 -80.5t72.5 -171.5q0 -115 -77.5 -184t-235.5 -69q-57 0 -131 19t-105 36l44 189q66 -30 121 -43q41 -9 68 -9q52 0 75.5 16t23.5 40q0 44 -65 65t-228 21q23 201 26 245h-92v188h549v-188z" />
    <glyph glyph-name="uni01BD" unicode="&#x1bd;" horiz-adv-x="512" 
d="M497 161q0 -99 -70 -152t-204 -53q-65 0 -127.5 13t-94.5 28l36 181q72 -23 131 -32q24 -4 52 -4q69 0 69 21q0 19 -28.5 26t-113.5 7h-113l6 72q2 18 6 50.5t6 57.5h-72v180h497v-180h-232q-1 -5 -1 -14q121 0 187 -50.5t66 -150.5z" />
    <glyph glyph-name="uni01BE" unicode="&#x1be;" horiz-adv-x="489" 
d="M419 374h-175q5 -9 16 -14q31 -19 70.5 -37l61 -28t43 -28t30.5 -47.5t9 -75.5q0 -93 -66 -140.5t-188 -47.5q-113 0 -215 45l37 179q79 -31 140 -40q21 -3 39 -3q45 0 45 9t-66 34h1q-53 19 -80 34t-50.5 44t-31.5 73.5t-8 117.5v234l209 34v-161h179v-182z" />
    <glyph glyph-name="uni01BF" unicode="&#x1bf;" horiz-adv-x="588" 
d="M285 568q133 0 210.5 -71.5t77.5 -194.5q0 -76 -24 -136t-71.5 -103t-101 -72.5t-127.5 -57.5v-148h-209v731q128 52 245 52zM284 380q-15 0 -35 -2v-243q95 48 109 130q3 18 3 39q0 35 -20.5 55.5t-56.5 20.5z" />
    <glyph glyph-name="uni01C0" unicode="&#x1c0;" horiz-adv-x="322" 
d="M55 -215v1014h186v-1014h-186z" />
    <glyph glyph-name="uni01C1" unicode="&#x1c1;" horiz-adv-x="561" 
d="M55 -215v1014h186v-1014h-186zM294 -215v1014h186v-1014h-186z" />
    <glyph glyph-name="uni01C2" unicode="&#x1c2;" horiz-adv-x="570" 
d="M184 487v326h203v-326h183v-168h-183v-30h183v-168h-183v-336h-203v336h-184v168h184v30h-184v168h184z" />
    <glyph glyph-name="uni01C3" unicode="&#x1c3;" horiz-adv-x="286" 
d="M260 810l-2 -315q-1 -53 -16 -137.5t-17 -117.5h-135q-3 31 -17.5 115.5t-15.5 139.5l-3 315q2 1 9.5 5t11 5.5t12 4.5t17 4.5t22.5 2.5t31 1t31 -1t22.5 -2.5t17 -4.5t12 -4.5t11 -5.5t9.5 -5zM269 94q0 -49 -32 -79t-78 -30q-45 0 -77 30t-32 78t30 79t79 31
q46 0 78 -30.5t32 -78.5z" />
    <glyph glyph-name="uni01C4" unicode="&#x1c4;" horiz-adv-x="1300" 
d="M662 344q0 -171 -94.5 -269.5t-281.5 -98.5q-126 0 -235 32v674q117 32 232 32q189 0 284 -97t95 -273zM274 541v-389h20q74 0 107.5 44.5t33.5 150.5q0 104 -32.5 149t-107.5 45h-21zM1226 705l-16 -122q-18 -50 -105 -204.5t-120 -220.5h247v-173h-535l18 118
q66 154 218 429h-213v173h506zM896 991l105 -81l105 81l95 -110l-200 -174l-196 174z" />
    <glyph glyph-name="uni01C5" unicode="&#x1c5;" horiz-adv-x="1215" 
d="M662 344q0 -171 -94.5 -269.5t-281.5 -98.5q-126 0 -235 32v674q117 32 232 32q189 0 284 -97t95 -273zM274 541v-389h20q74 0 107.5 44.5t33.5 150.5q0 104 -32.5 149t-107.5 45h-21zM1179 547q-7 -45 -16 -119l-12 -14q-16 -31 -67.5 -122t-77.5 -142h175v-165h-454
q10 47 28 141q30 63 143 256h-155v165h436zM867 830l105 -81l105 81l95 -110l-200 -174l-196 174z" />
    <glyph glyph-name="uni01C6" unicode="&#x1c6;" horiz-adv-x="1095" 
d="M565 798v-774q-39 -21 -105 -35.5t-139 -14.5q-139 0 -219 75t-80 216q0 134 68.5 212.5t183.5 78.5q48 0 75 -8v233q144 12 216 17zM349 138v258q-14 6 -35 6q-75 0 -75 -130q0 -136 83 -136q11 0 27 2zM1059 547q-7 -45 -16 -119q-14 -17 -29.5 -41.5t-33.5 -57
l-30.5 -56l-33.5 -65l-30 -58.5h175v-165h-454q10 47 28 141q30 63 143 256h-155v165h436zM739 830l105 -81l105 81l95 -110l-200 -174l-196 174z" />
    <glyph glyph-name="uni01C7" unicode="&#x1c7;" horiz-adv-x="1090" 
d="M276 159h224v-174h-449v720h225v-546zM948 705v-556q0 -254 -246 -275q-81 -5 -170 31l37 167q83 -25 116 21q39 50 39 154v458h224z" />
    <glyph glyph-name="uni01C8" unicode="&#x1c8;" horiz-adv-x="848" 
d="M276 159h224v-174h-449v720h225v-546zM604 -214q-49 -9 -115 5l15 127q21 5 42 28q31 6 43 25.5t12 68.5v507h217v-493q0 -117 -55.5 -185.5t-158.5 -82.5zM826 687q0 -47 -34 -77.5t-82 -30.5q-49 0 -83 30.5t-34 77.5t34 77.5t82 30.5q49 0 83 -30.5t34 -77.5z" />
    <glyph glyph-name="uni01C9" unicode="&#x1c9;" horiz-adv-x="603" 
d="M290 -7l-127 -13q-89 25 -111 102q-9 31 -9 83v616q156 13 217 17v-540q0 -77 44 -109q-2 -26 -7 -78t-7 -78zM359 -214q-49 -9 -115 5l15 127q21 5 42 28q31 6 43 25.5t12 68.5v507h217v-493q0 -117 -55.5 -185.5t-158.5 -82.5zM581 687q0 -47 -34 -77.5t-82 -30.5
q-49 0 -83 30.5t-34 77.5t34 77.5t82 30.5q49 0 83 -30.5t34 -77.5z" />
    <glyph glyph-name="uni01CA" unicode="&#x1ca;" horiz-adv-x="1281" 
d="M656 -15h-137l-41 8q-213 358 -225 358q0 -5 1 -30.5t1 -42.5v-293h-204v720h180q87 -108 183 -250q8 -11 21.5 -33.5t17.5 -27.5q0 10 -1 44t-1 55v212h205v-720zM1139 705v-556q0 -254 -246 -275q-81 -5 -170 31l37 167q83 -25 116 21q39 50 39 154v458h224z" />
    <glyph glyph-name="uni01CB" unicode="&#x1cb;" horiz-adv-x="1043" 
d="M656 -15h-137l-41 8q-213 358 -225 358q0 -5 1 -30.5t1 -42.5v-293h-204v720h180q87 -108 183 -250q8 -11 21.5 -33.5t17.5 -27.5q0 10 -1 44t-1 55v212h205v-720zM798 -214q-49 -9 -115 5l15 127q21 5 42 28q31 6 43 25.5t12 68.5v507h217v-493q0 -117 -55.5 -185.5
t-158.5 -82.5zM1020 687q0 -47 -34 -77.5t-82 -30.5q-49 0 -83 30.5t-34 77.5t34 77.5t82 30.5q49 0 83 -30.5t34 -77.5z" />
    <glyph glyph-name="uni01CC" unicode="&#x1cc;" horiz-adv-x="878" 
d="M43 -15v523q79 50 254 50q85 0 139 -17.5t81 -56t36.5 -83.5t9.5 -115v-301h-216v270v17q0 31 -0.5 45.5t-3 33.5t-8 26t-16 13t-26.5 6q-20 0 -33 -2v-409h-217zM634 -214q-49 -9 -115 5l15 127q21 5 42 28q31 6 43 25.5t12 68.5v507h217v-493q0 -117 -55.5 -185.5
t-158.5 -82.5zM856 687q0 -47 -34 -77.5t-82 -30.5q-49 0 -83 30.5t-34 77.5t34 77.5t82 30.5q49 0 83 -30.5t34 -77.5z" />
    <glyph glyph-name="uni01CD" unicode="&#x1cd;" horiz-adv-x="289" 
d="M249 556v-586h-209v586h209zM40 894l105 -81l105 81l95 -110l-200 -174l-196 174z" />
    <glyph glyph-name="uni01CE" unicode="&#x1ce;" horiz-adv-x="553" 
d="M526 11q-108 -36 -250 -36q-262 0 -262 191q0 179 277 192q19 0 27 -1q-7 43 -70 43q-74 0 -158 -32l-37 153q109 38 226 38q208 0 241 -161q6 -33 6 -71v-316zM320 125v103q-21 0 -30 -1q-68 -5 -68 -54q0 -50 63 -50q28 0 35 2zM179 889l105 -81l105 81l95 -110
l-200 -174l-196 174z" />
    <glyph glyph-name="uni01CF" unicode="&#x1cf;" horiz-adv-x="316" 
d="M276 -15h-225v720h225v-720zM57 1054l105 -81l105 81l95 -110l-200 -174l-196 174z" />
    <glyph glyph-name="uni01D0" unicode="&#x1d0;" horiz-adv-x="289" 
d="M249 556v-586h-209v586h209zM40 894l105 -81l105 81l95 -110l-200 -174l-196 174z" />
    <glyph glyph-name="uni01D1" unicode="&#x1d1;" horiz-adv-x="724" 
d="M694 345q0 -170 -88.5 -271t-243.5 -101q-154 0 -243 101t-89 271q0 169 90 271t242 102q153 0 242.5 -101.5t89.5 -271.5zM465 350q0 85 -26 139.5t-77 54.5t-77 -54.5t-26 -139.5q0 -86 26 -140t77 -54t77 54t26 140zM255 1047l105 -81l105 81l95 -110l-200 -174
l-196 174z" />
    <glyph glyph-name="uni01D2" unicode="&#x1d2;" horiz-adv-x="607" 
d="M576 267q0 -132 -75 -213t-202 -81q-126 0 -201.5 81.5t-75.5 212.5q0 129 77 210.5t200 81.5q125 0 201 -81t76 -211zM359 269q0 127 -60 127t-60 -127t60 -127t60 127zM194 894l105 -81l105 81l95 -110l-200 -174l-196 174z" />
    <glyph glyph-name="uni01D3" unicode="&#x1d3;" horiz-adv-x="707" 
d="M624 236q0 -123 -77 -193.5t-213 -70.5q-119 0 -194.5 56t-87.5 157q-6 47 -6 98v422h225v-385q0 -98 11 -130.5t57 -32.5q68 0 68 87v77v384h217v-469zM233 1054l105 -81l105 81l95 -110l-200 -174l-196 174z" />
    <glyph glyph-name="uni01D4" unicode="&#x1d4;" 
d="M558 25q-67 -51 -257 -51q-136 0 -198 59t-62 178v336h216v-269v-25.5v-24.5v-21t1.5 -19.5t4 -15.5t6 -13.5t9 -9t12.5 -6.5t17 -2q19 0 35 3v403h216v-522zM197 894l105 -81l105 81l95 -110l-200 -174l-196 174z" />
    <glyph glyph-name="uni01D5" unicode="&#x1d5;" horiz-adv-x="707" 
d="M334 -28q-151 0 -219.5 79.5t-68.5 231.5v422h225v-385q0 -98 11 -130.5t57 -32.5q47 0 57.5 32t10.5 132v384h217v-469q0 -123 -77 -193.5t-213 -70.5zM152 970v132h400v-132h-400zM343 836q-1 -40 -28.5 -64t-65.5 -24q-41 0 -67.5 25t-26.5 68q0 51 27 73t66 22
q43 0 68.5 -25t26.5 -75zM551 841q0 -42 -27 -67.5t-67 -25.5q-39 0 -66 25.5t-28 71.5q4 88 89 92q17 1 39 -7.5t31 -19.5q29 -37 29 -69z" />
    <glyph glyph-name="uni01D6" unicode="&#x1d6;" 
d="M558 25q-67 -51 -257 -51q-136 0 -198 59t-62 178v336h216v-269v-25.5v-24.5v-21t1.5 -19.5t4 -15.5t6 -13.5t9 -9t12.5 -6.5t17 -2q19 0 35 3v403h216v-522zM74 817v132h400v-132h-400zM265 683q-1 -40 -28.5 -64t-65.5 -24q-41 0 -67.5 25t-26.5 68q0 51 27 73t66 22
q43 0 68.5 -25t26.5 -75zM473 688q0 -42 -27 -67.5t-67 -25.5q-39 0 -66 25.5t-28 71.5q4 88 89 92q17 1 39 -7.5t31 -19.5q29 -37 29 -69z" />
    <glyph glyph-name="uni01D7" unicode="&#x1d7;" horiz-adv-x="707" 
d="M624 236q0 -123 -77 -193.5t-213 -70.5q-119 0 -194.5 56t-87.5 157q-6 47 -6 98v422h225v-385q0 -98 11 -130.5t57 -32.5q68 0 68 87v77v384h217v-469zM226 854l162 231l145 -111l-184 -210zM214 862q0 -48 -31.5 -77t-75.5 -29t-75.5 29t-31.5 77t31.5 77t75.5 29
t75.5 -29t31.5 -77zM707 862q0 -48 -31.5 -77t-75.5 -29t-75.5 29t-31.5 77t31.5 77t75.5 29t75.5 -29t31.5 -77z" />
    <glyph glyph-name="uni01D8" unicode="&#x1d8;" horiz-adv-x="726" 
d="M608 25q-67 -51 -257 -51q-136 0 -198 59t-62 178v336h216v-269v-25.5v-24.5v-21t1.5 -19.5t4 -15.5t6 -13.5t9 -9t12.5 -6.5t17 -2q19 0 35 3v403h216v-522zM236 690l162 231l145 -111l-184 -210zM224 698q0 -48 -31.5 -77t-75.5 -29t-75.5 29t-31.5 77t31.5 77t75.5 29
t75.5 -29t31.5 -77zM717 698q0 -48 -31.5 -77t-75.5 -29t-75.5 29t-31.5 77t31.5 77t75.5 29t75.5 -29t31.5 -77z" />
    <glyph glyph-name="uni01D9" unicode="&#x1d9;" horiz-adv-x="659" 
d="M628 236q0 -123 -77 -193.5t-213 -70.5q-119 0 -194.5 56t-87.5 157q-6 47 -6 98v422h225v-385q0 -98 11 -130.5t57 -32.5q68 0 68 87v77v384h217v-469zM226 1141l105 -81l105 81l95 -110l-200 -174l-196 174zM240 860q0 -48 -31.5 -77t-75.5 -29t-75.5 29t-31.5 77
t31.5 77t75.5 29t75.5 -29t31.5 -77zM633 860q0 -48 -31.5 -77t-75.5 -29t-75.5 29t-31.5 77t31.5 77t75.5 29t75.5 -29t31.5 -77z" />
    <glyph glyph-name="uni01DA" unicode="&#x1da;" horiz-adv-x="627" 
d="M567 25q-67 -51 -257 -51q-136 0 -198 59t-62 178v336h216v-269v-25.5v-24.5v-21t1.5 -19.5t4 -15.5t6 -13.5t9 -9t12.5 -6.5t17 -2q18 0 35 3v403h216v-522zM210 959l105 -81l105 81l95 -110l-200 -174l-196 174zM224 678q0 -48 -31.5 -77t-75.5 -29t-75.5 29t-31.5 77
t31.5 77t75.5 29t75.5 -29t31.5 -77zM617 678q0 -48 -31.5 -77t-75.5 -29t-75.5 29t-31.5 77t31.5 77t75.5 29t75.5 -29t31.5 -77z" />
    <glyph glyph-name="uni01DB" unicode="&#x1db;" horiz-adv-x="702" 
d="M640 236q0 -123 -77 -193.5t-213 -70.5q-119 0 -194.5 56t-87.5 157q-6 47 -6 98v422h225v-385q0 -98 11 -130.5t57 -32.5q68 0 68 87v77v384h217v-469zM689 840q0 -49 -32 -79t-78 -30q-45 0 -77 30t-32 78t30 79t79 31q46 0 78 -30.5t32 -78.5zM234 840q0 -49 -32 -79
t-78 -30q-45 0 -77 30t-32 78t30 79t79 31q46 0 78 -30.5t32 -78.5zM301 1115l162 -231l-123 -90l-184 210z" />
    <glyph glyph-name="uni01DC" unicode="&#x1dc;" horiz-adv-x="594" 
d="M567 25q-67 -51 -257 -51q-136 0 -198 59t-62 178v336h216v-269v-25.5v-24.5v-21t1.5 -19.5t4 -15.5t6 -13.5t9 -9t12.5 -6.5t17 -2q18 0 35 3v403h216v-522zM634 676q0 -49 -32 -79t-78 -30q-45 0 -77 30t-32 78t30 79t79 31q46 0 78 -30.5t32 -78.5zM179 676
q0 -49 -32 -79t-78 -30q-45 0 -77 30t-32 78t30 79t79 31q46 0 78 -30.5t32 -78.5zM246 951l162 -231l-123 -90l-184 210z" />
    <glyph glyph-name="uni01DD" unicode="&#x1dd;" horiz-adv-x="584" 
d="M569 267q0 -147 -83 -229t-199 -82q-128 0 -200 76.5t-72 223.5q0 13 1.5 43t1.5 43h326q-30 40 -103 40q-24 0 -56 -5q-58 -9 -113 -34l-29 181q37 18 99.5 32t118.5 14q152 0 230 -83.5t78 -219.5zM347 180h-122q14 -41 60 -41q42 0 62 41z" />
    <glyph glyph-name="uni01DE" unicode="&#x1de;" horiz-adv-x="721" 
d="M702 -15h-184l-55 11l-19 65q-3 9 -6.5 22.5t-5.5 20.5h-202q-4 -14 -17 -56t-19 -63h-215q145 437 256 720h210q122 -316 257 -720zM389 261l-42 149q-3 11 -5.5 26t-4.5 23.5t-3 10.5l-6 -21q-2 -11 -54 -188h115zM152 970v132h400v-132h-400zM343 836
q-1 -40 -28.5 -64t-65.5 -24q-41 0 -67.5 25t-26.5 68q0 51 27 73t66 22q43 0 68.5 -25t26.5 -75zM551 841q0 -42 -27 -67.5t-67 -25.5q-39 0 -66 25.5t-28 71.5q2 48 27 70t62 22q40 0 69.5 -28t29.5 -68z" />
    <glyph glyph-name="uni01DF" unicode="&#x1df;" horiz-adv-x="553" 
d="M526 11q-108 -36 -250 -36q-262 0 -262 191q0 179 277 192q4 1 13.5 3t13.5 3q-6 36 -70 36q-74 0 -158 -32l-37 153q109 38 226 38q208 0 241 -161q6 -33 6 -71v-316zM320 125v103q-21 0 -30 -1q-68 -5 -68 -54q0 -50 63 -50q28 0 35 2zM74 817v132h400v-132h-400z
M265 683q-1 -40 -28.5 -64t-65.5 -24q-41 0 -67.5 25t-26.5 68q0 51 27 73t66 22q43 0 68.5 -25t26.5 -75zM473 688q0 -42 -27 -67.5t-67 -25.5q-39 0 -66 25.5t-28 71.5q4 88 89 92q39 2 69 -27t30 -69z" />
    <glyph glyph-name="uni01E0" unicode="&#x1e0;" horiz-adv-x="721" 
d="M702 -15h-184l-55 11l-19 65q-3 9 -6.5 22.5t-5.5 20.5h-202q-4 -14 -17 -56t-19 -63h-215q145 437 256 720h210q122 -316 257 -720zM389 261l-42 149q-3 11 -5.5 26t-4.5 23.5t-3 10.5l-6 -21q-2 -11 -54 -188h115zM173 963v140h320v-140h-320zM427 843q0 -42 -27 -67.5
t-67 -25.5q-39 0 -66.5 26t-27.5 67q0 43 27.5 71.5t68.5 28.5q39 0 65.5 -29t26.5 -71z" />
    <glyph glyph-name="uni01E1" unicode="&#x1e1;" horiz-adv-x="553" 
d="M526 11q-108 -36 -250 -36q-262 0 -262 191q0 179 277 192q4 1 13.5 3t13.5 3q-6 36 -70 36q-74 0 -158 -32l-37 153q109 38 226 38q208 0 241 -161q6 -33 6 -71v-316zM320 125v103q-21 0 -30 -1q-68 -5 -68 -54q0 -50 63 -50q28 0 35 2zM107 810v140h320v-140h-320z
M361 690q0 -42 -27 -67.5t-67 -25.5q-39 0 -66.5 26t-27.5 67q0 43 27.5 71.5t68.5 28.5q39 0 65.5 -29t26.5 -71z" />
    <glyph glyph-name="uni01E2" unicode="&#x1e2;" horiz-adv-x="994" 
d="M989 -30h-529v164h-172q-75 -137 -88 -164h-241q271 486 462 753h545v-191h-295v-76h260v-188h-260v-107h318v-191zM460 318v122l-57 -94l-18 -28h75zM793 746h-382v162h382v-162z" />
    <glyph glyph-name="uni01E3" unicode="&#x1e3;" horiz-adv-x="874" 
d="M526 346h121q-14 41 -59 41q-42 0 -62 -41zM261 -41q-256 0 -256 203q0 70 37 115.5t91 62.5t124 17q31 0 55 -3q-16 32 -70 32q-78 0 -164 -31l-28 181q107 34 209 34q112 0 168 -57q69 57 167 57q28 0 58 -5q98 -18 152.5 -93.5t54.5 -201.5q0 -13 -1.5 -43t-1.5 -43
h-326q30 -40 103 -40q84 0 169 39l29 -181q-59 -29 -157 -42q-21 -4 -61 -4q-105 0 -179 42q-75 -39 -173 -39zM319 196q-15 1 -34 1q-72 0 -72 -31q0 -32 58 -32q38 0 61 4q-10 31 -13 58zM611 593h-382v162h382v-162z" />
    <glyph glyph-name="uni01E4" unicode="&#x1e4;" horiz-adv-x="728" 
d="M451 151v24h-97v167h97v74h216v-74h81v-167h-81v-172q-114 -46 -273 -46q-172 0 -273 103t-101 287q0 182 107 287t270 105q152 0 267 -70l-66 -180q-102 54 -180 54q-176 0 -176 -196q0 -90 41.5 -143.5t120.5 -53.5q35 0 47 1z" />
    <glyph glyph-name="uni01E5" unicode="&#x1e5;" horiz-adv-x="602" 
d="M258 -32q68 0 83 45q-29 -8 -71 -8q-123 0 -189 72t-66 203t79.5 209.5t218.5 78.5q117 0 241 -37v-165h68v-150h-68v-150q0 -42 -6 -76q-34 -208 -292 -208q-99 0 -219 41l38 186q101 -41 183 -41zM345 191v25h-75v150h75v23q-9 1 -31 1q-44 0 -66.5 -30t-22.5 -80
q0 -97 73 -97q28 0 47 8z" />
    <glyph glyph-name="Gcaron" unicode="&#x1e6;" horiz-adv-x="702" 
d="M625 18q-92 -44 -244 -44q-176 0 -265 99.5t-89 272.5q0 167 97 269.5t263 102.5q136 0 236 -57l-67 -161q-54 28 -113 34q-189 17 -189 -188q0 -196 124 -196q28 0 32 2v111h-74v171h289v-416zM280 1054l105 -81l105 81l95 -110l-200 -174l-196 174z" />
    <glyph glyph-name="gcaron" unicode="&#x1e7;" horiz-adv-x="594" 
d="M557 34q0 -257 -281 -257q-125 0 -227 42l45 165q57 -25 106 -33q24 -4 56 -4q42 0 66 16.5t24 42.5v7q-33 -11 -80 -11q-111 0 -177.5 70.5t-66.5 193.5q0 137 78.5 214.5t224.5 77.5q137 0 232 -39v-485zM344 160v242q-7 2 -26 2q-79 0 -79 -130q0 -63 17 -91.5
t54 -28.5q19 0 34 6zM205 894l105 -81l105 81l95 -110l-200 -174l-196 174z" />
    <glyph glyph-name="uni01E8" unicode="&#x1e8;" horiz-adv-x="684" 
d="M695 -15h-206q-16 3 -55 7q-75 161 -158 285v-292h-225v720h225v-259q33 36 59 77.5t55.5 99t44.5 82.5h249l-233 -330q109 -147 244 -390zM236 1054l105 -81l105 81l95 -110l-200 -174l-196 174z" />
    <glyph glyph-name="uni01E9" unicode="&#x1e9;" horiz-adv-x="579" 
d="M623 -15h-243q-1 3 -14 32l-27 59l-30 62.5t-29.5 53.5t-19.5 21v-228h-216v795h216v-417q72 107 117 184h239l-186 -246q103 -142 193 -316zM359 894l105 -81l105 81l95 -110l-200 -174l-196 174z" />
    <glyph glyph-name="uni01EA" unicode="&#x1ea;" horiz-adv-x="790" 
d="M549 347q0 89 -41 142t-113 53t-113 -53.5t-41 -141.5q0 -89 41 -141.5t113 -52.5t113 52.5t41 141.5zM328 -38q-138 21 -223 120.5t-85 264.5q0 124 52.5 214.5t136.5 134t186 43.5q162 0 268.5 -103t106.5 -289q0 -208 -144 -319h1q-3 -2 -27.5 -16.5t-45 -28
t-42 -32.5t-26.5 -34q10 0 22 3q46 13 54 15l19 -159q-65 -27 -132 -27q-117 0 -146 71q-9 22 -9 50q0 45 34 92z" />
    <glyph glyph-name="uni01EB" unicode="&#x1eb;" horiz-adv-x="607" 
d="M456 -5q-21 -13 -51.5 -39.5t-34.5 -38.5q10 0 22 3q46 13 54 15l19 -159q-65 -27 -132 -27q-117 0 -146 71q-9 22 -9 50q0 49 39 98q-93 26 -147.5 105t-54.5 191q0 136 81.5 221t207.5 85q128 0 208 -84.5t80 -221.5q0 -184 -136 -269zM380 264q0 55 -20 86.5t-56 31.5
q-37 0 -57 -31.5t-20 -86.5q0 -56 20.5 -88t56.5 -32t56 32t20 88z" />
    <glyph glyph-name="uni01EC" unicode="&#x1ec;" horiz-adv-x="790" 
d="M549 347q0 89 -41 142t-113 53t-113 -53.5t-41 -141.5q0 -89 41 -141.5t113 -52.5t113 52.5t41 141.5zM328 -38q-138 21 -223 120.5t-85 264.5q0 124 52.5 214.5t136.5 134t186 43.5q162 0 268.5 -103t106.5 -289q0 -208 -144 -319h1q-3 -2 -28 -17l-45.5 -28t-41.5 -32
t-26 -34q10 0 22 3q46 13 54 15l19 -159q-65 -27 -132 -27q-117 0 -146 71q-9 22 -9 50q0 45 34 92zM586 746h-382v162h382v-162z" />
    <glyph glyph-name="uni01ED" unicode="&#x1ed;" horiz-adv-x="607" 
d="M456 -5q-18 -10 -50 -38t-36 -40q10 0 22 3q46 13 54 15l19 -159q-65 -27 -132 -27q-117 0 -146 71q-9 22 -9 50q0 49 39 98q-93 26 -147.5 105t-54.5 191q0 136 81.5 221t207.5 85q128 0 208 -84.5t80 -221.5q0 -184 -136 -269zM380 264q0 55 -20 86.5t-56 31.5
q-37 0 -57 -31.5t-20 -86.5q0 -56 20.5 -88t56.5 -32t56 32t20 88zM494 593h-382v162h382v-162z" />
    <glyph glyph-name="uni01EE" unicode="&#x1ee;" horiz-adv-x="614" 
d="M589 205q0 -126 -88 -188t-242 -62q-141 0 -276 76l67 181q121 -64 208 -64q110 0 110 59q0 69 -141 69h-79v116l9 21q97 96 116 120h-247v190h545v-134q-51 -65 -150 -169q88 -26 128 -78.5t40 -136.5zM191 991l105 -81l105 81l95 -110l-200 -174l-196 174z" />
    <glyph glyph-name="uni01EF" unicode="&#x1ef;" horiz-adv-x="515" 
d="M94 113v117l7 20q64 72 102 122h-202v184h483v-142q-17 -22 -66 -81l-65 -79q152 -64 152 -219q0 -123 -77.5 -186.5t-217.5 -63.5q-58 0 -126 15.5t-115 38.5l49 177q101 -43 182 -43q46 0 70.5 18t24.5 50q0 72 -117 72h-84zM140 830l105 -81l105 81l95 -110l-200 -174
l-196 174z" />
    <glyph glyph-name="uni01F0" unicode="&#x1f0;" horiz-adv-x="289" 
d="M21 -215q-58 0 -127 24l29 181q53 -19 84 -19q33 0 33 52v533h209v-537q0 -234 -228 -234zM45 830l105 -81l105 81l95 -110l-200 -174l-196 174z" />
    <glyph glyph-name="uni01F1" unicode="&#x1f1;" horiz-adv-x="1300" 
d="M662 344q0 -171 -94.5 -269.5t-281.5 -98.5q-126 0 -235 32v674q117 32 232 32q189 0 284 -97t95 -273zM274 541v-389h20q74 0 107.5 44.5t33.5 150.5q0 104 -32.5 149t-107.5 45h-21zM1226 705l-16 -122q-18 -50 -105 -204.5t-120 -220.5h247v-173h-535l18 118
q66 154 218 429h-213v173h506z" />
    <glyph glyph-name="uni01F2" unicode="&#x1f2;" horiz-adv-x="1215" 
d="M662 344q0 -171 -94.5 -269.5t-281.5 -98.5q-126 0 -235 32v674q117 32 232 32q189 0 284 -97t95 -273zM274 541v-389h20q74 0 107.5 44.5t33.5 150.5q0 104 -32.5 149t-107.5 45h-21zM1179 547q-7 -45 -16 -119l-12 -14q-16 -31 -67.5 -122t-77.5 -142h175v-165h-454
q10 47 28 141q30 63 143 256h-155v165h436z" />
    <glyph glyph-name="uni01F3" unicode="&#x1f3;" horiz-adv-x="1095" 
d="M565 798v-774q-39 -21 -105 -35.5t-139 -14.5q-139 0 -219 75t-80 216q0 134 68.5 212.5t183.5 78.5q48 0 75 -8v233q144 12 216 17zM349 138v258q-14 6 -35 6q-75 0 -75 -130q0 -136 83 -136q11 0 27 2zM1059 547q-7 -45 -16 -119q-14 -17 -29.5 -41.5t-33.5 -57
l-30.5 -56l-33.5 -65l-30 -58.5h175v-165h-454q10 47 28 141q30 63 143 256h-155v165h436z" />
    <glyph glyph-name="uni01F4" unicode="&#x1f4;" horiz-adv-x="702" 
d="M625 18q-92 -44 -244 -44q-176 0 -265 99.5t-89 272.5q0 167 97 269.5t263 102.5q136 0 236 -57l-67 -161q-54 28 -113 34q-189 17 -189 -188q0 -196 124 -196q28 0 32 2v111h-74v171h289v-416zM464 787h-157l79 222h251z" />
    <glyph glyph-name="uni01F5" unicode="&#x1f5;" horiz-adv-x="594" 
d="M557 34q0 -257 -281 -257q-125 0 -227 42l45 165q57 -25 106 -33q24 -4 56 -4q42 0 66 16.5t24 42.5v7q-33 -11 -80 -11q-111 0 -177.5 70.5t-66.5 193.5q0 137 78.5 214.5t224.5 77.5q137 0 232 -39v-485zM344 160v242q-7 2 -26 2q-79 0 -79 -130q0 -63 17 -91.5
t54 -28.5q19 0 34 6zM389 627h-157l79 222h251z" />
    <glyph glyph-name="uni01F6" unicode="&#x1f6;" horiz-adv-x="1061" 
d="M816 266v298h215v-316q0 -67 -13 -116.5t-43.5 -91t-87.5 -63t-140 -21.5q-65 0 -115 14.5t-82 39.5t-52.5 62t-28.5 79t-8 94v19h-195v-294h-216v753h216v-265h195v265h216v-457q0 -60 16 -88t54 -28q37 0 53 28t16 88z" />
    <glyph glyph-name="uni01F7" unicode="&#x1f7;" horiz-adv-x="671" 
d="M266 -21v-194h-216v884q158 60 274 60q162 0 249.5 -75.5t87.5 -218.5q0 -80 -31 -151.5t-87.5 -127t-124.5 -99t-152 -78.5zM266 532v-339q85 44 129 101.5t44 144.5q0 46 -30.5 71.5t-83.5 25.5q-38 0 -59 -4z" />
    <glyph glyph-name="uni01F8" unicode="&#x1f8;" horiz-adv-x="756" 
d="M656 -15h-137l-41 8q-102 173 -186 297q-6 8 -15 24.5t-15.5 26.5t-8.5 10q0 -5 1 -30.5t1 -42.5v-293h-204v720h180q87 -108 183 -250q8 -11 21.5 -33.5t17.5 -27.5q0 10 -1 44t-1 55v212h205v-720zM442 769h-157l-173 222h251z" />
    <glyph glyph-name="uni01F9" unicode="&#x1f9;" 
d="M563 -15h-216v270v17q0 31 -0.5 45.5t-3 33.5t-8 26t-16 13t-26.5 6q-20 0 -33 -2v-409h-217v523q79 50 254 50q85 0 139 -17.5t81 -56t36.5 -83.5t9.5 -115v-301zM384 609h-157l-173 222h251z" />
    <glyph glyph-name="Aringacute" unicode="&#x1fa;" horiz-adv-x="721" 
d="M726 -15h-239q-23 91 -31 119h-202q-4 -14 -17 -56t-19 -63h-215q145 437 256 720h210q122 -316 257 -720zM413 261l-42 149q-12 48 -16 60q-7 -21 -17 -61q-9 -35 -42 -148h117zM490 865q0 -68 -43 -106.5t-106 -38.5q-61 0 -104 38.5t-43 106.5t43 106.5t104 38.5
q63 0 106 -38.5t43 -106.5zM357 865q0 17 -16 17q-15 0 -15 -17t15 -17q16 0 16 17zM365 1326l139 -128l-211 -178l-109 99z" />
    <glyph glyph-name="aringacute" unicode="&#x1fb;" horiz-adv-x="553" 
d="M526 11q-108 -36 -250 -36q-262 0 -262 191q0 179 277 192q4 1 13.5 3t13.5 3q-6 36 -70 36q-74 0 -158 -32l-37 153q109 38 226 38q208 0 241 -161q6 -33 6 -71v-316zM320 125v103q-21 0 -30 -1q-68 -5 -68 -54q0 -50 63 -50q28 0 35 2zM425 721q0 -68 -43 -106.5
t-106 -38.5q-61 0 -104 38.5t-43 106.5t43 106.5t104 38.5q63 0 106 -38.5t43 -106.5zM292 721q0 17 -16 17q-15 0 -15 -17t15 -17q16 0 16 17zM300 1182l139 -128l-211 -178l-109 99z" />
    <glyph glyph-name="AEacute" unicode="&#x1fc;" horiz-adv-x="994" 
d="M989 -30h-529v164h-172q-75 -137 -88 -164h-241q271 486 462 753h545v-191h-295v-76h260v-188h-260v-107h318v-191zM460 318v122l-57 -94l-18 -28h75zM650 1002l139 -128l-211 -178l-109 99z" />
    <glyph glyph-name="aeacute" unicode="&#x1fd;" horiz-adv-x="874" 
d="M526 346h121q-14 41 -59 41q-42 0 -62 -41zM261 -41q-256 0 -256 203q0 70 37 115.5t91 62.5t124 17q31 0 55 -3q-16 32 -70 32q-78 0 -164 -31l-28 181q107 34 209 34q112 0 168 -57q69 57 167 57q28 0 58 -5q98 -18 152.5 -93.5t54.5 -201.5q0 -13 -1.5 -43t-1.5 -43
h-326q30 -40 103 -40q84 0 169 39l29 -181q-59 -29 -157 -42q-21 -4 -61 -4q-105 0 -179 42q-75 -39 -173 -39zM319 196q-15 1 -34 1q-72 0 -72 -31q0 -32 58 -32q38 0 61 4q-10 31 -13 58zM503 842l139 -128l-211 -178l-109 99z" />
    <glyph glyph-name="Oslashacute" unicode="&#x1fe;" horiz-adv-x="790" 
d="M770 347q0 -187 -104.5 -289t-270.5 -102q-101 0 -172 35l-60 -78l-133 99l65 83q-75 94 -75 252q0 124 52.5 214.5t136.5 134t186 43.5q89 0 169 -36l59 77l133 -99l-63 -81q77 -101 77 -253zM241 347q0 -27 5 -57l190 248q-13 4 -41 4q-72 0 -113 -53.5t-41 -141.5z
M549 347q0 29 -5 59l-193 -248q22 -5 44 -5q72 0 113 52.5t41 141.5zM419 1002l139 -128l-211 -178l-109 99z" />
    <glyph glyph-name="oslashacute" unicode="&#x1ff;" horiz-adv-x="607" 
d="M592 264q0 -139 -78.5 -223.5t-209.5 -84.5q-71 0 -126 26l-47 -63l-118 89l54 69q-52 76 -52 187q0 136 81.5 221t207.5 85q69 0 123 -24l48 62l118 -89l-53 -69q52 -74 52 -186zM219 275l18 23l70 92q-14 0 -31 -5q-54 -22 -57 -110zM388 252l-18 -23l-72 -93
q22 0 34 5q53 22 56 111zM333 842l139 -128l-211 -178l-109 99z" />
    <glyph glyph-name="uni0200" unicode="&#x200;" horiz-adv-x="721" 
d="M702 -15h-184l-55 11q-20 72 -31 108h-202q-4 -14 -17 -56t-19 -63h-215q145 437 256 720h210q122 -316 257 -720zM334 470q-10 -15 -20 -50t-21.5 -85.5t-18.5 -73.5h115q-9 31 -21.5 82.5l-21.5 86.5t-12 40zM263 931l129 104l155 -221l-111 -85zM33 925l137 110
l155 -221l-111 -85z" />
    <glyph glyph-name="uni0201" unicode="&#x201;" horiz-adv-x="553" 
d="M526 11q-108 -36 -250 -36q-262 0 -262 191q0 179 277 192q4 1 13.5 3t13.5 3q-6 36 -70 36q-74 0 -158 -32l-37 153q109 38 226 38q208 0 241 -161q6 -33 6 -71v-316zM320 125v103q-21 0 -30 -1q-68 -5 -68 -54q0 -50 63 -50q28 0 35 2zM175 778l129 104l155 -221
l-111 -85zM-55 772l137 110l155 -221l-111 -85z" />
    <glyph glyph-name="uni0202" unicode="&#x202;" horiz-adv-x="721" 
d="M702 -15h-184l-55 11q-20 72 -31 108h-202q-4 -14 -17 -56t-19 -63h-215q145 437 256 720h210q122 -316 257 -720zM334 470q-10 -15 -20 -50t-21.5 -85.5t-18.5 -73.5h115q-9 31 -21.5 82.5l-21.5 86.5t-12 40zM359 946q192 0 192 -226h-159q-5 71 -33 71t-33 -71h-159
q0 226 192 226z" />
    <glyph glyph-name="uni0203" unicode="&#x203;" horiz-adv-x="553" 
d="M274 836q192 0 192 -226h-159q-5 71 -33 71t-33 -71h-159q0 226 192 226zM526 11q-108 -36 -250 -36q-262 0 -262 191q0 179 277 192q19 0 27 -1q-7 43 -70 43q-74 0 -158 -32l-37 153q109 38 226 38q208 0 241 -161q6 -33 6 -71v-316zM320 125v103q-21 0 -30 -1
q-68 -5 -68 -54q0 -50 63 -50q28 0 35 2z" />
    <glyph glyph-name="uni0204" unicode="&#x204;" horiz-adv-x="606" 
d="M519 -15h-468v720h456v-173h-231v-93h202v-170h-202v-111h243v-173zM263 931l129 104l155 -221l-111 -85zM33 925l137 110l155 -221l-111 -85z" />
    <glyph glyph-name="uni0205" unicode="&#x205;" horiz-adv-x="584" 
d="M558 210l-317 -21q25 -47 100 -47q87 0 158 33l38 -158q-92 -44 -221 -44q-144 0 -219 82t-75 210q0 134 76.5 214t199.5 80q117 0 184 -66t75 -188q0 -16 -1 -23q4 -27 2 -72zM351 331q-6 73 -57 73q-60 0 -62 -82zM175 778l129 104l155 -221l-111 -85zM-55 772l137 110
l155 -221l-111 -85z" />
    <glyph glyph-name="uni0206" unicode="&#x206;" horiz-adv-x="606" 
d="M519 -15h-468v720h456v-173h-231v-93h202v-170h-202v-111h243v-173zM316 946q192 0 192 -226h-159q-5 71 -33 71t-33 -71h-159q0 226 192 226z" />
    <glyph glyph-name="uni0207" unicode="&#x207;" horiz-adv-x="584" 
d="M22 265q0 134 76.5 214t199.5 80q117 0 184 -66t75 -188q0 -16 -1 -23q4 -27 2 -72l-317 -21q25 -47 100 -47q87 0 158 33l38 -158q-92 -44 -221 -44q-144 0 -219 82t-75 210zM232 322l119 9q-6 73 -57 73q-60 0 -62 -82zM300 786q192 0 192 -226h-159q-5 71 -33 71
t-33 -71h-159q0 226 192 226z" />
    <glyph glyph-name="uni0208" unicode="&#x208;" horiz-adv-x="316" 
d="M276 -15h-225v720h225v-720zM78 931l129 104l155 -221l-111 -85zM-152 925l137 110l155 -221l-111 -85z" />
    <glyph glyph-name="uni0209" unicode="&#x209;" horiz-adv-x="289" 
d="M249 556v-586h-209v586h209zM69 778l129 104l155 -221l-111 -85zM-161 772l137 110l155 -221l-111 -85z" />
    <glyph glyph-name="uni020A" unicode="&#x20a;" horiz-adv-x="316" 
d="M51 -15v720h225v-720h-225zM160 994q192 0 192 -226h-159q-5 71 -33 71t-33 -71h-159q0 226 192 226z" />
    <glyph glyph-name="uni020B" unicode="&#x20b;" horiz-adv-x="289" 
d="M249 556v-586h-209v586h209zM146 836q192 0 192 -226h-159q-5 71 -33 71t-33 -71h-159q0 226 192 226z" />
    <glyph glyph-name="uni020C" unicode="&#x20c;" horiz-adv-x="790" 
d="M691 345q0 -170 -88.5 -271t-243.5 -101q-154 0 -243 101t-89 271q0 169 90 271t242 102q153 0 242.5 -101.5t89.5 -271.5zM462 350q0 85 -26 139.5t-77 54.5t-77 -54.5t-26 -139.5q0 -86 26 -140t77 -54t77 54t26 140zM263 931l129 104l155 -221l-111 -85zM33 925
l137 110l155 -221l-111 -85z" />
    <glyph glyph-name="uni020D" unicode="&#x20d;" horiz-adv-x="607" 
d="M576 267q0 -132 -75 -213t-202 -81q-126 0 -201.5 81.5t-75.5 212.5q0 129 77 210.5t200 81.5q125 0 201 -81t76 -211zM359 269q0 127 -60 127t-60 -127t60 -127t60 127zM175 778l129 104l155 -221l-111 -85zM-55 772l137 110l155 -221l-111 -85z" />
    <glyph glyph-name="uni020E" unicode="&#x20e;" horiz-adv-x="790" 
d="M694 345q0 -170 -88.5 -271t-243.5 -101q-154 0 -243 101t-89 271q0 169 90 271t242 102q153 0 242.5 -101.5t89.5 -271.5zM465 350q0 85 -26 139.5t-77 54.5t-77 -54.5t-26 -139.5q0 -86 26 -140t77 -54t77 54t26 140zM339 978q192 0 192 -226h-63q-3 45 -37.5 76
t-91.5 31t-89.5 -31t-35.5 -76h-67q0 226 192 226z" />
    <glyph glyph-name="uni020F" unicode="&#x20f;" horiz-adv-x="607" 
d="M576 267q0 -132 -75 -213t-202 -81q-126 0 -201.5 81.5t-75.5 212.5q0 129 77 210.5t200 81.5q125 0 201 -81t76 -211zM359 269q0 127 -60 127t-60 -127t60 -127t60 127zM303 811q192 0 192 -226h-63q-3 45 -37.5 76t-91.5 31t-89.5 -31t-35.5 -76h-67q0 226 192 226z
" />
    <glyph glyph-name="uni0210" unicode="&#x210;" horiz-adv-x="667" 
d="M665 -15h-246l-97 208l-31 61h-17v-269h-223v696q117 33 238 33q165 0 248 -62t83 -179q0 -57 -32.5 -106.5t-80.5 -75.5v-1q21 -27 44.5 -69t38.5 -73l40.5 -87.5zM395 467q1 37 -14.5 57t-51.5 26q-10 2 -34 2q-15 0 -21 -1v-174q1 0 5 -0.5t7 -0.5q109 0 109 91z
M263 931l129 104l155 -221l-111 -85zM33 925l137 110l155 -221l-111 -85z" />
    <glyph glyph-name="uni0211" unicode="&#x211;" horiz-adv-x="422" 
d="M419 541l-34 -151q-21 2 -41 -3q-24 8 -48 8q-17 1 -36 -2v-408h-217v528q110 44 240 45q66 0 136 -17zM175 778l129 104l155 -221l-111 -85zM-55 772l137 110l155 -221l-111 -85z" />
    <glyph glyph-name="uni0212" unicode="&#x212;" horiz-adv-x="667" 
d="M620 473q0 -57 -32.5 -106t-80.5 -77q21 -27 44.5 -69t38.5 -73l40.5 -87.5l34.5 -75.5h-246l-97 208l-31 61h-17v-269h-223v696q117 33 238 33q165 0 248 -62t83 -179zM295 552q-15 0 -21 -1v-174q1 0 5 -0.5t7 -0.5q109 0 109 91q1 44 -22 64.5t-78 20.5zM322 946
q192 0 192 -226h-159q-5 71 -33 71t-33 -71h-159q0 226 192 226z" />
    <glyph glyph-name="uni0213" unicode="&#x213;" horiz-adv-x="422" 
d="M283 558q66 0 136 -17l-34 -151q-21 2 -41 -3q-24 8 -48 8q-17 1 -36 -2v-408h-217v528q110 44 240 45zM245 786q192 0 192 -226h-159q-5 71 -33 71t-33 -71h-159q0 226 192 226z" />
    <glyph glyph-name="uni0214" unicode="&#x214;" horiz-adv-x="707" 
d="M624 236q0 -123 -77 -193.5t-213 -70.5q-119 0 -194.5 56t-87.5 157q-6 47 -6 98v422h225v-385q0 -98 11 -130.5t57 -32.5q68 0 68 87v77v384h217v-469zM263 931l129 104l155 -221l-111 -85zM33 925l137 110l155 -221l-111 -85z" />
    <glyph glyph-name="uni0215" unicode="&#x215;" 
d="M558 25q-67 -51 -257 -51q-136 0 -198 59t-62 178v336h216v-269v-25.5v-24.5v-21t1.5 -19.5t4 -15.5t6 -13.5t9 -9t12.5 -6.5t17 -2q19 0 35 3v403h216v-522zM175 778l129 104l155 -221l-111 -85zM-55 772l137 110l155 -221l-111 -85z" />
    <glyph glyph-name="uni0216" unicode="&#x216;" horiz-adv-x="707" 
d="M334 -28q-151 0 -219.5 79.5t-68.5 231.5v422h225v-385q0 -98 11 -130.5t57 -32.5q47 0 57.5 32t10.5 132v384h217v-469q0 -123 -77 -193.5t-213 -70.5zM354 946q192 0 192 -226h-159q-5 71 -33 71t-33 -71h-159q0 226 192 226z" />
    <glyph glyph-name="uni0217" unicode="&#x217;" 
d="M558 547v-522q-67 -51 -257 -51q-136 0 -198 59t-62 178v336h216v-269v-25.5v-24.5v-21t1.5 -19.5t4 -15.5t6 -13.5t9 -9t12.5 -6.5t17 -2q19 0 35 3v403h216zM292 786q192 0 192 -226h-159q-5 71 -33 71t-33 -71h-159q0 226 192 226z" />
    <glyph glyph-name="Scommaaccent" unicode="&#x218;" horiz-adv-x="582" 
d="M220 156q68 0 68 39q0 23 -25.5 39.5t-101.5 46.5q-139 68 -139 203q0 29 6 56q18 81 87 129.5t171 48.5q118 0 212 -53l-57 -160q-74 39 -131 39q-64 0 -64 -35q0 -23 23.5 -38t86.5 -41q8 -3 12 -5q87 -41 120.5 -91t33.5 -130q0 -105 -73.5 -168t-204.5 -63
q-146 0 -234 56l57 172q74 -45 153 -45zM207 -66v44h172q7 -42 8 -49q1 -11 1 -18q0 -85 -49 -123t-123 -38q-7 0 -27 2q-33 5 -54 13v135q36 0 54 6.5t18 27.5z" />
    <glyph glyph-name="scommaaccent" unicode="&#x219;" horiz-adv-x="485" 
d="M190 139q39 0 39 17q0 10 -19 21.5t-69 31.5q-61 28 -88 67t-27 96q0 84 59 135.5t158 51.5q105 0 190 -40l-46 -149q-62 29 -110 29q-38 0 -38 -18q0 -7 2.5 -11.5t10 -8.5t15.5 -7.5t24.5 -11.5t32.5 -17q71 -33 97.5 -71t26.5 -96q0 -87 -63 -136t-178 -49
q-111 0 -197 43l47 160q74 -37 133 -37zM157 -66v44h172q7 -42 8 -49q1 -11 1 -18q0 -85 -49 -123t-123 -38q-7 0 -27 2q-33 5 -54 13v135q36 0 54 6.5t18 27.5z" />
    <glyph glyph-name="uni021A" unicode="&#x21a;" horiz-adv-x="614" 
d="M11 705h536v-174h-156v-546h-224v546h-156v174zM216 -66v44h172q7 -42 8 -49q1 -11 1 -18q0 -85 -49 -123t-123 -38q-7 0 -27 2q-33 5 -54 13v135q36 0 54 6.5t18 27.5z" />
    <glyph glyph-name="uni021B" unicode="&#x21b;" horiz-adv-x="444" 
d="M274 708v-161h125v-165h-125v-160q0 -46 8.5 -63.5t34.5 -17.5q35 0 79 19q9 -94 16 -157q-54 -23 -115 -28q-39 -2 -71.5 3t-56 13.5t-42 26.5t-30 33.5t-19.5 44t-12 46.5t-6 53t-2.5 53t-0.5 55h-27v238l27 23v99zM166 -66v44h172q7 -42 8 -49q1 -11 1 -18
q0 -85 -49 -123t-123 -38q-7 0 -27 2q-33 5 -54 13v135q36 0 54 6.5t18 27.5z" />
    <glyph glyph-name="uni021C" unicode="&#x21c;" horiz-adv-x="568" 
d="M215 544q-70 0 -164 -46l-75 179q124 62 244 62q116 0 192.5 -45.5t98.5 -140.5q8 -35 8 -72q0 -97 -78 -169q51 -37 78.5 -91.5t27.5 -115.5q0 -70 -23 -125.5t-63 -91.5t-96 -60t-118 -34t-134 -10q-71 0 -129 9l14 196q68 -8 112 -8q97 0 150 24q66 30 66 94
q0 54 -42.5 78.5t-107.5 24.5h-95v191h87q60 0 95.5 21t35.5 62q0 32 -23 50t-61 18z" />
    <glyph glyph-name="uni021D" unicode="&#x21d;" horiz-adv-x="477" 
d="M177 383q-63 0 -150 -33l-45 181q117 39 195 39q121 0 194 -51.5t73 -156.5q0 -81 -71 -138q91 -59 91 -167q0 -73 -36.5 -126.5t-103.5 -84.5t-149 -46t-184 -16l-13 185q58 2 100 6.5t84 13.5t64 27t22 43q0 55 -106 55h-56v181q145 0 145 55q0 33 -54 33z" />
    <glyph glyph-name="uni021E" unicode="&#x21e;" horiz-adv-x="734" 
d="M422 440v265h224v-720h-224v282h-146v-282h-225v720h225v-265h146zM262 991l105 -81l105 81l95 -110l-200 -174l-196 174z" />
    <glyph glyph-name="uni021F" unicode="&#x21f;" 
d="M260 -15h-217v796q156 13 217 17v-251q25 7 50 8q66 5 113 -7t73.5 -34.5t42 -60.5t20 -75t4.5 -90v-303h-216v270v20q0 31 -0.5 45t-3 32.5t-8 26t-16 13t-26.5 5.5q-23 0 -33 -3v-409zM414 892l-187 -137l-189 137l74 110l115 -65l112 65z" />
    <glyph glyph-name="uni0220" unicode="&#x220;" horiz-adv-x="704" 
d="M659 412v-627h-216v629q0 130 -112 130q-33 0 -65 -3v-571h-216v708q49 61 291 61q171 0 244.5 -86.5t73.5 -240.5z" />
    <glyph glyph-name="uni0221" unicode="&#x221;" horiz-adv-x="782" 
d="M591 12q-16 0 -27 -7v-7q0 -43 27 -43q11 0 18 8t7 19q0 13 -6.5 21.5t-18.5 8.5zM564 812v-634q24 7 51 7q79 0 134 -53t55 -144q0 -98 -60.5 -150.5t-152.5 -52.5q-110 0 -169 72l-69 -75l-119 113l28 31l29 32q-41 3 -81 14q-94 28 -144.5 102.5t-50.5 185.5
q0 144 70 225.5t195 81.5q40 0 75 -10v221zM355 145v227q-21 9 -52 9q-76 0 -76 -114q0 -57 24 -90t69 -33q26 0 35 1z" />
    <glyph glyph-name="uni0222" unicode="&#x222;" horiz-adv-x="712" 
d="M356 145q50 0 83 16.5t33 49.5q0 65 -116 65t-116 -65q0 -33 33 -49.5t83 -16.5zM356 -44q-336 0 -336 247q0 111 96 180q-51 52 -51 155q0 84 27 185h210q-21 -109 -21 -177q0 -83 75 -83t75 83q0 68 -21 177h211q26 -109 26 -185q0 -103 -51 -155q96 -66 96 -180
q0 -247 -336 -247z" />
    <glyph glyph-name="uni0223" unicode="&#x223;" horiz-adv-x="598" 
d="M299 144q36 0 56.5 24t20.5 68q0 43 -21 69t-56 26t-56 -26t-21 -69q0 -44 20.5 -68t56.5 -24zM299 519q53 0 53 91q0 83 -16 196h199q23 -110 23 -194q0 -117 -66 -175q96 -73 96 -207q0 -125 -80 -199.5t-209 -74.5t-209 74.5t-80 199.5q0 134 96 207q-66 58 -66 175
q0 84 23 194h199q-16 -113 -16 -196q0 -91 53 -91z" />
    <glyph glyph-name="uni0224" unicode="&#x224;" horiz-adv-x="610" 
d="M296 -42q37 -11 59 -11q18 0 41 23h-391v130q111 201 294 432h-278v191h578v-138q-1 -3 -4 -10t-4 -11q-61 -62 -151 -179t-159 -224h329v-144q0 -190 -138 -225q-36 -9 -82 -9q-48 0 -119 24z" />
    <glyph glyph-name="uni0225" unicode="&#x225;" horiz-adv-x="500" 
d="M315 -30h-310v126q59 101 202 276h-190v184h478v-141q-151 -170 -220 -261h225v-176q0 -152 -130 -185q-84 -20 -191 16l35 148q34 -12 74 -12q17 0 27 25z" />
    <glyph glyph-name="uni0226" unicode="&#x226;" horiz-adv-x="721" 
d="M726 -15h-239q-23 91 -31 119h-202q-4 -14 -17 -56t-19 -63h-215q145 437 256 720h210q122 -316 257 -720zM413 261l-42 149q-12 48 -16 60q-7 -21 -17 -61q-9 -35 -42 -148h117zM330 760q-46 0 -77.5 30t-31.5 78t31.5 78t77.5 30t77.5 -30t31.5 -78t-31.5 -78
t-77.5 -30z" />
    <glyph glyph-name="uni0227" unicode="&#x227;" horiz-adv-x="553" 
d="M526 11q-108 -36 -250 -36q-262 0 -262 191q0 179 277 192q19 0 27 -1q-7 43 -70 43q-74 0 -158 -32l-37 153q109 38 226 38q208 0 241 -161q6 -33 6 -71v-316zM320 125v103q-21 0 -30 -1q-68 -5 -68 -54q0 -50 63 -50q28 0 35 2zM283 595q-46 0 -77.5 30t-31.5 78
t31.5 78t77.5 30t77.5 -30t31.5 -78t-31.5 -78t-77.5 -30z" />
    <glyph glyph-name="uni0228" unicode="&#x228;" horiz-adv-x="606" 
d="M454 -123q0 -31 -12 -55q-36 -73 -156 -73q-47 0 -123 21l31 147q61 -19 83 -19q-2 0 -6.5 1t-6.5 2l-23 5.5t-22 5.5l22 58h-191v753h528v-191h-312v-76h277v-188h-277v-107h335v-191h-191q44 -34 44 -93z" />
    <glyph glyph-name="uni0229" unicode="&#x229;" horiz-adv-x="584" 
d="M395 -39q33 -33 33 -84q0 -24 -8 -46q-30 -82 -160 -82q-47 0 -123 21l31 147q61 -19 83 -19q-2 0 -6.5 1t-6.5 2q-7 2 -21.5 5.5t-21.5 5.5q7 27 19 59q-99 28 -149 104t-50 184q0 146 83.5 228.5t198.5 82.5q127 0 199.5 -77.5t72.5 -222.5q0 -13 -1.5 -43t-1.5 -43
h-326q30 -40 103 -40q20 0 41 3q69 10 128 36l29 -180q-59 -31 -146 -42zM237 346h121q-14 41 -59 41q-42 0 -62 -41z" />
    <glyph glyph-name="uni022A" unicode="&#x22a;" horiz-adv-x="790" 
d="M691 345q0 -170 -88.5 -271t-243.5 -101q-154 0 -243 101t-89 271q0 169 90 271t242 102q153 0 242.5 -101.5t89.5 -271.5zM462 350q0 85 -26 139.5t-77 54.5t-77 -54.5t-26 -139.5q0 -86 26 -140t77 -54t77 54t26 140zM158 970v132h400v-132h-400zM349 836
q-1 -40 -28.5 -64t-65.5 -24q-41 0 -67.5 25t-26.5 68q0 51 27 73t66 22q43 0 68.5 -25t26.5 -75zM557 841q0 -42 -27 -67.5t-67 -25.5q-39 0 -66 25.5t-28 71.5q2 48 27 70t62 22q40 0 69.5 -28t29.5 -68z" />
    <glyph glyph-name="uni022B" unicode="&#x22b;" horiz-adv-x="607" 
d="M576 267q0 -132 -75 -213t-202 -81q-126 0 -201.5 81.5t-75.5 212.5q0 129 77 210.5t200 81.5q125 0 201 -81t76 -211zM359 269q0 127 -60 127t-60 -127t60 -127t60 127zM97 817v132h400v-132h-400zM288 683q-1 -40 -28.5 -64t-65.5 -24q-41 0 -67.5 25t-26.5 68
q0 51 27 73t66 22q43 0 68.5 -25t26.5 -75zM496 688q0 -42 -27 -67.5t-67 -25.5q-39 0 -66 25.5t-28 71.5q4 88 89 92q39 2 69 -27t30 -69z" />
    <glyph glyph-name="uni022C" unicode="&#x22c;" horiz-adv-x="790" 
d="M691 345q0 -170 -88.5 -271t-243.5 -101q-154 0 -243 101t-89 271q0 169 90 271t242 102q153 0 242.5 -101.5t89.5 -271.5zM462 350q0 85 -26 139.5t-77 54.5t-77 -54.5t-26 -139.5q0 -86 26 -140t77 -54t77 54t26 140zM233 892q49 1 85 -19.5t85 -19.5l135 38l12 -37
q-16 -41 -49.5 -73.5t-80.5 -32.5q-19 0 -54 14.5t-54 14.5q-8 0 -38 -52l-99 78q15 52 58 89zM556 912h-320v140h320v-140z" />
    <glyph glyph-name="uni022D" unicode="&#x22d;" horiz-adv-x="607" 
d="M576 267q0 -132 -75 -213t-202 -81q-126 0 -201.5 81.5t-75.5 212.5q0 129 77 210.5t200 81.5q125 0 201 -81t76 -211zM359 269q0 127 -60 127t-60 -127t60 -127t60 127zM354 597q-26 0 -66.5 17.5t-58.5 17.5q-15 0 -42 -57l-122 80q21 55 61.5 99.5t93.5 44.5
q26 0 66 -17.5t59 -17.5q15 0 42 57l127 -83q-50 -82 -88 -112q-36 -29 -72 -29zM54 847v132h400v-132h-400z" />
    <glyph glyph-name="uni022E" unicode="&#x22e;" horiz-adv-x="790" 
d="M694 345q0 -170 -88.5 -271t-243.5 -101q-154 0 -243 101t-89 271q0 169 90 271t242 102q153 0 242.5 -101.5t89.5 -271.5zM465 350q0 85 -26 139.5t-77 54.5t-77 -54.5t-26 -139.5q0 -86 26 -140t77 -54t77 54t26 140zM358 770q-46 0 -77.5 30t-31.5 78t31.5 78t77.5 30
t77.5 -30t31.5 -78t-31.5 -78t-77.5 -30z" />
    <glyph glyph-name="uni022F" unicode="&#x22f;" horiz-adv-x="607" 
d="M576 267q0 -132 -75 -213t-202 -81q-126 0 -201.5 81.5t-75.5 212.5q0 129 77 210.5t200 81.5q125 0 201 -81t76 -211zM359 269q0 127 -60 127t-60 -127t60 -127t60 127zM303 614q-46 0 -77.5 30t-31.5 78t31.5 78t77.5 30t77.5 -30t31.5 -78t-31.5 -78t-77.5 -30z" />
    <glyph glyph-name="uni0230" unicode="&#x230;" horiz-adv-x="790" 
d="M691 345q0 -170 -88.5 -271t-243.5 -101q-154 0 -243 101t-89 271q0 169 90 271t242 102q153 0 242.5 -101.5t89.5 -271.5zM462 350q0 85 -26 139.5t-77 54.5t-77 -54.5t-26 -139.5q0 -86 26 -140t77 -54t77 54t26 140zM197 963v140h320v-140h-320zM451 843
q0 -42 -27 -67.5t-67 -25.5q-39 0 -66.5 26t-27.5 67q0 43 27.5 71.5t68.5 28.5q39 0 65.5 -29t26.5 -71z" />
    <glyph glyph-name="uni0231" unicode="&#x231;" horiz-adv-x="607" 
d="M576 267q0 -132 -75 -213t-202 -81q-126 0 -201.5 81.5t-75.5 212.5q0 129 77 210.5t200 81.5q125 0 201 -81t76 -211zM359 269q0 127 -60 127t-60 -127t60 -127t60 127zM137 810v140h320v-140h-320zM391 690q0 -42 -27 -67.5t-67 -25.5q-39 0 -66.5 26t-27.5 67
q0 43 27.5 71.5t68.5 28.5q39 0 65.5 -29t26.5 -71z" />
    <glyph glyph-name="uni0232" unicode="&#x232;" horiz-adv-x="661" 
d="M640 705q-100 -211 -223 -440v-280h-224v279q-112 209 -222 441h245q47 -125 96 -232q61 135 98 232h230zM509 783h-382v162h382v-162z" />
    <glyph glyph-name="uni0233" unicode="&#x233;" horiz-adv-x="591" 
d="M585 547q-97 -328 -224 -669q-25 -54 -62 -73.5t-106 -19.5q-43 0 -142 30l44 146q32 -11 51 -11q10 0 17 3t12 11.5l7 12t6 18t4 15.5q-110 282 -187 537h228q31 -152 45 -215q18 -87 22 -97q2 6 5 20l8 38t9 40l51 214h212zM486 593h-382v162h382v-162z" />
    <glyph glyph-name="uni0234" unicode="&#x234;" horiz-adv-x="509" 
d="M318 12q-15 0 -28 -8v-6q0 -43 28 -43q11 0 18 8t7 19q0 13 -6.5 21.5t-18.5 8.5zM143 -140l-71 -78l-119 113l129 144v105v633l209 34v-632q23 6 51 6q80 0 134.5 -52.5t54.5 -144.5q0 -98 -60.5 -150.5t-152.5 -52.5q-115 0 -175 75z" />
    <glyph glyph-name="uni0235" unicode="&#x235;" horiz-adv-x="772" 
d="M581 12q-15 0 -28 -8v-6q0 -43 28 -43q11 0 18 8t7 19q0 13 -6.5 21.5t-18.5 8.5zM554 297v-119q24 7 51 7q80 0 134.5 -52.5t54.5 -144.5q0 -39 -11 -74q-21 -63 -75.5 -96t-126.5 -33q-115 0 -175 75l-71 -78l-119 113l129 144v60v180q0 56 -13 79t-47 23q-23 0 -36 -2
v-409h-209v561q130 37 254 37q143 0 201.5 -70t58.5 -201z" />
    <glyph glyph-name="uni0236" unicode="&#x236;" horiz-adv-x="509" 
d="M291 372v-194q25 7 51 7q80 0 134.5 -52.5t54.5 -144.5q0 -98 -60.5 -150.5t-152.5 -52.5q-115 0 -175 75l-71 -78l-119 113l129 144v72v572l209 34v-161h179v-184h-179zM318 11q-15 0 -28 -8v-6q0 -43 28 -43q11 0 18 8t7 19q0 13 -6.5 21.5t-18.5 8.5z" />
    <glyph glyph-name="uni0237" unicode="&#x237;" horiz-adv-x="289" 
d="M21 -215q-58 0 -127 24l29 181q53 -19 84 -19q33 0 33 52v533h209v-537q0 -234 -228 -234z" />
    <glyph glyph-name="uni0238" unicode="&#x238;" horiz-adv-x="919" 
d="M564 372v-227q9 -1 35 -1q45 0 69 33t24 90q0 114 -76 114q-31 0 -52 -9zM564 812v-255q34 10 80 10q124 0 192 -82t68 -222q0 -141 -80.5 -223.5t-223.5 -82.5q-61 0 -140 24q-81 -24 -141 -24q-142 0 -223 81.5t-81 221.5q0 144 70 225.5t195 81.5q40 0 75 -10v221z
M355 145v227q-21 9 -52 9q-76 0 -76 -114q0 -57 24 -90t69 -33q26 0 35 1z" />
    <glyph glyph-name="uni0239" unicode="&#x239;" horiz-adv-x="919" 
d="M564 380v-225q21 -9 52 -9q76 0 76 113q0 57 -24 89.5t-69 32.5q-26 0 -35 -1zM564 -30v-185h-209v185q-34 -10 -80 -10q-124 0 -192 81t-68 222q0 138 81 221.5t223 83.5q55 0 140 -26q85 26 141 26q143 0 223.5 -82t80.5 -223q0 -138 -68 -220.5t-192 -82.5
q-46 0 -80 10zM355 155v225q-9 1 -35 1q-45 0 -69 -32.5t-24 -89.5q0 -113 76 -113q31 0 52 9z" />
    <glyph glyph-name="uni023A" unicode="&#x23a;" horiz-adv-x="825" 
d="M517 789l149 -42l-73 -200q28 -65 61.5 -152l84 -222l70.5 -187h-208q-31 91 -43 118h-126l-86 -235l-146 49l68 186h-17l-20 -57.5t-22 -60.5h-196q165 467 295 738h177q2 -8 3 -15zM299 261h26l85 234q-2 8 -8 20q-75 -170 -103 -254zM489 261h13q-6 16 -7 18z" />
    <glyph glyph-name="uni023B" unicode="&#x23b;" horiz-adv-x="661" 
d="M486 826l159 -44l-30 -88l24 -12q24 -2 38 -2l-70 -197q-37 20 -53 25l-117 -353q33 3 66 11q41 11 99 38l62 -180q-113 -68 -268 -68h-26l-31 -95l-154 45l27 86q-192 86 -192 355q0 182 107.5 287t276.5 105q37 0 52 -2zM242 350q0 -94 39 -145l111 335q-27 -2 -39 -6
q-50 -15 -80.5 -60.5t-30.5 -123.5z" />
    <glyph glyph-name="uni023C" unicode="&#x23c;" horiz-adv-x="514" 
d="M319 -44q-28 0 -44 2l-27 -84l-137 39l28 89q-61 41 -92.5 109t-31.5 152q0 131 81.5 219t219.5 88q2 0 4 -0.5t4 -0.5l26 79l137 -37l-23 -69l55 -21l-47 -178q-48 21 -63 25l-74 -224q16 0 37 3q48 9 100 31l32 -184q-89 -38 -185 -38zM161 331q-18 -47 -5.5 -106.5
t46.5 -85.5l91 285q-36 8 -75.5 -20.5t-56.5 -72.5z" />
    <glyph glyph-name="uni023D" unicode="&#x23d;" horiz-adv-x="574" 
d="M277 164h307v-194h-523v316h-81v170h81v267h216v-267h137v-170h-137v-122z" />
    <glyph glyph-name="uni023E" unicode="&#x23e;" horiz-adv-x="759" 
d="M401 446l30 85h-30v-85zM177 -67v245v353h-156v174h476l24 71l99 -11l115 -16l-16 -44l-17 -44l-33 -94l-13 -36l-55 -150l-196 -538l-208 42l17 48h-37z" />
    <glyph glyph-name="uni023F" unicode="&#x23f;" horiz-adv-x="485" 
d="M350 -35q13 0 88 11l20 -171q-42 -11 -97 -18q-24 -2 -28 -2q-103 0 -194 103q0 1 -14 18t-17 20t-15.5 17.5t-19.5 20.5l-19.5 17t-24.5 19.5t-26 16.5l60 155q89 -35 159 -35q44 0 44 9q0 8 -68 34h1q-90 33 -133 74.5t-43 125.5q0 89 63 139.5t173 50.5q93 0 196 -38
l-38 -174q-64 22 -111 29q-18 3 -36 3q-40 0 -40 -9t62 -33h-1q109 -40 146 -82.5t37 -121.5q0 -121 -113 -159q-23 -8 -47 -11q10 -6 17 -7q6 -2 19 -2z" />
    <glyph glyph-name="uni0240" unicode="&#x240;" horiz-adv-x="500" 
d="M523 -20l20 -175q-37 -11 -77 -16q-29 -4 -48 -4q-45 0 -84.5 19t-68 46l-56.5 54.5t-64 46.5t-77 19h-63v126q59 101 202 276h-190v184h478v-130q-4 -11 -48 -63.5l-106.5 -129t-100.5 -129.5q37 -19 93 -73l33.5 -31.5t30 -20.5t33.5 -10q33 0 93 11z" />
    <glyph glyph-name="uni0241" unicode="&#x241;" horiz-adv-x="507" 
d="M292 176v-206h-216v228q0 46 12 82.5t38.5 66t43.5 44t53 40.5v-1q23 16 32.5 24t19 22t9.5 29q0 36 -67 36q-38 0 -91 -16.5t-90 -37.5l-71 182q53 28 123 49t131 21q136 0 210.5 -58.5t74.5 -163.5q0 -75 -27 -120t-78 -85l-29 -21.5t-32 -25.5t-21.5 -23t-19.5 -31.5
t-5 -34.5z" />
    <glyph glyph-name="uni0242" unicode="&#x242;" horiz-adv-x="450" 
d="M276 103v-133h-209v145q0 36 9 65t27 51.5t33 35t40 30.5q8 7 23 18l23 17t14.5 15.5t6.5 18.5q0 16 -42 16q-71 0 -164 -50l-67 174q39 21 107.5 42.5t124.5 21.5q118 0 183 -52t65 -143q0 -113 -84 -170v1l-17.5 -12t-19 -14t-16 -13t-16 -14.5t-10.5 -14t-8.5 -17.5
t-2.5 -18z" />
    <glyph glyph-name="uni0243" unicode="&#x243;" horiz-adv-x="672" 
d="M311 -39q-136 0 -261 26v152h-70v148h70v420q127 24 241 24q332 0 332 -225q0 -73 -52 -125q49 -29 67.5 -70.5t18.5 -100.5q0 -249 -346 -249zM356 273v-12v-38v-12v-12v-50q22 2 31 5q52 15 52 59q0 54 -83 60zM262 544v-93h46q56 0 80 11t24 37q0 46 -96 46
q-46 0 -54 -1z" />
    <glyph glyph-name="uni0244" unicode="&#x244;" horiz-adv-x="749" 
d="M372 -44q-156 0 -233.5 82.5t-77.5 223.5v35h-81v170h81v256h216v-256h195v256h216v-256h81v-170h-81v-35q0 -142 -79 -224t-237 -82zM374 151q80 0 95 84q3 18 3 40v22h-195v-22q0 -23 3 -41q15 -83 94 -83z" />
    <glyph glyph-name="uni0245" unicode="&#x245;" horiz-adv-x="722" 
d="M754 -30h-235q-118 353 -162 460q-32 -82 -160 -460h-228q143 422 298 753h169l27 -17q142 -302 291 -736z" />
    <glyph glyph-name="uni0246" unicode="&#x246;" horiz-adv-x="606" 
d="M606 -30h-277l-41 -109l-143 51l23 58h-118v753h403l35 90l145 -47l-120 -310h35v-188h-106l-40 -107h204v-191zM266 532v-76h86l30 76h-116zM266 268v-40l7 20l8 20h-15z" />
    <glyph glyph-name="uni0247" unicode="&#x247;" horiz-adv-x="597" 
d="M28 263q0 91 32.5 156t84 96t106.5 41.5t109 2.5l23 75l154 -34l-23 -69q44 -17 73.5 -38t46 -40.5t24.5 -51t9.5 -56t1.5 -69.5q0 -48 -2 -66l-249 -22l-22 -58q66 -23 216 45l25 -158q-33 -28 -118 -43t-168 -3l-27 -60l-150 20l22 70q-168 46 -168 262zM238 322l54 2
l29 103q-22 0 -40 -19.5t-25.5 -38t-17.5 -47.5zM250 188l-31 -5q-4 -20 0.5 -27t18.5 -5zM452 328l28 3q21 60 0 90z" />
    <glyph glyph-name="uni0248" unicode="&#x248;" horiz-adv-x="550" 
d="M489 723v-272h81v-170h-81v-48q0 -61 -13.5 -108.5t-44 -87t-87 -60.5t-136.5 -21q-126 0 -236 74l75 175q95 -56 149 -56q41 0 59 21.5t18 70.5v40h-121v170h121v272h216z" />
    <glyph glyph-name="uni0249" unicode="&#x249;" horiz-adv-x="299" 
d="M23 -215q-58 0 -127 24l29 181q25 -9 49 -15q17 -4 35 -4q33 0 33 52v181h-87v153h87v199h209v-199h68v-153h-68v-185q0 -234 -228 -234zM265 678q0 -54 -34.5 -86t-84.5 -32t-84.5 32t-34.5 86t34.5 86t84.5 32t84.5 -32t34.5 -86z" />
    <glyph glyph-name="uni024A" unicode="&#x24a;" horiz-adv-x="812" 
d="M549 347q0 89 -41 142t-113 53t-113 -53.5t-41 -141.5q0 -89 41 -141.5t113 -52.5q74 0 114 50.5t40 143.5zM775 -217q-119 0 -172.5 50t-54.5 167q-69 -44 -163 -44q-155 0 -260 103t-105 288q0 124 52.5 214.5t136.5 134t186 43.5q161 0 265 -103t104 -289v-326
q0 -52 25 -52q29 0 78 18l29 -181q-39 -14 -74 -19q-28 -4 -47 -4z" />
    <glyph glyph-name="uni024B" unicode="&#x24b;" horiz-adv-x="604" 
d="M355 -29q-39 -11 -80 -11q-124 0 -192 81t-68 222q0 138 81 221.5t223 83.5q123 0 245 -37v-520q0 -43 17 -43q18 0 76 13l32 -171q-74 -25 -138 -25q-97 0 -145 44t-51 142zM355 155v225q-9 1 -35 1q-45 0 -69 -32.5t-24 -89.5q0 -113 76 -113q31 0 52 9z" />
    <glyph glyph-name="uni024C" unicode="&#x24c;" horiz-adv-x="678" 
d="M310 223h-17h-16v-253h-216v253h-81v184h81v300q128 24 233 24q352 0 352 -258q0 -133 -114 -202q97 -140 173 -301h-240q-115 201 -155 253zM303 538q-18 0 -26 -1v-130h14q72 0 103 15.5t31 51.5q0 64 -122 64z" />
    <glyph glyph-name="uni024D" unicode="&#x24d;" horiz-adv-x="428" 
d="M294 567q82 0 160 -31l-39 -182q-44 26 -101 26q-33 0 -57 -12v-61h127v-153h-127v-184h-209v184h-68v153h68v212q136 48 246 48z" />
    <glyph glyph-name="uni024E" unicode="&#x24e;" horiz-adv-x="764" 
d="M490 -30h-218v283q-60 89 -115 183h-138v169h48q-18 31 -62 118h246q33 -80 54 -118h156q24 44 58 118h238l-63 -118h47v-169h-141q-49 -86 -110 -181v-285zM303 436l76 -94l80 94h-156z" />
    <glyph glyph-name="uni024F" unicode="&#x24f;" horiz-adv-x="650" 
d="M623 240h-101q-55 -151 -111 -270q-48 -102 -100.5 -143.5t-144.5 -41.5q-24 0 -52 5q-48 8 -95 29l38 175q66 -23 101 -23q43 0 65 49q-57 116 -99 220h-104v153h48q-19 56 -51 163h220q26 -105 44 -163h87q7 26 20.5 81t21.5 82h216l-50 -163h47v-153zM284 193
q0 1 4.5 -13l11 -34l13 -40.5l11.5 -35.5l4 -14l41 135q-85 -1 -85 2z" />
    <glyph glyph-name="uni0259" unicode="&#x259;" horiz-adv-x="584" 
d="M23 322l317 21q-25 47 -100 47q-87 0 -158 -33l-38 158q92 44 221 44q144 0 219 -82t75 -210q0 -134 -76.5 -214t-199.5 -80q-117 0 -184 66t-75 188q0 10 -1 43t0 52zM230 201q6 -73 57 -73q60 0 62 82z" />
    <glyph glyph-name="uni0292" unicode="&#x292;" horiz-adv-x="515" 
d="M94 113v117l7 20q64 72 102 122h-202v184h483v-142q-17 -22 -66 -81l-65 -79q152 -64 152 -219q0 -123 -77.5 -186.5t-217.5 -63.5q-58 0 -126 15.5t-115 38.5l49 177q101 -43 182 -43q46 0 70.5 18t24.5 50q0 72 -117 72h-84z" />
    <glyph glyph-name="uni02BB" unicode="&#x2bb;" horiz-adv-x="313" 
d="M155 869l78 -39q-43 -79 -41 -121q36 -6 53.5 -28t16.5 -47q-2 -67 -69 -87q-63 -14 -105 18q-34 29 -37 68q-8 97 104 236z" />
    <glyph glyph-name="apostrophe" unicode="&#x2bc;" horiz-adv-x="272" 
d="M60 806h169l30 -30q0 -82 -20 -142t-65 -129l-152 43q50 107 50 183q0 31 -12 75z" />
    <glyph glyph-name="circumflex" unicode="&#x2c6;" horiz-adv-x="398" 
d="M199 619l-105 -81l-95 110l200 174l196 -174l-91 -110z" />
    <glyph glyph-name="caron" unicode="&#x2c7;" horiz-adv-x="388" 
d="M95 830l105 -81l105 81l95 -110l-200 -174l-196 174z" />
    <glyph glyph-name="uni02C8" unicode="&#x2c8;" horiz-adv-x="278" 
d="M50 597v327h178v-327h-178z" />
    <glyph glyph-name="uni02C9" unicode="&#x2c9;" horiz-adv-x="376" 
d="M379 593h-382v162h382v-162z" />
    <glyph glyph-name="breve" unicode="&#x2d8;" horiz-adv-x="410" 
d="M205 568q-192 0 -192 226h159q5 -71 33 -71t33 71h159q0 -226 -192 -226z" />
    <glyph glyph-name="dotaccent" unicode="&#x2d9;" horiz-adv-x="246" 
d="M123 570q-46 0 -77.5 30t-31.5 78t31.5 78t77.5 30t77.5 -30t31.5 -78t-31.5 -78t-77.5 -30z" />
    <glyph glyph-name="ring" unicode="&#x2da;" horiz-adv-x="324" 
d="M310 699q0 -68 -43 -106.5t-106 -38.5q-61 0 -104 38.5t-43 106.5t43 106.5t104 38.5q63 0 106 -38.5t43 -106.5zM177 699q0 17 -16 17q-15 0 -15 -17t15 -17q16 0 16 17z" />
    <glyph glyph-name="ogonek" unicode="&#x2db;" horiz-adv-x="312" 
d="M176 -251q-155 0 -155 121q0 84 125 175h140l12 -51q-3 -2 -9 -5.5t-9 -5.5q1 1 3.5 2.5t3.5 1.5q-10 -7 -40 -33t-34 -37q6 0 12 1q16 3 64 17l19 -159q-65 -27 -132 -27z" />
    <glyph glyph-name="tilde" unicode="&#x2dc;" horiz-adv-x="373" 
d="M256 592q-26 0 -66.5 17.5t-58.5 17.5q-15 0 -42 -57l-122 80q21 55 61.5 99.5t93.5 44.5q26 0 66 -17.5t59 -17.5q15 0 42 57l127 -83q-50 -82 -88 -112q-36 -29 -72 -29z" />
    <glyph glyph-name="hungarumlaut" unicode="&#x2dd;" horiz-adv-x="434" 
d="M230 622l155 221l137 -110l-181 -196zM292 739l-173 -202l-111 85l155 221z" />
    <glyph glyph-name="gravecomb" unicode="&#x300;" horiz-adv-x="0" 
d="M-201 576h-157l-173 222h251z" />
    <glyph glyph-name="acutecomb" unicode="&#x301;" horiz-adv-x="0" 
d="M-227 576h-157l79 222h251z" />
    <glyph glyph-name="uni0302" unicode="&#x302;" horiz-adv-x="0" 
d="M-314 659l-105 -81l-95 110l200 174l196 -174l-91 -110z" />
    <glyph glyph-name="tildecomb" unicode="&#x303;" horiz-adv-x="0" 
d="M-276 577q-26 0 -66.5 17.5t-58.5 17.5q-15 0 -42 -57l-122 80q21 55 61.5 99.5t93.5 44.5q26 0 66 -17.5t59 -17.5q15 0 42 57l127 -83q-50 -82 -88 -112q-36 -29 -72 -29z" />
    <glyph glyph-name="uni0304" unicode="&#x304;" horiz-adv-x="0" 
d="M-117 593h-382v162h382v-162z" />
    <glyph glyph-name="uni0306" unicode="&#x306;" horiz-adv-x="0" 
d="M-311 613q-192 0 -192 226h159q5 -71 33 -71t33 71h159q0 -226 -192 -226z" />
    <glyph glyph-name="uni0307" unicode="&#x307;" horiz-adv-x="0" 
d="M-317 614q-46 0 -77.5 30t-31.5 78t31.5 78t77.5 30t77.5 -30t31.5 -78t-31.5 -78t-77.5 -30z" />
    <glyph glyph-name="uni0308" unicode="&#x308;" horiz-adv-x="0" 
d="M-315 692q0 -48 -31.5 -77t-75.5 -29t-75.5 29t-31.5 77t31.5 77t75.5 29t75.5 -29t31.5 -77zM-32 692q0 -48 -31.5 -77t-75.5 -29t-75.5 29t-31.5 77t31.5 77t75.5 29t75.5 -29t31.5 -77z" />
    <glyph glyph-name="uni030A" unicode="&#x30a;" horiz-adv-x="0" 
d="M-163 739q0 -68 -43 -106.5t-106 -38.5q-61 0 -104 38.5t-43 106.5t43 106.5t104 38.5q63 0 106 -38.5t43 -106.5zM-270 739q0 19 -13 31.5t-29 12.5t-28.5 -12.5t-12.5 -31.5q0 -20 12.5 -32.5t28.5 -12.5t29 13t13 32z" />
    <glyph glyph-name="uni030B" unicode="&#x30b;" horiz-adv-x="0" 
d="M-324 662l155 221l137 -110l-181 -196zM-262 779l-173 -202l-111 85l155 221z" />
    <glyph glyph-name="uni030C" unicode="&#x30c;" horiz-adv-x="0" 
d="M-409 880l105 -81l105 81l95 -110l-200 -174l-196 174z" />
    <glyph glyph-name="uni030D" unicode="&#x30d;" horiz-adv-x="0" 
d="M-391 597v327h178v-327h-178z" />
    <glyph glyph-name="uni030E" unicode="&#x30e;" horiz-adv-x="0" 
d="M-520 597v327h178v-327h-178zM-289 597v327h178v-327h-178z" />
    <glyph glyph-name="uni030F" unicode="&#x30f;" horiz-adv-x="0" 
d="M-465 883l155 -221l-111 -85l-181 196zM-199 577l-173 202l129 104l155 -221z" />
    <glyph glyph-name="uni0310" unicode="&#x310;" horiz-adv-x="0" 
d="M-323 668q192 0 192 226h-63q-3 -45 -37.5 -76t-91.5 -31t-89.5 31t-35.5 76h-67q0 -226 192 -226zM-322 844q-46 0 -77.5 30t-31.5 78t31.5 78t77.5 30t77.5 -30t31.5 -78t-31.5 -78t-77.5 -30z" />
    <glyph glyph-name="uni0311" unicode="&#x311;" horiz-adv-x="0" 
d="M-323 811q192 0 192 -226h-63q-3 45 -37.5 76t-91.5 31t-89.5 -31t-35.5 -76h-67q0 226 192 226z" />
    <glyph glyph-name="uni0312" unicode="&#x312;" horiz-adv-x="0" 
d="M-328 899l78 -39q-43 -79 -41 -121q36 -6 53.5 -28t16.5 -47q-2 -67 -69 -87q-63 -14 -105 18q-34 29 -37 68q-8 97 104 236z" />
    <glyph glyph-name="uni0313" unicode="&#x313;" horiz-adv-x="0" 
d="M-345 461l-50 48q41 46 52 76q-30 26 -30 55q0 34 20 56t55 22q34 0 54.5 -24.5t20.5 -62.5q0 -83 -122 -170z" />
    <glyph glyph-name="uni0314" unicode="&#x314;" horiz-adv-x="0" 
d="M-223 509l-50 -48q-122 87 -122 170q0 38 20.5 62.5t54.5 24.5q35 0 55 -22t20 -56q0 -29 -30 -55q11 -30 52 -76z" />
    <glyph glyph-name="uni0320" unicode="&#x320;" horiz-adv-x="0" 
d="M-554 -233v185h530v-185h-530z" />
    <glyph glyph-name="dotbelowcomb" unicode="&#x323;" horiz-adv-x="0" 
d="M-287 -264q-46 0 -77.5 30t-31.5 78t31.5 78t77.5 30t77.5 -30t31.5 -78t-31.5 -78t-77.5 -30z" />
    <glyph glyph-name="uni0324" unicode="&#x324;" horiz-adv-x="0" 
d="M-315 -150q0 -48 -31.5 -77t-75.5 -29t-75.5 29t-31.5 77t31.5 77t75.5 29t75.5 -29t31.5 -77zM-32 -150q0 -48 -31.5 -77t-75.5 -29t-75.5 29t-31.5 77t31.5 77t75.5 29t75.5 -29t31.5 -77z" />
    <glyph glyph-name="uni0325" unicode="&#x325;" horiz-adv-x="0" 
d="M-163 -204q0 -68 -43 -106.5t-106 -38.5q-61 0 -104 38.5t-43 106.5t43 106.5t104 38.5q63 0 106 -38.5t43 -106.5zM-270 -204q0 19 -13 31.5t-29 12.5t-28.5 -12.5t-12.5 -31.5q0 -20 12.5 -32.5t28.5 -12.5t29 13t13 32z" />
    <glyph glyph-name="uni0331" unicode="&#x331;" horiz-adv-x="0" 
d="M-102 -203h-382v162h382v-162z" />
    <glyph glyph-name="uni0342" unicode="&#x342;" horiz-adv-x="373" 
d="M256 592q-26 0 -66.5 17.5t-58.5 17.5q-15 0 -42 -57l-122 80q21 55 61.5 99.5t93.5 44.5q26 0 66 -17.5t59 -17.5q15 0 42 57l127 -83q-50 -82 -88 -112q-36 -29 -72 -29z" />
    <glyph glyph-name="uni0352" unicode="&#x352;" horiz-adv-x="0" 
d="M-323 1060q192 0 192 -226h-63q-3 45 -37.5 76t-91.5 31t-89.5 -31t-35.5 -76h-67q0 226 192 226zM-322 884q-46 0 -77.5 -30t-31.5 -78t31.5 -78t77.5 -30t77.5 30t31.5 78t-31.5 78t-77.5 30z" />
    <glyph glyph-name="tonos" unicode="&#x384;" horiz-adv-x="356" 
d="M167 597h-157l79 222h251z" />
    <glyph glyph-name="dieresistonos" unicode="&#x385;" horiz-adv-x="807" 
d="M276 690l162 231l145 -111l-184 -210zM264 698q0 -48 -31.5 -77t-75.5 -29t-75.5 29t-31.5 77t31.5 77t75.5 29t75.5 -29t31.5 -77zM757 698q0 -48 -31.5 -77t-75.5 -29t-75.5 29t-31.5 77t31.5 77t75.5 29t75.5 -29t31.5 -77z" />
    <glyph glyph-name="Alphatonos" unicode="&#x386;" horiz-adv-x="810" 
d="M786 -15h-239q-23 91 -31 119h-202q-4 -14 -17 -56t-19 -63h-215q145 437 256 720h210q122 -316 257 -720zM473 261l-42 149q-12 48 -16 60q-7 -21 -17 -61q-9 -35 -42 -148h117zM137 524h-157l79 222h251z" />
    <glyph glyph-name="anoteleia" unicode="&#x387;" horiz-adv-x="281" 
d="M261 324q0 -54 -36 -87.5t-86 -33.5t-85.5 33.5t-35.5 86.5q0 54 35.5 88t85.5 34t86 -34t36 -87z" />
    <glyph glyph-name="Epsilontonos" unicode="&#x388;" horiz-adv-x="850" 
d="M823 -15h-468v720h456v-173h-231v-93h202v-170h-202v-111h243v-173zM174 536h-157l79 222h251z" />
    <glyph glyph-name="Etatonos" unicode="&#x389;" horiz-adv-x="996" 
d="M722 440v265h224v-720h-224v282h-146v-282h-225v720h225v-265h146zM177 524h-157l79 222h251z" />
    <glyph glyph-name="Iotatonos" unicode="&#x38a;" horiz-adv-x="636" 
d="M362 -15v720h225v-720h-225zM179 524h-157l79 222h251z" />
    <glyph glyph-name="Omicrontonos" unicode="&#x38c;" horiz-adv-x="955" 
d="M911 345q0 -170 -88.5 -271t-243.5 -101q-154 0 -243 101t-89 271q0 169 90 271t242 102q153 0 242.5 -101.5t89.5 -271.5zM682 350q0 85 -26 139.5t-77 54.5t-77 -54.5t-26 -139.5q0 -86 26 -140t77 -54t77 54t26 140zM172 524h-157l79 222h251z" />
    <glyph glyph-name="Upsilontonos" unicode="&#x38e;" horiz-adv-x="1009" 
d="M757 -15h-224v279q-112 209 -222 441h245q47 -125 96 -232q61 135 98 232h230q-100 -211 -223 -440v-280zM173 554h-157l79 222h251z" />
    <glyph glyph-name="Omegatonos" unicode="&#x38f;" horiz-adv-x="871" 
d="M480 739q162 0 264 -95t102 -264q0 -123 -69 -221h84v-189h-363v160q127 109 127 245q0 81 -38.5 125t-106.5 44t-106.5 -44t-38.5 -125q0 -139 126 -245v-160h-363v189h85q-69 97 -69 221q0 169 102 264t264 95zM29 754l183 -51l-99 -270l-152 38z" />
    <glyph glyph-name="iotadieresistonos" unicode="&#x390;" horiz-adv-x="309" 
d="M324 131l-28 -172q-104 0 -160.5 21.5t-77 63t-20.5 117.5v395h209v-379q0 -22 15.5 -32.5t61.5 -13.5zM40 690l162 231l145 -111l-184 -210zM28 698q0 -48 -31.5 -77t-75.5 -29t-75.5 29t-31.5 77t31.5 77t75.5 29t75.5 -29t31.5 -77zM521 698q0 -48 -31.5 -77
t-75.5 -29t-75.5 29t-31.5 77t31.5 77t75.5 29t75.5 -29t31.5 -77z" />
    <glyph glyph-name="Alpha" unicode="&#x391;" horiz-adv-x="721" 
d="M726 -15h-239q-23 91 -31 119h-202q-4 -14 -17 -56t-19 -63h-215q145 437 256 720h210q122 -316 257 -720zM413 261l-42 149q-12 48 -16 60q-7 -21 -17 -61q-9 -35 -42 -148h117z" />
    <glyph glyph-name="Beta" unicode="&#x392;" horiz-adv-x="672" 
d="M307 -24q-143 0 -256 33v672q110 33 244 33q152 0 233 -53t81 -157q0 -82 -81 -134q49 -25 77 -68.5t28 -100.5q0 -225 -326 -225zM299 285q-5 0 -15 -0.5t-16 -0.5v-145q22 -2 39 -2q52 0 77 16.5t25 56.5q0 39 -26 57t-84 18zM268 555v-126h32q51 0 72 14.5t21 50.5
q0 33 -20 48t-64 15q-25 0 -41 -2z" />
    <glyph glyph-name="Gamma" unicode="&#x393;" horiz-adv-x="593" 
d="M50 723h533v-192h-317v-561h-216v753z" />
    <glyph glyph-name="uni0394" unicode="&#x394;" horiz-adv-x="693" 
d="M248 160h193l-29.5 89l-26 77.5l-19 52t-22.5 53.5q-33 -86 -96 -272zM724 -30h-714l-29 39q119 375 281 714h168q87 -187 154 -356t140 -397z" />
    <glyph glyph-name="Epsilon" unicode="&#x395;" horiz-adv-x="606" 
d="M519 -15h-468v720h456v-173h-231v-93h202v-170h-202v-111h243v-173z" />
    <glyph glyph-name="Zeta" unicode="&#x396;" horiz-adv-x="610" 
d="M536 705l-16 -122q-18 -50 -105 -204.5t-120 -220.5h247v-173h-535l18 118q66 154 218 429h-213v173h506z" />
    <glyph glyph-name="Eta" unicode="&#x397;" horiz-adv-x="734" 
d="M422 440v265h224v-720h-224v282h-146v-282h-225v720h225v-265h146z" />
    <glyph glyph-name="Theta" unicode="&#x398;" horiz-adv-x="714" 
d="M430 267h-142v190h142v-190zM691 345q0 -170 -88.5 -271t-243.5 -101q-154 0 -243 101t-89 271q0 169 90 271t242 102q153 0 242.5 -101.5t89.5 -271.5zM462 350q0 85 -26 139.5t-77 54.5t-77 -54.5t-26 -139.5q0 -86 26 -140t77 -54t77 54t26 140z" />
    <glyph glyph-name="Iota" unicode="&#x399;" horiz-adv-x="316" 
d="M51 -15v720h225v-720h-225z" />
    <glyph glyph-name="Kappa" unicode="&#x39a;" horiz-adv-x="684" 
d="M695 -15h-206q-16 3 -55 7q-75 161 -158 285v-292h-225v720h225v-259q33 36 59 77.5t55.5 99t44.5 82.5h249l-233 -330q109 -147 244 -390z" />
    <glyph glyph-name="Lambda" unicode="&#x39b;" horiz-adv-x="722" 
d="M754 -30h-235q-118 353 -162 460q-32 -82 -160 -460h-228q143 422 298 753h169l27 -17q142 -302 291 -736z" />
    <glyph glyph-name="Mu" unicode="&#x39c;" horiz-adv-x="897" 
d="M482 29h-125q-81 209 -114 319q-3 -14 -15 -363h-202q37 502 63 720h160q14 -2 50 -8l58.5 -162.5t68.5 -186.5q1 0 26.5 68l60.5 158l52 131h201q26 -218 63 -720h-216q-15 348 -16 363l-1 -2q0 -1 -1.5 -6.5t-4 -13.5l-7 -21.5l-10.5 -30.5l-15 -42l-19.5 -53.5
l-25 -67.5z" />
    <glyph glyph-name="Nu" unicode="&#x39d;" horiz-adv-x="756" 
d="M656 -15h-137l-41 8q-213 358 -225 358q0 -5 1 -30.5t1 -42.5v-293h-204v720h180q87 -108 183 -250q8 -11 21.5 -33.5t17.5 -27.5q0 10 -1 44t-1 55v212h205v-720z" />
    <glyph glyph-name="Xi" unicode="&#x39e;" horiz-adv-x="558" 
d="M510 267h-462v190h462v-190zM553 -30h-548v193h548v-193zM5 723h548v-193h-548v193z" />
    <glyph glyph-name="Omicron" unicode="&#x39f;" horiz-adv-x="790" 
d="M691 345q0 -170 -88.5 -271t-243.5 -101q-154 0 -243 101t-89 271q0 169 90 271t242 102q153 0 242.5 -101.5t89.5 -271.5zM462 350q0 85 -26 139.5t-77 54.5t-77 -54.5t-26 -139.5q0 -86 26 -140t77 -54t77 54t26 140z" />
    <glyph glyph-name="Pi" unicode="&#x3a0;" horiz-adv-x="730" 
d="M50 723h630v-753h-216v561h-198v-561h-216v753z" />
    <glyph glyph-name="Rho" unicode="&#x3a1;" horiz-adv-x="644" 
d="M293 714q164 0 244 -64t80 -183q0 -123 -82 -186.5t-246 -63.5h-16v-232h-222v696q114 33 242 33zM299 553q-5 0 -14 -0.5t-12 -0.5v-173h17q57 0 81.5 19.5t24.5 69.5q0 46 -23 65.5t-74 19.5z" />
    <glyph glyph-name="Sigma" unicode="&#x3a3;" horiz-adv-x="595" 
d="M462 348q-18 -21 -87 -95t-84 -92h294v-191h-584v149q21 25 165 185h-1l43 48q-33 43 -102.5 124l-89.5 105v142h569v-191h-268q86 -105 145 -184z" />
    <glyph glyph-name="Tau" unicode="&#x3a4;" horiz-adv-x="614" 
d="M11 705h536v-174h-156v-546h-224v546h-156v174z" />
    <glyph glyph-name="Upsilon" unicode="&#x3a5;" horiz-adv-x="661" 
d="M417 -15h-224v279q-112 209 -222 441h245q47 -125 96 -232q61 135 98 232h230q-100 -211 -223 -440v-280z" />
    <glyph glyph-name="Phi" unicode="&#x3a6;" horiz-adv-x="870" 
d="M541 494v-247q48 12 73 44.5t25 77.5q0 46 -24.5 79t-73.5 46zM329 -30v84q-152 15 -232.5 103.5t-80.5 209.5q0 118 81 209t232 111v81h212v-81q152 -19 232.5 -110t80.5 -210t-81 -208t-232 -105v-84h-212zM329 247v247q-49 -13 -73.5 -46t-24.5 -79q0 -45 25 -77.5
t73 -44.5z" />
    <glyph glyph-name="Chi" unicode="&#x3a7;" horiz-adv-x="675" 
d="M323 535l90 170h237l-204 -338q104 -164 214 -382h-215l-46 8q-46 106 -87 182q-64 -115 -95 -190h-242q95 180 213 368l-203 352h253l84 -170h1z" />
    <glyph glyph-name="Psi" unicode="&#x3a8;" horiz-adv-x="845" 
d="M526 -30h-207v168q-140 16 -212 99t-72 216v270h211v-252q0 -64 16.5 -97.5t54.5 -45.5v395h211v-395q71 29 71 143v252h211v-270q0 -133 -72 -216t-212 -99v-168z" />
    <glyph glyph-name="uni03A9" unicode="&#x3a9;" horiz-adv-x="783" 
d="M392 739q162 0 264 -95t102 -264q0 -123 -69 -221h84v-189h-363v160q127 109 127 245q0 81 -38.5 125t-106.5 44t-106.5 -44t-38.5 -125q0 -139 126 -245v-160h-363v189h85q-69 97 -69 221q0 169 102 264t264 95z" />
    <glyph glyph-name="Iotadieresis" unicode="&#x3aa;" horiz-adv-x="316" 
d="M51 -15v720h225v-720h-225zM123 859q0 -48 -31.5 -77t-75.5 -29t-75.5 29t-31.5 77t31.5 77t75.5 29t75.5 -29t31.5 -77zM406 859q0 -48 -31.5 -77t-75.5 -29t-75.5 29t-31.5 77t31.5 77t75.5 29t75.5 -29t31.5 -77z" />
    <glyph glyph-name="Upsilondieresis" unicode="&#x3ab;" horiz-adv-x="661" 
d="M417 -15h-224v279q-112 209 -222 441h245q47 -125 96 -232q61 135 98 232h230q-100 -211 -223 -440v-280zM296 859q0 -48 -31.5 -77t-75.5 -29t-75.5 29t-31.5 77t31.5 77t75.5 29t75.5 -29t31.5 -77zM579 859q0 -48 -31.5 -77t-75.5 -29t-75.5 29t-31.5 77t31.5 77
t75.5 29t75.5 -29t31.5 -77z" />
    <glyph glyph-name="alphatonos" unicode="&#x3ac;" horiz-adv-x="618" 
d="M456 14q-67 -55 -178 -55q-125 0 -194 80t-69 224q0 137 80.5 221t219.5 84q115 0 241 -37v-333q0 -32 17 -43t65 -15l-28 -170q-46 -6 -93.5 11t-60.5 33zM348 213v167q-7 1 -32 1q-42 0 -66 -33t-24 -89t19.5 -85.5t53.5 -29.5q28 0 52 11q-3 25 -3 58zM374 652h-157
l79 222h251z" />
    <glyph glyph-name="epsilontonos" unicode="&#x3ad;" horiz-adv-x="515" 
d="M291 136q91 0 187 38l48 -168q-39 -19 -107.5 -34.5t-145.5 -15.5q-37 0 -71 4.5t-71 18t-63.5 34.5t-43.5 57t-17 83q0 76 56 124q-39 42 -39 100q0 27 6 51q19 69 88 105.5t172 36.5q48 0 108.5 -13.5t95.5 -29.5l-37 -170q-63 26 -128 34q-22 2 -30 2q-59 0 -59 -19
q0 -8 6 -13t17.5 -6.5t20.5 -1.5t23 0.5t17 0.5h87v-169h-89q-3 0 -22 0.5t-27.5 0t-22 -2.5t-19.5 -7.5t-6 -14.5q0 -25 66 -25zM330 652h-157l79 222h251z" />
    <glyph glyph-name="etatonos" unicode="&#x3ae;" 
d="M40 -30v538q42 60 254 60q143 0 201.5 -70t58.5 -201v-512h-209v494q0 56 -13 79t-47 23q-23 0 -36 -2v-409h-209zM350 652h-157l79 222h251z" />
    <glyph glyph-name="iotatonos" unicode="&#x3af;" horiz-adv-x="309" 
d="M324 131l-28 -172q-104 0 -160.5 21.5t-77 63t-20.5 117.5v395h209v-379q0 -22 15.5 -32.5t61.5 -13.5zM215 652h-157l79 222h251z" />
    <glyph glyph-name="upsilondieresistonos" unicode="&#x3b0;" horiz-adv-x="593" 
d="M297 -44q-133 0 -197.5 65.5t-64.5 205.5v329h209v-312q0 -55 11.5 -77.5t41.5 -22.5t41 22.5t11 77.5v312h209v-329q0 -140 -64.5 -205.5t-196.5 -65.5zM165 690l162 231l145 -111l-184 -210zM153 698q0 -48 -31.5 -77t-75.5 -29t-75.5 29t-31.5 77t31.5 77t75.5 29
t75.5 -29t31.5 -77zM646 698q0 -48 -31.5 -77t-75.5 -29t-75.5 29t-31.5 77t31.5 77t75.5 29t75.5 -29t31.5 -77z" />
    <glyph glyph-name="alpha" unicode="&#x3b1;" horiz-adv-x="618" 
d="M456 14q-67 -55 -178 -55q-125 0 -194 80t-69 224q0 137 80.5 221t219.5 84q115 0 241 -37v-333q0 -32 17 -43t65 -15l-28 -170q-46 -6 -93.5 11t-60.5 33zM348 213v167q-7 1 -32 1q-42 0 -66 -33t-24 -89t19.5 -85.5t53.5 -29.5q28 0 52 11q-3 25 -3 58z" />
    <glyph glyph-name="beta" unicode="&#x3b2;" horiz-adv-x="637" 
d="M249 -31v-185h-209v754q0 123 70 195.5t201 72.5q127 0 195 -61.5t68 -158.5q0 -94 -58 -152q108 -67 108 -206q0 -137 -77 -203t-210 -66q-47 0 -88 10zM249 536v-375q34 -14 78 -14q39 0 62 21t23 61q0 86 -102 86h-29v180h22q63 0 63 67q0 23 -13.5 38.5t-36.5 15.5
q-67 0 -67 -80z" />
    <glyph glyph-name="gamma" unicode="&#x3b3;" horiz-adv-x="557" 
d="M275 260q54 150 84 296h216q-67 -287 -226 -566q1 -5 23 -153l-1 1q1 -9 5 -26.5t5 -26.5h-185l-30 26q-18 121 -50.5 253.5t-59.5 218.5l-75 231q-9 28 -14 42h220q64 -193 88 -296z" />
    <glyph glyph-name="delta" unicode="&#x3b4;" horiz-adv-x="607" 
d="M296 383q-69 -37 -69 -128q0 -54 20 -82.5t57 -28.5q76 0 76 111q0 75 -84 128zM146 487q-51 56 -51 130q0 31 9 59q19 59 76 94.5t147 35.5q61 0 108 -11.5t110 -36.5l-48 -173q-77 31 -107 38q-27 6 -54 6q-32 0 -32 -14q0 -16 83 -67q50 -31 83 -57.5t63 -62t44.5 -79
t14.5 -96.5q0 -137 -78 -217t-210 -80q-131 0 -210 76.5t-79 211.5q0 156 131 243z" />
    <glyph glyph-name="epsilon" unicode="&#x3b5;" horiz-adv-x="515" 
d="M291 136q91 0 187 38l48 -168q-39 -19 -107.5 -34.5t-145.5 -15.5q-37 0 -71 4.5t-71 18t-63.5 34.5t-43.5 57t-17 83q0 76 56 124q-39 42 -39 100q0 27 6 51q19 69 88 105.5t172 36.5q48 0 108.5 -13.5t95.5 -29.5l-37 -170q-63 26 -128 34q-22 2 -30 2q-59 0 -59 -19
q0 -8 6 -13t17.5 -6.5t20.5 -1.5t23 0.5t17 0.5h87v-169h-89q-3 0 -22 0.5t-27.5 0t-22 -2.5t-19.5 -7.5t-6 -14.5q0 -25 66 -25z" />
    <glyph glyph-name="zeta" unicode="&#x3b6;" horiz-adv-x="500" 
d="M535 -41q0 -79 -73 -185l-182 61q47 88 47 104q0 14 -15.5 24.5t-61.5 22.5q-113 31 -166.5 88t-53.5 171q0 168 195 370h-169v184h461v-154l-34 -31v1q-51 -46 -78 -72.5t-72.5 -79t-68 -104.5t-22.5 -103q0 -36 21 -58t75 -38q112 -34 154.5 -77.5t42.5 -123.5z" />
    <glyph glyph-name="eta" unicode="&#x3b7;" 
d="M40 -30v538q42 60 254 60q143 0 201.5 -70t58.5 -201v-512h-209v494q0 56 -13 79t-47 23q-23 0 -36 -2v-409h-209z" />
    <glyph glyph-name="theta" unicode="&#x3b8;" horiz-adv-x="615" 
d="M308 806q138 0 213.5 -107t75.5 -317q0 -211 -75.5 -318.5t-213.5 -107.5t-214 107.5t-76 318.5q0 210 76 317t214 107zM308 144q69 0 78 146h-158q9 -146 80 -146zM308 618q-71 0 -80 -144h158q-9 144 -78 144z" />
    <glyph glyph-name="iota" unicode="&#x3b9;" horiz-adv-x="309" 
d="M324 131l-28 -172q-104 0 -160.5 21.5t-77 63t-20.5 117.5v395h209v-379q0 -22 15.5 -32.5t61.5 -13.5z" />
    <glyph glyph-name="kappa" unicode="&#x3ba;" horiz-adv-x="582" 
d="M249 -30h-209v586h209v-149l123 149h255q-134 -164 -237 -267q60 -63 124.5 -151t107.5 -168h-237q-83 131 -136 184v-184z" />
    <glyph glyph-name="lambda" unicode="&#x3bb;" horiz-adv-x="547" 
d="M278 276q-49 -145 -91 -306h-216q99 339 208 555q-20 52 -36 73t-43 21q-11 0 -27 -4q-10 -3 -50 -17l-38 182q82 26 140 26q80 0 131.5 -34.5t91.5 -119.5q63 -134 128 -329.5t107 -352.5h-198q-27 19 -46 74.5t-35.5 131t-25.5 100.5z" />
    <glyph glyph-name="uni03BC" unicode="&#x3bc;" horiz-adv-x="594" 
d="M348 -25q-48 0 -89 12q1 -32 1 -102v-90h-217v752h217v-257q0 -13 -1 -35.5t-1.5 -36.5t1 -32t6.5 -28t16 -17.5t27 -7.5q20 0 39 4v410h216v-534q-97 -38 -215 -38z" />
    <glyph glyph-name="nu" unicode="&#x3bd;" horiz-adv-x="550" 
d="M281 238q4 0 73 309h215q-95 -310 -196 -562h-146q-34 6 -51 8q-102 257 -192 554h229l22.5 -109.5l26.5 -126.5t19 -73z" />
    <glyph glyph-name="xi" unicode="&#x3be;" horiz-adv-x="556" 
d="M332 160q110 -32 154 -77t44 -124t-73 -185l-182 61q47 88 47 104q0 15 -16.5 25.5t-60.5 21.5q-116 30 -171 84.5t-55 158.5q0 124 104 189q-66 62 -66 162q0 102 74 164t196 62q93 0 197 -39l-42 -176q-88 32 -141 32q-77 0 -77 -61q0 -60 89 -60h128v-184h-122
q-128 0 -128 -76q0 -35 23 -50.5t78 -31.5z" />
    <glyph glyph-name="omicron" unicode="&#x3bf;" horiz-adv-x="607" 
d="M576 267q0 -132 -75 -213t-202 -81q-126 0 -201.5 81.5t-75.5 212.5q0 129 77 210.5t200 81.5q125 0 201 -81t76 -211zM359 269q0 127 -60 127t-60 -127t60 -127t60 127z" />
    <glyph glyph-name="pi" unicode="&#x3c0;" horiz-adv-x="593" 
d="M553 556v-586h-209v402h-95v-402h-209v586h513z" />
    <glyph glyph-name="rho" unicode="&#x3c1;" horiz-adv-x="612" 
d="M329 -40q-47 0 -80 10v-185h-209v508q0 125 72.5 200t197.5 75q141 0 214 -80t73 -225q0 -137 -72 -220t-196 -83zM249 289v-135q22 -8 52 -8q84 0 84 118q0 61 -17 89t-53 28q-29 0 -47.5 -22.5t-18.5 -69.5z" />
    <glyph glyph-name="sigma1" unicode="&#x3c2;" horiz-adv-x="500" 
d="M227 269q0 -31 4 -48.5t18.5 -30t27.5 -18t46 -17.5t59 -24q63 -29 89 -69t26 -103q0 -78 -73 -185l-182 61q47 88 47 104q0 13 -14.5 23.5t-55.5 22.5q-101 30 -152.5 92.5t-51.5 187.5q0 134 81 219.5t220 85.5q88 0 182 -41l-49 -177q-79 30 -121 30
q-50 0 -75.5 -29.5t-25.5 -83.5z" />
    <glyph glyph-name="sigma" unicode="&#x3c3;" horiz-adv-x="631" 
d="M588 241q0 -125 -78 -205t-206 -80q-129 0 -209 83t-80 220q0 141 85.5 219t230.5 78h320v-184h-92q29 -58 29 -131zM378 250q0 81 -38 122h-9q-48 0 -76 -27.5t-28 -85.5q0 -55 20 -85t57 -30q35 0 54.5 29.5t19.5 76.5z" />
    <glyph glyph-name="tau" unicode="&#x3c4;" horiz-adv-x="483" 
d="M466 6l-22 -32q-54 -16 -118 -16t-107 17.5t-65 53t-30.5 78.5t-8.5 105v160h-135v184h503v-184h-159v-172q0 -32 6.5 -44t24.5 -12q29 0 95 13q3 -25 8.5 -75.5t7.5 -75.5z" />
    <glyph glyph-name="upsilon" unicode="&#x3c5;" horiz-adv-x="593" 
d="M297 -44q-133 0 -197.5 65.5t-64.5 205.5v329h209v-312q0 -55 11.5 -77.5t41.5 -22.5t41 22.5t11 77.5v312h209v-329q0 -140 -64.5 -205.5t-196.5 -65.5z" />
    <glyph glyph-name="phi" unicode="&#x3c6;" horiz-adv-x="790" 
d="M395 570q178 0 279 -85t101 -221q0 -116 -72.5 -196t-205.5 -103v-180h-205v180q-133 22 -205 103t-72 196q0 136 101 221t279 85zM565 264q0 80 -68 108v-218q68 29 68 110zM225 264q0 -83 67 -109v216q-67 -27 -67 -107z" />
    <glyph glyph-name="chi" unicode="&#x3c7;" horiz-adv-x="554" 
d="M275 126q-4 0 -12.5 -12.5t-18.5 -32.5l-19 -38.5l-17 -36.5t-10 -21h-222q78 141 182 289l-99 154l-77 119h234l70 -124h1l73 124h217l-179 -265q105 -150 187 -297h-238q-38 83 -72 141z" />
    <glyph glyph-name="psi" unicode="&#x3c8;" horiz-adv-x="814" 
d="M509 -215h-205v178q-140 21 -204.5 103t-64.5 205v285h207v-278q0 -101 62 -124v402h205v-402q63 23 63 124v278h207v-285q0 -123 -64.5 -205t-205.5 -103v-178z" />
    <glyph glyph-name="omega" unicode="&#x3c9;" horiz-adv-x="842" 
d="M317 450h208v-135q0 -111 6 -135q9 -36 36 -36q47 0 47 115q0 118 -100 254l179 62q65 -70 98 -154.5t33 -168.5q0 -292 -247 -292q-94 0 -156 68q-62 -68 -156 -68q-247 0 -247 292q0 84 33 168.5t98 154.5l179 -62q-100 -136 -100 -254q0 -115 47 -115q35 0 40 63
q2 19 2 108v135z" />
    <glyph glyph-name="iotadieresis" unicode="&#x3ca;" horiz-adv-x="309" 
d="M324 131l-28 -172q-104 0 -160.5 21.5t-77 63t-20.5 117.5v395h209v-379q0 -22 15.5 -32.5t61.5 -13.5zM117 708q0 -48 -31.5 -77t-75.5 -29t-75.5 29t-31.5 77t31.5 77t75.5 29t75.5 -29t31.5 -77zM379 708q0 -48 -31.5 -77t-75.5 -29t-75.5 29t-31.5 77t31.5 77
t75.5 29t75.5 -29t31.5 -77z" />
    <glyph glyph-name="upsilondieresis" unicode="&#x3cb;" horiz-adv-x="593" 
d="M297 -44q-133 0 -197.5 65.5t-64.5 205.5v329h209v-312q0 -55 11.5 -77.5t41.5 -22.5t41 22.5t11 77.5v312h209v-329q0 -140 -64.5 -205.5t-196.5 -65.5zM266 708q0 -48 -31.5 -77t-75.5 -29t-75.5 29t-31.5 77t31.5 77t75.5 29t75.5 -29t31.5 -77zM528 708
q0 -48 -31.5 -77t-75.5 -29t-75.5 29t-31.5 77t31.5 77t75.5 29t75.5 -29t31.5 -77z" />
    <glyph glyph-name="omicrontonos" unicode="&#x3cc;" horiz-adv-x="607" 
d="M576 267q0 -132 -75 -213t-202 -81q-126 0 -201.5 81.5t-75.5 212.5q0 129 77 210.5t200 81.5q125 0 201 -81t76 -211zM359 269q0 127 -60 127t-60 -127t60 -127t60 127zM370 652h-157l79 222h251z" />
    <glyph glyph-name="upsilontonos" unicode="&#x3cd;" horiz-adv-x="593" 
d="M297 -44q-133 0 -197.5 65.5t-64.5 205.5v329h209v-312q0 -55 11.5 -77.5t41.5 -22.5t41 22.5t11 77.5v312h209v-329q0 -140 -64.5 -205.5t-196.5 -65.5zM364 652h-157l79 222h251z" />
    <glyph glyph-name="omegatonos" unicode="&#x3ce;" horiz-adv-x="842" 
d="M317 450h208v-135q0 -111 6 -135q9 -36 36 -36q47 0 47 115q0 118 -100 254l179 62q65 -70 98 -154.5t33 -168.5q0 -292 -247 -292q-94 0 -156 68q-62 -68 -156 -68q-247 0 -247 292q0 84 33 168.5t98 154.5l179 -62q-100 -136 -100 -254q0 -115 47 -115q35 0 40 63
q2 19 2 108v135zM495 652h-157l79 222h251z" />
    <glyph glyph-name="uni0400" unicode="&#x400;" horiz-adv-x="606" 
d="M519 -15h-468v720h456v-173h-231v-93h202v-170h-202v-111h243v-173zM468 743h-157l-173 222h251z" />
    <glyph glyph-name="uni0401" unicode="&#x401;" horiz-adv-x="606" 
d="M519 -15h-468v720h456v-173h-231v-93h202v-170h-202v-111h243v-173zM268 859q0 -48 -31.5 -77t-75.5 -29t-75.5 29t-31.5 77t31.5 77t75.5 29t75.5 -29t31.5 -77zM551 859q0 -48 -31.5 -77t-75.5 -29t-75.5 29t-31.5 77t31.5 77t75.5 29t75.5 -29t31.5 -77z" />
    <glyph glyph-name="uni0403" unicode="&#x403;" horiz-adv-x="593" 
d="M353 1055l139 -128l-211 -178l-109 99zM266 531v-561h-216v753h533v-192h-317z" />
    <glyph glyph-name="uni0404" unicode="&#x404;" horiz-adv-x="655" 
d="M499 263h-209q26 -103 121 -103q36 0 81 20q21 3 52 18l61 -166q-99 -59 -223 -59q-155 0 -243.5 100.5t-88.5 271.5q0 168 89 271t243 103q121 0 220 -57l-57 -161q-46 25 -97 31q-61 9 -102 -16.5t-55 -76.5h208v-176z" />
    <glyph glyph-name="uni0405" unicode="&#x405;" horiz-adv-x="582" 
d="M220 156q68 0 68 39q0 23 -25.5 39.5t-101.5 46.5q-139 68 -139 203q0 29 6 56q18 81 87 129.5t171 48.5q118 0 212 -53l-57 -160q-74 39 -131 39q-64 0 -64 -35q0 -23 23.5 -38t86.5 -41q8 -3 12 -5q87 -41 120.5 -91t33.5 -130q0 -105 -73.5 -168t-204.5 -63
q-146 0 -234 56l57 172q74 -45 153 -45z" />
    <glyph glyph-name="uni0406" unicode="&#x406;" horiz-adv-x="316" 
d="M276 -15h-225v720h225v-720z" />
    <glyph glyph-name="uni0407" unicode="&#x407;" horiz-adv-x="316" 
d="M276 -15h-225v720h225v-720zM123 859q0 -48 -31.5 -77t-75.5 -29t-75.5 29t-31.5 77t31.5 77t75.5 29t75.5 -29t31.5 -77zM406 859q0 -48 -31.5 -77t-75.5 -29t-75.5 29t-31.5 77t31.5 77t75.5 29t75.5 -29t31.5 -77z" />
    <glyph glyph-name="uni0408" unicode="&#x408;" horiz-adv-x="529" 
d="M387 149q0 -254 -246 -275q-81 -5 -170 31l37 167q83 -25 116 21q39 50 39 154v458h224v-556z" />
    <glyph glyph-name="uni040A" unicode="&#x40a;" horiz-adv-x="1046" 
d="M421 12v255h-146v-282h-225v720h225v-265h146v265h219v-239h23q162 -2 247.5 -61.5t85.5 -187.5q0 -119 -85.5 -180t-245.5 -61q-136 0 -244 36zM771 222q0 85 -99 86h-32v-166q14 -2 28 -2q103 0 103 82z" />
    <glyph glyph-name="uni040C" unicode="&#x40c;" horiz-adv-x="684" 
d="M436 1002l139 -128l-211 -178l-109 99zM695 -15h-206q-16 3 -55 7q-75 161 -158 285v-292h-225v720h225v-259q33 36 59 77.5t55.5 99t44.5 82.5h249l-233 -330q109 -147 244 -390z" />
    <glyph glyph-name="uni040D" unicode="&#x40d;" horiz-adv-x="756" 
d="M229 -30h-179v753h215v-340q157 225 272 340h169v-753h-214v401q-131 -167 -263 -401zM222 884q22 29 70.5 45.5t97.5 21.5l123 -178l-115 -50z" />
    <glyph glyph-name="uni040E" unicode="&#x40e;" horiz-adv-x="652" 
d="M349 721q-78 0 -137.5 53t-67.5 143l157 41q16 -77 48 -77t48 76l157 -41q-8 -90 -67.5 -142.5t-137.5 -52.5zM9 -8l40 184q77 -28 119 -28q48 0 79 44l-36 58q-112 188 -237 473h239q49 -120 110 -250l31 -65q22 63 98 315h231q-85 -251 -206 -532q-60 -133 -132.5 -184
t-162.5 -51q-76 0 -173 36z" />
    <glyph glyph-name="uni0410" unicode="&#x410;" horiz-adv-x="735" 
d="M730 0h-229l-41 119h-202l-36 -119h-215q145 437 256 720h210q122 -316 257 -720zM417 276l-42 149q-10 40 -14 60q-1 -7 -5 -21q-4 -18 -54 -188h115z" />
    <glyph glyph-name="uni0411" unicode="&#x411;" horiz-adv-x="658" 
d="M36 744h520v-192h-311v-54h21q175 0 265 -60t90 -196q0 -128 -90.5 -193t-261.5 -65q-113 0 -233 29v731zM403 241q0 39 -35 53.5t-107 14.5h-16v-132h32q126 0 126 64z" />
    <glyph glyph-name="uni0412" unicode="&#x412;" horiz-adv-x="649" 
d="M619 209q0 -225 -326 -225q-143 0 -256 33v672q110 33 244 33q152 0 233 -53t81 -157q0 -82 -81 -134q49 -25 77 -68.5t28 -100.5zM379 502q0 33 -20 48t-64 15h-6q-21 0 -35 -2v-126h32q51 0 72 14.5t21 50.5zM395 218q0 39 -26 57t-84 18q-5 0 -15 -0.5t-16 -0.5v-145
q22 -2 39 -2q52 0 77 16.5t25 56.5z" />
    <glyph glyph-name="uni0413" unicode="&#x413;" horiz-adv-x="530" 
d="M262 547v-547h-225v720h459v-173h-234z" />
    <glyph glyph-name="uni0414" unicode="&#x414;" horiz-adv-x="870" 
d="M650 -15h-424v-169h-206v332h120l124 557h370q13 -93 41.5 -278.5t41.5 -278.5h135v-335h-202v172zM419 514l-69 -366h150l-56 366q-4 26 -4 36h-17q0 -15 -4 -36z" />
    <glyph glyph-name="uni0415" unicode="&#x415;" horiz-adv-x="606" 
d="M519 -15h-468v720h456v-173h-231v-93h202v-170h-202v-111h243v-173z" />
    <glyph glyph-name="uni0416" unicode="&#x416;" horiz-adv-x="983" 
d="M242 -15h-251q37 99 103 210.5t125 174.5q-82 112 -221 335h248q15 -26 63.5 -116.5t84.5 -147.5v264h223v-263q83 141 148 263h249l-221 -335q113 -120 225 -385h-249q-138 269 -152 293v-293h-223v291q-37 -64 -152 -291z" />
    <glyph glyph-name="uni0417" unicode="&#x417;" horiz-adv-x="610" 
d="M569 203q0 -114 -82 -172.5t-229 -58.5q-142 0 -256 58l62 161q100 -39 169 -39q51 0 81.5 22.5t17.5 57.5q-10 44 -125 44h-80v158h66q130 0 130 60q0 52 -73 52q-89 0 -161 -39l-60 152q101 59 241 59q127 0 199 -52.5t72 -143.5q0 -98 -83 -145q111 -51 111 -174z" />
    <glyph glyph-name="uni0418" unicode="&#x418;" horiz-adv-x="756" 
d="M684 -15h-223v339l2 73q-101 -194 -195 -412h-217v720h224v-318l-3 -78q77 163 203 396h209v-720z" />
    <glyph glyph-name="uni0419" unicode="&#x419;" horiz-adv-x="756" 
d="M438 960l157 -41q-8 -90 -67.5 -142.5t-137.5 -52.5t-137.5 53t-67.5 143l157 41q16 -77 48 -77t48 76zM684 -15h-223v339l2 73q-101 -194 -195 -412h-217v720h224v-318l-3 -78q77 163 203 396h209v-720z" />
    <glyph glyph-name="uni041A" unicode="&#x41a;" horiz-adv-x="684" 
d="M695 -15h-206q-16 3 -55 7q-75 161 -158 285v-292h-225v720h225v-259q33 36 59 77.5t55.5 99t44.5 82.5h249l-233 -330q109 -147 244 -390z" />
    <glyph glyph-name="uni041B" unicode="&#x41b;" horiz-adv-x="790" 
d="M481 0l-109 393q-4 14 -8.5 32.5t-8 31t-5.5 17.5q-2 0 -5.5 -13.5l-9 -36t-9.5 -34.5l-115 -390h-216q125 390 256 720h210q124 -313 256 -720h-236z" />
    <glyph glyph-name="uni041C" unicode="&#x41c;" horiz-adv-x="897" 
d="M829 -15h-216q-2 36 -4.5 118t-5 143t-6.5 102q-2 -3 -12 -32q-50 -151 -103 -287h-125l-103 287l-11 32q0 -5 -2.5 -63.5l-6.5 -147t-6 -152.5h-202q37 502 63 720h160q14 -2 50 -8l102 -272l9.5 -30.5t9.5 -29l6 -17.5q2 0 6 11.5l10.5 31t9.5 27.5q68 180 113 287h201
q26 -218 63 -720z" />
    <glyph glyph-name="uni041D" unicode="&#x41d;" horiz-adv-x="734" 
d="M646 -15h-224v282h-146v-282h-225v720h225v-265h146v265h224v-720z" />
    <glyph glyph-name="uni041E" unicode="&#x41e;" horiz-adv-x="764" 
d="M714 345q0 -170 -88.5 -271t-243.5 -101q-154 0 -243 101t-89 271q0 169 90 271t242 102q153 0 242.5 -101.5t89.5 -271.5zM485 350q0 85 -26 139.5t-77 54.5t-77 -54.5t-26 -139.5q0 -86 26 -140t77 -54t77 54t26 140z" />
    <glyph glyph-name="uni041F" unicode="&#x41f;" horiz-adv-x="730" 
d="M680 -30h-216v561h-198v-561h-216v753h630v-753z" />
    <glyph glyph-name="uni0420" unicode="&#x420;" horiz-adv-x="644" 
d="M617 467q0 -123 -82 -186.5t-246 -63.5h-16v-232h-222v696q114 33 242 33q164 0 244 -64t80 -183zM396 468q0 46 -23 65.5t-74 19.5q-5 0 -14 -0.5t-12 -0.5v-173h17q57 0 81.5 19.5t24.5 69.5z" />
    <glyph glyph-name="uni0421" unicode="&#x421;" horiz-adv-x="647" 
d="M597 29q-83 -56 -217 -56q-163 0 -246.5 102t-83.5 270q0 163 90 268t245 105q124 0 207 -56l-55 -161q-61 34 -126 34q-55 0 -90 -40t-39 -114q-2 -43 2 -72q7 -65 39.5 -106.5t90.5 -41.5q19 0 39 5q40 5 88 28z" />
    <glyph glyph-name="uni0422" unicode="&#x422;" horiz-adv-x="576" 
d="M556 531h-156v-546h-224v546h-156v174h536v-174z" />
    <glyph glyph-name="uni0423" unicode="&#x423;" horiz-adv-x="652" 
d="M83 -9q0 48 2 144q110 -19 120 17q3 0 5 0.5t4 3t3 5t4 8l6 10.5l-29 58q-97 196 -209 468h234l103 -282q3 -12 10 -36.5t11 -41.5l15 76l78 284h223q-69 -212 -193 -561q-39 -95 -105.5 -132t-156.5 -39q-59 0 -125 18z" />
    <glyph glyph-name="uni0424" unicode="&#x424;" horiz-adv-x="870" 
d="M541 -30h-212v84q-152 13 -232.5 103t-80.5 210q0 118 81 209.5t232 110.5v81h212v-81q152 -19 232.5 -110t80.5 -210q0 -118 -81.5 -209t-231.5 -104v-84zM541 510v-282q44 0 71 46.5t27 97.5t-25.5 94.5t-72.5 43.5zM329 228v282q-50 0 -74 -42.5t-24 -97.5
q0 -51 25.5 -96.5t72.5 -45.5z" />
    <glyph glyph-name="uni0425" unicode="&#x425;" horiz-adv-x="675" 
d="M660 -15h-215l-46 8q-46 106 -87 182q-64 -115 -95 -190h-242q95 180 213 368l-203 352h253l84 -170h1l90 170h237l-204 -338q104 -164 214 -382z" />
    <glyph glyph-name="uni0426" unicode="&#x426;" horiz-adv-x="790" 
d="M644 156h125v-342h-211v171h-507v720h225v-549h144v549h224v-549z" />
    <glyph glyph-name="uni0427" unicode="&#x427;" horiz-adv-x="680" 
d="M613 -15h-224v225q-50 -8 -89 -8q-58 0 -105 14t-84.5 43t-58.5 79t-21 118v249h225v-249q0 -43 19 -59.5t56 -16.5q27 0 58 6v319h224v-720z" />
    <glyph glyph-name="uni0428" unicode="&#x428;" horiz-adv-x="1020" 
d="M951 -15h-900v720h225v-549h113v549h224v-549h113v549h225v-720z" />
    <glyph glyph-name="uni0429" unicode="&#x429;" horiz-adv-x="1080" 
d="M864 -15h-813v720h225v-549h113v549h224v-549h113v549h225v-549h124v-342h-211v171z" />
    <glyph glyph-name="uni042A" unicode="&#x42a;" horiz-adv-x="773" 
d="M-38 705h364v-239h24q162 -2 247.5 -61.5t85.5 -187.5q0 -120 -85 -180.5t-246 -60.5q-137 0 -244 36v529h-147q1 55 1 164zM457 222q0 85 -99 86h-32v-166q16 -2 28 -2q103 0 103 82z" />
    <glyph glyph-name="uni042B" unicode="&#x42b;" horiz-adv-x="927" 
d="M51 705h219v-239h21q330 -5 330 -249q0 -119 -85.5 -180t-242.5 -61q-133 0 -242 36v693zM396 222q0 75 -79 85q-22 2 -38 2q-1 0 -4 -0.5t-5 -0.5v-166q14 -2 28 -2q49 0 73.5 19t24.5 63zM911 -15h-224v720h224v-720z" />
    <glyph glyph-name="uni042C" unicode="&#x42c;" horiz-adv-x="659" 
d="M51 705h219v-239h23q162 -2 247.5 -61.5t85.5 -187.5q0 -119 -85.5 -180t-245.5 -61q-136 0 -244 36v693zM401 222q0 85 -99 86h-32v-166q14 -2 28 -2q103 0 103 82z" />
    <glyph glyph-name="uni042D" unicode="&#x42d;" horiz-adv-x="681" 
d="M333 263h-209v176h208q-14 51 -55 76.5t-102 16.5q-51 -6 -97 -31l-57 161q99 57 220 57q154 0 243 -103t89 -271q0 -171 -88.5 -271.5t-243.5 -100.5q-124 0 -223 59l61 166q31 -15 52 -18q45 -20 81 -20q95 0 121 103z" />
    <glyph glyph-name="uni042E" unicode="&#x42e;" horiz-adv-x="1081" 
d="M996 345q0 -170 -88 -271t-239 -101q-133 0 -218 79t-105 216h-70v-283h-225v720h225v-266h73q24 130 108 205t212 75q153 0 240 -102.5t87 -271.5zM767 350q0 87 -24.5 141t-73.5 54q-50 0 -74.5 -54t-24.5 -141t24.5 -140.5t74.5 -53.5q49 0 73.5 53.5t24.5 140.5z" />
    <glyph glyph-name="uni042F" unicode="&#x42f;" horiz-adv-x="689" 
d="M241 -15h-240q86 162 181 303q-19 12 -32 25q-36 22 -60.5 64.5t-24.5 93.5q0 34 10 71q24 83 106 127.5t215 44.5q121 0 241 -35v-694h-223v257h-37l-33 -58q-55 -99 -103 -199zM290 465q0 -42 24 -58.5t77 -16.5q4 0 12 0.5t11 0.5v159q-8 1 -24 1q-12 0 -30 -2
q-71 -11 -70 -84z" />
    <glyph glyph-name="uni0430" unicode="&#x430;" horiz-adv-x="602" 
d="M552 363v-343q-108 -36 -250 -36q-262 0 -262 191q0 67 38.5 112.5t90 63t109.5 17.5h9q9 -1 16 -1q13 0 41 -4q0 46 -70 46q-85 0 -158 -32l-37 153q22 14 86 26t140 12q109 0 178 -51t69 -154zM346 134v103q-21 0 -30 -1q-68 -5 -68 -54q0 -50 63 -50q28 0 35 2z" />
    <glyph glyph-name="uni0431" unicode="&#x431;" horiz-adv-x="634" 
d="M378 252q0 53 -15.5 80.5t-54.5 27.5q-33 0 -54 -9v-205q16 -9 52 -9q72 0 72 115zM50 47v450q0 41 8.5 72t33.5 63.5t68.5 56.5t117.5 45t176 35q33 3 88 12l11 -160l-93 -21q-28 -7 -63.5 -13.5t-51 -10t-34.5 -9.5t-27 -15t-16 -24t-14 -38q47 20 100 20
q106 0 173 -67t67 -183q0 -135 -80 -205.5t-216 -70.5q-194 0 -248 63z" />
    <glyph glyph-name="uni0432" unicode="&#x432;" horiz-adv-x="633" 
d="M560 572q3 -50 -17.5 -87t-53.5 -56q53 -26 78.5 -83t25.5 -115q0 -104 -78 -180t-222 -76q-131 0 -243 36v499q0 74 24 126t64.5 77t81.5 35.5t89 10.5q125 0 185 -54.5t66 -132.5zM376 228v9.5v12.5t-0.5 13t-3 14t-5.5 12.5t-8.5 12.5t-12.5 10t-17 8t-23 4
q-25 0 -39 -12q0 -31 -0.5 -91.5t-0.5 -90.5q14 -2 23 -2t23 2q27 3 45.5 33t18.5 65zM265 465q26 9 60 10q1 0 3 -0.5t3 -0.5q12 5 19.5 11t13.5 22t5 41q-2 68 -55 65q-42 -3 -47 -54q0 -10 -1 -29.5t-1 -31.5v-33z" />
    <glyph glyph-name="uni0433" unicode="&#x433;" horiz-adv-x="524" 
d="M40 149q0 57 29 97.5t100 74.5q54 24 69.5 34.5t15.5 24.5q0 19 -38 19q-46 0 -111 -28l-45 149q85 39 194 39q103 0 158 -46t55 -123q0 -69 -40 -113t-113 -76q-55 -25 -55 -42q0 -21 40 -21q60 0 141 36l44 -162q-87 -40 -208 -40q-109 0 -172.5 46t-63.5 131z" />
    <glyph glyph-name="uni0434" unicode="&#x434;" horiz-adv-x="625" 
d="M575 34q0 -257 -281 -257q-125 0 -227 42l45 165q57 -25 106 -33q24 -4 56 -4q42 0 66 16.5t24 42.5v7q-33 -11 -80 -11q-111 0 -177.5 70.5t-66.5 193.5q0 137 78.5 214.5t224.5 77.5q137 0 232 -39v-485zM362 160v242q-7 2 -26 2q-79 0 -79 -130q0 -63 17 -91.5
t54 -28.5q19 0 34 6z" />
    <glyph glyph-name="uni0435" unicode="&#x435;" horiz-adv-x="617" 
d="M576 210l-317 -21q25 -47 100 -47q87 0 158 33l38 -158q-92 -44 -221 -44q-144 0 -219 82t-75 210q0 134 76.5 214t199.5 80q117 0 184 -66t75 -188q0 -10 1 -43t0 -52zM369 331q-6 73 -57 73q-60 0 -62 -82z" />
    <glyph glyph-name="uni0436" unicode="&#x436;" horiz-adv-x="849" 
d="M230 -15h-241q90 161 191 309q-93 124 -178 253h234l29 -53t39 -68.5t45 -69.5v424h214v-425l44 57l69 135h231q-84 -138 -175 -253q76 -106 192 -309h-242q-1 2 -22 56t-47 103.5t-50 67.5v-227h-214v224q-23 -23 -44.5 -62.5t-45.5 -95z" />
    <glyph glyph-name="uni0437" unicode="&#x437;" horiz-adv-x="556" 
d="M516 158q0 -91 -67.5 -138.5t-177.5 -47.5q-62 0 -127 11t-104 31l42 150q64 -24 120 -28q92 -5 92 28q0 38 -98 38h-56v134h57q47 0 66.5 8t19.5 26q0 13 -13 22t-39 9q-6 0 -22 -2q-57 -4 -113 -24l-37 132q46 52 214 52q102 0 163 -40t61 -120q0 -33 -19 -61.5
t-47 -46.5q85 -34 85 -133z" />
    <glyph glyph-name="uni0438" unicode="&#x438;" horiz-adv-x="617" 
d="M567 15q-89 -41 -257 -41q-136 0 -198 59t-62 178v336h216v-269v-25.5v-24.5v-21t1.5 -19.5t4 -15.5t6 -13.5t9 -9t12.5 -6.5t17 -2q18 0 35 3v403h216v-532z" />
    <glyph glyph-name="uni0439" unicode="&#x439;" horiz-adv-x="617" 
d="M567 15q-89 -41 -257 -41q-136 0 -198 59t-62 178v336h216v-269v-25.5v-24.5v-21t1.5 -19.5t4 -15.5t6 -13.5t9 -9t12.5 -6.5t17 -2q18 0 35 3v403h216v-532zM311 588q-80 0 -148.5 53.5t-76.5 142.5l157 31q8 -37 28 -52t40 -15q54 0 68 66l157 -31q-8 -88 -76 -141.5
t-149 -53.5z" />
    <glyph glyph-name="uni043A" unicode="&#x43a;" horiz-adv-x="649" 
d="M629 -15h-243q-1 3 -14 32l-27 59l-30 62.5t-29.5 53.5t-19.5 21v-228h-216v795h216v-417q72 107 117 184h239l-186 -246q103 -142 193 -316z" />
    <glyph glyph-name="uni043B" unicode="&#x43b;" horiz-adv-x="625" 
d="M20 0q89 296 196 562h191q103 -250 198 -562h-230q-25 124 -50 225l-7 34l-6.5 32.5t-4.5 17.5h-1q-2 -5 -4.5 -17l-6.5 -32.5t-7 -34.5q-33 -129 -54 -225h-214z" />
    <glyph glyph-name="uni043C" unicode="&#x43c;" horiz-adv-x="802" 
d="M762 0h-212q-10 220 -10 269q-1 0 -9 -31q-25 -94 -69 -207h-119q-55 137 -74 208q-5 20 -9 31q-10 -160 -10 -270h-210q19 278 47 562h201q82 -175 104 -258q7 -28 10 -33q2 1 10 33q7 27 16 54t22 58l20.5 48.5l23 53.5t19.5 44h201q23 -203 48 -562z" />
    <glyph glyph-name="uni043D" unicode="&#x43d;" horiz-adv-x="620" 
d="M570 562v-562h-217v223h-86v-223h-217v562h217v-193h86v193h217z" />
    <glyph glyph-name="uni043E" unicode="&#x43e;" horiz-adv-x="634" 
d="M594 267q0 -132 -75 -213t-202 -81q-126 0 -201.5 81.5t-75.5 212.5q0 129 77 210.5t200 81.5q125 0 201 -81t76 -211zM377 269q0 127 -60 127t-60 -127t60 -127t60 127z" />
    <glyph glyph-name="uni043F" unicode="&#x43f;" horiz-adv-x="620" 
d="M570 0h-216v270v17q0 31 -0.5 45.5t-3 33.5t-8 26t-16 13t-26.5 6q-20 0 -33 -2v-409h-217v533q112 40 254 40q85 0 139 -17.5t81 -56t36.5 -83.5t9.5 -115v-301z" />
    <glyph glyph-name="uni0440" unicode="&#x440;" horiz-adv-x="633" 
d="M593 265q0 -131 -67.5 -209.5t-182.5 -78.5q-51 0 -76 8v-200h-217v734q108 39 244 39q139 0 219 -75.5t80 -217.5zM377 264q0 135 -83 135q-20 0 -27 -1v-258q15 -5 35 -5q39 0 57 31.5t18 97.5z" />
    <glyph glyph-name="uni0441" unicode="&#x441;" horiz-adv-x="526" 
d="M476 13q-67 -40 -164 -40q-130 0 -201 78.5t-71 216.5q0 131 75.5 211t192.5 80q90 0 163 -41l-45 -149q-48 23 -84 23q-83 0 -83 -124q0 -123 86 -123q43 0 92 26z" />
    <glyph glyph-name="uni0442" unicode="&#x442;" horiz-adv-x="908" 
d="M858 0h-217v271q0 94 -9 115q-11 25 -42 25q-14 0 -31 -5q3 -28 3 -149v-257h-216v270v14v39.5t-1.5 31t-4.5 26t-9 16t-14.5 11.5t-21.5 3q-10 0 -28 -2v-409h-217v534q117 40 248 40q103 0 164 -43q71 42 170 42q68 0 113.5 -18.5t69.5 -56.5t33.5 -84.5t9.5 -112.5
v-301z" />
    <glyph glyph-name="uni0443" unicode="&#x443;" horiz-adv-x="599" 
d="M585 547q-97 -328 -224 -669q-25 -54 -62 -73.5t-106 -19.5q-43 0 -142 30l44 146q32 -11 51 -11q10 0 17 3t12 11.5l7 12t6 18t4 15.5q-110 282 -187 537h228q31 -152 45 -215q18 -87 22 -97q2 6 5 20l8 38t9 40l51 214h212z" />
    <glyph glyph-name="uni0444" unicode="&#x444;" horiz-adv-x="794" 
d="M515 -215h-215v195q-26 3 -48 9q-98 16 -156.5 79.5t-69.5 158.5q-10 125 47.5 210t176.5 101q9 3 27 4.5t23 2.5v185h215v-185q6 -1 20.5 -1.5t22.5 -2.5q116 -14 180.5 -101t50.5 -214q-10 -101 -71.5 -163t-159.5 -75q-23 -7 -43 -8v-195zM530 382q-6 2 -15 2v-234
q6 -1 15 2q47 10 47 115t-47 115zM289 150h11v234q-8 0 -16 -3q-46 -11 -46 -115q0 -57 10.5 -84.5t40.5 -31.5z" />
    <glyph glyph-name="uni0445" unicode="&#x445;" horiz-adv-x="609" 
d="M609 -15h-238l-72 141l-77 -141h-222l182 289l-176 273h234l70 -124h1l73 124h217l-179 -265z" />
    <glyph glyph-name="uni0446" unicode="&#x446;" horiz-adv-x="682" 
d="M567 547v-317q0 -65 18 -80.5t87 -15.5v-314h-190v175q-9 -1 -25 -5q-86 -16 -147 -16q-136 0 -198 59t-62 178v336h216v-336q0 -35 11.5 -52.5t38.5 -17.5q18 0 35 3v403h216z" />
    <glyph glyph-name="uni0447" unicode="&#x447;" horiz-adv-x="568" 
d="M532 -15h-216v155q-16 -1 -43 -1q-128 0 -193 47.5t-65 161.5v199h217v-216q0 -36 51 -36q13 0 33 4v248h216v-562z" />
    <glyph glyph-name="uni0448" unicode="&#x448;" horiz-adv-x="908" 
d="M50 547h217v-282q0 -76 8 -103t43 -27q16 0 31 6q-3 35 -3 111v295h216v-282v-41t1.5 -31.5t4.5 -26t9 -16t14.5 -11.5t21.5 -3q10 0 28 2v409h217v-534q-117 -40 -248 -40q-103 0 -164 43q-57 -33 -125 -39q-46 -3 -87 1q-105 11 -144.5 74t-39.5 184v311z" />
    </font>
</defs>
</svg>
