<?xml version="1.0" standalone="no"?>
<!DOCTYPE svg PUBLIC "-//W3C//DTD SVG 1.1//EN" "http://www.w3.org/Graphics/SVG/1.1/DTD/svg11.dtd" >
<svg>
<metadata>
Created by FontForge 20090622 at Mon Sep  4 15:02:22 2017
 By deploy user
Copyright (c) 2015 by Context Ltd. All rights reserved.
</metadata>
<defs>
<font id="Repo" horiz-adv-x="585" >
  <font-face 
    font-family="Repo"
    font-weight="400"
    font-stretch="normal"
    units-per-em="1000"
    panose-1="2 0 5 3 4 0 0 2 0 4"
    ascent="800"
    descent="-200"
    x-height="531"
    cap-height="695"
    bbox="-537 -277 1401 1200"
    underline-thickness="120"
    underline-position="-183"
    unicode-range="U+0009-U+FB04"
  />
<missing-glyph horiz-adv-x="574" 
d="M97 72h420q-9 58 -40 101q-216 -29 -380 -101zM348 313q-144 -73 -272 -241q178 125 340 183q-36 38 -68 58zM69 74v-2q65 144 202 283q-40 18 -77 25q-72 -123 -125 -306zM50 0v530h486v-530h-486z" />
    <glyph glyph-name="f_f" unicode="ff" horiz-adv-x="769" 
d="M408 555q0 109 40 166.5t138 57.5q36 0 65 -7l-9 -61q-26 5 -47 5q-28 0 -47.5 -9t-30.5 -23.5t-17.5 -39.5t-8.5 -50t-2 -63h151v-60h-151v-473h-81v465l-77 8h-99v-473h-81v465l-77 8l-7 37l77 23l7 24q0 109 40 166.5t138 57.5q36 0 65 -7l-9 -61q-26 5 -47 5
q-28 0 -47.5 -9t-30.5 -23.5t-17.5 -39.5t-8.5 -50t-2 -63h151v-5l18 5z" />
    <glyph glyph-name="f_i" unicode="fi" horiz-adv-x="626" 
d="M562 674q0 -27 -16.5 -43.5t-41.5 -16.5t-41.5 16.5t-16.5 43.5t16.5 43t41.5 16t41.5 -16t16.5 -43zM547 522v-526h-85v526h85zM279 780q73 0 110 -20l-17 -73q-38 17 -88 17q-75 0 -97 -39.5t-22 -142.5h204v-73h-204v-453h-85v574q0 210 199 210z" />
    <glyph glyph-name="f_l" unicode="fl" horiz-adv-x="653" 
d="M632 39l-17 -53q-82 10 -117 47t-35 133v614h81v-548q0 -62 3 -95.5t15 -53.5t25.5 -27.5t44.5 -16.5zM279 780q73 0 110 -20l-17 -73q-38 17 -88 17q-75 0 -97 -39.5t-22 -142.5h204v-73h-204v-453h-85v574q0 210 199 210z" />
    <glyph glyph-name="f_f_i" unicode="ffi" horiz-adv-x="1008" 
d="M661 780q73 0 110 -20l-17 -73q-38 17 -88 17q-75 0 -97 -39.5t-22 -142.5h204v-73h-204v-453h-85v574q0 210 199 210zM279 780q77 0 112 -21l-17 -73q-40 18 -90 18q-75 0 -97 -39.5t-22 -142.5h204v-73h-204v-453h-85v574q0 210 199 210zM851 549q-21 27 -21 67
q0 29 11.5 51t29.5 33h29q42 -49 42 -125q-7 -20 -27 -32q16 -177 16 -300q0 -81 -3 -157q-19 -8 -42 -8q-12 0 -36 2q-9 184 -9 312q0 80 3 156z" />
    <glyph glyph-name="f_f_l" unicode="ffl" horiz-adv-x="1042" 
d="M1011 39l-17 -53q-82 10 -117 47t-35 133v614h81v-548q0 -62 3 -95.5t15 -53.5t25.5 -27.5t44.5 -16.5zM661 780q73 0 110 -20l-17 -73q-38 17 -88 17q-75 0 -97 -39.5t-22 -142.5h204v-73h-204v-453h-85v574q0 210 199 210zM279 780q77 0 112 -21l-17 -73q-40 18 -90 18
q-75 0 -97 -39.5t-22 -142.5h204v-73h-204v-453h-85v574q0 210 199 210z" />
    <glyph glyph-name=".notdef" horiz-adv-x="574" 
d="M97 72h420q-9 58 -40 101q-216 -29 -380 -101zM348 313q-144 -73 -272 -241q178 125 340 183q-36 38 -68 58zM69 74v-2q65 144 202 283q-40 18 -77 25q-72 -123 -125 -306zM50 0v530h486v-530h-486z" />
    <glyph glyph-name=".null" horiz-adv-x="0" 
 />
    <glyph glyph-name=".null" horiz-adv-x="0" 
 />
    <glyph glyph-name="nonmarkingreturn" horiz-adv-x="333" 
 />
    <glyph glyph-name="CR" unicode="&#x9;" horiz-adv-x="230" 
 />
    <glyph glyph-name="space" unicode=" " horiz-adv-x="251" 
 />
    <glyph glyph-name="exclam" unicode="!" horiz-adv-x="214" 
d="M164 48q0 -24 -16 -40t-41 -16t-41 16t-16 40t16 41t41 17t41 -16.5t16 -41.5zM150 734l-3 -256q-1 -59 -16 -272h-49q-15 181 -16 272l-3 256q20 10 42 10q27 0 45 -10z" />
    <glyph glyph-name="quotedbl" unicode="&#x22;" horiz-adv-x="328" 
d="M278 734q-10 -141 -23 -254h-42q-9 80 -23 254q20 10 44 10q26 0 44 -10zM138 734q-14 -178 -23 -254h-42q-13 113 -23 254q18 10 44 10q24 0 44 -10z" />
    <glyph glyph-name="numbersign" unicode="#" horiz-adv-x="659" 
d="M383 436h-143l-34 -173h144zM556 436h-111l-32 -173h124v-56h-134l-38 -209h-63l38 209h-143l-40 -209h-62l39 208h-99v57h108l33 173h-122v56h133l36 200h63l-36 -200h143l37 200h63l-37 -200h100v-56z" />
    <glyph glyph-name="dollar" unicode="$" horiz-adv-x="565" 
d="M94 107q60 -37 139 -37q10 0 34 2q57 6 85.5 36t28.5 76q0 51 -33 80t-109 57q-135 52 -153 144q-4 22 -4 36q1 73 44 120t122 58q-2 78 -4 116h64q-2 -39 -4 -115q80 -3 133 -32q-12 -40 -19 -60q-62 30 -128 30q-61 0 -93 -29t-32 -82q0 -27 9 -46.5t30.5 -34t39 -23
t53.5 -22.5q86 -33 127.5 -79t41.5 -113q0 -76 -47 -125t-127 -59q2 -86 4 -125h-65q2 41 4 123q-101 2 -164 40q21 58 23 64z" />
    <glyph glyph-name="percent" unicode="%" horiz-adv-x="841" 
d="M283 497q0 68 -19 114.5t-62 46.5q-44 0 -63 -46.5t-19 -114.5t19 -114t63 -46q43 0 62 46.5t19 113.5zM723 196v6q0 65 -19 109.5t-62 44.5q-81 0 -81 -160t81 -160t81 160zM343 497q0 -91 -36.5 -150.5t-104.5 -59.5q-69 0 -105.5 59.5t-36.5 150.5q0 90 36.5 149
t105.5 59q68 0 104.5 -59t36.5 -149zM614 707l-327 -735l-66 9l328 734zM783 196q0 -91 -36.5 -150t-104.5 -59t-104.5 58t-36.5 147q0 92 35.5 152t105.5 60q68 0 104.5 -59t36.5 -149z" />
    <glyph glyph-name="ampersand" unicode="&#x26;" horiz-adv-x="657" 
d="M387 556q0 40 -25 65t-68 25q-100 0 -100 -101q0 -78 74 -138q119 58 119 149zM120 183q0 -53 37.5 -92t111.5 -39q95 0 174 77l-205 217q-35 -19 -56.5 -34.5t-41.5 -49.5t-20 -79zM46 181q0 130 152 203q-62 60 -71 121q-3 16 -3 30v10q1 76 47.5 119.5t121.5 43.5
q76 0 120 -42.5t44 -107.5t-41 -108.5t-112 -82.5l174 -181q40 66 52 155l68 -7q-24 -115 -70 -187q71 -76 112 -147h-81q-36 57 -71 92q-99 -101 -220 -101q-60 0 -105 17t-69.5 46t-36 61t-11.5 66z" />
    <glyph glyph-name="quotesingle" unicode="'" horiz-adv-x="241" 
d="M157 720l-2 -57q-2 -75 -17 -194h-45q-17 130 -19 210q0 15 -2 41q17 10 41 10q27 0 44 -10z" />
    <glyph glyph-name="parenleft" unicode="(" horiz-adv-x="316" 
d="M318 -175l-51 -32q-193 242 -193 499q0 258 193 500l51 -32q-160 -213 -160 -468t160 -467z" />
    <glyph glyph-name="parenright" unicode=")" horiz-adv-x="316" 
d="M263 292q0 -257 -194 -499l-50 32q159 210 159 467q0 256 -159 468q9 5 25 16t25 16q194 -242 194 -500z" />
    <glyph glyph-name="asterisk" unicode="*" horiz-adv-x="476" 
d="M197 693h81q0 -72 -19 -167l35 17.5l40 19.5t37 16t42 15l25 -77q-63 -22 -165 -34l22 -22l25 -25l22.5 -23t24 -27.5t19.5 -26.5l-65 -48q-26 31 -84 146l-17.5 -35l-21 -41.5t-19.5 -34t-25 -36.5l-66 49q27 38 113 124q-101 11 -164 34l24 77q18 -5 39.5 -13.5
t36 -15.5l40.5 -20l38 -19q-18 90 -18 167z" />
    <glyph glyph-name="plus" unicode="+" horiz-adv-x="565" 
d="M483 279h-178v-194h-67v194h-177v67h177v193h67v-193h178v-67z" />
    <glyph glyph-name="comma" unicode="," horiz-adv-x="254" 
d="M179 75q-23 -111 -97 -242l-54 15q40 98 56 204q1 6 2.5 18.5t2.5 18.5q62 11 72 11q23 0 18 -25z" />
    <glyph glyph-name="hyphen" unicode="-" horiz-adv-x="312" 
d="M272 273h-232v65h232v-65z" />
    <glyph glyph-name="period" unicode="." horiz-adv-x="251" 
d="M181 48q0 -25 -16.5 -41.5t-41.5 -16.5t-42 16.5t-17 41.5q0 26 17 42.5t42 16.5t41.5 -16.5t16.5 -42.5z" />
    <glyph glyph-name="slash" unicode="/" horiz-adv-x="370" 
d="M402 791l69 -12l-408 -987l-68 13z" />
    <glyph glyph-name="zero" unicode="0" horiz-adv-x="565" 
d="M406 345q0 57 -6 105.5t-20 94t-42 72t-67 26.5t-66.5 -26.5t-41.5 -72t-20 -94t-6 -105.5t6 -105t20 -92.5t41.5 -70.5t66.5 -26t67 26t42 70.5t20 92.5t6 105zM489 345q0 -158 -54 -258.5t-164 -100.5q-74 0 -124.5 50.5t-71.5 128.5t-21 180q0 159 53.5 259.5
t163.5 100.5q75 0 125.5 -50.5t71.5 -129t21 -180.5z" />
    <glyph glyph-name="one" unicode="1" horiz-adv-x="565" 
d="M358 -2h-81v581q-26 -20 -75.5 -40t-92.5 -29l-11 33l-5 25q137 30 209 124h56v-694z" />
    <glyph glyph-name="two" unicode="2" horiz-adv-x="565" 
d="M362 516q0 120 -128 120h-7q-75 -3 -134 -47l-34 55q83 61 183 61q98 0 153.5 -50t55.5 -137q0 -90 -101 -204q-41 -46 -48 -55q-13 -17 -38 -47l-44 -53.5t-33 -43.5l-23 -47h303v-70h-409q6 32 9 50q6 24 18 49t22.5 43t33.5 45.5l33 39t38.5 41.5l34.5 36l43 52
q69 83 72 153v9z" />
    <glyph glyph-name="three" unicode="3" horiz-adv-x="565" 
d="M379 195q0 146 -208 146v58q19 1 49 7q56 9 93.5 38.5t37.5 84.5q0 56 -35 82.5t-87 26.5q-75 0 -133 -37l-29 58q77 46 168 46q92 0 146 -46t54 -123q0 -58 -36 -97.5t-83 -56.5v-1q63 -18 106.5 -63t43.5 -124q0 -94 -64.5 -151t-176.5 -57q-110 0 -174 37l22 64
q58 -34 145 -34q79 0 120 37.5t41 104.5z" />
    <glyph glyph-name="four" unicode="4" horiz-adv-x="565" 
d="M346 599q-20 -23 -56 -82q-94 -139 -169 -288h225v370zM494 169h-70v-171h-78v171h-297v53q125 250 295 470h80v-463h70v-60z" />
    <glyph glyph-name="five" unicode="5" horiz-adv-x="565" 
d="M470 197q0 -91 -63.5 -151t-175.5 -60q-105 0 -171 36q4 15 20 65q63 -34 146 -34q73 0 115.5 38t42.5 104q0 76 -51.5 117.5t-172.5 41.5q-38 0 -59 -2q17 165 27 340h322v-70h-257q-10 -150 -16 -208h24q133 0 201 -58.5t68 -158.5z" />
    <glyph glyph-name="six" unicode="6" horiz-adv-x="565" 
d="M407 204q0 153 -142 153q-57 0 -115 -24q-6 -35 -6 -74q2 -210 138 -210q64 0 94.5 44.5t30.5 110.5zM490 204q0 -89 -54.5 -153.5t-153.5 -64.5q-107 0 -163 72.5t-56 203.5q0 105 32.5 188t86 133.5t115.5 78.5t130 35l12 -62q-226 -38 -279 -243q53 24 114 24
q103 0 159.5 -57.5t56.5 -154.5z" />
    <glyph glyph-name="seven" unicode="7" horiz-adv-x="565" 
d="M491 692l-47 -143q-31 -43 -40 -60q-61 -120 -108.5 -256t-60.5 -235h-56q-6 0 -18.5 0.5t-18.5 1.5q38 153 108 322.5t146 298.5h-333v71h428z" />
    <glyph glyph-name="eight" unicode="8" horiz-adv-x="565" 
d="M405 169q0 59 -34 90t-119 70q-64 -34 -90 -71t-26 -89q0 -54 37.5 -87.5t97.5 -33.5q62 0 98 34t36 87zM391 531q0 48 -31.5 81t-87.5 33q-55 0 -87 -32.5t-32 -82.5q0 -51 28 -83t106 -63q55 31 79.5 65t24.5 82zM59 164q0 68 33 112.5t99 81.5q-63 35 -89.5 75
t-26.5 93q0 79 56 129t140 50q87 0 140 -47.5t55 -118.5q2 -17 -2 -29q-8 -87 -115 -153q137 -73 137 -185q0 -82 -59.5 -134t-155.5 -52q-91 0 -151.5 49t-60.5 129z" />
    <glyph glyph-name="nine" unicode="9" horiz-adv-x="565" 
d="M399 428q0 212 -137 212q-64 0 -95 -44.5t-31 -110.5q0 -152 143 -152q57 0 115 24q5 30 5 71zM481 425q0 -106 -32 -189.5t-86 -134t-117.5 -78t-132.5 -31.5q-1 3 -12 62q229 25 284 244q-55 -25 -115 -25q-103 0 -159.5 57t-56.5 154q0 88 54.5 153.5t153.5 65.5
q107 0 163 -73t56 -205z" />
    <glyph glyph-name="colon" unicode=":" horiz-adv-x="250" 
d="M181 48q0 -25 -16.5 -41.5t-41.5 -16.5t-42 16.5t-17 41.5q0 26 17 42.5t42 16.5t41.5 -16.5t16.5 -42.5zM181 409q0 -25 -16.5 -42t-41.5 -17t-42 17t-17 42t17 42t42 17t41.5 -16.5t16.5 -42.5z" />
    <glyph glyph-name="semicolon" unicode=";" horiz-adv-x="238" 
d="M179 75q-23 -111 -97 -242l-54 15q40 98 56 204q1 6 2.5 18.5t2.5 18.5q62 11 72 11q23 0 18 -25zM184 409q0 -25 -17 -42t-42 -17t-42 17t-17 42t17 42t42 17t42 -17t17 -42z" />
    <glyph glyph-name="less" unicode="&#x3c;" horiz-adv-x="565" 
d="M471 105l-411 177v63l411 177l12 -66l-339 -143l339 -143z" />
    <glyph glyph-name="equal" unicode="=" horiz-adv-x="565" 
d="M483 184h-422v65h422v-65zM483 441v-66h-422v66h422z" />
    <glyph glyph-name="greater" unicode="&#x3e;" horiz-adv-x="565" 
d="M483 282l-411 -177q-10 52 -13 65l339 143l-339 143q3 12 13 66l411 -177v-63z" />
    <glyph glyph-name="question" unicode="?" horiz-adv-x="390" 
d="M227 48q0 -24 -16 -40t-41 -16t-41 16t-16 40t16 41t41 17t41 -16.5t16 -41.5zM362 548q0 -40 -17 -74t-41.5 -59.5l-49 -50.5t-42.5 -58t-19 -71q0 -8 -0.5 -41t-0.5 -37h-63q-9 56 -9 103q0 35 25 74.5t55 68.5t55 66.5t25 69.5q0 47 -32 74t-83 27q-63 0 -112 -29
l-22 55q58 36 144 36q92 0 139.5 -42t47.5 -112z" />
    <glyph glyph-name="at" unicode="@" horiz-adv-x="945" 
d="M328 253q0 -56 23 -95.5t76 -39.5q56 0 100 36l23 222q0 29 -28 46.5t-62 17.5q-6 0 -18 -2q-54 -12 -84 -63.5t-30 -121.5zM496 652q-159 0 -261 -113t-102 -291q0 -151 86 -247t248 -96q147 0 231 81q6 -22 14 -48q-89 -87 -245 -87q-184 0 -290 109.5t-106 284.5
q0 16 2 48q12 176 131.5 293.5t292.5 117.5q14 0 42 -2q132 -11 214.5 -102t82.5 -235q0 -106 -45.5 -190.5t-117.5 -103.5q-16 -4 -35 -4q-56 0 -84 55q-63 -56 -146 -56q-71 0 -108.5 50.5t-37.5 132.5q0 59 23.5 115t71.5 95t110 39q31 0 59 -13.5t41 -33.5l8 38l52 -13
l-32 -296q-2 -8 -2 -21q0 -25 15 -38t37 -13q31 0 56 26.5t40.5 67.5t23.5 86t8 85q0 14 -2 34q-12 109 -86.5 177t-188.5 68z" />
    <glyph glyph-name="A" unicode="A" horiz-adv-x="627" 
d="M429 260l-90 256q-6 16 -12.5 36.5l-10 32t-7.5 17.5q-5 -8 -14 -38l-55 -156.5l-52 -147.5h241zM607 -2h-91q-59 177 -67 199h-281q-45 -125 -69 -199h-83q167 472 258 694h75q78 -193 258 -694z" />
    <glyph glyph-name="B" unicode="B" horiz-adv-x="636" 
d="M459 190q0 81 -55 111.5t-172 30.5h-68v-267q44 -11 100 -11q195 0 195 136zM432 517q0 122 -171 122q-2 0 -5 -0.5t-4 -0.5h-9q-44 0 -79 -10v-238h65q103 0 153 28t50 99zM546 191q0 -101 -73.5 -151t-210.5 -50q-109 0 -181 28v654q74 28 179 28q117 0 186.5 -45.5
t69.5 -132.5q0 -60 -33.5 -99.5t-83.5 -55.5q61 -14 104 -59t43 -117z" />
    <glyph glyph-name="C" unicode="C" horiz-adv-x="609" 
d="M361 636q-107 0 -161.5 -84t-54.5 -212q2 -102 37.5 -174t103.5 -97q32 -12 68 -12h8q75 0 133 32l24 -63q-57 -40 -173 -40q-131 0 -210.5 98.5t-79.5 260.5q0 159 82.5 259.5t209.5 100.5q108 0 167 -43l-24 -63q-58 37 -130 37z" />
    <glyph glyph-name="D" unicode="D" horiz-adv-x="707" 
d="M505 350q0 138 -61.5 212t-182.5 74q-58 0 -95 -11v-557q31 -11 95 -11q244 0 244 293zM593 349q0 -170 -87.5 -264.5t-245.5 -94.5q-108 0 -179 27v655q76 28 178 28q157 0 245.5 -91t88.5 -260z" />
    <glyph glyph-name="E" unicode="E" horiz-adv-x="562" 
d="M461 -2h-380v694h367v-66h-281v-234h251v-66h-251v-262h294v-66z" />
    <glyph glyph-name="F" unicode="F" horiz-adv-x="528" 
d="M444 626h-277v-236h248v-66h-248v-326h-86v694h363v-66z" />
    <glyph glyph-name="G" unicode="G" horiz-adv-x="664" 
d="M556 22q-70 -36 -196 -36q-133 0 -219 94.5t-86 267.5q0 168 89 262.5t221 94.5q114 0 183 -43l-26 -63q-57 36 -149 36h-4q-105 0 -165 -75t-60 -217q0 -136 59.5 -213t162.5 -77q74 0 106 16v225h-68v69h152v-341z" />
    <glyph glyph-name="H" unicode="H" horiz-adv-x="698" 
d="M563 -2h-85v327h-311v-327h-86v694h86v-301h311v301h85v-694z" />
    <glyph glyph-name="I" unicode="I" horiz-adv-x="258" 
d="M168 -2h-85v694h85v-694z" />
    <glyph glyph-name="J" unicode="J" horiz-adv-x="493" 
d="M288 122q0 -96 -44 -156t-133 -73q-10 -1 -28 -1q-55 0 -103 19q10 37 19 65q34 -10 59 -10q23 0 45 7q60 16 80 62.5t20 145.5v511h85v-570z" />
    <glyph glyph-name="K" unicode="K" horiz-adv-x="611" 
d="M549 -2h-60q-7 0 -19 0.5t-19 0.5q-130 197 -283 343v-344h-85v694h85v-314q174 191 269 314h96q-91 -109 -285 -325q79 -77 162.5 -178.5t138.5 -190.5z" />
    <glyph glyph-name="L" unicode="L" horiz-adv-x="511" 
d="M435 -2h-352v694h85v-628h267v-66z" />
    <glyph glyph-name="M" unicode="M" horiz-adv-x="869" 
d="M764 -2h-84q-25 363 -46 580q-2 0 -20 -55q-3 -7 -74 -201t-98 -275h-65q-25 80 -95 270l-76 206q-18 53 -19 55q-25 -256 -48 -580h-79q41 468 68 694h83q120 -306 178 -473q7 -19 14 -43t8 -27q2 0 5.5 10t9 28.5t9.5 30.5q90 255 180 474h81q27 -226 68 -694z" />
    <glyph glyph-name="N" unicode="N" horiz-adv-x="716" 
d="M599 -2h-44l-31 1q-114 199 -321 510q-8 12 -19 31t-17.5 29t-8.5 10q0 -15 1 -103t1 -134v-344h-79v694h80q184 -257 324 -490l16 -28.5t14 -24.5t8 -11q0 30 -1 140t-1 163v251h78v-694z" />
    <glyph glyph-name="O" unicode="O" horiz-adv-x="690" 
d="M546 347q0 128 -51 209.5t-150 81.5t-150 -81.5t-51 -209.5q0 -129 50.5 -210.5t150.5 -81.5t150.5 81.5t50.5 210.5zM634 345q0 -165 -77.5 -262t-211.5 -97t-211.5 97t-77.5 262q0 164 78 262t211 98t211 -98t78 -262z" />
    <glyph glyph-name="P" unicode="P" horiz-adv-x="599" 
d="M436 488q0 149 -180 149q-41 0 -91 -10v-289q10 0 27.5 -0.5t26.5 -0.5q5 0 14 -0.5t13 -0.5q96 0 143 37t47 115zM522 487q0 -103 -69 -159t-203 -56q-4 0 -12.5 0.5t-13.5 0.5q-10 0 -29.5 0.5t-29.5 0.5v-276h-84v674q76 28 175 28q132 0 199 -56t67 -157z" />
    <glyph glyph-name="Q" unicode="Q" horiz-adv-x="776" 
d="M546 347q0 129 -50.5 210t-151.5 81q-100 0 -150.5 -81.5t-50.5 -209.5q0 -127 50.5 -209t150.5 -82q101 0 151.5 82t50.5 209zM633 346q0 -130 -52.5 -218.5t-145.5 -123.5q31 -64 167 -129l-40 -64q-49 25 -80.5 45t-66 57t-48.5 80q-11 -2 -30 -2q-15 0 -45 4
q-114 15 -175.5 109t-61.5 242q0 163 78 261t211 98t211 -97.5t78 -261.5z" />
    <glyph glyph-name="R" unicode="R" horiz-adv-x="627" 
d="M434 488q0 153 -174 153q-59 0 -94 -13v-280h94q83 0 128.5 31t45.5 109zM550 -2h-95q-125 211 -198 294h-91v-294h-83v674q75 28 173 28q130 0 197 -54t67 -157q0 -79 -45.5 -129.5t-127.5 -60.5v-1q79 -98 203 -300z" />
    <glyph glyph-name="S" unicode="S" horiz-adv-x="526" 
d="M450 183q0 -91 -62 -144t-166 -53q-116 0 -185 43l12.5 33.5l12.5 33.5q66 -41 154 -41q70 0 108 32t38 93q0 55 -35 84.5t-114 60.5q-137 55 -158 150q-5 19 -5 49q3 81 59.5 131t151.5 50q102 0 164 -43l-25 -62q-63 38 -136 38q-61 0 -95 -30t-34 -86q0 -52 34 -79.5
t105 -56.5q93 -36 134.5 -84t41.5 -119z" />
    <glyph glyph-name="T" unicode="T" horiz-adv-x="557" 
d="M466 626h-179v-628h-86v628h-179v66h444v-66z" />
    <glyph glyph-name="U" unicode="U" horiz-adv-x="684" 
d="M552 227q0 -107 -61 -174.5t-176 -67.5q-102 0 -162 54.5t-69 142.5q-4 40 -4 93v417h84v-407q0 -116 35 -172.5t118 -56.5q58 0 98.5 35t49.5 98q5 48 5 96v407h82v-465z" />
    <glyph glyph-name="V" unicode="V" horiz-adv-x="638" 
d="M566 692q-132 -407 -237 -694h-43l-33 1q-112 307 -238 693h92q78 -261 156 -496q27 -86 30 -93q6 12 32 93q47 139 155 496h86z" />
    <glyph glyph-name="W" unicode="W" horiz-adv-x="925" 
d="M836 692q-79 -393 -165 -694h-81l-135 446q-4 13 -8 31.5t-7 30t-5 17.5q-3 -5 -6 -17t-7 -30t-8 -32q-29 -105 -136 -446h-79q-81 272 -165 694h88q47 -253 98 -484l12.5 -55.5t11.5 -49.5q3 2 30 94q64 212 128 454h70q61 -238 128 -453q26 -88 29 -94q2 4 4 14.5
l5.5 27.5t6.5 28q50 218 109 518h82z" />
    <glyph glyph-name="X" unicode="X" horiz-adv-x="578" 
d="M549 -2h-60q-6 0 -18.5 0.5t-17.5 0.5q-52 106 -166 297q-116 -192 -169 -298h-89q65 127 212 362l-196 332h95l150 -266h1l156 266h88l-198 -327q143 -232 212 -367z" />
    <glyph glyph-name="Y" unicode="Y" horiz-adv-x="582" 
d="M528 692q-134 -256 -216 -397v-297h-85v296q-107 187 -216 398h95q91 -195 166 -328q75 135 169 328h87z" />
    <glyph glyph-name="Z" unicode="Z" horiz-adv-x="567" 
d="M463 -2h-434v63q19 41 46.5 93l51 94l60.5 105l56.5 95.5l58.5 97l48 79.5h-305v67h409v-60l-92.5 -158l-129.5 -223t-99 -186h330v-67z" />
    <glyph glyph-name="bracketleft" unicode="[" horiz-adv-x="319" 
d="M301 -202h-214v988h214v-57h-138v-873h138v-58z" />
    <glyph glyph-name="backslash" unicode="\" horiz-adv-x="370" 
d="M474 -195q-43 -7 -71 -13l-408 986l68 13z" />
    <glyph glyph-name="bracketright" unicode="]" horiz-adv-x="319" 
d="M242 -202h-215v58h139v873h-139v57h215v-988z" />
    <glyph glyph-name="asciicircum" unicode="^" horiz-adv-x="565" 
d="M495 417q-32 -20 -47 -31l-164 241l-163 -241q-16 11 -48 31l151 234q17 27 41 46q33 0 60 -13z" />
    <glyph glyph-name="underscore" unicode="_" horiz-adv-x="525" 
d="M525 -191h-525v65h525v-65z" />
    <glyph glyph-name="grave" unicode="`" horiz-adv-x="235" 
d="M209 576h-49l-145 182h108z" />
    <glyph glyph-name="a" unicode="a" horiz-adv-x="515" 
d="M352 60v210q-42 3 -49 3q-10 0 -36 -2q-67 -9 -105 -35t-38 -85q0 -104 128 -104q59 0 100 13zM431 19q-70 -31 -188 -31q-96 0 -148 41t-52 121q0 84 61.5 127t165.5 52q4 0 11 0.5t10 0.5q19 0 61 -3q-1 77 -25.5 113.5t-94.5 36.5q-74 0 -130 -28l-15 61q62 32 153 32
q89 0 138.5 -45t51.5 -131q0 -9 0.5 -29t0.5 -30v-288z" />
    <glyph glyph-name="b" unicode="b" horiz-adv-x="586" 
d="M419 267q0 93 -37.5 151.5t-115.5 58.5q-62 0 -109 -31v-383q37 -13 95 -13q82 0 124.5 57.5t42.5 159.5zM503 268q0 -129 -67 -205t-184 -76q-106 0 -176 33v760h81v-272q52 31 123 31q102 0 162.5 -74.5t60.5 -196.5z" />
    <glyph glyph-name="c" unicode="c" horiz-adv-x="466" 
d="M410 20q-48 -32 -132 -32q-106 0 -167 74.5t-61 201.5t61.5 202.5t164.5 75.5q78 0 129 -32l-20 -59q-42 24 -98 24q-77 0 -115 -55.5t-38 -154.5q0 -98 39 -154t118 -56q56 0 100 27z" />
    <glyph glyph-name="d" unicode="d" horiz-adv-x="586" 
d="M395 65v387q-48 25 -97 25q-86 0 -125.5 -59.5t-39.5 -154.5q0 -98 43 -155t124 -57q67 0 95 14zM476 21q-70 -34 -179 -34q-115 0 -181 73.5t-66 198.5q0 128 63.5 203.5t172.5 75.5q54 0 109 -24v266h81v-759z" />
    <glyph glyph-name="e" unicode="e" horiz-adv-x="553" 
d="M402 315q-3 163 -129 163q-62 0 -101 -49t-41 -135zM481 262l-348 -25q11 -183 172 -183q73 0 133 30l17 -63q-56 -33 -155 -33q-121 0 -185.5 72t-64.5 205q0 132 64 204.5t160 72.5q89 0 142.5 -53t62.5 -159q2 -26 2 -68z" />
    <glyph glyph-name="f" unicode="f" horiz-adv-x="388" 
d="M92 555q0 112 39.5 168t138.5 56q37 0 65 -7l-9 -61q-30 5 -47 5q-65 0 -85 -44t-21 -141h151v-60h-151v-473h-81v465h-80v68h80v24z" />
    <glyph glyph-name="g" unicode="g" horiz-adv-x="576" 
d="M391 97v368q-31 14 -95 14q-79 0 -121 -57.5t-42 -155.5t40.5 -149t110.5 -51q65 0 107 31zM471 10q0 -218 -225 -218q-98 0 -165 31q8 29 21 65q55 -28 131 -30q75 0 113 35q46 34 46 109v33q-48 -30 -120 -30q-99 0 -160.5 67.5t-61.5 192.5q0 124 65 200t182 76
q102 0 174 -33v-498z" />
    <glyph glyph-name="h" unicode="h" horiz-adv-x="572" 
d="M475 -2h-81v285q0 40 -1.5 64.5t-8.5 51.5t-20.5 41.5t-37 24t-58.5 9.5q-68 0 -110 -24v-452h-82v782h82v-270q60 28 118 28h4q53 0 90.5 -15t57.5 -36t31 -56.5t13.5 -63.5t2.5 -70v-299z" />
    <glyph glyph-name="i" unicode="i" horiz-adv-x="244" 
d="M160 -2h-81v533h81v-533zM172 682q0 -23 -15 -37.5t-38 -14.5q-22 0 -37 14.5t-15 37.5t15 37.5t37 14.5q23 0 38 -14.5t15 -37.5z" />
    <glyph glyph-name="j" unicode="j" horiz-adv-x="244" 
d="M162 17q0 -186 -144 -212q-18 -6 -43 -6q-13 0 -19 1l6 56q63 10 89.5 47.5t28.5 109.5v518h82v-514zM173 682q0 -23 -15 -37.5t-37 -14.5q-23 0 -37.5 14.5t-14.5 37.5t14.5 37.5t37.5 14.5q22 0 37 -14.5t15 -37.5z" />
    <glyph glyph-name="k" unicode="k" horiz-adv-x="507" 
d="M477 -2h-94q-124 178 -224 264v-264h-81v782h81v-486q128 142 206 237h93l-222 -247q135 -131 241 -286z" />
    <glyph glyph-name="l" unicode="l" horiz-adv-x="277" 
d="M248 39l-17 -53q-82 10 -117 47t-35 133v614h81v-548q0 -62 3 -95.5t15 -53.5t25.5 -27.5t44.5 -16.5z" />
    <glyph glyph-name="m" unicode="m" horiz-adv-x="863" 
d="M773 -2h-81v288q0 40 -1 62t-7 50.5t-17.5 42.5t-33 24.5t-53.5 10.5q-75 0 -123 -46q9 -70 9 -154v-278h-82v290q0 41 -1.5 65t-8 51t-19.5 40.5t-36 23t-57 9.5q-67 0 -104 -16v-463h-82v509q85 34 193 34q103 0 153 -61q68 61 168 61q51 0 87 -15.5t54 -37t28 -58
t12 -62.5t2 -68v-302z" />
    <glyph glyph-name="n" unicode="n" horiz-adv-x="572" 
d="M475 -2h-81v288q0 40 -1 61.5t-8 50.5t-20 43.5t-38 25t-61 10.5q-66 0 -108 -16v-463h-82v507q74 36 199 36q54 0 92.5 -15t59 -36.5t32 -56.5t14 -63.5t2.5 -69.5v-302z" />
    <glyph glyph-name="o" unicode="o" 
d="M417 264q0 94 -35 154.5t-106 60.5q-72 0 -107.5 -60.5t-35.5 -154.5t35.5 -152.5t107.5 -58.5t106.5 58.5t34.5 152.5zM500 264q0 -124 -59.5 -200.5t-164.5 -76.5q-106 0 -166 76.5t-60 200.5q0 125 60 201.5t165 76.5q106 0 165.5 -76.5t59.5 -201.5z" />
    <glyph glyph-name="p" unicode="p" horiz-adv-x="586" 
d="M419 266q0 101 -42 156.5t-124 55.5q-65 0 -96 -14v-388q50 -25 97 -25q83 0 124 57t41 158zM503 268q0 -128 -63.5 -204t-173.5 -76q-63 0 -109 25v-215h-81v709q72 34 179 34q115 0 181.5 -73.5t66.5 -199.5z" />
    <glyph glyph-name="q" unicode="q" horiz-adv-x="586" 
d="M396 83v381q-31 14 -96 14q-80 0 -123.5 -57.5t-43.5 -160.5q0 -98 38 -153.5t117 -55.5q64 0 108 32zM476 -202h-80v221q-50 -31 -122 -31q-105 0 -164.5 73.5t-59.5 196.5q0 129 66 206t184 77q102 0 176 -33v-710z" />
    <glyph glyph-name="r" unicode="r" horiz-adv-x="381" 
d="M335 532l-18 -65q-28 8 -66 8h-15q-51 0 -78 -16v-461h-82v506q66 31 156 35h13q45 0 90 -7z" />
    <glyph glyph-name="s" unicode="s" horiz-adv-x="436" 
d="M376 140q0 -67 -52 -109.5t-139 -42.5q-91 0 -148 33l21 65q42 -32 123 -32q51 0 81.5 22t30.5 62q0 38 -24 59t-87 46q-69 28 -101 64t-32 88q0 64 47 105.5t125 41.5q81 0 134 -32q-14 -40 -20 -61q-50 29 -110 29q-44 0 -70 -21t-26 -58q0 -36 24.5 -56.5t81.5 -43.5
q73 -28 107 -64.5t34 -94.5z" />
    <glyph glyph-name="t" unicode="t" horiz-adv-x="403" 
d="M177 196q0 -78 17.5 -108.5t72.5 -30.5q35 0 61 14q1 -5 4.5 -27t4.5 -34q-33 -17 -83 -18h-2q-49 0 -81.5 18t-47.5 52.5t-20.5 68t-6.5 81.5v256h-64v59h64v153h81v-149h149v-60h-149v-275z" />
    <glyph glyph-name="u" unicode="u" horiz-adv-x="572" 
d="M468 25q-78 -37 -195 -37q-60 0 -101 17t-62 51t-29 74.5t-8 96.5v304h82v-284q0 -102 24.5 -148t100.5 -46q72 0 106 18v460h82v-506z" />
    <glyph glyph-name="v" unicode="v" horiz-adv-x="490" 
d="M466 531q-71 -241 -185 -533h-44q-5 0 -14.5 0.5t-14.5 0.5q-110 273 -186 532h87q40 -157 119 -384q4 -11 8 -24.5l6.5 -22.5t4.5 -13q1 2 20 60q85 254 120 384h79z" />
    <glyph glyph-name="w" unicode="w" horiz-adv-x="776" 
d="M746 531q-73 -276 -164 -533h-71q-67 200 -109 350q-4 14 -8.5 35.5t-6.5 26.5q-50 -183 -125 -412h-72q-91 257 -164 533h85q31 -141 104 -386q3 -11 6 -24t5 -20t4 -10l15 51q74 244 111 389h69q36 -161 107 -389q3 -10 8 -28.5t7 -22.5q2 2 4 9.5t5 21.5t6 23
q56 171 105 386h79z" />
    <glyph glyph-name="x" unicode="x" horiz-adv-x="507" 
d="M463 -2h-88q-54 99 -134 224q-57 -81 -134 -224h-85q61 107 174 278l-96 151l-65 104h91l117 -197h1l120 197h84l-160 -250q123 -187 175 -283z" />
    <glyph glyph-name="y" unicode="y" horiz-adv-x="490" 
d="M464 531q-96 -342 -182 -566q-26 -66 -50 -97t-63 -31q-14 0 -26 1.5t-23.5 6l-17 6.5t-17 8.5t-12.5 6.5l16 52q46 -25 61 -25q17 0 31 16.5t21 35.5t14 44q1 5 2 8q-117 275 -193 534h87q42 -167 119 -377q23 -73 24 -74q2 1 5.5 13t8.5 31.5t8 28.5q40 123 108 378h79
z" />
    <glyph glyph-name="z" unicode="z" horiz-adv-x="461" 
d="M400 -2h-368v49q30 57 73.5 130.5l107 174l74.5 118.5h-239v61h344v-51l-56 -85q-125 -187 -203 -337h267v-60z" />
    <glyph glyph-name="braceleft" unicode="{" horiz-adv-x="326" 
d="M315 -164q-61 0 -98.5 13t-56 44t-24 67.5t-5.5 97.5v106q0 58 -19.5 87t-65.5 30v54q85 6 85 113v141q0 102 38.5 147.5t145.5 45.5v-56q-58 0 -82.5 -23t-26.5 -76v-177q0 -111 -74 -141q74 -27 74 -142v-177q0 -53 26 -75t83 -22v-57z" />
    <glyph glyph-name="bar" unicode="|" horiz-adv-x="270" 
d="M160 -202h-73v988h73v-988z" />
    <glyph glyph-name="braceright" unicode="}" horiz-adv-x="326" 
d="M299 283q-85 -6 -85 -114v-141q0 -102 -38.5 -147t-145.5 -45v57q64 0 87 26.5t23 93.5v154q0 113 73 141v1q-37 15 -55 47.5t-18 93.5v123q0 90 -19.5 121.5t-90.5 31.5v56q108 0 146 -45.5t38 -147.5v-141q0 -110 85 -111v-54z" />
    <glyph glyph-name="asciitilde" unicode="~" horiz-adv-x="565" 
d="M505 352q-27 -103 -120 -109h-8q-39 0 -97.5 38t-90.5 38h-6q-26 0 -44.5 -24t-27.5 -50q-5 3 -15 9.5l-18 11.5l-15 9q32 106 118 109h6q41 0 99.5 -37.5t89.5 -37.5h7q51 2 73 74z" />
    <glyph glyph-name="uni00A0" unicode="&#xa0;" horiz-adv-x="230" 
 />
    <glyph glyph-name="exclamdown" unicode="&#xa1;" horiz-adv-x="276" 
d="M201 439q0 -29 -17 -47t-47 -18q-29 0 -47 18t-18 47q0 28 18 46t47 18t46.5 -18t17.5 -46zM183 5v-194h-91v194q0 131 21 292h49q21 -161 21 -292z" />
    <glyph glyph-name="cent" unicode="&#xa2;" horiz-adv-x="565" 
d="M289 -113v144q-94 17 -144.5 86.5t-50.5 172.5q0 102 52.5 174t142.5 89v144h79v-141q56 -1 114 -25l-22 -72q-54 23 -105 23h-10q-17 0 -41 -4q-121 -26 -121 -188q0 -156 124 -183q28 -5 57 -5q63 1 111 24l15 -72q-36 -22 -122 -27v-140h-79z" />
    <glyph glyph-name="sterling" unicode="&#xa3;" horiz-adv-x="565" 
d="M248 468v-96h196v-72h-196v-14q-2 -131 -16 -215h297v-75h-395q26 148 27 287l1 17h-95v72h95v86q0 142 55.5 197t158.5 55q71 0 135 -30l-23 -75q-52 27 -117 27q-63 0 -93 -35.5t-30 -128.5z" />
    <glyph glyph-name="currency" unicode="&#xa4;" horiz-adv-x="565" 
d="M397 343q0 55 -37 92t-89 37t-88 -37t-36 -92q0 -54 36 -91t88 -37t89 37t37 91zM498 158l-43 -43l-75 75q-48 -35 -109 -35t-109 36l-74 -76q-6 7 -13.5 14l-16 15.5l-13.5 13.5l74 75q-36 47 -36 110t36 112l-74 73q7 8 43 44l74 -75q49 35 109 35q62 0 109 -36l75 76
l43 -44l-73 -74q34 -46 34 -111q0 -64 -34 -110z" />
    <glyph glyph-name="yen" unicode="&#xa5;" horiz-adv-x="565" 
d="M325 -4h-85v114h-161v67h161v106h-161v66h139q-123 195 -198 348h92q71 -156 172 -309q103 158 171 309h91q-61 -127 -201 -348h141v-66h-161v-106h161v-67h-161v-114z" />
    <glyph glyph-name="brokenbar" unicode="&#xa6;" horiz-adv-x="268" 
d="M93 400v387h82v-387h-82zM93 -189v387h82v-387h-82z" />
    <glyph glyph-name="section" unicode="&#xa7;" horiz-adv-x="487" 
d="M211 416q-80 -48 -80 -119q0 -26 9 -47t29 -38.5t35.5 -27.5t45.5 -26t43 -24q80 45 80 115q0 34 -18 61.5t-39 41t-55.5 33.5t-49.5 31zM281 643q-42 0 -70.5 -19t-28.5 -55q0 -32 19 -55.5t70 -49.5q4 -4 12 -10q90 -49 126.5 -89t36.5 -107q0 -93 -105 -156
q63 -48 68 -112v-11q0 -67 -49 -107t-132 -40q-92 0 -149 35q9 29 21 57q49 -29 120 -30q55 0 85 27q27 18 27 51q0 32 -22 58.5t-81 55.5q-95 52 -132.5 93.5t-37.5 109.5q0 93 106 159q-32 26 -45 53.5t-13 68.5q0 58 46 95.5t119 37.5q83 0 138 -31l-21 -57
q-49 27 -108 28z" />
    <glyph glyph-name="dieresis" unicode="&#xa8;" horiz-adv-x="388" 
d="M341 678q0 -25 -15.5 -40.5t-39.5 -15.5t-39 15.5t-15 40.5t15 40.5t39 15.5t39.5 -15.5t15.5 -40.5zM156 678q0 -25 -15 -40.5t-39 -15.5t-39.5 15.5t-15.5 40.5t15.5 40.5t39.5 15.5t39 -15.5t15 -40.5z" />
    <glyph glyph-name="copyright" unicode="&#xa9;" horiz-adv-x="846" 
d="M550 219l30 -33q-57 -55 -150 -55q-87 0 -145.5 60.5t-58.5 154.5t60 154t146 60q91 0 145 -58l-31 -42q-47 45 -114 45q-63 0 -104 -45t-41 -114q0 -70 42 -115.5t107 -45.5q51 0 114 34zM725 345q0 138 -86.5 225.5t-213.5 87.5t-213.5 -87.5t-86.5 -225.5
q0 -134 83 -221.5t217 -94.5q127 0 213.5 89t86.5 227zM784 345q0 -162 -105 -266t-254 -104q-150 0 -255 104t-105 266t105 266t255 104q149 0 254 -104t105 -266z" />
    <glyph glyph-name="ordfeminine" unicode="&#xaa;" horiz-adv-x="396" 
d="M194 709q87 0 115.5 -43t28.5 -129v-197q-66 -16 -137 -16q-157 0 -157 118q0 59 46.5 88.5t118.5 29.5q18 0 60 -7v9q0 88 -80 88h-2q-55 0 -94 -13l-10 56q50 16 111 16zM201 384q49 0 68 4v110q-40 5 -60 5q-94 0 -94 -57q0 -31 19 -46.5t67 -15.5z" />
    <glyph glyph-name="guillemotleft" unicode="&#xab;" horiz-adv-x="472" 
d="M249 122q-6 -4 -49 -31l-154 218l154 217q43 -27 49 -31l-121 -186zM436 122l-50 -31l-154 218l154 217l50 -31l-123 -186z" />
    <glyph glyph-name="logicalnot" unicode="&#xac;" horiz-adv-x="565" 
d="M483 96h-68v216h-354v64h422v-280z" />
    <glyph glyph-name="uni00AD" unicode="&#xad;" horiz-adv-x="292" 
d="M32 264v66h240v-66h-240z" />
    <glyph glyph-name="registered" unicode="&#xae;" horiz-adv-x="847" 
d="M523 443q0 99 -113 99q-37 0 -61 -8v-182h61q54 0 83.5 20t29.5 71zM599 125h-62q-84 140 -129 191h-59v-191h-54v437q48 19 113 19q84 0 127.5 -35.5t43.5 -101.5q0 -52 -29.5 -84.5t-82.5 -39.5q51 -65 132 -195zM725 345q0 138 -86.5 225.5t-213.5 87.5t-213.5 -87.5
t-86.5 -225.5q0 -134 83 -221.5t217 -94.5q127 0 213.5 89t86.5 227zM784 345q0 -162 -105 -266t-254 -104q-150 0 -255 104t-105 266t105 266t255 104q149 0 254 -104t105 -266z" />
    <glyph glyph-name="macron" unicode="&#xaf;" horiz-adv-x="376" 
d="M329 641h-281v70h281v-70z" />
    <glyph glyph-name="degree" unicode="&#xb0;" horiz-adv-x="324" 
d="M276 595q0 39 -26 65t-64 26t-64 -26t-26 -65q0 -40 26 -66t64 -26t64 26t26 66zM330 595q0 -63 -42 -103.5t-102 -40.5t-101.5 40.5t-41.5 103.5t41.5 103t101.5 40t102 -40.5t42 -102.5z" />
    <glyph glyph-name="plusminus" unicode="&#xb1;" horiz-adv-x="565" 
d="M51 0v69h463v-69h-463zM483 301h-178v-194h-67v194h-177v67h177v193h67v-193h178v-67z" />
    <glyph glyph-name="twosuperior" unicode="&#xb2;" horiz-adv-x="360" 
d="M292 598q0 -40 -23 -69.5t-65 -62.5q-73 -58 -75 -93h181v-62h-262q-1 10 -1 25t3 29t6 24.5t11.5 23.5t13.5 20t17.5 19.5l17.5 17.5t20 18.5t19 17.5l34.5 29.5t20 26t10.5 36.5q0 51 -59 51q-48 0 -92 -41l-35 51q53 53 132 53q126 0 126 -114z" />
    <glyph glyph-name="threesuperior" unicode="&#xb3;" horiz-adv-x="360" 
d="M229 526q77 -28 77 -107q-2 -51 -40.5 -83.5t-116.5 -32.5q-65 0 -113 23l17 61q50 -21 93 -21q88 0 88 59q0 34 -30 50.5t-76 16.5h-21v53h19q89 0 89 60q0 43 -54 43q-11 0 -18 -1q-43 0 -80 -25l-26 54q51 36 120 36q125 0 127 -97q0 -62 -55 -89z" />
    <glyph glyph-name="acute" unicode="&#xb4;" horiz-adv-x="288" 
d="M102 597h-49l86 182h108z" />
    <glyph glyph-name="mu" unicode="&#xb5;" horiz-adv-x="578" 
d="M475 23q-76 -33 -189 -33q-81 0 -132 42q3 -47 3 -139v-94h-81v732h82v-364q12 -61 41 -87.5t85 -26.5q72 0 110 18v460h81v-508z" />
    <glyph glyph-name="paragraph" unicode="&#xb6;" horiz-adv-x="629" 
d="M240 689h252v-891h-68v839h-120v-839h-68v496q-95 9 -148.5 60.5t-53.5 137.5q0 88 56.5 137.5t149.5 59.5z" />
    <glyph glyph-name="periodcentered" unicode="&#xb7;" horiz-adv-x="246" 
d="M179 318q0 -26 -16.5 -42.5t-42.5 -16.5t-42.5 16.5t-16.5 42.5q0 25 17 42t42 17q26 0 42.5 -17t16.5 -42z" />
    <glyph glyph-name="cedilla" unicode="&#xb8;" horiz-adv-x="369" 
d="M213 -35q59 -28 59 -79q0 -35 -25.5 -58.5t-82.5 -23.5q-50 0 -78 13l11 58q17 -8 58 -10q39 0 40 24q-1 10 -9.5 17.5t-17.5 12t-31 13.5q11 35 43 92h63q-22 -39 -30 -59z" />
    <glyph glyph-name="onesuperior" unicode="&#xb9;" horiz-adv-x="360" 
d="M72 566l-14 47q31 12 69.5 37.5t63.5 52.5h49v-392h-71v296q-42 -24 -97 -41z" />
    <glyph glyph-name="ordmasculine" unicode="&#xba;" horiz-adv-x="470" 
d="M354 501q0 70 -31.5 110.5t-87.5 40.5t-88 -41t-32 -110t32 -110t88 -41t87.5 41t31.5 110zM435 501q0 -95 -56.5 -154.5t-143.5 -59.5t-143.5 59.5t-56.5 154.5t56.5 155t143.5 60t143.5 -60t56.5 -155z" />
    <glyph glyph-name="guillemotright" unicode="&#xbb;" horiz-adv-x="472" 
d="M261 309l-155 -218l-50 31l123 187l-123 186l50 31zM446 309l-154 -218l-50 31l122 187l-122 186l50 31z" />
    <glyph glyph-name="onequarter" unicode="&#xbc;" horiz-adv-x="885" 
d="M74 566l-15 47q31 12 70 37.5t63 52.5h50v-392h-71v296q-39 -22 -97 -41zM611 145h124v169q-67 -67 -124 -169zM185 -4l399 701h86l-400 -701h-85zM801 145h51v-54h-51v-94h-67v94h-188v45q28 55 85 132.5t110 121.5h60v-245z" />
    <glyph glyph-name="onehalf" unicode="&#xbd;" horiz-adv-x="895" 
d="M826 284q0 -28 -14 -53.5t-29.5 -40.5t-43.5 -38q-75 -59 -75 -93h180v-62h-261q-2 11 -2 25q0 17 2.5 32t10.5 29.5t12.5 23.5t19 24.5t19 20t23 21t21.5 19.5q24 20 34 29.5t20.5 27t10.5 36.5q0 50 -58 50q-49 0 -93 -41l-35 51q56 54 133 54q125 0 125 -115zM186 -4
l394 701h86l-394 -701h-86zM72 566l-14 47q31 12 69.5 37.5t63.5 52.5h49v-392h-71v296q-42 -24 -97 -41z" />
    <glyph glyph-name="threequarters" unicode="&#xbe;" horiz-adv-x="891" 
d="M617 145h124v169q-65 -63 -124 -169zM807 145h51v-54h-51v-94h-67v94h-188v45q28 55 85 132.5t110 121.5h60v-245zM235 526q78 -28 78 -107q-2 -51 -40.5 -83.5t-116.5 -32.5q-67 0 -113 23l16 61q50 -21 94 -21q88 0 88 59q0 65 -113 65h-14v53q22 0 37.5 1.5t31 7
t24 17.5t9.5 31q3 3 2 5q-1 45 -65 45q-41 0 -83 -28l-26 54q51 36 120 36q125 0 127 -97q0 -62 -56 -89zM219 -4l401 701h85l-401 -701h-85z" />
    <glyph glyph-name="questiondown" unicode="&#xbf;" horiz-adv-x="390" 
d="M288 465q0 -29 -17.5 -47.5t-46.5 -18.5t-47 18.5t-18 47.5t18 46.5t47 17.5t46.5 -17.5t17.5 -46.5zM115 -35q0 -81 111 -81q64 0 127 33l25 -70q-66 -39 -160 -39q-102 0 -147.5 45.5t-45.5 104.5q0 38 17.5 73t42.5 62l50 53.5t42.5 59.5t17.5 68q0 10 -1 22h70
q5 -19 5 -42q0 -36 -16 -69.5t-38.5 -59l-45 -50t-38.5 -53t-16 -57.5z" />
    <glyph glyph-name="Agrave" unicode="&#xc0;" horiz-adv-x="652" 
d="M328 747h-49l-145 182h108zM429 260l-90 256q-6 16 -12.5 36.5l-10 32t-7.5 17.5q-5 -8 -14 -38l-55 -156.5l-52 -147.5h241zM607 -2h-91q-59 177 -67 199h-281q-45 -125 -69 -199h-83q167 472 258 694h75q78 -193 258 -694z" />
    <glyph glyph-name="Aacute" unicode="&#xc1;" horiz-adv-x="652" 
d="M330 770h-49l86 182h108zM429 260l-90 256q-6 16 -12.5 36.5l-10 32t-7.5 17.5q-5 -8 -14 -38l-55 -156.5l-52 -147.5h241zM607 -2h-91q-59 177 -67 199h-281q-45 -125 -69 -199h-83q167 472 258 694h75q78 -193 258 -694z" />
    <glyph glyph-name="Acircumflex" unicode="&#xc2;" horiz-adv-x="652" 
d="M306 832l-105 -93l-37 42l142 150l140 -150l-36 -42zM429 260l-90 256q-6 16 -12.5 36.5l-10 32t-7.5 17.5q-5 -8 -14 -38l-55 -156.5l-52 -147.5h241zM607 -2h-91q-59 177 -67 199h-281q-45 -125 -69 -199h-83q167 472 258 694h75q78 -193 258 -694z" />
    <glyph glyph-name="Atilde" unicode="&#xc3;" horiz-adv-x="652" 
d="M368 757q-29 0 -73.5 19.5t-54.5 19.5q-28 0 -53 -47l-50 27q14 34 40.5 61.5t63.5 27.5q32 0 75.5 -19.5t52.5 -19.5q28 0 53 47l48 -27q-17 -33 -43.5 -61t-58.5 -28zM429 260l-90 256q-6 16 -12.5 36.5l-10 32t-7.5 17.5q-5 -8 -14 -38l-55 -156.5l-52 -147.5h241z
M607 -2h-91q-59 177 -67 199h-281q-45 -125 -69 -199h-83q167 472 258 694h75q78 -193 258 -694z" />
    <glyph glyph-name="Adieresis" unicode="&#xc4;" horiz-adv-x="652" 
d="M449 825q0 -25 -15.5 -40.5t-39.5 -15.5t-39 15.5t-15 40.5t15 40.5t39 15.5t39.5 -15.5t15.5 -40.5zM264 825q0 -25 -15 -40.5t-39 -15.5t-39.5 15.5t-15.5 40.5t15.5 40.5t39.5 15.5t39 -15.5t15 -40.5zM429 260l-90 256q-6 16 -12.5 36.5l-10 32t-7.5 17.5
q-5 -8 -14 -38l-55 -156.5l-52 -147.5h241zM607 -2h-91q-59 177 -67 199h-281q-45 -125 -69 -199h-83q167 472 258 694h75q78 -193 258 -694z" />
    <glyph glyph-name="Aring" unicode="&#xc5;" horiz-adv-x="652" 
d="M355 856q0 25 -14.5 39t-36.5 14t-36.5 -14t-14.5 -39t14.5 -39t36.5 -14q23 0 37 14t14 39zM407 856q0 -46 -30 -74.5t-73 -28.5t-73 28.5t-30 74.5t30 74t73 28t73 -28.5t30 -73.5zM429 260l-90 256q-6 16 -12.5 36.5l-10 32t-7.5 17.5q-5 -8 -14 -38l-55 -156.5
l-52 -147.5h241zM607 -2h-91q-59 177 -67 199h-281q-45 -125 -69 -199h-83q167 472 258 694h75q78 -193 258 -694z" />
    <glyph glyph-name="AE" unicode="&#xc6;" horiz-adv-x="926" 
d="M463 258v351q-114 -159 -174 -260l-55 -91h229zM892 -4h-429v186h-270q-59 -101 -100 -186h-94q186 363 432 701h435v-77h-315v-218h279v-76h-279v-253h341v-77z" />
    <glyph glyph-name="Ccedilla" unicode="&#xc7;" horiz-adv-x="614" 
d="M384 -48q51 -28 51 -70q0 -32 -26 -55t-80 -23q-51 0 -79 13l11 58q25 -11 63 -11q33 2 33 24q0 15 -11.5 23t-44.5 21q6 18 23 54q-122 18 -195 112t-73 249q0 169 95.5 267t233.5 98q71 0 123.5 -16t78.5 -33l-28 -76q-77 45 -163 45q-117 0 -182 -77t-65 -208
q0 -133 62 -209.5t177 -76.5q107 0 180 40l25 -75q-22 -15 -78 -29t-128 -15q0 -15 -3 -30z" />
    <glyph glyph-name="Egrave" unicode="&#xc8;" horiz-adv-x="562" 
d="M298 747h-49l-145 182h108zM461 -2h-380v694h367v-66h-281v-234h251v-66h-251v-262h294v-66z" />
    <glyph glyph-name="Eacute" unicode="&#xc9;" horiz-adv-x="562" 
d="M301 770h-49l86 182h108zM461 -2h-380v694h367v-66h-281v-234h251v-66h-251v-262h294v-66z" />
    <glyph glyph-name="Ecircumflex" unicode="&#xca;" horiz-adv-x="562" 
d="M276 832l-105 -93l-37 42l142 150l140 -150l-36 -42zM461 -2h-380v694h367v-66h-281v-234h251v-66h-251v-262h294v-66z" />
    <glyph glyph-name="Edieresis" unicode="&#xcb;" horiz-adv-x="562" 
d="M420 825q0 -25 -15.5 -40.5t-39.5 -15.5t-39 15.5t-15 40.5t15 40.5t39 15.5t39.5 -15.5t15.5 -40.5zM235 825q0 -25 -15 -40.5t-39 -15.5t-39.5 15.5t-15.5 40.5t15.5 40.5t39.5 15.5t39 -15.5t15 -40.5zM461 -2h-380v694h367v-66h-281v-234h251v-66h-251v-262h294v-66z
" />
    <glyph glyph-name="Igrave" unicode="&#xcc;" horiz-adv-x="258" 
d="M147 747h-49l-145 182h108zM168 -2h-85v694h85v-694z" />
    <glyph glyph-name="Iacute" unicode="&#xcd;" horiz-adv-x="258" 
d="M150 770h-49l86 182h108zM168 -2h-85v694h85v-694z" />
    <glyph glyph-name="Icircumflex" unicode="&#xce;" horiz-adv-x="258" 
d="M125 832l-105 -93l-37 42l142 150l140 -150l-36 -42zM168 -2h-85v694h85v-694z" />
    <glyph glyph-name="Idieresis" unicode="&#xcf;" horiz-adv-x="258" 
d="M269 825q0 -25 -15.5 -40.5t-39.5 -15.5t-39 15.5t-15 40.5t15 40.5t39 15.5t39.5 -15.5t15.5 -40.5zM84 825q0 -25 -15 -40.5t-39 -15.5t-39.5 15.5t-15.5 40.5t15.5 40.5t39.5 15.5t39 -15.5t15 -40.5zM168 -2h-85v694h85v-694z" />
    <glyph glyph-name="Eth" unicode="&#xd0;" horiz-adv-x="720" 
d="M187 326v-253q48 -6 98 -6q140 0 213 74t73 206q0 131 -73 205t-213 74q-50 0 -98 -6v-222h131v-72h-131zM664 347q0 -174 -105 -266t-282 -92q-100 0 -179 19v318h-80v72h80v286q72 19 179 19q178 0 282.5 -90.5t104.5 -265.5z" />
    <glyph glyph-name="Ntilde" unicode="&#xd1;" horiz-adv-x="716" 
d="M421 792q-29 0 -73.5 19t-54.5 19q-28 0 -53 -47l-50 27q37 89 105 89q32 0 75 -19t52 -19q28 0 53 46l48 -27q-17 -33 -43.5 -60.5t-58.5 -27.5zM599 -2h-44l-31 1q-114 199 -321 510q-8 12 -19 31t-17.5 29t-8.5 10q0 -15 1 -103t1 -134v-344h-79v694h80
q184 -257 324 -490l16 -28.5t14 -24.5t8 -11q0 30 -1 140t-1 163v251h78v-694z" />
    <glyph glyph-name="Ograve" unicode="&#xd2;" horiz-adv-x="690" 
d="M369 775h-49l-145 182h108zM546 347q0 128 -51 209.5t-150 81.5t-150 -81.5t-51 -209.5q0 -129 50.5 -210.5t150.5 -81.5t150.5 81.5t50.5 210.5zM634 345q0 -165 -77.5 -262t-211.5 -97t-211.5 97t-77.5 262q0 164 78 262t211 98t211 -98t78 -262z" />
    <glyph glyph-name="Oacute" unicode="&#xd3;" horiz-adv-x="690" 
d="M372 797h-49l86 182h108zM546 347q0 128 -51 209.5t-150 81.5t-150 -81.5t-51 -209.5q0 -129 50.5 -210.5t150.5 -81.5t150.5 81.5t50.5 210.5zM634 345q0 -165 -77.5 -262t-211.5 -97t-211.5 97t-77.5 262q0 164 78 262t211 98t211 -98t78 -262z" />
    <glyph glyph-name="Ocircumflex" unicode="&#xd4;" horiz-adv-x="690" 
d="M347 859l-105 -93l-37 42l142 150l140 -150l-36 -42zM546 347q0 128 -51 209.5t-150 81.5t-150 -81.5t-51 -209.5q0 -129 50.5 -210.5t150.5 -81.5t150.5 81.5t50.5 210.5zM634 345q0 -165 -77.5 -262t-211.5 -97t-211.5 97t-77.5 262q0 164 78 262t211 98t211 -98
t78 -262z" />
    <glyph glyph-name="Otilde" unicode="&#xd5;" horiz-adv-x="690" 
d="M406 784q-29 0 -73.5 19.5t-54.5 19.5q-28 0 -53 -47l-50 27q14 34 40.5 61.5t63.5 27.5q32 0 75.5 -19.5t52.5 -19.5q28 0 53 47l48 -27q-17 -33 -43.5 -61t-58.5 -28zM546 347q0 128 -51 209.5t-150 81.5t-150 -81.5t-51 -209.5q0 -129 50.5 -210.5t150.5 -81.5
t150.5 81.5t50.5 210.5zM634 345q0 -165 -77.5 -262t-211.5 -97t-211.5 97t-77.5 262q0 164 78 262t211 98t211 -98t78 -262z" />
    <glyph glyph-name="Odieresis" unicode="&#xd6;" horiz-adv-x="690" 
d="M491 852q0 -25 -15.5 -40.5t-39.5 -15.5t-39 15.5t-15 40.5t15 40.5t39 15.5t39.5 -15.5t15.5 -40.5zM306 852q0 -25 -15 -40.5t-39 -15.5t-39.5 15.5t-15.5 40.5t15.5 40.5t39.5 15.5t39 -15.5t15 -40.5zM546 347q0 128 -51 209.5t-150 81.5t-150 -81.5t-51 -209.5
q0 -129 50.5 -210.5t150.5 -81.5t150.5 81.5t50.5 210.5zM634 345q0 -165 -77.5 -262t-211.5 -97t-211.5 97t-77.5 262q0 164 78 262t211 98t211 -98t78 -262z" />
    <glyph glyph-name="multiply" unicode="&#xd7;" horiz-adv-x="565" 
d="M80 445l52 52l150 -152l151 152l51 -52l-151 -150l151 -151l-51 -51l-151 151l-150 -151l-52 51l152 151z" />
    <glyph glyph-name="Oslash" unicode="&#xd8;" horiz-adv-x="776" 
d="M627 347q0 111 -49 183l-328 -425q56 -44 138 -44q110 0 174.5 77t64.5 209zM149 347q0 -115 51 -186l328 425q-58 46 -140 46q-110 0 -174.5 -76.5t-64.5 -208.5zM720 347q0 -174 -94.5 -270t-237.5 -96q-108 0 -190 57l-61 -79l-60 44l65 84q-86 95 -86 260
q0 173 95 269t237 96q110 0 191 -59l64 82l60 -45l-68 -87q85 -96 85 -256z" />
    <glyph glyph-name="Ugrave" unicode="&#xd9;" horiz-adv-x="684" 
d="M344 747h-49l-145 182h108zM552 227q0 -107 -61 -174.5t-176 -67.5q-102 0 -162 54.5t-69 142.5q-4 40 -4 93v417h84v-407q0 -116 35 -172.5t118 -56.5q58 0 98.5 35t49.5 98q5 48 5 96v407h82v-465z" />
    <glyph glyph-name="Uacute" unicode="&#xda;" horiz-adv-x="684" 
d="M347 770h-49l86 182h108zM552 227q0 -107 -61 -174.5t-176 -67.5q-102 0 -162 54.5t-69 142.5q-4 40 -4 93v417h84v-407q0 -116 35 -172.5t118 -56.5q58 0 98.5 35t49.5 98q5 48 5 96v407h82v-465z" />
    <glyph glyph-name="Ucircumflex" unicode="&#xdb;" horiz-adv-x="684" 
d="M322 832l-105 -93l-37 42l142 150l140 -150l-36 -42zM552 227q0 -107 -61 -174.5t-176 -67.5q-102 0 -162 54.5t-69 142.5q-4 40 -4 93v417h84v-407q0 -116 35 -172.5t118 -56.5q58 0 98.5 35t49.5 98q5 48 5 96v407h82v-465z" />
    <glyph glyph-name="Udieresis" unicode="&#xdc;" horiz-adv-x="684" 
d="M466 825q0 -25 -15.5 -40.5t-39.5 -15.5t-39 15.5t-15 40.5t15 40.5t39 15.5t39.5 -15.5t15.5 -40.5zM281 825q0 -25 -15 -40.5t-39 -15.5t-39.5 15.5t-15.5 40.5t15.5 40.5t39.5 15.5t39 -15.5t15 -40.5zM552 227q0 -107 -61 -174.5t-176 -67.5q-102 0 -162 54.5
t-69 142.5q-4 40 -4 93v417h84v-407q0 -116 35 -172.5t118 -56.5q58 0 98.5 35t49.5 98q5 48 5 96v407h82v-465z" />
    <glyph glyph-name="Yacute" unicode="&#xdd;" horiz-adv-x="582" 
d="M299 770h-49l86 182h108zM528 692q-134 -256 -216 -397v-297h-85v296q-107 187 -216 398h95q91 -195 166 -328q75 135 169 328h87z" />
    <glyph glyph-name="Thorn" unicode="&#xde;" horiz-adv-x="600" 
d="M270 505q-62 0 -97 -5v-284h77q113 0 169.5 31t56.5 115q0 143 -206 143zM173 697v-119q38 5 96 5q147 0 223 -57t76 -165q0 -117 -79.5 -170t-231.5 -53h-84v-142h-89v701h89z" />
    <glyph glyph-name="germandbls" unicode="&#xdf;" horiz-adv-x="605" 
d="M379 59q51 0 80 22.5t29 66.5q0 38 -22 61t-79 53q-67 34 -89 58.5t-22 67.5q0 23 10.5 45.5t21.5 35l34 37.5q4 4 13 14l12 13.5l10 11.5t9.5 12t6.5 11.5t5.5 13.5t3 13.5t1.5 16.5q0 42 -29 67.5t-77 25.5q-133 0 -133 -148v-561h-84v573q2 97 58.5 154t151.5 57
q99 0 148 -44t49 -118q0 -11 -1.5 -21.5t-5 -21t-6.5 -18t-9.5 -17t-9.5 -14.5t-11.5 -14.5t-10.5 -12t-11 -11.5l-10 -10q-29 -29 -39.5 -45.5t-10.5 -36.5q0 -6 1 -11t4.5 -10t5.5 -8.5t8 -8t8.5 -7t11 -7l10.5 -5.5l12 -6l12 -6q36 -18 56 -30.5t42 -33.5t31.5 -49
t9.5 -66q0 -79 -51.5 -121.5t-147.5 -42.5q-77 0 -133 28l7 33q7 32 10 43q52 -28 120 -29z" />
    <glyph glyph-name="agrave" unicode="&#xe0;" horiz-adv-x="515" 
d="M278 591h-49l-145 182h108zM352 60v210q-42 3 -49 3q-10 0 -36 -2q-67 -9 -105 -35t-38 -85q0 -104 128 -104q59 0 100 13zM431 19q-70 -31 -188 -31q-96 0 -148 41t-52 121q0 84 61.5 127t165.5 52q4 0 11 0.5t10 0.5q19 0 61 -3q-1 77 -25.5 113.5t-94.5 36.5
q-74 0 -130 -28l-15 61q62 32 153 32q89 0 138.5 -45t51.5 -131q0 -9 0.5 -29t0.5 -30v-288z" />
    <glyph glyph-name="aacute" unicode="&#xe1;" horiz-adv-x="515" 
d="M275 619h-49l86 182h108zM352 60v210q-42 3 -49 3q-10 0 -36 -2q-67 -9 -105 -35t-38 -85q0 -104 128 -104q59 0 100 13zM431 19q-70 -31 -188 -31q-96 0 -148 41t-52 121q0 84 61.5 127t165.5 52q4 0 11 0.5t10 0.5q19 0 61 -3q-1 77 -25.5 113.5t-94.5 36.5
q-74 0 -130 -28l-15 61q62 32 153 32q89 0 138.5 -45t51.5 -131q0 -9 0.5 -29t0.5 -30v-288z" />
    <glyph glyph-name="acircumflex" unicode="&#xe2;" horiz-adv-x="515" 
d="M256 676l-105 -93l-37 42l142 150l140 -150l-36 -42zM352 60v210q-42 3 -49 3q-10 0 -36 -2q-67 -9 -105 -35t-38 -85q0 -104 128 -104q59 0 100 13zM431 19q-70 -31 -188 -31q-96 0 -148 41t-52 121q0 84 61.5 127t165.5 52q4 0 11 0.5t10 0.5q19 0 61 -3
q-1 77 -25.5 113.5t-94.5 36.5q-74 0 -130 -28l-15 61q62 32 153 32q89 0 138.5 -45t51.5 -131q0 -9 0.5 -29t0.5 -30v-288z" />
    <glyph glyph-name="atilde" unicode="&#xe3;" horiz-adv-x="515" 
d="M315 600q-29 0 -73.5 19.5t-54.5 19.5q-28 0 -53 -47l-50 27q14 34 40.5 61.5t63.5 27.5q32 0 75.5 -19.5t52.5 -19.5q28 0 53 47l48 -27q-17 -33 -43.5 -61t-58.5 -28zM352 60v210q-42 3 -49 3q-10 0 -36 -2q-67 -9 -105 -35t-38 -85q0 -104 128 -104q59 0 100 13z
M431 19q-70 -31 -188 -31q-96 0 -148 41t-52 121q0 84 61.5 127t165.5 52q4 0 11 0.5t10 0.5q19 0 61 -3q-1 77 -25.5 113.5t-94.5 36.5q-74 0 -130 -28l-15 61q62 32 153 32q89 0 138.5 -45t51.5 -131q0 -9 0.5 -29t0.5 -30v-288z" />
    <glyph glyph-name="adieresis" unicode="&#xe4;" horiz-adv-x="515" 
d="M400 669q0 -25 -15.5 -40.5t-39.5 -15.5t-39 15.5t-15 40.5t15 40.5t39 15.5t39.5 -15.5t15.5 -40.5zM215 669q0 -25 -15 -40.5t-39 -15.5t-39.5 15.5t-15.5 40.5t15.5 40.5t39.5 15.5t39 -15.5t15 -40.5zM352 60v210q-42 3 -49 3q-10 0 -36 -2q-67 -9 -105 -35t-38 -85
q0 -104 128 -104q59 0 100 13zM431 19q-70 -31 -188 -31q-96 0 -148 41t-52 121q0 84 61.5 127t165.5 52q4 0 11 0.5t10 0.5q19 0 61 -3q-1 77 -25.5 113.5t-94.5 36.5q-74 0 -130 -28l-15 61q62 32 153 32q89 0 138.5 -45t51.5 -131q0 -9 0.5 -29t0.5 -30v-288z" />
    <glyph glyph-name="aring" unicode="&#xe5;" horiz-adv-x="515" 
d="M306 700q0 25 -14.5 39t-36.5 14t-36.5 -14t-14.5 -39t14.5 -39t36.5 -14q23 0 37 14t14 39zM358 700q0 -46 -30 -74.5t-73 -28.5t-73 28.5t-30 74.5t30 74t73 28t73 -28.5t30 -73.5zM352 60v210q-42 3 -49 3q-10 0 -36 -2q-67 -9 -105 -35t-38 -85q0 -104 128 -104
q59 0 100 13zM431 19q-70 -31 -188 -31q-96 0 -148 41t-52 121q0 84 61.5 127t165.5 52q4 0 11 0.5t10 0.5q19 0 61 -3q-1 77 -25.5 113.5t-94.5 36.5q-74 0 -130 -28l-15 61q62 32 153 32q89 0 138.5 -45t51.5 -131q0 -9 0.5 -29t0.5 -30v-288z" />
    <glyph glyph-name="ae" unicode="&#xe6;" horiz-adv-x="857" 
d="M359 232q-35 14 -93 14q-137 0 -137 -93q0 -94 126 -94q87 0 135 40q-30 51 -31 133zM623 -15q-124 0 -186 57q-75 -57 -184 -57q-97 0 -154 40.5t-57 127.5q0 83 60.5 123.5t161.5 40.5q24 0 54 -5t39 -9q0 29 -1 44.5t-7.5 40.5t-18 37.5t-34.5 23t-56 10.5
q-74 0 -132 -21l-11 73q54 24 148 24q129 0 169 -93q51 70 132 88q21 4 50 4q98 -2 153 -67.5t55 -191.5q0 -7 -1 -20t-1 -19h-358q9 -175 175 -175q72 0 135 29l14 -73q-54 -31 -145 -32zM445 306h272q-3 73 -36 113t-93 40q-61 0 -99.5 -44.5t-43.5 -108.5z" />
    <glyph glyph-name="ccedilla" unicode="&#xe7;" horiz-adv-x="466" 
d="M315 -15v-5q0 -10 -4 -28q51 -27 51 -70q0 -33 -26 -55.5t-81 -22.5q-50 0 -78 13l11 58q25 -11 63 -11q33 2 33 24q0 11 -7.5 18.5t-16 11.5t-31.5 14q9 32 24 57q-99 15 -151.5 86t-52.5 183q0 124 66.5 200.5t180.5 76.5q89 0 142 -28l-22 -72q-51 23 -113 23
q-80 0 -122.5 -52t-42.5 -148q0 -197 176 -197q62 0 116 28l16 -74q-48 -27 -131 -30z" />
    <glyph glyph-name="egrave" unicode="&#xe8;" horiz-adv-x="553" 
d="M291 579h-49l-145 182h108zM402 315q-3 163 -129 163q-62 0 -101 -49t-41 -135zM481 262l-348 -25q11 -183 172 -183q73 0 133 30l17 -63q-56 -33 -155 -33q-121 0 -185.5 72t-64.5 205q0 132 64 204.5t160 72.5q89 0 142.5 -53t62.5 -159q2 -26 2 -68z" />
    <glyph glyph-name="eacute" unicode="&#xe9;" horiz-adv-x="553" 
d="M293 601h-49l86 182h108zM402 315q-3 163 -129 163q-62 0 -101 -49t-41 -135zM481 262l-348 -25q11 -183 172 -183q73 0 133 30l17 -63q-56 -33 -155 -33q-121 0 -185.5 72t-64.5 205q0 132 64 204.5t160 72.5q89 0 142.5 -53t62.5 -159q2 -26 2 -68z" />
    <glyph glyph-name="ecircumflex" unicode="&#xea;" horiz-adv-x="553" 
d="M269 664l-105 -93l-37 42l142 150l140 -150l-36 -42zM402 315q-3 163 -129 163q-62 0 -101 -49t-41 -135zM481 262l-348 -25q11 -183 172 -183q73 0 133 30l17 -63q-56 -33 -155 -33q-121 0 -185.5 72t-64.5 205q0 132 64 204.5t160 72.5q89 0 142.5 -53t62.5 -159
q2 -26 2 -68z" />
    <glyph glyph-name="edieresis" unicode="&#xeb;" horiz-adv-x="553" 
d="M412 656q0 -25 -15.5 -40.5t-39.5 -15.5t-39 15.5t-15 40.5t15 40.5t39 15.5t39.5 -15.5t15.5 -40.5zM227 656q0 -25 -15 -40.5t-39 -15.5t-39.5 15.5t-15.5 40.5t15.5 40.5t39.5 15.5t39 -15.5t15 -40.5zM402 315q-3 163 -129 163q-62 0 -101 -49t-41 -135zM481 262
l-348 -25q11 -183 172 -183q73 0 133 30l17 -63q-56 -33 -155 -33q-121 0 -185.5 72t-64.5 205q0 132 64 204.5t160 72.5q89 0 142.5 -53t62.5 -159q2 -26 2 -68z" />
    <glyph glyph-name="igrave" unicode="&#xec;" horiz-adv-x="244" 
d="M145 579h-49l-145 182h108zM165 522v-526h-85v526h85z" />
    <glyph glyph-name="iacute" unicode="&#xed;" horiz-adv-x="244" 
d="M148 601h-49l86 182h108zM165 522v-526h-85v526h85z" />
    <glyph glyph-name="icircumflex" unicode="&#xee;" horiz-adv-x="244" 
d="M123 664l-105 -93l-37 42l142 150l140 -150l-36 -42zM165 522v-526h-85v526h85z" />
    <glyph glyph-name="idieresis" unicode="&#xef;" horiz-adv-x="244" 
d="M267 656q0 -25 -15.5 -40.5t-39.5 -15.5t-39 15.5t-15 40.5t15 40.5t39 15.5t39.5 -15.5t15.5 -40.5zM82 656q0 -25 -15 -40.5t-39 -15.5t-39.5 15.5t-15.5 40.5t15.5 40.5t39.5 15.5t39 -15.5t15 -40.5zM165 522v-526h-85v526h85z" />
    <glyph glyph-name="eth" unicode="&#xf0;" horiz-adv-x="583" 
d="M441 359q-59 56 -143 56q-80 0 -119.5 -47t-39.5 -124q0 -79 38 -131t105 -52q159 0 159 261q1 6 1 18t-1 19zM51 243q0 117 65.5 182t174.5 65q80 0 139 -45q-10 80 -60 158l-125 -42l-22 53l107 38q-39 45 -93 78l54 52q69 -41 119 -102l121 42l21 -58l-104 -37
q82 -128 82 -298q0 -69 -11 -126t-37.5 -108.5t-77 -81t-122.5 -29.5q-105 0 -168 74.5t-63 184.5z" />
    <glyph glyph-name="ntilde" unicode="&#xf1;" horiz-adv-x="572" 
d="M350 627q-29 0 -73.5 19t-54.5 19q-28 0 -53 -47l-50 27q37 89 105 89q32 0 75 -19t52 -19q28 0 53 46l48 -27q-17 -33 -43.5 -60.5t-58.5 -27.5zM475 -2h-81v288q0 40 -1 61.5t-8 50.5t-20 43.5t-38 25t-61 10.5q-66 0 -108 -16v-463h-82v507q74 36 199 36
q54 0 92.5 -15t59 -36.5t32 -56.5t14 -63.5t2.5 -69.5v-302z" />
    <glyph glyph-name="ograve" unicode="&#xf2;" 
d="M299 579h-49l-145 182h108zM417 264q0 94 -35 154.5t-106 60.5q-72 0 -107.5 -60.5t-35.5 -154.5t35.5 -152.5t107.5 -58.5t106.5 58.5t34.5 152.5zM500 264q0 -124 -59.5 -200.5t-164.5 -76.5q-106 0 -166 76.5t-60 200.5q0 125 60 201.5t165 76.5q106 0 165.5 -76.5
t59.5 -201.5z" />
    <glyph glyph-name="oacute" unicode="&#xf3;" 
d="M302 601h-49l86 182h108zM417 264q0 94 -35 154.5t-106 60.5q-72 0 -107.5 -60.5t-35.5 -154.5t35.5 -152.5t107.5 -58.5t106.5 58.5t34.5 152.5zM500 264q0 -124 -59.5 -200.5t-164.5 -76.5q-106 0 -166 76.5t-60 200.5q0 125 60 201.5t165 76.5q106 0 165.5 -76.5
t59.5 -201.5z" />
    <glyph glyph-name="ocircumflex" unicode="&#xf4;" 
d="M277 664l-105 -93l-37 42l142 150l140 -150l-36 -42zM417 264q0 94 -35 154.5t-106 60.5q-72 0 -107.5 -60.5t-35.5 -154.5t35.5 -152.5t107.5 -58.5t106.5 58.5t34.5 152.5zM500 264q0 -124 -59.5 -200.5t-164.5 -76.5q-106 0 -166 76.5t-60 200.5q0 125 60 201.5
t165 76.5q106 0 165.5 -76.5t59.5 -201.5z" />
    <glyph glyph-name="otilde" unicode="&#xf5;" 
d="M336 588q-29 0 -73.5 19.5t-54.5 19.5q-28 0 -53 -47l-50 27q14 34 40.5 61.5t63.5 27.5q32 0 75.5 -19.5t52.5 -19.5q28 0 53 47l48 -27q-17 -33 -43.5 -61t-58.5 -28zM417 264q0 94 -35 154.5t-106 60.5q-72 0 -107.5 -60.5t-35.5 -154.5t35.5 -152.5t107.5 -58.5
t106.5 58.5t34.5 152.5zM500 264q0 -124 -59.5 -200.5t-164.5 -76.5q-106 0 -166 76.5t-60 200.5q0 125 60 201.5t165 76.5q106 0 165.5 -76.5t59.5 -201.5z" />
    <glyph glyph-name="odieresis" unicode="&#xf6;" 
d="M421 656q0 -25 -15.5 -40.5t-39.5 -15.5t-39 15.5t-15 40.5t15 40.5t39 15.5t39.5 -15.5t15.5 -40.5zM236 656q0 -25 -15 -40.5t-39 -15.5t-39.5 15.5t-15.5 40.5t15.5 40.5t39.5 15.5t39 -15.5t15 -40.5zM417 264q0 94 -35 154.5t-106 60.5q-72 0 -107.5 -60.5
t-35.5 -154.5t35.5 -152.5t107.5 -58.5t106.5 58.5t34.5 152.5zM500 264q0 -124 -59.5 -200.5t-164.5 -76.5q-106 0 -166 76.5t-60 200.5q0 125 60 201.5t165 76.5q106 0 165.5 -76.5t59.5 -201.5z" />
    <glyph glyph-name="divide" unicode="&#xf7;" horiz-adv-x="565" 
d="M513 258h-462v72h462v-72zM339 102q0 -26 -16.5 -42t-41.5 -16q-26 0 -43 16.5t-17 41.5t17.5 42t42.5 17t41.5 -17t16.5 -42zM339 489q0 -26 -16.5 -42.5t-41.5 -16.5q-26 0 -43 17t-17 42t17 41.5t43 16.5q25 0 41.5 -16.5t16.5 -41.5z" />
    <glyph glyph-name="oslash" unicode="&#xf8;" 
d="M448 257q-2 68 -29 110l-214 -277q35 -30 92 -30q70 1 110.5 54.5t40.5 142.5zM137 260q2 -66 29 -112l216 278q-40 32 -89 32h-4q-70 -1 -110.5 -54.5t-41.5 -143.5zM536 259q0 -124 -67.5 -199.5t-175.5 -75.5q-80 0 -137 42l-51 -67l-53 40l55 72q-58 72 -58 188
q0 124 68.5 200t175.5 76q80 0 138 -45l51 66l53 -39l-56 -72q57 -74 57 -186z" />
    <glyph glyph-name="ugrave" unicode="&#xf9;" horiz-adv-x="572" 
d="M303 579h-49l-145 182h108zM468 25q-78 -37 -195 -37q-60 0 -101 17t-62 51t-29 74.5t-8 96.5v304h82v-284q0 -102 24.5 -148t100.5 -46q72 0 106 18v460h82v-506z" />
    <glyph glyph-name="uacute" unicode="&#xfa;" horiz-adv-x="572" 
d="M306 601h-49l86 182h108zM468 25q-78 -37 -195 -37q-60 0 -101 17t-62 51t-29 74.5t-8 96.5v304h82v-284q0 -102 24.5 -148t100.5 -46q72 0 106 18v460h82v-506z" />
    <glyph glyph-name="ucircumflex" unicode="&#xfb;" horiz-adv-x="572" 
d="M281 664l-105 -93l-37 42l142 150l140 -150l-36 -42zM468 25q-78 -37 -195 -37q-60 0 -101 17t-62 51t-29 74.5t-8 96.5v304h82v-284q0 -102 24.5 -148t100.5 -46q72 0 106 18v460h82v-506z" />
    <glyph glyph-name="udieresis" unicode="&#xfc;" horiz-adv-x="572" 
d="M425 656q0 -25 -15.5 -40.5t-39.5 -15.5t-39 15.5t-15 40.5t15 40.5t39 15.5t39.5 -15.5t15.5 -40.5zM240 656q0 -25 -15 -40.5t-39 -15.5t-39.5 15.5t-15.5 40.5t15.5 40.5t39.5 15.5t39 -15.5t15 -40.5zM468 25q-78 -37 -195 -37q-60 0 -101 17t-62 51t-29 74.5
t-8 96.5v304h82v-284q0 -102 24.5 -148t100.5 -46q72 0 106 18v460h82v-506z" />
    <glyph glyph-name="yacute" unicode="&#xfd;" horiz-adv-x="490" 
d="M270 601h-49l86 182h108zM464 531q-96 -342 -182 -566q-26 -66 -50 -97t-63 -31q-14 0 -26 1.5t-23.5 6l-17 6.5t-17 8.5t-12.5 6.5l16 52q46 -25 61 -25q17 0 31 16.5t21 35.5t14 44q1 5 2 8q-117 275 -193 534h87q42 -167 119 -377q23 -73 24 -74q2 1 5.5 13t8.5 31.5
t8 28.5q40 123 108 378h79z" />
    <glyph glyph-name="thorn" unicode="&#xfe;" horiz-adv-x="586" 
d="M165 436v-334q53 -41 125 -41q82 0 120 53.5t38 142.5q0 94 -47 146.5t-127 52.5q-62 0 -109 -20zM80 766l85 15v-270q57 22 115 22q116 0 186.5 -75t70.5 -200q0 -123 -63 -198.5t-175 -75.5q-79 0 -134 38v-211h-85v955z" />
    <glyph glyph-name="ydieresis" unicode="&#xff;" horiz-adv-x="490" 
d="M389 656q0 -25 -15.5 -40.5t-39.5 -15.5t-39 15.5t-15 40.5t15 40.5t39 15.5t39.5 -15.5t15.5 -40.5zM204 656q0 -25 -15 -40.5t-39 -15.5t-39.5 15.5t-15.5 40.5t15.5 40.5t39.5 15.5t39 -15.5t15 -40.5zM464 531q-96 -342 -182 -566q-26 -66 -50 -97t-63 -31
q-14 0 -26 1.5t-23.5 6l-17 6.5t-17 8.5t-12.5 6.5l16 52q46 -25 61 -25q17 0 31 16.5t21 35.5t14 44q1 5 2 8q-117 275 -193 534h87q42 -167 119 -377q23 -73 24 -74q2 1 5.5 13t8.5 31.5t8 28.5q40 123 108 378h79z" />
    <glyph glyph-name="Amacron" unicode="&#x100;" horiz-adv-x="652" 
d="M443 789h-281v70h281v-70zM429 260l-90 256q-6 16 -12.5 36.5l-10 32t-7.5 17.5q-5 -8 -14 -38l-55 -156.5l-52 -147.5h241zM607 -2h-91q-59 177 -67 199h-281q-45 -125 -69 -199h-83q167 472 258 694h75q78 -193 258 -694z" />
    <glyph glyph-name="amacron" unicode="&#x101;" horiz-adv-x="515" 
d="M394 632h-281v70h281v-70zM352 60v210q-42 3 -49 3q-10 0 -36 -2q-67 -9 -105 -35t-38 -85q0 -104 128 -104q59 0 100 13zM431 19q-70 -31 -188 -31q-96 0 -148 41t-52 121q0 84 61.5 127t165.5 52q4 0 11 0.5t10 0.5q19 0 61 -3q-1 77 -25.5 113.5t-94.5 36.5
q-74 0 -130 -28l-15 61q62 32 153 32q89 0 138.5 -45t51.5 -131q0 -9 0.5 -29t0.5 -30v-288z" />
    <glyph glyph-name="Abreve" unicode="&#x102;" horiz-adv-x="652" 
d="M304 757q-55 0 -93 34.5t-38 98.5v13h59q0 -16 4 -31t21.5 -30t46.5 -15q70 0 73 76h59q0 -72 -36 -109t-96 -37zM429 260l-90 256q-6 16 -12.5 36.5l-10 32t-7.5 17.5q-5 -8 -14 -38l-55 -156.5l-52 -147.5h241zM607 -2h-91q-59 177 -67 199h-281q-45 -125 -69 -199h-83
q167 472 258 694h75q78 -193 258 -694z" />
    <glyph glyph-name="abreve" unicode="&#x103;" horiz-adv-x="515" 
d="M254 600q-55 0 -93 34.5t-38 98.5v13h59q0 -16 4 -31t21.5 -30t46.5 -15q70 0 73 76h59q0 -72 -36 -109t-96 -37zM352 60v210q-42 3 -49 3q-10 0 -36 -2q-67 -9 -105 -35t-38 -85q0 -104 128 -104q59 0 100 13zM431 19q-70 -31 -188 -31q-96 0 -148 41t-52 121
q0 84 61.5 127t165.5 52q4 0 11 0.5t10 0.5q19 0 61 -3q-1 77 -25.5 113.5t-94.5 36.5q-74 0 -130 -28l-15 61q62 32 153 32q89 0 138.5 -45t51.5 -131q0 -9 0.5 -29t0.5 -30v-288z" />
    <glyph glyph-name="Aogonek" unicode="&#x104;" horiz-adv-x="652" 
d="M537 -195q-106 0 -106 77q0 34 24 67t58 58l-64 190h-281q-45 -125 -69 -199h-83q167 472 258 694h75q78 -193 258 -694h-21q-19 -19 -29 -32q0 -1 -1 -1q-40 -42 -41 -63q1 -30 38 -30q26 2 42 8l7 -64q-29 -11 -65 -11zM429 260l-90 256q-6 16 -12.5 36.5l-10 32
t-7.5 17.5q-5 -8 -14 -38l-55 -156.5l-52 -147.5h241z" />
    <glyph glyph-name="aogonek" unicode="&#x105;" horiz-adv-x="515" 
d="M357 232q-36 14 -94 14q-134 0 -134 -93q0 -94 123 -94q65 0 105 8v165zM384 -195q-48 0 -78.5 17t-30.5 50v7q0 54 65 112q-42 -6 -99 -6q-91 0 -145 41t-54 127q0 83 60.5 123.5t161.5 40.5q24 0 54 -5t39 -9v32q-2 56 -26.5 90t-90.5 34h-5q-77 -1 -127 -21l-11 73
q54 24 148 24q60 0 100 -17t60.5 -51t28 -73t7.5 -93v-293q-28 -24 -45 -41h1q-40 -44 -40 -65q0 -29 36 -29h3q22 0 40 7l7 -64q-31 -11 -59 -11z" />
    <glyph glyph-name="Cacute" unicode="&#x106;" horiz-adv-x="614" 
d="M356 770h-49l86 182h108zM361 636q-107 0 -161.5 -84t-54.5 -212q2 -102 37.5 -174t103.5 -97q32 -12 68 -12h8q75 0 133 32l24 -63q-57 -40 -173 -40q-131 0 -210.5 98.5t-79.5 260.5q0 159 82.5 259.5t209.5 100.5q108 0 167 -43l-24 -63q-58 37 -130 37z" />
    <glyph glyph-name="cacute" unicode="&#x107;" horiz-adv-x="466" 
d="M283 625h-49l86 182h108zM410 20q-48 -32 -132 -32q-106 0 -167 74.5t-61 201.5t61.5 202.5t164.5 75.5q78 0 129 -32l-20 -59q-42 24 -98 24q-77 0 -115 -55.5t-38 -154.5q0 -98 39 -154t118 -56q56 0 100 27z" />
    <glyph glyph-name="Ccircumflex" unicode="&#x108;" horiz-adv-x="614" 
d="M331 832l-105 -93l-37 42l142 150l140 -150l-36 -42zM361 636q-107 0 -161.5 -84t-54.5 -212q2 -102 37.5 -174t103.5 -97q32 -12 68 -12h8q75 0 133 32l24 -63q-57 -40 -173 -40q-131 0 -210.5 98.5t-79.5 260.5q0 159 82.5 259.5t209.5 100.5q108 0 167 -43l-24 -63
q-58 37 -130 37z" />
    <glyph glyph-name="ccircumflex" unicode="&#x109;" horiz-adv-x="466" 
d="M259 688l-105 -93l-37 42l142 150l140 -150l-36 -42zM410 20q-48 -32 -132 -32q-106 0 -167 74.5t-61 201.5t61.5 202.5t164.5 75.5q78 0 129 -32l-20 -59q-42 24 -98 24q-77 0 -115 -55.5t-38 -154.5q0 -98 39 -154t118 -56q56 0 100 27z" />
    <glyph glyph-name="Cdotaccent" unicode="&#x10a;" horiz-adv-x="614" 
d="M329 763q-25 0 -41 16t-16 42t16 42t41 16q24 0 40 -16t16 -42t-16 -42t-40 -16zM361 636q-107 0 -161.5 -84t-54.5 -212q2 -102 37.5 -174t103.5 -97q32 -12 68 -12h8q75 0 133 32l24 -63q-57 -40 -173 -40q-131 0 -210.5 98.5t-79.5 260.5q0 159 82.5 259.5
t209.5 100.5q108 0 167 -43l-24 -63q-58 37 -130 37z" />
    <glyph glyph-name="cdotaccent" unicode="&#x10b;" horiz-adv-x="466" 
d="M256 618q-25 0 -41 16t-16 42t16 42t41 16q24 0 40 -16t16 -42t-16 -42t-40 -16zM410 20q-48 -32 -132 -32q-106 0 -167 74.5t-61 201.5t61.5 202.5t164.5 75.5q78 0 129 -32l-20 -59q-42 24 -98 24q-77 0 -115 -55.5t-38 -154.5q0 -98 39 -154t118 -56q56 0 100 27z" />
    <glyph glyph-name="Ccaron" unicode="&#x10c;" horiz-adv-x="614" 
d="M226 952l104 -94l104 94l37 -42l-141 -151l-141 151zM361 636q-107 0 -161.5 -84t-54.5 -212q2 -102 37.5 -174t103.5 -97q32 -12 68 -12h8q75 0 133 32l24 -63q-57 -40 -173 -40q-131 0 -210.5 98.5t-79.5 260.5q0 159 82.5 259.5t209.5 100.5q108 0 167 -43l-24 -63
q-58 37 -130 37z" />
    <glyph glyph-name="ccaron" unicode="&#x10d;" horiz-adv-x="466" 
d="M154 807l104 -94l104 94l37 -42l-141 -151l-141 151zM410 20q-48 -32 -132 -32q-106 0 -167 74.5t-61 201.5t61.5 202.5t164.5 75.5q78 0 129 -32l-20 -59q-42 24 -98 24q-77 0 -115 -55.5t-38 -154.5q0 -98 39 -154t118 -56q56 0 100 27z" />
    <glyph glyph-name="Dcaron" unicode="&#x10e;" horiz-adv-x="707" 
d="M197 952l104 -94l104 94l37 -42l-141 -151l-141 151zM505 350q0 138 -61.5 212t-182.5 74q-58 0 -95 -11v-557q31 -11 95 -11q244 0 244 293zM593 349q0 -170 -87.5 -264.5t-245.5 -94.5q-108 0 -179 27v655q76 28 178 28q157 0 245.5 -91t88.5 -260z" />
    <glyph glyph-name="dcaron" unicode="&#x10f;" horiz-adv-x="640" 
d="M578 780h88l-27 -229h-61v229zM420 72v347q-56 41 -122 41q-83 0 -120.5 -54.5t-37.5 -145.5q0 -96 46.5 -148.5t125.5 -52.5q69 0 108 13zM507 779v-762q-85 -31 -196 -31q-118 0 -189.5 73t-71.5 200q0 122 63 197.5t174 75.5q79 0 133 -37v271q29 5 87 13z" />
    <glyph glyph-name="Dcroat" unicode="&#x110;" horiz-adv-x="720" 
d="M187 326v-253q48 -6 98 -6q140 0 213 74t73 206q0 131 -73 205t-213 74q-50 0 -98 -6v-222h131v-72h-131zM664 347q0 -174 -105 -266t-282 -92q-100 0 -179 19v318h-80v72h80v286q72 19 179 19q178 0 282.5 -90.5t104.5 -265.5z" />
    <glyph glyph-name="dcroat" unicode="&#x111;" horiz-adv-x="586" 
d="M421 73v341q-56 41 -125 41q-82 0 -120 -54t-38 -143q0 -93 47 -145t126 -52q72 0 110 12zM506 781v-96h78v-66h-78v-606q-87 -29 -196 -29q-118 0 -189.5 73.5t-71.5 199.5q0 123 63.5 198.5t175.5 75.5q76 0 133 -37v125h-176v66h176v81z" />
    <glyph glyph-name="Emacron" unicode="&#x112;" horiz-adv-x="562" 
d="M414 789h-281v70h281v-70zM461 -2h-380v694h367v-66h-281v-234h251v-66h-251v-262h294v-66z" />
    <glyph glyph-name="emacron" unicode="&#x113;" horiz-adv-x="553" 
d="M406 620h-281v70h281v-70zM402 315q-3 163 -129 163q-62 0 -101 -49t-41 -135zM481 262l-348 -25q11 -183 172 -183q73 0 133 30l17 -63q-56 -33 -155 -33q-121 0 -185.5 72t-64.5 205q0 132 64 204.5t160 72.5q89 0 142.5 -53t62.5 -159q2 -26 2 -68z" />
    <glyph glyph-name="Ebreve" unicode="&#x114;" horiz-adv-x="562" 
d="M275 757q-55 0 -93 34.5t-38 98.5v13h59q0 -16 4 -31t21.5 -30t46.5 -15q70 0 73 76h59q0 -72 -36 -109t-96 -37zM461 -2h-380v694h367v-66h-281v-234h251v-66h-251v-262h294v-66z" />
    <glyph glyph-name="ebreve" unicode="&#x115;" horiz-adv-x="553" 
d="M267 588q-55 0 -93 34.5t-38 98.5v13h59q0 -16 4 -31t21.5 -30t46.5 -15q70 0 73 76h59q0 -72 -36 -109t-96 -37zM402 315q-3 163 -129 163q-62 0 -101 -49t-41 -135zM481 262l-348 -25q11 -183 172 -183q73 0 133 30l17 -63q-56 -33 -155 -33q-121 0 -185.5 72
t-64.5 205q0 132 64 204.5t160 72.5q89 0 142.5 -53t62.5 -159q2 -26 2 -68z" />
    <glyph glyph-name="Edotaccent" unicode="&#x116;" horiz-adv-x="562" 
d="M274 763q-25 0 -41 16t-16 42t16 42t41 16q24 0 40 -16t16 -42t-16 -42t-40 -16zM461 -2h-380v694h367v-66h-281v-234h251v-66h-251v-262h294v-66z" />
    <glyph glyph-name="edotaccent" unicode="&#x117;" horiz-adv-x="553" 
d="M266 594q-25 0 -41 16t-16 42t16 42t41 16q24 0 40 -16t16 -42t-16 -42t-40 -16zM402 315q-3 163 -129 163q-62 0 -101 -49t-41 -135zM481 262l-348 -25q11 -183 172 -183q73 0 133 30l17 -63q-56 -33 -155 -33q-121 0 -185.5 72t-64.5 205q0 132 64 204.5t160 72.5
q89 0 142.5 -53t62.5 -159q2 -26 2 -68z" />
    <glyph glyph-name="Eogonek" unicode="&#x118;" horiz-adv-x="562" 
d="M436 -4h-352v701h418v-77h-329v-218h293v-76h-293v-253h355v-73q-30 -22 -54 -49.5t-25 -48.5q1 -29 36 -29h3q22 0 40 7l7 -64q-27 -11 -65 -11q-105 0 -105 77q0 61 71 114z" />
    <glyph glyph-name="eogonek" unicode="&#x119;" horiz-adv-x="553" 
d="M142 306h271q-3 73 -36 113t-93 40t-99 -44.5t-43 -108.5zM305 -13q-130 0 -193 74.5t-63 197.5q0 131 69 203.5t165 72.5q102 0 159.5 -65.5t57.5 -194.5q0 -7 -1 -20t-1 -19h-358q5 -88 48.5 -131t132.5 -43q70 1 129 28l14 -73q-100 -75 -101 -115q1 -29 37 -29h3
q22 0 40 7l7 -64q-29 -11 -65 -11q-105 0 -105 75q0 59 67 110q-23 -3 -42 -3z" />
    <glyph glyph-name="Ecaron" unicode="&#x11a;" horiz-adv-x="562" 
d="M171 952l104 -94l104 94l37 -42l-141 -151l-141 151zM461 -2h-380v694h367v-66h-281v-234h251v-66h-251v-262h294v-66z" />
    <glyph glyph-name="ecaron" unicode="&#x11b;" horiz-adv-x="553" 
d="M164 783l104 -94l104 94l37 -42l-141 -151l-141 151zM402 315q-3 163 -129 163q-62 0 -101 -49t-41 -135zM481 262l-348 -25q11 -183 172 -183q73 0 133 30l17 -63q-56 -33 -155 -33q-121 0 -185.5 72t-64.5 205q0 132 64 204.5t160 72.5q89 0 142.5 -53t62.5 -159
q2 -26 2 -68z" />
    <glyph glyph-name="Gcircumflex" unicode="&#x11c;" horiz-adv-x="664" 
d="M354 832l-105 -93l-37 42l142 150l140 -150l-36 -42zM556 22q-70 -36 -196 -36q-133 0 -219 94.5t-86 267.5q0 168 89 262.5t221 94.5q114 0 183 -43l-26 -63q-57 36 -149 36h-4q-105 0 -165 -75t-60 -217q0 -136 59.5 -213t162.5 -77q74 0 106 16v225h-68v69h152v-341z
" />
    <glyph glyph-name="gcircumflex" unicode="&#x11d;" horiz-adv-x="576" 
d="M296 664l-105 -93l-37 42l142 150l140 -150l-36 -42zM391 97v368q-31 14 -95 14q-79 0 -121 -57.5t-42 -155.5t40.5 -149t110.5 -51q65 0 107 31zM471 10q0 -218 -225 -218q-98 0 -165 31q8 29 21 65q55 -28 131 -30q75 0 113 35q46 34 46 109v33q-48 -30 -120 -30
q-99 0 -160.5 67.5t-61.5 192.5q0 124 65 200t182 76q102 0 174 -33v-498z" />
    <glyph glyph-name="Gbreve" unicode="&#x11e;" horiz-adv-x="664" 
d="M353 757q-55 0 -93 34.5t-38 98.5v13h59q0 -16 4 -31t21.5 -30t46.5 -15q70 0 73 76h59q0 -72 -36 -109t-96 -37zM556 22q-70 -36 -196 -36q-133 0 -219 94.5t-86 267.5q0 168 89 262.5t221 94.5q114 0 183 -43l-26 -63q-57 36 -149 36h-4q-105 0 -165 -75t-60 -217
q0 -136 59.5 -213t162.5 -77q74 0 106 16v225h-68v69h152v-341z" />
    <glyph glyph-name="gbreve" unicode="&#x11f;" horiz-adv-x="576" 
d="M294 588q-55 0 -93 34.5t-38 98.5v13h59q0 -16 4 -31t21.5 -30t46.5 -15q70 0 73 76h59q0 -72 -36 -109t-96 -37zM391 97v368q-31 14 -95 14q-79 0 -121 -57.5t-42 -155.5t40.5 -149t110.5 -51q65 0 107 31zM471 10q0 -218 -225 -218q-98 0 -165 31q8 29 21 65
q55 -28 131 -30q75 0 113 35q46 34 46 109v33q-48 -30 -120 -30q-99 0 -160.5 67.5t-61.5 192.5q0 124 65 200t182 76q102 0 174 -33v-498z" />
    <glyph glyph-name="Gdotaccent" unicode="&#x120;" horiz-adv-x="664" 
d="M352 763q-25 0 -41 16t-16 42t16 42t41 16q24 0 40 -16t16 -42t-16 -42t-40 -16zM556 22q-70 -36 -196 -36q-133 0 -219 94.5t-86 267.5q0 168 89 262.5t221 94.5q114 0 183 -43l-26 -63q-57 36 -149 36h-4q-105 0 -165 -75t-60 -217q0 -136 59.5 -213t162.5 -77
q74 0 106 16v225h-68v69h152v-341z" />
    <glyph glyph-name="gdotaccent" unicode="&#x121;" horiz-adv-x="576" 
d="M294 594q-25 0 -41 16t-16 42t16 42t41 16q24 0 40 -16t16 -42t-16 -42t-40 -16zM391 97v368q-31 14 -95 14q-79 0 -121 -57.5t-42 -155.5t40.5 -149t110.5 -51q65 0 107 31zM471 10q0 -218 -225 -218q-98 0 -165 31q8 29 21 65q55 -28 131 -30q75 0 113 35q46 34 46 109
v33q-48 -30 -120 -30q-99 0 -160.5 67.5t-61.5 192.5q0 124 65 200t182 76q102 0 174 -33v-498z" />
    <glyph glyph-name="Gcommaaccent" unicode="&#x122;" horiz-adv-x="664" 
d="M333 -68v18h79q2 -8 2 -22q1 -9 -1 -22q-5 -50 -37 -75.5t-82 -25.5q-28 2 -34 6v55q40 0 56.5 15.5t16.5 50.5zM564 588q-62 43 -175 43q-106 0 -172 -74.5t-66 -209.5t60.5 -210.5t176.5 -75.5q87 0 115 14l3 161l-3 9v94h92v-320q-75 -35 -216 -35q-145 0 -233.5 96.5
t-88.5 266.5q0 168 94 265t237 97q128 0 205 -49z" />
    <glyph glyph-name="gcommaaccent" unicode="&#x123;" horiz-adv-x="576" 
d="M258 629q0 67 33 105.5t78 51.5l28 -49q-19 -12 -29.5 -22t-19.5 -33.5t-9 -57.5v-16h-80q-1 3 -1 21zM411 126v321q-42 12 -108 12q-76 0 -119.5 -51.5t-43.5 -137.5q0 -91 43 -136t105 -45q77 0 123 37zM412 22q-4 19 -5 31q-15 -12 -48 -24t-77 -12q-101 0 -166.5 63
t-65.5 189q0 116 68 189t185 73q105 0 194 -29v-474q0 -117 -61 -169t-186 -52q-88 0 -169 27l17 74q58 -26 143 -28q86 0 123 30q47 31 48 112z" />
    <glyph glyph-name="Hcircumflex" unicode="&#x124;" horiz-adv-x="698" 
d="M322 832l-105 -93l-37 42l142 150l140 -150l-36 -42zM563 -2h-85v327h-311v-327h-86v694h86v-301h311v301h85v-694z" />
    <glyph glyph-name="hcircumflex" unicode="&#x125;" horiz-adv-x="572" 
d="M286 884l-104 -94l-38 42l142 151l141 -151l-37 -42zM475 -2h-81v285q0 40 -1.5 64.5t-8.5 51.5t-20.5 41.5t-37 24t-58.5 9.5q-68 0 -110 -24v-452h-82v782h82v-270q60 28 118 28h4q53 0 90.5 -15t57.5 -36t31 -56.5t13.5 -63.5t2.5 -70v-299z" />
    <glyph glyph-name="Hbar" unicode="&#x126;" horiz-adv-x="725" 
d="M538 400v124h-351v-124h351zM707 524h-80v-528h-89v326h-351v-326h-89v528h-80v70h80v103h89v-103h351v103h89v-103h80v-70z" />
    <glyph glyph-name="hbar" unicode="&#x127;" horiz-adv-x="573" 
d="M166 -4h-85v623h-78v66h78v81l85 15v-96h181v-66h-181v-111q61 23 120 23q118 0 165.5 -62.5t47.5 -180.5v-292h-85v271q0 105 -29.5 146t-108.5 41q-28 0 -63.5 -7.5t-46.5 -13.5v-437z" />
    <glyph glyph-name="Itilde" unicode="&#x128;" horiz-adv-x="258" 
d="M184 757q-29 0 -73.5 19.5t-54.5 19.5q-28 0 -53 -47l-50 27q14 34 40.5 61.5t63.5 27.5q32 0 75.5 -19.5t52.5 -19.5q28 0 53 47l48 -27q-17 -33 -43.5 -61t-58.5 -28zM168 -2h-85v694h85v-694z" />
    <glyph glyph-name="itilde" unicode="&#x129;" horiz-adv-x="244" 
d="M182 584q-29 0 -73.5 19.5t-54.5 19.5q-28 0 -53 -47l-50 27q14 34 40.5 61.5t63.5 27.5q32 0 75.5 -19.5t52.5 -19.5q28 0 53 47l48 -27q-17 -33 -43.5 -61t-58.5 -28zM165 522v-526h-85v526h85z" />
    <glyph glyph-name="Imacron" unicode="&#x12a;" horiz-adv-x="258" 
d="M263 789h-281v70h281v-70zM168 -2h-85v694h85v-694z" />
    <glyph glyph-name="imacron" unicode="&#x12b;" horiz-adv-x="244" 
d="M261 620h-281v70h281v-70zM165 522v-526h-85v526h85z" />
    <glyph glyph-name="Ibreve" unicode="&#x12c;" horiz-adv-x="258" 
d="M124 757q-55 0 -93 34.5t-38 98.5v13h59q0 -16 4 -31t21.5 -30t46.5 -15q70 0 73 76h59q0 -72 -36 -109t-96 -37zM168 -2h-85v694h85v-694z" />
    <glyph glyph-name="ibreve" unicode="&#x12d;" horiz-adv-x="244" 
d="M121 588q-55 0 -93 34.5t-38 98.5v13h59q0 -16 4 -31t21.5 -30t46.5 -15q70 0 73 76h59q0 -72 -36 -109t-96 -37zM165 522v-526h-85v526h85z" />
    <glyph glyph-name="Iogonek" unicode="&#x12e;" horiz-adv-x="258" 
d="M173 697v-699q-23 -20 -35 -31.5t-26 -31t-14 -33.5q0 -29 36 -29h3q22 0 40 7l7 -64q-29 -11 -65 -11q-106 0 -106 77q0 60 71 115v700h89z" />
    <glyph glyph-name="iogonek" unicode="&#x12f;" horiz-adv-x="244" 
d="M180 674q0 -27 -16.5 -43.5t-41.5 -16.5t-41.5 16.5t-16.5 43.5t16.5 43t41.5 16t41.5 -16t16.5 -43zM165 522v-524q-5 -5 -19 -18t-20.5 -19.5t-16 -18t-13.5 -21t-4 -19.5q0 -29 36 -29h3q22 0 40 7l7 -64q-29 -11 -65 -11q-106 0 -106 77q0 61 73 116v524h85z" />
    <glyph glyph-name="Idotaccent" unicode="&#x130;" horiz-adv-x="258" 
d="M129 772q-24 0 -40 16t-16 42t16 42t40 16q25 0 41 -16t16 -42t-16 -42t-41 -16zM85 -2v697h90v-697h-90z" />
    <glyph glyph-name="dotlessi" unicode="&#x131;" horiz-adv-x="244" 
d="M165 522v-526h-85v526h85z" />
    <glyph glyph-name="IJ" unicode="&#x132;" horiz-adv-x="750" 
d="M415 52q79 0 114.5 40.5t35.5 135.5v467h90v-487q0 -235 -216 -239q-61 0 -107.5 17.5t-71.5 38.5l32 70q61 -43 123 -43zM85 -2v697h90v-697h-90z" />
    <glyph glyph-name="ij" unicode="&#x133;" horiz-adv-x="488" 
d="M160 -2h-81v533h81v-533zM172 682q0 -23 -15 -37.5t-38 -14.5q-22 0 -37 14.5t-15 37.5t15 37.5t37 14.5q23 0 38 -14.5t15 -37.5zM406 17q0 -186 -144 -212q-18 -6 -43 -6q-13 0 -19 1l6 56q63 10 89.5 47.5t28.5 109.5v518h82v-514zM417 682q0 -23 -15 -37.5t-37 -14.5
q-23 0 -37.5 14.5t-14.5 37.5t14.5 37.5t37.5 14.5q22 0 37 -14.5t15 -37.5z" />
    <glyph glyph-name="Jcircumflex" unicode="&#x134;" horiz-adv-x="493" 
d="M248 832l-105 -93l-37 42l142 150l140 -150l-36 -42zM288 122q0 -96 -44 -156t-133 -73q-10 -1 -28 -1q-55 0 -103 19q10 37 19 65q34 -10 59 -10q23 0 45 7q60 16 80 62.5t20 145.5v511h85v-570z" />
    <glyph glyph-name="jcircumflex" unicode="&#x135;" horiz-adv-x="244" 
d="M123 664l-105 -93l-37 42l142 150l140 -150l-36 -42zM-7 -191q-33 0 -62 12l12 71q21 -8 48 -8q51 0 70 28.5t19 92.5v517h85v-515q0 -102 -40.5 -150t-131.5 -48z" />
    <glyph glyph-name="Kcommaaccent" unicode="&#x136;" horiz-adv-x="611" 
d="M375 -72q0 -60 -32.5 -91.5t-88.5 -31.5q-26 2 -34 6v55q40 0 56.5 15.5t16.5 50.5v18h80q0 -4 0.5 -11.5t1.5 -10.5zM604 -2h-62q-6 0 -20 0.5t-20 0.5q-63 98 -152.5 190t-174.5 145v-336h-90v697h90v-314q74 68 165 162.5t137 151.5h106l-153 -162.5l-164 -164.5
q86 -59 188.5 -171t149.5 -199z" />
    <glyph glyph-name="kcommaaccent" unicode="&#x137;" horiz-adv-x="507" 
d="M477 -2h-94q-124 178 -224 264v-264h-81v782h81v-486q128 142 206 237h93l-222 -247q135 -131 241 -286zM317 -72q0 -60 -32 -91.5t-88 -31.5q-27 2 -35 6v55q41 0 57.5 15.5t16.5 50.5v18h79q2 -8 2 -22z" />
    <glyph glyph-name="kgreenlandic" unicode="&#x138;" horiz-adv-x="517" 
d="M165 -4h-85v526h85v-226q143 139 221 226h103q-105 -119 -241 -244q67 -47 141 -128t118 -154h-100q-43 68 -113 137.5t-129 107.5v-245z" />
    <glyph glyph-name="Lacute" unicode="&#x139;" horiz-adv-x="511" 
d="M152 770h-49l86 182h108zM435 -2h-352v694h85v-628h267v-66z" />
    <glyph glyph-name="lacute" unicode="&#x13a;" horiz-adv-x="277" 
d="M146 857h-49l86 182h108zM248 39l-17 -53q-82 10 -117 47t-35 133v614h81v-548q0 -62 3 -95.5t15 -53.5t25.5 -27.5t44.5 -16.5z" />
    <glyph glyph-name="Lcommaaccent" unicode="&#x13b;" horiz-adv-x="511" 
d="M341 -72q0 -60 -32.5 -91.5t-88.5 -31.5q-26 2 -34 6v55q41 0 57.5 15.5t16.5 50.5v18h79q2 -16 2 -22zM175 73h311v-75h-401v697h90v-622z" />
    <glyph glyph-name="lcommaaccent" unicode="&#x13c;" horiz-adv-x="264" 
d="M248 39l-17 -53q-82 10 -117 47t-35 133v614h81v-548q0 -62 3 -95.5t15 -53.5t25.5 -27.5t44.5 -16.5zM190 -72q0 -60 -32.5 -91.5t-88.5 -31.5q-26 2 -34 6v55q41 0 57.5 15.5t16.5 50.5v18h79q2 -16 2 -22z" />
    <glyph glyph-name="Lcaron" unicode="&#x13d;" horiz-adv-x="511" 
d="M264 698h87l-26 -229h-61v229zM175 73h311v-75h-401v697h90v-622z" />
    <glyph glyph-name="lcaron" unicode="&#x13e;" horiz-adv-x="356" 
d="M248 39l-17 -53q-82 10 -117 47t-35 133v614h81v-548q0 -62 3 -95.5t15 -53.5t25.5 -27.5t44.5 -16.5zM239 779h87l-26 -229h-61v229z" />
    <glyph glyph-name="Ldot" unicode="&#x13f;" horiz-adv-x="511" 
d="M386 312q-25 0 -41.5 16.5t-16.5 42.5q0 27 16.5 43.5t41.5 16.5t41.5 -16.5t16.5 -42.5q0 -27 -16.5 -43.5t-41.5 -16.5zM175 73h311v-75h-401v697h90v-622z" />
    <glyph glyph-name="ldot" unicode="&#x140;" horiz-adv-x="277" 
d="M119 850q-25 0 -41 16t-16 42t16 42t41 16q24 0 40 -16t16 -42t-16 -42t-40 -16zM248 39l-17 -53q-82 10 -117 47t-35 133v614h81v-548q0 -62 3 -95.5t15 -53.5t25.5 -27.5t44.5 -16.5z" />
    <glyph glyph-name="Lslash" unicode="&#x141;" horiz-adv-x="527" 
d="M189 407l113 58l30 -63l-143 -74v-254h324v-78h-412v286l-74 -37l-32 63l106 54v335h88v-290z" />
    <glyph glyph-name="lslash" unicode="&#x142;" horiz-adv-x="270" 
d="M172 457l71 37l29 -62l-100 -52v-244q0 -43 16.5 -57.5t61.5 -20.5l-12 -72q-75 4 -110.5 33t-38.5 97q-2 36 -2 109v111l-53 -27l-30 61l83 43v367h85v-323z" />
    <glyph glyph-name="Nacute" unicode="&#x143;" horiz-adv-x="716" 
d="M374 770h-49l86 182h108zM599 -2h-44l-31 1q-114 199 -321 510q-8 12 -19 31t-17.5 29t-8.5 10q0 -15 1 -103t1 -134v-344h-79v694h80q184 -257 324 -490l16 -28.5t14 -24.5t8 -11q0 30 -1 140t-1 163v251h78v-694z" />
    <glyph glyph-name="nacute" unicode="&#x144;" horiz-adv-x="572" 
d="M290 601h-49l86 182h108zM475 -2h-81v288q0 40 -1 61.5t-8 50.5t-20 43.5t-38 25t-61 10.5q-66 0 -108 -16v-463h-82v507q74 36 199 36q54 0 92.5 -15t59 -36.5t32 -56.5t14 -63.5t2.5 -69.5v-302z" />
    <glyph glyph-name="Ncommaaccent" unicode="&#x145;" horiz-adv-x="716" 
d="M405 -72q0 -60 -32.5 -91.5t-88.5 -31.5q-26 2 -34 6v55q41 0 57.5 15.5t16.5 50.5v18h79q2 -16 2 -22zM624 -2h-44l-30 1q-58 105 -181.5 285.5t-198.5 266.5q0 -43 0.5 -130t0.5 -131v-292h-86v697h71q94 -106 198.5 -250.5t183.5 -278.5v529h86v-697z" />
    <glyph glyph-name="ncommaaccent" unicode="&#x146;" horiz-adv-x="572" 
d="M332 -72q0 -60 -32 -91.5t-88 -31.5q-27 2 -35 6v55q41 0 57.5 15.5t16.5 50.5v18h79q2 -8 2 -22zM80 -2v502q91 31 206 31q118 0 165.5 -62t47.5 -180v-291h-86v268q0 107 -29 149.5t-107 42.5q-72 0 -111 -12v-448h-86z" />
    <glyph glyph-name="Ncaron" unicode="&#x147;" horiz-adv-x="716" 
d="M244 952l104 -94l104 94l37 -42l-141 -151l-141 151zM599 -2h-44l-31 1q-114 199 -321 510q-8 12 -19 31t-17.5 29t-8.5 10q0 -15 1 -103t1 -134v-344h-79v694h80q184 -257 324 -490l16 -28.5t14 -24.5t8 -11q0 30 -1 140t-1 163v251h78v-694z" />
    <glyph glyph-name="ncaron" unicode="&#x148;" horiz-adv-x="572" 
d="M160 783l104 -94l104 94l37 -42l-141 -151l-141 151zM475 -2h-81v288q0 40 -1 61.5t-8 50.5t-20 43.5t-38 25t-61 10.5q-66 0 -108 -16v-463h-82v507q74 36 199 36q54 0 92.5 -15t59 -36.5t32 -56.5t14 -63.5t2.5 -69.5v-302z" />
    <glyph glyph-name="napostrophe" unicode="&#x149;" horiz-adv-x="576" 
d="M54 780h87q2 -24 2 -33q-6 -87 -67 -187l-60 24q42 87 42 156q0 24 -4 40zM84 -2v502q91 31 206 31q118 0 166 -62t48 -180v-291h-87v268q0 107 -29 149.5t-107 42.5q-72 0 -111 -12v-448h-86z" />
    <glyph glyph-name="Eng" unicode="&#x14a;" horiz-adv-x="716" 
d="M543 -29v48q-62 109 -176.5 274.5t-194.5 260.5v-558h-88v701h70q95 -104 210 -262.5t179 -270.5v533h88v-717q0 -81 -25.5 -123.5t-100.5 -45.5q-6 -1 -18 -1l-24 1q-26 4 -37 9l12 72q19 -8 42 -8q35 0 49 20.5t14 66.5z" />
    <glyph glyph-name="eng" unicode="&#x14b;" horiz-adv-x="572" 
d="M413 -32v302q0 103 -30 144.5t-107 41.5q-75 0 -111 -13v-447h-85v507q105 30 205 30q116 0 164.5 -63t48.5 -180v-312q0 -82 -25 -123.5t-101 -43.5q-3 0 -8.5 -0.5t-8.5 -0.5q-33 0 -56 10l11 69q21 -7 41 -7q34 0 48 20.5t14 65.5z" />
    <glyph glyph-name="Omacron" unicode="&#x14c;" horiz-adv-x="776" 
d="M485 816h-281v70h281v-70zM546 347q0 128 -51 209.5t-150 81.5t-150 -81.5t-51 -209.5q0 -129 50.5 -210.5t150.5 -81.5t150.5 81.5t50.5 210.5zM634 345q0 -165 -77.5 -262t-211.5 -97t-211.5 97t-77.5 262q0 164 78 262t211 98t211 -98t78 -262z" />
    <glyph glyph-name="omacron" unicode="&#x14d;" 
d="M415 620h-281v70h281v-70zM417 264q0 94 -35 154.5t-106 60.5q-72 0 -107.5 -60.5t-35.5 -154.5t35.5 -152.5t107.5 -58.5t106.5 58.5t34.5 152.5zM500 264q0 -124 -59.5 -200.5t-164.5 -76.5q-106 0 -166 76.5t-60 200.5q0 125 60 201.5t165 76.5q106 0 165.5 -76.5
t59.5 -201.5z" />
    <glyph glyph-name="Obreve" unicode="&#x14e;" horiz-adv-x="776" 
d="M346 784q-55 0 -93 34.5t-38 98.5v13h59q0 -16 4 -31t21.5 -30t46.5 -15q70 0 73 76h59q0 -72 -36 -109t-96 -37zM546 347q0 128 -51 209.5t-150 81.5t-150 -81.5t-51 -209.5q0 -129 50.5 -210.5t150.5 -81.5t150.5 81.5t50.5 210.5zM634 345q0 -165 -77.5 -262
t-211.5 -97t-211.5 97t-77.5 262q0 164 78 262t211 98t211 -98t78 -262z" />
    <glyph glyph-name="obreve" unicode="&#x14f;" 
d="M275 588q-55 0 -93 34.5t-38 98.5v13h59q0 -16 4 -31t21.5 -30t46.5 -15q70 0 73 76h59q0 -72 -36 -109t-96 -37zM417 264q0 94 -35 154.5t-106 60.5q-72 0 -107.5 -60.5t-35.5 -154.5t35.5 -152.5t107.5 -58.5t106.5 58.5t34.5 152.5zM500 264q0 -124 -59.5 -200.5
t-164.5 -76.5q-106 0 -166 76.5t-60 200.5q0 125 60 201.5t165 76.5q106 0 165.5 -76.5t59.5 -201.5z" />
    <glyph glyph-name="Ohungarumlaut" unicode="&#x150;" horiz-adv-x="776" 
d="M551 940l58 -52l-133 -155l-49 36zM387 940l58 -51l-133 -156l-49 36zM615 347q0 132 -62.5 209t-169.5 77t-169.5 -77t-62.5 -209q0 -131 63 -208.5t169 -77.5q107 0 169.5 77.5t62.5 208.5zM709 347q0 -171 -92.5 -267.5t-233.5 -96.5t-233.5 96.5t-92.5 267.5
q0 170 92.5 266t233.5 96t233.5 -96t92.5 -266z" />
    <glyph glyph-name="ohungarumlaut" unicode="&#x151;" 
d="M456 786l58 -52l-133 -156l-49 37zM291 786l57 -51l-132 -157l-49 37zM444 260q0 92 -40.5 146t-111.5 54q-70 0 -111 -54.5t-41 -145.5q0 -92 41 -146t111 -54q71 0 111.5 54t40.5 146zM534 259q0 -123 -67 -198t-175 -75q-107 0 -174.5 75.5t-67.5 197.5
q0 123 67.5 198.5t174.5 75.5t174.5 -75.5t67.5 -198.5z" />
    <glyph glyph-name="OE" unicode="&#x152;" horiz-adv-x="991" 
d="M957 -4h-416q-48 -6 -101 -6q-174 0 -277.5 91t-103.5 266q0 174 103.5 265t277.5 91q53 0 101 -6h390v-77h-315v-218h279v-76h-279v-253h341v-77zM528 73v547q-2 0 -13 1.5t-32.5 3t-49.5 1.5q-138 0 -210 -74t-72 -205q0 -132 72 -206t210 -74q35 0 95 6z" />
    <glyph glyph-name="oe" unicode="&#x153;" horiz-adv-x="943" 
d="M532 306h271q-3 73 -36 113t-93 40t-99 -44.5t-43 -108.5zM447 259q0 91 -41.5 145t-112.5 54q-72 0 -113.5 -54t-41.5 -145t41.5 -144.5t113.5 -53.5q71 0 112.5 53.5t41.5 144.5zM712 -15q-167 0 -227 116q-62 -117 -193 -117q-108 0 -175.5 75.5t-67.5 199.5t68 200
t175 76q134 0 195 -122q47 92 136 115q30 6 61 6q97 -3 151.5 -68.5t54.5 -190.5q0 -7 -1 -20t-1 -19h-358q8 -141 117 -168q30 -6 66 -6q70 1 127 28l14 -73q-49 -29 -142 -32z" />
    <glyph glyph-name="Racute" unicode="&#x154;" horiz-adv-x="627" 
d="M312 770h-49l86 182h108zM434 488q0 153 -174 153q-59 0 -94 -13v-280h94q83 0 128.5 31t45.5 109zM550 -2h-95q-125 211 -198 294h-91v-294h-83v674q75 28 173 28q130 0 197 -54t67 -157q0 -79 -45.5 -129.5t-127.5 -60.5v-1q79 -98 203 -300z" />
    <glyph glyph-name="racute" unicode="&#x155;" horiz-adv-x="381" 
d="M224 601h-49l86 182h108zM76 504q72 35 169 35q45 0 90 -7l-18 -65q-28 8 -66 8h-15q-51 0 -78 -16v-461h-82v506z" />
    <glyph glyph-name="Rcommaaccent" unicode="&#x156;" horiz-adv-x="625" 
d="M372 -72q0 -60 -32 -91.5t-88 -31.5q-27 2 -35 6v55q41 0 57.5 15.5t16.5 50.5v18h79q2 -8 2 -22zM275 628q-32 0 -101 -6v-279h83q103 0 157.5 28.5t54.5 111.5q0 145 -194 145zM562 483q0 -139 -144 -187q42 -53 98 -139.5t88 -158.5h-97q-55 106 -175 272l-59 6h-99
v-278h-89v682q78 21 182 21q295 0 295 -218z" />
    <glyph glyph-name="rcommaaccent" unicode="&#x157;" horiz-adv-x="381" 
d="M164 -72q0 -60 -32.5 -91.5t-88.5 -31.5q-26 2 -34 6v55q41 0 57.5 15.5t16.5 50.5v18h79q2 -16 2 -22zM265 531q69 0 105 -15q-2 -12 -7.5 -35t-8.5 -34q-30 11 -89 11q-1 0 -3 0.5t-4 0.5q-54 0 -92 -14v-447h-86v498q79 35 185 35z" />
    <glyph glyph-name="Rcaron" unicode="&#x158;" horiz-adv-x="627" 
d="M182 952l104 -94l104 94l37 -42l-141 -151l-141 151zM434 488q0 153 -174 153q-59 0 -94 -13v-280h94q83 0 128.5 31t45.5 109zM550 -2h-95q-125 211 -198 294h-91v-294h-83v674q75 28 173 28q130 0 197 -54t67 -157q0 -79 -45.5 -129.5t-127.5 -60.5v-1q79 -98 203 -300
z" />
    <glyph glyph-name="rcaron" unicode="&#x159;" horiz-adv-x="381" 
d="M126 774l104 -94l104 94l37 -42l-141 -151l-141 151zM265 531q69 0 105 -15q-2 -12 -7.5 -35t-8.5 -34q-30 11 -89 11q-1 0 -3 0.5t-4 0.5q-54 0 -92 -14v-447h-86v498q79 35 185 35z" />
    <glyph glyph-name="Sacute" unicode="&#x15a;" horiz-adv-x="526" 
d="M264 770h-49l86 182h108zM450 183q0 -91 -62 -144t-166 -53q-116 0 -185 43l12.5 33.5l12.5 33.5q66 -41 154 -41q70 0 108 32t38 93q0 55 -35 84.5t-114 60.5q-137 55 -158 150q-5 19 -5 49q3 81 59.5 131t151.5 50q102 0 164 -43l-25 -62q-63 38 -136 38q-61 0 -95 -30
t-34 -86q0 -52 34 -79.5t105 -56.5q93 -36 134.5 -84t41.5 -119z" />
    <glyph glyph-name="sacute" unicode="&#x15b;" horiz-adv-x="436" 
d="M227 601h-49l86 182h108zM376 140q0 -67 -52 -109.5t-139 -42.5q-91 0 -148 33l21 65q42 -32 123 -32q51 0 81.5 22t30.5 62q0 38 -24 59t-87 46q-69 28 -101 64t-32 88q0 64 47 105.5t125 41.5q81 0 134 -32q-14 -40 -20 -61q-50 29 -110 29q-44 0 -70 -21t-26 -58
q0 -36 24.5 -56.5t81.5 -43.5q73 -28 107 -64.5t34 -94.5z" />
    <glyph glyph-name="Scircumflex" unicode="&#x15c;" horiz-adv-x="526" 
d="M239 832l-105 -93l-37 42l142 150l140 -150l-36 -42zM450 183q0 -91 -62 -144t-166 -53q-116 0 -185 43l12.5 33.5l12.5 33.5q66 -41 154 -41q70 0 108 32t38 93q0 55 -35 84.5t-114 60.5q-137 55 -158 150q-5 19 -5 49q3 81 59.5 131t151.5 50q102 0 164 -43l-25 -62
q-63 38 -136 38q-61 0 -95 -30t-34 -86q0 -52 34 -79.5t105 -56.5q93 -36 134.5 -84t41.5 -119z" />
    <glyph glyph-name="scircumflex" unicode="&#x15d;" horiz-adv-x="436" 
d="M202 664l-105 -93l-37 42l142 150l140 -150l-36 -42zM376 140q0 -67 -52 -109.5t-139 -42.5q-91 0 -148 33l21 65q42 -32 123 -32q51 0 81.5 22t30.5 62q0 38 -24 59t-87 46q-69 28 -101 64t-32 88q0 64 47 105.5t125 41.5q81 0 134 -32q-14 -40 -20 -61q-50 29 -110 29
q-44 0 -70 -21t-26 -58q0 -36 24.5 -56.5t81.5 -43.5q73 -28 107 -64.5t34 -94.5z" />
    <glyph glyph-name="Scedilla" unicode="&#x15e;" horiz-adv-x="526" 
d="M288 -16v-5q0 -9 -4 -27q52 -26 52 -72q-3 -32 -27.5 -54t-79.5 -22q-50 0 -78 13l11 58q24 -11 62 -11q34 1 34 26q-1 14 -12.5 21.5t-43.5 20.5q3 12 21 50q-67 3 -118 18t-76 31l28 76q83 -48 186 -48q159 0 159 113q0 31 -10 53.5t-36.5 40.5t-44 26t-60.5 25l-15 6
q-96 37 -142 80t-46 120q0 91 61 140t171 49q55 0 107.5 -14t81.5 -34l-29 -74q-68 45 -161 45q-141 0 -141 -106q0 -16 4.5 -30t9.5 -24t19 -21l21.5 -16.5t30 -16l30.5 -14t36 -14.5l48.5 -20t42.5 -20t39 -24t30.5 -27t24.5 -34t14 -41.5t6 -51.5q0 -86 -54 -134.5
t-152 -56.5z" />
    <glyph glyph-name="scedilla" unicode="&#x15f;" horiz-adv-x="436" 
d="M192 59q121 0 121 71q0 35 -23 52.5t-97 48.5q-38 16 -58 26.5t-44.5 29t-35.5 43t-11 57.5q0 67 50.5 107.5t136.5 40.5q82 0 144 -27l-18 -74q-63 27 -127 27q-43 0 -71.5 -17.5t-28.5 -51.5q0 -18 6 -31t24.5 -25t32.5 -18l50 -21q41 -17 62.5 -28t47 -30.5
t36.5 -45.5t11 -61q0 -62 -41 -99.5t-114 -45.5q0 -17 -5 -35q50 -27 50 -70q0 -32 -25.5 -55t-79.5 -23q-52 0 -78 13l11 58q24 -11 62 -11q34 1 34 26q-2 14 -13.5 21.5t-43.5 20.5q14 35 23 52q-89 2 -145 30l20 77q50 -31 137 -32z" />
    <glyph glyph-name="Scaron" unicode="&#x160;" horiz-adv-x="526" 
d="M134 952l104 -94l104 94l37 -42l-141 -151l-141 151zM450 183q0 -91 -62 -144t-166 -53q-116 0 -185 43l12.5 33.5l12.5 33.5q66 -41 154 -41q70 0 108 32t38 93q0 55 -35 84.5t-114 60.5q-137 55 -158 150q-5 19 -5 49q3 81 59.5 131t151.5 50q102 0 164 -43l-25 -62
q-63 38 -136 38q-61 0 -95 -30t-34 -86q0 -52 34 -79.5t105 -56.5q93 -36 134.5 -84t41.5 -119z" />
    <glyph glyph-name="scaron" unicode="&#x161;" horiz-adv-x="436" 
d="M97 783l104 -94l104 94l37 -42l-141 -151l-141 151zM376 140q0 -67 -52 -109.5t-139 -42.5q-91 0 -148 33l21 65q42 -32 123 -32q51 0 81.5 22t30.5 62q0 38 -24 59t-87 46q-69 28 -101 64t-32 88q0 64 47 105.5t125 41.5q81 0 134 -32q-14 -40 -20 -61q-50 29 -110 29
q-44 0 -70 -21t-26 -58q0 -36 24.5 -56.5t81.5 -43.5q73 -28 107 -64.5t34 -94.5z" />
    <glyph glyph-name="uni0162" unicode="&#x162;" horiz-adv-x="557" 
d="M301 -48q50 -28 50 -70q0 -33 -25.5 -55.5t-80.5 -22.5q-50 0 -78 13l11 58q24 -11 63 -11q33 2 33 24q0 10 -8 18t-16 12t-32 14q16 43 28 64h-12v623h-220v78h529v-78h-220v-623h-14q-1 -10 -8 -44z" />
    <glyph glyph-name="uni0163" unicode="&#x163;" horiz-adv-x="395" 
d="M161 191q0 -77 22.5 -103t79.5 -26t104 27l18 -71q-45 -29 -117 -32q0 -14 -4 -34q49 -28 49 -70q0 -33 -25 -55.5t-80 -22.5q-50 0 -78 13l11 58q18 -8 59 -10q38 0 39 24q-1 17 -23 29l-35 14q2 8 11.5 27.5t12.5 29.5q-79 12 -104.5 67t-25.5 172v452h86v-158h202v-73
h-202v-258z" />
    <glyph glyph-name="Tcaron" unicode="&#x164;" horiz-adv-x="557" 
d="M139 952l104 -94l104 94l37 -42l-141 -151l-141 151zM466 626h-179v-628h-86v628h-179v66h444v-66z" />
    <glyph glyph-name="tcaron" unicode="&#x165;" horiz-adv-x="407" 
d="M229 788h87l-28 -202h-59v202zM380 18q-54 -31 -128 -31q-100 0 -137 54t-37 167h-3v34l3 208v218l87 17v-164h194v-70h-194v-259q0 -77 24 -104t74 -27q54 0 101 26q3 -12 8 -35t8 -34z" />
    <glyph glyph-name="Tbar" unicode="&#x166;" horiz-adv-x="557" 
d="M14 697h529v-78h-220v-233h126v-70h-126v-320h-89v320h-126v70h126v233h-220v78z" />
    <glyph glyph-name="tbar" unicode="&#x167;" horiz-adv-x="395" 
d="M161 686v-164h202v-73h-202v-144h198v-67h-198q0 -35 7 -57q1 -71 24.5 -95t72.5 -24q55 0 102 27l18 -72q-57 -32 -132 -32q-99 0 -138.5 50.5t-39.5 160.5v475z" />
    <glyph glyph-name="Utilde" unicode="&#x168;" horiz-adv-x="684" 
d="M381 757q-29 0 -73.5 19.5t-54.5 19.5q-28 0 -53 -47l-50 27q14 34 40.5 61.5t63.5 27.5q32 0 75.5 -19.5t52.5 -19.5q28 0 53 47l48 -27q-17 -33 -43.5 -61t-58.5 -28zM552 227q0 -107 -61 -174.5t-176 -67.5q-102 0 -162 54.5t-69 142.5q-4 40 -4 93v417h84v-407
q0 -116 35 -172.5t118 -56.5q58 0 98.5 35t49.5 98q5 48 5 96v407h82v-465z" />
    <glyph glyph-name="utilde" unicode="&#x169;" horiz-adv-x="572" 
d="M340 588q-29 0 -73.5 19.5t-54.5 19.5q-28 0 -53 -47l-50 27q14 34 40.5 61.5t63.5 27.5q32 0 75.5 -19.5t52.5 -19.5q28 0 53 47l48 -27q-17 -33 -43.5 -61t-58.5 -28zM468 25q-78 -37 -195 -37q-60 0 -101 17t-62 51t-29 74.5t-8 96.5v304h82v-284q0 -102 24.5 -148
t100.5 -46q72 0 106 18v460h82v-506z" />
    <glyph glyph-name="Umacron" unicode="&#x16a;" horiz-adv-x="684" 
d="M460 789h-281v70h281v-70zM552 227q0 -107 -61 -174.5t-176 -67.5q-102 0 -162 54.5t-69 142.5q-4 40 -4 93v417h84v-407q0 -116 35 -172.5t118 -56.5q58 0 98.5 35t49.5 98q5 48 5 96v407h82v-465z" />
    <glyph glyph-name="umacron" unicode="&#x16b;" horiz-adv-x="572" 
d="M419 620h-281v70h281v-70zM468 25q-78 -37 -195 -37q-60 0 -101 17t-62 51t-29 74.5t-8 96.5v304h82v-284q0 -102 24.5 -148t100.5 -46q72 0 106 18v460h82v-506z" />
    <glyph glyph-name="Ubreve" unicode="&#x16c;" horiz-adv-x="684" 
d="M320 757q-55 0 -93 34.5t-38 98.5v13h59q0 -16 4 -31t21.5 -30t46.5 -15q70 0 73 76h59q0 -72 -36 -109t-96 -37zM552 227q0 -107 -61 -174.5t-176 -67.5q-102 0 -162 54.5t-69 142.5q-4 40 -4 93v417h84v-407q0 -116 35 -172.5t118 -56.5q58 0 98.5 35t49.5 98
q5 48 5 96v407h82v-465z" />
    <glyph glyph-name="ubreve" unicode="&#x16d;" horiz-adv-x="572" 
d="M279 588q-55 0 -93 34.5t-38 98.5v13h59q0 -16 4 -31t21.5 -30t46.5 -15q70 0 73 76h59q0 -72 -36 -109t-96 -37zM468 25q-78 -37 -195 -37q-60 0 -101 17t-62 51t-29 74.5t-8 96.5v304h82v-284q0 -102 24.5 -148t100.5 -46q72 0 106 18v460h82v-506z" />
    <glyph glyph-name="Uring" unicode="&#x16e;" horiz-adv-x="684" 
d="M372 856q0 25 -14.5 39t-36.5 14t-36.5 -14t-14.5 -39t14.5 -39t36.5 -14q23 0 37 14t14 39zM424 856q0 -46 -30 -74.5t-73 -28.5t-73 28.5t-30 74.5t30 74t73 28t73 -28.5t30 -73.5zM552 227q0 -107 -61 -174.5t-176 -67.5q-102 0 -162 54.5t-69 142.5q-4 40 -4 93v417
h84v-407q0 -116 35 -172.5t118 -56.5q58 0 98.5 35t49.5 98q5 48 5 96v407h82v-465z" />
    <glyph glyph-name="uring" unicode="&#x16f;" horiz-adv-x="572" 
d="M330 688q0 25 -14.5 39t-36.5 14t-36.5 -14t-14.5 -39t14.5 -39t36.5 -14q23 0 37 14t14 39zM382 688q0 -46 -30 -74.5t-73 -28.5t-73 28.5t-30 74.5t30 74t73 28t73 -28.5t30 -73.5zM468 25q-78 -37 -195 -37q-60 0 -101 17t-62 51t-29 74.5t-8 96.5v304h82v-284
q0 -102 24.5 -148t100.5 -46q72 0 106 18v460h82v-506z" />
    <glyph glyph-name="Uhungarumlaut" unicode="&#x170;" horiz-adv-x="684" 
d="M380 890l-132 -157l-48 38l123 172zM366 771l123 171l58 -53l-134 -156zM552 227q0 -107 -61 -174.5t-176 -67.5q-102 0 -162 54.5t-69 142.5q-4 40 -4 93v417h84v-407q0 -116 35 -172.5t118 -56.5q58 0 98.5 35t49.5 98q5 48 5 96v407h82v-465z" />
    <glyph glyph-name="uhungarumlaut" unicode="&#x171;" horiz-adv-x="572" 
d="M317 745l-132 -157l-48 38l123 172zM303 626l123 171l58 -53l-134 -156zM468 25q-78 -37 -195 -37q-60 0 -101 17t-62 51t-29 74.5t-8 96.5v304h82v-284q0 -102 24.5 -148t100.5 -46q72 0 106 18v460h82v-506z" />
    <glyph glyph-name="Uogonek" unicode="&#x172;" horiz-adv-x="684" 
d="M350 -18q-10 0 -28 2q-125 4 -183.5 78.5t-58.5 195.5v439h89v-430q0 -104 46 -155t127 -51t127 51t46 155v430h88v-439q0 -177 -113 -242q-43 -24 -76.5 -55t-34.5 -59q0 -29 36 -29h3q22 0 40 7l7 -64q-29 -11 -65 -11q-106 0 -106 77q0 51 56 100z" />
    <glyph glyph-name="uogonek" unicode="&#x173;" horiz-adv-x="572" 
d="M428 -195q-105 0 -105 76q0 20 8 41q16 35 65 73q-68 -9 -110 -9q-114 0 -163 63t-49 179v294h85v-274q0 -103 31 -144.5t106 -41.5q80 0 111 13v447h85v-511q-10 -8 -46 -44q-9 -10 -17 -23.5t-14.5 -26.5l-7.5 -15q0 -29 39 -29q24 2 40 7l7 -63q-32 -12 -65 -12z" />
    <glyph glyph-name="Wcircumflex" unicode="&#x174;" horiz-adv-x="925" 
d="M437 832l-105 -93l-37 42l142 150l140 -150l-36 -42zM836 692q-79 -393 -165 -694h-81l-135 446q-4 13 -8 31.5t-7 30t-5 17.5q-3 -5 -6 -17t-7 -30t-8 -32q-29 -105 -136 -446h-79q-81 272 -165 694h88q47 -253 98 -484l12.5 -55.5t11.5 -49.5q3 2 30 94q64 212 128 454
h70q61 -238 128 -453q26 -88 29 -94q2 4 4 14.5l5.5 27.5t6.5 28q50 218 109 518h82z" />
    <glyph glyph-name="wcircumflex" unicode="&#x175;" horiz-adv-x="776" 
d="M389 664l-105 -93l-37 42l142 150l140 -150l-36 -42zM746 531q-73 -276 -164 -533h-71q-67 200 -109 350q-4 14 -8.5 35.5t-6.5 26.5q-50 -183 -125 -412h-72q-91 257 -164 533h85q31 -141 104 -386q3 -11 6 -24t5 -20t4 -10l15 51q74 244 111 389h69q36 -161 107 -389
q3 -10 8 -28.5t7 -22.5q2 2 4 9.5t5 21.5t6 23q56 171 105 386h79z" />
    <glyph glyph-name="Ycircumflex" unicode="&#x176;" horiz-adv-x="582" 
d="M274 832l-105 -93l-37 42l142 150l140 -150l-36 -42zM528 692q-134 -256 -216 -397v-297h-85v296q-107 187 -216 398h95q91 -195 166 -328q75 135 169 328h87z" />
    <glyph glyph-name="ycircumflex" unicode="&#x177;" horiz-adv-x="490" 
d="M245 664l-105 -93l-37 42l142 150l140 -150l-36 -42zM464 531q-96 -342 -182 -566q-26 -66 -50 -97t-63 -31q-14 0 -26 1.5t-23.5 6l-17 6.5t-17 8.5t-12.5 6.5l16 52q46 -25 61 -25q17 0 31 16.5t21 35.5t14 44q1 5 2 8q-117 275 -193 534h87q42 -167 119 -377
q23 -73 24 -74q2 1 5.5 13t8.5 31.5t8 28.5q40 123 108 378h79z" />
    <glyph glyph-name="Ydieresis" unicode="&#x178;" horiz-adv-x="582" 
d="M418 825q0 -25 -15.5 -40.5t-39.5 -15.5t-39 15.5t-15 40.5t15 40.5t39 15.5t39.5 -15.5t15.5 -40.5zM233 825q0 -25 -15 -40.5t-39 -15.5t-39.5 15.5t-15.5 40.5t15.5 40.5t39.5 15.5t39 -15.5t15 -40.5zM528 692q-134 -256 -216 -397v-297h-85v296q-107 187 -216 398
h95q91 -195 166 -328q75 135 169 328h87z" />
    <glyph glyph-name="Zacute" unicode="&#x179;" horiz-adv-x="567" 
d="M280 770h-49l86 182h108zM463 -2h-434v63q19 41 46.5 93l51 94l60.5 105l56.5 95.5l58.5 97l48 79.5h-305v67h409v-60l-92.5 -158l-129.5 -223t-99 -186h330v-67z" />
    <glyph glyph-name="zacute" unicode="&#x17a;" horiz-adv-x="461" 
d="M251 601h-49l86 182h108zM400 -2h-368v49q30 57 73.5 130.5l107 174l74.5 118.5h-239v61h344v-51l-56 -85q-125 -187 -203 -337h267v-60z" />
    <glyph glyph-name="Zdotaccent" unicode="&#x17b;" horiz-adv-x="567" 
d="M253 763q-25 0 -41 16t-16 42t16 42t41 16q24 0 40 -16t16 -42t-16 -42t-40 -16zM463 -2h-434v63q19 41 46.5 93l51 94l60.5 105l56.5 95.5l58.5 97l48 79.5h-305v67h409v-60l-92.5 -158l-129.5 -223t-99 -186h330v-67z" />
    <glyph glyph-name="zdotaccent" unicode="&#x17c;" horiz-adv-x="461" 
d="M224 594q-25 0 -41 16t-16 42t16 42t41 16q24 0 40 -16t16 -42t-16 -42t-40 -16zM400 -2h-368v49q30 57 73.5 130.5l107 174l74.5 118.5h-239v61h344v-51l-56 -85q-125 -187 -203 -337h267v-60z" />
    <glyph glyph-name="Zcaron" unicode="&#x17d;" horiz-adv-x="567" 
d="M150 952l104 -94l104 94l37 -42l-141 -151l-141 151zM463 -2h-434v63q19 41 46.5 93l51 94l60.5 105l56.5 95.5l58.5 97l48 79.5h-305v67h409v-60l-92.5 -158l-129.5 -223t-99 -186h330v-67z" />
    <glyph glyph-name="zcaron" unicode="&#x17e;" horiz-adv-x="461" 
d="M121 783l104 -94l104 94l37 -42l-141 -151l-141 151zM400 -2h-368v49q30 57 73.5 130.5l107 174l74.5 118.5h-239v61h344v-51l-56 -85q-125 -187 -203 -337h267v-60z" />
    <glyph glyph-name="longs" unicode="&#x17f;" horiz-adv-x="258" 
d="M165 568v-572h-85v574q0 210 199 210q77 0 112 -21l-17 -73q-40 18 -90 18q-64 0 -91.5 -32.5t-27.5 -103.5z" />
    <glyph glyph-name="uni0180" unicode="&#x180;" horiz-adv-x="586" 
d="M165 414v-341q36 -12 110 -12q79 0 126 52t47 145q0 89 -38 143t-120 54q-69 0 -125 -41zM165 781v-96h187v-66h-187v-125q53 37 134 37q112 0 175 -75.5t63 -197.5q0 -126 -71.5 -200t-189.5 -74q-109 0 -196 29v606h-78v66h78v81z" />
    <glyph glyph-name="uni0181" unicode="&#x181;" horiz-adv-x="726" 
d="M360 628q-74 0 -97 -3v-226h82q39 0 65 1.5t55.5 8t46.5 18.5t28.5 34t11.5 53q0 114 -192 114zM396 324h-133v-252q38 -6 98 -6q223 0 223 132q0 70 -47 98t-141 28zM641 520q0 -55 -26 -94t-70 -55q131 -37 131 -174q0 -208 -322 -208q-91 0 -180 20v611
q-82 -6 -82 -89q0 -20 4 -37l-73 -10q-8 26 -8 56q0 36 10.5 62.5t33 44t50 29t68.5 17.5t81 8t96 2q129 0 208 -43t79 -140z" />
    <glyph glyph-name="uni0182" unicode="&#x182;" horiz-adv-x="617" 
d="M172 431h85q156 0 236.5 -52.5t80.5 -166.5q0 -222 -306 -222q-107 0 -184 20v687h428v-77h-340v-189zM248 355h-76v-282q69 -6 99 -6q211 0 211 144q0 83 -58.5 113.5t-175.5 30.5z" />
    <glyph glyph-name="uni0183" unicode="&#x183;" horiz-adv-x="586" 
d="M165 414v-341q36 -12 110 -12q79 0 126 52t47 145q0 89 -38 143t-120 54q-69 0 -125 -41zM165 702v-208q55 38 134 38q112 0 175 -75.5t63 -198.5q0 -126 -71.5 -200t-189.5 -74q-109 0 -196 29v762h398v-73h-313z" />
    <glyph glyph-name="uni0184" unicode="&#x184;" horiz-adv-x="586" 
d="M165 416v-343q36 -12 110 -12q79 0 126 52t47 146q0 89 -38 143.5t-120 54.5q-69 0 -125 -41zM165 781v-285q53 37 134 37q112 0 175 -75.5t63 -198.5q0 -127 -71.5 -201t-189.5 -74q-109 0 -196 29v628l-69 75q77 46 154 65z" />
    <glyph glyph-name="uni0185" unicode="&#x185;" horiz-adv-x="608" 
d="M177 704v-268q53 5 93 5q306 0 306 -225q0 -226 -304 -226q-105 0 -182 20v553l-72 75q76 44 159 66zM273 364q-54 0 -96 -6v-285q48 -6 104 -6q94 1 148.5 33.5t54.5 115.5q0 81 -55.5 114.5t-155.5 33.5z" />
    <glyph glyph-name="uni0186" unicode="&#x186;" horiz-adv-x="610" 
d="M218 61q121 0 182 76t61 210q0 132 -62 208.5t-176 76.5q-103 0 -176 -40l-24 75q26 16 81.5 30.5t126.5 14.5q145 0 234 -96.5t89 -269.5q0 -172 -91.5 -268.5t-240.5 -96.5q-64 0 -117 15t-81 30l26 75q72 -40 168 -40z" />
    <glyph glyph-name="uni0187" unicode="&#x187;" horiz-adv-x="647" 
d="M396 632q-117 0 -182 -77t-65 -208q0 -133 62 -209.5t177 -76.5q107 0 180 40l25 -75q-24 -16 -81 -30.5t-131 -14.5q-145 0 -235 97t-90 269q0 169 95.5 267t233.5 98q73 0 127 -22q28 98 133 98q36 0 66 -12l-17 -66q-25 9 -47 9q-18 0 -30 -5t-20 -17t-12 -21t-9 -26
l-17 -58q-80 40 -163 40z" />
    <glyph glyph-name="uni0188" unicode="&#x188;" horiz-adv-x="498" 
d="M365 529q14 49 43 73t82 24h9q33 0 59 -10l-17 -65q-25 9 -46 9q-17 0 -29.5 -6.5t-20 -15t-13 -24t-7.5 -25.5t-4.5 -28t-3.5 -24q-53 21 -114 21q-80 0 -122.5 -52t-42.5 -148q0 -197 176 -197q60 0 116 27l16 -73q-60 -31 -143 -31q-123 0 -188.5 74t-65.5 200
q0 124 66.5 200.5t180.5 76.5q31 0 69 -6z" />
    <glyph glyph-name="uni0189" unicode="&#x189;" horiz-adv-x="720" 
d="M187 326v-253q48 -6 98 -6q140 0 213 74t73 206q0 131 -73 205t-213 74q-50 0 -98 -6v-222h131v-72h-131zM664 347q0 -174 -105 -266t-282 -92q-100 0 -179 19v318h-80v72h80v286q72 19 179 19q178 0 282.5 -90.5t104.5 -265.5z" />
    <glyph glyph-name="uni018A" unicode="&#x18a;" horiz-adv-x="797" 
d="M358 626h-41q-41 0 -54 -2v-551q48 -6 98 -6q140 0 213.5 74.5t73.5 205.5q0 132 -73.5 205.5t-216.5 73.5zM354 703q177 0 282 -90.5t105 -265.5q0 -174 -105.5 -266t-282.5 -92q-100 0 -179 19v612q-82 -6 -82 -89q0 -20 4 -37l-73 -10q-8 26 -8 56q0 43 17 73
t44.5 47.5t73.5 27t91.5 12.5t112.5 3z" />
    <glyph glyph-name="uni018B" unicode="&#x18b;" horiz-adv-x="617" 
d="M361 431h84v189h-339v77h427v-688q-77 -20 -183 -20q-307 0 -307 223q0 116 80.5 167.5t237.5 51.5zM135 211q0 -81 61 -112.5t164 -31.5q43 0 85 6v282h-39q-55 0 -92 -2.5t-73.5 -11t-58 -23.5t-34.5 -42t-13 -65z" />
    <glyph glyph-name="uni018C" unicode="&#x18c;" horiz-adv-x="586" 
d="M421 73v341q-56 41 -125 41q-82 0 -120 -54t-38 -143q0 -93 47 -145t126 -52q74 0 110 12zM421 494v208h-313v73h398v-762q-87 -29 -196 -29q-118 0 -189.5 74t-71.5 200q0 123 63 198.5t175 75.5q79 0 134 -38z" />
    <glyph glyph-name="uni018D" unicode="&#x18d;" horiz-adv-x="575" 
d="M295 91q62 27 102 78t40 120q0 71 -36 120.5t-114 49.5q-72 0 -110.5 -45.5t-38.5 -126.5q0 -36 10.5 -65.5t24 -47.5t38.5 -36t40 -26t44 -21zM260 -116q95 0 95 53q0 28 -21.5 44t-77.5 42q-8 4 -13 6q-44 22 -73 41.5t-60 49.5t-46 71.5t-15 93.5q0 107 60 178.5
t178 71.5q80 0 136 -37t79.5 -90.5t23.5 -116.5q0 -78 -45 -142t-118 -96q56 -35 70 -75q6 -18 6 -41q0 -68 -53 -97.5t-134 -29.5q-92 0 -153 28l18 70q43 -23 128 -24h15z" />
    <glyph glyph-name="uni018E" unicode="&#x18e;" horiz-adv-x="562" 
d="M478 -4h-444v77h355v253h-293v76h293v218h-329v77h418v-701z" />
    <glyph glyph-name="uni018F" unicode="&#x18f;" horiz-adv-x="699" 
d="M58 370h492q-5 129 -67.5 196t-170.5 67q-116 0 -185 -47l-27 75q82 51 215 51q152 0 240 -95.5t88 -265.5q0 -179 -87.5 -274.5t-223.5 -95.5q-134 0 -206 89t-72 262q0 18 4 38zM549 294h-402q2 -106 49.5 -170.5t137.5 -64.5q99 0 153 70t62 165z" />
    <glyph glyph-name="uni0190" unicode="&#x190;" horiz-adv-x="561" 
d="M142 191q0 -68 47.5 -99.5t128.5 -31.5h17q98 1 174 46l28 -76q-31 -18 -87.5 -33.5t-122.5 -15.5q-130 0 -204 50.5t-74 158.5q0 78 44 123.5t114 62.5q-47 12 -77 41t-42 68q-7 25 -7 53q3 86 67 130t170 44q59 0 111.5 -14.5t85.5 -35.5l-31 -74q-67 46 -165 46
q-59 0 -98 -22t-39 -67q0 -12 4 -25q0 -61 48.5 -88t115.5 -27h70v-76h-57q-105 0 -163 -30t-58 -108z" />
    <glyph glyph-name="uni0191" unicode="&#x191;" horiz-adv-x="528" 
d="M173 320v-217q0 -13 0.5 -41t0.5 -41q0 -39 -2.5 -66.5t-11 -57t-23.5 -47.5t-42 -29.5t-65 -11.5q-32 0 -63 11l12 72q19 -8 43 -8q41 0 51.5 27t10.5 98v32v656h413v-77h-324v-222h288v-78h-288z" />
    <glyph glyph-name="florin" unicode="&#x192;" horiz-adv-x="382" 
d="M165 449v-386q0 -120 -23.5 -176t-94.5 -72q-23 -5 -49 -5h-12q-31 0 -55 11l12 71q21 -8 48 -8q51 0 70 28.5t19 92.5v574q5 201 199 201q77 0 112 -21l-17 -73q-40 18 -90 18q-75 0 -97 -39.5t-22 -142.5h204v-73h-204z" />
    <glyph glyph-name="uni0193" unicode="&#x193;" horiz-adv-x="672" 
d="M389 712q76 0 132 -22q14 51 46 74.5t88 23.5q37 0 67 -12l-17 -66q-25 9 -47 9q-11 0 -20 -2t-16.5 -8t-11.5 -8.5t-9.5 -14.5t-6.5 -14t-6 -18l-5 -15l-18 -45q-66 38 -168 38q-114 0 -181 -74t-67 -211q0 -134 62 -210t181 -76q88 0 120 13v264h89v-321
q-82 -35 -220 -35q-144 0 -234.5 97t-90.5 268q0 170 95.5 267.5t237.5 97.5z" />
    <glyph glyph-name="uni0194" unicode="&#x194;" horiz-adv-x="638" 
d="M367 159l13 -22l18.5 -31l19.5 -33t16 -30t14.5 -33t8 -30t3.5 -33q0 -51 -32 -93t-108 -42t-108.5 42t-32.5 93q0 15 4 32.5t8 30t14.5 33.5l15 29.5t20 33.5t18.5 31l11 18q-126 218 -267 542h99q118 -279 218 -463q90 167 219 463h95q-103 -255 -267 -538zM319 91
q-59 -90 -59 -141q0 -28 14.5 -45.5t44.5 -17.5q29 0 44 18t15 45q0 48 -59 141z" />
    <glyph glyph-name="uni0195" unicode="&#x195;" horiz-adv-x="884" 
d="M485 288v-59q0 -90 28.5 -128.5t91.5 -38.5q62 0 91 39t29 128v293h85v-300q0 -114 -47 -176t-158 -62q-112 0 -159 62t-47 176v46q0 105 -26 146.5t-100 41.5q-28 0 -62 -7.5t-46 -13.5v-439h-85v770l85 15v-270q61 22 118 22q114 0 158 -63t44 -182z" />
    <glyph glyph-name="uni0196" unicode="&#x196;" horiz-adv-x="372" 
d="M83 174v523h88v-525q0 -65 22.5 -88.5t70.5 -23.5q47 0 81 17l18 -73q-43 -23 -111 -23q-87 0 -128 44.5t-41 148.5z" />
    <glyph glyph-name="uni0197" unicode="&#x197;" horiz-adv-x="316" 
d="M202 -4h-89v330h-96v70h96v301h89v-301h97v-70h-97v-330z" />
    <glyph glyph-name="uni0198" unicode="&#x198;" horiz-adv-x="656" 
d="M394 638q32 36 63 54.5t74 18.5q62 0 110 -50l-43 -62q-33 35 -67 35t-78 -44q-80 -81 -196 -219q89 -57 196 -171.5t155 -203.5h-98q-66 96 -159.5 189t-177.5 142v-331h-89v701h89v-312q99 122 175 204z" />
    <glyph glyph-name="uni0199" unicode="&#x199;" horiz-adv-x="507" 
d="M80 -4v616q0 41 5 69t19.5 52t42 35.5t70.5 11.5q34 0 62 -10l-12 -68q-22 6 -40 6t-29.5 -5.5t-18 -14t-10 -27t-4 -34.5t-0.5 -47v-8.5v-8.5v-261q144 141 211 220h103l-232 -239q61 -44 134 -128.5t116 -158.5h-100q-43 72 -108 141t-124 109v-250h-85z" />
    <glyph glyph-name="uni019A" unicode="&#x19a;" horiz-adv-x="272" 
d="M252 58l-12 -72q-75 4 -110.5 33t-38.5 97q-2 56 -2 86v167h-77v67h77v330l85 15v-345h93v-67h-93v-233q0 -43 16.5 -57.5t61.5 -20.5z" />
    <glyph glyph-name="uni019B" unicode="&#x19b;" horiz-adv-x="500" 
d="M163 634q-22 52 -45.5 70t-71.5 18h-10q1 16 10 50q18 8 53 8q59 0 95 -30t62 -84l124 43l23 -65l-120 -41q106 -265 204 -607h-90q-55 218 -134 433q-110 -213 -164 -433h-87q27 106 86 252.5t124 268.5q-10 38 -17 59l-52.5 -18t-58.5 -19l-23 64q41 15 92 31z" />
    <glyph glyph-name="uni019C" unicode="&#x19c;" horiz-adv-x="967" 
d="M494 49q-90 -68 -188 -68q-67 0 -112.5 19.5t-69.5 57.5t-34 85.5t-10 112.5v441h89v-412q0 -124 29 -174.5t114 -50.5q82 0 143 55q-18 54 -18 145v437h89v-423q0 -115 30 -164.5t112 -49.5q78 0 126 16v621h89v-681q-110 -35 -219 -35q-113 0 -170 68z" />
    <glyph glyph-name="uni019D" unicode="&#x19d;" horiz-adv-x="716" 
d="M172 554v-486v-51q0 -41 -2 -66.5t-9.5 -55.5t-22 -46.5t-41.5 -28t-65 -11.5q-34 0 -65 11l12 72q19 -8 43 -8q34 0 48 20.5t14 66.5v726h70q95 -104 210 -262.5t179 -270.5v533h88v-701h-71l-38 61q-71 117 -174 264t-176 233z" />
    <glyph glyph-name="uni019E" unicode="&#x19e;" horiz-adv-x="574" 
d="M80 -4v504q78 33 205 33q116 0 164.5 -63t48.5 -180v-479h-85v459q0 102 -30 144t-107 42q-75 0 -111 -13v-447h-85z" />
    <glyph glyph-name="uni019F" unicode="&#x19f;" horiz-adv-x="776" 
d="M388 632q-101 0 -164 -65t-72 -180h473q-10 115 -73 180t-164 65zM388 61q102 0 166 67.5t71 184.5h-474q7 -117 71 -184.5t166 -67.5zM720 347q0 -174 -94.5 -270t-237.5 -96q-142 0 -237 96.5t-95 269.5t95 269t237 96t237 -96t95 -269z" />
    <glyph glyph-name="Ohorn" unicode="&#x1a0;" horiz-adv-x="776" 
d="M627 347q0 132 -64.5 208.5t-174.5 76.5t-174.5 -76.5t-64.5 -208.5t64.5 -209t174.5 -77t174.5 77t64.5 209zM720 347q0 -174 -94.5 -270t-237.5 -96q-142 0 -237 96.5t-95 269.5t95 269t237 96q118 0 199 -65q46 45 46 116q0 23 -3 41h84q0 -4 1 -11.5t1.5 -13.5
t0.5 -10q0 -111 -75 -173q78 -96 78 -249z" />
    <glyph glyph-name="ohorn" unicode="&#x1a1;" horiz-adv-x="590" 
d="M447 259q0 91 -41.5 145t-112.5 54q-72 0 -113.5 -54t-41.5 -145t41.5 -144.5t113.5 -53.5q71 0 112.5 53.5t41.5 144.5zM536 259q0 -124 -67.5 -199.5t-175.5 -75.5t-176 75.5t-68 199.5t68.5 200t175.5 76q92 0 156 -61q46 47 46 115q0 21 -4 41h82q3 -30 3 -31
q0 -23 -3 -46q-11 -82 -77 -135q40 -65 40 -159z" />
    <glyph glyph-name="uni01A2" unicode="&#x1a2;" horiz-adv-x="1012" 
d="M375 61q104 0 165 77t61 209t-61 208.5t-165 76.5t-165 -76.5t-61 -208.5t61 -209t165 -77zM375 712q110 0 194 -66q77 65 166 65q59 0 98 -17.5t59.5 -53.5t28 -79.5t7.5 -108.5v-456h-89v450q0 102 -23.5 144.5t-88.5 42.5q-50 0 -105 -43q72 -97 72 -243
q0 -173 -91.5 -269.5t-227.5 -96.5t-227.5 96.5t-91.5 269.5q0 172 92 268.5t227 96.5z" />
    <glyph glyph-name="uni01A3" unicode="&#x1a3;" horiz-adv-x="809" 
d="M437 259q0 91 -40.5 145t-108.5 54q-70 0 -110 -54t-40 -145t40 -144.5t110 -53.5q69 0 109 53.5t40 144.5zM526 259q0 -124 -66.5 -199.5t-171.5 -75.5q-106 0 -172.5 75.5t-66.5 199.5t67 200t172 76q80 0 141 -49q60 47 131 47q104 0 139.5 -57.5t35.5 -175.5v-489
h-85v480q0 87 -20 127t-75 40q-44 0 -77 -29q48 -72 48 -170z" />
    <glyph glyph-name="uni01A4" unicode="&#x1a4;" horiz-adv-x="690" 
d="M358 626h-21h-21q-38 0 -53 -2v-287h77q113 0 169.5 31t56.5 115q0 143 -208 143zM353 703q305 0 305 -221q0 -117 -79.5 -170t-231.5 -53h-84v-263h-89v624q-82 -6 -82 -89q0 -20 4 -37l-73 -10q-8 26 -8 56q0 43 17 73t44 47.5t73 27t91.5 12.5t112.5 3z" />
    <glyph glyph-name="uni01A5" unicode="&#x1a5;" horiz-adv-x="586" 
d="M165 436v-334q53 -41 125 -41q82 0 120 53.5t38 142.5q0 94 -47 146.5t-127 52.5q-26 0 -61 -7.5t-48 -12.5zM80 612q0 84 27 125.5t106 41.5q6 0 16 -0.5t15 -0.5q30 -6 35 -8l-12 -68q-22 6 -40 6q-34 0 -48 -20.5t-14 -65.5v-111q57 22 115 22q116 0 186.5 -75
t70.5 -200q0 -123 -63 -198.5t-175 -75.5q-79 0 -134 38v-211h-85v801z" />
    <glyph glyph-name="uni01A6" unicode="&#x1a6;" horiz-adv-x="625" 
d="M270 623q-62 0 -97 -5v-270h42q34 0 51.5 0.5t47 2t44.5 5t37 9.5t33 16t23 24t16.5 34t4.5 45q0 139 -202 139zM84 780h89v-84q53 5 95 5q296 0 296 -218q0 -142 -144 -190q49 -63 117 -173.5t122 -232.5h-96q-93 201 -234 388q-29 -3 -57 -3h-99v-276h-89v784z" />
    <glyph glyph-name="uni01A7" unicode="&#x1a7;" horiz-adv-x="526" 
d="M283 59q103 0 186 48l28 -76q-83 -50 -215 -50q-120 0 -185 49.5t-65 144.5q0 39 11.5 70t26.5 50.5t46.5 39t54.5 30t67 28.5l50 21t39 19.5t34.5 25t18 30t8.5 40.5q0 54 -38 80t-103 26q-93 0 -160 -45l-30 74q30 20 83 34t108 14q110 0 170 -48.5t60 -140.5
q0 -77 -46.5 -120t-142.5 -80q-89 -36 -112 -51q-53 -36 -53 -100q0 -113 159 -113z" />
    <glyph glyph-name="uni01A8" unicode="&#x1a8;" horiz-adv-x="436" 
d="M240 59q84 0 141 32l20 -76q-65 -31 -162 -31q-203 0 -203 148q0 35 11.5 61.5t37.5 45.5t48.5 30.5t63.5 27.5q34 14 49 21t32 18.5t22.5 24.5t5.5 31q0 34 -28.5 51.5t-71.5 17.5q-64 0 -127 -27l-18 74q62 27 147 27q87 0 135 -39.5t48 -108.5q0 -33 -11 -58t-35 -43
t-44.5 -28.5t-58.5 -26.5q-74 -31 -97 -48.5t-23 -52.5q0 -71 118 -71z" />
    <glyph glyph-name="uni01A9" unicode="&#x1a9;" horiz-adv-x="558" 
d="M371 362l-78.5 -92.5l-90 -106.5t-67.5 -90h386v-77h-488v71q18 28 48 66.5l73 90t60 73.5l52 64q-30 39 -80 98.5l-86 104t-54 72.5v61h474v-77h-355q14 -22 48 -63.5l81 -98.5z" />
    <glyph glyph-name="uni01AA" unicode="&#x1aa;" horiz-adv-x="316" 
d="M80 567q23 0 37.5 10t33.5 31v20q0 40 -19.5 60.5t-52.5 20.5t-49 -19.5t-16 -51.5q0 -31 16.5 -51t49.5 -20zM151 -47v575q-36 -33 -83 -33q-58 0 -95.5 39.5t-37.5 102.5q0 66 41 105t104 39q44 0 75 -15t46.5 -35t23.5 -57.5t9.5 -63.5t1.5 -73v-9v-569
q0 -43 16.5 -57.5t61.5 -20.5q-13 -63 -16 -72q-78 4 -112.5 36t-34.5 108z" />
    <glyph glyph-name="uni01AB" unicode="&#x1ab;" horiz-adv-x="395" 
d="M260 62q66 0 111 16q8 -50 8 -103q0 -82 -28 -123.5t-107 -41.5q-35 0 -63 10l12 69q18 -7 42 -7q34 0 48 19t15 61q0 25 -1 31q-32 -4 -62 -4q-97 3 -128.5 59.5t-31.5 188.5v434l86 15v-164h202v-73h-202v-258q0 -75 24 -102t75 -27z" />
    <glyph glyph-name="uni01AC" unicode="&#x1ac;" horiz-adv-x="576" 
d="M253 619h-71q-90 0 -90 -89q0 -20 4 -37l-73 -10q-8 28 -8 56q0 43 14.5 73.5t35.5 46.5t57.5 25t67 11t78.5 2h57h237v-78h-221v-623h-88v623z" />
    <glyph glyph-name="uni01AD" unicode="&#x1ad;" horiz-adv-x="395" 
d="M161 522h204v-73h-204v-258q0 -101 50 -121q20 -8 54 -8q53 1 103 27l18 -71q-57 -33 -133 -33q-99 0 -138.5 51t-39.5 160v374q0 210 200 210q73 0 111 -20l-17 -74q-38 18 -90 18q-74 0 -96 -39.5t-22 -142.5z" />
    <glyph glyph-name="uni01AE" unicode="&#x1ae;" horiz-adv-x="557" 
d="M323 619v-648q0 -46 14 -66.5t49 -20.5q22 0 43 8l11 -72q-31 -11 -63 -11q-83 0 -113 43.5t-30 127.5v639h-220v78h529v-78h-220z" />
    <glyph glyph-name="Uhorn" unicode="&#x1af;" horiz-adv-x="701" 
d="M515 697h67q62 0 62 68q0 19 -3 40h83q3 -18 3 -35q0 -54 -28.5 -94t-95.5 -46v-372q0 -126 -63 -201.5t-198 -75.5t-198.5 75.5t-63.5 201.5v439h89v-419q0 -217 173 -217q81 0 127 51t46 155v430z" />
    <glyph glyph-name="uhorn" unicode="&#x1b0;" horiz-adv-x="590" 
d="M492 456v-441q-101 -29 -206 -29q-114 0 -163 63t-49 179v294h85v-274q0 -103 31 -144.5t106 -41.5q80 0 111 13v447h68q60 2 60 68q0 14 -4 40h81q3 -21 3 -36q0 -53 -29 -92.5t-94 -45.5z" />
    <glyph glyph-name="uni01B1" unicode="&#x1b1;" horiz-adv-x="779" 
d="M390 -19q-140 0 -232.5 90.5t-92.5 252.5q0 96 38 171.5t91 125.5h-145v76h269v-60q-160 -122 -160 -314q0 -122 63.5 -192t168.5 -70t168 70t63 192q0 192 -160 314v60h269v-76h-145q129 -122 129 -297q0 -162 -92.5 -252.5t-231.5 -90.5z" />
    <glyph glyph-name="uni01B2" unicode="&#x1b2;" horiz-adv-x="687" 
d="M620 359q0 -54 -6.5 -102t-25.5 -100.5t-49.5 -89.5t-83.5 -61.5t-122 -24.5q-130 0 -191.5 75t-61.5 198v443h89v-433q0 -101 43.5 -152t115.5 -51q100 0 150.5 69.5t50.5 219.5q0 141 -34.5 207t-109.5 66q-22 0 -40 -5l-7 74q21 7 62 7q220 0 220 -340z" />
    <glyph glyph-name="uni01B3" unicode="&#x1b3;" horiz-adv-x="663" 
d="M292 361l91 170l17 31.5l17.5 33t16 28.5t18.5 27.5l18.5 21t21 18t22.5 9.5q18 6 39 6q69 0 120 -53l-43 -61q-33 37 -68 37q-19 0 -29.5 -7.5t-24.5 -31.5q-105 -174 -165 -293h1q-2 -10 -4.5 -31t-3.5 -32v-238h-89v285q-146 224 -245 416h103q78 -164 187 -336z" />
    <glyph glyph-name="uni01B4" unicode="&#x1b4;" horiz-adv-x="561" 
d="M431 393q-54 -210 -112 -364q-41 -105 -80.5 -154t-105.5 -62q-27 -4 -50 -4q-24 0 -49.5 5.5t-36.5 11.5l16 70q32 -16 67 -16q53 0 84.5 25t56.5 87q-143 267 -208 530h90q48 -211 159 -435q32 98 79 273q25 93 37 115q29 57 103 57q36 0 81 -17l-19 -68q-24 12 -50 12
q-28 0 -40.5 -14.5t-21.5 -51.5z" />
    <glyph glyph-name="uni01B5" unicode="&#x1b5;" horiz-adv-x="567" 
d="M522 697v-74q-57 -63 -174 -224h152v-72h-204q-105 -151 -160 -254h397v-77h-500v62q58 112 164 269h-119v72h169q108 153 170 221h-365v77h470z" />
    <glyph glyph-name="uni01B6" unicode="&#x1b6;" horiz-adv-x="461" 
d="M419 522v-65q-42 -44 -122 -151h115v-66h-167q-67 -93 -111 -172h294v-72h-395v57q45 82 119 187h-89v66h138q70 95 112 144h-265v72h371z" />
    <glyph glyph-name="uni01B7" unicode="&#x1b7;" horiz-adv-x="555" 
d="M509 191q0 -108 -74.5 -159t-203.5 -51q-124 0 -209 50l28 76q80 -48 182 -48q184 0 184 133q0 41 -16.5 69.5t-48 43.5t-68.5 21t-86 6h-17v34l1 22q59 59 200 232h-327v77h440v-54q-55 -80 -208 -249q61 -7 108 -26.5t81 -65t34 -111.5z" />
    <glyph glyph-name="uni01B8" unicode="&#x1b8;" horiz-adv-x="556" 
d="M46 191q0 96 64 145t159 58q-141 154 -208 249v54h440v-77h-325q96 -127 201 -233v-55h-19q-66 0 -112 -11t-77 -43t-31 -86q0 -133 184 -133q99 0 183 49l29 -76q-92 -51 -211 -51q-129 0 -203 51t-74 159z" />
    <glyph glyph-name="uni01B9" unicode="&#x1b9;" horiz-adv-x="467" 
d="M344 220v-61h-33q-186 0 -186 -133q0 -67 42.5 -102.5t126.5 -35.5q92 0 154 31l21 -73q-64 -35 -176 -35q-120 0 -188 55t-68 160q0 95 59 142t150 55q-116 132 -186 248v51h387v-73h-280q78 -119 177 -229z" />
    <glyph glyph-name="uni01BA" unicode="&#x1ba;" horiz-adv-x="461" 
d="M230 280q100 -14 145.5 -48.5t45.5 -103.5q0 -26 -6.5 -48t-15 -37t-27.5 -29t-32.5 -21.5t-42.5 -17t-44 -14t-51 -13.5q-77 -22 -95 -36q-19 -15 -19 -38q0 -30 13 -51l-72 -15q-21 30 -21 70q0 49 33.5 79.5t81 44t95.5 25.5t81.5 36.5t33.5 64.5q0 48 -46.5 69
t-152.5 26v61q93 81 163 165h-276v73h381v-58q-76 -101 -172 -184z" />
    <glyph glyph-name="uni01BB" unicode="&#x1bb;" horiz-adv-x="531" 
d="M452 521q0 -76 -71 -161h88v-70h-154q-59 -55 -83 -79t-52.5 -65.5t-28.5 -73.5h321v-76h-419q-2 10 -2 31q0 75 40.5 135.5t112.5 127.5h-119v70h191q85 83 85 157q0 60 -34 89t-91 29q-88 0 -156 -68l-45 61q27 29 81.5 56.5t119.5 27.5q105 0 160.5 -50t55.5 -141z
" />
    <glyph glyph-name="uni01BC" unicode="&#x1bc;" horiz-adv-x="541" 
d="M66 99q69 -38 167 -38q57 0 96 15q83 28 83 118q0 78 -72.5 117t-238.5 39q19 161 23 270h-97v77h450v-77h-272q-6 -148 -15 -195q163 -10 238.5 -68t75.5 -162q0 -99 -66.5 -156.5t-203.5 -57.5q-56 0 -113.5 14t-75.5 27z" />
    <glyph glyph-name="uni01BD" unicode="&#x1bd;" horiz-adv-x="493" 
d="M452 148q0 -76 -57.5 -120t-171.5 -44q-52 0 -104.5 10t-74.5 22l20 75q63 -30 150 -31q42 0 64 5q87 17 87 84q0 59 -47.5 81.5t-170.5 22.5h-55l10 98q2 19 4.5 51t3.5 48h-80v72h400v-72h-243q-2 -16 -6 -61.5t-6 -66.5q138 0 207.5 -39t69.5 -135z" />
    <glyph glyph-name="uni01BE" unicode="&#x1be;" horiz-adv-x="455" 
d="M204 59q127 0 127 71q0 34 -25.5 53t-99.5 50q-39 16 -57 26t-39.5 30.5t-30 51.5t-8.5 77v253l86 15v-164h202v-72h-202q0 -8 0.5 -22.5t1.5 -22.5q5 -41 33.5 -68t65.5 -42.5l73.5 -32t61.5 -49t25 -81.5q0 -73 -54 -110.5t-154 -37.5q-103 0 -165 31l19 76
q54 -31 140 -32z" />
    <glyph glyph-name="uni01BF" unicode="&#x1bf;" horiz-adv-x="569" 
d="M430 301q0 74 -41 114.5t-114 40.5q-61 0 -110 -20v-408q44 14 73.5 26t69 35t63.5 50t41.5 69t17.5 93zM276 533q117 0 180.5 -62t63.5 -174q0 -75 -28 -134t-82 -99.5t-110.5 -66.5t-134.5 -50v-136h-85v679q88 43 196 43z" />
    <glyph glyph-name="uni01C0" unicode="&#x1c0;" horiz-adv-x="270" 
d="M94 -189v974h79v-974h-79z" />
    <glyph glyph-name="uni01C1" unicode="&#x1c1;" horiz-adv-x="462" 
d="M285 -189v974h80v-974h-80zM94 -189v974h79v-974h-79z" />
    <glyph glyph-name="uni01C2" unicode="&#x1c2;" horiz-adv-x="569" 
d="M243 434v353h82v-353h201v-73h-201v-118h201v-72h-201v-360h-82v360h-200v72h200v118h-200v73h200z" />
    <glyph glyph-name="uni01C3" unicode="&#x1c3;" horiz-adv-x="276" 
d="M164 48q0 -24 -16 -40t-41 -16t-41 16t-16 40t16 41t41 17t41 -16.5t16 -41.5zM150 734l-3 -256q-1 -59 -16 -272h-49q-15 181 -16 272l-3 256q20 10 42 10q27 0 45 -10z" />
    <glyph glyph-name="uni01C4" unicode="&#x1c4;" horiz-adv-x="1267" 
d="M887 931l104 -94l104 94l37 -42l-141 -151l-141 151zM1214 695l-2 -71q-79 -99 -192 -262.5t-182 -288.5h385v-75h-489l2 60q61 121 176 293t197 269h-355v75h460zM174 620v-547q48 -6 97 -6q136 0 207 73t71 207q0 133 -70.5 206t-207.5 73q-49 0 -97 -6zM643 347
q0 -172 -102.5 -264t-277.5 -92q-100 0 -178 20v669q76 21 177 21q176 0 278.5 -91t102.5 -263z" />
    <glyph glyph-name="uni01C5" unicode="&#x1c5;" horiz-adv-x="1165" 
d="M829 774l104 -94l104 94l38 -42l-142 -151l-141 151zM1119 521q-2 -42 -2 -62l-42 -49q-56 -70 -122 -165.5t-111 -176.5h285v-70h-389q2 20 4 60q44 84 125 199t145 194h-259v70h366zM174 620v-547q48 -6 97 -6q136 0 207 73t71 207q0 133 -70.5 206t-207.5 73
q-49 0 -97 -6zM643 347q0 -172 -102.5 -264t-277.5 -92q-100 0 -178 20v669q76 21 177 21q176 0 278.5 -91t102.5 -263z" />
    <glyph glyph-name="uni01C6" unicode="&#x1c6;" horiz-adv-x="1046" 
d="M709 774l104 -94l104 94l38 -42l-142 -151l-141 151zM1000 521l-3 -62q-55 -64 -138.5 -180t-135.5 -211h285v-70h-389q1 10 2 30t2 30q44 83 124 197.5t145 195.5h-258v70h366zM420 72v347q-56 41 -122 41q-83 0 -120.5 -54.5t-37.5 -145.5q0 -96 46.5 -148.5
t125.5 -52.5q69 0 108 13zM507 779v-762q-85 -31 -196 -31q-118 0 -189.5 73t-71.5 200q0 122 63 197.5t174 75.5q79 0 133 -37v271q29 5 87 13z" />
    <glyph glyph-name="uni01C7" unicode="&#x1c7;" horiz-adv-x="1027" 
d="M692 52q80 0 115.5 40.5t35.5 135.5v467h90v-487q0 -235 -216 -239q-61 0 -108 18t-72 38l33 70q59 -43 122 -43zM175 73h311v-75h-401v697h90v-622z" />
    <glyph glyph-name="uni01C8" unicode="&#x1c8;" horiz-adv-x="754" 
d="M690 675q0 -26 -16 -42t-41 -16t-41.5 16t-16.5 42t16 42t41 16t41.5 -16t16.5 -42zM507 -191q-34 0 -61 10l10 63q11 -2 25 -2q9 0 17 1q53 1 72.5 30t19.5 96v514h86v-509q0 -102 -40.5 -151.5t-128.5 -51.5zM175 73h311v-75h-401v697h90v-622z" />
    <glyph glyph-name="uni01C9" unicode="&#x1c9;" horiz-adv-x="508" 
d="M443 675q0 -26 -16 -42t-41 -16t-41.5 16t-16.5 42t16.5 42t41.5 16q24 0 40.5 -16t16.5 -42zM234 -120q64 0 86.5 27.5t22.5 99.5v514h86v-509q0 -102 -40 -151.5t-129 -51.5q-34 0 -61 10l10 63q14 -2 25 -2zM235 38l-26 -49q-65 5 -96.5 34.5t-32.5 94.5q-1 29 -1 90
v558q33 6 86 13v-475q0 -108 7 -175v-5q0 -41 13.5 -58t49.5 -28z" />
    <glyph glyph-name="uni01CA" unicode="&#x1ca;" horiz-adv-x="1208" 
d="M873 52q79 0 114.5 40.5t35.5 135.5v467h90v-487q0 -235 -216 -239q-61 0 -107.5 17.5t-71.5 38.5l33 70q59 -43 122 -43zM624 -2h-44l-30 1q-58 105 -181.5 285.5t-198.5 266.5q0 -43 0.5 -130t0.5 -131v-292h-86v697h71q94 -106 198.5 -250.5t183.5 -278.5v529h86v-697
z" />
    <glyph glyph-name="uni01CB" unicode="&#x1cb;" horiz-adv-x="960" 
d="M895 675q0 -26 -16 -42t-41 -16t-41.5 16t-16.5 42t16.5 42t41.5 16q24 0 40.5 -16t16.5 -42zM712 -191q-34 0 -61 10l10 63q14 -2 25 -2t17 1q53 1 72.5 30t19.5 96v514h86v-509q0 -102 -40 -151.5t-129 -51.5zM624 -2h-44l-30 1q-58 105 -181.5 285.5t-198.5 266.5
q0 -43 0.5 -130t0.5 -131v-292h-86v697h71q94 -106 198.5 -250.5t183.5 -278.5v529h86v-697z" />
    <glyph glyph-name="uni01CC" unicode="&#x1cc;" horiz-adv-x="816" 
d="M752 675q0 -26 -16.5 -42t-41.5 -16t-41 16t-16 42t16 42t41 16t41.5 -16t16.5 -42zM542 -120q64 0 87 27.5t23 99.5v514h86v-509q0 -102 -40.5 -151.5t-128.5 -51.5q-34 0 -61 10l10 63q10 -2 24 -2zM80 -2v502q91 31 206 31q118 0 165.5 -62t47.5 -180v-291h-86v268
q0 107 -29 149.5t-107 42.5q-72 0 -111 -12v-448h-86z" />
    <glyph glyph-name="uni01CD" unicode="&#x1cd;" horiz-adv-x="244" 
d="M18 783l104 -94l104 94l37 -42l-141 -151l-141 151zM165 522v-526h-85v526h85z" />
    <glyph glyph-name="uni01CE" unicode="&#x1ce;" horiz-adv-x="515" 
d="M151 795l104 -94l104 94l37 -42l-141 -151l-141 151zM352 60v210q-42 3 -49 3q-10 0 -36 -2q-67 -9 -105 -35t-38 -85q0 -104 128 -104q59 0 100 13zM431 19q-70 -31 -188 -31q-96 0 -148 41t-52 121q0 84 61.5 127t165.5 52q4 0 11 0.5t10 0.5q19 0 61 -3
q-1 77 -25.5 113.5t-94.5 36.5q-74 0 -130 -28l-15 61q62 32 153 32q89 0 138.5 -45t51.5 -131q0 -9 0.5 -29t0.5 -30v-288z" />
    <glyph glyph-name="uni01CF" unicode="&#x1cf;" horiz-adv-x="258" 
d="M20 952l104 -94l104 94l37 -42l-141 -151l-141 151zM168 -2h-85v694h85v-694z" />
    <glyph glyph-name="uni01D0" unicode="&#x1d0;" horiz-adv-x="244" 
d="M18 783l104 -94l104 94l37 -42l-141 -151l-141 151zM165 522v-526h-85v526h85z" />
    <glyph glyph-name="uni01D1" unicode="&#x1d1;" horiz-adv-x="690" 
d="M241 951l104 -94l104 94l37 -42l-141 -151l-141 151zM546 347q0 128 -51 209.5t-150 81.5t-150 -81.5t-51 -209.5q0 -129 50.5 -210.5t150.5 -81.5t150.5 81.5t50.5 210.5zM634 345q0 -165 -77.5 -262t-211.5 -97t-211.5 97t-77.5 262q0 164 78 262t211 98t211 -98
t78 -262z" />
    <glyph glyph-name="uni01D2" unicode="&#x1d2;" 
d="M172 783l104 -94l104 94l37 -42l-141 -151l-141 151zM417 264q0 94 -35 154.5t-106 60.5q-72 0 -107.5 -60.5t-35.5 -154.5t35.5 -152.5t107.5 -58.5t106.5 58.5t34.5 152.5zM500 264q0 -124 -59.5 -200.5t-164.5 -76.5q-106 0 -166 76.5t-60 200.5q0 125 60 201.5
t165 76.5q106 0 165.5 -76.5t59.5 -201.5z" />
    <glyph glyph-name="uni01D3" unicode="&#x1d3;" horiz-adv-x="684" 
d="M217 952l104 -94l104 94l37 -42l-141 -151l-141 151zM552 227q0 -107 -61 -174.5t-176 -67.5q-102 0 -162 54.5t-69 142.5q-4 40 -4 93v417h84v-407q0 -116 35 -172.5t118 -56.5q58 0 98.5 35t49.5 98q5 48 5 96v407h82v-465z" />
    <glyph glyph-name="uni01D4" unicode="&#x1d4;" horiz-adv-x="572" 
d="M176 783l104 -94l104 94l37 -42l-141 -151l-141 151zM468 25q-78 -37 -195 -37q-60 0 -101 17t-62 51t-29 74.5t-8 96.5v304h82v-284q0 -102 24.5 -148t100.5 -46q72 0 106 18v460h82v-506z" />
    <glyph glyph-name="uni01D5" unicode="&#x1d5;" horiz-adv-x="684" 
d="M442 859q23 0 38 -15.5t15 -39.5t-14.5 -39t-38.5 -15q-23 0 -37.5 15t-14.5 40q0 24 14 38.5t38 15.5zM295 803q0 -24 -15 -38.5t-38 -14.5q-24 0 -38.5 15t-14.5 39q0 26 15 40.5t38 14.5q24 0 38.5 -15t14.5 -41zM206 909v65h272v-65h-272zM339 -17q-134 0 -196 75
t-62 203v434h90v-421q0 -212 169 -212q168 0 168 212v421h89v-441q0 -123 -63 -197t-195 -74z" />
    <glyph glyph-name="uni01D6" unicode="&#x1d6;" horiz-adv-x="572" 
d="M360 693q24 0 39 -15.5t15 -39.5t-15 -39t-38 -15t-38 15t-15 40q1 25 15 39.5t37 14.5zM213 637q0 -24 -14.5 -38.5t-37.5 -14.5t-38 15t-15 39q0 26 14.5 40.5t38.5 14.5q23 0 37.5 -15t14.5 -41zM125 743v65h272v-65h-272zM468 25q-78 -37 -195 -37q-60 0 -101 17
t-62 51t-29 74.5t-8 96.5v304h82v-284q0 -102 24.5 -148t100.5 -46q72 0 106 18v460h82v-506z" />
    <glyph glyph-name="uni01D7" unicode="&#x1d7;" horiz-adv-x="684" 
d="M523 813q0 -26 -15.5 -41.5t-39.5 -15.5t-39 15.5t-15 41.5q0 25 15 40.5t39 15.5t39.5 -15.5t15.5 -40.5zM242 813q0 -26 -15 -41.5t-39 -15.5t-39.5 15.5t-15.5 41.5q0 25 15.5 40.5t39.5 15.5t39 -15.5t15 -40.5zM262 795l119 181l69 -49l-137 -169zM552 227
q0 -107 -61 -174.5t-176 -67.5q-102 0 -162 54.5t-69 142.5q-4 40 -4 93v417h84v-407q0 -116 35 -172.5t118 -56.5q58 0 98.5 35t49.5 98q5 48 5 96v407h82v-465z" />
    <glyph glyph-name="uni01D8" unicode="&#x1d8;" horiz-adv-x="513" 
d="M443 630q0 -26 -15.5 -41.5t-39.5 -15.5t-39 15.5t-15 41.5q0 25 15 40.5t39 15.5t39.5 -15.5t15.5 -40.5zM162 630q0 -26 -15 -41.5t-39 -15.5t-39.5 15.5t-15.5 41.5q0 25 15.5 40.5t39.5 15.5t39 -15.5t15 -40.5zM182 612l119 181l69 -49l-137 -169zM451 25
q-78 -37 -195 -37q-60 0 -101 17t-62 51t-29 74.5t-8 96.5v304h82v-284q0 -102 24.5 -148t100.5 -46q72 0 106 18v460h82v-506z" />
    <glyph glyph-name="uni01D9" unicode="&#x1d9;" horiz-adv-x="570" 
d="M436 803q0 -25 -15.5 -40.5t-39.5 -15.5t-39 15.5t-15 40.5t15 40.5t39 15.5t39.5 -15.5t15.5 -40.5zM233 803q0 -25 -15 -40.5t-39 -15.5t-39.5 15.5t-15.5 40.5t15.5 40.5t39.5 15.5t39 -15.5t15 -40.5zM180 1000l104 -94l104 94l37 -42l-141 -151l-141 151zM522 227
q0 -107 -60.5 -174.5t-175.5 -67.5q-102 0 -162 54.5t-70 142.5q-4 40 -4 93v417h85v-407q0 -116 35 -172.5t118 -56.5q58 0 98.5 35t48.5 98q5 36 5 96v407h82v-465z" />
    <glyph glyph-name="uni01DA" unicode="&#x1da;" horiz-adv-x="577" 
d="M399 674q0 -25 -15.5 -40.5t-39.5 -15.5t-39 15.5t-15 40.5t15 40.5t39 15.5t39.5 -15.5t15.5 -40.5zM196 674q0 -25 -15 -40.5t-39 -15.5t-39.5 15.5t-15.5 40.5t15.5 40.5t39.5 15.5t39 -15.5t15 -40.5zM143 870l104 -93l104 93l37 -42l-141 -150l-141 150zM445 25
q-78 -37 -195 -37q-115 0 -157.5 61t-42.5 178v304h82v-284q0 -102 24.5 -148t101.5 -46q71 0 105 18v460h82v-506z" />
    <glyph glyph-name="uni01DB" unicode="&#x1db;" horiz-adv-x="684" 
d="M466 825q0 -25 -15.5 -40.5t-39.5 -15.5t-39 15.5t-15 40.5t15 40.5t39 15.5t39.5 -15.5t15.5 -40.5zM281 825q0 -25 -15 -40.5t-39 -15.5t-39.5 15.5t-15.5 40.5t15.5 40.5t39.5 15.5t39 -15.5t15 -40.5zM552 227q0 -107 -61 -174.5t-176 -67.5q-102 0 -162 54.5
t-69 142.5q-4 40 -4 93v417h84v-407q0 -116 35 -172.5t118 -56.5q58 0 98.5 35t49.5 98q5 48 5 96v407h82v-465zM344 941h-50l-144 182h108z" />
    <glyph glyph-name="uni01DC" unicode="&#x1dc;" horiz-adv-x="572" 
d="M425 656q0 -25 -15.5 -40.5t-39.5 -15.5t-39 15.5t-15 40.5t15 40.5t39 15.5t39.5 -15.5t15.5 -40.5zM240 656q0 -25 -15 -40.5t-39 -15.5t-39.5 15.5t-15.5 40.5t15.5 40.5t39.5 15.5t39 -15.5t15 -40.5zM468 25q-78 -37 -195 -37q-60 0 -101 17t-62 51t-29 74.5
t-8 96.5v304h82v-284q0 -102 24.5 -148t100.5 -46q72 0 106 18v460h82v-506zM302 772h-48l-146 182h108z" />
    <glyph glyph-name="uni01DD" unicode="&#x1dd;" horiz-adv-x="553" 
d="M411 213h-271q3 -73 36 -113t93 -40t99 44.5t43 108.5zM504 260q0 -131 -69 -203.5t-165 -72.5q-102 0 -159.5 65.5t-57.5 194.5q0 26 2 39h358q-8 141 -117 168q-30 6 -66 6q-70 -1 -127 -28l-14 73q20 12 62.5 22.5t90.5 10.5q133 0 197.5 -74.5t64.5 -200.5z" />
    <glyph glyph-name="uni01DE" unicode="&#x1de;" horiz-adv-x="652" 
d="M461 804q0 -24 -15 -39t-38 -15t-37.5 15t-15.5 40q1 25 15 39.5t37 14.5t38.5 -15.5t15.5 -39.5zM260 803q0 -24 -14.5 -38.5t-37.5 -14.5q-24 0 -38.5 15t-14.5 39q0 26 14.5 40.5t38.5 14.5q23 0 37.5 -15t14.5 -41zM172 909v65h272v-65h-272zM426 260l-90 256
q-7 17 -13 36.5l-10 31.5t-7 18q-4 -7 -12 -33q-18 -54 -56 -159t-53 -150h241zM604 -2h-55l-36 1l-45 133q-11 29 -22 65h-281q-45 -125 -69 -199h-83q154 440 258 694h74l68.5 -173.5l55 -146.5l71 -196z" />
    <glyph glyph-name="uni01DF" unicode="&#x1df;" horiz-adv-x="515" 
d="M396 638q0 -24 -14.5 -39t-37.5 -15t-38 15t-15 40q0 24 14.5 39t37.5 15t38 -15.5t15 -39.5zM196 637q0 -24 -15 -38.5t-38 -14.5t-37.5 15t-14.5 39q0 26 14.5 40.5t37.5 14.5q24 0 38.5 -15t14.5 -41zM108 743v65h271v-65h-271zM352 60v210q-42 3 -49 3q-10 0 -36 -2
q-67 -9 -105 -35t-38 -85q0 -104 128 -104q59 0 100 13zM431 19q-70 -31 -188 -31q-96 0 -148 41t-52 121q0 84 61.5 127t165.5 52q9 1 28 1q30 0 54 -2q-1 77 -25.5 113t-94.5 36q-74 0 -130 -28l-15 61q62 32 153 32q89 0 138.5 -45t51.5 -131q0 -9 0.5 -29t0.5 -30v-288z
" />
    <glyph glyph-name="uni01E0" unicode="&#x1e0;" horiz-adv-x="652" 
d="M361 803q0 -24 -15 -39t-38 -15t-38 15t-15 39q0 25 15 40.5t38 15.5t38 -15.5t15 -40.5zM177 907v66h261v-66h-261zM426 260l-90 256q-7 17 -13 36.5l-10 31.5t-7 18q-4 -7 -12 -33q-18 -54 -56 -159t-53 -150h241zM604 -2h-55l-36 1l-45 133q-11 29 -22 65h-281
q-45 -125 -69 -199h-83q154 440 258 694h74l68.5 -173.5l55 -146.5l71 -196z" />
    <glyph glyph-name="uni01E1" unicode="&#x1e1;" horiz-adv-x="515" 
d="M286 649q0 -25 -15 -40t-38 -15t-37.5 15t-14.5 40t15 40t38 15t37.5 -15t14.5 -40zM103 752v66h260v-66h-260zM352 60v210q-42 3 -49 3q-10 0 -36 -2q-67 -9 -105 -35t-38 -85q0 -104 128 -104q59 0 100 13zM431 19q-70 -31 -188 -31q-96 0 -148 41t-52 121
q0 84 61.5 127t165.5 52q9 1 28 1q30 0 54 -2q-1 77 -25.5 113t-94.5 36q-74 0 -130 -28l-15 61q62 32 153 32q89 0 138.5 -45t51.5 -131q0 -9 0.5 -29t0.5 -30v-288z" />
    <glyph glyph-name="uni01E2" unicode="&#x1e2;" horiz-adv-x="926" 
d="M708 797h-282v70h282v-70zM463 258v351q-114 -159 -174 -260l-55 -91h229zM892 -4h-429v186h-270q-59 -105 -100 -186h-94q186 363 432 701h435v-77h-315v-218h279v-76h-279v-253h341v-77z" />
    <glyph glyph-name="uni01E3" unicode="&#x1e3;" horiz-adv-x="857" 
d="M559 641h-282v70h282v-70zM359 232q-35 14 -93 14q-137 0 -137 -93q0 -94 126 -94q87 0 135 40q-30 51 -31 133zM608 -15q-108 0 -171 57q-75 -57 -184 -57q-97 0 -154 40.5t-57 127.5q0 83 60.5 123.5t161.5 40.5q24 0 54 -5t39 -9q-1 31 -2 44.5t-7 39.5t-17.5 38.5
t-34.5 23t-56 10.5q-74 0 -132 -21l-11 73q54 24 148 24q129 0 169 -93q51 70 132 88q21 4 50 4q98 -2 153 -67.5t55 -191.5q0 -15 -2 -39h-358q9 -175 175 -175q72 0 135 29l14 -73q-20 -11 -66 -21.5t-94 -10.5zM445 306h272q-3 73 -36 113t-93 40q-61 0 -99.5 -44.5
t-43.5 -108.5z" />
    <glyph glyph-name="uni01E4" unicode="&#x1e4;" horiz-adv-x="695" 
d="M512 74v128h-113v69h113v91h89v-91h80v-69h-80v-185q-82 -35 -220 -35q-144 0 -234.5 97t-90.5 268q0 170 95.5 267.5t237.5 97.5q131 0 210 -51l-29 -75q-68 46 -180 46q-107 0 -174 -74.5t-67 -210.5q0 -134 62 -210t181 -76q88 0 120 13z" />
    <glyph glyph-name="uni01E5" unicode="&#x1e5;" horiz-adv-x="589" 
d="M411 131v112h-116v66h116v136q-42 12 -108 12q-77 0 -121 -51.5t-44 -134.5q0 -89 43 -133.5t106 -44.5q79 0 124 38zM400 18q8 11 12 35q-48 -36 -129 -36q-103 0 -168.5 63.5t-65.5 190.5q0 115 68.5 188.5t184.5 73.5q106 0 194 -30v-194h81v-66h-81v-221
q-3 -113 -64 -163.5t-185 -50.5q-89 0 -168 27l17 77q61 -29 153 -29q80 0 115.5 31t35.5 104z" />
    <glyph glyph-name="Gcaron" unicode="&#x1e6;" horiz-adv-x="664" 
d="M249 952l104 -94l104 94l37 -42l-141 -151l-141 151zM556 22q-70 -36 -196 -36q-133 0 -219 94.5t-86 267.5q0 168 89 262.5t221 94.5q114 0 183 -43l-26 -63q-57 36 -149 36h-4q-105 0 -165 -75t-60 -217q0 -136 59.5 -213t162.5 -77q74 0 106 16v225h-68v69h152v-341z
" />
    <glyph glyph-name="gcaron" unicode="&#x1e7;" horiz-adv-x="576" 
d="M191 783l104 -94l104 94l37 -42l-141 -151l-141 151zM391 97v368q-31 14 -95 14q-79 0 -121 -57.5t-42 -155.5t40.5 -149t110.5 -51q65 0 107 31zM471 10q0 -218 -225 -218q-98 0 -165 31q8 29 21 65q55 -28 131 -30q75 0 113 35q46 34 46 109v33q-48 -30 -120 -30
q-99 0 -160.5 67.5t-61.5 192.5q0 124 65 200t182 76q102 0 174 -33v-498z" />
    <glyph glyph-name="uni01E8" unicode="&#x1e8;" horiz-adv-x="611" 
d="M179 943l104 -94l104 94l37 -42l-141 -151l-141 151zM549 -2h-60q-7 0 -19 0.5t-19 0.5q-130 197 -283 343v-344h-85v694h85v-314q174 191 269 314h96q-91 -109 -285 -325q79 -77 162.5 -178.5t138.5 -190.5z" />
    <glyph glyph-name="uni01E9" unicode="&#x1e9;" horiz-adv-x="507" 
d="M239 783l104 -94l104 94l37 -42l-141 -151l-141 151zM477 -2h-94q-124 178 -224 264v-264h-81v782h81v-486q128 142 206 237h93l-222 -247q135 -131 241 -286z" />
    <glyph glyph-name="uni01EA" unicode="&#x1ea;" horiz-adv-x="776" 
d="M379 -18q-139 3 -231 98.5t-92 266.5q0 173 95 269t237 96t237 -96t95 -269q0 -120 -47.5 -204t-128.5 -125q-42 -21 -79.5 -53.5t-38.5 -62.5q0 -29 36 -29h3q22 0 40 7l7 -64q-29 -11 -65 -11q-104 0 -104 72q0 44 49 93q-7 4 -13 12zM627 347q0 132 -64.5 208.5
t-174.5 76.5t-174.5 -76.5t-64.5 -208.5t64.5 -209t174.5 -77t174.5 77t64.5 209z" />
    <glyph glyph-name="uni01EB" unicode="&#x1eb;" 
d="M447 259q0 91 -41.5 145t-112.5 54q-72 0 -113.5 -54t-41.5 -145t41.5 -144.5t113.5 -53.5q71 0 112.5 53.5t41.5 144.5zM328 -195q-105 0 -105 77q0 16 6 33q10 32 52 70q-103 4 -167.5 79t-64.5 195q0 124 68.5 200t175.5 76t175 -76t68 -200q0 -84 -32 -146.5
t-88 -96.5q-30 -19 -48.5 -32t-40 -37t-21.5 -45q1 -29 37 -29h3q22 0 40 7l7 -64q-29 -11 -65 -11z" />
    <glyph glyph-name="uni01EC" unicode="&#x1ec;" horiz-adv-x="776" 
d="M529 797h-281v70h281v-70zM379 -18q-67 2 -125 26t-102.5 68.5t-70 114.5t-25.5 156q0 87 26.5 157.5t72.5 115.5t105.5 68.5t127.5 23.5t128 -23.5t105.5 -68.5t72 -115.5t26.5 -157.5q0 -120 -47.5 -204t-128.5 -125q-42 -21 -79.5 -53.5t-38.5 -62.5q0 -29 36 -29h3
q22 0 40 7l7 -64q-29 -11 -65 -11q-53 0 -78.5 19.5t-25.5 52.5q0 44 49 93q-7 4 -13 12zM627 347q0 132 -64.5 208.5t-174.5 76.5t-174.5 -76.5t-64.5 -208.5t64.5 -209t174.5 -77t174.5 77t64.5 209z" />
    <glyph glyph-name="uni01ED" unicode="&#x1ed;" 
d="M434 641h-282v70h282v-70zM447 259q0 91 -41.5 145t-112.5 54q-72 0 -113.5 -54t-41.5 -145t41.5 -144.5t113.5 -53.5q71 0 112.5 53.5t41.5 144.5zM328 -195q-105 0 -105 77q0 16 6 33q10 32 52 70q-103 4 -167.5 79t-64.5 195q0 124 68.5 200t175.5 76t175 -76t68 -200
q0 -84 -32 -146.5t-88 -96.5q-109 -66 -110 -114q1 -29 37 -29h3q22 0 40 7l7 -64q-29 -11 -65 -11z" />
    <glyph glyph-name="uni01EE" unicode="&#x1ee;" horiz-adv-x="555" 
d="M168 931l104 -94l104 94l37 -42l-141 -151l-141 151zM509 191q0 -108 -74.5 -159t-203.5 -51q-124 0 -209 50l28 76q80 -48 182 -48q184 0 184 133q0 41 -16.5 69.5t-48 43.5t-68.5 21t-86 6h-17v34l1 22q59 59 200 232h-327v77h440v-54q-55 -80 -208 -249
q61 -7 108 -26.5t81 -65t34 -111.5z" />
    <glyph glyph-name="uni01EF" unicode="&#x1ef;" horiz-adv-x="463" 
d="M103 774l104 -94l104 94l38 -42l-142 -151l-141 151zM121 159v37l1 25q98 110 176 228h-280v73h387v-51q-83 -131 -186 -248q91 -8 150 -55t59 -142q0 -105 -68 -160t-188 -55q-110 0 -176 35l21 73q62 -31 154 -31q83 0 126.5 35.5t43.5 102.5q0 133 -187 133h-33z" />
    <glyph glyph-name="uni01F0" unicode="&#x1f0;" horiz-adv-x="244" 
d="M19 774l104 -94l104 94l38 -42l-142 -151l-141 151zM-7 -191q-33 0 -62 12l12 71q21 -8 48 -8q51 0 70 28.5t19 92.5v517h85v-515q0 -102 -40.5 -150t-131.5 -48z" />
    <glyph glyph-name="uni01F1" unicode="&#x1f1;" horiz-adv-x="1267" 
d="M1214 695l-2 -71q-79 -99 -192 -262.5t-182 -288.5h385v-75h-489l2 60q61 121 176 293t197 269h-355v75h460zM174 620v-547q48 -6 97 -6q136 0 207 73t71 207q0 133 -70.5 206t-207.5 73q-49 0 -97 -6zM643 347q0 -172 -102.5 -264t-277.5 -92q-100 0 -178 20v669
q76 21 177 21q176 0 278.5 -91t102.5 -263z" />
    <glyph glyph-name="uni01F2" unicode="&#x1f2;" horiz-adv-x="1165" 
d="M1119 521q-2 -42 -2 -62l-42 -49q-56 -70 -122 -165.5t-111 -176.5h285v-70h-389q2 20 4 60q44 84 125 199t145 194h-259v70h366zM174 620v-547q48 -6 97 -6q136 0 207 73t71 207q0 133 -70.5 206t-207.5 73q-49 0 -97 -6zM643 347q0 -172 -102.5 -264t-277.5 -92
q-100 0 -178 20v669q76 21 177 21q176 0 278.5 -91t102.5 -263z" />
    <glyph glyph-name="uni01F3" unicode="&#x1f3;" horiz-adv-x="1046" 
d="M1000 521l-3 -62q-55 -64 -138.5 -180t-135.5 -211h285v-70h-389q1 10 2 30t2 30q44 83 124 197.5t145 195.5h-258v70h366zM420 72v347q-56 41 -122 41q-83 0 -120.5 -54.5t-37.5 -145.5q0 -96 46.5 -148.5t125.5 -52.5q69 0 108 13zM507 779v-762q-85 -31 -196 -31
q-118 0 -189.5 73t-71.5 200q0 122 63 197.5t174 75.5q79 0 133 -37v271q29 5 87 13z" />
    <glyph glyph-name="uni01F4" unicode="&#x1f4;" horiz-adv-x="664" 
d="M379 770h-49l86 182h108zM556 22q-70 -36 -196 -36q-64 0 -119 23t-96.5 67.5t-65.5 114t-24 157.5q0 85 24.5 153.5t67.5 112.5t98.5 67.5t119.5 23.5q114 0 183 -43l-26 -63q-57 36 -149 36h-4q-104 0 -164.5 -75t-60.5 -217q0 -136 59.5 -213t162.5 -77q74 0 106 16
v225h-68v69h152v-341z" />
    <glyph glyph-name="uni01F5" unicode="&#x1f5;" horiz-adv-x="576" 
d="M321 601h-49l86 182h108zM391 97v368q-31 14 -95 14q-79 0 -121 -57.5t-42 -155.5t40.5 -149t110.5 -51q65 0 107 31zM471 10q0 -218 -225 -218q-98 0 -165 31q8 29 21 65q55 -28 131 -30q75 0 113 35q46 34 46 109v33q-48 -30 -120 -30q-99 0 -160.5 67.5t-61.5 192.5
q0 124 65 200t182 76q102 0 174 -33v-498z" />
    <glyph glyph-name="uni01F6" unicode="&#x1f6;" horiz-adv-x="1049" 
d="M887 258v262h89v-278q0 -123 -51 -191.5t-177 -68.5t-177.5 68.5t-51.5 191.5v81h-346v-327h-89v701h89v-296h346v296h89v-439q0 -104 32.5 -150.5t107.5 -46.5t107 46.5t32 150.5z" />
    <glyph glyph-name="uni01F7" unicode="&#x1f7;" horiz-adv-x="636" 
d="M173 599v-514q60 26 99 45.5t85.5 52.5t73.5 67.5t45.5 86t18.5 112.5q0 176 -192 176q-70 0 -130 -26zM173 -2v-187h-89v843q133 49 218 49q139 0 212.5 -65.5t73.5 -192.5q0 -86 -31 -156t-91 -123t-129 -92t-164 -76z" />
    <glyph glyph-name="uni01F8" unicode="&#x1f8;" horiz-adv-x="716" 
d="M371 747h-49l-145 182h108zM599 -2h-44l-31 1q-114 199 -321 510q-8 12 -19 31t-17.5 29t-8.5 10q0 -15 1 -103t1 -134v-344h-79v694h80q184 -257 324 -490l16 -28.5t14 -24.5t8 -11q0 30 -1 140t-1 163v251h78v-694z" />
    <glyph glyph-name="uni01F9" unicode="&#x1f9;" horiz-adv-x="572" 
d="M287 579h-49l-145 182h108zM475 -2h-81v288q0 40 -1 61.5t-8 50.5t-20 43.5t-38 25t-61 10.5q-66 0 -108 -16v-463h-82v507q74 36 199 36q54 0 92.5 -15t59 -36.5t32 -56.5t14 -63.5t2.5 -69.5v-302z" />
    <glyph glyph-name="Aringacute" unicode="&#x1fa;" horiz-adv-x="652" 
d="M372 1117l59 -61l-177 -145l-44 47zM364 811q0 25 -14.5 39t-36.5 14t-36.5 -14t-14.5 -39t14.5 -39t36.5 -14q23 0 37 14t14 39zM416 811q0 -46 -30 -74.5t-73 -28.5t-73 28.5t-30 74.5t30 74t73 28t73 -28.5t30 -73.5zM429 260l-90 256q-6 16 -12.5 36.5l-10 32
t-7.5 17.5q-5 -8 -14 -38l-55 -156.5l-52 -147.5h241zM607 -2h-91q-59 177 -67 199h-281q-45 -125 -69 -199h-83q167 472 258 694h75q78 -193 258 -694z" />
    <glyph glyph-name="aringacute" unicode="&#x1fb;" horiz-adv-x="515" 
d="M298 988l59 -61l-177 -145l-44 47zM290 682q0 25 -14.5 39t-36.5 14t-36.5 -14t-14.5 -39t14.5 -39t36.5 -14q23 0 37 14t14 39zM342 682q0 -46 -30 -74.5t-73 -28.5t-73 28.5t-30 74.5t30 74t73 28t73 -28.5t30 -73.5zM352 60v210q-42 3 -49 3q-10 0 -36 -2
q-67 -9 -105 -35t-38 -85q0 -104 128 -104q59 0 100 13zM431 19q-70 -31 -188 -31q-96 0 -148 41t-52 121q0 84 61.5 127t165.5 52q9 1 28 1q30 0 54 -2q-1 77 -25.5 113t-94.5 36q-74 0 -130 -28l-15 61q62 32 153 32q89 0 138.5 -45t51.5 -131q0 -9 0.5 -29t0.5 -30v-288z
" />
    <glyph glyph-name="AEacute" unicode="&#x1fc;" horiz-adv-x="926" 
d="M653 939l59 -62l-176 -144l-44 47zM463 258v351q-114 -159 -174 -260l-55 -91h229zM892 -4h-429v186h-270q-59 -105 -100 -186h-94q186 363 432 701h435v-77h-315v-218h279v-76h-279v-253h341v-77z" />
    <glyph glyph-name="aeacute" unicode="&#x1fd;" horiz-adv-x="857" 
d="M508 783l59 -62l-176 -145l-44 47zM359 232q-35 14 -93 14q-137 0 -137 -93q0 -94 126 -94q87 0 135 40q-30 51 -31 133zM608 -15q-108 0 -171 57q-75 -57 -184 -57q-97 0 -154 40.5t-57 127.5q0 83 60.5 123.5t161.5 40.5q24 0 54 -5t39 -9q-1 31 -2 44.5t-7 39.5
t-17.5 38.5t-34.5 23t-56 10.5q-74 0 -132 -21l-11 73q54 24 148 24q129 0 169 -93q51 70 132 88q21 4 50 4q98 -2 153 -67.5t55 -191.5q0 -15 -2 -39h-358q9 -175 175 -175q72 0 135 29l14 -73q-20 -11 -66 -21.5t-94 -10.5zM445 306h272q-3 73 -36 113t-93 40
q-61 0 -99.5 -44.5t-43.5 -108.5z" />
    <glyph glyph-name="Oslashacute" unicode="&#x1fe;" horiz-adv-x="776" 
d="M471 939l59 -62l-177 -144l-44 47zM627 347q0 111 -49 183l-328 -425q56 -44 138 -44q110 0 174.5 77t64.5 209zM149 347q0 -115 51 -186l328 425q-58 46 -140 46q-110 0 -174.5 -76.5t-64.5 -208.5zM720 347q0 -174 -94.5 -270t-237.5 -96q-108 0 -190 57l-61 -79
l-60 44l65 84q-86 95 -86 260q0 173 95 269t237 96q110 0 191 -59l64 82l60 -45l-68 -87q85 -96 85 -256z" />
    <glyph glyph-name="oslashacute" unicode="&#x1ff;" 
d="M376 783l59 -62l-177 -145l-43 47zM448 257q-2 68 -29 110l-214 -277q37 -30 92 -30q70 1 110.5 54.5t40.5 142.5zM293 458q-72 0 -113.5 -53.5t-42.5 -144.5q2 -66 29 -112l216 278q-38 32 -89 32zM536 259q0 -124 -67.5 -199.5t-175.5 -75.5q-80 0 -137 42l-51 -67
l-53 40l55 72q-58 72 -58 188q0 124 68.5 200t175.5 76q80 0 138 -45l51 66l53 -39l-56 -72q57 -74 57 -186z" />
    <glyph glyph-name="uni0200" unicode="&#x200;" horiz-adv-x="652" 
d="M99 892l59 52l124 -170l-49 -37zM266 893l58 51l124 -170l-49 -37zM320 595q-42 -94 -135 -345h270q-92 245 -135 345zM641 -2h-59l-39 1q-38 100 -64 179h-318l-64 -180h-91q178 487 276 697h81l38.5 -85l41 -97l35 -85.5l40.5 -103.5l36.5 -95l43.5 -116.5t43 -114.5z
" />
    <glyph glyph-name="uni0201" unicode="&#x201;" horiz-adv-x="515" 
d="M16 738l58 52l124 -170l-49 -37zM183 739l57 51l124 -170l-49 -37zM352 60v210q-42 3 -49 3q-10 0 -36 -2q-67 -9 -105 -35t-38 -85q0 -104 128 -104q59 0 100 13zM431 19q-70 -31 -188 -31q-96 0 -148 41t-52 121q0 84 61.5 127t165.5 52q9 1 28 1q30 0 54 -2
q-1 77 -25.5 113t-94.5 36q-74 0 -130 -28l-15 61q62 32 153 32q89 0 138.5 -45t51.5 -131q0 -9 0.5 -29t0.5 -30v-288z" />
    <glyph glyph-name="uni0202" unicode="&#x202;" horiz-adv-x="652" 
d="M325 908q60 0 96 -37t36 -109h-59q-3 76 -73 76q-41 0 -56.5 -24.5t-15.5 -51.5h-59v13q0 64 38 98.5t93 34.5zM320 595q-42 -94 -135 -345h270q-92 245 -135 345zM641 -2h-59l-39 1q-38 100 -64 179h-318l-64 -180h-91q178 487 276 697h81l38.5 -85l41 -97l35 -85.5
l40.5 -103.5l36.5 -95l43.5 -116.5t43 -114.5z" />
    <glyph glyph-name="uni0203" unicode="&#x203;" horiz-adv-x="515" 
d="M352 60v210q-42 3 -49 3q-10 0 -36 -2q-67 -9 -105 -35t-38 -85q0 -104 128 -104q59 0 100 13zM431 19q-70 -31 -188 -31q-96 0 -148 41t-52 121q0 84 61.5 127t165.5 52q4 0 11 0.5t10 0.5q19 0 61 -3q-1 77 -25.5 113.5t-94.5 36.5q-74 0 -130 -28l-15 61q62 32 153 32
q89 0 138.5 -45t51.5 -131q0 -9 0.5 -29t0.5 -30v-288zM262 759q60 0 96 -37t36 -109h-59q-1 17 -5 31.5t-21.5 29.5t-46.5 15t-46.5 -15t-21.5 -29.5t-5 -31.5h-59v11q0 64 38 99.5t94 35.5z" />
    <glyph glyph-name="uni0204" unicode="&#x204;" horiz-adv-x="562" 
d="M99 892l59 52l124 -170l-49 -37zM266 893l58 51l124 -170l-49 -37zM461 -2h-380v694h367v-66h-281v-233h251v-66h-251v-263h294v-66z" />
    <glyph glyph-name="uni0205" unicode="&#x205;" horiz-adv-x="553" 
d="M16 738l58 52l124 -170l-49 -37zM183 739l57 51l124 -170l-49 -37zM402 315q-3 163 -129 163q-62 0 -101 -49t-41 -135zM481 262l-348 -25q11 -183 172 -183q73 0 133 30l17 -63q-56 -33 -155 -33q-121 0 -185.5 72t-64.5 205q0 132 64 204.5t160 72.5q89 0 142.5 -53
t62.5 -159q3 -24 3 -49q0 -13 -1 -19z" />
    <glyph glyph-name="uni0206" unicode="&#x206;" horiz-adv-x="562" 
d="M294 908q60 0 95.5 -37t35.5 -109h-59q0 11 -2.5 22.5t-9.5 24.5t-22.5 21t-37.5 8q-70 0 -73 -76h-59v11q0 65 38 100t94 35zM516 -2h-431v697h407v-75h-317v-221h282v-73h-282v-253h341v-75z" />
    <glyph glyph-name="uni0207" unicode="&#x207;" horiz-adv-x="553" 
d="M283 752q60 0 96 -37t36 -109h-60q0 16 -4 31t-21.5 30t-46.5 15q-70 0 -73 -76h-59v11q0 64 38 99.5t94 35.5zM141 303l271 1q-2 75 -35 116.5t-93 41.5q-62 0 -101 -46.5t-42 -112.5zM50 260q0 129 68.5 201t164.5 72q86 0 140 -47t69 -139q6 -36 6 -60v-10v-11
q0 -18 -1 -26l-357 -3q9 -176 175 -176q71 0 133 28l16 -70q-57 -32 -154 -32q-132 0 -196 74t-64 199z" />
    <glyph glyph-name="uni0208" unicode="&#x208;" horiz-adv-x="258" 
d="M-119 892l58 52l124 -170l-49 -37zM48 893l58 51l124 -170l-50 -37zM168 -2h-85v694h85v-694z" />
    <glyph glyph-name="uni0209" unicode="&#x209;" horiz-adv-x="244" 
d="M-103 738l59 52l124 -170l-49 -37zM65 739l57 51l124 -170l-49 -37zM165 522v-526h-85v526h85z" />
    <glyph glyph-name="uni020A" unicode="&#x20a;" horiz-adv-x="258" 
d="M130 915q60 0 96 -37t36 -109h-60q0 16 -4 31t-21.5 30t-46.5 15t-46.5 -15t-21.5 -29.5t-5 -31.5h-59v11q0 65 38 100t94 35zM85 -2v697h90v-697h-90z" />
    <glyph glyph-name="uni020B" unicode="&#x20b;" horiz-adv-x="244" 
d="M123 759q60 0 96 -37t36 -109h-60q0 16 -4 31t-21.5 30t-46.5 15q-70 0 -73 -76h-59v11q0 64 38 99.5t94 35.5zM165 522v-526h-85v526h85z" />
    <glyph glyph-name="uni020C" unicode="&#x20c;" horiz-adv-x="776" 
d="M99 892l59 52l124 -170l-49 -37zM266 893l58 51l124 -170l-49 -37zM545 347q0 128 -51 209.5t-150 81.5t-150 -81.5t-51 -209.5t50.5 -210t150.5 -82q101 0 151 81.5t50 210.5zM633 345q0 -165 -77.5 -262t-211.5 -97q-133 0 -211 97t-78 262q0 164 78 262t211 98
q134 0 211.5 -98t77.5 -262z" />
    <glyph glyph-name="uni020D" unicode="&#x20d;" 
d="M24 738l59 52l124 -170l-49 -37zM191 739l58 51l124 -170l-49 -37zM417 264q0 94 -35 154.5t-106 60.5q-72 0 -107.5 -60.5t-35.5 -154.5t35.5 -152.5t107.5 -58.5t106.5 58.5t34.5 152.5zM500 264q0 -124 -59.5 -200.5t-164.5 -76.5q-106 0 -166 76.5t-60 200.5
q0 125 60 201.5t165 76.5q106 0 165.5 -76.5t59.5 -201.5z" />
    <glyph glyph-name="uni020E" unicode="&#x20e;" horiz-adv-x="776" 
d="M331 901q56 0 94 -35t38 -100v-11h-46q0 11 -4 23t-12.5 26t-26.5 23t-43 9q-47 0 -66 -26.5t-20 -54.5h-46v11q0 65 38 100t94 35zM546 347q0 128 -51 209.5t-150 81.5t-150 -81.5t-51 -209.5q0 -129 50.5 -210.5t150.5 -81.5t150.5 81.5t50.5 210.5zM634 345
q0 -165 -77.5 -262t-211.5 -97t-211.5 97t-77.5 262q0 164 78 262t211 98t211 -98t78 -262z" />
    <glyph glyph-name="uni020F" unicode="&#x20f;" 
d="M276 731q56 0 94 -35t38 -100v-11h-46q0 11 -4 23t-12.5 26t-26.5 23t-43 9q-47 0 -66 -26.5t-20 -54.5h-46v11q0 65 38 100t94 35zM417 264q0 94 -35 154.5t-106 60.5q-72 0 -107.5 -60.5t-35.5 -154.5t35.5 -152.5t107.5 -58.5t106.5 58.5t34.5 152.5zM500 264
q0 -124 -59.5 -200.5t-164.5 -76.5q-106 0 -166 76.5t-60 200.5q0 125 60 201.5t165 76.5q106 0 165.5 -76.5t59.5 -201.5z" />
    <glyph glyph-name="uni0210" unicode="&#x210;" horiz-adv-x="625" 
d="M99 892l59 52l124 -170l-49 -37zM266 893l58 51l124 -170l-49 -37zM434 488q0 147 -170 149q-23 0 -57 -2q-8 -1 -22.5 -4t-18.5 -4v-283q60 -3 74 -3q95 0 144.5 34t49.5 113zM550 -2h-95q-56 91 -167 245l-69 55h-53v-300h-83v674q75 28 173 28q130 0 197 -54t67 -157
q0 -81 -48.5 -130t-132.5 -60v-1q114 -143 211 -300z" />
    <glyph glyph-name="uni0211" unicode="&#x211;" horiz-adv-x="381" 
d="M16 738l58 52l124 -170l-49 -37zM183 739l57 51l124 -170l-49 -37zM76 504q75 35 169 35q47 0 90 -7l-18 -65q-32 7 -63 7h-16h-2q-3 1 -5 1q-48 -1 -73 -16v-461h-82v506z" />
    <glyph glyph-name="uni0212" unicode="&#x212;" horiz-adv-x="625" 
d="M294 908q60 0 95.5 -37t35.5 -109h-59q0 16 -4 31t-21.5 30t-46.5 15q-70 0 -73 -76h-59v11q0 65 38 100t94 35zM275 628q-32 0 -101 -6v-279h83q103 0 157.5 28.5t54.5 111.5q0 145 -194 145zM562 483q0 -139 -144 -187q42 -53 98 -139.5t88 -158.5h-97
q-55 106 -175 272l-59 6h-99v-278h-89v682q78 21 182 21q295 0 295 -218z" />
    <glyph glyph-name="uni0213" unicode="&#x213;" horiz-adv-x="381" 
d="M230 752q55 0 93 -35.5t38 -99.5v-11h-59q0 16 -4 31t-21.5 30t-46.5 15q-70 0 -73 -76h-59v11q0 64 38 99.5t94 35.5zM265 531q69 0 105 -15q-2 -12 -7.5 -35t-8.5 -34q-30 11 -89 11q-1 0 -3 0.5t-4 0.5q-54 0 -92 -14v-447h-86v498q79 35 185 35z" />
    <glyph glyph-name="uni0214" unicode="&#x214;" horiz-adv-x="684" 
d="M99 892l59 52l124 -170l-49 -37zM266 893l58 51l124 -170l-49 -37zM552 227q0 -107 -61 -174.5t-176 -67.5q-102 0 -162 54.5t-69 142.5q-4 40 -4 93v417h84v-407q0 -116 35 -172.5t118 -56.5q58 0 98.5 35t49.5 98q5 48 5 96v407h82v-465z" />
    <glyph glyph-name="uni0215" unicode="&#x215;" horiz-adv-x="572" 
d="M16 738l58 52l124 -170l-49 -37zM183 739l57 51l124 -170l-49 -37zM468 25q-78 -37 -195 -37q-60 0 -101 17t-62 51t-29 74.5t-8 96.5v304h82v-284q0 -102 24.5 -148t100.5 -46q72 0 106 18v460h82v-506z" />
    <glyph glyph-name="uni0216" unicode="&#x216;" horiz-adv-x="684" 
d="M342 908q60 0 96 -37t36 -109h-59q-1 17 -5 31.5t-21.5 29.5t-46.5 15t-46.5 -15t-21.5 -29.5t-5 -31.5h-59v11q0 65 38 100t94 35zM339 -17q-134 0 -196 75t-62 203v434h90v-421q0 -212 169 -212q168 0 168 212v421h89v-441q0 -123 -63 -197t-195 -74z" />
    <glyph glyph-name="uni0217" unicode="&#x217;" horiz-adv-x="572" 
d="M283 752q59 0 95 -37t36 -109h-59q0 16 -4 31t-21.5 30t-46.5 15q-70 0 -73 -76h-59v11q0 64 38 99.5t94 35.5zM493 521v-502q-83 -31 -206 -31q-113 0 -162.5 61t-49.5 176v296h86v-269q0 -104 30 -147t106 -43q74 0 110 12v447h86z" />
    <glyph glyph-name="Scommaaccent" unicode="&#x218;" horiz-adv-x="526" 
d="M307 -72q0 -60 -32.5 -91.5t-88.5 -31.5q-26 2 -34 6v55q41 0 57.5 15.5t16.5 50.5v18h79q2 -16 2 -22zM236 60q157 0 157 113q0 31 -11 54t-34 39.5t-46 27.5t-60 25q-11 4 -16 6q-75 31 -116 64.5t-54 83.5q-7 24 -7 56q3 87 63 133.5t165 46.5q55 0 106.5 -13.5
t79.5 -33.5l-29 -71q-64 43 -156 43q-139 0 -139 -105q0 -23 8.5 -41.5t19 -30.5t35 -25.5t40 -20l51.5 -21.5q40 -17 63.5 -28.5t52 -30.5t43 -38.5t25 -49t10.5 -66.5q0 -93 -66 -143.5t-182 -50.5q-132 0 -208 49l27 74q80 -46 178 -46z" />
    <glyph glyph-name="scommaaccent" unicode="&#x219;" horiz-adv-x="436" 
d="M179 -68v18h79q2 -8 2 -22q1 -9 -1 -22q-5 -49 -37 -75t-82 -26q-28 2 -34 6v55q40 0 56.5 15.5t16.5 50.5zM192 59q116 0 116 72q0 37 -23.5 55t-98.5 49q-35 15 -55.5 26t-43 28.5t-32.5 41.5t-10 55q0 67 49 107t134 40t144 -27q-7 -23 -19 -71q-57 27 -122 27
q-44 0 -72 -17.5t-28 -52.5q0 -40 42 -64q14 -8 74 -35q39 -17 59 -27.5t44.5 -29t35 -43.5t10.5 -59q0 -71 -53.5 -109.5t-148.5 -38.5q-99 0 -158 31l21 73q53 -31 135 -31z" />
    <glyph glyph-name="uni021A" unicode="&#x21a;" horiz-adv-x="557" 
d="M317 -72q0 -60 -32.5 -91.5t-88.5 -31.5q-26 2 -34 6v55q41 0 57.5 15.5t16.5 50.5v18h79q2 -16 2 -22zM17 695h515v-75h-212v-622h-90v622h-213v75z" />
    <glyph glyph-name="uni021B" unicode="&#x21b;" horiz-adv-x="395" 
d="M276 -72q0 -60 -32 -91.5t-88 -31.5q-27 2 -34 6v55q40 0 56.5 15.5t16.5 50.5v18h79q2 -8 2 -22zM380 18q-19 -11 -54.5 -21t-73.5 -10q-100 0 -137 54t-37 167h-3v34l3 208v218l87 17v-164h194v-70h-194v-259q0 -77 24 -104t74 -27q54 0 101 26q3 -12 8 -35t8 -34z" />
    <glyph glyph-name="uni021C" unicode="&#x21c;" horiz-adv-x="530" 
d="M210 712q109 0 174.5 -54.5t65.5 -159.5q0 -18 -4 -44q-12 -49 -47.5 -89t-88.5 -59q80 -22 125 -79t45 -135q0 -61 -21.5 -110t-58 -80.5t-86.5 -52.5t-103.5 -29.5t-112.5 -8.5q-57 0 -74 3l5 78q19 -3 62 -3q41 0 79 5t76 18.5t66 34t46 53.5t20 76q4 20 4 36.5
t-4 32.5q-21 61 -83 88t-128 27h-45v76h36q83 0 141.5 40t58.5 119q0 67 -38.5 103.5t-109.5 36.5q-93 0 -166 -48l-31 75q80 50 197 50z" />
    <glyph glyph-name="uni021D" unicode="&#x21d;" horiz-adv-x="425" 
d="M157 460q-71 0 -127 -27l-21 71q60 31 151 31q92 0 147 -44t55 -138q0 -49 -31 -88.5t-77 -56.5q133 -33 133 -161q0 -65 -34.5 -113.5t-92 -74t-119 -37t-128.5 -11.5l-4 73q290 12 290 163q0 116 -171 116h-23v73q32 0 60 5t54.5 17.5t41.5 37t15 59.5q0 105 -119 105z
" />
    <glyph glyph-name="uni021E" unicode="&#x21e;" horiz-adv-x="698" 
d="M245 931l104 -94l104 94l37 -42l-141 -151l-141 151zM518 399v296h90v-697h-90v326h-343v-326h-90v697h90v-296h343z" />
    <glyph glyph-name="uni021F" unicode="&#x21f;" horiz-adv-x="572" 
d="M301 919l-128 -104l-129 104l29 45l100 -67l99 67zM166 -2h-86v768q33 6 86 13v-271q60 23 120 23h5q61 0 102.5 -17t64 -51t32 -75.5t9.5 -98.5v-291h-86v268q0 107 -29 149.5t-109 42.5q-27 0 -61.5 -7.5t-47.5 -12.5v-440z" />
    <glyph glyph-name="uni0220" unicode="&#x220;" horiz-adv-x="670" 
d="M588 434v-623h-88v604q0 113 -41 165.5t-136 52.5q-87 0 -150 -19v-618h-89v676q37 16 106 27.5t144 11.5q254 0 254 -277z" />
    <glyph glyph-name="uni0221" unicode="&#x221;" horiz-adv-x="717" 
d="M421 80v336q-56 41 -125 41q-82 0 -120 -54.5t-38 -143.5q0 -93 47 -144.5t126 -51.5q62 0 110 17zM304 -12q-116 0 -185.5 73t-69.5 197t63.5 199.5t175.5 75.5q76 0 133 -37v270l85 15v-708q37 34 87 34q62 0 99.5 -41.5t37.5 -105.5q0 -70 -40.5 -109.5t-107.5 -39.5
q-113 0 -145 98l-74 -87l-46 42l92 109q0 6 0.5 11t1.5 10.5t1 9.5q-47 -16 -108 -16zM581 35q-24 0 -40.5 -10.5t-34.5 -32.5v-23q0 -42 20.5 -64t55.5 -22q34 0 51.5 21.5t17.5 54.5q0 32 -18 54t-52 22z" />
    <glyph glyph-name="uni0222" unicode="&#x222;" horiz-adv-x="662" 
d="M331 -10q-142 0 -213 55.5t-71 155.5q0 71 42 117t99 63q-95 38 -95 163q0 75 20 153h85q-18 -86 -18 -146q0 -69 36.5 -103t114.5 -34q79 0 115 34t36 103q0 60 -18 146h85q20 -78 20 -153q0 -125 -95 -163q57 -16 99 -62t42 -118q0 -100 -71 -155.5t-213 -55.5zM331 67
q88 0 140 33.5t52 101.5q0 69 -51.5 103t-140.5 34t-140.5 -34t-51.5 -103q0 -68 52 -101.5t140 -33.5z" />
    <glyph glyph-name="uni0223" unicode="&#x223;" horiz-adv-x="589" 
d="M295 484q62 0 92.5 36t30.5 115q0 68 -15 145h83q17 -78 17 -159q0 -129 -85 -173q52 -26 86 -81t34 -134q0 -114 -65 -181.5t-178 -67.5t-178.5 68t-65.5 181q0 79 34 134t86 81q-85 44 -85 173q0 74 17 159h83q-15 -86 -15 -145q0 -79 31 -115t93 -36zM295 60
q72 0 113 46.5t41 127.5q0 82 -41 128.5t-113 46.5t-113.5 -46.5t-41.5 -128.5q0 -81 41.5 -127.5t113.5 -46.5z" />
    <glyph glyph-name="uni0224" unicode="&#x224;" horiz-adv-x="567" 
d="M533 0q0 -51 -5 -83t-20 -58t-43 -37.5t-72 -11.5q-33 0 -64 10l11 67q18 -6 40 -6q40 0 52.5 25t13.5 90h-413v62q63 122 181.5 295t202.5 267h-365v77h470v-72l-28 -36q-80 -96 -185.5 -246.5t-172.5 -269.5h397v-73z" />
    <glyph glyph-name="uni0225" unicode="&#x225;" horiz-adv-x="461" 
d="M349 -4h-316v58q46 86 131 204t147 191h-263v73h371v-65q-49 -52 -137.5 -171.5t-145.5 -216.5h292v-75q0 -46 -4 -75.5t-16.5 -55.5t-38 -38.5t-65.5 -13.5q-9 -1 -17 -1q-30 0 -56 10l13 66q18 -6 41 -6q40 0 52 25.5t12 90.5z" />
    <glyph glyph-name="uni0226" unicode="&#x226;" horiz-adv-x="652" 
d="M303 763q-25 0 -41 16t-16 42t16 42t41 16q24 0 40 -16t16 -42t-16 -42t-40 -16zM429 260l-90 256q-6 16 -12.5 36.5l-10 32t-7.5 17.5q-5 -8 -14 -38l-55 -156.5l-52 -147.5h241zM607 -2h-91q-59 177 -67 199h-281q-45 -125 -69 -199h-83q167 472 258 694h75
q78 -193 258 -694z" />
    <glyph glyph-name="uni0227" unicode="&#x227;" horiz-adv-x="515" 
d="M254 607q-25 0 -41 16t-16 42t16 42t41 16q24 0 40 -16t16 -42t-16 -42t-40 -16zM352 60v210q-28 3 -49 3q-18 0 -36 -2q-67 -9 -105 -35t-38 -85q0 -104 128 -104q59 0 100 13zM431 19q-70 -31 -188 -31q-96 0 -148 41t-52 121q0 84 61.5 127t165.5 52q9 1 21 1
q13 0 61 -3q-1 77 -25.5 113.5t-94.5 36.5q-74 0 -130 -28l-15 61q62 32 153 32q89 0 138.5 -45t51.5 -131q0 -9 0.5 -29t0.5 -30v-288z" />
    <glyph glyph-name="uni0228" unicode="&#x228;" horiz-adv-x="562" 
d="M336 -48q51 -27 51 -70q0 -32 -26 -55t-80 -23q-52 0 -78 13l11 58q24 -11 62 -11q34 1 34 26q-2 14 -13.5 21.5t-43.5 20.5q13 36 28 64h-197v701h418v-77h-329v-218h293v-76h-293v-253h355v-77h-183q-4 -25 -9 -44z" />
    <glyph glyph-name="uni0229" unicode="&#x229;" horiz-adv-x="553" 
d="M142 306h271q-3 73 -36 113t-93 40t-99 -44.5t-43 -108.5zM140 236q5 -87 49 -130.5t132 -43.5q70 1 129 28l14 -73q-51 -29 -139 -32q0 -19 -5 -33q52 -27 52 -70q0 -32 -26 -55t-81 -23q-50 0 -78 13l11 58q24 -11 62 -11q34 1 34 26q-1 14 -12.5 21.5t-43.5 20.5
q9 29 24 56q-108 14 -160.5 85.5t-52.5 185.5q0 131 69 203.5t165 72.5q102 0 159.5 -65.5t57.5 -194.5q0 -7 -1 -20t-1 -19h-358z" />
    <glyph glyph-name="uni022A" unicode="&#x22a;" horiz-adv-x="776" 
d="M496 804q0 -24 -15 -39t-38 -15t-37.5 15t-15.5 40q1 25 15.5 39.5t37.5 14.5q22 0 37.5 -15.5t15.5 -39.5zM296 803q-1 -24 -15.5 -38.5t-37.5 -14.5t-38 15t-15 39q0 26 15 40.5t38 14.5t37.5 -15t15.5 -41zM207 909v65h272v-65h-272zM545 347q0 128 -51 209.5
t-150 81.5t-150 -81.5t-51 -209.5t50.5 -210t150.5 -82q101 0 151 81.5t50 210.5zM633 345q0 -165 -77.5 -262t-211.5 -97q-133 0 -211 97t-78 262q0 164 78 262t211 98q134 0 211.5 -98t77.5 -262z" />
    <glyph glyph-name="uni022B" unicode="&#x22b;" 
d="M426 638q0 -24 -14.5 -39t-37.5 -15q-24 0 -38.5 15t-14.5 40q0 24 14.5 39t37.5 15q22 0 37.5 -15.5t15.5 -39.5zM226 637q0 -24 -15 -38.5t-38 -14.5t-37.5 15t-14.5 39q0 26 14.5 40.5t37.5 14.5q24 0 38.5 -15t14.5 -41zM137 743v65h272v-65h-272zM417 264
q0 94 -35 154.5t-106 60.5q-72 0 -107.5 -60.5t-35.5 -154.5t35.5 -152.5t107.5 -58.5t106.5 58.5t34.5 152.5zM500 264q0 -124 -59.5 -200.5t-164.5 -76.5q-106 0 -166 76.5t-60 200.5q0 125 60 201.5t165 76.5q106 0 165.5 -76.5t59.5 -201.5z" />
    <glyph glyph-name="uni022C" unicode="&#x22c;" horiz-adv-x="776" 
d="M513 912h-320v80h320v-80zM257 864q36 0 84 -17.5t92 -17.5q57 2 103 42l17 -33q-35 -90 -119 -90q-26 0 -73 20t-66 20q-15 0 -47 -8.5t-48 -26.5l-42 50q20 21 30 30t29 19t40 12zM545 347q0 128 -51 209.5t-150 81.5t-150 -81.5t-51 -209.5t50.5 -210t150.5 -82
q101 0 151 81.5t50 210.5zM633 345q0 -165 -77.5 -262t-211.5 -97q-133 0 -211 97t-78 262q0 164 78 262t211 98q134 0 211.5 -98t77.5 -262z" />
    <glyph glyph-name="uni022D" unicode="&#x22d;" 
d="M126 756v65h272v-65h-272zM335 599q-29 0 -73.5 19t-54.5 19q-28 0 -53 -47l-49 27q14 35 40 62t64 27q32 0 75 -19t52 -19q18 0 29.5 11.5t24.5 34.5l47 -27q-17 -33 -43.5 -60.5t-58.5 -27.5zM417 264q0 94 -35 154.5t-106 60.5q-72 0 -107.5 -60.5t-35.5 -154.5
t35.5 -152.5t107.5 -58.5t106.5 58.5t34.5 152.5zM500 264q0 -124 -59.5 -200.5t-164.5 -76.5q-106 0 -166 76.5t-60 200.5q0 125 60 201.5t165 76.5q106 0 165.5 -76.5t59.5 -201.5z" />
    <glyph glyph-name="uni022E" unicode="&#x22e;" horiz-adv-x="776" 
d="M345 790q-25 0 -41 16t-16 42t16 42t41 16q24 0 40 -16t16 -42t-16 -42t-40 -16zM546 347q0 128 -51 209.5t-150 81.5t-150 -81.5t-51 -209.5q0 -129 50.5 -210.5t150.5 -81.5t150.5 81.5t50.5 210.5zM634 345q0 -165 -77.5 -262t-211.5 -97t-211.5 97t-77.5 262
q0 164 78 262t211 98t211 -98t78 -262z" />
    <glyph glyph-name="uni022F" unicode="&#x22f;" 
d="M293 622q-25 0 -41 16t-16 42t16 42t41 16q24 0 40 -16t16 -42t-16 -42t-40 -16zM417 264q0 94 -35 154.5t-106 60.5q-72 0 -107.5 -60.5t-35.5 -154.5t35.5 -152.5t107.5 -58.5t106.5 58.5t34.5 152.5zM500 264q0 -124 -59.5 -200.5t-164.5 -76.5q-106 0 -166 76.5
t-60 200.5q0 125 60 201.5t165 76.5q106 0 165.5 -76.5t59.5 -201.5z" />
    <glyph glyph-name="uni0230" unicode="&#x230;" horiz-adv-x="776" 
d="M398 803q0 -24 -15 -39t-38 -15t-38 15t-15 39q0 25 15 40.5t38 15.5t38 -15.5t15 -40.5zM214 907v66h261v-66h-261zM545 347q0 128 -51 209.5t-150 81.5t-150 -81.5t-51 -209.5t50.5 -210t150.5 -82q101 0 151 81.5t50 210.5zM633 345q0 -165 -77.5 -262t-211.5 -97
q-133 0 -211 97t-78 262q0 164 78 262t211 98q134 0 211.5 -98t77.5 -262z" />
    <glyph glyph-name="uni0231" unicode="&#x231;" 
d="M327 649q0 -25 -14.5 -40t-37.5 -15t-38 15t-15 40t15 40t38 15t37.5 -15t14.5 -40zM144 752v66h261v-66h-261zM417 264q0 94 -35 154.5t-106 60.5q-72 0 -107.5 -60.5t-35.5 -154.5t35.5 -152.5t107.5 -58.5t106.5 58.5t34.5 152.5zM500 264q0 -124 -59.5 -200.5
t-164.5 -76.5q-106 0 -166 76.5t-60 200.5q0 125 60 201.5t165 76.5q106 0 165.5 -76.5t59.5 -201.5z" />
    <glyph glyph-name="uni0232" unicode="&#x232;" horiz-adv-x="582" 
d="M412 789h-281v70h281v-70zM528 692q-134 -256 -216 -397v-297h-85v296q-107 187 -216 398h95q91 -195 166 -328q75 135 169 328h87z" />
    <glyph glyph-name="uni0233" unicode="&#x233;" horiz-adv-x="490" 
d="M385 641h-281v70h281v-70zM464 531q-96 -342 -182 -566q-26 -66 -50 -97t-63 -31q-14 0 -26 1.5t-23.5 6l-17 6.5t-17 8.5t-12.5 6.5l16 52q46 -25 61 -25q17 0 31 16.5t21 35.5t14 44q1 5 2 8q-117 275 -193 534h87q42 -167 119 -377q23 -73 24 -74q2 1 5.5 13t8.5 31.5
t8 28.5q40 123 108 378h79z" />
    <glyph glyph-name="uni0234" unicode="&#x234;" horiz-adv-x="378" 
d="M97 -91l-73 -87l-46 42l106 125q-1 16 -1 41v736l85 15v-708q35 34 87 34q61 0 99 -41.5t38 -105.5q0 -70 -41 -109.5t-108 -39.5q-113 0 -146 98zM242 35q-24 0 -39.5 -10.5t-34.5 -32.5v-23q0 -42 20 -64t55 -22q34 0 52 21.5t18 54.5q0 32 -18.5 54t-52.5 22z" />
    <glyph glyph-name="uni0235" unicode="&#x235;" horiz-adv-x="708" 
d="M720 -41q0 -70 -40 -109t-107 -39q-113 0 -146 98l-73 -87l-46 42l106 125q-1 14 -1 35v246q0 103 -30 144.5t-107 41.5q-75 0 -111 -13v-447h-85v507q105 30 205 30q116 0 164.5 -63t48.5 -180v-217q35 34 87 34q61 0 98 -40.5t37 -107.5zM572 35q-24 0 -39.5 -10.5
t-34.5 -32.5v-23q0 -42 20 -64t55 -22q34 0 52 21.5t18 54.5q0 32 -18.5 54t-52.5 22z" />
    <glyph glyph-name="uni0236" unicode="&#x236;" horiz-adv-x="405" 
d="M242 35q-24 0 -39.5 -10.5t-34.5 -32.5v-23q0 -42 20 -64t55 -22t52.5 21t17.5 55q0 32 -18.5 54t-52.5 22zM168 449v-376q35 34 87 34q61 0 99 -41.5t38 -105.5q0 -70 -41 -109.5t-108 -39.5q-113 0 -146 98l-73 -87l-46 42l106 125q-1 15 -1 37v645l85 15v-164h202v-73
h-202z" />
    <glyph glyph-name="uni0237" unicode="&#x237;" horiz-adv-x="244" 
d="M-7 -191q-33 0 -62 12l12 71q21 -8 48 -8q51 0 70 28.5t19 92.5v517h85v-515q0 -102 -40.5 -150t-131.5 -48z" />
    <glyph glyph-name="uni0238" unicode="&#x238;" horiz-adv-x="928" 
d="M421 73v343q-56 41 -125 41q-82 0 -120 -54.5t-38 -143.5q0 -94 47 -146t126 -52q74 0 110 12zM506 781v-285q56 37 135 37q111 0 174 -75.5t63 -198.5q0 -127 -71 -201t-190 -74q-84 0 -154 24q-70 -24 -153 -24q-118 0 -189.5 74t-71.5 200q0 124 63.5 199.5
t175.5 75.5q76 0 133 -37v270zM506 416v-343q38 -12 110 -12q80 0 126.5 52t46.5 146q0 90 -37.5 144t-120.5 54q-66 0 -125 -41z" />
    <glyph glyph-name="uni0239" unicode="&#x239;" horiz-adv-x="928" 
d="M421 102v342q-36 12 -110 12q-79 0 -126 -52t-47 -147q0 -89 38 -142.5t120 -53.5q72 0 125 41zM506 22v-211h-85v211q-55 -38 -134 -38q-112 0 -175 75.5t-63 198.5q0 126 71.5 200.5t189.5 74.5q80 0 153 -25q73 25 154 25q119 0 190 -74t71 -201q0 -123 -63 -198.5
t-174 -75.5q-78 0 -135 38zM506 444v-342q55 -41 125 -41q83 0 120.5 53.5t37.5 142.5q0 95 -46.5 147t-126.5 52q-72 0 -110 -12z" />
    <glyph glyph-name="uni023A" unicode="&#x23a;" horiz-adv-x="667" 
d="M370 248h103l-26 69l-27 70zM187 248h104l88 240l-49 115q-73 -165 -143 -355zM483 775l69 -22l-91 -251l47.5 -115l44 -114.5l51 -136l52.5 -138.5h-93l-66 181h-154l-100 -281l-71 23l93 258h-102l-20.5 -55.5l-23.5 -66.5l-21 -59h-88q177 479 283 699h76l47 -103z
" />
    <glyph glyph-name="uni023B" unicode="&#x23b;" horiz-adv-x="632" 
d="M399 631q-121 0 -185.5 -76t-64.5 -208q0 -158 85 -233l210 513q-26 4 -45 4zM393 63q106 0 175 38l25 -75q-24 -16 -81 -30.5t-131 -14.5q-59 0 -114 21l-43 -107l-67 25l45 111q-69 45 -107.5 125t-38.5 191q0 86 26.5 156t72.5 115t105 69.5t125 24.5q53 0 88 -9
l33 79l68 -24l-30 -74l36 -16q11 -4 27 -12l-29 -78q-32 19 -64 31l-216 -529q44 -17 95 -17z" />
    <glyph glyph-name="uni023C" unicode="&#x23c;" horiz-adv-x="479" 
d="M304 464q-87 0 -131 -54t-44 -158q0 -109 58 -158l119 370h-2zM303 -16q-36 0 -80 11l-27 -85l-64 19l29 91q-112 68 -112 238q0 124 66.5 200.5t180.5 76.5q10 0 30 -2l27 85l64 -19l-24 -78q43 -13 57 -20l-21 -72q-31 15 -60 22l-121 -380q32 -9 72 -9q60 1 110 26
l16 -73q-60 -31 -143 -31z" />
    <glyph glyph-name="uni023D" unicode="&#x23d;" horiz-adv-x="524" 
d="M187 74h323v-78h-412v331h-80v71h80v299h89v-299h159v-71h-159v-253z" />
    <glyph glyph-name="uni023E" unicode="&#x23e;" horiz-adv-x="522" 
d="M102 -51l101 316v361h-179v66h353l21 60l65 -9v-45l32 -6l-3 -48l-56 -13l-112 -312l-8 -266l-81 -75l-29 98l-54 -140zM288 448l64 178h-64v-178z" />
    <glyph glyph-name="uni023F" unicode="&#x23f;" horiz-adv-x="436" 
d="M400 132q0 -69 -52 -103.5t-144 -34.5q-22 0 -41 3q1 -1 55 -61q25 -28 49 -40.5t64 -12.5q18 0 41 4l9 -68q-24 -8 -57 -8q-62 0 -94.5 18t-81.5 69q-17 19 -42.5 52t-40.5 47.5t-36 25.5l27 67q60 -30 139 -30q118 0 118 70q0 35 -22.5 52t-96.5 48q-39 16 -59 26
t-44.5 28.5t-35.5 43.5t-11 58q0 67 50 107t137 40q84 0 144 -26l-18 -74q-53 25 -122 25h-11q-41 0 -67.5 -17t-26.5 -50q0 -18 6 -31t24.5 -25t32.5 -18l50 -21q42 -17 63 -27.5t47 -30t36.5 -45t10.5 -61.5z" />
    <glyph glyph-name="uni0240" unicode="&#x240;" horiz-adv-x="460" 
d="M458 -110l10 -70q-26 -7 -54 -7q-35 0 -61 8q-29 8 -56 29.5t-48.5 45.5t-46.5 47t-60.5 38t-78.5 15h-30v58q46 86 131 204t147 191h-263v73h371v-63q-53 -60 -142 -178.5t-147 -217.5q78 -13 155 -92l19.5 -20l20.5 -21t19 -16.5t22.5 -15t23 -8.5t27.5 -4q26 0 41 4z
" />
    <glyph glyph-name="uni0241" unicode="&#x241;" horiz-adv-x="478" 
d="M218 197v-201h-89v206q0 45 7.5 75.5t29.5 55.5t41.5 39t63.5 41q46 28 65.5 52t19.5 65q0 52 -40.5 78t-104.5 26q-90 0 -166 -48l-30 74q26 18 84 35t114 17q115 0 175 -46.5t60 -133.5q0 -36 -9 -63t-30.5 -49.5t-38 -34.5t-51.5 -35q-63 -40 -82 -67t-19 -86z" />
    <glyph glyph-name="uni0242" unicode="&#x242;" horiz-adv-x="412" 
d="M195 112v-116h-86v124q0 54 20.5 86.5t61.5 59.5l36.5 23t32.5 21.5t20 18t16.5 24.5t3.5 28q0 78 -116 78q-84 0 -150 -44l-28 70q23 17 73.5 33.5t102.5 16.5q101 0 152.5 -40t51.5 -113q0 -53 -28 -85.5t-81 -64.5q-46 -30 -64 -53t-18 -67z" />
    <glyph glyph-name="uni0243" unicode="&#x243;" horiz-adv-x="648" 
d="M185 621v-222h120q80 0 124.5 25.5t44.5 89.5q0 114 -192 114q-57 0 -97 -7zM322 324l-124 -2v-101l112 -1v-48h-112v-100q36 -6 95 -6q213 4 213 132q0 70 -46 97.5t-138 28.5zM276 -11q-91 0 -180 20v155h-78v66h78v454q77 19 183 19q61 0 110.5 -9.5t90 -30.5t63 -58
t22.5 -88q0 -53 -26.5 -91.5t-71.5 -54.5q132 -37 132 -174q0 -208 -323 -208z" />
    <glyph glyph-name="uni0244" unicode="&#x244;" horiz-adv-x="705" 
d="M352 61q80 0 126 50t47 151v81h-345v-81q1 -102 46.5 -151.5t125.5 -49.5zM352 -19q-134 0 -197.5 75.5t-63.5 201.5v85h-73v71h73v283h89v-283h345v283h89v-283h73v-71h-73v-85q0 -126 -63.5 -201.5t-198.5 -75.5z" />
    <glyph glyph-name="uni0245" unicode="&#x245;" horiz-adv-x="638" 
d="M634 -4h-99q-120 359 -218 591q-96 -223 -219 -591h-94q147 421 274 701h78l38 -80q104 -236 240 -621z" />
    <glyph glyph-name="uni0246" unicode="&#x246;" horiz-adv-x="573" 
d="M173 326v-243l36 2l100 241h-136zM173 620v-219h167l91 219h-258zM536 -4h-288l-47 -114l-65 24l37 90h-89v701h378l30 72l65 -24l-143 -344h61v-75h-91l-105 -253h257v-77z" />
    <glyph glyph-name="uni0247" unicode="&#x247;" horiz-adv-x="555" 
d="M326 301l106 1q2 106 -59 147zM237 237l-101 -1q0 -97 56 -141zM140 300l117 1l52 164q-10 2 -21 2q-60 0 -100 -49t-48 -118zM51 260q0 114 65.5 194.5t166.5 80.5q23 0 47 -5l27 86l64 -19l-27 -84q120 -53 120 -237q0 -18 -2 -36l-205 -3l-54 -168q32 -12 73 -12
q69 0 138 31l14 -69q-57 -33 -144 -33q-52 0 -103 12l-27 -83l-64 17l28 88q-117 62 -117 240z" />
    <glyph glyph-name="uni0248" unicode="&#x248;" horiz-adv-x="510" 
d="M412 697v-300h81v-70h-81v-107q0 -112 -50 -175.5t-170 -63.5q-65 0 -115 19.5t-74 41.5l38 72q68 -54 143 -54q73 0 106.5 38t33.5 129v100h-145v70h145v300h88z" />
    <glyph glyph-name="uni0249" unicode="&#x249;" horiz-adv-x="271" 
d="M194 674q0 -27 -16.5 -43.5t-41.5 -16.5t-41.5 16.5t-16.5 43.5t16.5 43t41.5 16t41.5 -16t16.5 -43zM11 -115q24 0 39.5 7.5t24 18t13 33t5.5 42t1 54.5v202h-94v67h94v213h85v-213h81v-67h-81v-201q0 -124 -36.5 -178t-134.5 -54q-34 0 -63 12l12 71q18 -7 43 -7h11z
" />
    <glyph glyph-name="uni024A" unicode="&#x24a;" horiz-adv-x="792" 
d="M664 -53q-32 63 -32 160q-35 -55 -101.5 -90.5t-143.5 -35.5q-142 0 -236.5 96.5t-94.5 269.5t95 269t237 96t236.5 -96t94.5 -269v-376q0 -46 14.5 -66.5t48.5 -20.5q24 0 43 8l12 -72q-27 -10 -57 -11q-69 0 -92 35t-24 103zM627 347q0 132 -64.5 208.5t-174.5 76.5
t-174.5 -76.5t-64.5 -208.5t64.5 -209t174.5 -77t174.5 77t64.5 209z" />
    <glyph glyph-name="uni024B" unicode="&#x24b;" horiz-adv-x="586" 
d="M421 102v342q-36 12 -110 12q-79 0 -126 -52t-47 -147q0 -89 38 -142.5t120 -53.5q72 0 125 41zM421 -26q-2 10 -11 46q-51 -36 -123 -36q-112 0 -175 75.5t-63 198.5q0 126 71.5 200.5t189.5 74.5q106 0 196 -30v-533q0 -45 13.5 -65.5t47.5 -20.5q25 0 42 6l12 -70
q-28 -10 -65 -10q-79 0 -106.5 41t-28.5 123z" />
    <glyph glyph-name="uni024C" unicode="&#x24c;" horiz-adv-x="638" 
d="M288 626q-35 0 -101 -6v-272h42q34 0 51.5 0.5t46.5 2t44.5 5t37 9.5t32.5 16t23 24t16.5 34t4.5 45q0 142 -197 142zM342 276q-11 -1 -28 -1h-14.5h-14.5h-98v-279h-89v279h-80v73h80v336q79 19 182 19q297 0 297 -220q0 -141 -144 -190q130 -169 189 -297h-97
q-67 127 -183 280z" />
    <glyph glyph-name="uni024D" unicode="&#x24d;" horiz-adv-x="388" 
d="M276 458q-26 0 -58 -5.5t-45 -11.5v-168h151v-67h-151v-210h-85v210h-76v67h76v224q83 36 185 36q69 0 109 -18l-17 -73q-35 16 -89 16z" />
    <glyph glyph-name="uni024E" unicode="&#x24e;" horiz-adv-x="613" 
d="M226 469l82 -127l80 127h-162zM352 -4h-89v285q-60 90 -118 188h-125v70h85q-60 105 -87 158h102q34 -76 81 -158h214q48 87 83 158h97l-88 -158h85v-70h-125q-34 -60 -115 -186v-287z" />
    <glyph glyph-name="uni024F" unicode="&#x24f;" horiz-adv-x="526" 
d="M204 246q58 -143 82 -190q15 43 60 190h-142zM508 253h-87q-47 -154 -98 -271q-36 -84 -75.5 -123.5t-105.5 -47.5q-18 -2 -34 -2q-24 0 -50 5.5t-37 11.5l16 71q30 -15 67 -15q53 0 83.5 24.5t56.5 86.5q-65 118 -121 260h-96v67h72q-39 103 -62 202h90q22 -93 60 -202
h171q19 72 49 202h86q-25 -110 -52 -202h67v-67z" />
    <glyph glyph-name="uni0259" unicode="&#x259;" horiz-adv-x="553" 
d="M130 214q3 -163 129 -163q62 0 101 49t41 135zM51 267l348 25q-11 183 -172 183q-73 0 -133 -30l-17 63q56 33 155 33q121 0 185.5 -72t64.5 -205q0 -132 -64 -204.5t-160 -72.5q-89 0 -142.5 53t-62.5 159q-2 26 -2 68z" />
    <glyph glyph-name="uni0292" unicode="&#x292;" horiz-adv-x="463" 
d="M121 159v37l1 25q98 110 176 228h-280v73h387v-51q-83 -131 -186 -248q91 -8 150 -55t59 -142q0 -105 -68 -160t-188 -55q-110 0 -176 35l21 73q62 -31 154 -31q83 0 126.5 35.5t43.5 102.5q0 133 -187 133h-33z" />
    <glyph glyph-name="uni02BB" unicode="&#x2bb;" horiz-adv-x="229" 
d="M179 624q-1 -23 -18.5 -38t-45.5 -15q-33 0 -47 16q-17 22 -17 53q3 74 68 155l46 -23q-37 -57 -40 -96q54 -6 54 -52z" />
    <glyph glyph-name="apostrophe" unicode="&#x2bc;" horiz-adv-x="361" 
d="M148 780h86l3 -33q-7 -90 -67 -187l-60 24q41 85 41 156q0 22 -3 40z" />
    <glyph glyph-name="circumflex" unicode="&#x2c6;" horiz-adv-x="379" 
d="M190 671l-105 -93l-37 42l142 150l140 -150l-36 -42z" />
    <glyph glyph-name="caron" unicode="&#x2c7;" horiz-adv-x="378" 
d="M86 774l104 -94l104 94l37 -42l-141 -151l-141 151z" />
    <glyph glyph-name="uni02C8" unicode="&#x2c8;" horiz-adv-x="176" 
d="M50 597v181h76v-181h-76z" />
    <glyph glyph-name="uni02C9" unicode="&#x2c9;" horiz-adv-x="376" 
d="M329 641h-281v70h281v-70z" />
    <glyph glyph-name="breve" unicode="&#x2d8;" horiz-adv-x="381" 
d="M190 607q-55 0 -93 34.5t-38 98.5v13h59q0 -16 4 -31t21.5 -30t46.5 -15q70 0 73 76h59q0 -72 -36 -109t-96 -37z" />
    <glyph glyph-name="dotaccent" unicode="&#x2d9;" horiz-adv-x="358" 
d="M179 616q-25 0 -41 16t-16 42t16 42t41 16q24 0 40 -16t16 -42t-16 -42t-40 -16z" />
    <glyph glyph-name="ring" unicode="&#x2da;" horiz-adv-x="369" 
d="M235 679q0 25 -14.5 39t-36.5 14t-36.5 -14t-14.5 -39t14.5 -39t36.5 -14q23 0 37 14t14 39zM287 679q0 -46 -30 -74.5t-73 -28.5t-73 28.5t-30 74.5t30 74t73 28t73 -28.5t30 -73.5z" />
    <glyph glyph-name="ogonek" unicode="&#x2db;" horiz-adv-x="367" 
d="M177 -195q-106 0 -106 77q0 36 27 71t64 60h79q-32 -32 -44 -47q0 -1 -1 -1q-40 -42 -41 -63q1 -30 38 -30q26 2 42 8l7 -64q-29 -11 -65 -11z" />
    <glyph glyph-name="tilde" unicode="&#x2dc;" horiz-adv-x="376" 
d="M252 584q-29 0 -73.5 19.5t-54.5 19.5q-28 0 -53 -47l-50 27q14 34 40.5 61.5t63.5 27.5q32 0 75.5 -19.5t52.5 -19.5q28 0 53 47l48 -27q-17 -33 -43.5 -61t-58.5 -28z" />
    <glyph glyph-name="hungarumlaut" unicode="&#x2dd;" horiz-adv-x="388" 
d="M204 732l-132 -157l-48 38l123 172zM190 613l123 171l58 -53l-134 -156z" />
    <glyph glyph-name="gravecomb" unicode="&#x300;" horiz-adv-x="0" 
d="M-278 576h-49l-145 182h108z" />
    <glyph glyph-name="acutecomb" unicode="&#x301;" horiz-adv-x="0" 
d="M-283 576h-49l86 182h109z" />
    <glyph glyph-name="uni0302" unicode="&#x302;" horiz-adv-x="0" 
d="M-306 677l-104 -94l-38 42l142 151l141 -151l-37 -42z" />
    <glyph glyph-name="tildecomb" unicode="&#x303;" horiz-adv-x="0" 
d="M-245 622q-29 0 -73.5 19t-54.5 19q-28 0 -53 -47l-50 27q37 89 105 89q32 0 75 -19t52 -19q28 0 53 46l48 -27q-17 -33 -43.5 -60.5t-58.5 -27.5z" />
    <glyph glyph-name="uni0304" unicode="&#x304;" horiz-adv-x="0" 
d="M-174 641h-281v70h281v-70z" />
    <glyph glyph-name="uni0306" unicode="&#x306;" horiz-adv-x="0" 
d="M-311 613q-56 0 -94 35t-38 100v11h59q1 -17 5 -31.5t21.5 -29.5t46.5 -15t46.5 15t21.5 29.5t5 31.5h59q0 -72 -36 -109t-96 -37z" />
    <glyph glyph-name="uni0307" unicode="&#x307;" horiz-adv-x="0" 
d="M-315 622q-25 0 -41 16t-16 42t16 42t41 16q24 0 40 -16t16 -42t-16 -42t-40 -16z" />
    <glyph glyph-name="uni0308" unicode="&#x308;" horiz-adv-x="0" 
d="M-160 644q0 -25 -15.5 -40.5t-39.5 -15.5t-39 15.5t-15 40.5t15 40.5t39 15.5t39.5 -15.5t15.5 -40.5zM-348 644q0 -25 -15 -40.5t-39 -15.5t-39.5 15.5t-15.5 40.5t15.5 40.5t39.5 15.5t39 -15.5t15 -40.5z" />
    <glyph glyph-name="uni030A" unicode="&#x30a;" horiz-adv-x="0" 
d="M-253 685q0 26 -15.5 41.5t-39.5 15.5q-23 0 -38.5 -15.5t-15.5 -41.5q0 -27 15 -42t39 -15t39.5 15t15.5 42zM-205 685q0 -46 -30 -74.5t-73 -28.5t-73 28.5t-30 74.5q0 45 30 73.5t73 28.5t73 -28.5t30 -73.5z" />
    <glyph glyph-name="uni030B" unicode="&#x30b;" horiz-adv-x="0" 
d="M-273 738l-132 -157l-48 38l123 172zM-287 619l123 171l58 -53l-134 -156z" />
    <glyph glyph-name="uni030C" unicode="&#x30c;" horiz-adv-x="0" 
d="M-408 781l104 -94l104 94l37 -42l-141 -151l-141 151z" />
    <glyph glyph-name="uni030D" unicode="&#x30d;" horiz-adv-x="0" 
d="M-344 597v181h76v-181h-76z" />
    <glyph glyph-name="uni030E" unicode="&#x30e;" horiz-adv-x="0" 
d="M-392 597v181h145v-181h-145z" />
    <glyph glyph-name="uni030F" unicode="&#x30f;" horiz-adv-x="0" 
d="M-227 580l-133 158l58 52l122 -172zM-468 789l123 -171l-48 -38l-134 157z" />
    <glyph glyph-name="uni0310" unicode="&#x310;" horiz-adv-x="0" 
d="M-305 749q-24 0 -40 16t-16 42t16 42t40 16q25 0 41 -16t16 -42t-16 -42t-41 -16zM-305 652q-56 0 -94 35t-38 100v11h47q0 -28 19 -55t66 -27t66 26.5t20 55.5h46v-11q0 -65 -38 -100t-94 -35z" />
    <glyph glyph-name="uni0311" unicode="&#x311;" horiz-adv-x="0" 
d="M-322 731q56 0 94 -35t38 -100v-11h-46q0 11 -4 23t-12.5 26t-26.5 23t-43 9t-43 -9t-26.5 -23t-12.5 -26t-4 -23h-46v11q0 65 38 100t94 35z" />
    <glyph glyph-name="uni0312" unicode="&#x312;" horiz-adv-x="0" 
d="M-256 628q0 -22 -18 -37.5t-46 -15.5q-33 0 -47 17q-17 21 -17 52q3 74 68 155l46 -22q-37 -58 -40 -96q54 -6 54 -53z" />
    <glyph glyph-name="uni0313" unicode="&#x313;" horiz-adv-x="0" 
d="M-339 500l-32 26q52 43 62 90q-21 3 -32 16.5t-11 30.5q0 24 14.5 39t38.5 15q30 0 43.5 -19.5t13.5 -49.5q0 -81 -97 -148z" />
    <glyph glyph-name="uni0314" unicode="&#x314;" horiz-adv-x="0" 
d="M-271 500q-97 67 -97 148q0 30 13.5 49.5t43.5 19.5q23 0 38 -15.5t15 -38.5q0 -17 -11.5 -30.5t-32.5 -16.5q12 -48 63 -90z" />
    <glyph glyph-name="uni0320" unicode="&#x320;" horiz-adv-x="0" 
d="M-537 -116v69h463v-69h-463z" />
    <glyph glyph-name="dotbelowcomb" unicode="&#x323;" horiz-adv-x="0" 
d="M-308 -169q-24 0 -40 16t-16 42t16 42t40 16q25 0 41 -16t16 -42t-16 -42t-41 -16z" />
    <glyph glyph-name="uni0324" unicode="&#x324;" horiz-adv-x="0" 
d="M-160 -100q0 -25 -15.5 -40.5t-39.5 -15.5t-39 15.5t-15 40.5t15 40.5t39 15.5t39.5 -15.5t15.5 -40.5zM-348 -100q0 -25 -15 -40.5t-39 -15.5t-39.5 15.5t-15.5 40.5t15.5 40.5t39.5 15.5t39 -15.5t15 -40.5z" />
    <glyph glyph-name="uni0325" unicode="&#x325;" horiz-adv-x="0" 
d="M-253 -162q0 26 -15.5 41.5t-39.5 15.5q-23 0 -38.5 -15.5t-15.5 -41.5q0 -27 15 -42t39 -15t39.5 15t15.5 42zM-205 -162q0 -46 -30 -74.5t-73 -28.5t-73 28.5t-30 74.5q0 45 30 73.5t73 28.5t73 -28.5t30 -73.5z" />
    <glyph glyph-name="uni0331" unicode="&#x331;" horiz-adv-x="0" 
d="M-160 -125h-281v70h281v-70z" />
    <glyph glyph-name="uni0342" unicode="&#x342;" horiz-adv-x="376" 
d="M252 584q-29 0 -73.5 19.5t-54.5 19.5q-28 0 -53 -47l-50 27q14 34 40.5 61.5t63.5 27.5q32 0 75.5 -19.5t52.5 -19.5q28 0 53 47l48 -27q-17 -33 -43.5 -61t-58.5 -28z" />
    <glyph glyph-name="uni0352" unicode="&#x352;" horiz-adv-x="0" 
d="M-305 767q25 0 41 -16t16 -42t-16 -42t-41 -16q-24 0 -40 16t-16 42t16 42t40 16zM-305 864q56 0 94 -35t38 -100v-11h-46q0 12 -4 24t-12.5 26t-26.5 23t-43 9q-47 0 -66 -27t-19 -55h-47v11q0 65 38 100t94 35z" />
    <glyph glyph-name="tonos" unicode="&#x384;" horiz-adv-x="287" 
d="M102 597h-49l86 182h108z" />
    <glyph glyph-name="dieresistonos" unicode="&#x385;" horiz-adv-x="485" 
d="M440 621q0 -26 -15.5 -41.5t-39.5 -15.5t-39 15.5t-15 41.5q0 25 15 40.5t39 15.5t39.5 -15.5t15.5 -40.5zM159 621q0 -26 -15 -41.5t-39 -15.5t-39.5 15.5t-15.5 41.5q0 25 15.5 40.5t39.5 15.5t39 -15.5t15 -40.5zM179 603l119 181l69 -49l-137 -169z" />
    <glyph glyph-name="Alphatonos" unicode="&#x386;" horiz-adv-x="619" 
d="M100 552h-49l86 182h108zM429 260l-90 256q-6 16 -12.5 36.5l-10 32t-7.5 17.5q-5 -8 -14 -38l-55 -156.5l-52 -147.5h241zM607 -2h-91q-59 177 -67 199h-281q-45 -125 -69 -199h-83q167 472 258 694h75q78 -193 258 -694z" />
    <glyph glyph-name="anoteleia" unicode="&#x387;" horiz-adv-x="251" 
d="M200 320q0 -26 -16.5 -42.5t-42.5 -16.5t-42.5 16.5t-16.5 42.5q0 25 17 42t42 17q26 0 42.5 -17t16.5 -42z" />
    <glyph glyph-name="Epsilontonos" unicode="&#x388;" horiz-adv-x="664" 
d="M56 553h-49l86 182h108zM636 -2h-431v697h407v-75h-317v-221h282v-73h-282v-253h341v-75z" />
    <glyph glyph-name="Etatonos" unicode="&#x389;" horiz-adv-x="776" 
d="M71 552h-49l86 182h108zM646 399v296h90v-697h-90v326h-343v-326h-90v697h90v-296h343z" />
    <glyph glyph-name="Iotatonos" unicode="&#x38a;" horiz-adv-x="362" 
d="M64 552h-49l86 182h108zM221 -2v697h90v-697h-90z" />
    <glyph glyph-name="Omicrontonos" unicode="&#x38c;" horiz-adv-x="814" 
d="M64 552h-49l86 182h108zM669 347q0 132 -62.5 209t-169.5 77t-169.5 -77t-62.5 -209q0 -131 63 -208.5t169 -77.5q107 0 169.5 77.5t62.5 208.5zM763 347q0 -171 -92.5 -267.5t-233.5 -96.5t-233.5 96.5t-92.5 267.5q0 170 92.5 266t233.5 96t233.5 -96t92.5 -266z" />
    <glyph glyph-name="Upsilontonos" unicode="&#x38e;" horiz-adv-x="769" 
d="M68 556h-49l86 182h108zM507 -2h-90v284q-130 204 -238 413h102q82 -177 183 -335q103 164 184 335h96q-129 -240 -237 -411v-286z" />
    <glyph glyph-name="Omegatonos" unicode="&#x38f;" horiz-adv-x="814" 
d="M21 712l88 -22l-71 -203l-65 16zM424 712q140 0 232.5 -90t92.5 -253q0 -172 -129 -297h145v-76h-270v60q161 123 161 314q0 122 -63.5 192.5t-168.5 70.5t-168.5 -70.5t-63.5 -192.5q0 -191 161 -314v-60h-270v76h146q-54 50 -92 125.5t-38 171.5q0 163 92.5 253
t232.5 90z" />
    <glyph glyph-name="iotadieresistonos" unicode="&#x390;" horiz-adv-x="261" 
d="M339 658q0 -26 -15.5 -41.5t-39.5 -15.5t-39 15.5t-15 41.5q0 25 15 40.5t39 15.5t39.5 -15.5t15.5 -40.5zM58 658q0 -26 -15 -41.5t-39 -15.5t-39.5 15.5t-15.5 41.5q0 25 15.5 40.5t39.5 15.5t39 -15.5t15 -40.5zM78 640l119 181l69 -49l-137 -169zM238 57l-12 -70
q-79 2 -114 34t-35 108v393h85v-389q0 -42 16 -56t60 -20z" />
    <glyph glyph-name="Alpha" unicode="&#x391;" horiz-adv-x="652" 
d="M429 260l-90 256q-6 16 -12.5 36.5l-10 32t-7.5 17.5q-5 -8 -14 -38l-55 -156.5l-52 -147.5h241zM607 -2h-91q-59 177 -67 199h-281q-45 -125 -69 -199h-83q167 472 258 694h75q78 -193 258 -694z" />
    <glyph glyph-name="Beta" unicode="&#x392;" horiz-adv-x="636" 
d="M173 623v-228h62q38 0 59 1t51.5 4t47 10.5t34 20.5t25 34t7.5 49q0 115 -190 115q-63 0 -96 -6zM302 325h-129v-255q38 -6 97 -6q220 0 220 134q0 71 -47 99t-141 28zM263 -9q-99 0 -178 21v668q75 21 182 21q128 0 206 -44t78 -140q0 -54 -28 -93t-74 -55
q134 -35 134 -173q0 -205 -320 -205z" />
    <glyph glyph-name="Gamma" unicode="&#x393;" horiz-adv-x="498" 
d="M84 697h397v-77h-308v-624h-89v701z" />
    <glyph glyph-name="uni0394" unicode="&#x394;" horiz-adv-x="639" 
d="M635 -4h-625l45 145q109 308 227 556h75q139 -291 278 -701zM121 73h392q-97 289 -196 516q-108 -251 -196 -516z" />
    <glyph glyph-name="Epsilon" unicode="&#x395;" horiz-adv-x="562" 
d="M516 -2h-431v697h407v-75h-317v-221h282v-73h-282v-253h341v-75z" />
    <glyph glyph-name="Zeta" unicode="&#x396;" horiz-adv-x="567" 
d="M514 695l-3 -71q-80 -100 -192.5 -263t-180.5 -288h385v-75h-489l2 60q61 121 176 293t197 269h-356v75h461z" />
    <glyph glyph-name="Eta" unicode="&#x397;" horiz-adv-x="698" 
d="M518 399v296h90v-697h-90v326h-343v-326h-90v697h90v-296h343z" />
    <glyph glyph-name="Theta" unicode="&#x398;" horiz-adv-x="766" 
d="M615 347q0 132 -62.5 209t-169.5 77t-169.5 -77t-62.5 -209q0 -131 63 -208.5t169 -77.5q107 0 169.5 77.5t62.5 208.5zM709 347q0 -171 -92.5 -267.5t-233.5 -96.5t-233.5 96.5t-92.5 267.5q0 170 92.5 266t233.5 96t233.5 -96t92.5 -266zM544 325h-325v77h325v-77z" />
    <glyph glyph-name="Iota" unicode="&#x399;" horiz-adv-x="258" 
d="M85 -2v697h90v-697h-90z" />
    <glyph glyph-name="Kappa" unicode="&#x39a;" horiz-adv-x="611" 
d="M604 -2h-62q-6 0 -20 0.5t-20 0.5q-63 98 -152.5 190t-174.5 145v-336h-90v697h90v-314q74 68 165 162.5t137 151.5h106l-153 -162.5l-164 -164.5q86 -59 188.5 -171t149.5 -199z" />
    <glyph glyph-name="Lambda" unicode="&#x39b;" horiz-adv-x="638" 
d="M634 -4h-99q-120 359 -218 591q-96 -223 -219 -591h-94q147 421 274 701h78l38 -80q104 -236 240 -621z" />
    <glyph glyph-name="Mu" unicode="&#x39c;" horiz-adv-x="869" 
d="M465 90h-70q-35 85 -111.5 250t-99.5 207q-17 -167 -32 -549h-86q23 437 51 697h49q11 -1 32 -1q77 -136 235 -491q172 381 236 492h77q27 -240 51 -697h-89q-15 386 -32 549q-25 -46 -101 -209.5t-110 -247.5z" />
    <glyph glyph-name="Nu" unicode="&#x39d;" horiz-adv-x="716" 
d="M624 -2h-44l-30 1q-58 105 -181.5 285.5t-198.5 266.5q0 -43 0.5 -130t0.5 -131v-292h-86v697h71q95 -107 199 -251.5t183 -277.5v529h86v-697z" />
    <glyph glyph-name="Xi" unicode="&#x39e;" horiz-adv-x="552" 
d="M47 697h458v-78h-458v78zM518 -4h-484v78h484v-78zM460 325h-369v77h369v-77z" />
    <glyph glyph-name="Omicron" unicode="&#x39f;" horiz-adv-x="776" 
d="M615 347q0 132 -62.5 209t-169.5 77t-169.5 -77t-62.5 -209q0 -131 63 -208.5t169 -77.5q107 0 169.5 77.5t62.5 208.5zM709 347q0 -171 -92.5 -267.5t-233.5 -96.5t-233.5 96.5t-92.5 267.5q0 170 92.5 266t233.5 96t233.5 -96t92.5 -266z" />
    <glyph glyph-name="Pi" unicode="&#x3a0;" horiz-adv-x="691" 
d="M84 697h523v-701h-89v624h-345v-624h-89v701z" />
    <glyph glyph-name="Rho" unicode="&#x3a1;" horiz-adv-x="599" 
d="M272 628q-29 0 -98 -6v-288h76q112 0 167.5 32t55.5 117q0 145 -201 145zM269 701q148 0 222 -56.5t74 -162.5q0 -116 -78.5 -168.5t-229.5 -52.5h-83v-263h-89v682q76 21 184 21z" />
    <glyph glyph-name="Sigma" unicode="&#x3a3;" horiz-adv-x="558" 
d="M371 362l-78.5 -92.5l-90 -106.5t-67.5 -90h386v-77h-488v71q18 28 48.5 67l72.5 89.5l60 73.5l52 64q-30 39 -80 98.5l-86 104t-54 72.5v61h474v-77h-355q14 -22 48 -63.5l81 -98.5z" />
    <glyph glyph-name="Tau" unicode="&#x3a4;" horiz-adv-x="557" 
d="M17 695h515v-75h-212v-622h-90v622h-213v75z" />
    <glyph glyph-name="Upsilon" unicode="&#x3a5;" horiz-adv-x="582" 
d="M333 -2h-90v284q-130 204 -238 413h102q82 -177 183 -335q103 164 184 335h96q-129 -240 -237 -411v-286z" />
    <glyph glyph-name="Phi" unicode="&#x3a6;" horiz-adv-x="861" 
d="M387 157v428q-106 -2 -172.5 -56.5t-66.5 -157.5t67 -157.5t172 -56.5zM387 -4v86q-62 1 -119.5 18.5t-105.5 51.5t-77 90.5t-29 127.5t29 127.5t77 90.5t105.5 52t119.5 20v82h87v-82q85 -2 158 -31.5t123.5 -97t50.5 -161.5q0 -71 -29 -127.5t-77.5 -90t-106 -51.5
t-119.5 -19v-86h-87zM474 585v-428q106 2 173 56.5t67 157.5t-67 157.5t-173 56.5z" />
    <glyph glyph-name="Chi" unicode="&#x3a7;" horiz-adv-x="617" 
d="M306 431l173 264h99l-221 -327q167 -240 232 -370h-61q-6 0 -19 0.5t-20 0.5q-53 108 -186 299q-135 -192 -188 -300h-95q63 124 231 366l-220 331h102z" />
    <glyph glyph-name="Psi" unicode="&#x3a8;" horiz-adv-x="808" 
d="M448 -4h-88v181q-297 4 -297 285v235h88v-226q0 -113 52.5 -163t156.5 -52v441h88v-441q103 2 156 52.5t53 162.5v226h88v-235q0 -281 -297 -285v-181z" />
    <glyph glyph-name="uni03A9" unicode="&#x3a9;" horiz-adv-x="780" 
d="M390 712q140 0 232.5 -90t92.5 -253q0 -172 -129 -297h145v-76h-269v60q160 124 160 314q0 122 -63.5 192.5t-168.5 70.5t-168.5 -70.5t-63.5 -192.5q0 -191 161 -314v-60h-269v76h145q-53 50 -91 125.5t-38 171.5q0 163 92 253t232 90z" />
    <glyph glyph-name="Iotadieresis" unicode="&#x3aa;" horiz-adv-x="258" 
d="M277 814q0 -25 -15.5 -40.5t-39.5 -15.5t-39 15.5t-15 40.5t15 40.5t39 15.5t39.5 -15.5t15.5 -40.5zM89 814q0 -25 -15 -40.5t-39 -15.5t-39.5 15.5t-15.5 40.5t15.5 40.5t39.5 15.5t39 -15.5t15 -40.5zM85 -2v697h90v-697h-90z" />
    <glyph glyph-name="Upsilondieresis" unicode="&#x3ab;" horiz-adv-x="582" 
d="M439 814q0 -25 -15.5 -40.5t-39.5 -15.5t-39 15.5t-15 40.5t15 40.5t39 15.5t39.5 -15.5t15.5 -40.5zM251 814q0 -25 -15 -40.5t-39 -15.5t-39.5 15.5t-15.5 40.5t15.5 40.5t39.5 15.5t39 -15.5t15 -40.5zM333 -2h-90v284q-130 204 -238 413h102q82 -177 183 -335
q103 164 184 335h96q-129 -240 -237 -411v-286z" />
    <glyph glyph-name="alphatonos" unicode="&#x3ac;" horiz-adv-x="601" 
d="M325 605h-49l86 182h108zM417 151v290q-45 15 -97 15q-86 0 -134 -52t-48 -147q0 -88 37.5 -142t121.5 -54q72 0 125 42q-5 25 -5 48zM452 37q-64 -52 -158 -52q-118 0 -181.5 76t-63.5 197q0 128 72.5 201.5t194.5 73.5q101 0 186 -32v-364q0 -44 17.5 -58t62.5 -21
l-12 -70q-85 2 -118 49z" />
    <glyph glyph-name="epsilontonos" unicode="&#x3ad;" horiz-adv-x="500" 
d="M279 605h-49l86 182h108zM287 460q-131 0 -131 -78q0 -75 126 -75h70v-71h-75q-140 0 -140 -92q0 -85 139 -85q54 0 102 13t66 25l25 -73q-23 -14 -77 -27t-120 -13q-104 0 -163.5 38.5t-59.5 115.5q0 103 101 137q-80 33 -80 106q0 77 54.5 115t158.5 38q99 0 158 -28
l-18 -73q-60 26 -136 27z" />
    <glyph glyph-name="etatonos" unicode="&#x3ae;" horiz-adv-x="571" 
d="M300 605h-49l86 182h108zM80 -4v504q78 33 205 33q116 0 164.5 -63t48.5 -180v-479h-85v459q0 102 -30 144t-107 42q-75 0 -111 -13v-447h-85z" />
    <glyph glyph-name="iotatonos" unicode="&#x3af;" horiz-adv-x="261" 
d="M142 605h-49l86 182h108zM238 57l-12 -70q-79 2 -114 34t-35 108v393h85v-389q0 -42 16 -56t60 -20z" />
    <glyph glyph-name="upsilondieresistonos" unicode="&#x3b0;" horiz-adv-x="571" 
d="M476 621q0 -26 -15.5 -41.5t-39.5 -15.5t-39 15.5t-15 41.5q0 25 15 40.5t39 15.5t39.5 -15.5t15.5 -40.5zM195 621q0 -26 -15 -41.5t-39 -15.5t-39.5 15.5t-15.5 41.5q0 25 15.5 40.5t39.5 15.5t39 -15.5t15 -40.5zM215 603l119 181l69 -49l-137 -169zM286 -16
q-212 0 -212 237v301h85v-293q0 -89 31.5 -128t95.5 -39q63 0 95 39t32 128v293h85v-301q0 -237 -212 -237z" />
    <glyph glyph-name="alpha" unicode="&#x3b1;" horiz-adv-x="601" 
d="M417 151v290q-45 15 -97 15q-86 0 -134 -52t-48 -147q0 -88 37.5 -142t121.5 -54q72 0 125 42q-5 25 -5 48zM452 37q-64 -52 -158 -52q-118 0 -181.5 76t-63.5 197q0 128 72.5 201.5t194.5 73.5q101 0 186 -32v-364q0 -44 17.5 -58t62.5 -21l-12 -70q-85 2 -118 49z" />
    <glyph glyph-name="beta" unicode="&#x3b2;" horiz-adv-x="604" 
d="M165 542v-440q13 -12 52 -25t83 -13q76 0 121 41t45 116q0 163 -195 163h-9v72h11q66 0 106 35t40 95q0 54 -31 86.5t-91 32.5q-132 0 -132 -163zM165 21v-210h-85v733q0 109 53 172.5t166 63.5q92 0 149.5 -49.5t57.5 -141.5q0 -52 -29 -95t-80 -63q158 -47 158 -209
q0 -111 -65 -173t-188 -62q-81 0 -137 34z" />
    <glyph glyph-name="gamma" unicode="&#x3b3;" horiz-adv-x="484" 
d="M229 91q49 82 94.5 209t61.5 222h83q-56 -290 -215 -531q18 -116 22 -180h-79q-4 37 -12 81q-21 153 -73 331.5t-99 298.5h92q68 -172 125 -431z" />
    <glyph glyph-name="delta" unicode="&#x3b4;" 
d="M332 706q-46 0 -75.5 -16t-29.5 -49q0 -29 21 -50t88 -63q4 -3 13 -8q25 -15 38 -23.5t36 -25.5t36 -31t30 -36.5t25.5 -45.5t15 -54.5t6.5 -66.5q0 -45 -13.5 -88.5t-41.5 -81.5t-77 -61t-112 -23q-60 0 -107.5 21.5t-76.5 58.5t-44 84t-15 101q0 89 51.5 156.5
t132.5 97.5q-66 44 -83 91q-7 21 -7 44q0 70 51.5 106.5t134.5 36.5q80 0 156 -36l-22 -72q-62 34 -131 34zM303 457q-74 -22 -119.5 -77t-45.5 -132q0 -51 15 -92t51.5 -68.5t88.5 -27.5q72 0 113 52t41 130q0 20 -3 38.5t-7 33t-12 29l-13.5 24.5t-17 21.5t-18 17.5
t-20 16t-18.5 13l-19 11.5t-16 10.5z" />
    <glyph glyph-name="epsilon" unicode="&#x3b5;" horiz-adv-x="500" 
d="M287 460q-131 0 -131 -78q0 -75 126 -75h70v-71h-75q-140 0 -140 -92q0 -85 139 -85q54 0 102 13t66 25l25 -73q-23 -14 -77 -27t-120 -13q-104 0 -163.5 38.5t-59.5 115.5q0 103 101 137q-80 33 -80 106q0 77 54.5 115t158.5 38q99 0 158 -28l-18 -73q-60 26 -136 27z
" />
    <glyph glyph-name="zeta" unicode="&#x3b6;" horiz-adv-x="434" 
d="M455 -54q0 -70 -53 -139l-72 27q41 61 41 98q0 35 -26 50.5t-100 31.5q-108 23 -150.5 71t-42.5 147q0 215 276 468h-244v73h352v-67q-22 -20 -37 -35q-258 -248 -258 -437q0 -71 31.5 -101t117.5 -49q94 -21 129.5 -49t35.5 -89z" />
    <glyph glyph-name="eta" unicode="&#x3b7;" horiz-adv-x="571" 
d="M80 -4v504q78 33 205 33q116 0 164.5 -63t48.5 -180v-479h-85v459q0 102 -30 144t-107 42q-75 0 -111 -13v-447h-85z" />
    <glyph glyph-name="theta" unicode="&#x3b8;" horiz-adv-x="597" 
d="M299 703q-150 0 -158 -280h314q-8 280 -156 280zM299 59q149 0 157 291h-315q6 -291 158 -291zM299 780q121 0 183 -107t62 -292t-62 -292t-183 -107t-183.5 106.5t-62.5 292.5t62.5 292.5t183.5 106.5z" />
    <glyph glyph-name="iota" unicode="&#x3b9;" horiz-adv-x="261" 
d="M238 57l-12 -70q-79 2 -114 34t-35 108v393h85v-389q0 -42 16 -56t60 -20z" />
    <glyph glyph-name="kappa" unicode="&#x3ba;" horiz-adv-x="517" 
d="M165 -4h-85v526h85v-226q143 139 221 226h103q-105 -119 -241 -244q67 -47 141 -128t118 -154h-100q-43 68 -113 137.5t-129 107.5v-245z" />
    <glyph glyph-name="lambda" unicode="&#x3bb;" horiz-adv-x="500" 
d="M263 430q-110 -212 -164 -434h-87q28 110 87.5 258.5t125.5 271.5q-22 59 -36 77q-29 64 -47 83t-57 19h-4q-22 0 -40 -8l-15 72q33 11 73 11q65 0 103 -36t64 -100q125 -304 221 -648h-87q-101 336 -137 434z" />
    <glyph glyph-name="uni03BC" unicode="&#x3bc;" horiz-adv-x="578" 
d="M299 -12q-95 0 -139 50q5 -42 5 -122v-104h-85v709h86v-267q0 -104 30 -148.5t106 -44.5q75 0 111 12v448h86v-504q-94 -29 -200 -29z" />
    <glyph glyph-name="nu" unicode="&#x3bd;" horiz-adv-x="490" 
d="M247 94q36 75 77 199t65 228h86q-64 -248 -190 -523h-47q-6 0 -17 0.5t-17 0.5q-120 257 -189 522h91q23 -103 63 -224.5t78 -202.5z" />
    <glyph glyph-name="xi" unicode="&#x3be;" horiz-adv-x="473" 
d="M298 84q94 -20 130 -48.5t36 -89.5q0 -70 -53 -139l-72 27q1 2 6.5 10.5t9 14.5l9 16t8.5 18.5t5.5 19t2.5 19.5q0 36 -25 50.5t-101 31.5q-105 22 -154 67t-49 131q0 45 16 82t42.5 61t49 37.5t45.5 22.5q-55 17 -87 65.5t-32 106.5q0 94 61.5 143.5t157.5 49.5
q81 0 137 -23l-20 -74q-46 22 -111 22q-70 0 -103.5 -33.5t-33.5 -90.5q0 -64 44.5 -97.5t123.5 -33.5h65v-73h-55q-32 0 -65.5 -7.5t-68 -24.5t-56.5 -51t-22 -80q0 -58 36.5 -84.5t122.5 -45.5z" />
    <glyph glyph-name="omicron" unicode="&#x3bf;" 
d="M444 260q0 92 -40.5 146t-111.5 54q-70 0 -111 -54.5t-41 -145.5q0 -92 41 -146t111 -54q71 0 111.5 54t40.5 146zM534 259q0 -123 -67 -198t-175 -75q-107 0 -174.5 75.5t-67.5 197.5q0 123 67.5 198.5t174.5 75.5t174.5 -75.5t67.5 -198.5z" />
    <glyph glyph-name="pi" unicode="&#x3c0;" horiz-adv-x="574" 
d="M495 522v-526h-86v453h-244v-453h-85v526h415z" />
    <glyph glyph-name="rho" unicode="&#x3c1;" horiz-adv-x="591" 
d="M160 276v-174q51 -41 128 -41q87 0 126 55t39 142q0 95 -36 146t-118 51q-139 0 -139 -179zM296 -16q-81 0 -136 38v-211h-86v479q0 113 57 178t167 65q119 0 181.5 -69t62.5 -205q0 -122 -64.5 -198.5t-181.5 -76.5z" />
    <glyph glyph-name="sigma1" unicode="&#x3c2;" horiz-adv-x="456" 
d="M138 259q0 -47 9 -77t33.5 -50.5t54.5 -32.5t84 -26q66 -17 93 -45.5t27 -81.5q0 -70 -53 -139l-72 27q41 61 41 98q0 29 -18 45t-64 28q-126 31 -175 87t-49 164q0 126 67.5 202.5t181.5 76.5q89 0 142 -28l-21 -72q-51 23 -114 23q-79 0 -123 -52t-44 -147z" />
    <glyph glyph-name="sigma" unicode="&#x3c3;" horiz-adv-x="610" 
d="M443 236q0 63 -24 120t-65 93h-28q-22 0 -44 -4t-49 -17.5t-47 -35t-34 -60.5t-14 -90q0 -84 42.5 -132.5t110.5 -48.5q72 0 112 45.5t40 129.5zM531 237q0 -117 -65.5 -185t-174.5 -68q-106 0 -174 70t-68 188q0 75 24 131t64.5 87.5t89 46.5t103.5 15h266v-73h-146
q81 -95 81 -212z" />
    <glyph glyph-name="tau" unicode="&#x3c4;" horiz-adv-x="436" 
d="M398 53l2 -53q-34 -12 -84 -12q-93 0 -128 49.5t-35 152.5v259h-139v73h404v-73h-180v-258q0 -78 26 -103q23 -21 65 -21h12q44 -11 57 -14z" />
    <glyph glyph-name="upsilon" unicode="&#x3c5;" horiz-adv-x="571" 
d="M286 -16q-212 0 -212 237v301h85v-293q0 -89 31.5 -128t95.5 -39q63 0 95 39t32 128v293h85v-301q0 -237 -212 -237z" />
    <glyph glyph-name="phi" unicode="&#x3c6;" horiz-adv-x="762" 
d="M136 261q0 -86 50.5 -138t152.5 -61v398q-97 -7 -150 -61.5t-53 -137.5zM627 261q0 82 -53.5 137t-150.5 62v-398q102 9 153 61t51 138zM381 535q150 0 241.5 -74t91.5 -200q0 -121 -79.5 -193.5t-211.5 -79.5v-177h-84v177q-132 7 -211 79.5t-79 193.5q0 126 91 200
t241 74z" />
    <glyph glyph-name="chi" unicode="&#x3c7;" horiz-adv-x="507" 
d="M252 219q-69 -86 -143 -221h-88q64 120 178 276l-100 147l-69 100h98l125 -187l128 187h91l-167 -242q125 -170 182 -281h-94q-46 86 -141 221z" />
    <glyph glyph-name="psi" unicode="&#x3c8;" horiz-adv-x="768" 
d="M426 -189h-84v176q-136 3 -202 73.5t-66 196.5v265h85v-250q0 -108 46.5 -156.5t136.5 -50.5v457h84v-457q89 2 136 51t47 156v250h85v-265q0 -126 -66 -196.5t-202 -73.5v-176z" />
    <glyph glyph-name="omega" unicode="&#x3c9;" horiz-adv-x="836" 
d="M375 424h85v-147q0 -41 2.5 -69.5t12.5 -65.5t34 -57t62 -20q121 0 121 186q0 125 -88 253l76 30q34 -40 67 -116.5t33 -168.5q0 -136 -55 -199t-151 -63q-112 0 -156 97q-45 -97 -156 -97q-96 0 -151 63t-55 199q0 92 33 168.5t67 116.5l76 -30q-88 -128 -88 -253
q0 -186 121 -186q25 0 44.5 9.5t31 27.5t19 37t10.5 46.5t4 46.5t1 45v147z" />
    <glyph glyph-name="iotadieresis" unicode="&#x3ca;" horiz-adv-x="261" 
d="M264 678q0 -25 -15.5 -40.5t-39.5 -15.5t-39 15.5t-15 40.5t15 40.5t39 15.5t39.5 -15.5t15.5 -40.5zM79 678q0 -25 -15 -40.5t-39 -15.5t-39.5 15.5t-15.5 40.5t15.5 40.5t39.5 15.5t39 -15.5t15 -40.5zM238 57l-12 -70q-79 2 -114 34t-35 108v393h85v-389q0 -42 16 -56
t60 -20z" />
    <glyph glyph-name="upsilondieresis" unicode="&#x3cb;" horiz-adv-x="571" 
d="M428 678q0 -25 -15.5 -40.5t-39.5 -15.5t-39 15.5t-15 40.5t15 40.5t39 15.5t39.5 -15.5t15.5 -40.5zM243 678q0 -25 -15 -40.5t-39 -15.5t-39.5 15.5t-15.5 40.5t15.5 40.5t39.5 15.5t39 -15.5t15 -40.5zM286 -16q-212 0 -212 237v301h85v-293q0 -89 31.5 -128t95.5 -39
q63 0 95 39t32 128v293h85v-301q0 -237 -212 -237z" />
    <glyph glyph-name="omicrontonos" unicode="&#x3cc;" 
d="M316 605h-49l86 182h108zM444 260q0 92 -40.5 146t-111.5 54q-70 0 -111 -54.5t-41 -145.5q0 -92 41 -146t111 -54q71 0 111.5 54t40.5 146zM534 259q0 -123 -67 -198t-175 -75q-107 0 -174.5 75.5t-67.5 197.5q0 123 67.5 198.5t174.5 75.5t174.5 -75.5t67.5 -198.5z
" />
    <glyph glyph-name="upsilontonos" unicode="&#x3cd;" horiz-adv-x="571" 
d="M307 605h-49l86 182h108zM286 -16q-212 0 -212 237v301h85v-293q0 -89 31.5 -128t95.5 -39q63 0 95 39t32 128v293h85v-301q0 -237 -212 -237z" />
    <glyph glyph-name="omegatonos" unicode="&#x3ce;" horiz-adv-x="836" 
d="M443 605h-49l86 182h108zM375 424h85v-147q0 -41 2.5 -69.5t12.5 -65.5t34 -57t62 -20q121 0 121 186q0 125 -88 253l76 30q34 -40 67 -116.5t33 -168.5q0 -136 -55 -199t-151 -63q-112 0 -156 97q-45 -97 -156 -97q-96 0 -151 63t-55 199q0 92 33 168.5t67 116.5l76 -30
q-88 -128 -88 -253q0 -186 121 -186q25 0 44.5 9.5t31 27.5t19 37t10.5 46.5t4 46.5t1 45v147z" />
    <glyph glyph-name="uni0400" unicode="&#x400;" horiz-adv-x="562" 
d="M378 746h-49l-145 182h108zM461 -2h-380v694h367v-66h-281v-233h251v-66h-251v-263h294v-66z" />
    <glyph glyph-name="uni0401" unicode="&#x401;" horiz-adv-x="562" 
d="M429 814q0 -25 -15.5 -40.5t-39.5 -15.5t-39 15.5t-15 40.5t15 40.5t39 15.5t39.5 -15.5t15.5 -40.5zM241 814q0 -25 -15 -40.5t-39 -15.5t-39.5 15.5t-15.5 40.5t15.5 40.5t39.5 15.5t39 -15.5t15 -40.5zM461 -2h-380v694h367v-66h-281v-233h251v-66h-251v-263h294v-66z
" />
    <glyph glyph-name="uni0403" unicode="&#x403;" horiz-adv-x="498" 
d="M165 626v-630h-84v699h365v-69h-281zM305 964l59 -62l-177 -144l-43 46z" />
    <glyph glyph-name="uni0404" unicode="&#x404;" horiz-adv-x="560" 
d="M487 602q-57 33 -136 33q-94 0 -147 -66.5t-62 -175.5h254v-68h-256q3 -96 39 -164t103 -92q30 -10 69 -10h13q70 0 122 31l24 -63q-62 -41 -167 -41q-133 0 -213 98t-80 261q0 161 79.5 260.5t209.5 99.5q106 0 170 -41z" />
    <glyph glyph-name="uni0405" unicode="&#x405;" horiz-adv-x="526" 
d="M236 60q157 0 157 113q0 31 -11 54t-34 39.5t-46 27.5t-60 25q-11 4 -16 6q-75 31 -116 64.5t-54 83.5q-7 24 -7 56q3 87 63 133.5t165 46.5q55 0 106.5 -13.5t79.5 -33.5l-29 -71q-64 43 -156 43q-139 0 -139 -105q0 -23 8.5 -41.5t19 -30.5t35 -25.5t40 -20l51.5 -21.5
q40 -17 63.5 -28.5t52 -30.5t43 -38.5t25 -49t10.5 -66.5q0 -93 -66 -143.5t-182 -50.5q-132 0 -208 49l27 74q80 -46 178 -46z" />
    <glyph glyph-name="uni0406" unicode="&#x406;" horiz-adv-x="258" 
d="M168 -2h-85v694h85v-694z" />
    <glyph glyph-name="uni0407" unicode="&#x407;" horiz-adv-x="258" 
d="M277 814q0 -25 -15.5 -40.5t-39.5 -15.5t-39 15.5t-15 40.5t15 40.5t39 15.5t39.5 -15.5t15.5 -40.5zM89 814q0 -25 -15 -40.5t-39 -15.5t-39.5 15.5t-15.5 40.5t15.5 40.5t39.5 15.5t39 -15.5t15 -40.5zM168 -2h-85v694h85v-694z" />
    <glyph glyph-name="uni0408" unicode="&#x408;" horiz-adv-x="493" 
d="M288 122q0 -96 -44 -156t-133 -73q-14 -1 -28 -1q-51 0 -103 19q10 37 19 65q33 -10 59 -10q23 0 45 7q100 29 100 166v553h85v-570z" />
    <glyph glyph-name="uni040A" unicode="&#x40a;" horiz-adv-x="956" 
d="M818 210q0 81 -50 121.5t-140 40.5q-60 0 -98 -7v-296q46 -13 100 -13q188 0 188 154zM447 21v304h-311v-327h-86v694h86v-300h311v300h83v-261q41 7 93 7q136 0 209.5 -57t73.5 -170q0 -110 -71.5 -165.5t-203.5 -55.5q-110 0 -184 31z" />
    <glyph glyph-name="uni040C" unicode="&#x40c;" horiz-adv-x="611" 
d="M549 -2h-60q-7 0 -19 0.5t-19 0.5q-130 197 -283 343v-344h-85v694h85v-314q170 185 269 314h96q-73 -89 -283 -325q184 -183 299 -369zM366 956l59 -61l-176 -145l-44 47z" />
    <glyph glyph-name="uni040D" unicode="&#x40d;" horiz-adv-x="716" 
d="M217 879q13 16 63 53l153 -156l-44 -39zM158 -4h-74v701h88v-532q65 111 180.5 269.5t208.5 262.5h70v-701h-87v558q-83 -96 -204.5 -272.5t-181.5 -285.5z" />
    <glyph glyph-name="uni040E" unicode="&#x40e;" horiz-adv-x="565" 
d="M56 -2q1 11 3.5 34t3.5 36q27 -8 55 -8q99 0 131 94q-6 9 -12 19.5l-13 23.5l-11 20q-97 194 -209 478h91q64 -180 144 -350q2 -4 22 -52l27 -65q89 237 155 467h90q-71 -221 -180 -491q-13 -32 -22 -51.5t-22 -45t-24.5 -40.5t-28.5 -31.5t-35 -25.5t-42 -14.5t-52 -5.5
q-32 0 -71 8zM285 779q-56 0 -95 37t-38 105l59 6q0 -11 3 -22.5t10.5 -25t23 -21.5t37.5 -8q69 0 75 77l59 -6q1 -68 -38 -105t-96 -37z" />
    <glyph glyph-name="uni0410" unicode="&#x410;" horiz-adv-x="629" 
d="M430 262l-90 256q-8 22 -17.5 51t-12.5 36q-5 -8 -12 -34l-58 -164.5l-52 -144.5h242zM608 0h-90l-68 199h-281l-69 -199h-84q161 453 259 694h74q70 -171 259 -694z" />
    <glyph glyph-name="uni0411" unicode="&#x411;" horiz-adv-x="526" 
d="M412 208q0 80 -55 120t-153 40q-48 0 -86 -5v-290q41 -13 101 -13q86 0 139.5 34.5t53.5 113.5zM36 698h414v-69h-332v-197q55 5 89 5q139 0 215 -55.5t76 -170.5q0 -111 -73.5 -165.5t-206.5 -54.5q-106 0 -182 30v677z" />
    <glyph glyph-name="uni0412" unicode="&#x412;" horiz-adv-x="530" 
d="M414 191q0 81 -55 111.5t-172 30.5h-68v-267q44 -11 100 -11q195 0 195 136zM387 518q0 122 -171 122q-2 0 -5 -0.5t-4 -0.5h-9q-49 -1 -79 -10v-238h65q103 0 153 28t50 99zM501 192q0 -101 -73.5 -151t-210.5 -50q-107 0 -181 29v653q74 28 179 28q117 0 186.5 -45.5
t69.5 -132.5q0 -60 -33 -99t-84 -55q61 -14 104 -59.5t43 -117.5z" />
    <glyph glyph-name="uni0413" unicode="&#x413;" horiz-adv-x="421" 
d="M122 628v-628h-86v694h355v-66h-269z" />
    <glyph glyph-name="uni0414" unicode="&#x414;" horiz-adv-x="719" 
d="M344 572l-159 -510h338l-151 510q-9 31 -11 41h-5q-1 -7 -12 -41zM619 -2h-521v-152h-78v216h82l208 630h99q39 -111 107 -329l95 -301h86v-216h-78v152z" />
    <glyph glyph-name="uni0415" unicode="&#x415;" horiz-adv-x="562" 
d="M461 -2h-380v694h367v-66h-281v-233h251v-66h-251v-263h294v-66z" />
    <glyph glyph-name="uni0416" unicode="&#x416;" horiz-adv-x="866" 
d="M108 -2h-96q51 86 135 190t161 179q-192 216 -281 325h96q73 -96 268 -315v315h84v-315q208 237 268 315h96q-77 -95 -282 -325q78 -75 161 -177.5t136 -191.5h-96q-131 199 -283 344v-344h-84v344q-156 -149 -283 -344z" />
    <glyph glyph-name="uni0417" unicode="&#x417;" horiz-adv-x="563" 
d="M473 193q0 -101 -70.5 -154.5t-186.5 -53.5q-122 0 -195 42l26 65q26 -15 70 -27t94 -12q79 0 125.5 35.5t46.5 104.5q0 145 -206 145h-47v62h50q77 0 126 33.5t49 96.5q0 52 -36.5 80t-98.5 28q-91 0 -150 -36l-26 60q70 43 181 43q96 0 156.5 -43.5t60.5 -123.5
q0 -63 -39.5 -105.5t-95.5 -55.5q71 -16 118.5 -60t47.5 -124z" />
    <glyph glyph-name="uni0418" unicode="&#x418;" horiz-adv-x="611" 
d="M551 -2h-85v507l3 67q-218 -345 -332 -574h-85v694h85v-498l-3 -71q120 238 334 569h83v-694z" />
    <glyph glyph-name="uni0419" unicode="&#x419;" horiz-adv-x="716" 
d="M578 -2h-84v507l3 67q-210 -330 -332 -574h-86v694h85v-498l-3 -71q117 231 335 569h82v-694zM424 877l55 -27q-34 -98 -148 -98q-116 0 -143 103l57 22q23 -62 88 -62q67 0 91 62z" />
    <glyph glyph-name="uni041A" unicode="&#x41a;" horiz-adv-x="611" 
d="M549 -2h-60q-7 0 -19 0.5t-19 0.5q-130 197 -283 343v-344h-85v694h85v-314q170 185 269 314h96q-73 -89 -283 -325q184 -183 299 -369z" />
    <glyph glyph-name="uni041B" unicode="&#x41b;" horiz-adv-x="652" 
d="M496 0q-82 256 -175 519q-6 17 -11.5 35.5l-9 30t-6.5 17.5q-3 -5 -7 -16t-10 -30.5t-12 -35.5q-84 -230 -177 -520h-84q140 407 254 694h76q115 -296 253 -694h-91z" />
    <glyph glyph-name="uni041C" unicode="&#x41c;" horiz-adv-x="869" 
d="M752 -2h-83q-34 450 -46 580q-1 0 -3.5 -6.5t-7.5 -21.5l-9 -27q-1 -4 -73.5 -200t-98.5 -276h-65q-25 79 -94.5 267.5l-76.5 208.5l-8.5 24.5l-7 21t-3.5 9.5q-24 -251 -48 -580h-79q41 468 68 694h49q5 0 16.5 -0.5t17.5 -0.5q123 -313 178 -472q7 -19 14 -43t8 -27
q2 0 5.5 10t9 28.5t9.5 30.5q80 230 180 474h81q30 -254 67 -694z" />
    <glyph glyph-name="uni041D" unicode="&#x41d;" horiz-adv-x="698" 
d="M563 -2h-85v327h-311v-327h-86v694h86v-300h311v300h85v-694z" />
    <glyph glyph-name="uni041E" unicode="&#x41e;" horiz-adv-x="678" 
d="M540 347q0 128 -51 209.5t-150 81.5t-150 -81.5t-51 -209.5q0 -129 50.5 -210.5t150.5 -81.5q101 0 151 81.5t50 210.5zM628 345q0 -165 -77.5 -262t-211.5 -97q-133 0 -211 97t-78 262q0 164 78 262t211 98t211 -98t78 -262z" />
    <glyph glyph-name="uni041F" unicode="&#x41f;" horiz-adv-x="584" 
d="M534 -4h-84v630h-316v-630h-84v699h484v-699z" />
    <glyph glyph-name="uni0420" unicode="&#x420;" horiz-adv-x="599" 
d="M436 488q0 77 -47.5 113t-132.5 36q-41 0 -91 -10v-289q10 0 27.5 -0.5t26.5 -0.5q14 -1 27 -1q96 0 143 37t47 115zM522 487q0 -103 -69 -159t-203 -56q-13 0 -26 1q-10 0 -29.5 0.5t-29.5 0.5v-276h-84v674q76 28 175 28q132 0 199 -56t67 -157z" />
    <glyph glyph-name="uni0421" unicode="&#x421;" horiz-adv-x="565" 
d="M355 636q-71 0 -120.5 -40t-72 -103.5t-22.5 -144.5q0 -105 35.5 -179.5t105.5 -99.5q30 -12 67 -12h8q74 0 136 34l23 -63q-22 -17 -69.5 -29.5t-105.5 -12.5q-131 0 -210.5 98.5t-79.5 260.5q0 159 82.5 259.5t209.5 100.5q108 0 167 -43l-24 -63q-58 37 -130 37z" />
    <glyph glyph-name="uni0422" unicode="&#x422;" horiz-adv-x="484" 
d="M464 626h-179v-628h-86v628h-179v66h444v-66z" />
    <glyph glyph-name="uni0423" unicode="&#x423;" horiz-adv-x="565" 
d="M67 -2q0 11 0.5 32.5t0.5 31.5q21 -4 38 -4q18 0 34 4q79 5 106 90q-7 11 -18 32.5t-17 30.5q-92 189 -205 477h91q56 -164 142 -354q1 -3 21 -52l27 -67l58 165q34 99 97 308h89q-71 -219 -179 -495q-17 -43 -29 -68t-31.5 -54.5t-41 -45t-53 -26.5t-71.5 -11
q-22 0 -59 6z" />
    <glyph glyph-name="uni0424" unicode="&#x424;" horiz-adv-x="861" 
d="M357 108v503h-16q-101 0 -156 -68.5t-55 -183.5q0 -113 59 -182t166 -69h2zM440 611v-503h14q101 0 157 67.5t56 184.5q0 112 -58.5 181.5t-166.5 69.5h-2zM440 -39h-83v81h-15q-129 0 -213.5 85t-84.5 231t85.5 232.5t217.5 86.5h10v71h83v-71h11q131 0 217 -86t86 -232
t-84.5 -231.5t-214.5 -85.5h-15v-81z" />
    <glyph glyph-name="uni0425" unicode="&#x425;" horiz-adv-x="617" 
d="M542 -2h-60q-7 0 -19 0.5t-18 0.5q-50 104 -165 297q-114 -189 -170 -298h-89q66 127 213 362l-197 332h96l149 -266h1l157 266h88l-198 -327q143 -232 212 -367z" />
    <glyph glyph-name="uni0426" unicode="&#x426;" horiz-adv-x="707" 
d="M560 64h76v-217h-82v151h-473v694h86v-628h308v628h85v-628z" />
    <glyph glyph-name="uni0427" unicode="&#x427;" horiz-adv-x="619" 
d="M505 -2h-85v279q-54 -24 -142 -24q-225 0 -225 229v210h85v-210q0 -160 148 -160q92 0 134 28v342h85v-694z" />
    <glyph glyph-name="uni0428" unicode="&#x428;" horiz-adv-x="974" 
d="M824 -2h-743v694h86v-628h243v628h85v-628h244v628h85v-694z" />
    <glyph glyph-name="uni0429" unicode="&#x429;" horiz-adv-x="989" 
d="M812 -2h-731v694h86v-628h243v628h85v-628h243v628h86v-628h70v-217h-82v151z" />
    <glyph glyph-name="uni042A" unicode="&#x42a;" horiz-adv-x="716" 
d="M509 210q0 81 -50.5 121.5t-140.5 40.5q-60 0 -99 -7v-296q48 -13 101 -13q189 0 189 154zM-11 692h230v-261q42 7 95 7q136 0 208.5 -57t72.5 -170q0 -110 -71 -165.5t-203 -55.5q-110 0 -184 31v606h-148v65z" />
    <glyph glyph-name="uni042B" unicode="&#x42b;" horiz-adv-x="837" 
d="M702 -2h-85v694h85v-694zM263 372q-50 0 -99 -7v-296q46 -13 99 -13q185 0 185 154q0 80 -49.5 120.5t-135.5 41.5zM81 692h83v-261q41 7 92 7q134 0 206.5 -57t72.5 -170q0 -110 -71 -165.5t-201 -55.5q-106 0 -182 31v671z" />
    <glyph glyph-name="uni042C" unicode="&#x42c;" horiz-adv-x="605" 
d="M453 210q0 81 -50.5 121.5t-140.5 40.5q-59 0 -98 -7v-296q46 -13 100 -13q189 0 189 154zM81 692h83v-261q41 7 94 7q135 0 208.5 -57t73.5 -170q0 -110 -71.5 -165.5t-203.5 -55.5q-110 0 -184 31v671z" />
    <glyph glyph-name="uni042D" unicode="&#x42d;" horiz-adv-x="615" 
d="M200 635q-79 0 -136 -33l-22 62q64 41 170 41q129 0 209 -99.5t80 -260.5q0 -163 -80.5 -261t-213.5 -98q-103 0 -167 41l24 63q54 -31 123 -31h13q39 0 69 10q67 24 102.5 92t38.5 164h-255v68h254q-9 110 -62 176t-147 66z" />
    <glyph glyph-name="uni042E" unicode="&#x42e;" horiz-adv-x="1022" 
d="M755 347q0 128 -49 209.5t-146 81.5t-146 -81.5t-49 -209.5q0 -129 48.5 -210.5t146.5 -81.5t146.5 81.5t48.5 210.5zM843 345q0 -165 -76.5 -262t-206.5 -97q-126 0 -201.5 91.5t-80.5 248.5h-111v-328h-86v694h86v-300h112q11 144 86 228.5t195 84.5q131 0 207 -98
t76 -262z" />
    </font>
</defs>
</svg>
