<?xml version="1.0" standalone="no"?>
<!DOCTYPE svg PUBLIC "-//W3C//DTD SVG 1.1//EN" "http://www.w3.org/Graphics/SVG/1.1/DTD/svg11.dtd" >
<svg>
<metadata>
Created by FontForge 20090622 at Mon Sep  4 15:02:52 2017
 By deploy user
Copyright (c) 2015 by Context Ltd. All rights reserved.
</metadata>
<defs>
<font id="Repo-Black" horiz-adv-x="586" >
  <font-face 
    font-family="Repo"
    font-weight="900"
    font-stretch="normal"
    units-per-em="1000"
    panose-1="2 0 5 3 4 0 0 2 0 4"
    ascent="800"
    descent="-200"
    x-height="544"
    cap-height="718"
    bbox="-588 -357 1471 1321"
    underline-thickness="120"
    underline-position="-183"
    unicode-range="U+0009-U+FB04"
  />
<missing-glyph horiz-adv-x="514" 
d="M50 0v530h486v-530h-486zM69 74v-2q65 144 202 283q-40 18 -77 25q-72 -123 -125 -306zM348 313q-144 -73 -272 -241q178 125 340 183q-36 38 -68 58zM97 72h420q-9 58 -40 101q-216 -29 -380 -101z" />
    <glyph glyph-name="f_f" unicode="ff" horiz-adv-x="854" 
d="M748 398h-132v-411h-191v364l-14 47l-45 7l15 138l44 5q0 121 39 177t143 68q74 5 156 -18l-19 -141q-68 13 -98 -7.5t-30 -82.5h132v-146zM456 398h-132v-411h-191v364l-14 47l-45 7l15 138l44 5q0 121 39 177t143 68q74 5 156 -18l-19 -141q-68 13 -98 -7.5t-30 -82.5
h132v-146z" />
    <glyph glyph-name="f_i" unicode="fi" horiz-adv-x="693" 
d="M294 801q68 0 143 -32l-34 -157q-56 24 -95 24q-42 0 -58.5 -21.5t-16.5 -64.5h188v-164h-188v-411h-186v582q0 115 63 179.5t184 64.5zM645 550v-575h-186v575h186zM660 677q0 -49 -31.5 -78t-76.5 -29t-76.5 29t-31.5 78t31.5 78t76.5 29t76.5 -29t31.5 -78z" />
    <glyph glyph-name="f_l" unicode="fl" horiz-adv-x="765" 
d="M294 801q68 0 143 -32l-34 -157q-56 24 -95 24q-42 0 -58.5 -21.5t-16.5 -64.5h188v-164h-188v-411h-186v582q0 115 63 179.5t184 64.5zM784 72l-30 -86q-85 1 -140.5 16t-84 45.5t-39 66.5t-10.5 90v576h191v-557q0 -78 24 -106t89 -45z" />
    <glyph glyph-name="f_f_i" unicode="ffi" horiz-adv-x="1105" 
d="M294 801q84 0 156 -35l-38 -158q-62 28 -104 28t-58 -21t-17 -65h188v-164h-188v-411h-186v582q0 115 63 179.5t184 64.5zM707 801q67 0 142 -32l-34 -157q-55 24 -95 24q-42 0 -58 -21t-17 -65h188v-164h-188v-411h-186v582q0 115 63 179.5t185 64.5zM969 751
q43 -14 71.5 -55t28.5 -99q0 -44 -14 -80q-30 -47 -91 -47q-26 0 -55 12q-50 60 -50 143q0 44 14 80q32 46 96 46zM1060 82q-118 -8 -183 -8q-8 131 -8 255q0 121 8 254h175q8 -262 8 -501z" />
    <glyph glyph-name="f_f_l" unicode="ffl" horiz-adv-x="1218" 
d="M294 801q84 0 156 -35l-38 -158q-62 28 -104 28t-58 -21t-17 -65h188v-164h-188v-411h-186v582q0 115 63 179.5t184 64.5zM707 801q67 0 142 -32l-34 -157q-55 24 -95 24q-42 0 -58 -21t-17 -65h188v-164h-188v-411h-186v582q0 115 63 179.5t185 64.5zM1185 72l-30 -86
q-85 1 -140.5 16t-84 45.5t-39 66.5t-10.5 90v576h191v-557q0 -78 24 -106t89 -45z" />
    <glyph glyph-name=".notdef" horiz-adv-x="514" 
d="M50 0v530h486v-530h-486zM69 74v-2q65 144 202 283q-40 18 -77 25q-72 -123 -125 -306zM348 313q-144 -73 -272 -241q178 125 340 183q-36 38 -68 58zM97 72h420q-9 58 -40 101q-216 -29 -380 -101z" />
    <glyph glyph-name=".null" horiz-adv-x="0" 
 />
    <glyph glyph-name=".null" horiz-adv-x="0" 
 />
    <glyph glyph-name="nonmarkingreturn" horiz-adv-x="333" 
 />
    <glyph glyph-name="CR" unicode="&#x9;" horiz-adv-x="238" 
 />
    <glyph glyph-name="space" unicode=" " horiz-adv-x="307" 
 />
    <glyph glyph-name="exclam" unicode="!" horiz-adv-x="299" 
d="M240 796l-3 -304q-1 -54 -14 -141t-15 -117h-119q-2 28 -15.5 115.5t-14.5 142.5l-3 304q2 1 8.5 4.5t10 5t11 4t15 4t20 2.5t26.5 1q17 0 30.5 -1t24 -4t14.5 -4.5t13.5 -6t10.5 -5.5zM249 86q0 -45 -29 -72.5t-71 -27.5q-41 0 -70 27.5t-29 71.5t27 72t72 28
q42 0 71 -28t29 -71z" />
    <glyph glyph-name="quotedbl" unicode="&#x22;" horiz-adv-x="518" 
d="M226 796q-13 -169 -37 -316h-102q-24 147 -37 316q42 21 88 21q44 0 88 -21zM468 796q-13 -169 -37 -316h-102q-28 184 -37 316q42 21 88 21q44 0 88 -21z" />
    <glyph glyph-name="numbersign" unicode="#" horiz-adv-x="692" 
d="M604 398h-97l-18 -97h98v-124h-120l-34 -190h-138l34 190h-82l-34 -190h-139l34 190h-74v124h96l18 96h-97v125h120l33 181h138l-33 -181h82l33 181h138q-13 -80 -33 -181h75v-124zM368 398h-81l-18 -97h81z" />
    <glyph glyph-name="dollar" unicode="$" horiz-adv-x="567" 
d="M519 203q0 -75 -46 -131.5t-132 -74.5l6 -132h-136l6 127q-108 8 -176 48l50 144q52 -30 113 -38q22 -3 43 -3q75 1 75 52q0 25 -20 40.5t-68 35.5q-38 16 -62.5 29.5t-54 37.5t-44.5 57.5t-16 76.5q-2 15 1 26q5 71 48.5 121.5t122.5 68.5q-1 20 -2.5 60t-2.5 60h134
q-1 -19 -2.5 -57.5t-2.5 -58.5q82 -10 141 -39l-39 -136q-74 34 -138 34q-71 0 -71 -49q0 -24 22.5 -40.5t79.5 -43.5q10 -4 15 -7q76 -36 116 -84t40 -124z" />
    <glyph glyph-name="percent" unicode="%" horiz-adv-x="904" 
d="M865 207q0 -96 -39.5 -157.5t-118.5 -61.5q-78 0 -118 61.5t-40 157.5t40 158t118 62q79 0 118.5 -61.5t39.5 -158.5zM700 800l-396 -950l-153 28l396 949zM346 494q0 -97 -40 -159t-119 -62t-119 62t-40 159t40.5 159.5t118.5 62.5q79 0 119 -62.5t40 -159.5zM751 208
q2 130 -44 130q-45 0 -43 -130q0 -130 43 -130q44 0 44 130zM231 495q0 131 -44 131q-45 0 -45 -131q0 -130 45 -130q44 0 44 130z" />
    <glyph glyph-name="ampersand" unicode="&#x26;" horiz-adv-x="703" 
d="M28 191q0 123 124 200q-50 63 -53 123q0 28 4 47q12 70 63.5 108.5t132.5 38.5q90 0 140.5 -47t50.5 -118q0 -106 -114 -183l88 -89q19 37 29 87l133 -11q-5 -38 -20.5 -89t-34.5 -87q77 -87 122 -171h-164q-27 36 -53 62q-90 -71 -202 -71q-128 0 -187 59t-59 141z
M179 203q0 -31 25 -55t73 -24q64 0 107 31l-142 144q-63 -39 -63 -96zM348 537q0 21 -13 34t-39 13t-40.5 -15.5t-14.5 -41.5q0 -41 42 -82q65 40 65 92z" />
    <glyph glyph-name="quotesingle" unicode="'" horiz-adv-x="246" 
d="M215 723l-4 -79q-3 -64 -26 -238h-115q-21 126 -27 242l-3 75q27 19 73 19q60 0 102 -19z" />
    <glyph glyph-name="parenleft" unicode="(" horiz-adv-x="349" 
d="M391 -155l-113 -68q-232 244 -232 515q0 273 232 515l113 -67q-152 -214 -152 -448t152 -447z" />
    <glyph glyph-name="parenright" unicode=")" horiz-adv-x="349" 
d="M338 292q0 -270 -232 -515l-113 68q151 211 151 447q0 235 -151 448l113 67q232 -244 232 -515z" />
    <glyph glyph-name="asterisk" unicode="*" horiz-adv-x="497" 
d="M173 693h142q0 -3 0.5 -20t0.5 -27.5t-4 -32t-11 -45.5q69 40 117 50l44 -135q-28 -19 -125 -28q67 -51 85 -93l-111 -84q-39 34 -68 108q-37 -92 -65 -108l-115 84q3 9 10.5 19.5t18.5 22t19.5 19.5t21.5 19t15 13q-90 6 -123 28l42 134q33 -2 117 -49q-21 69 -11 125z
" />
    <glyph glyph-name="plus" unicode="+" horiz-adv-x="567" 
d="M522 239h-159v-166h-149v166h-160v149h160v166h149v-166h159v-149z" />
    <glyph glyph-name="comma" unicode="," horiz-adv-x="296" 
d="M256 143q-23 -140 -132 -323l-121 32q37 113 57 262q1 5 3 23t2 19l31.5 9t30 8.5t24 5.5t27 4.5t25.5 1.5q23 0 38.5 -11t14.5 -31z" />
    <glyph glyph-name="hyphen" unicode="-" horiz-adv-x="386" 
d="M346 238h-306v142h306v-142z" />
    <glyph glyph-name="period" unicode="." horiz-adv-x="275" 
d="M246 86q0 -49 -32 -79.5t-78 -30.5q-45 0 -77.5 30.5t-32.5 78.5t32.5 79t77.5 31t77.5 -30.5t32.5 -78.5z" />
    <glyph glyph-name="slash" unicode="/" horiz-adv-x="425" 
d="M383 803l154 -28l-411 -997l-154 29z" />
    <glyph glyph-name="zero" unicode="0" horiz-adv-x="567" 
d="M549 346q0 -105 -26 -186.5t-86.5 -133t-148.5 -51.5t-148.5 51.5t-87 133t-26.5 186.5q0 104 26.5 185.5t87 133t148.5 51.5t148.5 -51.5t86.5 -132.5t26 -186zM361 347q0 108 -16 165.5t-57 57.5q-74 0 -74 -223q0 -224 74 -224q41 0 57 57.5t16 166.5z" />
    <glyph glyph-name="one" unicode="1" horiz-adv-x="567" 
d="M433 -13h-194v494q-60 -28 -142 -40l-31 91l1 47q76 17 136 50.5t92 73.5h138v-716z" />
    <glyph glyph-name="two" unicode="2" horiz-adv-x="567" 
d="M525 -13h-495q3 29 20 68q1 23 11 50.5t22 49t33.5 50.5t35 45l38.5 44.5l32 36.5v-1l15 17q60 71 72 108q7 23 6 42q-3 60 -70 63q-7 1 -23 -1q-92 -31 -125 -51l-71 129q100 79 231 79q135 0 196 -59t61 -152q0 -57 -33.5 -111t-97.5 -122l-8 -11q-47 -49 -59 -67
q-18 -20 -35 -43h244v-164z" />
    <glyph glyph-name="three" unicode="3" horiz-adv-x="567" 
d="M525 209q0 -105 -76 -169.5t-213 -64.5q-126 0 -222 45l44 148q81 -38 158 -38q53 0 81 21.5t28 58.5q0 75 -114 82q-21 2 -66 2v131q54 3 90 13q71 15 71 67q0 29 -21 44t-57 15q-65 0 -141 -41l-58 134q103 59 218 59q122 0 186 -53.5t64 -143.5q0 -41 -23.5 -76.5
t-59.5 -58.5v-1q111 -52 111 -174z" />
    <glyph glyph-name="four" unicode="4" horiz-adv-x="567" 
d="M553 129h-62v-142h-185v142h-285v121q122 233 291 453h179v-442h62v-132zM309 480q-6 -5 -30 -49q-90 -153 -99 -170h126v126q0 21 1.5 54.5t1.5 38.5z" />
    <glyph glyph-name="five" unicode="5" horiz-adv-x="567" 
d="M531 210q0 -105 -76.5 -170t-211.5 -65q-62 0 -122.5 13t-97.5 31l44 148q74 -37 156 -37q54 0 81.5 21.5t27.5 57.5q0 113 -269 93q22 184 38 401h399v-163h-249q-1 -16 -3.5 -51t-4.5 -51q146 -5 217 -65t71 -163z" />
    <glyph glyph-name="six" unicode="6" horiz-adv-x="567" 
d="M549 218q0 -102 -68 -172.5t-187 -70.5q-132 0 -197.5 82t-65.5 214q0 104 37.5 188.5t100 136.5t137 81t154.5 32q7 -28 18 -83t12 -62q-173 -15 -235 -124q22 5 47 5q113 0 180 -58.5t67 -168.5zM364 223q0 97 -92 97q-22 0 -53 -9q-3 -54 -3 -57q4 -134 79 -134
q35 0 52 30t17 73z" />
    <glyph glyph-name="seven" unicode="7" horiz-adv-x="567" 
d="M556 703l-23 -94l-19 -78q-19 -21 -30 -41q-143 -290 -167 -503h-157q-33 9 -56 14q75 281 215 538h-284v164h521z" />
    <glyph glyph-name="eight" unicode="8" horiz-adv-x="567" 
d="M547 185q0 -95 -69.5 -152.5t-190.5 -57.5q-124 0 -191.5 60t-65.5 148q1 56 28 96t80 75q-92 69 -92 160q0 87 67.5 144.5t173.5 57.5q97 0 159 -42.5t78 -109.5q6 -24 5 -47q-1 -89 -93 -154q111 -73 111 -178zM360 520q0 25 -19 43.5t-50 18.5q-32 0 -51.5 -18.5
t-19.5 -43.5q0 -28 17 -49t62 -44q61 42 61 93zM366 183q0 31 -22 53t-72 48q-67 -42 -67 -100q0 -27 22.5 -48t58.5 -21q38 0 59 19t21 49z" />
    <glyph glyph-name="nine" unicode="9" horiz-adv-x="567" 
d="M542 414q0 -104 -35 -187t-95.5 -135t-136 -80t-161.5 -31q-19 116 -28 146q175 13 236 125q-24 -7 -50 -7q-113 0 -180.5 57.5t-67.5 169.5q0 101 68 172t187 71q134 0 198.5 -82t64.5 -219zM357 426q-2 148 -80 148q-35 0 -52 -29.5t-17 -72.5q0 -97 93 -97q30 0 52 9
q4 16 4 42z" />
    <glyph glyph-name="colon" unicode=":" horiz-adv-x="273" 
d="M246 442q0 -49 -32 -79.5t-78 -30.5q-45 0 -77.5 30.5t-32.5 78.5t32.5 79t77.5 31t77.5 -30.5t32.5 -78.5zM246 86q0 -49 -32 -79.5t-78 -30.5q-45 0 -77.5 30.5t-32.5 78.5t32.5 79t77.5 31t77.5 -30.5t32.5 -78.5z" />
    <glyph glyph-name="semicolon" unicode=";" horiz-adv-x="280" 
d="M247 442q0 -49 -32.5 -79.5t-78.5 -30.5q-45 0 -77 30.5t-32 78.5t32 79t77 31q46 0 78.5 -30.5t32.5 -78.5zM256 143q-23 -140 -132 -323l-121 32q37 113 57 262q1 5 3 23t2 19l31.5 9t30 8.5t24 5.5t27 4.5t25.5 1.5q23 0 38.5 -11t14.5 -31z" />
    <glyph glyph-name="less" unicode="&#x3c;" horiz-adv-x="567" 
d="M499 63l-445 186v129l445 186q6 -38 26 -148l-275 -102l275 -103q-17 -90 -26 -148z" />
    <glyph glyph-name="equal" unicode="=" horiz-adv-x="567" 
d="M522 495v-143h-468v143h468zM522 132h-468v142h468v-142z" />
    <glyph glyph-name="greater" unicode="&#x3e;" horiz-adv-x="567" 
d="M521 249l-444 -186q-17 90 -26 148l275 103l-275 102q8 50 26 148l444 -186v-129z" />
    <glyph glyph-name="question" unicode="?" horiz-adv-x="443" 
d="M418 548q0 -38 -17 -72t-41.5 -58l-48.5 -46.5t-41.5 -48.5t-17.5 -53v-50h-142q-5 35 -5 55q0 32 20 66.5t44.5 59.5t44.5 53t20 47q0 35 -18 58t-52 23q-8 0 -15 -0.5t-14 -2t-11.5 -2t-11.5 -3.5t-10 -4t-10.5 -5t-8.5 -4.5t-9.5 -6t-9.5 -5.5l-40 114q24 15 78.5 30
t95.5 15q107 0 163.5 -36.5t56.5 -123.5zM285 86q0 -45 -29 -72.5t-71 -27.5t-71 27.5t-29 71.5t27.5 72t72.5 28q41 0 70.5 -28t29.5 -71z" />
    <glyph glyph-name="at" unicode="@" horiz-adv-x="969" 
d="M859 374q2 -122 -52.5 -216.5t-132.5 -97.5q-56 -2 -84.5 12t-47.5 52q-25 -32 -72.5 -47.5t-88.5 -8.5q-56 10 -87.5 58.5t-31.5 122.5q0 93 57 171t148 78q45 0 69 -39l7 30l84 -13l-30 -275q-5 -29 6.5 -49t39.5 -20q43 0 69 90t15 170q-12 93 -75.5 155.5
t-155.5 62.5q-131 0 -216.5 -91.5t-100.5 -230.5q-17 -157 55.5 -252t232.5 -95q143 0 233 80q9 -27 29 -102q-96 -91 -262 -91q-107 0 -190.5 37t-133.5 100t-74 141.5t-19 164.5q7 137 73 242t171.5 159.5t232.5 52.5q138 -2 233.5 -101t98.5 -250zM492 192l14 129
q3 25 -11 40t-43 14q-39 -1 -56.5 -26t-23.5 -70q-6 -40 8 -73t42 -34q38 -2 70 20z" />
    <glyph glyph-name="A" unicode="A" horiz-adv-x="715" 
d="M704 -13h-212l-37 134h-217q-4 -14 -19.5 -61.5t-22.5 -72.5h-191q158 468 257 716h185q122 -314 257 -716zM416 261l-51 169l-18 65q-4 -10 -17 -57q-10 -37 -54 -177h140z" />
    <glyph glyph-name="B" unicode="B" horiz-adv-x="665" 
d="M617 199q0 -220 -318 -220q-138 0 -242 32v668q99 32 231 32q146 0 225 -51.5t79 -152.5q0 -90 -88 -137q51 -24 82 -67.5t31 -103.5zM400 498q0 74 -100 74h-2h-6q-20 0 -43 -3v-147h38q60 0 86.5 17t26.5 59zM418 206q0 47 -31 67.5t-100 20.5q-7 0 -19.5 -0.5
t-18.5 -0.5v-168q26 -4 50 -4q119 0 119 85z" />
    <glyph glyph-name="C" unicode="C" horiz-adv-x="607" 
d="M566 29q-78 -54 -209 -54q-157 0 -239.5 102t-82.5 268q0 163 88.5 267t238.5 104q120 0 199 -54l-49 -143q-59 35 -127 35q-57 0 -94.5 -39.5t-44.5 -110.5q-8 -46 -4 -89q6 -71 39 -119t93 -52q22 -3 46 2q43 4 96 28z" />
    <glyph glyph-name="D" unicode="D" horiz-adv-x="731" 
d="M649 345q0 -171 -93 -268.5t-275 -97.5q-124 0 -224 31v670q110 31 222 31q182 0 276 -95.5t94 -270.5zM448 347q0 111 -37.5 161.5t-121.5 50.5q-23 0 -35 -2v-421q10 -2 34 -2q83 0 121.5 50.5t38.5 162.5z" />
    <glyph glyph-name="E" unicode="E" horiz-adv-x="598" 
d="M508 -13h-451v716h439v-154h-240v-123h211v-151h-211v-134h252v-154z" />
    <glyph glyph-name="F" unicode="F" horiz-adv-x="565" 
d="M494 549h-238v-123h209v-152h-209v-287h-199v716h437v-154z" />
    <glyph glyph-name="G" unicode="G" horiz-adv-x="695" 
d="M612 19q-88 -43 -235 -43q-168 0 -256.5 98.5t-88.5 271.5q0 167 95.5 268.5t255.5 101.5q130 0 226 -55l-59 -143q-56 30 -120 35q-98 7 -147 -45t-49 -162q0 -104 36 -159t106 -55q36 0 46 4v133h-73v152h263v-402z" />
    <glyph glyph-name="H" unicode="H" horiz-adv-x="727" 
d="M631 -13h-199v288h-176v-288h-199v716h199v-278h176v278h199v-716z" />
    <glyph glyph-name="I" unicode="I" horiz-adv-x="305" 
d="M256 -13h-199v716h199v-716z" />
    <glyph glyph-name="J" unicode="J" horiz-adv-x="522" 
d="M369 144q0 -245 -234 -266q-78 -6 -162 28q6 29 18 82.5t15 65.5q77 -24 114 17q50 42 50 164v10v458h199v-559z" />
    <glyph glyph-name="K" unicode="K" horiz-adv-x="670" 
d="M668 -13h-179q-25 4 -52 6q-86 168 -181 296v-302h-199v716h199v-270q27 29 53.5 66.5t43 64.5l43 72.5l39.5 66.5h221q-111 -159 -243 -329q125 -157 255 -387z" />
    <glyph glyph-name="L" unicode="L" horiz-adv-x="553" 
d="M488 -13h-431v716h199v-562h232v-154z" />
    <glyph glyph-name="M" unicode="M" horiz-adv-x="892" 
d="M817 -13h-192q-15 330 -21 404q-2 -2 -14 -36l-115 -323h-114q-93 255 -116 323q-3 7 -5.5 14.5l-4.5 14t-2 7.5q-8 -55 -21 -404h-180q39 508 64 716h187l116 -316l9.5 -30.5l9 -29t5.5 -16.5q2 0 6 11.5l10 30t10 28.5q71 190 125 322h179q25 -208 64 -716z" />
    <glyph glyph-name="N" unicode="N" horiz-adv-x="748" 
d="M645 -13h-119l-39 7q-104 178 -212 337q-6 9 -15.5 25.5t-16 26.5t-8.5 10q0 -6 1 -43t1 -60v-303h-180v716h161q99 -127 209 -295q9 -13 22 -35.5t17 -26.5q0 14 -1 62t-1 75v220h181v-716z" />
    <glyph glyph-name="O" unicode="O" horiz-adv-x="718" 
d="M683 345q0 -169 -86.5 -269.5t-237.5 -100.5q-150 0 -237 100.5t-87 269.5t87.5 270t236.5 101q150 0 237 -101t87 -270zM480 349q0 93 -30.5 152.5t-90.5 59.5q-61 0 -91 -59.5t-30 -152.5t30 -152.5t91 -59.5t91 59.5t30 152.5z" />
    <glyph glyph-name="P" unicode="P" horiz-adv-x="636" 
d="M599 471q0 -245 -322 -244q-4 0 -12 0.5t-12 0.5v-241h-196v692q107 32 229 32q158 0 235.5 -62t77.5 -178zM403 472q0 52 -27.5 74.5t-84.5 22.5q-11 0 -38 -3v-195h24q66 -1 96 22t30 79z" />
    <glyph glyph-name="Q" unicode="Q" horiz-adv-x="787" 
d="M680 345q0 -118 -45 -204t-127 -128q34 -36 146 -82l-94 -141q-170 53 -217 191q-40 2 -67 11q-118 18 -181 113.5t-63 239.5q0 168 88 269.5t236 101.5q150 0 237 -101t87 -270zM478 350q0 93 -30.5 152t-91.5 59q-60 0 -90.5 -59.5t-30.5 -151.5q0 -94 30 -153.5
t91 -59.5t91.5 59.5t30.5 153.5z" />
    <glyph glyph-name="R" unicode="R" horiz-adv-x="673" 
d="M644 -13h-218q-89 182 -141 274h-31v-274h-197v692q110 32 226 32q158 0 238 -60t80 -175q0 -61 -35 -111t-89 -73v-1q21 -27 47 -71t38.5 -68l45.5 -91.5zM402 471q0 50 -28 75t-68 25q-28 0 -52 -6v-197h52q40 0 68 27.5t28 75.5z" />
    <glyph glyph-name="S" unicode="S" horiz-adv-x="572" 
d="M509 200q0 -102 -72 -163.5t-197 -61.5q-141 0 -225 54l51 152q73 -44 153 -44q83 0 83 55q0 29 -27 47.5t-104 49.5q-139 65 -143 193q-1 24 4 55q15 81 82 130t167 49q115 0 203 -51l-51 -142q-70 38 -131 38q-77 0 -77 -50q0 -15 7.5 -27t27.5 -24t36.5 -19.5
t54.5 -22.5q88 -41 123 -90.5t35 -127.5z" />
    <glyph glyph-name="T" unicode="T" horiz-adv-x="603" 
d="M532 549h-160v-562h-199v562h-160v154h519v-154z" />
    <glyph glyph-name="U" unicode="U" horiz-adv-x="703" 
d="M611 234q0 -120 -74.5 -190t-206.5 -70q-115 0 -188 56t-84 154q-6 47 -6 98v421h199v-390q0 -99 15.5 -137t68.5 -38q80 0 83 96q0 13 0.5 39.5t0.5 40.5v389h192v-469z" />
    <glyph glyph-name="V" unicode="V" horiz-adv-x="706" 
d="M663 703q-132 -406 -252 -716h-118l-58 8q-125 321 -248 708h211l96 -339q5 -16 12.5 -43.5l13 -46t10.5 -28.5q4 11 10 30t14 47.5t13 44.5q52 172 96 335h200z" />
    <glyph glyph-name="W" unicode="W" horiz-adv-x="944" 
d="M897 703q-82 -393 -170 -716h-174q-47 149 -87 292q-4 15 -9.5 39.5t-7.5 30.5q-1 -2 -17 -69q-32 -117 -86 -293h-174q-84 302 -170 716h202q34 -205 57 -328q14 -85 20 -105q2 4 4.5 16t7 31l7.5 31q40 149 79 317h152q40 -175 77 -312l7.5 -30.5l7.5 -31t5 -19.5
q1 1 12 70q29 145 65 361h192z" />
    <glyph glyph-name="X" unicode="X" horiz-adv-x="698" 
d="M676 -13h-186q-16 3 -44 7q-48 107 -102 204q-72 -126 -109 -211h-213q84 161 212 367l-201 349h223l97 -188h1l102 188h209l-203 -336q108 -169 214 -380z" />
    <glyph glyph-name="Y" unicode="Y" horiz-adv-x="646" 
d="M619 703q-108 -226 -222 -432v-284h-198v283q-119 220 -221 433h218q50 -130 109 -250q70 149 111 250h203z" />
    <glyph glyph-name="Z" unicode="Z" horiz-adv-x="602" 
d="M527 -13h-516v131q36 83 136 243t116 188h-230v154h497v-111q-21 -49 -122.5 -208t-142.5 -243h262v-154z" />
    <glyph glyph-name="bracketleft" unicode="[" horiz-adv-x="361" 
d="M363 -213h-302v1010h302v-135h-127v-740h127v-135z" />
    <glyph glyph-name="backslash" unicode="\" horiz-adv-x="425" 
d="M537 -193l-154 -29l-411 997l153 28z" />
    <glyph glyph-name="bracketright" unicode="]" horiz-adv-x="361" 
d="M309 -213h-302v135h126v740h-126v135h302v-1010z" />
    <glyph glyph-name="asciicircum" unicode="^" horiz-adv-x="567" 
d="M570 389l-120 -77l-150 209l-151 -209l-118 77l177 269q23 34 58 51q58 0 107 -18q20 -36 47 -78.5l47 -72.5l53.5 -78.5z" />
    <glyph glyph-name="underscore" unicode="_" horiz-adv-x="578" 
d="M578 -223h-578v143h578v-143z" />
    <glyph glyph-name="grave" unicode="`" horiz-adv-x="312" 
d="M307 576h-136l-168 215h224z" />
    <glyph glyph-name="a" unicode="a" horiz-adv-x="546" 
d="M508 12q-105 -35 -238 -35q-251 0 -251 186q0 175 268 190q17 0 37 -2q-5 63 -79 63q-75 0 -153 -31l-33 136q99 37 213 37q204 0 231 -164q5 -26 5 -69v-311zM326 113v123q-26 0 -40 -1q-82 -7 -82 -66q0 -60 75 -60q33 0 47 4z" />
    <glyph glyph-name="b" unicode="b" horiz-adv-x="601" 
d="M570 275q0 -142 -77.5 -220.5t-217.5 -78.5q-134 0 -226 38v766h192v-243q42 17 92 17q109 0 173 -76.5t64 -202.5zM379 270q0 71 -19.5 107.5t-67.5 36.5q-29 0 -51 -10v-283q12 -3 40 -3q98 0 98 152z" />
    <glyph glyph-name="c" unicode="c" horiz-adv-x="494" 
d="M449 14q-63 -38 -158 -38q-126 0 -195 78t-69 213q0 130 73 209.5t187 79.5q86 0 157 -39l-40 -133q-50 24 -87 24q-96 0 -96 -140t99 -140q45 0 94 26z" />
    <glyph glyph-name="d" unicode="d" horiz-adv-x="601" 
d="M549 24q-90 -48 -232 -48q-135 0 -212.5 75t-77.5 213q0 132 68 210.5t181 78.5q47 0 82 -11v238h191v-756zM358 124v282q-20 10 -47 10q-92 0 -92 -146q0 -150 99 -150q20 0 40 4z" />
    <glyph glyph-name="e" unicode="e" horiz-adv-x="578" 
d="M544 220l-323 -22q21 -72 113 -72q86 0 154 32l34 -140q-84 -42 -209 -42q-140 0 -213 80t-73 209q0 134 74 212.5t193 78.5q111 0 176 -64t72 -182q2 -56 2 -90zM360 328q-5 90 -70 90q-36 0 -55.5 -27t-21.5 -74z" />
    <glyph glyph-name="f" unicode="f" horiz-adv-x="447" 
d="M397 398h-132v-411h-191v411h-52v145l52 1q0 125 39 184t143 65q74 5 156 -18l-19 -141q-68 13 -98 -7.5t-30 -82.5h132v-146z" />
    <glyph glyph-name="g" unicode="g" horiz-adv-x="591" 
d="M541 30q0 -250 -271 -250q-120 0 -215 40l40 146q57 -25 111 -32q32 -4 67 3q39 3 60 21.5t21 46.5v12q-30 -15 -87 -15q-109 0 -174.5 70t-65.5 194q0 135 76 212t217 77q131 0 221 -38v-487zM353 148v266q-13 4 -39 4q-95 0 -95 -145q0 -135 86 -135q26 0 48 10z" />
    <glyph glyph-name="h" unicode="h" 
d="M547 -13h-191v273q0 95 -10 119q-14 32 -58 32q-29 0 -47 -7v-417h-192v793h192v-240q30 10 63 12q63 4 108.5 -8.5t71.5 -34.5t40.5 -59.5t18.5 -73.5t4 -86v-303z" />
    <glyph glyph-name="i" unicode="i" horiz-adv-x="281" 
d="M250 686q0 -43 -30.5 -70.5t-74.5 -27.5t-74 27.5t-30 70.5t30 70.5t74 27.5t74.5 -27.5t30.5 -70.5zM241 -13h-191v557h191v-557z" />
    <glyph glyph-name="j" unicode="j" horiz-adv-x="281" 
d="M250 686q0 -43 -30 -70.5t-74 -27.5t-74.5 27.5t-30.5 70.5t30.5 70.5t73.5 27.5q44 0 74.5 -28t30.5 -70zM242 47q0 -113 -52 -178.5t-149 -78.5q-44 -10 -105 3l13 113q28 8 42 14t30 19.5t22.5 36.5t6.5 59v509h192v-497z" />
    <glyph glyph-name="k" unicode="k" horiz-adv-x="566" 
d="M596 -13h-216l-34 68q-35 68 -63 115t-42 52v-235h-191v793h191v-430q79 109 134 194h212l-193 -246q107 -137 202 -311z" />
    <glyph glyph-name="l" unicode="l" horiz-adv-x="384" 
d="M354 72l-30 -86q-85 1 -140.5 16t-84 45.5t-39 66.5t-10.5 90v576h191v-557q0 -78 24 -106t89 -45z" />
    <glyph glyph-name="m" unicode="m" horiz-adv-x="862" 
d="M836 -13h-191v275v45t-2 35t-5.5 31t-10.5 20t-18 14.5t-27 3.5q-24 0 -48 -13q4 -31 4 -150v-261h-191v274v8q0 36 -0.5 52t-3.5 37.5t-9.5 30.5t-19 15.5t-31.5 6.5q-24 0 -42 -5v-419h-192v530q112 39 238 39q104 0 162 -47q71 46 169 46q54 0 94 -13.5t63.5 -35.5
t37.5 -57.5t18.5 -72.5t4.5 -87v-302z" />
    <glyph glyph-name="n" unicode="n" 
d="M547 -13h-191v274q0 94 -10 118q-14 32 -58 32q-28 0 -47 -5v-419h-192v521q78 47 244 47q65 0 111.5 -13t74 -34.5t43 -57t20.5 -72t5 -89.5v-302z" />
    <glyph glyph-name="o" unicode="o" horiz-adv-x="603" 
d="M562 266q0 -130 -72 -210t-195 -80t-195.5 80t-72.5 210q0 129 74 209.5t194 80.5q121 0 194 -80.5t73 -209.5zM370 268q0 143 -75 143q-76 0 -76 -143t76 -143q75 0 75 143z" />
    <glyph glyph-name="p" unicode="p" horiz-adv-x="601" 
d="M570 266q0 -131 -66.5 -209t-180.5 -78q-52 0 -82 11v-203h-192v730q103 38 232 38q135 0 212 -75.5t77 -213.5zM379 264q0 150 -98 150q-28 0 -40 -4v-282q25 -9 46 -9q92 0 92 145z" />
    <glyph glyph-name="q" unicode="q" horiz-adv-x="601" 
d="M549 -213h-191v208q-40 -17 -91 -17q-110 0 -175 75.5t-65 202.5q0 136 75 217.5t221 81.5q128 0 226 -38v-730zM358 130v281q-13 4 -41 4q-98 0 -98 -152q0 -144 87 -144q30 0 52 11z" />
    <glyph glyph-name="r" unicode="r" horiz-adv-x="414" 
d="M403 539q-26 -116 -31 -135q-40 9 -63 8q-38 1 -68 -7v-418h-192v524q102 42 225 43q59 2 129 -15z" />
    <glyph glyph-name="s" unicode="s" horiz-adv-x="476" 
d="M435 155q0 -84 -61 -131.5t-171 -47.5q-106 0 -188 41l42 142q70 -36 131 -36q53 0 53 30q0 15 -20 28t-72 34q-62 29 -90.5 67t-28.5 94q0 80 57 130t152 50q99 0 179 -39l-41 -132q-60 29 -110 29q-48 0 -48 -30q0 -9 3 -14.5t11 -11t16 -9.5l26 -12.5t33 -16.5
q71 -32 99 -69.5t28 -95.5z" />
    <glyph glyph-name="t" unicode="t" horiz-adv-x="480" 
d="M439 4q-49 -21 -109 -26q-65 -3 -109.5 12.5t-67 49t-32.5 69t-14 87.5q-2 88 -2 202h-75v145h75v137h192v-136h129v-146h-129v-181q0 -51 9 -70.5t39 -20.5q36 -1 79 17q14 -129 15 -139z" />
    <glyph glyph-name="u" unicode="u" 
d="M541 25q-65 -48 -245 -48q-133 0 -191 59t-58 178v330h191v-272q0 -89 8 -112q13 -35 56 -35q28 0 48 5v414h191v-519z" />
    <glyph glyph-name="v" unicode="v" horiz-adv-x="539" 
d="M550 544q-96 -314 -194 -557h-127q-18 3 -47 7q-104 263 -191 550h203q37 -160 62 -254q4 -14 8 -32.5l6.5 -30.5t4.5 -17q1 0 20 80q38 135 65 254h190z" />
    <glyph glyph-name="w" unicode="w" horiz-adv-x="783" 
d="M807 544q-76 -284 -167 -557h-164q-57 199 -62 218q-4 15 -8 38t-5 27q-71 -270 -75 -283h-164q-85 257 -166 557h195q35 -179 52 -248q12 -73 13 -74l7 32q10 56 37.5 161t32.5 129h151q8 -37 31 -133t33 -153q6 -27 8 -35q1 0 3 10.5t5 29.5l5 31q29 122 56 250h182z
" />
    <glyph glyph-name="x" unicode="x" horiz-adv-x="545" 
d="M562 -13h-210q-41 85 -83 157q-7 -4 -20.5 -27t-25 -45.5l-26 -51.5l-16.5 -33h-196q76 139 180 287l-98 154q-47 70 -75 116h207l79 -137h1l82 137h192l-175 -262q106 -155 184 -295z" />
    <glyph glyph-name="y" unicode="y" horiz-adv-x="572" 
d="M562 544q-94 -321 -216 -650q-25 -56 -59.5 -77.5t-97.5 -21.5q-44 0 -134 29l39 129q36 -14 53 -14q9 0 16 3.5t11 7.5t8 13l6 13.5t5 16.5t4 15q-111 279 -188 536h201q30 -138 59 -245q22 -91 23 -93q2 5 5.5 19t8 36.5t8.5 38.5q30 112 61 244h187z" />
    <glyph glyph-name="z" unicode="z" horiz-adv-x="493" 
d="M454 -13h-438v119q24 40 91.5 143.5t94.5 148.5h-170v146h419v-100l-56 -83l-35 -52.5l-37 -55.5t-34.5 -54.5l-39.5 -65.5h205v-146z" />
    <glyph glyph-name="braceleft" unicode="{" horiz-adv-x="363" 
d="M382 -167q-142 0 -207.5 46.5t-65.5 162.5v105q0 59 -19.5 81.5t-71.5 23.5v115q2 1 15.5 5.5t16 5.5l13.5 5.5t13.5 7t10.5 7.5t10 10t6 12t5 15t1 18v139q0 113 67 158.5t206 45.5v-127q-57 0 -78.5 -14.5t-21.5 -58.5v-144q0 -99 -79 -136q34 -2 56.5 -47.5
t22.5 -91.5v-145q0 -43 21.5 -57.5t78.5 -14.5v-127z" />
    <glyph glyph-name="bar" unicode="|" horiz-adv-x="312" 
d="M226 -213h-165v1010h165v-1010z" />
    <glyph glyph-name="braceright" unicode="}" horiz-adv-x="363" 
d="M375 264q-5 -2 -18 -6.5l-17.5 -6t-14.5 -6.5t-14 -8.5t-10.5 -10t-9 -13t-4.5 -16t-2 -21.5v-140q0 -113 -67 -158t-207 -45v127q59 0 80 15t21 61v141q0 103 79 138l-1 1q-78 37 -78 136v106q0 72 -16.5 91.5t-84.5 19.5v127q142 0 208 -45t66 -159v-139q0 -73 90 -73
v-116z" />
    <glyph glyph-name="asciitilde" unicode="~" horiz-adv-x="567" 
d="M568 372q-15 -61 -53.5 -103.5t-101.5 -44.5q-47 -2 -114.5 35t-97.5 35q-51 -4 -72 -80l-96 82q42 148 154 150q46 2 113.5 -35t96.5 -35q27 2 44 19.5t30 57.5z" />
    <glyph glyph-name="uni00A0" unicode="&#xa0;" horiz-adv-x="238" 
 />
    <glyph glyph-name="exclamdown" unicode="&#xa1;" horiz-adv-x="284" 
d="M240 4v-210h-195v210q0 130 26 317h19h103h22q25 -195 25 -317zM254 467q0 -51 -28.5 -81t-82.5 -30q-45 0 -79 32t-34 79q0 51 33 81.5t79 30.5t79 -30.5t33 -81.5z" />
    <glyph glyph-name="cent" unicode="&#xa2;" horiz-adv-x="567" 
d="M212 -134v151q-90 28 -136 101t-46 175q0 95 48.5 168t133.5 104v152h179v-139q42 -7 104 -32l-44 -158q-50 20 -87 26q-24 3 -40 2q-51 -2 -78 -34.5t-27 -88.5q0 -119 110 -123q20 -2 42 1q47 6 102 30l28 -163q-52 -23 -110 -31v-141h-179z" />
    <glyph glyph-name="sterling" unicode="&#xa3;" horiz-adv-x="567" 
d="M278 461v-47h172v-160h-173l-1 -39q-1 -23 -7 -76h263v-164h-474q28 129 34 241l2 38h-87v160h88v35q0 154 68 218t191 64q78 0 172 -40l-49 -158q-65 32 -113 33q-42 0 -64 -23t-22 -82z" />
    <glyph glyph-name="currency" unicode="&#xa4;" horiz-adv-x="567" 
d="M557 170l-91 -90l-74 73q-46 -26 -104 -26q-56 0 -104 26l-74 -72l-91 89l73 72q-28 48 -28 104q0 55 28 103l-73 72l91 90l74 -72q47 25 104 25q60 0 104 -26l74 72l91 -89l-73 -71q27 -45 27 -104q0 -60 -27 -105zM369 346q0 36 -23.5 60t-57.5 24q-33 0 -57 -24
t-24 -60t23.5 -60t57.5 -24t57.5 24t23.5 60z" />
    <glyph glyph-name="yen" unicode="&#xa5;" horiz-adv-x="567" 
d="M378 -25h-188v111h-150v134h150v40h-150v134h90q-106 188 -168 324h209q91 -203 116 -248q13 27 110 248h214q-78 -160 -173 -324h90v-134h-150v-40h150v-134h-150v-111z" />
    <glyph glyph-name="brokenbar" unicode="&#xa6;" horiz-adv-x="296" 
d="M58 -210v444h180v-444h-180zM58 364v444h180v-444h-180z" />
    <glyph glyph-name="section" unicode="&#xa7;" horiz-adv-x="510" 
d="M514 261q0 -83 -88 -148q51 -48 51 -117q1 -81 -56.5 -127.5t-161.5 -46.5q-123 0 -208 49q3 8 18 52.5t24 68.5q29 -10 120 -22q20 -2 40 3q41 3 41 24q0 14 -12 25.5t-46 27.5q-51 28 -81 48t-61 49t-45 63.5t-14 77.5q0 90 88 154q-40 43 -40 102q-2 75 55 122.5
t155 47.5q101 0 187 -42l-44 -130q-50 24 -94 29q-22 3 -40 -1q-40 -3 -40 -26q0 -15 11.5 -26.5t41.5 -27.5q10 -8 14 -12q102 -56 143.5 -99.5t41.5 -117.5zM350 245q0 10 -3.5 19.5t-12 19.5l-15 17t-22 17.5t-22 14.5l-26.5 16t-24 15q-32 -23 -33 -51q-2 -7 0 -15
q2 -21 23.5 -42.5t43 -34.5t58.5 -32q33 25 33 56z" />
    <glyph glyph-name="dieresis" unicode="&#xa8;" horiz-adv-x="508" 
d="M228 702q0 -44 -28.5 -70t-69.5 -26t-69 26t-28 70t28.5 70.5t68.5 26.5q41 0 69.5 -26.5t28.5 -70.5zM475 702q0 -44 -28 -70t-69 -26t-69 26t-28 70t28.5 70.5t68.5 26.5t68.5 -26.5t28.5 -70.5z" />
    <glyph glyph-name="copyright" unicode="&#xa9;" horiz-adv-x="945" 
d="M901 345q0 -195 -124 -315.5t-304 -120.5t-304 120.5t-124 315.5t124 316t304 121t304 -121t124 -316zM775 346q0 81 -25.5 143.5t-69.5 98.5t-96 54t-111 18t-111 -18t-96 -54t-69.5 -98.5t-25.5 -143.5t25.5 -144.5t69 -101.5t96 -58t111.5 -21q58 0 111 19.5t96 58
t69 102.5t26 145zM604 242l55 -81q-79 -65 -172 -65q-106 0 -172.5 70t-66.5 180q0 108 67.5 175t171.5 67q93 0 165 -66l-68 -79q-39 38 -97 38q-52 0 -80 -38.5t-28 -96.5t34 -102t87 -44q11 0 20.5 1.5t16 3.5t16 7l14.5 7.5t18 10.5t19 12z" />
    <glyph glyph-name="ordfeminine" unicode="&#xaa;" horiz-adv-x="446" 
d="M229 408q23 0 33 1v57q-10 1 -31 1q-45 -1 -45 -28q0 -15 9 -23t34 -8zM221 733q104 0 147 -46.5t43 -134.5v-241q-104 -24 -187 -24q-191 0 -191 148q0 75 59 109.5t146 34.5q6 0 24 -2v8q0 17 -24 27t-60 8q-38 -4 -90 -20l-22 108q80 25 155 25z" />
    <glyph glyph-name="guillemotleft" unicode="&#xab;" horiz-adv-x="574" 
d="M556 116l-127 -65l-165 258l165 258q1 0 127 -65l-111 -193zM301 116l-126 -65l-165 258l165 258l68 -35.5l58 -29.5l-110 -193z" />
    <glyph glyph-name="logicalnot" unicode="&#xac;" horiz-adv-x="567" 
d="M522 73h-150v193h-318v143h468v-336z" />
    <glyph glyph-name="uni00AD" unicode="&#xad;" horiz-adv-x="342" 
d="M18 236v143h308v-143h-308z" />
    <glyph glyph-name="registered" unicode="&#xae;" horiz-adv-x="951" 
d="M901 345q0 -195 -124 -315.5t-304 -120.5t-304 120.5t-124 315.5t124 316t304 121t304 -121t124 -316zM775 346q0 81 -25.5 143.5t-69.5 98.5t-96 54t-111 18t-111 -18t-96 -54t-69.5 -98.5t-25.5 -143.5t25.5 -144.5t69 -101.5t96 -58t111.5 -21q58 0 111 19.5t96 58
t69 102.5t26 145zM671 125h-138q-62 126 -88 172h-20v-172h-124v436q69 20 142 20q201 0 201 -148q0 -39 -22 -70t-56 -46v-1q13 -17 29 -43.5t25 -44.5l28 -56t23 -47zM518 430q0 31 -17.5 47t-42.5 16q-17 0 -33 -4v-124h33q25 0 42.5 17.5t17.5 47.5z" />
    <glyph glyph-name="macron" unicode="&#xaf;" horiz-adv-x="376" 
d="M370 602h-364v145h364v-145z" />
    <glyph glyph-name="degree" unicode="&#xb0;" horiz-adv-x="356" 
d="M363 584q0 -74 -50 -122t-121 -48q-72 0 -122 48t-50 122q0 73 50 121t122 48q70 0 120.5 -48t50.5 -121zM245 584q0 23 -15.5 39t-37.5 16q-23 0 -38.5 -16t-15.5 -39q0 -24 15.5 -39.5t38.5 -15.5q22 0 37.5 15.5t15.5 39.5z" />
    <glyph glyph-name="plusminus" unicode="&#xb1;" horiz-adv-x="567" 
d="M522 373h-159v-166h-149v166h-160v149h160v166h149v-166h159v-149zM25 0v164h517v-164h-517z" />
    <glyph glyph-name="twosuperior" unicode="&#xb2;" horiz-adv-x="362" 
d="M333 588q0 -33 -15.5 -62.5t-31 -45t-45.5 -40.5q-19 -16 -25 -26h128v-135h-329q-3 29 -3 52q0 54 28 97.5t86 92.5h-1q53 44 53 59q0 12 -15 12q-39 0 -101 -49l-74 113q37 33 85.5 55.5t94.5 22.5q165 0 165 -146z" />
    <glyph glyph-name="threesuperior" unicode="&#xb3;" horiz-adv-x="362" 
d="M149 408q43 0 43 17q0 12 -14.5 20.5t-38.5 8.5h-61v95h36q18 0 39 14t21 25q0 6 -15 8q-17 2 -75 -18q-22 -7 -35 -14l-54 116q83 54 164 54q145 0 161 -108q2 -10 2 -31q-3 -40 -30 -70q47 -33 49 -96q1 -15 -2 -33q-17 -125 -189 -125q-80 0 -158 38l33 131
q76 -32 124 -32z" />
    <glyph glyph-name="acute" unicode="&#xb4;" horiz-adv-x="338" 
d="M155 597h-137l80 215h225z" />
    <glyph glyph-name="mu" unicode="&#xb5;" horiz-adv-x="591" 
d="M547 15q-93 -37 -211 -37q-53 0 -97 17q2 -34 2 -109v-90h-192v748h192v-329q1 -24 2 -32.5t4.5 -25t9.5 -22.5t18 -11.5t29 -5.5q31 0 52 7v419h191v-529z" />
    <glyph glyph-name="paragraph" unicode="&#xb6;" horiz-adv-x="695" 
d="M263 701q80 4 186 4h125v-918h-145v796l-65 1v-797h-146v471q-201 35 -201 219q0 102 66.5 158.5t179.5 65.5z" />
    <glyph glyph-name="periodcentered" unicode="&#xb7;" horiz-adv-x="246" 
d="M246 311q0 -48 -32.5 -78.5t-78.5 -30.5q-45 0 -77 30.5t-32 78.5t32 79t77 31q46 0 78.5 -31t32.5 -79z" />
    <glyph glyph-name="cedilla" unicode="&#xb8;" horiz-adv-x="334" 
d="M245 -29q51 -36 51 -92q0 -57 -41.5 -88.5t-115.5 -31.5q-47 0 -115 20l27 130q3 -1 14 -4t21.5 -5.5t20.5 -4.5q22 -3 30 1q-8 4 -56 20q9 29 28 71t29 58h146q-3 -4 -39 -74z" />
    <glyph glyph-name="onesuperior" unicode="&#xb9;" horiz-adv-x="362" 
d="M63 506l-38 115q89 40 163 105h113v-447h-155v260q-24 -12 -83 -33z" />
    <glyph glyph-name="ordmasculine" unicode="&#xba;" horiz-adv-x="534" 
d="M499 503q0 -109 -64.5 -174t-167.5 -65t-167.5 65t-64.5 174q0 110 64.5 175.5t167.5 65.5t167.5 -65.5t64.5 -175.5zM331 503q0 40 -17 63.5t-47 23.5t-47 -23.5t-17 -63.5q0 -39 17 -62t47 -23t47 23t17 62z" />
    <glyph glyph-name="guillemotright" unicode="&#xbb;" horiz-adv-x="574" 
d="M568 309l-165 -258l-127 65l111 193l-111 193l127 65zM314 309l-166 -258l-126 65l111 193l-111 193l58 29.5l68 35.5z" />
    <glyph glyph-name="onequarter" unicode="&#xbc;" horiz-adv-x="941" 
d="M864 165h47v-102h-47v-87h-138v87h-187v101q78 138 198 259h127v-258zM182 -25l423 743h183l-421 -743h-185zM639 165h89v121q-46 -49 -89 -121zM73 506l-38 115q87 40 164 105h112v-447h-155v260q-29 -14 -83 -33z" />
    <glyph glyph-name="onehalf" unicode="&#xbd;" horiz-adv-x="1001" 
d="M63 506l-38 115q89 40 163 105h113v-447h-155v260q-24 -12 -83 -33zM193 -25l390 743h182l-387 -743h-185zM964 286q0 -25 -7 -46.5t-23.5 -41.5t-27 -30t-34.5 -31q-20 -17 -25 -26h128v-134h-329q-3 28 -3 52q0 54 28 97t86 92h-1q46 40 51 52q2 4 2 8q0 11 -15 11
q-42 0 -101 -49l-75 114q91 77 181 77q165 0 165 -145z" />
    <glyph glyph-name="threequarters" unicode="&#xbe;" horiz-adv-x="976" 
d="M208 -25l431 743h182l-429 -743h-184zM194 590q-2 8 -10 10t-15 0.5t-16 -4t-11 -2.5q-10 -2 -52 -30l-55 116q85 54 164 54q148 0 162 -111q2 -18 1 -28q-1 -38 -29 -70q46 -33 49 -96q0 -10 -2 -30q-16 -128 -190 -128q-82 0 -158 38l34 131q75 -32 123 -32q43 0 43 17
q0 21 -92 21h-22v95q47 0 62 22q21 13 14 27zM899 165h47v-102h-47v-87h-138v87h-187v101q82 141 198 259h127v-258zM675 165h89v121q-50 -53 -89 -121z" />
    <glyph glyph-name="questiondown" unicode="&#xbf;" horiz-adv-x="443" 
d="M193 -16q0 -18 15 -28t41 -10q58 0 150 48l56 -150q-102 -64 -220 -64q-67 0 -115 18t-72.5 48.5t-35.5 62t-11 66.5q0 41 17 77.5t41.5 63l49 50.5t41.5 50t17 51q0 15 -4 49h44h85h39q8 -34 8 -68q0 -47 -23 -89.5t-50 -68t-50 -54.5t-23 -52zM361 480
q0 -55 -31.5 -87.5t-81.5 -32.5t-81 32.5t-31 87.5q0 50 33 80.5t79 30.5t79.5 -30.5t33.5 -80.5z" />
    <glyph glyph-name="Agrave" unicode="&#xc0;" horiz-adv-x="708" 
d="M704 -13h-212l-37 134h-217q-4 -14 -19.5 -61.5t-22.5 -72.5h-191q158 468 257 716h185q122 -314 257 -716zM416 261l-51 169l-18 65q-4 -10 -17 -57q-10 -37 -54 -177h140zM399 765h-136l-168 215h224z" />
    <glyph glyph-name="Aacute" unicode="&#xc1;" horiz-adv-x="708" 
d="M704 -13h-212l-37 134h-217q-4 -14 -19.5 -61.5t-22.5 -72.5h-191q158 468 257 716h185q122 -314 257 -716zM416 261l-51 169l-18 65q-4 -10 -17 -57q-10 -37 -54 -177h140zM395 784h-137l80 215h225z" />
    <glyph glyph-name="Acircumflex" unicode="&#xc2;" horiz-adv-x="708" 
d="M704 -13h-212l-37 134h-217q-4 -14 -19.5 -61.5t-22.5 -72.5h-191q158 468 257 716h185q122 -314 257 -716zM416 261l-51 169l-18 65q-4 -10 -17 -57q-10 -37 -54 -177h140zM326 841l-105 -84l-84 98l189 169l186 -169l-81 -98z" />
    <glyph glyph-name="Atilde" unicode="&#xc3;" horiz-adv-x="708" 
d="M704 -13h-212l-37 134h-217q-4 -14 -19.5 -61.5t-22.5 -72.5h-191q158 468 257 716h185q122 -314 257 -716zM416 261l-51 169l-18 65q-4 -10 -17 -57q-10 -37 -54 -177h140zM406 778q-27 0 -68 17.5t-57 17.5q-19 0 -44 -55l-109 70q20 52 58 93t88 41q27 0 67.5 -18
t57.5 -18t44 55l112 -72q-75 -131 -149 -131z" />
    <glyph glyph-name="Adieresis" unicode="&#xc4;" horiz-adv-x="708" 
d="M704 -13h-212l-37 134h-217q-4 -14 -19.5 -61.5t-22.5 -72.5h-191q158 468 257 716h185q122 -314 257 -716zM416 261l-51 169l-18 65q-4 -10 -17 -57q-10 -37 -54 -177h140zM298 884q0 -44 -28.5 -70t-69.5 -26t-69 26t-28 70t28.5 70.5t68.5 26.5q41 0 69.5 -26.5
t28.5 -70.5zM545 884q0 -44 -28 -70t-69 -26t-69 26t-28 70t28.5 70.5t68.5 26.5t68.5 -26.5t28.5 -70.5z" />
    <glyph glyph-name="Aring" unicode="&#xc5;" horiz-adv-x="708" 
d="M704 -13h-212l-37 134h-217q-4 -14 -19.5 -61.5t-22.5 -72.5h-191q158 468 257 716h185q122 -314 257 -716zM416 261l-51 169l-18 65q-4 -10 -17 -57q-10 -37 -54 -177h140zM467 893q0 -64 -40.5 -100.5t-100.5 -36.5q-58 0 -98.5 36.5t-40.5 100.5t40.5 100.5t98.5 36.5
q60 0 100.5 -36.5t40.5 -100.5zM349 893q0 11 -7 17.5t-16 6.5q-21 0 -21 -24q0 -23 21 -23q10 0 16.5 6t6.5 17z" />
    <glyph glyph-name="AE" unicode="&#xc6;" horiz-adv-x="981" 
d="M971 -25h-510v168h-191q-80 -146 -90 -168h-213q252 459 456 743h524v-170h-298v-102h263v-167h-263v-134h322v-170zM461 307v165q-57 -86 -79 -126l-25 -39h104z" />
    <glyph glyph-name="Ccedilla" unicode="&#xc7;" horiz-adv-x="642" 
d="M483 -109q10 -32 0 -58q-32 -74 -147 -74q-46 0 -114 20l27 130q54 -17 79 -17q1 1 -4 7q-7 4 -46 17q3 10 10 29.5t9 25.5q-131 25 -200.5 121t-69.5 255q0 180 105 283.5t268 103.5q129 0 242 -66l-59 -162q-91 52 -182 52q-77 0 -126.5 -53t-49.5 -156
q0 -97 44.5 -154.5t136.5 -57.5t190 48l55 -161q-85 -50 -194 -59q28 -30 26 -74z" />
    <glyph glyph-name="Egrave" unicode="&#xc8;" horiz-adv-x="598" 
d="M508 -13h-451v716h439v-154h-240v-123h211v-151h-211v-134h252v-154zM348 765h-136l-168 215h224z" />
    <glyph glyph-name="Eacute" unicode="&#xc9;" horiz-adv-x="598" 
d="M508 -13h-451v716h439v-154h-240v-123h211v-151h-211v-134h252v-154zM344 784h-137l80 215h225z" />
    <glyph glyph-name="Ecircumflex" unicode="&#xca;" horiz-adv-x="598" 
d="M508 -13h-451v716h439v-154h-240v-123h211v-151h-211v-134h252v-154zM275 841l-105 -84l-84 98l189 169l186 -169l-81 -98z" />
    <glyph glyph-name="Edieresis" unicode="&#xcb;" horiz-adv-x="598" 
d="M508 -13h-451v716h439v-154h-240v-123h211v-151h-211v-134h252v-154zM247 884q0 -44 -28.5 -70t-69.5 -26t-69 26t-28 70t28.5 70.5t68.5 26.5q41 0 69.5 -26.5t28.5 -70.5zM494 884q0 -44 -28 -70t-69 -26t-69 26t-28 70t28.5 70.5t68.5 26.5t68.5 -26.5t28.5 -70.5z
" />
    <glyph glyph-name="Igrave" unicode="&#xcc;" horiz-adv-x="305" 
d="M256 -13h-199v716h199v-716zM228 765h-136l-168 215h224z" />
    <glyph glyph-name="Iacute" unicode="&#xcd;" horiz-adv-x="305" 
d="M256 -13h-199v716h199v-716zM224 784h-137l80 215h225z" />
    <glyph glyph-name="Icircumflex" unicode="&#xce;" horiz-adv-x="305" 
d="M256 -13h-199v716h199v-716zM155 841l-105 -84l-84 98l189 169l186 -169l-81 -98z" />
    <glyph glyph-name="Idieresis" unicode="&#xcf;" horiz-adv-x="305" 
d="M256 -13h-199v716h199v-716zM127 884q0 -44 -28.5 -70t-69.5 -26t-69 26t-28 70t28.5 70.5t68.5 26.5q41 0 69.5 -26.5t28.5 -70.5zM374 884q0 -44 -28 -70t-69 -26t-69 26t-28 70t28.5 70.5t68.5 26.5t68.5 -26.5t28.5 -70.5z" />
    <glyph glyph-name="Eth" unicode="&#xd0;" horiz-adv-x="743" 
d="M716 347q0 -188 -111.5 -284.5t-309.5 -96.5q-115 0 -227 23v293h-81v156h81v266q111 22 231 22q196 0 306.5 -93t110.5 -286zM260 282v-142q4 0 18 -0.5t25 -0.5q107 0 161.5 54.5t54.5 153.5q0 207 -212 207q-12 0 -27 -0.5t-20 -0.5v-115h127v-156h-127z" />
    <glyph glyph-name="Ntilde" unicode="&#xd1;" horiz-adv-x="748" 
d="M645 -13h-119l-39 7q-104 178 -212 337q-6 9 -15.5 25.5t-16 26.5t-8.5 10q0 -6 1 -43t1 -60v-303h-180v716h161q99 -127 209 -295q9 -13 22 -35.5t17 -26.5q0 14 -1 62t-1 75v220h181v-716zM438 752q-27 0 -68 18t-58 18t-44 -55l-108 70q19 51 56.5 92.5t88.5 41.5
q27 0 68 -18t58 -18t44 55l112 -72q-77 -132 -149 -132z" />
    <glyph glyph-name="Ograve" unicode="&#xd2;" horiz-adv-x="718" 
d="M683 345q0 -169 -86.5 -269.5t-237.5 -100.5q-150 0 -237 100.5t-87 269.5t87.5 270t236.5 101q150 0 237 -101t87 -270zM480 349q0 93 -30.5 152.5t-90.5 59.5q-61 0 -91 -59.5t-30 -152.5t30 -152.5t91 -59.5t91 59.5t30 152.5zM430 778h-136l-168 215h224z" />
    <glyph glyph-name="Oacute" unicode="&#xd3;" horiz-adv-x="718" 
d="M683 345q0 -169 -86.5 -269.5t-237.5 -100.5q-150 0 -237 100.5t-87 269.5t87.5 270t236.5 101q150 0 237 -101t87 -270zM480 349q0 93 -30.5 152.5t-90.5 59.5q-61 0 -91 -59.5t-30 -152.5t30 -152.5t91 -59.5t91 59.5t30 152.5zM426 797h-137l80 215h225z" />
    <glyph glyph-name="Ocircumflex" unicode="&#xd4;" horiz-adv-x="718" 
d="M683 345q0 -169 -86.5 -269.5t-237.5 -100.5q-150 0 -237 100.5t-87 269.5t87.5 270t236.5 101q150 0 237 -101t87 -270zM480 349q0 93 -30.5 152.5t-90.5 59.5q-61 0 -91 -59.5t-30 -152.5t30 -152.5t91 -59.5t91 59.5t30 152.5zM357 855l-105 -84l-84 98l189 169
l186 -169l-81 -98z" />
    <glyph glyph-name="Otilde" unicode="&#xd5;" horiz-adv-x="718" 
d="M683 345q0 -169 -86.5 -269.5t-237.5 -100.5q-150 0 -237 100.5t-87 269.5t87.5 270t236.5 101q150 0 237 -101t87 -270zM480 349q0 93 -30.5 152.5t-90.5 59.5q-61 0 -91 -59.5t-30 -152.5t30 -152.5t91 -59.5t91 59.5t30 152.5zM414 791q-27 0 -68 17.5t-57 17.5
q-19 0 -44 -55l-109 70q20 52 58 93t88 41q27 0 67.5 -18t57.5 -18t44 55l112 -72q-75 -131 -149 -131z" />
    <glyph glyph-name="Odieresis" unicode="&#xd6;" horiz-adv-x="718" 
d="M683 345q0 -169 -86.5 -269.5t-237.5 -100.5q-150 0 -237 100.5t-87 269.5t87.5 270t236.5 101q150 0 237 -101t87 -270zM480 349q0 93 -30.5 152.5t-90.5 59.5q-61 0 -91 -59.5t-30 -152.5t30 -152.5t91 -59.5t91 59.5t30 152.5zM328 897q0 -44 -28.5 -70t-69.5 -26
t-69 26t-28 70t28.5 70.5t68.5 26.5q41 0 69.5 -26.5t28.5 -70.5zM575 897q0 -44 -28 -70t-69 -26t-69 26t-28 70t28.5 70.5t68.5 26.5t68.5 -26.5t28.5 -70.5z" />
    <glyph glyph-name="multiply" unicode="&#xd7;" horiz-adv-x="567" 
d="M31 437l115 115l138 -139l138 139l115 -115l-139 -139l139 -138l-115 -114l-138 139l-138 -139l-115 114l139 138z" />
    <glyph glyph-name="Oslash" unicode="&#xd8;" horiz-adv-x="787" 
d="M761 347q0 -184 -102.5 -285t-264.5 -101q-104 0 -176 39l-60 -79l-119 89l65 84q-77 93 -77 253q0 182 106 284.5t261 102.5q93 0 173 -40l60 78l119 -89l-64 -82q79 -101 79 -254zM224 347q0 -44 13 -81l216 281q-24 12 -59 12q-79 0 -124.5 -58t-45.5 -154zM564 347
q0 46 -14 82l-218 -281q27 -12 62 -12q79 0 124.5 57t45.5 154z" />
    <glyph glyph-name="Ugrave" unicode="&#xd9;" horiz-adv-x="703" 
d="M611 234q0 -120 -74.5 -190t-206.5 -70q-115 0 -188 56t-84 154q-6 47 -6 98v421h199v-390q0 -99 15.5 -137t68.5 -38q80 0 83 96q0 13 0.5 39.5t0.5 40.5v389h192v-469zM408 765h-136l-168 215h224z" />
    <glyph glyph-name="Uacute" unicode="&#xda;" horiz-adv-x="703" 
d="M611 234q0 -120 -74.5 -190t-206.5 -70q-115 0 -188 56t-84 154q-6 47 -6 98v421h199v-390q0 -99 15.5 -137t68.5 -38q80 0 83 96q0 13 0.5 39.5t0.5 40.5v389h192v-469zM404 784h-137l80 215h225z" />
    <glyph glyph-name="Ucircumflex" unicode="&#xdb;" horiz-adv-x="703" 
d="M611 234q0 -120 -74.5 -190t-206.5 -70q-115 0 -188 56t-84 154q-6 47 -6 98v421h199v-390q0 -99 15.5 -137t68.5 -38q80 0 83 96q0 13 0.5 39.5t0.5 40.5v389h192v-469zM335 841l-105 -84l-84 98l189 169l186 -169l-81 -98z" />
    <glyph glyph-name="Udieresis" unicode="&#xdc;" horiz-adv-x="703" 
d="M611 234q0 -120 -74.5 -190t-206.5 -70q-115 0 -188 56t-84 154q-6 47 -6 98v421h199v-390q0 -99 15.5 -137t68.5 -38q80 0 83 96q0 13 0.5 39.5t0.5 40.5v389h192v-469zM307 884q0 -44 -28.5 -70t-69.5 -26t-69 26t-28 70t28.5 70.5t68.5 26.5q41 0 69.5 -26.5
t28.5 -70.5zM554 884q0 -44 -28 -70t-69 -26t-69 26t-28 70t28.5 70.5t68.5 26.5t68.5 -26.5t28.5 -70.5z" />
    <glyph glyph-name="Yacute" unicode="&#xdd;" horiz-adv-x="646" 
d="M619 703q-108 -226 -222 -432v-284h-198v283q-119 220 -221 433h218q50 -130 109 -250q70 149 111 250h203zM376 784h-137l80 215h225z" />
    <glyph glyph-name="Thorn" unicode="&#xde;" horiz-adv-x="636" 
d="M249 718v-101q19 1 52 1q153 0 239 -61.5t86 -192.5q0 -134 -87.5 -196t-258.5 -62h-31v-131h-193v743h193zM293 447q-32 0 -44 -2v-168h29q78 0 114.5 19t36.5 69q0 46 -35 64t-101 18z" />
    <glyph glyph-name="germandbls" unicode="&#xdf;" horiz-adv-x="649" 
d="M545 611q0 -78 -50 -136v1q-3 -4 -12 -14.5l-12.5 -14.5t-10 -12.5t-9 -13.5t-4.5 -11.5t-2 -12.5q0 -8 5 -15t18 -16t21.5 -13.5l29.5 -15.5q29 -18 46 -31t36 -33.5t27.5 -47.5t8.5 -62q0 -200 -234 -200q-20 0 -39 2.5t-37 8t-28.5 9t-28 11t-20.5 8.5l10 47l23 112
q52 -26 85 -31q27 -6 45 -3q39 3 39 34q0 18 -20.5 34t-61.5 35q-64 30 -85.5 65.5t-21.5 84.5q0 30 11 57t22.5 42.5t36.5 43.5v-1q19 23 26.5 36.5t7.5 33.5q0 45 -59 45q-77 0 -77 -97v-565h-184v553q0 30 5 65q13 96 77 152t175 56q120 0 180.5 -53t60.5 -137z" />
    <glyph glyph-name="agrave" unicode="&#xe0;" horiz-adv-x="546" 
d="M508 12q-105 -35 -238 -35q-251 0 -251 186q0 175 268 190q17 0 37 -2q-5 63 -79 63q-75 0 -153 -31l-33 136q99 37 213 37q204 0 231 -164q5 -26 5 -69v-311zM326 113v123q-26 0 -40 -1q-82 -7 -82 -66q0 -60 75 -60q33 0 47 4zM352 602h-136l-168 215h224z" />
    <glyph glyph-name="aacute" unicode="&#xe1;" horiz-adv-x="546" 
d="M508 12q-105 -35 -238 -35q-251 0 -251 186q0 175 268 190q17 0 37 -2q-5 63 -79 63q-75 0 -153 -31l-33 136q99 37 213 37q204 0 231 -164q5 -26 5 -69v-311zM326 113v123q-26 0 -40 -1q-82 -7 -82 -66q0 -60 75 -60q33 0 47 4zM313 623h-137l80 215h225z" />
    <glyph glyph-name="acircumflex" unicode="&#xe2;" horiz-adv-x="546" 
d="M508 12q-105 -35 -238 -35q-251 0 -251 186q0 175 268 190q17 0 37 -2q-5 63 -79 63q-75 0 -153 -31l-33 136q99 37 213 37q204 0 231 -164q5 -26 5 -69v-311zM326 113v123q-26 0 -40 -1q-82 -7 -82 -66q0 -60 75 -60q33 0 47 4zM278 678l-105 -84l-84 98l189 169
l186 -169l-81 -98z" />
    <glyph glyph-name="atilde" unicode="&#xe3;" horiz-adv-x="546" 
d="M508 12q-105 -35 -238 -35q-251 0 -251 186q0 175 268 190q17 0 37 -2q-5 63 -79 63q-75 0 -153 -31l-33 136q99 37 213 37q204 0 231 -164q5 -26 5 -69v-311zM326 113v123q-26 0 -40 -1q-82 -7 -82 -66q0 -60 75 -60q33 0 47 4zM336 614q-27 0 -68 17.5t-57 17.5
q-19 0 -44 -55l-109 70q20 52 58 93t88 41q27 0 67.5 -18t57.5 -18t44 55l112 -72q-75 -131 -149 -131z" />
    <glyph glyph-name="adieresis" unicode="&#xe4;" horiz-adv-x="546" 
d="M508 12q-105 -35 -238 -35q-251 0 -251 186q0 175 268 190q17 0 37 -2q-5 63 -79 63q-75 0 -153 -31l-33 136q99 37 213 37q204 0 231 -164q5 -26 5 -69v-311zM326 113v123q-26 0 -40 -1q-82 -7 -82 -66q0 -60 75 -60q33 0 47 4zM250 721q0 -44 -28.5 -70t-69.5 -26
t-69 26t-28 70t28.5 70.5t68.5 26.5q41 0 69.5 -26.5t28.5 -70.5zM497 721q0 -44 -28 -70t-69 -26t-69 26t-28 70t28.5 70.5t68.5 26.5t68.5 -26.5t28.5 -70.5z" />
    <glyph glyph-name="aring" unicode="&#xe5;" horiz-adv-x="546" 
d="M508 12q-105 -35 -238 -35q-251 0 -251 186q0 175 268 190q17 0 37 -2q-5 63 -79 63q-75 0 -153 -31l-33 136q99 37 213 37q204 0 231 -164q5 -26 5 -69v-311zM326 113v123q-26 0 -40 -1q-82 -7 -82 -66q0 -60 75 -60q33 0 47 4zM419 730q0 -64 -40.5 -100.5
t-100.5 -36.5q-58 0 -98.5 36.5t-40.5 100.5t40.5 100.5t98.5 36.5q60 0 100.5 -36.5t40.5 -100.5zM301 730q0 11 -7 17.5t-16 6.5q-21 0 -21 -24q0 -23 21 -23q10 0 16.5 6t6.5 17z" />
    <glyph glyph-name="ae" unicode="&#xe6;" horiz-adv-x="871" 
d="M511 339h149q-12 61 -72 61q-59 0 -77 -61zM260 -36q-248 0 -248 196q0 99 69 144t177 45q32 0 62 -4q-11 55 -78 55q-75 0 -158 -30l-25 161q92 32 197 32q115 0 169 -63q66 60 160 62q30 2 57 -3q97 -15 152 -88.5t55 -199.5q0 -12 -1.5 -39t-1.5 -38h-332
q25 -65 116 -65q84 0 163 37l26 -161q-60 -31 -154 -40q-31 -5 -60 -3q-101 1 -171 44q-78 -42 -174 -42zM326 203q-22 3 -45 3q-84 0 -84 -42q0 -44 71 -44q38 0 75 11q-14 38 -17 72z" />
    <glyph glyph-name="ccedilla" unicode="&#xe7;" horiz-adv-x="494" 
d="M368 -35q27 -30 27 -74q9 -25 3 -51q-27 -81 -150 -81q-47 0 -115 20l27 130q54 -17 80 -17q1 1 -5 7q-19 9 -44 16q9 38 20 61q-94 27 -142 103t-48 183q0 129 79 215t212 86q88 0 173 -38l-41 -158q-73 29 -121 29q-55 0 -83.5 -36t-28.5 -98q0 -66 27.5 -99.5
t91.5 -33.5q58 0 134 32l29 -163q-64 -26 -125 -33z" />
    <glyph glyph-name="egrave" unicode="&#xe8;" horiz-adv-x="578" 
d="M544 220l-323 -22q21 -72 113 -72q86 0 154 32l34 -140q-84 -42 -209 -42q-140 0 -213 80t-73 209q0 134 74 212.5t193 78.5q111 0 176 -64t72 -182q2 -56 2 -90zM360 328q-5 90 -70 90q-36 0 -55.5 -27t-21.5 -74zM357 603h-136l-168 215h224z" />
    <glyph glyph-name="eacute" unicode="&#xe9;" horiz-adv-x="578" 
d="M544 220l-323 -22q21 -72 113 -72q86 0 154 32l34 -140q-84 -42 -209 -42q-140 0 -213 80t-73 209q0 134 74 212.5t193 78.5q111 0 176 -64t72 -182q2 -56 2 -90zM360 328q-5 90 -70 90q-36 0 -55.5 -27t-21.5 -74zM353 622h-137l80 215h225z" />
    <glyph glyph-name="ecircumflex" unicode="&#xea;" horiz-adv-x="578" 
d="M544 220l-323 -22q21 -72 113 -72q86 0 154 32l34 -140q-84 -42 -209 -42q-140 0 -213 80t-73 209q0 134 74 212.5t193 78.5q111 0 176 -64t72 -182q2 -56 2 -90zM360 328q-5 90 -70 90q-36 0 -55.5 -27t-21.5 -74zM284 680l-105 -84l-84 98l189 169l186 -169l-81 -98z
" />
    <glyph glyph-name="edieresis" unicode="&#xeb;" horiz-adv-x="578" 
d="M544 220l-323 -22q21 -72 113 -72q86 0 154 32l34 -140q-84 -42 -209 -42q-140 0 -213 80t-73 209q0 134 74 212.5t193 78.5q111 0 176 -64t72 -182q2 -56 2 -90zM360 328q-5 90 -70 90q-36 0 -55.5 -27t-21.5 -74zM256 722q0 -44 -28.5 -70t-69.5 -26t-69 26t-28 70
t28.5 70.5t68.5 26.5q41 0 69.5 -26.5t28.5 -70.5zM503 722q0 -44 -28 -70t-69 -26t-69 26t-28 70t28.5 70.5t68.5 26.5t68.5 -26.5t28.5 -70.5z" />
    <glyph glyph-name="igrave" unicode="&#xec;" horiz-adv-x="281" 
d="M233 550v-575h-186v575h186zM214 603h-136l-168 215h224z" />
    <glyph glyph-name="iacute" unicode="&#xed;" horiz-adv-x="281" 
d="M233 550v-575h-186v575h186zM210 622h-137l80 215h225z" />
    <glyph glyph-name="icircumflex" unicode="&#xee;" horiz-adv-x="281" 
d="M233 550v-575h-186v575h186zM141 680l-105 -84l-84 98l189 169l186 -169l-81 -98z" />
    <glyph glyph-name="idieresis" unicode="&#xef;" horiz-adv-x="281" 
d="M233 550v-575h-186v575h186zM112 722q0 -44 -28.5 -70t-69.5 -26t-69 26t-28 70t28.5 70.5t68.5 26.5q41 0 69.5 -26.5t28.5 -70.5zM359 722q0 -44 -28 -70t-69 -26t-69 26t-28 70t28.5 70.5t68.5 26.5t68.5 -26.5t28.5 -70.5z" />
    <glyph glyph-name="eth" unicode="&#xf0;" horiz-adv-x="597" 
d="M21 236q0 130 75.5 200.5t205.5 70.5q26 0 63 -14q-8 32 -22 59l-93 -19l-50 90l54 23q-21 19 -69 52l111 113q82 -47 136 -104l125 42l42 -125l-88 -30q66 -123 66 -269q0 -108 -28 -187.5t-93 -128t-163 -48.5q-129 0 -200.5 78.5t-71.5 196.5zM388 321q-35 27 -85 27
q-94 0 -94 -111q0 -49 21.5 -78.5t62.5 -29.5q87 0 94 151q1 13 1 41z" />
    <glyph glyph-name="ntilde" unicode="&#xf1;" 
d="M547 -13h-191v274q0 94 -10 118q-14 32 -58 32q-28 0 -47 -5v-419h-192v521q78 47 244 47q65 0 111.5 -13t74 -34.5t43 -57t20.5 -72t5 -89.5v-302zM357 614q-27 0 -68 18t-58 18t-44 -55l-108 70q19 51 56.5 92.5t88.5 41.5q27 0 68 -18t58 -18t44 55l112 -72
q-77 -132 -149 -132z" />
    <glyph glyph-name="ograve" unicode="&#xf2;" horiz-adv-x="603" 
d="M562 266q0 -130 -72 -210t-195 -80t-195.5 80t-72.5 210q0 129 74 209.5t194 80.5q121 0 194 -80.5t73 -209.5zM370 268q0 143 -75 143q-76 0 -76 -143t76 -143q75 0 75 143zM368 603h-136l-168 215h224z" />
    <glyph glyph-name="oacute" unicode="&#xf3;" horiz-adv-x="603" 
d="M562 266q0 -130 -72 -210t-195 -80t-195.5 80t-72.5 210q0 129 74 209.5t194 80.5q121 0 194 -80.5t73 -209.5zM370 268q0 143 -75 143q-76 0 -76 -143t76 -143q75 0 75 143zM364 622h-137l80 215h225z" />
    <glyph glyph-name="ocircumflex" unicode="&#xf4;" horiz-adv-x="603" 
d="M562 266q0 -130 -72 -210t-195 -80t-195.5 80t-72.5 210q0 129 74 209.5t194 80.5q121 0 194 -80.5t73 -209.5zM370 268q0 143 -75 143q-76 0 -76 -143t76 -143q75 0 75 143zM295 680l-105 -84l-84 98l189 169l186 -169l-81 -98z" />
    <glyph glyph-name="otilde" unicode="&#xf5;" horiz-adv-x="603" 
d="M562 266q0 -130 -72 -210t-195 -80t-195.5 80t-72.5 210q0 129 74 209.5t194 80.5q121 0 194 -80.5t73 -209.5zM370 268q0 143 -75 143q-76 0 -76 -143t76 -143q75 0 75 143zM352 616q-27 0 -68 17.5t-57 17.5q-19 0 -44 -55l-109 70q20 52 58 93t88 41q27 0 67.5 -18
t57.5 -18t44 55l112 -72q-75 -131 -149 -131z" />
    <glyph glyph-name="odieresis" unicode="&#xf6;" horiz-adv-x="603" 
d="M562 266q0 -130 -72 -210t-195 -80t-195.5 80t-72.5 210q0 129 74 209.5t194 80.5q121 0 194 -80.5t73 -209.5zM370 268q0 143 -75 143q-76 0 -76 -143t76 -143q75 0 75 143zM266 722q0 -44 -28.5 -70t-69.5 -26t-69 26t-28 70t28.5 70.5t68.5 26.5q41 0 69.5 -26.5
t28.5 -70.5zM513 722q0 -44 -28 -70t-69 -26t-69 26t-28 70t28.5 70.5t68.5 26.5t68.5 -26.5t28.5 -70.5z" />
    <glyph glyph-name="divide" unicode="&#xf7;" horiz-adv-x="567" 
d="M394 544q0 -49 -32.5 -79.5t-78.5 -30.5q-45 0 -77 30.5t-32 78.5t32 79t77 31q46 0 78.5 -30.5t32.5 -78.5zM394 101q0 -48 -32.5 -78.5t-78.5 -30.5q-45 0 -77 30.5t-32 77.5q0 49 32 80t77 31q46 0 78.5 -31t32.5 -79zM542 240h-518v158h518v-158z" />
    <glyph glyph-name="oslash" unicode="&#xf8;" horiz-adv-x="603" 
d="M582 263q0 -136 -76.5 -219t-203.5 -83q-73 0 -128 29l-48 -63l-106 79l55 70q-54 76 -54 187q0 134 79 217t202 83q70 0 126 -27l48 62l106 -79l-53 -70q53 -74 53 -186zM204 272q14 -3 20 -2l97 127q-18 5 -43 2q-34 -9 -53.5 -42.5t-20.5 -84.5zM399 253q-8 3 -20 2
l-98 -128q24 -5 44 -1q34 9 53.5 42.5t20.5 84.5z" />
    <glyph glyph-name="ugrave" unicode="&#xf9;" 
d="M541 25q-65 -48 -245 -48q-133 0 -191 59t-58 178v330h191v-272q0 -89 8 -112q13 -35 56 -35q28 0 48 5v414h191v-519zM371 603h-136l-168 215h224z" />
    <glyph glyph-name="uacute" unicode="&#xfa;" 
d="M541 25q-65 -48 -245 -48q-133 0 -191 59t-58 178v330h191v-272q0 -89 8 -112q13 -35 56 -35q28 0 48 5v414h191v-519zM367 622h-137l80 215h225z" />
    <glyph glyph-name="ucircumflex" unicode="&#xfb;" 
d="M541 25q-65 -48 -245 -48q-133 0 -191 59t-58 178v330h191v-272q0 -89 8 -112q13 -35 56 -35q28 0 48 5v414h191v-519zM298 680l-105 -84l-84 98l189 169l186 -169l-81 -98z" />
    <glyph glyph-name="udieresis" unicode="&#xfc;" 
d="M541 25q-65 -48 -245 -48q-133 0 -191 59t-58 178v330h191v-272q0 -89 8 -112q13 -35 56 -35q28 0 48 5v414h191v-519zM270 722q0 -44 -28.5 -70t-69.5 -26t-69 26t-28 70t28.5 70.5t68.5 26.5q41 0 69.5 -26.5t28.5 -70.5zM517 722q0 -44 -28 -70t-69 -26t-69 26t-28 70
t28.5 70.5t68.5 26.5t68.5 -26.5t28.5 -70.5z" />
    <glyph glyph-name="yacute" unicode="&#xfd;" horiz-adv-x="572" 
d="M562 544q-94 -321 -216 -650q-25 -56 -59.5 -77.5t-97.5 -21.5q-44 0 -134 29l39 129q36 -14 53 -14q9 0 16 3.5t11 7.5t8 13l6 13.5t5 16.5t4 15q-111 279 -188 536h201q30 -138 59 -245q22 -91 23 -93q2 5 5.5 19t8 36.5t8.5 38.5q30 112 61 244h187zM357 622h-137
l80 215h225z" />
    <glyph glyph-name="thorn" unicode="&#xfe;" horiz-adv-x="601" 
d="M47 776l186 30v-251q31 6 58 6q132 0 210 -81t78 -218q0 -135 -67.5 -216.5t-188.5 -81.5q-47 0 -90 16v-190h-186v986zM233 390v-245q30 -15 66 -15q91 0 91 129q0 63 -27.5 99.5t-76.5 36.5q-23 0 -53 -5z" />
    <glyph glyph-name="ydieresis" unicode="&#xff;" horiz-adv-x="572" 
d="M562 544q-94 -321 -216 -650q-25 -56 -59.5 -77.5t-97.5 -21.5q-44 0 -134 29l39 129q36 -14 53 -14q9 0 16 3.5t11 7.5t8 13l6 13.5t5 16.5t4 15q-111 279 -188 536h201q30 -138 59 -245q22 -91 23 -93q2 5 5.5 19t8 36.5t8.5 38.5q30 112 61 244h187zM260 722
q0 -44 -28.5 -70t-69.5 -26t-69 26t-28 70t28.5 70.5t68.5 26.5q41 0 69.5 -26.5t28.5 -70.5zM507 722q0 -44 -28 -70t-69 -26t-69 26t-28 70t28.5 70.5t68.5 26.5t68.5 -26.5t28.5 -70.5z" />
    <glyph glyph-name="Amacron" unicode="&#x100;" horiz-adv-x="708" 
d="M704 -13h-212l-37 134h-217q-4 -14 -19.5 -61.5t-22.5 -72.5h-191q158 468 257 716h185q122 -314 257 -716zM416 261l-51 169l-18 65q-4 -10 -17 -57q-10 -37 -54 -177h140zM511 784h-364v145h364v-145z" />
    <glyph glyph-name="amacron" unicode="&#x101;" horiz-adv-x="546" 
d="M508 12q-105 -35 -238 -35q-251 0 -251 186q0 175 268 190q17 0 37 -2q-5 63 -79 63q-75 0 -153 -31l-33 136q99 37 213 37q204 0 231 -164q5 -26 5 -69v-311zM326 113v123q-26 0 -40 -1q-82 -7 -82 -66q0 -60 75 -60q33 0 47 4zM463 621h-364v145h364v-145z" />
    <glyph glyph-name="Abreve" unicode="&#x102;" horiz-adv-x="708" 
d="M704 -13h-212l-37 134h-217q-4 -14 -19.5 -61.5t-22.5 -72.5h-191q158 468 257 716h185q122 -314 257 -716zM416 261l-51 169l-18 65q-4 -10 -17 -57q-10 -37 -54 -177h140zM326 774q-90 0 -135.5 55t-45.5 156h141q4 -72 40 -72q35 0 41 72h140q0 -102 -45 -156.5
t-136 -54.5z" />
    <glyph glyph-name="abreve" unicode="&#x103;" horiz-adv-x="546" 
d="M508 12q-105 -35 -238 -35q-251 0 -251 186q0 175 268 190q17 0 37 -2q-5 63 -79 63q-75 0 -153 -31l-33 136q99 37 213 37q204 0 231 -164q5 -26 5 -69v-311zM326 113v123q-26 0 -40 -1q-82 -7 -82 -66q0 -60 75 -60q33 0 47 4zM278 610q-90 0 -135.5 55t-45.5 156h141
q4 -72 40 -72q35 0 41 72h140q0 -102 -45 -156.5t-136 -54.5z" />
    <glyph glyph-name="Aogonek" unicode="&#x104;" horiz-adv-x="708" 
d="M704 -13h-212l-37 134h-217q-4 -14 -19.5 -61.5t-22.5 -72.5h-191q158 468 257 716h185q122 -314 257 -716zM416 261l-51 169l-18 65q-4 -10 -17 -57q-10 -37 -54 -177h140zM556 -241q-146 0 -146 113q0 83 119 167h129q0 -8 0.5 -24.5t0.5 -25.5l-15 -9l6 3
q-64 -53 -68 -69q4 -5 17 -4q14 1 60 15l17 -141q-60 -25 -120 -25z" />
    <glyph glyph-name="aogonek" unicode="&#x105;" horiz-adv-x="546" 
d="M256 563q137 0 192.5 -62t55.5 -180v-322q-11 -7 -27 -19q1 0 3 2q2 0 2 1q-1 -1 -21.5 -19t-32 -30t-13.5 -20q4 -6 25 -3q50 14 51 14l17 -141q-39 -17 -87 -22q-14 -2 -40 -2q-88 3 -119 50q-19 31 -15 73q3 38 34 82q-7 -1 -24 -1q-245 0 -245 196q0 99 69 144
t177 45q31 0 61 -4q-10 29 -57 32q-22 22 -53 21q-58 -4 -125 -28l-25 161q92 32 197 32zM267 120q44 0 56 2v80q-11 2 -34 4q-4 0 -11.5 -0.5t-11.5 -0.5q-69 -2 -69 -41q0 -44 70 -44z" />
    <glyph glyph-name="Cacute" unicode="&#x106;" horiz-adv-x="642" 
d="M566 29q-78 -54 -209 -54q-157 0 -239.5 102t-82.5 268q0 163 88.5 267t238.5 104q120 0 199 -54l-49 -143q-59 35 -127 35q-57 0 -94.5 -39.5t-44.5 -110.5q-8 -46 -4 -89q6 -71 39 -119t93 -52q22 -3 46 2q43 4 96 28zM412 784h-137l80 215h225z" />
    <glyph glyph-name="cacute" unicode="&#x107;" horiz-adv-x="494" 
d="M449 14q-63 -38 -158 -38q-126 0 -195 78t-69 213q0 130 73 209.5t187 79.5q86 0 157 -39l-40 -133q-50 24 -87 24q-96 0 -96 -140t99 -140q45 0 94 26zM347 627h-137l80 215h225z" />
    <glyph glyph-name="Ccircumflex" unicode="&#x108;" horiz-adv-x="642" 
d="M566 29q-78 -54 -209 -54q-157 0 -239.5 102t-82.5 268q0 163 88.5 267t238.5 104q120 0 199 -54l-49 -143q-59 35 -127 35q-57 0 -94.5 -39.5t-44.5 -110.5q-8 -46 -4 -89q6 -71 39 -119t93 -52q22 -3 46 2q43 4 96 28zM343 841l-105 -84l-84 98l189 169l186 -169
l-81 -98z" />
    <glyph glyph-name="ccircumflex" unicode="&#x109;" horiz-adv-x="494" 
d="M449 14q-63 -38 -158 -38q-126 0 -195 78t-69 213q0 130 73 209.5t187 79.5q86 0 157 -39l-40 -133q-50 24 -87 24q-96 0 -96 -140t99 -140q45 0 94 26zM278 684l-105 -84l-84 98l189 169l186 -169l-81 -98z" />
    <glyph glyph-name="Cdotaccent" unicode="&#x10a;" horiz-adv-x="642" 
d="M566 29q-78 -54 -209 -54q-157 0 -239.5 102t-82.5 268q0 163 88.5 267t238.5 104q120 0 199 -54l-49 -143q-59 35 -127 35q-57 0 -94.5 -39.5t-44.5 -110.5q-8 -46 -4 -89q6 -71 39 -119t93 -52q22 -3 46 2q43 4 96 28zM342 760q-41 0 -70 27.5t-29 71.5t29 71.5
t70 27.5q42 0 71 -27.5t29 -71.5t-29 -71.5t-71 -27.5z" />
    <glyph glyph-name="cdotaccent" unicode="&#x10b;" horiz-adv-x="494" 
d="M449 14q-63 -38 -158 -38q-126 0 -195 78t-69 213q0 130 73 209.5t187 79.5q86 0 157 -39l-40 -133q-50 24 -87 24q-96 0 -96 -140t99 -140q45 0 94 26zM277 603q-41 0 -70 27.5t-29 71.5t29 71.5t70 27.5q42 0 71 -27.5t29 -71.5t-29 -71.5t-71 -27.5z" />
    <glyph glyph-name="Ccaron" unicode="&#x10c;" horiz-adv-x="642" 
d="M566 29q-78 -54 -209 -54q-157 0 -239.5 102t-82.5 268q0 163 88.5 267t238.5 104q120 0 199 -54l-49 -143q-59 35 -127 35q-57 0 -94.5 -39.5t-44.5 -110.5q-8 -46 -4 -89q6 -71 39 -119t93 -52q22 -3 46 2q43 4 96 28zM238 1035l105 -84l105 84l84 -98l-189 -169
l-186 169z" />
    <glyph glyph-name="ccaron" unicode="&#x10d;" horiz-adv-x="494" 
d="M449 14q-63 -38 -158 -38q-126 0 -195 78t-69 213q0 130 73 209.5t187 79.5q86 0 157 -39l-40 -133q-50 24 -87 24q-96 0 -96 -140t99 -140q45 0 94 26zM173 878l105 -84l105 84l84 -98l-189 -169l-186 169z" />
    <glyph glyph-name="Dcaron" unicode="&#x10e;" horiz-adv-x="731" 
d="M649 345q0 -171 -93 -268.5t-275 -97.5q-124 0 -224 31v670q110 31 222 31q182 0 276 -95.5t94 -270.5zM448 347q0 111 -37.5 161.5t-121.5 50.5q-23 0 -35 -2v-421q10 -2 34 -2q83 0 121.5 50.5t38.5 162.5zM216 1035l105 -84l105 84l84 -98l-189 -169l-186 169z" />
    <glyph glyph-name="dcaron" unicode="&#x10f;" horiz-adv-x="767" 
d="M554 794v-771q-94 -47 -235 -47q-135 0 -213.5 75t-78.5 213q0 131 68 209.5t181 78.5q50 0 86 -14v240q128 12 192 16zM362 126v274q-20 13 -51 13q-90 0 -90 -143q0 -73 25.5 -110.5t73.5 -37.5q22 0 42 4zM590 801h169l-39 -290h-130v290z" />
    <glyph glyph-name="Dcroat" unicode="&#x110;" horiz-adv-x="743" 
d="M716 347q0 -188 -111.5 -284.5t-309.5 -96.5q-115 0 -227 23v293h-81v156h81v266q111 22 231 22q196 0 306.5 -93t110.5 -286zM260 282v-142q4 0 18 -0.5t25 -0.5q107 0 161.5 54.5t54.5 153.5q0 207 -212 207q-12 0 -27 -0.5t-20 -0.5v-115h127v-156h-127z" />
    <glyph glyph-name="dcroat" unicode="&#x111;" horiz-adv-x="602" 
d="M553 806v-93h65v-137h-65v-578q-116 -36 -236 -36q-138 0 -217 79t-79 213t69.5 214.5t190.5 80.5q47 0 86 -15v42h-149v137h149v63zM367 132v236q-28 15 -65 15q-91 0 -91 -123q0 -60 28.5 -96t78.5 -36q25 0 49 4z" />
    <glyph glyph-name="Emacron" unicode="&#x112;" horiz-adv-x="598" 
d="M508 -13h-451v716h439v-154h-240v-123h211v-151h-211v-134h252v-154zM460 784h-364v145h364v-145z" />
    <glyph glyph-name="emacron" unicode="&#x113;" horiz-adv-x="578" 
d="M544 220l-323 -22q21 -72 113 -72q86 0 154 32l34 -140q-84 -42 -209 -42q-140 0 -213 80t-73 209q0 134 74 212.5t193 78.5q111 0 176 -64t72 -182q2 -56 2 -90zM360 328q-5 90 -70 90q-36 0 -55.5 -27t-21.5 -74zM469 623h-364v145h364v-145z" />
    <glyph glyph-name="Ebreve" unicode="&#x114;" horiz-adv-x="598" 
d="M508 -13h-451v716h439v-154h-240v-123h211v-151h-211v-134h252v-154zM275 774q-90 0 -135.5 55t-45.5 156h141q4 -72 40 -72q35 0 41 72h140q0 -102 -45 -156.5t-136 -54.5z" />
    <glyph glyph-name="ebreve" unicode="&#x115;" horiz-adv-x="578" 
d="M544 220l-323 -22q21 -72 113 -72q86 0 154 32l34 -140q-84 -42 -209 -42q-140 0 -213 80t-73 209q0 134 74 212.5t193 78.5q111 0 176 -64t72 -182q2 -56 2 -90zM360 328q-5 90 -70 90q-36 0 -55.5 -27t-21.5 -74zM284 612q-90 0 -135.5 55t-45.5 156h141q4 -72 40 -72
q35 0 41 72h140q0 -102 -45 -156.5t-136 -54.5z" />
    <glyph glyph-name="Edotaccent" unicode="&#x116;" horiz-adv-x="598" 
d="M508 -13h-451v716h439v-154h-240v-123h211v-151h-211v-134h252v-154zM274 760q-41 0 -70 27.5t-29 71.5t29 71.5t70 27.5q42 0 71 -27.5t29 -71.5t-29 -71.5t-71 -27.5z" />
    <glyph glyph-name="edotaccent" unicode="&#x117;" horiz-adv-x="578" 
d="M544 220l-323 -22q21 -72 113 -72q86 0 154 32l34 -140q-84 -42 -209 -42q-140 0 -213 80t-73 209q0 134 74 212.5t193 78.5q111 0 176 -64t72 -182q2 -56 2 -90zM360 328q-5 90 -70 90q-36 0 -55.5 -27t-21.5 -74zM283 598q-41 0 -70 27.5t-29 71.5t29 71.5t70 27.5
q42 0 71 -27.5t29 -71.5t-29 -71.5t-71 -27.5z" />
    <glyph glyph-name="Eogonek" unicode="&#x118;" horiz-adv-x="598" 
d="M389 -25h-22h-311v743h508v-170h-315v-102h280v-167h-280v-134h338v-156q-70 -60 -73 -75q4 -6 25 -3q3 1 12 3t19 4.5t21 6.5l17 -141q-60 -25 -120 -25q-146 0 -146 113q0 51 47 103z" />
    <glyph glyph-name="eogonek" unicode="&#x119;" horiz-adv-x="578" 
d="M21 259q0 143 80.5 223.5t192.5 80.5q123 0 192.5 -75t69.5 -217q0 -12 -1.5 -39t-1.5 -38h-332q25 -60 109 -65q28 0 42 2q69 7 128 35l27 -159q-35 -23 -67 -51t-35 -42q4 -6 25 -3q3 1 12 3t19 4.5t21 6.5l16 -141q-59 -25 -119 -25q-113 0 -139 71q-7 20 -5 49
q3 46 36 85q-23 1 -61 9q-104 23 -156.5 99t-52.5 187zM219 339h149q-12 61 -72 61q-59 0 -77 -61z" />
    <glyph glyph-name="Ecaron" unicode="&#x11a;" horiz-adv-x="598" 
d="M508 -13h-451v716h439v-154h-240v-123h211v-151h-211v-134h252v-154zM170 1035l105 -84l105 84l84 -98l-189 -169l-186 169z" />
    <glyph glyph-name="ecaron" unicode="&#x11b;" horiz-adv-x="578" 
d="M544 220l-323 -22q21 -72 113 -72q86 0 154 32l34 -140q-84 -42 -209 -42q-140 0 -213 80t-73 209q0 134 74 212.5t193 78.5q111 0 176 -64t72 -182q2 -56 2 -90zM360 328q-5 90 -70 90q-36 0 -55.5 -27t-21.5 -74zM179 874l105 -84l105 84l84 -98l-189 -169l-186 169z
" />
    <glyph glyph-name="Gcircumflex" unicode="&#x11c;" horiz-adv-x="695" 
d="M612 19q-88 -43 -235 -43q-168 0 -256.5 98.5t-88.5 271.5q0 167 95.5 268.5t255.5 101.5q130 0 226 -55l-59 -143q-56 30 -120 35q-98 7 -147 -45t-49 -162q0 -104 36 -159t106 -55q36 0 46 4v133h-73v152h263v-402zM379 841l-105 -84l-84 98l189 169l186 -169l-81 -98z
" />
    <glyph glyph-name="gcircumflex" unicode="&#x11d;" horiz-adv-x="591" 
d="M541 30q0 -250 -271 -250q-120 0 -215 40l40 146q57 -25 111 -32q32 -4 67 3q39 3 60 21.5t21 46.5v12q-30 -15 -87 -15q-109 0 -174.5 70t-65.5 194q0 135 76 212t217 77q131 0 221 -38v-487zM353 148v266q-13 4 -39 4q-95 0 -95 -145q0 -135 86 -135q26 0 48 10z
M307 680l-105 -84l-84 98l189 169l186 -169l-81 -98z" />
    <glyph glyph-name="Gbreve" unicode="&#x11e;" horiz-adv-x="695" 
d="M612 19q-88 -43 -235 -43q-168 0 -256.5 98.5t-88.5 271.5q0 167 95.5 268.5t255.5 101.5q130 0 226 -55l-59 -143q-56 30 -120 35q-98 7 -147 -45t-49 -162q0 -104 36 -159t106 -55q36 0 46 4v133h-73v152h263v-402zM379 774q-90 0 -135.5 55t-45.5 156h141
q4 -72 40 -72q35 0 41 72h140q0 -102 -45 -156.5t-136 -54.5z" />
    <glyph glyph-name="gbreve" unicode="&#x11f;" horiz-adv-x="591" 
d="M541 30q0 -250 -271 -250q-120 0 -215 40l40 146q57 -25 111 -32q32 -4 67 3q39 3 60 21.5t21 46.5v12q-30 -15 -87 -15q-109 0 -174.5 70t-65.5 194q0 135 76 212t217 77q131 0 221 -38v-487zM353 148v266q-13 4 -39 4q-95 0 -95 -145q0 -135 86 -135q26 0 48 10z
M307 612q-90 0 -135.5 55t-45.5 156h141q4 -72 40 -72q35 0 41 72h140q0 -102 -45 -156.5t-136 -54.5z" />
    <glyph glyph-name="Gdotaccent" unicode="&#x120;" horiz-adv-x="695" 
d="M612 19q-88 -43 -235 -43q-168 0 -256.5 98.5t-88.5 271.5q0 167 95.5 268.5t255.5 101.5q130 0 226 -55l-59 -143q-56 30 -120 35q-98 7 -147 -45t-49 -162q0 -104 36 -159t106 -55q36 0 46 4v133h-73v152h263v-402zM378 760q-41 0 -70 27.5t-29 71.5t29 71.5t70 27.5
q42 0 71 -27.5t29 -71.5t-29 -71.5t-71 -27.5z" />
    <glyph glyph-name="gdotaccent" unicode="&#x121;" horiz-adv-x="591" 
d="M541 30q0 -250 -271 -250q-120 0 -215 40l40 146q57 -25 111 -32q32 -4 67 3q39 3 60 21.5t21 46.5v12q-30 -15 -87 -15q-109 0 -174.5 70t-65.5 194q0 135 76 212t217 77q131 0 221 -38v-487zM353 148v266q-13 4 -39 4q-95 0 -95 -145q0 -135 86 -135q26 0 48 10z
M306 598q-41 0 -70 27.5t-29 71.5t29 71.5t70 27.5q42 0 71 -27.5t29 -71.5t-29 -71.5t-71 -27.5z" />
    <glyph glyph-name="Gcommaaccent" unicode="&#x122;" horiz-adv-x="695" 
d="M408 138q18 72 20 83q-12 28 -20 52v123h211v-378q-88 -42 -238 -42q-171 0 -259.5 99t-88.5 271q0 167 96.5 268.5t257.5 101.5q134 0 230 -55l-60 -145q-54 31 -123 36q-99 7 -149 -45t-50 -161q0 -213 145 -213q18 0 28 5zM320 -66v39h155q1 -9 3.5 -24t3.5 -20v-19
q-1 -77 -45.5 -112.5t-112.5 -36.5q-7 -1 -26 1q-25 3 -50 11v121q36 0 54 8t18 32z" />
    <glyph glyph-name="gcommaaccent" unicode="&#x123;" horiz-adv-x="591" 
d="M355 4q-11 3 -30 11q-23 -10 -56 -10q-110 0 -176 69t-66 193q0 133 76.5 209.5t217.5 76.5q132 0 225 -37v-483q0 -250 -275 -250q-119 0 -216 39l40 148q54 -25 113 -32q36 -4 68 2q73 5 79 64zM356 154v256q-12 4 -41 4q-94 0 -94 -141q0 -131 85 -131q29 0 50 12z
M226 579q-18 195 162 240l71 -99q-38 -23 -55.5 -46t-17.5 -59v-39h-160v3z" />
    <glyph glyph-name="Hcircumflex" unicode="&#x124;" horiz-adv-x="727" 
d="M631 -13h-199v288h-176v-288h-199v716h199v-278h176v278h199v-716zM343 841l-105 -84l-84 98l189 169l186 -169l-81 -98z" />
    <glyph glyph-name="hcircumflex" unicode="&#x125;" 
d="M547 -13h-191v273q0 95 -10 119q-14 32 -58 32q-29 0 -47 -7v-417h-192v793h192v-240q30 10 63 12q63 4 108.5 -8.5t71.5 -34.5t40.5 -59.5t18.5 -73.5t4 -86v-303zM294 883l-104 -83l-85 97l189 170l186 -170l-81 -97z" />
    <glyph glyph-name="Hbar" unicode="&#x126;" horiz-adv-x="750" 
d="M763 482h-81v-507h-192v292h-230v-292h-192v507h-81v151h81v85h192v-85h230v85h192v-85h81v-151zM490 439v43h-230v-43h230z" />
    <glyph glyph-name="hbar" unicode="&#x127;" horiz-adv-x="594" 
d="M242 -25h-186v601h-65v137h65v63l186 30v-93h150v-137h-150v-35q29 8 66 8q134 0 189 -69t55 -197v-308h-186v290q0 65 -15.5 91t-56.5 26q-31 0 -52 -7v-400z" />
    <glyph glyph-name="Itilde" unicode="&#x128;" horiz-adv-x="305" 
d="M256 -13h-199v716h199v-716zM212 778q-27 0 -68 17.5t-57 17.5q-19 0 -44 -55l-109 70q20 52 58 93t88 41q27 0 67.5 -18t57.5 -18t44 55l112 -72q-75 -131 -149 -131z" />
    <glyph glyph-name="itilde" unicode="&#x129;" horiz-adv-x="281" 
d="M233 550v-575h-186v575h186zM198 591q-27 0 -68 17.5t-57 17.5q-19 0 -44 -55l-109 70q20 52 58 93t88 41q27 0 67.5 -18t57.5 -18t44 55l112 -72q-75 -131 -149 -131z" />
    <glyph glyph-name="Imacron" unicode="&#x12a;" horiz-adv-x="305" 
d="M256 -13h-199v716h199v-716zM340 784h-364v145h364v-145z" />
    <glyph glyph-name="imacron" unicode="&#x12b;" horiz-adv-x="281" 
d="M233 550v-575h-186v575h186zM326 623h-364v145h364v-145z" />
    <glyph glyph-name="Ibreve" unicode="&#x12c;" horiz-adv-x="305" 
d="M256 -13h-199v716h199v-716zM155 774q-90 0 -135.5 55t-45.5 156h141q4 -72 40 -72q35 0 41 72h140q0 -102 -45 -156.5t-136 -54.5z" />
    <glyph glyph-name="ibreve" unicode="&#x12d;" horiz-adv-x="281" 
d="M233 550v-575h-186v575h186zM140 612q-90 0 -135.5 55t-45.5 156h141q4 -72 40 -72q35 0 41 72h140q0 -102 -45 -156.5t-136 -54.5z" />
    <glyph glyph-name="Iogonek" unicode="&#x12e;" horiz-adv-x="305" 
d="M249 718v-730q-70 -58 -73 -74q4 -6 25 -3q3 1 12 3t19 4.5t21 6.5l16 -141q-59 -25 -119 -25q-74 0 -110 30t-36 83q0 61 52 110v736h193z" />
    <glyph glyph-name="iogonek" unicode="&#x12f;" horiz-adv-x="281" 
d="M233 550v-562q-64 -56 -70 -70q-2 -2 -2 -4q6 -6 25 -3q40 10 52 14l17 -141q-60 -25 -120 -25q-146 0 -146 113q0 54 58 117v561h186zM247 677q0 -49 -31 -78t-76 -29t-76.5 29t-31.5 78t31.5 78t76.5 29t76 -29t31 -78z" />
    <glyph glyph-name="Idotaccent" unicode="&#x130;" horiz-adv-x="305" 
d="M57 -13v716h200v-716h-200zM152 738q-42 0 -70.5 27t-28.5 72q0 44 28.5 71t70.5 27t70.5 -27t28.5 -71q0 -45 -28.5 -72t-70.5 -27z" />
    <glyph glyph-name="dotlessi" unicode="&#x131;" horiz-adv-x="281" 
d="M233 550v-575h-186v575h186z" />
    <glyph glyph-name="IJ" unicode="&#x132;" horiz-adv-x="824" 
d="M57 -13v716h200v-716h-200zM691 703v-543q0 -251 -241 -268q-83 -5 -171 35l36 149q78 -28 120 9q57 44 57 158v460h199z" />
    <glyph glyph-name="ij" unicode="&#x133;" horiz-adv-x="560" 
d="M528 686q0 -43 -30 -70.5t-74 -27.5t-74.5 27.5t-30.5 70.5t30.5 70.5t73.5 27.5q44 0 74.5 -28t30.5 -70zM520 47q0 -113 -52 -178.5t-149 -78.5q-44 -10 -105 3l13 113q28 8 42 14t30 19.5t22.5 36.5t6.5 59v509h192v-497zM250 686q0 -43 -30.5 -70.5t-74.5 -27.5
t-74 27.5t-30 70.5t30 70.5t74 27.5t74.5 -27.5t30.5 -70.5zM241 -13h-191v557h191v-557z" />
    <glyph glyph-name="Jcircumflex" unicode="&#x134;" horiz-adv-x="522" 
d="M369 144q0 -245 -234 -266q-78 -6 -162 28q6 29 18 82.5t15 65.5q77 -24 114 17q50 42 50 164v10v458h199v-559zM268 841l-105 -84l-84 98l189 169l186 -169l-81 -98z" />
    <glyph glyph-name="jcircumflex" unicode="&#x135;" horiz-adv-x="281" 
d="M16 -211q-53 0 -115 22l26 161q47 -17 77 -17q24 0 33.5 15.5t9.5 49.5v530h186v-533q0 -228 -217 -228zM138 680l-105 -84l-84 98l189 169l186 -169l-81 -98z" />
    <glyph glyph-name="Kcommaaccent" unicode="&#x136;" horiz-adv-x="670" 
d="M678 -13h-179q-25 4 -52 6q-82 161 -190 295v-301h-200v716h200v-269q27 29 56 68t43.5 61t47.5 76l39 64h222q-114 -161 -248 -329q141 -169 261 -387zM281 -66v39h155q6 -40 6 -44q1 -11 1 -19q-1 -77 -45.5 -112.5t-112.5 -36.5q-8 -1 -26 1q-25 3 -50 11v121
q36 0 54 8t18 32z" />
    <glyph glyph-name="kcommaaccent" unicode="&#x137;" horiz-adv-x="566" 
d="M222 -66v39h155q1 -9 3.5 -24t3.5 -20v-19q-1 -77 -45.5 -112.5t-112.5 -36.5q-7 -1 -26 1q-26 3 -50 11v121q36 0 54 8t18 32zM596 -13h-216l-34 68q-35 68 -63 115t-42 52v-235h-191v793h191v-430q79 109 134 194h212l-193 -246q107 -137 202 -311z" />
    <glyph glyph-name="kgreenlandic" unicode="&#x138;" horiz-adv-x="570" 
d="M233 -25h-186v575h186v-164q75 82 142 164h226q-43 -53 -117.5 -135.5t-119.5 -127.5q61 -60 127 -147t110 -165h-212q-82 128 -156 195v-195z" />
    <glyph glyph-name="Lacute" unicode="&#x139;" horiz-adv-x="553" 
d="M488 -13h-431v716h199v-562h232v-154zM225 784h-137l80 215h225z" />
    <glyph glyph-name="lacute" unicode="&#x13a;" horiz-adv-x="384" 
d="M354 72l-30 -86q-85 1 -140.5 16t-84 45.5t-39 66.5t-10.5 90v576h191v-557q0 -78 24 -106t89 -45zM214 857h-137l80 215h225z" />
    <glyph glyph-name="Lcommaaccent" unicode="&#x13b;" horiz-adv-x="553" 
d="M257 143h240v-156h-440v716h200v-560zM249 -66v39h154q5 -24 7 -44q1 -11 1 -19q-1 -77 -45.5 -112.5t-112.5 -36.5q-8 -1 -26 1q-26 3 -51 11v121q37 0 55 8t18 32z" />
    <glyph glyph-name="lcommaaccent" unicode="&#x13c;" horiz-adv-x="306" 
d="M94 -66v39h154q5 -24 7 -44q1 -11 1 -19q-1 -77 -45.5 -112.5t-112.5 -36.5q-8 -1 -26 1q-26 3 -51 11v121q37 0 55 8t18 32zM354 72l-30 -86q-85 1 -140.5 16t-84 45.5t-39 66.5t-10.5 90v576h191v-557q0 -78 24 -106t89 -45z" />
    <glyph glyph-name="Lcaron" unicode="&#x13d;" horiz-adv-x="553" 
d="M257 143h240v-156h-440v716h200v-560zM299 720h168l-39 -290h-129v290z" />
    <glyph glyph-name="lcaron" unicode="&#x13e;" horiz-adv-x="477" 
d="M288 795h168l-39 -290h-129v290zM354 72l-30 -86q-85 1 -140.5 16t-84 45.5t-39 66.5t-10.5 90v576h191v-557q0 -78 24 -106t89 -45z" />
    <glyph glyph-name="Ldot" unicode="&#x13f;" horiz-adv-x="553" 
d="M257 143h240v-156h-440v716h200v-560zM441 300q-45 0 -77 30t-32 79t32 79.5t77 30.5q46 0 78.5 -30.5t32.5 -79.5t-32.5 -79t-78.5 -30z" />
    <glyph glyph-name="ldot" unicode="&#x140;" horiz-adv-x="384" 
d="M354 72l-30 -86q-85 1 -140.5 16t-84 45.5t-39 66.5t-10.5 90v576h191v-557q0 -78 24 -106t89 -45zM144 833q-41 0 -70 27.5t-29 71.5t29 71.5t70 27.5q42 0 71 -27.5t29 -71.5t-29 -71.5t-71 -27.5z" />
    <glyph glyph-name="Lslash" unicode="&#x141;" horiz-adv-x="582" 
d="M277 488l107 54l67 -138l-174 -88v-169h310v-172h-502v244l-51 -24l-67 137l118 60v326h192v-230z" />
    <glyph glyph-name="lslash" unicode="&#x142;" horiz-adv-x="347" 
d="M257 549l57 29l64 -131l-121 -60v-196q0 -32 17 -47t69 -19l-28 -160q-106 2 -160 30.5t-72 87.5q-12 39 -12 100v110l-27 -13.5t-20 -9.5l-64 130l111 55v325h186v-231z" />
    <glyph glyph-name="Nacute" unicode="&#x143;" horiz-adv-x="748" 
d="M645 -13h-119l-39 7q-104 178 -212 337q-6 9 -15.5 25.5t-16 26.5t-8.5 10q0 -6 1 -43t1 -60v-303h-180v716h161q99 -127 209 -295q9 -13 22 -35.5t17 -26.5q0 14 -1 62t-1 75v220h181v-716zM424 784h-137l80 215h225z" />
    <glyph glyph-name="nacute" unicode="&#x144;" 
d="M547 -13h-191v274q0 94 -10 118q-14 32 -58 32q-28 0 -47 -5v-419h-192v521q78 47 244 47q65 0 111.5 -13t74 -34.5t43 -57t20.5 -72t5 -89.5v-302zM362 622h-137l80 215h225z" />
    <glyph glyph-name="Ncommaaccent" unicode="&#x145;" horiz-adv-x="748" 
d="M650 -13h-120l-39 7q-57 98 -146 238.5t-107 155.5q0 -12 0.5 -49t0.5 -59v-293h-182v716h160q104 -126 209 -284l22 -35.5t21 -31.5q0 15 -1 59t-1 69v223h183v-716zM308 -66v39h154q5 -24 7 -44q1 -11 1 -19q-1 -77 -45.5 -112.5t-112.5 -36.5q-8 -1 -26 1
q-26 3 -51 11v121q37 0 55 8t18 32z" />
    <glyph glyph-name="ncommaaccent" unicode="&#x146;" 
d="M50 -13v520q79 46 245 46q80 0 132 -17.5t78.5 -55t36 -82t9.5 -112.5v-299h-192v270q0 37 -1 56t-4 41t-10.5 31.5t-20.5 16t-33 6.5q-21 0 -47 -4v-417h-193zM217 -66v39h155q6 -40 6 -44q1 -11 1 -19q-1 -77 -45.5 -112.5t-112.5 -36.5q-8 -1 -26 1q-25 3 -50 11v121
q36 0 54 8t18 32z" />
    <glyph glyph-name="Ncaron" unicode="&#x147;" horiz-adv-x="748" 
d="M645 -13h-119l-39 7q-104 178 -212 337q-6 9 -15.5 25.5t-16 26.5t-8.5 10q0 -6 1 -43t1 -60v-303h-180v716h161q99 -127 209 -295q9 -13 22 -35.5t17 -26.5q0 14 -1 62t-1 75v220h181v-716zM250 1035l105 -84l105 84l84 -98l-189 -169l-186 169z" />
    <glyph glyph-name="ncaron" unicode="&#x148;" 
d="M547 -13h-191v274q0 94 -10 118q-14 32 -58 32q-28 0 -47 -5v-419h-192v521q78 47 244 47q65 0 111.5 -13t74 -34.5t43 -57t20.5 -72t5 -89.5v-302zM187 874l105 -84l105 84l84 -98l-189 -169l-186 169z" />
    <glyph glyph-name="napostrophe" unicode="&#x149;" horiz-adv-x="611" 
d="M75 -13v520q79 46 245 46q80 0 132 -17.5t78.5 -55t36 -82t9.5 -112.5v-299h-191v270q0 87 -11.5 119t-58.5 32q-21 0 -47 -4v-417h-193zM-9 801h154l25 -30q-1 -77 -20 -133.5t-62 -122.5l-135 40q49 104 49 178q0 30 -11 68z" />
    <glyph glyph-name="Eng" unicode="&#x14a;" horiz-adv-x="748" 
d="M501 12v19q-114 198 -254 373v-429h-191v743h151q130 -133 294 -376v376h191v-708q0 -177 -125 -210q-35 -12 -91 -12q-55 3 -105 21l25 160q45 -16 72 -16q33 0 33 59z" />
    <glyph glyph-name="eng" unicode="&#x14b;" 
d="M358 -8v285q0 65 -16.5 91.5t-58.5 26.5q-26 0 -50 -4v-416h-186v551q124 35 245 35q138 0 195 -68.5t57 -196.5v-298q0 -88 -30.5 -137.5t-101.5 -64.5q-26 -6 -76 -6q-47 0 -99 20l25 146q46 -13 64 -13q32 0 32 49z" />
    <glyph glyph-name="Omacron" unicode="&#x14c;" horiz-adv-x="787" 
d="M683 345q0 -169 -86.5 -269.5t-237.5 -100.5q-150 0 -237 100.5t-87 269.5t87.5 270t236.5 101q150 0 237 -101t87 -270zM480 349q0 93 -30.5 152.5t-90.5 59.5q-61 0 -91 -59.5t-30 -152.5t30 -152.5t91 -59.5t91 59.5t30 152.5zM541 797h-364v145h364v-145z" />
    <glyph glyph-name="omacron" unicode="&#x14d;" horiz-adv-x="603" 
d="M562 266q0 -130 -72 -210t-195 -80t-195.5 80t-72.5 210q0 129 74 209.5t194 80.5q121 0 194 -80.5t73 -209.5zM370 268q0 143 -75 143q-76 0 -76 -143t76 -143q75 0 75 143zM480 623h-364v145h364v-145z" />
    <glyph glyph-name="Obreve" unicode="&#x14e;" horiz-adv-x="787" 
d="M683 345q0 -169 -86.5 -269.5t-237.5 -100.5q-150 0 -237 100.5t-87 269.5t87.5 270t236.5 101q150 0 237 -101t87 -270zM480 349q0 93 -30.5 152.5t-90.5 59.5q-61 0 -91 -59.5t-30 -152.5t30 -152.5t91 -59.5t91 59.5t30 152.5zM356 787q-90 0 -135.5 55t-45.5 156h141
q4 -72 40 -72q35 0 41 72h140q0 -102 -45 -156.5t-136 -54.5z" />
    <glyph glyph-name="obreve" unicode="&#x14f;" horiz-adv-x="603" 
d="M562 266q0 -130 -72 -210t-195 -80t-195.5 80t-72.5 210q0 129 74 209.5t194 80.5q121 0 194 -80.5t73 -209.5zM370 268q0 143 -75 143q-76 0 -76 -143t76 -143q75 0 75 143zM294 612q-90 0 -135.5 55t-45.5 156h141q4 -72 40 -72q35 0 41 72h140q0 -102 -45 -156.5
t-136 -54.5z" />
    <glyph glyph-name="Ohungarumlaut" unicode="&#x150;" horiz-adv-x="787" 
d="M694 345q0 -170 -89 -270t-242 -100q-151 0 -240.5 100t-89.5 270q0 169 90.5 270t239.5 101q152 0 241.5 -100.5t89.5 -270.5zM490 350q0 93 -32.5 151.5t-94.5 58.5q-61 0 -94 -58.5t-33 -151.5q0 -94 33 -153t94 -59q62 0 94.5 59t32.5 153zM354 993l115 -94
l-165 -194l-100 76zM548 993l123 -99l-172 -189l-100 76z" />
    <glyph glyph-name="ohungarumlaut" unicode="&#x151;" horiz-adv-x="603" 
d="M568 266q0 -131 -73.5 -211t-196.5 -80q-122 0 -196.5 80.5t-74.5 210.5q0 128 75 208t196 80q122 0 196 -80t74 -208zM375 267q0 66 -19.5 103.5t-57.5 37.5t-57.5 -37.5t-19.5 -103.5q0 -140 77 -140q38 0 57.5 37t19.5 103zM255 849l116 -94l-166 -194l-99 76z
M458 849l123 -100l-172 -188l-100 76z" />
    <glyph glyph-name="OE" unicode="&#x152;" horiz-adv-x="996" 
d="M475 141v411q-7 1 -35 1q-108 0 -162 -53t-54 -153q0 -207 216 -207q13 0 35 1zM985 -25h-437q-46 -6 -105 -6q-193 0 -304.5 94.5t-111.5 283.5q0 188 111.5 282.5t304.5 94.5q59 0 105 -6h414v-170h-299v-102h264v-167h-264v-134h322v-170z" />
    <glyph glyph-name="oe" unicode="&#x153;" horiz-adv-x="938" 
d="M299 563q111 0 183 -79q66 75 163 78q43 2 75 -5q93 -18 144.5 -90.5t51.5 -195.5q0 -12 -1.5 -39t-1.5 -38h-332q26 -59 106 -64q28 -2 58 3q59 7 115 33l27 -161q-50 -26 -137 -38q-49 -5 -82 -4q-119 3 -192 77q-71 -79 -177 -79q-126 0 -202 83t-76 219
q0 134 77.5 217t200.5 83zM392 263q0 62 -23.5 97.5t-66.5 35.5t-67 -35.5t-24 -97.5q0 -63 24 -99t67 -36t66.5 36t23.5 99zM579 339h149q-12 61 -72 61q-59 0 -77 -61z" />
    <glyph glyph-name="Racute" unicode="&#x154;" horiz-adv-x="673" 
d="M644 -13h-218q-89 182 -141 274h-31v-274h-197v692q110 32 226 32q158 0 238 -60t80 -175q0 -61 -35 -111t-89 -73v-1q21 -27 47 -71t38.5 -68l45.5 -91.5zM402 471q0 50 -28 75t-68 25q-28 0 -52 -6v-197h52q40 0 68 27.5t28 75.5zM369 784h-137l80 215h225z" />
    <glyph glyph-name="racute" unicode="&#x155;" horiz-adv-x="414" 
d="M403 539q-26 -116 -31 -135q-40 9 -63 8q-38 1 -68 -7v-418h-192v524q102 42 225 43q59 2 129 -15zM284 622h-137l80 215h225z" />
    <glyph glyph-name="Rcommaaccent" unicode="&#x156;" horiz-adv-x="659" 
d="M609 475q0 -60 -33.5 -108.5t-85.5 -75.5q11 -13 22.5 -31l20.5 -32.5t22.5 -39.5l20 -37.5l21.5 -43.5l19 -39.5l20 -43t18 -37.5h-219q-48 102 -111 220l-36 51h-33v-271h-198v694q113 31 228 31q161 0 242.5 -60.5t81.5 -176.5zM291 566q-18 0 -36 -2v-193
q4 0 12.5 -0.5t13.5 -0.5q128 0 128 100q1 51 -28 73.5t-90 22.5zM272 -66v39h155q5 -24 7 -44q1 -15 0 -19q-1 -77 -45.5 -112.5t-112.5 -36.5q-7 -1 -26 1q-25 3 -50 11v121q37 0 54.5 8t17.5 32z" />
    <glyph glyph-name="rcommaaccent" unicode="&#x157;" horiz-adv-x="414" 
d="M280 553q68 0 130 -17q-20 -90 -31 -135q-29 2 -50 -1q-23 7 -40 7q-19 1 -46 -4v-416h-193v523q102 42 230 43zM61 -66v39h155q1 -9 3.5 -24t3.5 -20v-19q-1 -77 -45.5 -112.5t-112.5 -36.5q-8 -1 -26 1q-25 3 -50 11v121q36 0 54 8t18 32z" />
    <glyph glyph-name="Rcaron" unicode="&#x158;" horiz-adv-x="673" 
d="M644 -13h-218q-89 182 -141 274h-31v-274h-197v692q110 32 226 32q158 0 238 -60t80 -175q0 -61 -35 -111t-89 -73v-1q21 -27 47 -71t38.5 -68l45.5 -91.5zM402 471q0 50 -28 75t-68 25q-28 0 -52 -6v-197h52q40 0 68 27.5t28 75.5zM195 1035l105 -84l105 84l84 -98
l-189 -169l-186 169z" />
    <glyph glyph-name="rcaron" unicode="&#x159;" horiz-adv-x="414" 
d="M280 553q68 0 130 -17q-20 -90 -31 -135q-29 2 -50 -1q-23 7 -40 7q-19 1 -46 -4v-416h-193v523q102 42 230 43zM138 820l105 -84l105 84l84 -98l-189 -169l-186 169z" />
    <glyph glyph-name="Sacute" unicode="&#x15a;" horiz-adv-x="572" 
d="M509 200q0 -102 -72 -163.5t-197 -61.5q-141 0 -225 54l51 152q73 -44 153 -44q83 0 83 55q0 29 -27 47.5t-104 49.5q-139 65 -143 193q-1 24 4 55q15 81 82 130t167 49q115 0 203 -51l-51 -142q-70 38 -131 38q-77 0 -77 -50q0 -15 7.5 -27t27.5 -24t36.5 -19.5
t54.5 -22.5q88 -41 123 -90.5t35 -127.5zM316 784h-137l80 215h225z" />
    <glyph glyph-name="sacute" unicode="&#x15b;" horiz-adv-x="476" 
d="M435 155q0 -84 -61 -131.5t-171 -47.5q-106 0 -188 41l42 142q70 -36 131 -36q53 0 53 30q0 15 -20 28t-72 34q-62 29 -90.5 67t-28.5 94q0 80 57 130t152 50q99 0 179 -39l-41 -132q-60 29 -110 29q-48 0 -48 -30q0 -9 3 -14.5t11 -11t16 -9.5l26 -12.5t33 -16.5
q71 -32 99 -69.5t28 -95.5zM274 622h-137l80 215h225z" />
    <glyph glyph-name="Scircumflex" unicode="&#x15c;" horiz-adv-x="572" 
d="M509 200q0 -102 -72 -163.5t-197 -61.5q-141 0 -225 54l51 152q73 -44 153 -44q83 0 83 55q0 29 -27 47.5t-104 49.5q-139 65 -143 193q-1 24 4 55q15 81 82 130t167 49q115 0 203 -51l-51 -142q-70 38 -131 38q-77 0 -77 -50q0 -15 7.5 -27t27.5 -24t36.5 -19.5
t54.5 -22.5q88 -41 123 -90.5t35 -127.5zM247 841l-105 -84l-84 98l189 169l186 -169l-81 -98z" />
    <glyph glyph-name="scircumflex" unicode="&#x15d;" horiz-adv-x="476" 
d="M435 155q0 -84 -61 -131.5t-171 -47.5q-106 0 -188 41l42 142q70 -36 131 -36q53 0 53 30q0 15 -20 28t-72 34q-62 29 -90.5 67t-28.5 94q0 80 57 130t152 50q99 0 179 -39l-41 -132q-60 29 -110 29q-48 0 -48 -30q0 -9 3 -14.5t11 -11t16 -9.5l26 -12.5t33 -16.5
q71 -32 99 -69.5t28 -95.5zM205 680l-105 -84l-84 98l189 169l186 -169l-81 -98z" />
    <glyph glyph-name="Scedilla" unicode="&#x15e;" horiz-adv-x="572" 
d="M355 -31q32 -29 32 -78q9 -25 3 -51q-27 -81 -150 -81q-47 0 -115 20l27 130q54 -17 79 -17q1 1 -4 7q-10 5 -47 17l19 49q-114 12 -193 61l57 162q102 -56 201 -56q96 0 96 55q0 28 -29 47t-101 44q-46 16 -77 32t-63.5 42t-49 64.5t-16.5 88.5q0 106 74.5 167.5
t201.5 61.5q124 0 232 -61l-60 -160q-89 49 -165 49q-87 0 -87 -46q0 -25 26.5 -41t83.5 -36q124 -46 175.5 -96.5t51.5 -155.5q0 -183 -202 -218z" />
    <glyph glyph-name="scedilla" unicode="&#x15f;" horiz-adv-x="476" 
d="M336 -109q9 -40 -8 -72q-36 -60 -139 -60q-45 0 -115 20l28 130q54 -17 79 -17q1 1 -5 7q-8 5 -47 17q3 8 10 24.5t10 24.5q-81 10 -138 37l33 161q84 -34 146 -39q12 -1 33 -1q52 1 52 20q0 10 -17 19.5t-62 26.5q-86 33 -127.5 73.5t-41.5 118.5q0 85 60.5 133.5
t166.5 48.5q90 0 186 -35l-34 -156q-85 31 -144 31q-51 0 -51 -20q0 -11 14 -19.5t55 -24.5q101 -38 140.5 -80.5t39.5 -116.5q0 -68 -40.5 -112t-115.5 -60q34 -31 32 -79z" />
    <glyph glyph-name="Scaron" unicode="&#x160;" horiz-adv-x="572" 
d="M509 200q0 -102 -72 -163.5t-197 -61.5q-141 0 -225 54l51 152q73 -44 153 -44q83 0 83 55q0 29 -27 47.5t-104 49.5q-139 65 -143 193q-1 24 4 55q15 81 82 130t167 49q115 0 203 -51l-51 -142q-70 38 -131 38q-77 0 -77 -50q0 -15 7.5 -27t27.5 -24t36.5 -19.5
t54.5 -22.5q88 -41 123 -90.5t35 -127.5zM142 1035l105 -84l105 84l84 -98l-189 -169l-186 169z" />
    <glyph glyph-name="scaron" unicode="&#x161;" horiz-adv-x="476" 
d="M435 155q0 -84 -61 -131.5t-171 -47.5q-106 0 -188 41l42 142q70 -36 131 -36q53 0 53 30q0 15 -20 28t-72 34q-62 29 -90.5 67t-28.5 94q0 80 57 130t152 50q99 0 179 -39l-41 -132q-60 29 -110 29q-48 0 -48 -30q0 -9 3 -14.5t11 -11t16 -9.5l26 -12.5t33 -16.5
q71 -32 99 -69.5t28 -95.5zM100 874l105 -84l105 84l84 -98l-189 -169l-186 169z" />
    <glyph glyph-name="uni0162" unicode="&#x162;" horiz-adv-x="603" 
d="M399 -109q9 -30 -1 -58q-32 -74 -146 -74q-47 0 -115 20l27 130q54 -17 79 -17q1 1 -4 7q-10 5 -47 17q16 44 23 59h-9v572h-212v171h615v-171h-211v-572h-35q36 -31 36 -84z" />
    <glyph glyph-name="uni0163" unicode="&#x163;" horiz-adv-x="435" 
d="M367 -109q9 -40 -8 -72q-36 -60 -139 -60q-46 0 -114 20l27 130q3 -1 14 -4t21.5 -5.5t20.5 -4.5q21 -3 30 1q-4 4 -15 8l-42 12q6 27 20 58q-79 21 -109 80t-30 163v463h185v-130h184v-164h-184v-174q0 -41 13 -61.5t44 -21.5q16 0 25 1q45 6 97 26l29 -155
q-52 -24 -101 -31q34 -31 32 -79z" />
    <glyph glyph-name="Tcaron" unicode="&#x164;" horiz-adv-x="603" 
d="M532 549h-160v-562h-199v562h-160v154h519v-154zM164 1035l105 -84l105 84l84 -98l-189 -169l-186 169z" />
    <glyph glyph-name="tcaron" unicode="&#x165;" horiz-adv-x="509" 
d="M439 4q-49 -21 -109 -26q-65 -3 -109.5 12.5t-67 49t-32.5 69t-14 87.5q-2 88 -2 202h-75v145h75v137h192v-136h129v-146h-129v-181q0 -51 9 -70.5t39 -20.5q36 -1 79 17q14 -129 15 -139zM334 847h167l-40 -242h-127v242z" />
    <glyph glyph-name="Tbar" unicode="&#x166;" horiz-adv-x="603" 
d="M-6 718h615v-171h-211v-144h138v-151h-138v-277h-192v277h-139v151h139v144h-212v171z" />
    <glyph glyph-name="tbar" unicode="&#x167;" horiz-adv-x="435" 
d="M228 711v-161h184v-164h-184v-43h182v-137h-182q5 -51 45 -55q10 -23 46 -20q35 5 88 25l29 -156q-83 -37 -167 -37q-126 0 -176 63t-50 185v470z" />
    <glyph glyph-name="Utilde" unicode="&#x168;" horiz-adv-x="703" 
d="M611 234q0 -120 -74.5 -190t-206.5 -70q-115 0 -188 56t-84 154q-6 47 -6 98v421h199v-390q0 -99 15.5 -137t68.5 -38q80 0 83 96q0 13 0.5 39.5t0.5 40.5v389h192v-469zM392 778q-27 0 -68 17.5t-57 17.5q-19 0 -44 -55l-109 70q20 52 58 93t88 41q27 0 67.5 -18
t57.5 -18t44 55l112 -72q-75 -131 -149 -131z" />
    <glyph glyph-name="utilde" unicode="&#x169;" 
d="M541 25q-65 -48 -245 -48q-133 0 -191 59t-58 178v330h191v-272q0 -89 8 -112q13 -35 56 -35q28 0 48 5v414h191v-519zM355 616q-27 0 -68 17.5t-57 17.5q-19 0 -44 -55l-109 70q20 52 58 93t88 41q27 0 67.5 -18t57.5 -18q16 0 44 55l112 -72q-75 -131 -149 -131z" />
    <glyph glyph-name="Umacron" unicode="&#x16a;" horiz-adv-x="703" 
d="M611 234q0 -120 -74.5 -190t-206.5 -70q-115 0 -188 56t-84 154q-6 47 -6 98v421h199v-390q0 -99 15.5 -137t68.5 -38q80 0 83 96q0 13 0.5 39.5t0.5 40.5v389h192v-469zM520 784h-364v145h364v-145z" />
    <glyph glyph-name="umacron" unicode="&#x16b;" 
d="M541 25q-65 -48 -245 -48q-133 0 -191 59t-58 178v330h191v-272q0 -89 8 -112q13 -35 56 -35q28 0 48 5v414h191v-519zM483 623h-364v145h364v-145z" />
    <glyph glyph-name="Ubreve" unicode="&#x16c;" horiz-adv-x="703" 
d="M611 234q0 -120 -74.5 -190t-206.5 -70q-115 0 -188 56t-84 154q-6 47 -6 98v421h199v-390q0 -99 15.5 -137t68.5 -38q80 0 83 96q0 13 0.5 39.5t0.5 40.5v389h192v-469zM335 774q-90 0 -135.5 55t-45.5 156h141q4 -72 40 -72q35 0 41 72h140q0 -102 -45 -156.5
t-136 -54.5z" />
    <glyph glyph-name="ubreve" unicode="&#x16d;" 
d="M541 25q-65 -48 -245 -48q-133 0 -191 59t-58 178v330h191v-272q0 -89 8 -112q13 -35 56 -35q28 0 48 5v414h191v-519zM298 612q-90 0 -135.5 55t-45.5 156h141q4 -72 40 -72q35 0 41 72h140q0 -102 -45 -156.5t-136 -54.5z" />
    <glyph glyph-name="Uring" unicode="&#x16e;" horiz-adv-x="703" 
d="M611 234q0 -120 -74.5 -190t-206.5 -70q-115 0 -188 56t-84 154q-6 47 -6 98v421h199v-390q0 -99 15.5 -137t68.5 -38q80 0 83 96q0 13 0.5 39.5t0.5 40.5v389h192v-469zM475 893q0 -64 -40.5 -100.5t-100.5 -36.5q-58 0 -98.5 36.5t-40.5 100.5t40.5 100.5t98.5 36.5
q60 0 100.5 -36.5t40.5 -100.5zM357 893q0 11 -7 17.5t-16 6.5q-21 0 -21 -24q0 -23 21 -23q10 0 16.5 6t6.5 17z" />
    <glyph glyph-name="uring" unicode="&#x16f;" 
d="M541 25q-65 -48 -245 -48q-133 0 -191 59t-58 178v330h191v-272q0 -89 8 -112q13 -35 56 -35q28 0 48 5v414h191v-519zM439 732q0 -64 -40.5 -100.5t-100.5 -36.5q-58 0 -98.5 36.5t-40.5 100.5t40.5 100.5t98.5 36.5q60 0 100.5 -36.5t40.5 -100.5zM321 732
q0 11 -7 17.5t-16 6.5q-21 0 -21 -24q0 -23 21 -23q10 0 16.5 6t6.5 17z" />
    <glyph glyph-name="Uhungarumlaut" unicode="&#x170;" horiz-adv-x="703" 
d="M611 234q0 -120 -74.5 -190t-206.5 -70q-115 0 -188 56t-84 154q-6 47 -6 98v421h199v-390q0 -99 15.5 -137t68.5 -38q80 0 83 96q0 13 0.5 39.5t0.5 40.5v389h192v-469zM357 799l150 212l122 -99l-172 -189zM411 917l-166 -194l-99 76l149 212z" />
    <glyph glyph-name="uhungarumlaut" unicode="&#x171;" 
d="M541 25q-65 -48 -245 -48q-133 0 -191 59t-58 178v330h191v-272q0 -89 8 -112q13 -35 56 -35q28 0 48 5v414h191v-519zM289 661l150 212l122 -99l-172 -189zM343 779l-166 -194l-99 76l149 212z" />
    <glyph glyph-name="Uogonek" unicode="&#x172;" horiz-adv-x="703" 
d="M294 -35q-29 4 -59 14q-95 27 -141 100.5t-46 181.5v457h192v-444q0 -140 111 -140q112 0 112 140v444h192v-457q0 -182 -128 -259q-32 -19 -63 -45t-35 -43q4 -6 25 -3q50 14 51 14l17 -141q-59 -25 -119 -25q-146 0 -146 113q0 48 37 93z" />
    <glyph glyph-name="uogonek" unicode="&#x173;" 
d="M315 -35q-12 -2 -22 -2q-137 0 -194 70t-57 199v318h186v-299q0 -66 16.5 -93.5t58.5 -27.5q31 0 49 3v417h186v-548q-12 -8 -27 -20q1 0 3 2t3 2q-3 -2 -22.5 -19t-31.5 -29.5t-14 -20.5q7 -7 25 -3q17 3 52 13l17 -141q-58 -24 -120 -24q-114 0 -138 71q-8 23 -6 49
q3 41 36 83z" />
    <glyph glyph-name="Wcircumflex" unicode="&#x174;" horiz-adv-x="944" 
d="M897 703q-82 -393 -170 -716h-174q-47 149 -87 292q-4 15 -9.5 39.5t-7.5 30.5q-1 -2 -17 -69q-32 -117 -86 -293h-174q-84 302 -170 716h202q34 -205 57 -328q14 -85 20 -105q2 4 4.5 16t7 31l7.5 31q40 149 79 317h152q40 -175 77 -312l7.5 -30.5l7.5 -31t5 -19.5
q1 1 12 70q29 145 65 361h192zM451 841l-105 -84l-84 98l189 169l186 -169l-81 -98z" />
    <glyph glyph-name="wcircumflex" unicode="&#x175;" horiz-adv-x="783" 
d="M807 544q-76 -284 -167 -557h-164q-57 199 -62 218q-4 15 -8 38t-5 27q-71 -270 -75 -283h-164q-85 257 -166 557h195q35 -179 52 -248q12 -73 13 -74l7 32q10 56 37.5 161t32.5 129h151q8 -37 31 -133t33 -153q6 -27 8 -35q1 0 3 10.5t5 29.5l5 31q29 122 56 250h182z
M399 680l-105 -84l-84 98l189 169l186 -169l-81 -98z" />
    <glyph glyph-name="Ycircumflex" unicode="&#x176;" horiz-adv-x="646" 
d="M619 703q-108 -226 -222 -432v-284h-198v283q-119 220 -221 433h218q50 -130 109 -250q70 149 111 250h203zM306 841l-105 -84l-84 98l189 169l186 -169l-81 -98z" />
    <glyph glyph-name="ycircumflex" unicode="&#x177;" horiz-adv-x="572" 
d="M562 544q-94 -321 -216 -650q-25 -56 -59.5 -77.5t-97.5 -21.5q-44 0 -134 29l39 129q36 -14 53 -14q9 0 16 3.5t11 7.5t8 13l6 13.5t5 16.5t4 15q-111 279 -188 536h201q30 -138 59 -245q22 -91 23 -93q2 5 5.5 19t8 36.5t8.5 38.5q30 112 61 244h187zM288 680l-105 -84
l-84 98l189 169l186 -169l-81 -98z" />
    <glyph glyph-name="Ydieresis" unicode="&#x178;" horiz-adv-x="646" 
d="M619 703q-108 -226 -222 -432v-284h-198v283q-119 220 -221 433h218q50 -130 109 -250q70 149 111 250h203zM278 884q0 -44 -28.5 -70t-69.5 -26t-69 26t-28 70t28.5 70.5t68.5 26.5q41 0 69.5 -26.5t28.5 -70.5zM525 884q0 -44 -28 -70t-69 -26t-69 26t-28 70t28.5 70.5
t68.5 26.5t68.5 -26.5t28.5 -70.5z" />
    <glyph glyph-name="Zacute" unicode="&#x179;" horiz-adv-x="602" 
d="M527 -13h-516v131q36 83 136 243t116 188h-230v154h497v-111q-21 -49 -122.5 -208t-142.5 -243h262v-154zM359 784h-137l80 215h225z" />
    <glyph glyph-name="zacute" unicode="&#x17a;" horiz-adv-x="493" 
d="M454 -13h-438v119q24 40 91.5 143.5t94.5 148.5h-170v146h419v-100l-56 -83l-35 -52.5l-37 -55.5t-34.5 -54.5l-39.5 -65.5h205v-146zM317 622h-137l80 215h225z" />
    <glyph glyph-name="Zdotaccent" unicode="&#x17b;" horiz-adv-x="602" 
d="M527 -13h-516v131q36 83 136 243t116 188h-230v154h497v-111q-21 -49 -122.5 -208t-142.5 -243h262v-154zM288 760q-41 0 -70 27.5t-29 71.5t29 71.5t70 27.5q42 0 71 -27.5t29 -71.5t-29 -71.5t-71 -27.5z" />
    <glyph glyph-name="zdotaccent" unicode="&#x17c;" horiz-adv-x="493" 
d="M454 -13h-438v119q24 40 91.5 143.5t94.5 148.5h-170v146h419v-100l-56 -83l-35 -52.5l-37 -55.5t-34.5 -54.5l-39.5 -65.5h205v-146zM246 598q-41 0 -70 27.5t-29 71.5t29 71.5t70 27.5q42 0 71 -27.5t29 -71.5t-29 -71.5t-71 -27.5z" />
    <glyph glyph-name="Zcaron" unicode="&#x17d;" horiz-adv-x="602" 
d="M527 -13h-516v131q36 83 136 243t116 188h-230v154h497v-111q-21 -49 -122.5 -208t-142.5 -243h262v-154zM185 1035l105 -84l105 84l84 -98l-189 -169l-186 169z" />
    <glyph glyph-name="zcaron" unicode="&#x17e;" horiz-adv-x="493" 
d="M454 -13h-438v119q24 40 91.5 143.5t94.5 148.5h-170v146h419v-100l-56 -83l-35 -52.5l-37 -55.5t-34.5 -54.5l-39.5 -65.5h205v-146zM143 874l105 -84l105 84l84 -98l-189 -169l-186 169z" />
    <glyph glyph-name="longs" unicode="&#x17f;" horiz-adv-x="316" 
d="M233 555v-580h-186v582q0 115 63 179.5t184 64.5q84 0 156 -35l-38 -158q-62 28 -104 28q-75 0 -75 -81z" />
    <glyph glyph-name="uni0180" unicode="&#x180;" horiz-adv-x="601" 
d="M233 806v-93h151v-137h-151v-42q45 15 90 15q121 0 188.5 -80.5t67.5 -212.5q0 -134 -79 -214t-217 -80q-119 0 -236 36v578h-65v137h65v63zM233 368v-236q22 -4 49 -4q51 0 79.5 36t28.5 96q0 123 -91 123q-36 0 -66 -15z" />
    <glyph glyph-name="uni0181" unicode="&#x181;" horiz-adv-x="795" 
d="M400 726q288 0 331 -154q8 -38 7 -75q-5 -71 -59 -118q52 -27 73.5 -68.5t21.5 -102.5q0 -242 -342 -242q-133 0 -246 25v554q-31 -8 -31 -34q0 -20 11 -64l-158 -21q-17 68 -17 100q0 40 14 71.5t35.5 52t56.5 35.5t67.5 22.5t78 12t78.5 5.5t79 1zM455 282h-80v-147
q36 -2 60 -2q144 0 144 77q0 72 -124 72zM437 560q-49 0 -62 -1v-118h53q65 0 94 13t29 48q0 58 -114 58z" />
    <glyph glyph-name="uni0182" unicode="&#x182;" horiz-adv-x="644" 
d="M270 300h-27v-159q13 -1 44 -1q142 0 142 78q0 48 -39 65t-120 17zM243 469h33q171 0 259.5 -59t88.5 -191q0 -125 -88.5 -188t-255.5 -63q-109 0 -224 27v723h503v-171h-316v-78z" />
    <glyph glyph-name="uni0183" unicode="&#x183;" horiz-adv-x="601" 
d="M233 632v-96q45 15 90 15q121 0 188.5 -80.5t67.5 -213.5q0 -135 -79 -215t-217 -80q-119 0 -236 36v797h478v-163h-292zM233 370v-238q22 -4 49 -4q51 0 79.5 36t28.5 97q0 124 -91 124q-36 0 -66 -15z" />
    <glyph glyph-name="uni0184" unicode="&#x184;" horiz-adv-x="601" 
d="M233 809v-263q45 15 90 15q122 0 189 -81t67 -218q0 -138 -78.5 -219t-217.5 -81q-119 0 -236 36v594l-97 103q139 76 283 114zM233 380v-248q22 -4 49 -4q51 0 79.5 37t28.5 101q0 129 -91 129q-36 0 -66 -15z" />
    <glyph glyph-name="uni0185" unicode="&#x185;" horiz-adv-x="636" 
d="M271 306q-20 0 -27 -1v-166q42 -2 69 0q116 7 116 82q0 85 -158 85zM244 735v-262q8 1 28 1q352 0 352 -253q0 -252 -345 -252q-113 0 -222 26v523l-98 103q142 77 285 114z" />
    <glyph glyph-name="uni0186" unicode="&#x186;" horiz-adv-x="641" 
d="M241 137q77 0 126 52.5t49 155.5q0 98 -44.5 155.5t-136.5 57.5q-89 0 -189 -49l-55 161q104 64 257 64q176 0 271 -100.5t95 -285.5q0 -181 -104 -284t-270 -103q-126 0 -240 65l57 161q91 -50 184 -50z" />
    <glyph glyph-name="uni0187" unicode="&#x187;" horiz-adv-x="706" 
d="M401 558q-78 0 -127 -52.5t-49 -156.5q0 -97 44.5 -154.5t136.5 -57.5t190 48l55 -161q-106 -63 -258 -63q-176 0 -271 100.5t-95 285.5q0 180 105 283.5t268 103.5q55 0 97 -11q43 88 151 88q58 0 124 -33l-46 -154q-44 19 -67 19q-31 0 -43 -39v1l-30 -98
q-98 51 -185 51z" />
    <glyph glyph-name="uni0188" unicode="&#x188;" horiz-adv-x="539" 
d="M354 561q38 82 133 85q20 1 44 -3q39 -7 77 -25l-44 -149q-39 19 -62 19q-8 0 -14.5 -4t-11.5 -12.5t-8.5 -16.5t-7.5 -21.5t-6 -22t-5 -24l-4 -20.5q-74 29 -122 29q-55 0 -83.5 -36t-28.5 -98q0 -65 27.5 -99t91.5 -34q58 0 134 32l29 -163q-83 -37 -177 -37
q-147 0 -221 82.5t-74 218.5q0 129 79 215t212 86q29 0 42 -2z" />
    <glyph glyph-name="uni0189" unicode="&#x189;" horiz-adv-x="743" 
d="M716 347q0 -188 -111.5 -284.5t-309.5 -96.5q-115 0 -227 23v293h-81v156h81v266q111 22 231 22q196 0 306.5 -93t110.5 -286zM260 282v-142q4 0 18 -0.5t25 -0.5q107 0 161.5 54.5t54.5 153.5q0 207 -212 207q-12 0 -27 -0.5t-20 -0.5v-115h127v-156h-127z" />
    <glyph glyph-name="uni018A" unicode="&#x18a;" horiz-adv-x="861" 
d="M417 726q196 0 307 -93.5t111 -285.5q0 -188 -112 -284.5t-310 -96.5q-115 0 -227 23v556q-31 -8 -31 -34q0 -20 11 -64l-158 -21q-17 68 -17 100q0 42 16 74.5t38.5 53t62.5 35.5t71 22t83 10.5t78.5 4t76.5 0.5zM425 554h-46v-414q3 0 17 -0.5t25 -0.5
q107 0 161.5 54.5t54.5 153.5q0 207 -212 207z" />
    <glyph glyph-name="uni018B" unicode="&#x18b;" horiz-adv-x="644" 
d="M401 300h-20q-57 0 -90 -5.5t-54.5 -24t-21.5 -52.5q0 -70 110 -77q45 -3 76 -1v160zM368 469h33v78h-316v171h503v-723q-115 -27 -224 -27q-167 0 -255.5 63t-88.5 188q0 132 88.5 191t259.5 59z" />
    <glyph glyph-name="uni018C" unicode="&#x18c;" horiz-adv-x="601" 
d="M367 536v96h-292v163h478v-797q-116 -36 -236 -36q-138 0 -217 80t-79 215q0 133 67.5 213.5t188.5 80.5q47 0 90 -15zM367 132v238q-28 15 -65 15q-91 0 -91 -124q0 -61 28 -97t79 -36q29 0 49 4z" />
    <glyph glyph-name="uni018D" unicode="&#x18d;" horiz-adv-x="590" 
d="M571 299q0 -68 -36 -128t-96 -99q27 -24 39.5 -48t13.5 -62q1 -26 -7 -58q-15 -56 -71 -86.5t-145 -30.5q-103 0 -206 40l42 157q63 -26 113 -32q31 -3 53 -2q36 2 36 11q0 11 -16.5 22t-58.5 33q-110 58 -161.5 118.5t-51.5 156.5q0 121 74.5 196.5t200.5 75.5
q128 0 202.5 -73.5t74.5 -190.5zM302 170q36 19 58 52.5t22 69.5q0 49 -23.5 76.5t-64.5 27.5q-40 0 -63.5 -26.5t-23.5 -77.5q0 -40 23 -67.5t72 -54.5z" />
    <glyph glyph-name="uni018E" unicode="&#x18e;" horiz-adv-x="598" 
d="M541 -25h-531v170h339v134h-280v167h280v102h-315v170h507v-743z" />
    <glyph glyph-name="uni018F" unicode="&#x18f;" horiz-adv-x="724" 
d="M488 248h-260q9 -55 40.5 -85.5t83.5 -30.5q113 0 136 116zM38 416h456q-12 75 -56.5 109.5t-125.5 34.5q-91 0 -196 -55l-52 158q41 25 111 48t146 23q188 0 282.5 -104.5t94.5 -279.5q0 -189 -95.5 -289t-251.5 -100q-151 0 -238 95.5t-87 276.5q0 33 12 83z" />
    <glyph glyph-name="uni0190" unicode="&#x190;" horiz-adv-x="605" 
d="M334 562q-73 0 -81 -38q-3 -27 18 -40.5t59 -18.5q0 -21 31 -21h122v-167h-111q-75 0 -114 -15.5t-39 -59.5q0 -66 119 -69q28 0 55 4q72 11 154 49l60 -158q-52 -28 -125 -48t-143 -20q-318 0 -318 237q0 117 103 176q-66 50 -71 132q-2 33 4 59q18 83 92 126t184 43
q139 0 249 -69l-64 -159q-94 57 -184 57z" />
    <glyph glyph-name="uni0191" unicode="&#x191;" horiz-adv-x="565" 
d="M249 268v-235q0 -123 -48.5 -184t-163.5 -61q-49 0 -110 21l26 160q43 -16 71 -16q20 0 26 16.5t6 55.5v693h504v-170h-311v-110h276v-170h-276z" />
    <glyph glyph-name="florin" unicode="&#x192;" horiz-adv-x="415" 
d="M233 386v-359q0 -118 -51 -175.5t-156 -60.5q-25 -2 -53 3q-43 6 -72 17l26 161q47 -17 77 -17q24 0 33.5 15.5t9.5 49.5v527q0 37 5 62q13 92 74.5 142t167.5 50q84 0 156 -35l-38 -158q-62 28 -104 28t-58 -21t-17 -65h188v-164h-188z" />
    <glyph glyph-name="uni0193" unicode="&#x193;" horiz-adv-x="718" 
d="M396 734q59 0 110 -12q22 51 57.5 70t94.5 19q57 0 123 -33l-46 -154q-44 19 -66 19q-32 0 -45 -39l1 1q-3 -10 -9.5 -30t-9.5 -30l-38 -24q-70 39 -154 39q-94 0 -141.5 -55.5t-47.5 -157.5q0 -99 45.5 -156.5t131.5 -57.5q36 0 60 4v248h193v-379q-108 -44 -263 -44
q-167 0 -266 102t-99 283q0 180 105 283.5t264 103.5z" />
    <glyph glyph-name="uni0194" unicode="&#x194;" horiz-adv-x="705" 
d="M353 37q-21 -40 -21 -66q0 -21 21 -21t21 21q0 29 -21 66zM462 172l16 -24h-1q68 -110 68 -189q0 -75 -50.5 -122t-141.5 -47q-90 0 -140.5 47.5t-51.5 121.5q0 83 70 189h-1l15 23q-108 197 -275 547h210q48 -108 175 -372q86 169 172 372h208q-120 -266 -273 -546z" />
    <glyph glyph-name="uni0195" unicode="&#x195;" horiz-adv-x="881" 
d="M533 295v-54q0 -61 13.5 -86.5t47.5 -25.5q33 0 46 25.5t13 86.5v309h186v-324q0 -135 -59.5 -200t-185.5 -65q-127 0 -187 65t-60 200v51q0 67 -12 92.5t-50 25.5q-24 0 -52 -7v-413h-186v801l186 30v-253q29 8 66 8q133 0 183.5 -68t50.5 -198z" />
    <glyph glyph-name="uni0196" unicode="&#x196;" horiz-adv-x="423" 
d="M56 202v516h192v-513q0 -41 12.5 -59t45.5 -18q36 0 97 21l30 -157q-76 -31 -147 -31q-128 0 -179 60t-51 181z" />
    <glyph glyph-name="uni0197" unicode="&#x197;" horiz-adv-x="353" 
d="M273 -25h-192v309h-101v151h101v283h192v-283h100v-151h-100v-309z" />
    <glyph glyph-name="uni0198" unicode="&#x198;" horiz-adv-x="688" 
d="M366 627q23 26 36 39t37 31.5t51.5 26.5t61.5 8q45 0 79.5 -16.5t77.5 -57.5l-88 -139q-42 40 -64 40q-19 0 -50 -34q-78 -85 -130 -147q167 -138 329 -403h-213q-30 25 -113 128t-131 143v-271h-193v743h193v-226q34 42 95 111z" />
    <glyph glyph-name="uni0199" unicode="&#x199;" horiz-adv-x="566" 
d="M47 -25v617q0 108 46 158.5t157 50.5q51 0 104 -20l-25 -147q-49 14 -64 14q-18 0 -25 -14.5t-7 -46.5v-194q75 81 139 157h228q-161 -182 -237 -257q59 -56 125.5 -148t107.5 -170h-211q-83 131 -152 201v-201h-186z" />
    <glyph glyph-name="uni019A" unicode="&#x19a;" horiz-adv-x="331" 
d="M337 125l-27 -160q-106 2 -160 30.5t-72 87.5q-13 40 -13 95v153h-79v139h79v306l186 30v-336h91v-139h-91v-140q0 -32 17.5 -47t68.5 -19z" />
    <glyph glyph-name="uni019B" unicode="&#x19b;" horiz-adv-x="538" 
d="M277 299q-63 -159 -106 -324h-192q74 261 190 497l15 49q-6 -2 -48 -18t-59 -21l-45 123q14 5 16 5q-22 79 -37 112q-11 26 -17 47q66 28 116 31q1 0 4.5 0.5t5.5 0.5q117 0 183 -97l126 45l46 -125l-113 -41q106 -251 204 -608h-197q-67 253 -92 324z" />
    <glyph glyph-name="uni019C" unicode="&#x19c;" horiz-adv-x="979" 
d="M491 7q-87 -46 -178 -46q-80 0 -134 22t-81.5 65.5t-38.5 95t-11 123.5v451h192v-427q0 -86 17.5 -122t65.5 -36q37 0 77 20q-11 49 -11 114v451h192v-429q0 -85 17.5 -120.5t65.5 -35.5q39 0 67 5v580h192v-719q-136 -38 -269 -38q-99 0 -163 46z" />
    <glyph glyph-name="uni019D" unicode="&#x19d;" horiz-adv-x="748" 
d="M247 405v-379q0 -120 -47.5 -179t-161.5 -59q-50 0 -111 21l26 160q43 -16 71 -16q32 0 32 59v706h151q130 -133 294 -376v376h191v-743h-144l-14.5 11.5l-14.5 11.5q-132 233 -272 407z" />
    <glyph glyph-name="uni019E" unicode="&#x19e;" horiz-adv-x="607" 
d="M47 -25v532q45 54 245 54q138 0 195 -68.5t57 -196.5v-506h-186v487q0 65 -16.5 91.5t-58.5 26.5q-26 0 -50 -4v-416h-186z" />
    <glyph glyph-name="uni019F" unicode="&#x19f;" horiz-adv-x="787" 
d="M761 347q0 -184 -102.5 -285t-264.5 -101q-159 0 -263 101.5t-104 284.5q0 182 106 284.5t261 102.5q159 0 263 -102t104 -285zM394 136q61 0 103 36.5t56 100.5h-320q14 -65 56 -101t105 -36zM394 559q-62 0 -103.5 -35t-56.5 -99h318q-14 64 -55 99t-103 35z" />
    <glyph glyph-name="Ohorn" unicode="&#x1a0;" horiz-adv-x="787" 
d="M761 347q0 -184 -102.5 -285t-264.5 -101q-159 0 -263 101.5t-104 284.5q0 182 106 284.5t261 102.5q96 0 175 -41q12 23 12 61q0 4 -4 72h175q7 -48 7 -75q0 -105 -62 -170q64 -99 64 -234zM564 347q0 97 -45.5 154.5t-124.5 57.5t-124.5 -58t-45.5 -154
q0 -97 45.5 -154t124.5 -57t124.5 57t45.5 154z" />
    <glyph glyph-name="ohorn" unicode="&#x1a1;" horiz-adv-x="604" 
d="M582 263q0 -136 -76.5 -219t-203.5 -83q-126 0 -203.5 83.5t-77.5 218.5q0 134 79 217t202 83q76 0 139 -36q12 23 12 60q0 28 -4 69h163q7 -44 8 -53q1 -20 0 -35q-1 -84 -69 -157q31 -65 31 -148zM392 263q0 62 -23.5 97.5t-66.5 35.5t-67 -35.5t-24 -97.5
q0 -63 24 -99t67 -36t66.5 36t23.5 99z" />
    <glyph glyph-name="uni01A2" unicode="&#x1a2;" horiz-adv-x="1062" 
d="M381 734q114 0 197 -59q81 59 177 59q78 0 129 -21t77 -64t35.5 -93t9.5 -124v-457h-192v454q0 75 -16.5 103t-56.5 28q-23 0 -51 -15q45 -85 45 -198q0 -183 -101 -284.5t-253 -101.5q-149 0 -251.5 102t-102.5 284q0 92 29.5 167t79.5 122t113 72.5t132 25.5zM381 136
q70 0 113.5 58t43.5 153q0 96 -43.5 154t-113.5 58q-71 0 -114 -58.5t-43 -153.5q0 -96 43 -153.5t114 -57.5z" />
    <glyph glyph-name="uni01A3" unicode="&#x1a3;" horiz-adv-x="858" 
d="M568 263q0 -136 -75 -219t-198 -83q-121 0 -197.5 83.5t-76.5 218.5q0 134 77.5 217t196.5 83q87 0 149 -42q64 40 146 40q70 0 116 -20t69.5 -60t32 -85.5t8.5 -109.5v-496h-186v488q0 62 -10 89.5t-39 27.5q-19 0 -35 -8q22 -54 22 -124zM379 263q0 62 -22 97.5
t-62 35.5q-84 0 -84 -133q0 -63 22 -99t62 -36t62 36t22 99z" />
    <glyph glyph-name="uni01A4" unicode="&#x1a4;" horiz-adv-x="766" 
d="M413 726q170 0 256.5 -62t86.5 -193q0 -134 -87.5 -196t-258.5 -62h-31v-238h-193v570q-31 -9 -31 -34q0 -20 11 -64l-158 -21q-17 68 -17 100q0 41 15.5 73.5t38 53t61 35t70.5 22t81.5 11.5t78.5 4.5t77 0.5zM422 554q-31 0 -43 -1v-169h29q78 0 114.5 19t36.5 69
q0 46 -35.5 64t-101.5 18z" />
    <glyph glyph-name="uni01A5" unicode="&#x1a5;" horiz-adv-x="601" 
d="M233 598v-43q31 6 58 6q132 0 210 -81t78 -218q0 -135 -67.5 -216.5t-188.5 -81.5q-47 0 -90 16v-190h-186v802q0 89 30.5 138.5t101.5 63.5q26 7 76 7q55 -3 99 -20l-25 -147q-49 14 -64 14q-32 0 -32 -50zM233 390v-245q30 -15 66 -15q91 0 91 129q0 63 -27.5 99.5
t-76.5 36.5q-26 0 -53 -5z" />
    <glyph glyph-name="uni01A6" unicode="&#x1a6;" horiz-adv-x="659" 
d="M56 801h192v-77q6 0 21 0.5t22 0.5q161 0 246 -63.5t85 -186.5q0 -75 -29.5 -122.5t-90.5 -77.5q49 -69 118 -191t110 -217h-213q-42 92 -106 202t-106 164q-9 -1 -25 -1h-31v-257h-193v826zM288 554q-19 0 -39 -2v-156h19q82 0 119.5 17t37.5 63q0 78 -137 78z" />
    <glyph glyph-name="uni01A7" unicode="&#x1a7;" horiz-adv-x="572" 
d="M307 132q98 0 202 56l56 -162q-112 -65 -258 -65q-145 0 -219 58.5t-74 167.5q0 55 13.5 94t45.5 67.5t69 48t100 42.5q39 14 57.5 22t35 22.5t16.5 32.5q0 46 -87 46q-76 0 -165 -49l-59 160q110 61 232 61q127 0 201 -61.5t74 -167.5q0 -50 -16.5 -88.5t-48.5 -64.5
t-63.5 -42t-77.5 -32q-72 -25 -101 -44t-29 -47q0 -55 96 -55z" />
    <glyph glyph-name="uni01A8" unicode="&#x1a8;" horiz-adv-x="476" 
d="M259 122q67 0 172 41l33 -159q-95 -43 -205 -43q-118 0 -181 46t-63 135q0 75 39.5 117.5t140.5 79.5q41 16 55 24.5t14 19.5q0 20 -51 20q-59 0 -144 -31l-34 156q96 35 187 35q106 0 166 -48.5t60 -133.5q0 -78 -41.5 -118.5t-126.5 -73.5q-46 -18 -63 -27t-17 -19
q0 -21 59 -21z" />
    <glyph glyph-name="uni01A9" unicode="&#x1a9;" horiz-adv-x="588" 
d="M445 351q-21 -25 -92.5 -103t-90.5 -103h311v-170h-566v134q46 57 159 183l8 11l45 51q-33 43 -104 125.5t-93 111.5v127h551v-170h-284z" />
    <glyph glyph-name="uni01AA" unicode="&#x1aa;" horiz-adv-x="398" 
d="M165 -12v450q-25 -11 -56 -11q-72 0 -125 49.5t-53 136.5q0 91 59 141.5t145 50.5q119 0 167.5 -69t48.5 -201v-521q0 -32 17.5 -47t68.5 -19q-2 -11 -6.5 -41.5t-7.5 -47t-12.5 -38t-23.5 -33.5q-128 2 -175 50.5t-47 149.5zM130 581q18 0 35 14v9q0 48 -35 48
q-15 0 -23 -10t-8 -24q0 -16 8 -26.5t23 -10.5z" />
    <glyph glyph-name="uni01AB" unicode="&#x1ab;" horiz-adv-x="435" 
d="M290 129q63 0 128 22q16 -109 16 -174q0 -189 -187 -189q-49 0 -111 21l26 147q43 -15 73 -15q17 0 21 15q2 4 7 9q-36 0 -60 4q-90 16 -125 78t-35 172v462l185 30v-161h184v-164h-184v-174q0 -43 14 -63t48 -20z" />
    <glyph glyph-name="uni01AC" unicode="&#x1ac;" horiz-adv-x="639" 
d="M242 547h-33q-52 0 -52 -41q0 -20 11 -63l-160 -21q-17 68 -17 100t7 58.5t17 45.5t30 34t36 24.5t45 16.5t47 10t53 5t52 2h53h17h297v-171h-211v-572h-192v572z" />
    <glyph glyph-name="uni01AD" unicode="&#x1ad;" horiz-adv-x="435" 
d="M228 550h189v-164h-189v-174q0 -39 12.5 -59.5t42.5 -22.5q14 -1 37 2q45 6 90 25l30 -156q-86 -38 -169 -38q-126 0 -177 63t-51 185v346q0 116 62 180t183 64q84 0 154 -34l-38 -158q-58 27 -103 27q-42 0 -57 -21t-16 -65z" />
    <glyph glyph-name="uni01AE" unicode="&#x1ae;" horiz-adv-x="603" 
d="M398 547v-535q0 -59 32 -59q28 0 71 16l26 -160q-61 -21 -110 -21q-111 0 -161 54.5t-50 167.5v537h-212v171h615v-171h-211z" />
    <glyph glyph-name="Uhorn" unicode="&#x1af;" horiz-adv-x="738" 
d="M463 718h83q55 0 55 40q0 9 -1 32t-1 36h170q7 -48 7 -75q0 -135 -121 -166v-324q0 -139 -76 -219.5t-230 -80.5q-152 0 -226.5 81t-74.5 219v457h192v-381q0 -114 23 -158.5t88 -44.5q112 0 112 140v444z" />
    <glyph glyph-name="uhorn" unicode="&#x1b0;" horiz-adv-x="619" 
d="M538 423v-424q-118 -36 -245 -36q-137 0 -194 70t-57 199v318h186v-299q0 -66 16.5 -93.5t58.5 -27.5q31 0 49 3v417h103q38 2 38 38q0 24 -5 68h160q9 -52 9 -80q0 -52 -29.5 -95t-89.5 -58z" />
    <glyph glyph-name="uni01B1" unicode="&#x1b1;" horiz-adv-x="774" 
d="M387 -39q-157 0 -257.5 94t-100.5 262q0 130 80 233h-96v168h346v-140q-63 -54 -98 -114.5t-35 -142.5q0 -89 43.5 -138t117.5 -49q75 0 118.5 49t43.5 138q0 81 -35.5 142t-98.5 115v140h346v-168h-95q80 -106 80 -233q0 -168 -100.5 -262t-258.5 -94z" />
    <glyph glyph-name="uni01B2" unicode="&#x1b2;" horiz-adv-x="717" 
d="M688 347q0 -182 -88 -284t-251 -102q-149 0 -225 83t-76 225v449h192v-437q0 -76 30.5 -111.5t79.5 -35.5q142 0 142 211q0 109 -21 159t-79 50q-15 0 -65 -13l-17 170q58 14 101 14q145 0 211 -94.5t66 -283.5z" />
    <glyph glyph-name="uni01B3" unicode="&#x1b3;" horiz-adv-x="705" 
d="M325 451l64 124q18 36 28 53t32.5 44.5t52 40.5t67.5 14q30 2 57 -5q62 -12 120 -72l-87 -136q-41 41 -60 41q-18 0 -33 -26q-36 -60 -100 -180h1q-31 -67 -47 -97v-277h-193v285q-138 213 -262 458h221q57 -126 139 -267z" />
    <glyph glyph-name="uni01B4" unicode="&#x1b4;" horiz-adv-x="598" 
d="M490 369q-21 -59 -62.5 -187.5t-65.5 -194.5q-39 -100 -94.5 -147.5t-146.5 -49.5q-30 0 -54 4q-44 6 -91 26l34 156q60 -22 94 -22q54 0 79 61q-122 242 -205 535h197q40 -161 99 -310l52 174q22 76 58 110t112 34q59 0 128 -29l-42 -150q-45 20 -61 20
q-12 0 -18.5 -6.5t-12.5 -23.5z" />
    <glyph glyph-name="uni01B5" unicode="&#x1b5;" horiz-adv-x="602" 
d="M585 718v-136q-51 -54 -127 -151h113v-151h-229q-60 -85 -89 -135h343v-170h-586v117q49 89 115 188h-85v151h192q53 76 89 117h-294v170h558z" />
    <glyph glyph-name="uni01B6" unicode="&#x1b6;" horiz-adv-x="493" 
d="M481 550v-130q-31 -35 -81 -86h63v-133h-176q-16 -21 -47 -67h247v-159h-477v109q33 56 76 117h-44v133h148q41 52 46 57h-213v159h458z" />
    <glyph glyph-name="uni01B7" unicode="&#x1b7;" horiz-adv-x="603" 
d="M574 202q0 -122 -85.5 -182t-234.5 -60q-136 0 -264 71l60 161q117 -61 203 -61q124 0 124 73q0 46 -41 64t-115 18h-67v101l7 21q87 87 132 141h-262v169h526v-119q-51 -67 -161 -184q178 -45 178 -213z" />
    <glyph glyph-name="uni01B8" unicode="&#x1b8;" horiz-adv-x="603" 
d="M29 202q0 167 178 214q-114 121 -161 184v118h526v-169h-262q64 -72 140 -148v-115h-68q-74 0 -115 -18t-41 -64q0 -73 124 -73q92 0 203 59l60 -161q-125 -69 -264 -69q-149 0 -234.5 60t-85.5 182z" />
    <glyph glyph-name="uni01B9" unicode="&#x1b9;" horiz-adv-x="506" 
d="M407 238v-116h-75q-130 0 -130 -84q0 -38 28 -59.5t81 -21.5q89 0 177 40l44 -157q-106 -50 -229 -50q-137 0 -212.5 61.5t-75.5 181.5q0 158 163 215q-25 35 -77.5 97.5t-64.5 79.5v125h466v-164h-218q67 -86 123 -148z" />
    <glyph glyph-name="uni01BA" unicode="&#x1ba;" horiz-adv-x="507" 
d="M337 297q74 -21 108.5 -60.5t34.5 -111.5q0 -51 -17 -86.5t-55 -59.5t-80 -38.5t-109 -30.5q-58 -13 -58 -33q0 -17 25 -65l-156 -31q-45 54 -45 113q0 54 31.5 91t76.5 54t90 29t76.5 26t31.5 33q0 17 -12.5 27t-53.5 16t-119 7v116q24 22 95 93h-203v164h464v-128
q-67 -73 -125 -125z" />
    <glyph glyph-name="uni01BB" unicode="&#x1bb;" horiz-adv-x="559" 
d="M515 513q0 -56 -40 -114h54v-151h-186q-18 -18 -39.5 -36.5l-31.5 -27.5t-18.5 -20.5t-10.5 -23.5h292v-165h-512q-7 30 -7 67q0 62 23 109.5t67 96.5h-64v151h210q26 26 37 38t23 31.5t12 35.5q0 63 -75 63q-72 0 -162 -82l-97 136q53 50 122 81.5t142 31.5
q132 0 196.5 -58t64.5 -163z" />
    <glyph glyph-name="uni01BC" unicode="&#x1bc;" horiz-adv-x="553" 
d="M519 551h-256q-2 -63 -6 -97q289 -30 289 -248q0 -112 -75 -178.5t-230 -66.5q-57 0 -127.5 17.5t-99.5 34.5l40 168q67 -31 127 -42q50 -7 76 -4q50 2 73 21t23 46q0 51 -66.5 75t-230.5 24q21 174 26 250h-93v167h530v-167z" />
    <glyph glyph-name="uni01BD" unicode="&#x1bd;" horiz-adv-x="508" 
d="M489 159q0 -95 -67.5 -146.5t-198.5 -51.5q-63 0 -123 13t-91 27l33 161q62 -23 135 -32q24 -4 54 -2q72 3 72 32q0 27 -31.5 37t-124.5 10h-102l7 77q2 21 5.5 52t5.5 54h-74v160h479v-160h-234q-2 -24 -3 -35q258 0 258 -196z" />
    <glyph glyph-name="uni01BE" unicode="&#x1be;" horiz-adv-x="483" 
d="M408 388h-180q3 -10 13 -20q28 -24 64 -42.5t61.5 -30.5t49.5 -29t36 -47.5t12 -76.5q0 -89 -64 -135t-182 -46q-111 0 -206 43l34 159q83 -32 140 -38q22 -3 44 -1q48 1 48 19q0 11 -16 20.5t-61 26.5h1q-50 18 -75.5 32.5t-48.5 42t-31 69.5t-8 109v238l185 30v-161
h184v-162z" />
    <glyph glyph-name="uni01BF" unicode="&#x1bf;" horiz-adv-x="584" 
d="M283 561q130 0 205 -69.5t75 -190.5q0 -76 -25 -136t-73.5 -102.5t-102.5 -71.5t-129 -55v-146h-186v721q122 50 236 50zM282 394q-19 0 -49 -5v-274q61 28 96.5 64t41.5 91q3 19 1 45q-2 37 -26 58t-64 21z" />
    <glyph glyph-name="uni01C0" unicode="&#x1c0;" horiz-adv-x="312" 
d="M62 -210v1006h166v-1006h-166z" />
    <glyph glyph-name="uni01C1" unicode="&#x1c1;" horiz-adv-x="543" 
d="M62 -210v1006h166v-1006h-166zM292 -210v1006h167v-1006h-167z" />
    <glyph glyph-name="uni01C2" unicode="&#x1c2;" horiz-adv-x="570" 
d="M195 477v331h180v-331h187v-150h-187v-46h187v-151h-187v-340h-180v340h-187v151h187v46h-187v150h187z" />
    <glyph glyph-name="uni01C3" unicode="&#x1c3;" horiz-adv-x="284" 
d="M240 796l-3 -304q-1 -54 -14 -141t-15 -117h-119q-2 28 -15.5 115.5t-14.5 142.5l-3 304q2 1 8.5 4.5t10 5t11 4t15 4t20 2.5t26.5 1q17 0 30.5 -1t24 -4t14.5 -4.5t13.5 -6t10.5 -5.5zM249 86q0 -45 -29 -72.5t-71 -27.5q-41 0 -70 27.5t-29 71.5t27 72t72 28
q42 0 71 -28t29 -71z" />
    <glyph glyph-name="uni01C4" unicode="&#x1c4;" horiz-adv-x="1294" 
d="M658 344q0 -171 -96 -268t-280 -97q-125 0 -225 30v673q114 30 222 30q186 0 282.5 -96t96.5 -272zM255 556v-419q1 0 5.5 -0.5t12.5 -0.5h17q86 0 126 50t40 161q0 109 -39 159.5t-126 50.5q-13 0 -24 -0.5t-12 -0.5zM1224 703l-14 -112q-21 -46 -115 -205t-137 -244
h272v-155h-526l15 108q77 173 247 453h-240v155h498zM894 980l105 -84l105 84l84 -98l-189 -169l-186 169z" />
    <glyph glyph-name="uni01C5" unicode="&#x1c5;" horiz-adv-x="1206" 
d="M658 344q0 -171 -96 -268t-280 -97q-125 0 -225 30v673q114 30 222 30q186 0 282.5 -96t96.5 -272zM255 556v-419q1 0 5.5 -0.5t12.5 -0.5h17q86 0 126 50t40 161q0 109 -39 159.5t-126 50.5q-13 0 -24 -0.5t-12 -0.5zM1168 542q-2 -18 -7 -54t-7 -54l-17 -21
l-46.5 -77.5l-65 -109.5t-50.5 -91h196v-148h-442l24 126q34 72 166 282h-174v147h423zM860 820l105 -84l105 84l84 -98l-189 -169l-186 169z" />
    <glyph glyph-name="uni01C6" unicode="&#x1c6;" horiz-adv-x="1086" 
d="M554 794v-771q-94 -47 -235 -47q-135 0 -213.5 75t-78.5 213q0 131 68 209.5t181 78.5q50 0 86 -14v240q128 12 192 16zM362 126v274q-20 13 -51 13q-90 0 -90 -143q0 -73 25.5 -110.5t73.5 -37.5q22 0 42 4zM1048 542q-5 -36 -13 -108q-58 -70 -179 -299h195v-148h-442
l24 126q34 72 166 282h-174v147h423zM733 820l105 -84l105 84l84 -98l-189 -169l-186 169z" />
    <glyph glyph-name="uni01C7" unicode="&#x1c7;" horiz-adv-x="1078" 
d="M257 143h240v-156h-440v716h200v-560zM945 703v-543q0 -251 -240 -268q-82 -5 -172 35l36 149q78 -28 120 9q57 44 57 158v460h199z" />
    <glyph glyph-name="uni01C8" unicode="&#x1c8;" horiz-adv-x="831" 
d="M257 143h240v-156h-440v716h200v-560zM586 -210q-45 -8 -105 6l14 115q22 5 42 23q35 5 48.5 26.5t13.5 73.5v508h193v-496q0 -115 -53 -180t-153 -76zM801 685q0 -43 -30.5 -71t-74.5 -28t-75 28t-31 71t30.5 70.5t74.5 27.5t75 -27.5t31 -70.5z" />
    <glyph glyph-name="uni01C9" unicode="&#x1c9;" horiz-adv-x="585" 
d="M280 1l-108 -19q-97 21 -115 107q-7 29 -7 84v605q134 12 192 16v-527q0 -83 37 -122q-6 -81 1 -144zM341 -210q-46 -7 -105 6l14 115q20 4 42 23q35 5 48.5 26.5t13.5 73.5v508h192v-496q0 -115 -52.5 -180t-152.5 -76zM555 685q0 -44 -30.5 -71.5t-74.5 -27.5t-75 28
t-31 71t30.5 70.5t74.5 27.5q45 0 75.5 -27.5t30.5 -70.5z" />
    <glyph glyph-name="uni01CA" unicode="&#x1ca;" horiz-adv-x="1267" 
d="M650 -13h-120l-39 7q-57 98 -146 238.5t-107 155.5q0 -12 0.5 -49t0.5 -59v-293h-182v716h160q104 -126 209 -284l22 -35.5t21 -31.5q0 15 -1 59t-1 69v223h183v-716zM1134 703v-543q0 -251 -240 -268q-82 -5 -172 35l36 149q78 -28 120 9q57 44 57 158v460h199z" />
    <glyph glyph-name="uni01CB" unicode="&#x1cb;" horiz-adv-x="1027" 
d="M650 -13h-120l-39 7q-57 98 -146 238.5t-107 155.5q0 -12 0.5 -49t0.5 -59v-293h-182v716h160q104 -126 209 -284l22 -35.5t21 -31.5q0 15 -1 59t-1 69v223h183v-716zM782 -210q-45 -8 -105 6l14 115q22 5 42 23q35 5 48.5 26.5t13.5 73.5v508h193v-496q0 -115 -53 -180
t-153 -76zM997 685q0 -43 -30.5 -71t-74.5 -28t-75 28t-31 71t30.5 70.5t74.5 27.5t75 -27.5t31 -70.5z" />
    <glyph glyph-name="uni01CC" unicode="&#x1cc;" horiz-adv-x="866" 
d="M50 -13v520q79 46 245 46q80 0 132 -17.5t78.5 -55t36 -82t9.5 -112.5v-299h-192v270q0 37 -1 56t-4 41t-10.5 31.5t-20.5 16t-33 6.5q-21 0 -47 -4v-417h-193zM622 -210q-45 -8 -105 6l14 115q20 4 42 23q35 5 48.5 26.5t13.5 73.5v508h193v-496q0 -115 -53 -180
t-153 -76zM837 685q0 -43 -30.5 -71t-74.5 -28q-45 0 -75.5 27.5t-30.5 71.5q0 43 30.5 70.5t74.5 27.5t75 -27.5t31 -70.5z" />
    <glyph glyph-name="uni01CD" unicode="&#x1cd;" horiz-adv-x="281" 
d="M233 550v-575h-186v575h186zM36 874l105 -84l105 84l84 -98l-189 -169l-186 169z" />
    <glyph glyph-name="uni01CE" unicode="&#x1ce;" horiz-adv-x="546" 
d="M508 12q-105 -35 -238 -35q-251 0 -251 186q0 175 268 190q17 0 37 -2q-5 63 -79 63q-75 0 -153 -31l-33 136q99 37 213 37q204 0 231 -164q5 -26 5 -69v-311zM326 113v123q-26 0 -40 -1q-82 -7 -82 -66q0 -60 75 -60q33 0 47 4zM173 872l105 -84l105 84l84 -98
l-189 -169l-186 169z" />
    <glyph glyph-name="uni01CF" unicode="&#x1cf;" horiz-adv-x="305" 
d="M256 -13h-199v716h199v-716zM50 1035l105 -84l105 84l84 -98l-189 -169l-186 169z" />
    <glyph glyph-name="uni01D0" unicode="&#x1d0;" horiz-adv-x="281" 
d="M233 550v-575h-186v575h186zM36 874l105 -84l105 84l84 -98l-189 -169l-186 169z" />
    <glyph glyph-name="uni01D1" unicode="&#x1d1;" horiz-adv-x="718" 
d="M683 345q0 -169 -86.5 -269.5t-237.5 -100.5q-150 0 -237 100.5t-87 269.5t87.5 270t236.5 101q150 0 237 -101t87 -270zM480 349q0 93 -30.5 152.5t-90.5 59.5q-61 0 -91 -59.5t-30 -152.5t30 -152.5t91 -59.5t91 59.5t30 152.5zM252 1029l105 -84l105 84l84 -98
l-189 -169l-186 169z" />
    <glyph glyph-name="uni01D2" unicode="&#x1d2;" horiz-adv-x="603" 
d="M562 266q0 -130 -72 -210t-195 -80t-195.5 80t-72.5 210q0 129 74 209.5t194 80.5q121 0 194 -80.5t73 -209.5zM370 268q0 143 -75 143q-76 0 -76 -143t76 -143q75 0 75 143zM190 874l105 -84l105 84l84 -98l-189 -169l-186 169z" />
    <glyph glyph-name="uni01D3" unicode="&#x1d3;" horiz-adv-x="703" 
d="M611 234q0 -120 -74.5 -190t-206.5 -70q-115 0 -188 56t-84 154q-6 47 -6 98v421h199v-390q0 -99 15.5 -137t68.5 -38q80 0 83 96q0 13 0.5 39.5t0.5 40.5v389h192v-469zM230 1035l105 -84l105 84l84 -98l-189 -169l-186 169z" />
    <glyph glyph-name="uni01D4" unicode="&#x1d4;" 
d="M541 25q-65 -48 -245 -48q-133 0 -191 59t-58 178v330h191v-272q0 -89 8 -112q13 -35 56 -35q28 0 48 5v414h191v-519zM193 874l105 -84l105 84l84 -98l-189 -169l-186 169z" />
    <glyph glyph-name="uni01D5" unicode="&#x1d5;" horiz-adv-x="703" 
d="M335 -26q-282 0 -282 305v424h199v-392q0 -96 17.5 -134t69.5 -38q53 0 70 37t17 136v391h193v-464q0 -123 -74.5 -194t-209.5 -71zM162 959v119h376v-119h-376zM334 830q-1 -37 -26 -59.5t-60 -22.5q-38 0 -62.5 23.5t-24.5 62.5q0 47 25 67.5t61 20.5q39 0 62.5 -23
t24.5 -69zM541 834q0 -39 -25.5 -62.5t-61.5 -23.5t-60.5 23.5t-25.5 65.5q1 43 24 63.5t58 21.5q16 1 36 -6.5t28 -17.5q27 -35 27 -64z" />
    <glyph glyph-name="uni01D6" unicode="&#x1d6;" 
d="M541 25q-65 -48 -245 -48q-133 0 -191 59t-58 178v330h191v-272q0 -89 8 -112q13 -35 56 -35q28 0 48 5v414h191v-519zM83 803v120h377v-120h-377zM255 675q-1 -37 -25.5 -59.5t-60.5 -22.5q-38 0 -62 23t-24 63q0 46 25 66.5t60 20.5q39 0 62.5 -22.5t24.5 -68.5z
M462 679q0 -39 -24.5 -62.5t-61.5 -23.5t-61.5 23.5t-25.5 65.5q4 81 82 85q16 1 36 -6.5t29 -18.5q26 -34 26 -63z" />
    <glyph glyph-name="uni01D7" unicode="&#x1d7;" horiz-adv-x="703" 
d="M611 234q0 -120 -74.5 -190t-206.5 -70q-115 0 -188 56t-84 154q-6 47 -6 98v421h199v-390q0 -99 15.5 -137t68.5 -38q80 0 83 96q0 13 0.5 39.5t0.5 40.5v389h192v-469zM233 843l154 222l131 -100l-175 -202zM219 853q0 -44 -28.5 -70.5t-68.5 -26.5t-68.5 26.5
t-28.5 70.5t28 70t69 26t69 -26t28 -70zM673 853q0 -44 -28.5 -70.5t-68.5 -26.5q-41 0 -69.5 26.5t-28.5 70.5q0 43 28.5 69.5t69.5 26.5t69 -26t28 -70z" />
    <glyph glyph-name="uni01D8" unicode="&#x1d8;" horiz-adv-x="686" 
d="M579 25q-67 -48 -246 -48q-132 0 -190.5 59t-58.5 178v330h191v-272q0 -90 10 -114q13 -33 55 -33q26 0 48 5v414h191v-519zM226 676l154 222l131 -100l-175 -202zM212 686q0 -44 -28.5 -70.5t-68.5 -26.5t-68.5 26.5t-28.5 70.5t28 70t69 26t69 -26t28 -70zM666 686
q0 -44 -28.5 -70.5t-68.5 -26.5q-41 0 -69.5 26.5t-28.5 70.5q0 43 28.5 69.5t69.5 26.5t69 -26t28 -70z" />
    <glyph glyph-name="uni01D9" unicode="&#x1d9;" horiz-adv-x="642" 
d="M608 234q0 -120 -74 -190t-206 -70q-116 0 -188.5 56t-83.5 154q-6 47 -6 98v421h199v-390q0 -99 15.5 -137t68.5 -38q79 0 82 96q1 26 1 80v389h192v-469zM217 1115l105 -84l105 84l84 -98l-189 -169l-186 169zM238 849q0 -44 -28 -70t-69 -26t-69 26t-28 70t28 70.5
t69 26.5t69 -26.5t28 -70.5zM596 849q0 -44 -28 -70t-69 -26t-69 26t-28 70t28 70.5t69 26.5t69 -26.5t28 -70.5z" />
    <glyph glyph-name="uni01DA" unicode="&#x1da;" horiz-adv-x="618" 
d="M544 25q-65 -48 -245 -48q-133 0 -191 59t-58 178v330h191v-272q0 -90 9 -114q14 -33 55 -33q28 0 48 5v414h191v-519zM197 943l105 -84l105 84l84 -98l-189 -170l-186 170zM218 677q0 -44 -28.5 -70.5t-68.5 -26.5t-68.5 26.5t-28.5 70.5t28.5 70.5t68.5 26.5
t68.5 -26.5t28.5 -70.5zM576 677q0 -44 -28.5 -70.5t-68.5 -26.5t-68.5 26.5t-28.5 70.5t28.5 70.5t68.5 26.5t68.5 -26.5t28.5 -70.5z" />
    <glyph glyph-name="uni01DB" unicode="&#x1db;" horiz-adv-x="698" 
d="M624 234q0 -120 -74 -190t-206 -70q-116 0 -188.5 56t-84.5 154q-5 52 -5 98v421h199v-390q0 -100 15.5 -137.5t67.5 -37.5q80 0 83 96q1 26 1 80v389h192v-469zM620 831q0 -45 -29 -72.5t-71 -27.5t-71 27.5t-29 71.5t27.5 72t72.5 28q41 0 70.5 -28t29.5 -71zM271 831
q0 -45 -29 -72.5t-71 -27.5t-71 27.5t-29 71.5t27.5 72t72.5 28q41 0 70.5 -28t29.5 -71zM291 1094l154 -222l-110 -80l-175 203z" />
    <glyph glyph-name="uni01DC" unicode="&#x1dc;" horiz-adv-x="575" 
d="M544 25q-65 -48 -245 -48q-133 0 -191 59t-58 178v330h191v-272q0 -90 9 -114q14 -33 55 -33q28 0 48 5v414h191v-519zM561 671q0 -45 -29 -72.5t-71 -27.5t-71 27.5t-29 71.5t27.5 72t72.5 28q41 0 70.5 -28t29.5 -71zM212 671q0 -45 -29 -72.5t-71 -27.5t-71 27.5
t-29 71.5t27.5 72t72.5 28q41 0 70.5 -28t29.5 -71zM232 934l154 -222l-110 -80l-175 203z" />
    <glyph glyph-name="uni01DD" unicode="&#x1dd;" horiz-adv-x="578" 
d="M557 266q0 -144 -80.5 -224.5t-192.5 -80.5q-123 0 -192.5 74.5t-69.5 218.5q0 12 1.5 39t1.5 38h332q-26 58 -106 64q-18 1 -58 -3q-56 -6 -115 -33l-27 161q34 17 93 30t113 13q149 0 224.5 -81.5t75.5 -215.5zM359 186h-150q12 -62 73 -62q59 0 77 62z" />
    <glyph glyph-name="uni01DE" unicode="&#x1de;" horiz-adv-x="708" 
d="M684 -13h-160l-52 10l-24 77q-3 10 -7.5 26.5t-5.5 20.5h-217q-34 -103 -42 -134h-191q148 441 257 716h184q108 -277 258 -716zM396 261l-51 169q-4 12 -7 27.5t-5 25t-4 12.5q-3 -5 -7 -24q-10 -39 -34.5 -114t-30.5 -96h139zM156 959v119h376v-119h-376zM328 830
q-1 -37 -26 -59.5t-61 -22.5q-37 0 -61.5 23.5t-24.5 62.5q0 47 25 67.5t60 20.5q39 0 63 -23t25 -69zM534 834q0 -39 -25 -62.5t-61 -23.5t-60.5 23.5t-25.5 65.5q1 44 24 64.5t58 20.5q37 0 63.5 -25.5t26.5 -62.5z" />
    <glyph glyph-name="uni01DF" unicode="&#x1df;" horiz-adv-x="546" 
d="M508 12q-105 -35 -238 -35q-251 0 -251 186q0 175 268 190q28 4 37 4q-4 57 -79 57t-153 -31l-33 136q99 37 213 37q204 0 231 -164q5 -26 5 -69v-311zM326 113v123q-26 0 -40 -1q-82 -7 -82 -66q0 -60 75 -60q33 0 47 4zM80 803v120h376v-120h-376zM252 675
q-1 -37 -26 -59.5t-60 -22.5q-38 0 -62 23t-24 63q0 46 24.5 66.5t60.5 20.5q39 0 62.5 -22.5t24.5 -68.5zM459 679q0 -39 -25 -62.5t-62 -23.5q-36 0 -60.5 23.5t-25.5 65.5q4 81 82 85q36 2 63.5 -24.5t27.5 -63.5z" />
    <glyph glyph-name="uni01E0" unicode="&#x1e0;" horiz-adv-x="708" 
d="M684 -13h-160l-52 10l-24 77q-3 10 -7.5 26.5t-5.5 20.5h-217q-34 -103 -42 -134h-191q148 441 257 716h184q108 -277 258 -716zM396 261l-51 169q-4 12 -7 27.5t-5 25t-4 12.5q-3 -5 -7 -24q-10 -39 -34.5 -114t-30.5 -96h139zM174 953v126h309v-126h-309zM415 836
q0 -39 -25 -62.5t-62 -23.5q-36 0 -61 24t-25 62q0 40 25 65.5t63 25.5q36 0 60.5 -26t24.5 -65z" />
    <glyph glyph-name="uni01E1" unicode="&#x1e1;" horiz-adv-x="546" 
d="M508 12q-105 -35 -238 -35q-251 0 -251 186q0 175 268 190q28 4 37 4q-4 57 -79 57t-153 -31l-33 136q99 37 213 37q204 0 231 -164q5 -26 5 -69v-311zM326 113v123q-26 0 -40 -1q-82 -7 -82 -66q0 -60 75 -60q33 0 47 4zM106 799v127h309v-127h-309zM347 682
q0 -39 -25 -62t-61 -23t-61.5 24t-25.5 61q0 40 25.5 66t62.5 26q36 0 60.5 -26t24.5 -66z" />
    <glyph glyph-name="uni01E2" unicode="&#x1e2;" horiz-adv-x="981" 
d="M971 -25h-510v168h-191q-75 -138 -90 -168h-213q252 459 456 743h524v-170h-298v-102h263v-167h-263v-134h322v-170zM461 307v165q-57 -86 -79 -126l-25 -39h104zM777 755h-363v145h363v-145z" />
    <glyph glyph-name="uni01E3" unicode="&#x1e3;" horiz-adv-x="871" 
d="M511 339h149q-12 61 -72 61q-59 0 -77 -61zM260 -36q-248 0 -248 196q0 99 69 144t177 45q32 0 62 -4q-7 26 -23.5 40.5t-54.5 14.5q-75 0 -158 -30l-25 161q92 32 197 32q115 0 169 -63q66 60 160 62q30 2 57 -3q97 -15 152 -88.5t55 -199.5q0 -12 -1.5 -39t-1.5 -38
h-332q25 -65 116 -65q84 0 163 37l26 -161q-60 -31 -154 -40q-25 -5 -60 -3q-101 1 -171 44q-78 -42 -174 -42zM326 203q-22 3 -45 3q-84 0 -84 -42q0 -44 71 -44q38 0 75 11q-14 38 -17 72zM601 602h-363v145h363v-145z" />
    <glyph glyph-name="uni01E4" unicode="&#x1e4;" horiz-adv-x="722" 
d="M462 137v43h-100v149h100v77h193v-77h81v-149h-81v-174q-108 -44 -263 -44q-167 0 -266 102t-99 283q0 180 105 283.5t264 103.5q143 0 256 -66l-59 -161q-95 53 -180 53q-94 0 -141 -55.5t-47 -157.5q0 -99 45.5 -156.5t131.5 -57.5q36 0 60 4z" />
    <glyph glyph-name="uni01E5" unicode="&#x1e5;" horiz-adv-x="600" 
d="M284 -23q58 3 70 44q-37 -14 -82 -14q-119 0 -185 70.5t-66 200.5q0 128 77.5 205.5t212.5 77.5q118 0 232 -35v-171h71v-134h-71v-152q0 -46 -5 -73q-28 -209 -284 -209q-98 0 -209 38l34 166q96 -39 177 -39q28 0 28 25zM357 180v41h-82v134h82v44q-17 3 -45 3
q-50 0 -76.5 -34t-26.5 -90q0 -112 87 -112q36 0 61 14z" />
    <glyph glyph-name="Gcaron" unicode="&#x1e6;" horiz-adv-x="695" 
d="M612 19q-88 -43 -235 -43q-168 0 -256.5 98.5t-88.5 271.5q0 167 95.5 268.5t255.5 101.5q130 0 226 -55l-59 -143q-56 30 -120 35q-98 7 -147 -45t-49 -162q0 -104 36 -159t106 -55q36 0 46 4v133h-73v152h263v-402zM274 1035l105 -84l105 84l84 -98l-189 -169l-186 169
z" />
    <glyph glyph-name="gcaron" unicode="&#x1e7;" horiz-adv-x="591" 
d="M541 30q0 -250 -271 -250q-120 0 -215 40l40 146q57 -25 111 -32q32 -4 67 3q39 3 60 21.5t21 46.5v12q-30 -15 -87 -15q-109 0 -174.5 70t-65.5 194q0 135 76 212t217 77q131 0 221 -38v-487zM353 148v266q-13 4 -39 4q-95 0 -95 -145q0 -135 86 -135q26 0 48 10z
M202 874l105 -84l105 84l84 -98l-189 -169l-186 169z" />
    <glyph glyph-name="uni01E8" unicode="&#x1e8;" horiz-adv-x="670" 
d="M668 -13h-179q-25 4 -52 6q-86 168 -181 296v-302h-199v716h199v-270q27 29 53.5 66.5t43 64.5l43 72.5l39.5 66.5h221q-111 -159 -243 -329q125 -157 255 -387zM225 1034l105 -84l105 84l84 -98l-189 -169l-186 169z" />
    <glyph glyph-name="uni01E9" unicode="&#x1e9;" horiz-adv-x="566" 
d="M596 -13h-216l-34 68q-35 68 -63 115t-42 52v-235h-191v793h191v-430q79 109 134 194h212l-193 -246q107 -137 202 -311zM336 874l105 -84l105 84l84 -98l-189 -169l-186 169z" />
    <glyph glyph-name="uni01EA" unicode="&#x1ea;" horiz-adv-x="787" 
d="M564 347q0 97 -45.5 154.5t-124.5 57.5t-124.5 -58t-45.5 -154q0 -97 45.5 -154t124.5 -57t124.5 57t45.5 154zM337 -34q-138 17 -224 116t-86 265q0 182 106 284.5t261 102.5q159 0 263 -102t104 -285q0 -213 -150 -321h1q-1 -1 -21.5 -13t-34.5 -21.5l-33.5 -23.5
t-32 -28t-15.5 -26q4 -6 25 -3q50 14 51 14l17 -141q-59 -25 -119 -25q-114 0 -139 71q-7 25 2 59q-1 36 25 77z" />
    <glyph glyph-name="uni01EB" unicode="&#x1eb;" horiz-adv-x="603" 
d="M448 -1q-25 -15 -56 -42.5t-34 -42.5q6 -6 25 -3q40 10 52 14l17 -141q-60 -25 -120 -25q-113 0 -138 71q-7 21 -7 48q3 47 42 93q-95 22 -151.5 100.5t-56.5 191.5q0 134 79 217t202 83q124 0 202 -83t78 -217q0 -89 -35.5 -157t-98.5 -107zM392 263q0 62 -23.5 97.5
t-66.5 35.5t-67 -35.5t-24 -97.5q0 -63 24 -99t67 -36t66.5 36t23.5 99z" />
    <glyph glyph-name="uni01EC" unicode="&#x1ec;" horiz-adv-x="787" 
d="M564 347q0 97 -45.5 154.5t-124.5 57.5t-124.5 -58t-45.5 -154q0 -97 45.5 -154t124.5 -57t124.5 57t45.5 154zM337 -34q-138 17 -224 116t-86 265q0 182 106 284.5t261 102.5q159 0 263 -102t104 -285q0 -213 -150 -321h1q-126 -73 -137 -112q4 -6 25 -3q50 14 51 14
l17 -141q-59 -25 -119 -25q-114 0 -139 71q-7 25 2 59q-1 36 25 77zM575 755h-363v145h363v-145z" />
    <glyph glyph-name="uni01ED" unicode="&#x1ed;" horiz-adv-x="603" 
d="M448 -1q-24 -15 -55.5 -42.5t-34.5 -42.5q6 -6 25 -3q40 10 52 14l17 -141q-60 -25 -120 -25q-113 0 -138 71q-7 21 -7 48q3 47 42 93q-95 22 -151.5 100.5t-56.5 191.5q0 134 79 217t202 83q124 0 202 -83t78 -217q0 -89 -35.5 -157t-98.5 -107zM392 263
q0 62 -23.5 97.5t-66.5 35.5t-67 -35.5t-24 -97.5q0 -63 24 -99t67 -36t66.5 36t23.5 99zM483 602h-363v145h363v-145z" />
    <glyph glyph-name="uni01EE" unicode="&#x1ee;" horiz-adv-x="603" 
d="M574 202q0 -122 -85.5 -182t-234.5 -60q-136 0 -264 71l60 161q117 -61 203 -61q124 0 124 73q0 46 -41 64t-115 18h-67v101l7 21q87 87 132 141h-262v169h526v-119q-51 -67 -161 -184q178 -45 178 -213zM187 980l105 -84l104 84l85 -98l-189 -169l-186 169z" />
    <glyph glyph-name="uni01EF" unicode="&#x1ef;" horiz-adv-x="505" 
d="M99 122v102l6 21q62 70 116 141h-217v164h465v-125q-28 -40 -141 -177q163 -57 163 -215q0 -120 -75.5 -181.5t-212.5 -61.5q-57 0 -121.5 14.5t-107.5 35.5l44 158q94 -41 177 -41q108 0 108 81q0 84 -129 84h-75zM133 820l105 -84l105 84l84 -98l-189 -169l-186 169z
" />
    <glyph glyph-name="uni01F0" unicode="&#x1f0;" horiz-adv-x="281" 
d="M16 -211q-53 0 -115 22l26 161q47 -17 77 -17q24 0 33.5 15.5t9.5 49.5v530h186v-533q0 -228 -217 -228zM40 820l105 -84l105 84l84 -98l-189 -169l-186 169z" />
    <glyph glyph-name="uni01F1" unicode="&#x1f1;" horiz-adv-x="1294" 
d="M658 344q0 -171 -96 -268t-280 -97q-125 0 -225 30v673q114 30 222 30q186 0 282.5 -96t96.5 -272zM255 556v-419q1 0 5.5 -0.5t12.5 -0.5h17q86 0 126 50t40 161q0 109 -39 159.5t-126 50.5q-13 0 -24 -0.5t-12 -0.5zM1224 703l-14 -112q-21 -46 -115 -205t-137 -244
h272v-155h-526l15 108q77 173 247 453h-240v155h498z" />
    <glyph glyph-name="uni01F2" unicode="&#x1f2;" horiz-adv-x="1206" 
d="M658 344q0 -171 -96 -268t-280 -97q-125 0 -225 30v673q114 30 222 30q186 0 282.5 -96t96.5 -272zM255 556v-419q1 0 5.5 -0.5t12.5 -0.5h17q86 0 126 50t40 161q0 109 -39 159.5t-126 50.5q-13 0 -24 -0.5t-12 -0.5zM1168 542q-2 -18 -7 -54t-7 -54l-17 -21
l-46.5 -77.5l-65 -109.5t-50.5 -91h196v-148h-442l24 126q34 72 166 282h-174v147h423z" />
    <glyph glyph-name="uni01F3" unicode="&#x1f3;" horiz-adv-x="1086" 
d="M554 794v-771q-94 -47 -235 -47q-135 0 -213.5 75t-78.5 213q0 131 68 209.5t181 78.5q50 0 86 -14v240q128 12 192 16zM362 126v274q-20 13 -51 13q-90 0 -90 -143q0 -73 25.5 -110.5t73.5 -37.5q22 0 42 4zM1048 542q-5 -36 -13 -108q-58 -70 -179 -299h195v-148h-442
l24 126q34 72 166 282h-174v147h423z" />
    <glyph glyph-name="uni01F4" unicode="&#x1f4;" horiz-adv-x="695" 
d="M612 19q-88 -43 -235 -43q-168 0 -256.5 98.5t-88.5 271.5q0 167 95.5 268.5t255.5 101.5q130 0 226 -55l-59 -143q-56 30 -120 35q-98 7 -147 -45t-49 -162q0 -104 36 -159t106 -55q36 0 46 4v133h-73v152h263v-402zM448 784h-137l80 215h225z" />
    <glyph glyph-name="uni01F5" unicode="&#x1f5;" horiz-adv-x="591" 
d="M541 30q0 -250 -271 -250q-120 0 -215 40l40 146q57 -25 111 -32q32 -4 67 3q39 3 60 21.5t21 46.5v12q-30 -15 -87 -15q-109 0 -174.5 70t-65.5 194q0 135 76 212t217 77q131 0 221 -38v-487zM353 148v266q-13 4 -39 4q-95 0 -95 -145q0 -135 86 -135q26 0 48 10z
M376 622h-137l80 215h225z" />
    <glyph glyph-name="uni01F6" unicode="&#x1f6;" horiz-adv-x="1059" 
d="M829 265v291h192v-309q0 -65 -12.5 -114t-42 -89.5t-84.5 -61.5t-135 -21q-151 0 -213 74.5t-62 208.5v31h-223v-300h-193v743h193v-271h223v271h192v-453q0 -68 19.5 -99.5t63.5 -31.5t63 31t19 100z" />
    <glyph glyph-name="uni01F7" unicode="&#x1f7;" horiz-adv-x="664" 
d="M249 -17v-193h-193v876q152 58 264 58q157 0 242 -73.5t85 -213.5q0 -290 -398 -454zM249 544v-371q97 48 148.5 109.5t51.5 158.5q0 54 -34 83t-94 29q-41 0 -72 -9z" />
    <glyph glyph-name="uni01F8" unicode="&#x1f8;" horiz-adv-x="748" 
d="M645 -13h-119l-39 7q-104 178 -212 337q-6 9 -15.5 25.5t-16 26.5t-8.5 10q0 -6 1 -43t1 -60v-303h-180v716h161q99 -127 209 -295q9 -13 22 -35.5t17 -26.5q0 14 -1 62t-1 75v220h181v-716zM428 765h-136l-168 215h224z" />
    <glyph glyph-name="uni01F9" unicode="&#x1f9;" 
d="M547 -13h-191v274q0 94 -10 118q-14 32 -58 32q-28 0 -47 -5v-419h-192v521q78 47 244 47q65 0 111.5 -13t74 -34.5t43 -57t20.5 -72t5 -89.5v-302zM365 603h-136l-168 215h224z" />
    <glyph glyph-name="Aringacute" unicode="&#x1fa;" horiz-adv-x="708" 
d="M704 -13h-212l-37 134h-217q-4 -14 -19.5 -61.5t-22.5 -72.5h-191q158 468 257 716h185q122 -314 257 -716zM416 261l-51 169l-18 65q-4 -10 -17 -57q-10 -37 -54 -177h140zM477 855q0 -64 -40.5 -100.5t-100.5 -36.5q-58 0 -98.5 36.5t-40.5 100.5t40.5 100.5t98.5 36.5
q60 0 100.5 -36.5t40.5 -100.5zM359 855q0 11 -7 17.5t-16 6.5q-21 0 -21 -24q0 -23 21 -23q10 0 16.5 6t6.5 17zM367 1288l124 -116l-205 -172l-97 89z" />
    <glyph glyph-name="aringacute" unicode="&#x1fb;" horiz-adv-x="546" 
d="M508 12q-105 -35 -238 -35q-251 0 -251 186q0 175 268 190q28 4 37 4q-4 57 -79 57t-153 -31l-33 136q99 37 213 37q204 0 231 -164q5 -26 5 -69v-311zM326 113v123q-26 0 -40 -1q-82 -7 -82 -66q0 -60 75 -60q33 0 47 4zM410 713q0 -64 -40.5 -100.5t-100.5 -36.5
q-58 0 -98.5 36.5t-40.5 100.5t40.5 100.5t98.5 36.5q60 0 100.5 -36.5t40.5 -100.5zM292 713q0 11 -7 17.5t-16 6.5q-21 0 -21 -24q0 -23 21 -23q10 0 16.5 6t6.5 17zM300 1146l124 -116l-205 -172l-97 89z" />
    <glyph glyph-name="AEacute" unicode="&#x1fc;" horiz-adv-x="981" 
d="M971 -25h-510v168h-191q-75 -138 -90 -168h-213q252 459 456 743h524v-170h-298v-102h263v-167h-263v-134h322v-170zM461 307v165q-57 -86 -79 -126l-25 -39h104zM651 990l124 -115l-205 -172l-97 89z" />
    <glyph glyph-name="aeacute" unicode="&#x1fd;" horiz-adv-x="871" 
d="M511 339h149q-12 61 -72 61q-59 0 -77 -61zM260 -36q-248 0 -248 196q0 99 69 144t177 45q32 0 62 -4q-7 26 -23.5 40.5t-54.5 14.5q-75 0 -158 -30l-25 161q92 32 197 32q115 0 169 -63q66 60 160 62q30 2 57 -3q97 -15 152 -88.5t55 -199.5q0 -12 -1.5 -39t-1.5 -38
h-332q25 -65 116 -65q84 0 163 37l26 -161q-60 -31 -154 -40q-25 -5 -60 -3q-101 1 -171 44q-78 -42 -174 -42zM326 203q-22 3 -45 3q-84 0 -84 -42q0 -44 71 -44q38 0 75 11q-14 38 -17 72zM504 831l124 -116l-205 -171l-96 89z" />
    <glyph glyph-name="Oslashacute" unicode="&#x1fe;" horiz-adv-x="787" 
d="M761 347q0 -184 -102.5 -285t-264.5 -101q-104 0 -176 39l-60 -79l-119 89l65 84q-77 93 -77 253q0 182 106 284.5t261 102.5q93 0 173 -40l60 78l119 -89l-64 -82q79 -101 79 -254zM224 347q0 -44 13 -81l216 281q-24 12 -59 12q-79 0 -124.5 -58t-45.5 -154zM564 347
q0 46 -14 82l-218 -281q27 -12 62 -12q79 0 124.5 57t45.5 154zM429 990l124 -115l-205 -172l-97 89z" />
    <glyph glyph-name="oslashacute" unicode="&#x1ff;" horiz-adv-x="603" 
d="M582 263q0 -136 -76.5 -219t-203.5 -83q-73 0 -128 29l-48 -63l-106 79l55 70q-54 76 -54 187q0 134 79 217t202 83q70 0 126 -27l48 62l106 -79l-53 -70q53 -74 53 -186zM204 272q14 -3 20 -2l97 127q-18 5 -43 2q-34 -9 -53.5 -42.5t-20.5 -84.5zM399 253q-8 3 -20 2
l-98 -128q24 -5 44 -1q34 9 53.5 42.5t20.5 84.5zM341 831l124 -116l-204 -171l-97 89z" />
    <glyph glyph-name="uni0200" unicode="&#x200;" horiz-adv-x="708" 
d="M691 -13h-161l-52 10l-37 121h-224q-2 -8 -18 -57t-23 -74h-192q147 439 260 716h186q112 -281 261 -716zM331 493q-12 -21 -24 -58.5t-27 -94.5t-22 -81h143q-10 31 -25.5 88.5t-27 95.5t-17.5 50zM264 924l115 94l150 -212l-100 -76zM45 919l123 99l149 -212l-99 -76z
" />
    <glyph glyph-name="uni0201" unicode="&#x201;" horiz-adv-x="546" 
d="M508 12q-105 -35 -238 -35q-251 0 -251 186q0 175 268 190q28 4 37 4q-4 57 -79 57t-153 -31l-33 136q99 37 213 37q204 0 231 -164q5 -26 5 -69v-311zM326 113v123q-26 0 -40 -1q-82 -7 -82 -66q0 -60 75 -60q33 0 47 4zM176 771l116 94l149 -212l-99 -76zM-42 766
l123 99l149 -212l-100 -76z" />
    <glyph glyph-name="uni0202" unicode="&#x202;" horiz-adv-x="708" 
d="M691 -13h-161l-52 10l-37 121h-224q-2 -8 -18 -57t-23 -74h-192q147 439 260 716h186q112 -281 261 -716zM331 493q-12 -21 -24 -58.5t-27 -94.5t-22 -81h143q-10 31 -25.5 88.5t-27 95.5t-17.5 50zM353 939q90 0 135.5 -55t45.5 -156h-141q-4 72 -40 72q-35 0 -41 -72
h-140q-1 101 45 156t136 55z" />
    <glyph glyph-name="uni0203" unicode="&#x203;" horiz-adv-x="546" 
d="M272 822q90 0 135.5 -55t45.5 -157h-141q-4 72 -40 72q-35 0 -41 -72h-140q-1 102 45 157t136 55zM508 12q-105 -35 -238 -35q-251 0 -251 186q0 175 268 190q17 0 37 -2q-5 63 -79 63q-75 0 -153 -31l-33 136q99 37 213 37q204 0 231 -164q5 -26 5 -69v-311zM326 113
v123q-26 0 -40 -1q-82 -7 -82 -66q0 -60 75 -60q33 0 47 4z" />
    <glyph glyph-name="uni0204" unicode="&#x204;" horiz-adv-x="598" 
d="M508 -13h-451v716h439v-154h-240v-119h211v-150h-211v-139h252v-154zM264 924l115 94l150 -212l-100 -76zM45 919l123 99l149 -212l-99 -76z" />
    <glyph glyph-name="uni0205" unicode="&#x205;" horiz-adv-x="578" 
d="M544 220l-323 -22q21 -72 113 -72q86 0 154 32l34 -140q-84 -42 -209 -42q-140 0 -213 80t-73 209q0 134 74 212.5t193 78.5q111 0 176 -64t72 -182q2 -12 0 -25q4 -25 2 -65zM360 328q-5 90 -70 90q-36 0 -55.5 -27t-21.5 -74zM176 771l116 94l149 -212l-99 -76z
M-42 766l123 99l149 -212l-100 -76z" />
    <glyph glyph-name="uni0206" unicode="&#x206;" horiz-adv-x="598" 
d="M519 -13h-462v716h447v-155h-247v-116h217v-152h-217v-138h262v-155zM312 939q90 0 135.5 -55t45.5 -156h-141q-4 72 -40 72q-35 0 -41 -72h-140q-1 101 45 156t136 55z" />
    <glyph glyph-name="uni0207" unicode="&#x207;" horiz-adv-x="578" 
d="M27 264q0 133 75 211.5t193 78.5q111 0 176 -62.5t74 -178.5q2 -15 0 -32q4 -26 2 -65l-325 -18q22 -71 114 -71q82 0 154 32l33 -142q-84 -41 -208 -41q-142 0 -215 80t-73 208zM215 318l147 8q-5 89 -70 89q-35 0 -55 -26.5t-22 -70.5zM297 780q90 0 135.5 -55
t45.5 -157h-141q-4 72 -40 72q-35 0 -41 -72h-140q-1 102 45 157t136 55z" />
    <glyph glyph-name="uni0208" unicode="&#x208;" horiz-adv-x="305" 
d="M256 -13h-199v716h199v-716zM72 924l116 94l149 -212l-99 -76zM-146 919l123 99l149 -212l-100 -76z" />
    <glyph glyph-name="uni0209" unicode="&#x209;" horiz-adv-x="281" 
d="M233 550v-575h-186v575h186zM68 771l116 94l149 -212l-99 -76zM-150 766l122 99l150 -212l-100 -76z" />
    <glyph glyph-name="uni020A" unicode="&#x20a;" horiz-adv-x="305" 
d="M57 -13v716h200v-716h-200zM154 979q91 0 136 -54.5t45 -156.5h-140q-6 72 -41 72q-36 0 -40 -72h-140q-1 101 44.5 156t135.5 55z" />
    <glyph glyph-name="uni020B" unicode="&#x20b;" horiz-adv-x="281" 
d="M233 550v-575h-186v575h186zM142 822q90 0 135 -55t45 -157h-140q-4 72 -40 72q-35 0 -41 -72h-140q-1 102 45 157t136 55z" />
    <glyph glyph-name="uni020C" unicode="&#x20c;" horiz-adv-x="787" 
d="M680 345q0 -170 -86 -270t-238 -100q-150 0 -237 100.5t-87 269.5q0 168 88 269.5t236 101.5q150 0 237 -101t87 -270zM478 349q0 93 -30.5 152.5t-91.5 59.5q-60 0 -90.5 -59.5t-30.5 -152.5t30 -152.5t91 -59.5t91.5 59.5t30.5 152.5zM264 924l115 94l150 -212
l-100 -76zM45 919l123 99l149 -212l-99 -76z" />
    <glyph glyph-name="uni020D" unicode="&#x20d;" horiz-adv-x="603" 
d="M562 266q0 -130 -72 -210t-195 -80t-195.5 80t-72.5 210q0 129 74 209.5t194 80.5q121 0 194 -80.5t73 -209.5zM370 268q0 143 -75 143q-76 0 -76 -143t76 -143q75 0 75 143zM178 771l116 94l149 -212l-99 -76zM-40 766l122 99l149 -212l-99 -76z" />
    <glyph glyph-name="uni020E" unicode="&#x20e;" horiz-adv-x="787" 
d="M683 345q0 -169 -86.5 -269.5t-237.5 -100.5q-150 0 -237 100.5t-87 269.5t87.5 270t236.5 101q150 0 237 -101t87 -270zM480 349q0 93 -30.5 152.5t-90.5 59.5q-61 0 -91 -59.5t-30 -152.5t30 -152.5t91 -59.5t91 59.5t30 152.5zM337 963q90 0 136 -55t45 -156h-60
q-2 41 -34 71.5t-87 30.5t-84.5 -30t-32.5 -72h-64q-1 101 45 156t136 55z" />
    <glyph glyph-name="uni020F" unicode="&#x20f;" horiz-adv-x="603" 
d="M562 266q0 -130 -72 -210t-195 -80t-195.5 80t-72.5 210q0 129 74 209.5t194 80.5q121 0 194 -80.5t73 -209.5zM370 268q0 143 -75 143q-76 0 -76 -143t76 -143q75 0 75 143zM298 796q90 0 136 -55t45 -156h-60q-2 41 -34 71.5t-87 30.5t-84.5 -30t-32.5 -72h-64
q-1 101 45 156t136 55z" />
    <glyph glyph-name="uni0210" unicode="&#x210;" horiz-adv-x="659" 
d="M644 -13h-218q-70 141 -110 215q-2 3 -38 60h-24v-275h-197v692q110 32 226 32q158 0 238 -60t80 -175q0 -62 -35 -111.5t-90 -72.5v-1q17 -22 34 -48.5t38.5 -66.5l31 -58t36 -72t28.5 -59zM402 471q1 85 -85 95q-17 3 -38 1q-11 0 -25 -2v-194q3 0 10.5 -1t12.5 -1
q125 0 125 102zM264 924l115 94l150 -212l-100 -76zM45 919l123 99l149 -212l-99 -76z" />
    <glyph glyph-name="uni0211" unicode="&#x211;" horiz-adv-x="414" 
d="M403 539q-26 -116 -31 -135q-23 3 -48 -1q-18 7 -40 7q-20 1 -43 -5v-418h-192v524q102 42 225 43q59 2 129 -15zM176 771l116 94l149 -212l-99 -76zM-42 766l123 99l149 -212l-100 -76z" />
    <glyph glyph-name="uni0212" unicode="&#x212;" horiz-adv-x="659" 
d="M609 475q0 -60 -33.5 -108.5t-85.5 -75.5q11 -13 22.5 -31l20.5 -32.5t22.5 -39.5l20 -37.5l21.5 -43.5l19 -39.5l20 -43t18 -37.5h-219q-48 102 -111 220l-36 51h-33v-271h-198v694q113 31 228 31q161 0 242.5 -60.5t81.5 -176.5zM291 566q-18 0 -36 -2v-193
q4 0 12.5 -0.5t13.5 -0.5q128 0 128 100q1 51 -28 73.5t-90 22.5zM317 939q90 0 135.5 -55t45.5 -156h-141q-4 72 -40 72q-35 0 -41 -72h-140q-1 101 45 156t136 55z" />
    <glyph glyph-name="uni0213" unicode="&#x213;" horiz-adv-x="414" 
d="M280 553q68 0 130 -17q-20 -90 -31 -135q-29 2 -50 -1q-23 7 -40 7q-19 1 -46 -4v-416h-193v523q102 42 230 43zM242 780q90 0 136 -55t45 -157h-141q-4 72 -40 72t-40 -72h-141q-1 102 45 157t136 55z" />
    <glyph glyph-name="uni0214" unicode="&#x214;" horiz-adv-x="703" 
d="M611 234q0 -120 -74.5 -190t-206.5 -70q-115 0 -188 56t-84 154q-6 47 -6 98v421h199v-390q0 -99 15.5 -137t68.5 -38q80 0 83 96q0 13 0.5 39.5t0.5 40.5v389h192v-469zM264 924l115 94l150 -212l-100 -76zM45 919l123 99l149 -212l-99 -76z" />
    <glyph glyph-name="uni0215" unicode="&#x215;" 
d="M541 25q-65 -48 -245 -48q-133 0 -191 59t-58 178v330h191v-272q0 -89 8 -112q13 -35 56 -35q28 0 48 5v414h191v-519zM176 771l116 94l149 -212l-99 -76zM-42 766l123 99l149 -212l-100 -76z" />
    <glyph glyph-name="uni0216" unicode="&#x216;" horiz-adv-x="703" 
d="M335 -26q-282 0 -282 305v424h199v-392q0 -96 17.5 -134t69.5 -38q53 0 70 37t17 136v391h193v-464q0 -123 -74.5 -194t-209.5 -71zM352 939q90 0 135.5 -55t45.5 -156h-141q-4 72 -40 72q-35 0 -41 -72h-140q-1 101 45 156t136 55z" />
    <glyph glyph-name="uni0217" unicode="&#x217;" 
d="M546 542v-518q-68 -47 -248 -47q-132 0 -191.5 59t-59.5 178v328h192v-269q0 -35 0.5 -51t3.5 -39t10 -32.5t20 -17t32 -7.5q21 0 49 5v411h192zM290 780q91 0 136 -55t45 -157h-140q-6 72 -41 72q-36 0 -40 -72h-141q-1 102 45 157t136 55z" />
    <glyph glyph-name="Scommaaccent" unicode="&#x218;" horiz-adv-x="572" 
d="M223 138q85 0 85 53q0 30 -27.5 48t-107.5 50q-139 67 -145 193q-1 23 4 56q15 82 82 130t170 48q119 0 207 -51l-51 -144q-72 40 -136 40q-78 0 -78 -48q0 -20 17 -36.5t35 -25t67 -29.5q6 -3 9 -4q88 -41 124.5 -90t36.5 -129q0 -103 -72 -163.5t-200 -60.5
q-144 0 -229 54l51 154q75 -45 158 -45zM211 -66v39h154q5 -24 7 -44q1 -11 1 -19q-1 -77 -45.5 -112.5t-112.5 -36.5q-8 -1 -26 1q-26 3 -51 11v121q37 0 55 8t18 32z" />
    <glyph glyph-name="scommaaccent" unicode="&#x219;" horiz-adv-x="476" 
d="M190 124q54 0 54 27q0 15 -20 28t-75 35q-62 28 -90.5 66t-28.5 95q0 80 57 129.5t153 49.5q101 0 182 -37q-9 -26 -22.5 -73t-18.5 -62q-62 29 -113 29q-49 0 -49 -28q0 -9 3 -14.5t11 -11t16.5 -9t26.5 -12t34 -17.5q71 -33 99.5 -70t28.5 -95q0 -85 -61 -132t-172 -47
q-105 0 -190 41l42 144q72 -36 133 -36zM161 -66v39h155q1 -9 3.5 -24t3.5 -20v-19q-1 -77 -45.5 -112.5t-112.5 -36.5q-7 -1 -26 1q-25 3 -50 11v121q36 0 54 8t18 32z" />
    <glyph glyph-name="uni021A" unicode="&#x21a;" horiz-adv-x="603" 
d="M12 703h532v-156h-166v-560h-199v560h-167v156zM220 -66v39h154q5 -24 7 -44q1 -11 1 -19q-1 -77 -45.5 -112.5t-112.5 -36.5q-8 -1 -26 1q-26 3 -51 11v121q37 0 55 8t18 32z" />
    <glyph glyph-name="uni021B" unicode="&#x21b;" horiz-adv-x="435" 
d="M254 704v-162h138v-147h-138v-179q0 -51 11.5 -70.5t41.5 -19.5q36 0 83 20q9 -88 16 -140q-51 -24 -117 -29q-47 -3 -83 5.5t-60 22t-40.5 39.5t-25 49t-13 60.5t-5.5 63.5t-1 68h-23v200l23 58v121zM171 -66v39h155q5 -24 7 -44q1 -11 1 -19q-1 -77 -46 -112.5
t-113 -36.5q-7 -1 -26 1q-26 3 -50 11v121q37 0 54.5 8t17.5 32z" />
    <glyph glyph-name="uni021C" unicode="&#x21c;" horiz-adv-x="561" 
d="M214 561q-76 0 -164 -46l-67 159q115 60 235 60q114 0 188.5 -47t93.5 -142q6 -35 5 -69q-3 -99 -88 -165q56 -34 87 -89t31 -119q0 -85 -34 -147.5t-95 -98t-134.5 -52t-161.5 -16.5q-68 0 -119 8l13 174q62 -7 102 -7q132 0 176 54q55 31 54 89q-4 56 -50.5 81
t-111.5 25h-85v169h77q65 0 104.5 25t39.5 73q0 39 -25.5 60t-70.5 21z" />
    <glyph glyph-name="uni021D" unicode="&#x21d;" horiz-adv-x="467" 
d="M173 397q-62 0 -146 -31l-40 160q104 37 187 37q116 0 185.5 -50t69.5 -153q0 -84 -78 -139q99 -55 99 -166q0 -72 -36.5 -124.5t-101.5 -82.5t-143.5 -44t-173.5 -15l-11 164q57 2 97.5 6.5t84.5 15t67.5 31.5t23.5 51q0 66 -118 66h-49v161q149 0 149 67q0 46 -66 46z
" />
    <glyph glyph-name="uni021E" unicode="&#x21e;" horiz-adv-x="727" 
d="M440 432v271h199v-716h-199v291h-183v-291h-200v716h200v-271h183zM259 980l105 -84l104 84l85 -98l-189 -169l-186 169z" />
    <glyph glyph-name="uni021F" unicode="&#x21f;" 
d="M243 -13h-193v791q134 12 193 16v-254q30 10 63 11q62 4 107.5 -8t71.5 -34t41 -58.5t20 -74t5 -88.5v-301h-192v270q0 38 -0.5 56t-4 40.5t-11 32t-20.5 16t-33 6.5q-32 0 -47 -6v-415zM393 897l-176 -131l-178 131l66 98l112 -66l110 66z" />
    <glyph glyph-name="uni0220" unicode="&#x220;" horiz-adv-x="698" 
d="M646 416v-626h-192v624q0 146 -124 146q-43 0 -81 -5v-580h-193v702q54 57 284 57q164 0 235 -84t71 -234z" />
    <glyph glyph-name="uni0221" unicode="&#x221;" horiz-adv-x="770" 
d="M589 16q-18 0 -36 -13v-10q0 -51 36 -51q16 0 25 10.5t9 25.5q0 16 -9 27t-25 11zM553 806v-648q24 12 58 12q76 0 127.5 -50.5t51.5 -136.5q0 -93 -56.5 -143t-144.5 -50q-111 0 -164 77l-70 -77l-105 99l39 46l25 31q-44 0 -88 9q-97 23 -151 97.5t-54 187.5
q0 140 69 220.5t191 80.5q41 0 86 -15v230zM367 133v247q-28 15 -65 15q-91 0 -91 -129q0 -64 28 -100.5t79 -36.5q29 0 49 4z" />
    <glyph glyph-name="uni0222" unicode="&#x222;" horiz-adv-x="703" 
d="M351 130q57 0 93.5 20t36.5 59q0 79 -130 79t-130 -79q0 -39 37 -59t93 -20zM351 -38q-326 0 -326 241q0 112 104 180q-59 52 -59 156q0 83 26 179h187q-21 -104 -21 -171q0 -93 89 -93t89 93q0 66 -20 171h188q24 -99 24 -179q0 -104 -59 -156q105 -66 105 -180
q0 -241 -327 -241z" />
    <glyph glyph-name="uni0223" unicode="&#x223;" horiz-adv-x="596" 
d="M298 128q43 0 67.5 28.5t24.5 79.5q0 50 -25 80t-67 30t-66.5 -30t-24.5 -80q0 -51 24.5 -79.5t66.5 -28.5zM298 512q66 0 66 103q0 84 -16 186h178q22 -108 22 -187q0 -119 -70 -175q101 -72 101 -208q0 -123 -77.5 -196.5t-203.5 -73.5q-125 0 -202.5 73.5t-77.5 196.5
q0 136 100 208q-69 55 -69 175q0 86 22 187h177q-16 -111 -16 -186q0 -103 66 -103z" />
    <glyph glyph-name="uni0224" unicode="&#x224;" horiz-adv-x="602" 
d="M304 -55q30 -10 56 -10q18 0 30 12t15 28h-395v117q54 98 143.5 229t167.5 227h-294v170h558v-126q-4 -7 -12 -23q-64 -69 -157.5 -192t-161.5 -232h342v-131q0 -96 -32 -150t-104 -69q-32 -7 -75 -7q-47 2 -103 21z" />
    <glyph glyph-name="uni0225" unicode="&#x225;" horiz-adv-x="493" 
d="M321 -25h-311v113q64 113 216 298h-203v164h458v-127q-135 -149 -232 -285h238v-157q0 -159 -129 -185q-78 -17 -169 15l31 133q29 -11 68 -11q28 0 33 42z" />
    <glyph glyph-name="uni0226" unicode="&#x226;" horiz-adv-x="708" 
d="M704 -13h-212l-37 134h-217q-4 -14 -19.5 -61.5t-22.5 -72.5h-191q158 468 257 716h185q122 -314 257 -716zM416 261l-51 169l-18 65q-4 -10 -17 -57q-10 -37 -54 -177h140zM325 760q-41 0 -70 27.5t-29 71.5t29 71.5t70 27.5q42 0 71 -27.5t29 -71.5t-29 -71.5
t-71 -27.5z" />
    <glyph glyph-name="uni0227" unicode="&#x227;" horiz-adv-x="546" 
d="M508 12q-105 -35 -238 -35q-251 0 -251 186q0 175 268 190q17 0 37 -2q-5 63 -79 63q-75 0 -153 -31l-33 136q99 37 213 37q204 0 231 -164q5 -26 5 -69v-311zM326 113v123q-26 0 -40 -1q-82 -7 -82 -66q0 -60 75 -60q33 0 47 4zM277 597q-41 0 -70 27.5t-29 71.5
t29 71.5t70 27.5q42 0 71 -27.5t29 -71.5t-29 -71.5t-71 -27.5z" />
    <glyph glyph-name="uni0228" unicode="&#x228;" horiz-adv-x="598" 
d="M432 -109q9 -30 0 -58q-32 -74 -147 -74q-45 0 -115 20l28 130q54 -17 79 -17q1 1 -5 7q-8 5 -47 17q15 42 24 59h-193v743h508v-170h-315v-102h280v-167h-280v-134h338v-170h-189q36 -32 34 -84z" />
    <glyph glyph-name="uni0229" unicode="&#x229;" horiz-adv-x="578" 
d="M382 -35q28 -30 26 -74q9 -25 3 -51q-27 -81 -150 -81q-45 0 -115 20l28 130q51 -17 79 -17q1 1 -5 7q-7 4 -45 17q8 29 20 58q-101 25 -151.5 100.5t-50.5 184.5q0 143 80.5 223.5t192.5 80.5q123 0 192.5 -75t69.5 -217q0 -12 -1.5 -39t-1.5 -38h-332q26 -60 108 -64
q23 -2 43 1q69 7 128 35l27 -160q-57 -30 -145 -41zM219 339h149q-12 61 -72 61q-59 0 -77 -61z" />
    <glyph glyph-name="uni022A" unicode="&#x22a;" horiz-adv-x="787" 
d="M680 345q0 -170 -86 -270t-238 -100q-150 0 -237 100.5t-87 269.5q0 168 88 269.5t236 101.5q150 0 237 -101t87 -270zM478 349q0 93 -30.5 152.5t-91.5 59.5q-60 0 -90.5 -59.5t-30.5 -152.5t30 -152.5t91 -59.5t91.5 59.5t30.5 152.5zM167 959v119h376v-119h-376z
M339 830q-1 -37 -26 -59.5t-60 -22.5q-38 0 -62.5 23.5t-24.5 62.5q0 47 25 67.5t61 20.5q39 0 62.5 -23t24.5 -69zM546 834q0 -39 -25.5 -62.5t-61.5 -23.5t-60.5 23.5t-25.5 65.5q2 44 25 64.5t57 20.5q37 0 64 -25.5t27 -62.5z" />
    <glyph glyph-name="uni022B" unicode="&#x22b;" horiz-adv-x="603" 
d="M562 266q0 -130 -72 -210t-195 -80t-195.5 80t-72.5 210q0 129 74 209.5t194 80.5q121 0 194 -80.5t73 -209.5zM370 268q0 143 -75 143q-76 0 -76 -143t76 -143q75 0 75 143zM105 803v120h376v-120h-376zM276 675q-1 -37 -25.5 -59.5t-60.5 -22.5q-38 0 -62 23t-24 63
q0 46 25 66.5t60 20.5q39 0 62.5 -22.5t24.5 -68.5zM483 679q0 -39 -24.5 -62.5t-61.5 -23.5t-61.5 23.5t-25.5 65.5q4 81 83 85q36 2 63 -24.5t27 -63.5z" />
    <glyph glyph-name="uni022C" unicode="&#x22c;" horiz-adv-x="787" 
d="M680 345q0 -170 -86 -270t-238 -100q-150 0 -237 100.5t-87 269.5q0 168 88 269.5t236 101.5q150 0 237 -101t87 -270zM478 349q0 93 -30.5 152.5t-91.5 59.5q-60 0 -90.5 -59.5t-30.5 -152.5t30 -152.5t91 -59.5t91.5 59.5t30.5 152.5zM237 887q47 0 85.5 -19.5
t86.5 -18.5q60 13 129 38l12 -36q-16 -41 -48 -72t-79 -31q-20 0 -57.5 15.5t-56.5 15.5q-6 0 -21 -14.5t-28 -34.5l-88 73q24 58 65 84zM548 912h-320v129h320v-129z" />
    <glyph glyph-name="uni022D" unicode="&#x22d;" horiz-adv-x="603" 
d="M562 266q0 -130 -72 -210t-195 -80t-195.5 80t-72.5 210q0 129 74 209.5t194 80.5q121 0 194 -80.5t73 -209.5zM370 268q0 143 -75 143q-76 0 -76 -143t76 -143q75 0 75 143zM350 597q-27 0 -67.5 18t-57.5 18t-44 -55l-109 70q20 52 58 93t88 41q27 0 67.5 -18t57.5 -18
q19 0 44 55l113 -72q-77 -132 -150 -132zM67 830v120h377v-120h-377z" />
    <glyph glyph-name="uni022E" unicode="&#x22e;" horiz-adv-x="787" 
d="M683 345q0 -169 -86.5 -269.5t-237.5 -100.5q-150 0 -237 100.5t-87 269.5t87.5 270t236.5 101q150 0 237 -101t87 -270zM480 349q0 93 -30.5 152.5t-90.5 59.5q-61 0 -91 -59.5t-30 -152.5t30 -152.5t91 -59.5t91 59.5t30 152.5zM355 773q-41 0 -70 27.5t-29 71.5
t29 71.5t70 27.5q42 0 71 -27.5t29 -71.5t-29 -71.5t-71 -27.5z" />
    <glyph glyph-name="uni022F" unicode="&#x22f;" horiz-adv-x="603" 
d="M562 266q0 -130 -72 -210t-195 -80t-195.5 80t-72.5 210q0 129 74 209.5t194 80.5q121 0 194 -80.5t73 -209.5zM370 268q0 143 -75 143q-76 0 -76 -143t76 -143q75 0 75 143zM301 615q-42 0 -70.5 27.5t-28.5 71.5q0 45 28.5 72t70.5 27t71 -27.5t29 -71.5t-29 -71.5
t-71 -27.5z" />
    <glyph glyph-name="uni0230" unicode="&#x230;" horiz-adv-x="787" 
d="M680 345q0 -170 -86 -270t-238 -100q-150 0 -237 100.5t-87 269.5q0 168 88 269.5t236 101.5q150 0 237 -101t87 -270zM478 349q0 93 -30.5 152.5t-91.5 59.5q-60 0 -90.5 -59.5t-30.5 -152.5t30 -152.5t91 -59.5t91.5 59.5t30.5 152.5zM200 953v126h309v-126h-309z
M441 836q0 -39 -24.5 -62.5t-61.5 -23.5q-36 0 -61.5 24t-25.5 62q0 39 25.5 65t62.5 26q36 0 60.5 -26t24.5 -65z" />
    <glyph glyph-name="uni0231" unicode="&#x231;" horiz-adv-x="603" 
d="M562 266q0 -130 -72 -210t-195 -80t-195.5 80t-72.5 210q0 129 74 209.5t194 80.5q121 0 194 -80.5t73 -209.5zM370 268q0 143 -75 143q-76 0 -76 -143t76 -143q75 0 75 143zM138 799v127h309v-127h-309zM379 682q0 -39 -25 -62t-61 -23t-61 24t-25 61q0 40 25 66t63 26
q35 0 59.5 -26.5t24.5 -65.5z" />
    <glyph glyph-name="uni0232" unicode="&#x232;" horiz-adv-x="646" 
d="M619 703q-108 -226 -222 -432v-284h-198v283q-119 220 -221 433h218q50 -130 109 -250q70 149 111 250h203zM491 784h-364v145h364v-145z" />
    <glyph glyph-name="uni0233" unicode="&#x233;" horiz-adv-x="572" 
d="M562 544q-94 -321 -216 -650q-25 -56 -59.5 -77.5t-97.5 -21.5q-44 0 -134 29l39 129q36 -14 53 -14q9 0 16 3.5t11 7.5t8 13l6 13.5t5 16.5t4 15q-111 279 -188 536h201q30 -138 59 -245q22 -91 23 -93q2 5 5.5 19t8 36.5t8.5 38.5q30 112 61 244h187zM467 602h-363v145
h363v-145z" />
    <glyph glyph-name="uni0234" unicode="&#x234;" horiz-adv-x="485" 
d="M304 16q-18 0 -37 -14v-9q0 -51 37 -51q16 0 24.5 10.5t8.5 25.5q0 16 -8.5 27t-24.5 11zM135 -131l-72 -79l-105 99l124 141v93v652l186 30v-646q23 11 58 11q76 0 127.5 -50.5t51.5 -136.5q0 -93 -56.5 -143t-144.5 -50q-115 0 -169 79z" />
    <glyph glyph-name="uni0235" unicode="&#x235;" horiz-adv-x="760" 
d="M579 16q-19 0 -36 -14v-9q0 -51 37 -51q15 0 24 10.5t9 25.5q0 16 -9 27t-25 11zM544 296v-138q24 12 57 12q74 0 125 -47.5t53 -130.5q1 -38 -8 -71q-17 -64 -68.5 -97.5t-122.5 -33.5q-116 0 -170 79l-71 -79l-106 99l125 141v55v192q0 65 -16.5 91.5t-58.5 26.5
q-26 0 -50 -4v-416h-186v551q124 35 245 35q138 0 195 -68.5t57 -196.5z" />
    <glyph glyph-name="uni0236" unicode="&#x236;" horiz-adv-x="490" 
d="M268 386v-228q24 12 58 12q76 0 127.5 -50.5t51.5 -136.5q0 -93 -56.5 -143t-144.5 -50q-115 0 -169 79l-72 -79l-105 99l124 141v65v586l186 30v-161h183v-164h-183zM304 15q-20 0 -37 -14v-9q0 -51 37 -51q16 0 24.5 10.5t8.5 25.5q0 16 -8.5 27t-24.5 11z" />
    <glyph glyph-name="uni0237" unicode="&#x237;" horiz-adv-x="281" 
d="M16 -211q-53 0 -115 22l26 161q47 -17 77 -17q24 0 33.5 15.5t9.5 49.5v530h186v-533q0 -228 -217 -228z" />
    <glyph glyph-name="uni0238" unicode="&#x238;" horiz-adv-x="921" 
d="M553 380v-248q22 -4 49 -4q51 0 79.5 37t28.5 101q0 129 -91 129q-36 0 -66 -15zM553 806v-260q45 15 90 15q122 0 189 -81t67 -218q0 -138 -78.5 -219t-217.5 -81q-67 0 -142 24q-77 -24 -144 -24q-138 0 -217 80t-79 218q0 140 69 220.5t191 80.5q41 0 86 -15v230z
M367 132v248q-28 15 -65 15q-91 0 -91 -129q0 -64 28 -101t79 -37q29 0 49 4z" />
    <glyph glyph-name="uni0239" unicode="&#x239;" horiz-adv-x="921" 
d="M553 392v-247q30 -15 66 -15q91 0 91 129q0 64 -28.5 100t-79.5 36q-32 0 -49 -3zM553 -20v-190h-186v190q-42 -16 -90 -16q-122 0 -189 80t-67 218q0 136 79.5 217.5t216.5 81.5q58 0 143 -25q85 25 143 25q139 0 217.5 -80.5t78.5 -218.5q0 -135 -67.5 -216.5
t-188.5 -81.5q-47 0 -90 16zM367 145v247q-15 3 -49 3q-51 0 -79 -36t-28 -100q0 -129 91 -129q37 0 65 15z" />
    <glyph glyph-name="uni023A" unicode="&#x23a;" horiz-adv-x="796" 
d="M511 786l134 -38l-76 -209q28 -65 61 -150l81.5 -216l69.5 -185h-187q-39 111 -47 130h-131l-89 -244l-132 45l72 199h-32l-22 -62t-25 -68h-175q164 464 292 731h158q5 -10 12 -31zM278 259h41l85 235l-15 37q-73 -160 -111 -272zM467 259h30q-3 7 -6 15l-5 13.5
t-5 11.5z" />
    <glyph glyph-name="uni023B" unicode="&#x23b;" horiz-adv-x="656" 
d="M490 818l142 -40l-30 -86l26 -13l36 -3l-62 -175q-42 21 -55 26l-136 -386q32 -1 73 6q54 10 112 38l55 -161q-106 -63 -258 -63q-23 0 -42 4l-33 -98l-138 42l30 90q-183 88 -183 348q0 180 105 283.5t268 103.5q35 0 59 -3zM225 349q0 -105 47 -161l130 368
q-25 0 -42 -4q-62 -12 -98.5 -63.5t-36.5 -139.5z" />
    <glyph glyph-name="uni023C" unicode="&#x23c;" horiz-adv-x="507" 
d="M316 -39q-27 0 -51 4l-27 -84l-123 35l28 89q-59 39 -90.5 106t-31.5 151q0 129 79 215t212 86q3 0 6.5 -0.5t5.5 -0.5l27 80l123 -33l-23 -71q38 -14 55 -21l-42 -158q-46 20 -62 24l-83 -253q22 -2 43 1q47 6 102 30l29 -163q-83 -37 -177 -37zM155 319
q-15 -48 -2 -105t46 -83l96 300q-45 7 -85.5 -25.5t-54.5 -86.5z" />
    <glyph glyph-name="uni023D" unicode="&#x23d;" horiz-adv-x="565" 
d="M260 147h310v-172h-502v319h-81v151h81v273h192v-273h141v-151h-141v-147z" />
    <glyph glyph-name="uni023E" unicode="&#x23e;" horiz-adv-x="715" 
d="M380 446l36 103h-36v-103zM180 -64l2 258v355h-161v154h454l23 69l186 -32l-330 -852z" />
    <glyph glyph-name="uni023F" unicode="&#x23f;" horiz-adv-x="476" 
d="M346 -50q19 0 80 10l18 -152q-39 -11 -90 -17q-7 0 -17 -0.5t-13 -0.5q-56 1 -99 27t-84 73l-18.5 23t-19.5 24t-19 20.5t-22.5 22t-24 19t-29.5 19.5l54 139q82 -34 155 -34q58 0 58 20q0 11 -16.5 20t-61.5 26h1q-43 16 -69.5 30t-52 36t-37.5 53t-12 73q0 85 60 133.5
t167 48.5q93 0 186 -36l-34 -155q-67 24 -113 28q-21 3 -37 2q-45 -2 -45 -19q0 -11 15 -19.5t57 -25.5h-1q103 -38 140.5 -78.5t37.5 -117.5q0 -61 -32.5 -100.5t-93.5 -54.5q-21 -7 -48 -9l11.5 -8l12.5 -9q15 -11 36 -11z" />
    <glyph glyph-name="uni0240" unicode="&#x240;" horiz-adv-x="493" 
d="M511 -37l18 -155q-35 -10 -73 -15q-32 -3 -50 -1q-42 1 -79 20.5t-64.5 46l-55 53t-63.5 45t-77 18.5h-57v113q64 113 216 298h-203v164h458v-118q-6 -10 -108 -135.5t-153 -200.5q44 -18 104 -76q23 -23 34.5 -33.5t31.5 -22t38 -11.5q26 0 83 10z" />
    <glyph glyph-name="uni0241" unicode="&#x241;" horiz-adv-x="502" 
d="M278 180v-205h-192v224q0 37 9.5 69t20.5 52t35 43t37.5 33.5t43.5 31.5v-1q23 16 34.5 25.5t21 24.5t9.5 33q0 48 -81 48q-41 0 -92.5 -16.5t-85.5 -36.5l-64 162q49 26 116.5 46.5t127.5 20.5q132 0 204 -56.5t72 -157.5q0 -74 -28 -117.5t-82 -83.5q-5 -4 -20 -14.5
t-20.5 -15l-17 -14t-16.5 -15.5t-12.5 -16t-11 -19t-6 -20.5t-2.5 -24.5z" />
    <glyph glyph-name="uni0242" unicode="&#x242;" horiz-adv-x="443" 
d="M261 105v-130h-186v141q0 45 17 81t36 53.5t51 40.5q9 7 27 19.5t26 19t15 17.5t7 22q0 27 -56 27q-77 0 -161 -49l-60 155q34 20 99.5 40.5t121.5 20.5q115 0 177.5 -50t62.5 -137q0 -106 -88 -166v1q-34 -23 -46 -32t-27.5 -30.5t-15.5 -43.5z" />
    <glyph glyph-name="uni0243" unicode="&#x243;" horiz-adv-x="668" 
d="M304 -34q-126 0 -245 25v153h-72v132h72v427q121 23 230 23q323 0 323 -218q0 -80 -60 -129q94 -49 94 -171q0 -242 -342 -242zM350 282l-23 -10v-49l20 -10v-19h-20v-59q28 0 43 3q81 12 81 72q0 67 -101 72zM248 558v-117h59q61 0 89 14t28 47q0 58 -114 58
q-50 0 -62 -2z" />
    <glyph glyph-name="uni0244" unicode="&#x244;" horiz-adv-x="741" 
d="M368 -39q-152 0 -226.5 81t-74.5 219v45h-80v151h80v261h192v-261h223v261h192v-261h80v-151h-80v-45q0 -139 -76 -219.5t-230 -80.5zM370 134q96 0 109 106q3 18 3 40v26h-223v-26q0 -17 2 -41q14 -105 109 -105z" />
    <glyph glyph-name="uni0245" unicode="&#x245;" horiz-adv-x="706" 
d="M732 -25h-210q-119 357 -173 484q-47 -118 -170 -484h-203q147 429 293 743h152l29 -29q133 -286 282 -714z" />
    <glyph glyph-name="uni0246" unicode="&#x246;" horiz-adv-x="600" 
d="M593 -25h-279l-42 -110l-129 46l26 64h-113v743h399l34 87l130 -43l-124 -316h39v-167h-103l-52 -134h214v-170zM249 548v-102h101l41 102h-142zM249 279v-78l12 17l25 61h-37z" />
    <glyph glyph-name="uni0247" unicode="&#x247;" horiz-adv-x="589" 
d="M32 262q0 85 30.5 149t79 96t103.5 44t109 3l24 77l137 -31l-23 -72q41 -16 68 -36t43 -40t24.5 -50t10.5 -56.5t2 -69.5q0 -42 -2 -60l-241 -19l-28 -78q38 -14 99.5 0.5t115.5 39.5l23 -142q-36 -28 -117.5 -40.5t-160.5 -0.5l-27 -64l-134 19l23 74q-159 49 -159 257z
M220 318l65 2l34 114q-38 2 -62.5 -33t-36.5 -83zM248 197l-45 -4q-5 -47 26 -52zM429 323l42 3q16 68 -11 100z" />
    <glyph glyph-name="uni0248" unicode="&#x248;" horiz-adv-x="543" 
d="M475 718v-277h81v-152h-81v-58q0 -270 -270 -270q-124 0 -227 71l68 156q89 -55 148 -55q47 0 67.5 24t20.5 81v51h-125v152h125v277h193z" />
    <glyph glyph-name="uni0249" unicode="&#x249;" horiz-adv-x="294" 
d="M20 -211q-53 0 -115 22l26 161q24 -9 48 -14q21 -3 36 -2q21 1 29 18t8 52v185h-89v137h89v202h186v-202h70v-137h-70v-188q0 -234 -218 -234zM252 677q0 -49 -31.5 -78t-76.5 -29t-76.5 29t-31.5 78t31.5 78t76.5 29t76.5 -29t31.5 -78z" />
    <glyph glyph-name="uni024A" unicode="&#x24a;" horiz-adv-x="808" 
d="M564 347q0 97 -45.5 154.5t-124.5 57.5t-124.5 -58t-45.5 -154q0 -97 45.5 -154t124.5 -57q80 0 125 55.5t45 155.5zM754 -186q-100 6 -144.5 54t-45.5 152q-74 -59 -179 -59q-152 0 -255 102t-103 284t106 284.5t261 102.5q158 0 260 -101.5t102 -285.5v-335
q0 -59 32 -59q28 0 71 16l26 -160q-36 -13 -71 -18q-45 -2 -60 23z" />
    <glyph glyph-name="uni024B" unicode="&#x24b;" horiz-adv-x="601" 
d="M367 -29q-38 -4 -67 0q-9 -7 -23 -7q-122 0 -189 80t-67 218q0 136 79.5 217.5t216.5 81.5q124 0 236 -35v-523q0 -51 25 -51q16 0 70 12l28 -152q-63 -22 -124 -22q-93 0 -137.5 43.5t-47.5 137.5zM367 145v247q-15 3 -49 3q-51 0 -79 -36t-28 -100q0 -129 91 -129
q37 0 65 15z" />
    <glyph glyph-name="uni024C" unicode="&#x24c;" horiz-adv-x="671" 
d="M316 233h-24h-32v-258h-192v258h-81v163h81v307q121 23 223 23q342 0 342 -251q0 -135 -119 -200q106 -150 175 -300h-213q-101 181 -160 258zM300 554q-29 0 -40 -2v-156h19q83 0 120 16.5t37 63.5q0 78 -136 78z" />
    <glyph glyph-name="uni024D" unicode="&#x24d;" horiz-adv-x="421" 
d="M290 561q79 0 151 -29l-35 -162q-45 26 -108 24q-35 -2 -57 -12v-81h132v-137h-132v-189h-186v189h-69v137h69v214q125 46 235 46z" />
    <glyph glyph-name="uni024E" unicode="&#x24e;" horiz-adv-x="736" 
d="M464 -25h-194v283q-55 82 -115 184h-136v151h55q-31 54 -67 125h220q31 -74 59 -125h167q28 53 62 125h212l-68 -125h54v-151h-138q-46 -81 -111 -182v-285zM289 442l77 -100l80 100h-157z" />
    <glyph glyph-name="uni024F" unicode="&#x24f;" horiz-adv-x="627" 
d="M602 242h-99q-54 -152 -108 -270q-46 -98 -96 -139.5t-137 -42.5q-22 -1 -52 4q-44 6 -91 26l34 156q62 -22 95 -22q52 0 79 61q-56 109 -103 227h-103v137h53q-28 77 -53 171h196q22 -96 47 -171h102q9 30 23 89t20 82h192q-39 -136 -50 -171h51v-137zM269 203
q2 -4 25 -73t26 -74q15 45 45 145q-91 0 -96 2z" />
    <glyph glyph-name="uni0259" unicode="&#x259;" horiz-adv-x="578" 
d="M28 312l323 22q-21 72 -113 72q-86 0 -154 -32l-34 140q84 42 209 42q140 0 213 -80t73 -209q0 -134 -74 -212.5t-193 -78.5q-111 0 -176 64t-72 182q-2 56 -2 90zM212 204q5 -90 70 -90q36 0 55.5 27t21.5 74z" />
    <glyph glyph-name="uni0292" unicode="&#x292;" horiz-adv-x="505" 
d="M99 122v102l6 21q62 70 116 141h-217v164h465v-125q-28 -40 -141 -177q163 -57 163 -215q0 -120 -75.5 -181.5t-212.5 -61.5q-57 0 -121.5 14.5t-107.5 35.5l44 158q94 -41 177 -41q108 0 108 81q0 84 -129 84h-75z" />
    <glyph glyph-name="uni02BB" unicode="&#x2bb;" horiz-adv-x="297" 
d="M148 855l72 -36q-41 -76 -40 -116q33 -6 50 -26t16 -45q0 -62 -66 -81q-59 -12 -96 18q-31 31 -33 65q-7 92 97 221z" />
    <glyph glyph-name="apostrophe" unicode="&#x2bc;" horiz-adv-x="289" 
d="M76 801h154l25 -30q-1 -77 -20 -133.5t-62 -122.5l-135 40q49 104 49 178q0 30 -11 68z" />
    <glyph glyph-name="circumflex" unicode="&#x2c6;" horiz-adv-x="394" 
d="M197 629l-105 -84l-84 98l189 169l186 -169l-81 -98z" />
    <glyph glyph-name="caron" unicode="&#x2c7;" horiz-adv-x="386" 
d="M93 820l105 -84l105 84l84 -98l-189 -169l-186 169z" />
    <glyph glyph-name="uni02C8" unicode="&#x2c8;" horiz-adv-x="259" 
d="M50 597v300h159v-300h-159z" />
    <glyph glyph-name="uni02C9" unicode="&#x2c9;" horiz-adv-x="376" 
d="M370 602h-364v145h364v-145z" />
    <glyph glyph-name="breve" unicode="&#x2d8;" horiz-adv-x="405" 
d="M202 575q-90 0 -135.5 55t-45.5 156h141q4 -72 40 -72q35 0 41 72h140q0 -102 -45 -156.5t-136 -54.5z" />
    <glyph glyph-name="dotaccent" unicode="&#x2d9;" horiz-adv-x="267" 
d="M133 578q-41 0 -70 27.5t-29 71.5t29 71.5t70 27.5q42 0 71 -27.5t29 -71.5t-29 -71.5t-71 -27.5z" />
    <glyph glyph-name="ring" unicode="&#x2da;" horiz-adv-x="332" 
d="M306 695q0 -64 -40.5 -100.5t-100.5 -36.5q-58 0 -98.5 36.5t-40.5 100.5t40.5 100.5t98.5 36.5q60 0 100.5 -36.5t40.5 -100.5zM188 695q0 11 -7 17.5t-16 6.5q-21 0 -21 -24q0 -23 21 -23q10 0 16.5 6t6.5 17z" />
    <glyph glyph-name="ogonek" unicode="&#x2db;" horiz-adv-x="322" 
d="M176 -241q-146 0 -146 113q0 83 119 167h129q0 -8 0.5 -24.5t0.5 -25.5l-15 -9l6 3q-64 -53 -68 -69q4 -5 17 -4q14 1 60 15l17 -141q-60 -25 -120 -25z" />
    <glyph glyph-name="tilde" unicode="&#x2dc;" horiz-adv-x="373" 
d="M255 591q-27 0 -68 17.5t-57 17.5q-19 0 -44 -55l-109 70q20 52 58 93t88 41q27 0 67.5 -18t57.5 -18q16 0 44 55l112 -72q-75 -131 -149 -131z" />
    <glyph glyph-name="hungarumlaut" unicode="&#x2dd;" horiz-adv-x="425" 
d="M222 620l150 212l122 -99l-172 -189zM276 738l-166 -194l-99 76l149 212z" />
    <glyph glyph-name="gravecomb" unicode="&#x300;" horiz-adv-x="0" 
d="M-216 576h-136l-168 215h224z" />
    <glyph glyph-name="acutecomb" unicode="&#x301;" horiz-adv-x="0" 
d="M-237 576h-137l80 215h224z" />
    <glyph glyph-name="uni0302" unicode="&#x302;" horiz-adv-x="0" 
d="M-313 662l-104 -83l-85 97l189 170l186 -170l-81 -97z" />
    <glyph glyph-name="tildecomb" unicode="&#x303;" horiz-adv-x="0" 
d="M-270 585q-27 0 -68 18t-58 18t-44 -55l-108 70q19 51 56.5 92.5t88.5 41.5q27 0 68 -18t58 -18t44 55l112 -72q-77 -132 -149 -132z" />
    <glyph glyph-name="uni0304" unicode="&#x304;" horiz-adv-x="0" 
d="M-128 602h-363v145h363v-145z" />
    <glyph glyph-name="uni0306" unicode="&#x306;" horiz-adv-x="0" 
d="M-311 613q-90 0 -136 55t-45 156h141q4 -72 40 -72t40 72h141q0 -101 -45.5 -156t-135.5 -55z" />
    <glyph glyph-name="uni0307" unicode="&#x307;" horiz-adv-x="0" 
d="M-317 615q-42 0 -70.5 27.5t-28.5 71.5q0 45 28.5 72t70.5 27t71 -27.5t29 -71.5t-29 -71.5t-71 -27.5z" />
    <glyph glyph-name="uni0308" unicode="&#x308;" horiz-adv-x="0" 
d="M-321 683q0 -44 -28.5 -70.5t-68.5 -26.5q-41 0 -69.5 26.5t-28.5 70.5t28.5 70.5t69.5 26.5q40 0 68.5 -26.5t28.5 -70.5zM-56 683q0 -44 -28.5 -70.5t-68.5 -26.5t-68.5 26.5t-28.5 70.5t28.5 70.5t68.5 26.5t68.5 -26.5t28.5 -70.5z" />
    <glyph glyph-name="uni030A" unicode="&#x30a;" horiz-adv-x="0" 
d="M-171 729q0 -64 -40.5 -100.5t-99.5 -36.5q-58 0 -98.5 36.5t-40.5 100.5t40.5 100.5t98.5 36.5q59 0 99.5 -36.5t40.5 -100.5zM-267 729q0 20 -13.5 33t-30.5 13q-18 0 -31 -13t-13 -33q0 -21 13 -34t31 -13q17 0 30.5 13t13.5 34z" />
    <glyph glyph-name="uni030B" unicode="&#x30b;" horiz-adv-x="0" 
d="M-318 654l150 212l122 -99l-172 -189zM-264 772l-166 -194l-99 76l149 212z" />
    <glyph glyph-name="uni030C" unicode="&#x30c;" horiz-adv-x="0" 
d="M-409 862l105 -84l105 84l84 -98l-189 -169l-186 169z" />
    <glyph glyph-name="uni030D" unicode="&#x30d;" horiz-adv-x="0" 
d="M-382 597v300h159v-300h-159z" />
    <glyph glyph-name="uni030E" unicode="&#x30e;" horiz-adv-x="0" 
d="M-483 597v300h159v-300h-159zM-308 597v300h159v-300h-159z" />
    <glyph glyph-name="uni030F" unicode="&#x30f;" horiz-adv-x="0" 
d="M-466 866l149 -212l-99 -76l-172 188zM-204 578l-166 193l116 95l149 -212z" />
    <glyph glyph-name="uni0310" unicode="&#x310;" horiz-adv-x="0" 
d="M-320 665q90 0 136 55t45 156h-60q-2 -41 -34 -71.5t-87 -30.5t-84.5 30t-32.5 72h-63q-1 -101 44.5 -156t135.5 -55zM-319 826q-42 0 -70.5 27.5t-28.5 71.5t28.5 71.5t70.5 27.5t70.5 -27.5t28.5 -71.5t-28.5 -71.5t-70.5 -27.5z" />
    <glyph glyph-name="uni0311" unicode="&#x311;" horiz-adv-x="0" 
d="M-323 796q90 0 136 -55t45 -156h-60q-2 41 -34 71.5t-87 30.5t-84.5 -30t-32.5 -72h-64q-1 101 45 156t136 55z" />
    <glyph glyph-name="uni0312" unicode="&#x312;" horiz-adv-x="0" 
d="M-326 880l72 -36q-41 -73 -41 -116q34 -6 51 -26t16 -45q0 -63 -66 -80q-57 -13 -96 17q-31 31 -33 65q-7 92 97 221z" />
    <glyph glyph-name="uni0313" unicode="&#x313;" horiz-adv-x="0" 
d="M-344 468l-47 44q44 44 54 79q-32 21 -32 53t19 53t52 21q34 0 53 -24.5t18 -62.5q-2 -81 -117 -163z" />
    <glyph glyph-name="uni0314" unicode="&#x314;" horiz-adv-x="0" 
d="M-226 512l-47 -44q-115 84 -117 163q-1 38 18.5 62.5t53.5 24.5q33 0 52 -21t19 -53q0 -31 -33 -53q11 -34 54 -79z" />
    <glyph glyph-name="uni0320" unicode="&#x320;" horiz-adv-x="0" 
d="M-551 -212v164h517v-164h-517z" />
    <glyph glyph-name="dotbelowcomb" unicode="&#x323;" horiz-adv-x="0" 
d="M-291 -246q-42 0 -70.5 27t-28.5 71q0 45 28.5 72t70.5 27t70.5 -27t28.5 -72q0 -44 -28.5 -71t-70.5 -27z" />
    <glyph glyph-name="uni0324" unicode="&#x324;" horiz-adv-x="0" 
d="M-321 -141q0 -44 -28 -70t-69 -26t-69.5 26t-28.5 70t28.5 70.5t69.5 26.5q40 0 68.5 -26.5t28.5 -70.5zM-56 -141q0 -44 -28 -70t-69 -26t-69 26t-28 70t28.5 70.5t68.5 26.5t68.5 -26.5t28.5 -70.5z" />
    <glyph glyph-name="uni0325" unicode="&#x325;" horiz-adv-x="0" 
d="M-171 -196q0 -64 -40.5 -100.5t-99.5 -36.5q-58 0 -98.5 36.5t-40.5 100.5t40.5 100.5t98.5 36.5q59 0 99.5 -36.5t40.5 -100.5zM-267 -196q0 20 -13.5 33t-30.5 13q-18 0 -31 -13t-13 -33q0 -21 13 -34t31 -13q17 0 30.5 13t13.5 34z" />
    <glyph glyph-name="uni0331" unicode="&#x331;" horiz-adv-x="0" 
d="M-113 -188h-363v144h363v-144z" />
    <glyph glyph-name="uni0342" unicode="&#x342;" horiz-adv-x="373" 
d="M255 591q-27 0 -68 17.5t-57 17.5q-19 0 -44 -55l-109 70q20 52 58 93t88 41q27 0 67.5 -18t57.5 -18q16 0 44 55l112 -72q-75 -131 -149 -131z" />
    <glyph glyph-name="uni0352" unicode="&#x352;" horiz-adv-x="0" 
d="M-320 1024q90 0 136 -55t45 -156h-60q-2 41 -34 71.5t-87 30.5t-84.5 -30t-32.5 -72h-63q-1 101 44.5 156t135.5 55zM-319 863q-42 0 -70.5 -27.5t-28.5 -71.5t28.5 -71.5t70.5 -27.5t70.5 27.5t28.5 71.5t-28.5 71.5t-70.5 27.5z" />
    <glyph glyph-name="tonos" unicode="&#x384;" horiz-adv-x="343" 
d="M155 597h-137l80 215h225z" />
    <glyph glyph-name="dieresistonos" unicode="&#x385;" horiz-adv-x="747" 
d="M258 674l154 222l131 -100l-175 -202zM244 684q0 -44 -28.5 -70.5t-68.5 -26.5t-68.5 26.5t-28.5 70.5t28 70t69 26t69 -26t28 -70zM698 684q0 -44 -28.5 -70.5t-68.5 -26.5q-41 0 -69.5 26.5t-28.5 70.5q0 43 28.5 69.5t69.5 26.5t69 -26t28 -70z" />
    <glyph glyph-name="Alphatonos" unicode="&#x386;" horiz-adv-x="774" 
d="M753 -13h-212l-37 134h-217q-4 -14 -19.5 -61.5t-22.5 -72.5h-191q158 468 257 716h185q122 -314 257 -716zM465 261l-51 169q-11 35 -18 65q-4 -10 -17 -57q-10 -37 -54 -177h140zM130 529h-137l80 215h225z" />
    <glyph glyph-name="anoteleia" unicode="&#x387;" horiz-adv-x="275" 
d="M250 323q0 -48 -32.5 -78.5t-78.5 -30.5q-45 0 -77 30.5t-32 78.5t32 79t77 31q46 0 78.5 -31t32.5 -79z" />
    <glyph glyph-name="Epsilontonos" unicode="&#x388;" horiz-adv-x="815" 
d="M789 -13h-462v716h447v-155h-247v-116h217v-152h-217v-138h262v-155zM152 539h-137l80 215h225z" />
    <glyph glyph-name="Etatonos" unicode="&#x389;" horiz-adv-x="955" 
d="M708 432v271h199v-716h-199v291h-183v-291h-200v716h200v-271h183zM157 529h-137l80 215h225z" />
    <glyph glyph-name="Iotatonos" unicode="&#x38a;" horiz-adv-x="585" 
d="M336 -13v716h200v-716h-200zM158 529h-137l80 215h225z" />
    <glyph glyph-name="Omicrontonos" unicode="&#x38c;" horiz-adv-x="929" 
d="M883 345q0 -170 -89 -270t-242 -100q-151 0 -240.5 100t-89.5 270q0 169 90.5 270t239.5 101q152 0 241.5 -100.5t89.5 -270.5zM679 350q0 93 -32.5 151.5t-94.5 58.5q-61 0 -94 -58.5t-33 -151.5q0 -94 33 -153t94 -59q62 0 94.5 59t32.5 153zM152 529h-137l80 215h225z
" />
    <glyph glyph-name="Upsilontonos" unicode="&#x38e;" horiz-adv-x="964" 
d="M710 -13h-199v280q-113 204 -225 436h219q54 -135 112 -251q67 136 114 251h205q-104 -217 -226 -434v-282zM153 554h-137l80 215h225z" />
    <glyph glyph-name="Omegatonos" unicode="&#x38f;" horiz-adv-x="860" 
d="M470 734q157 0 257.5 -94t100.5 -262q0 -129 -80 -235h95v-168h-345v141q133 113 133 258q0 89 -43 137.5t-118 48.5t-118.5 -48.5t-43.5 -137.5q0 -148 133 -258v-141h-346v168h96q-80 104 -80 235q0 167 100.5 261.5t258.5 94.5zM28 746l165 -45l-94 -258l-136 34z" />
    <glyph glyph-name="iotadieresistonos" unicode="&#x390;" horiz-adv-x="300" 
d="M308 117l-25 -153q-139 1 -188.5 43.5t-49.5 147.5v10v385h186v-381q0 -26 15.5 -37t61.5 -15zM47 681l154 222l131 -100l-175 -202zM33 691q0 -44 -28.5 -70.5t-68.5 -26.5t-68.5 26.5t-28.5 70.5t28 70t69 26t69 -26t28 -70zM487 691q0 -44 -28.5 -70.5t-68.5 -26.5
q-41 0 -69.5 26.5t-28.5 70.5q0 43 28.5 69.5t69.5 26.5t69 -26t28 -70z" />
    <glyph glyph-name="Alpha" unicode="&#x391;" horiz-adv-x="708" 
d="M704 -13h-212l-37 134h-217q-4 -14 -19.5 -61.5t-22.5 -72.5h-191q158 468 257 716h185q122 -314 257 -716zM416 261l-51 169l-18 65q-4 -10 -17 -57q-10 -37 -54 -177h140z" />
    <glyph glyph-name="Beta" unicode="&#x392;" horiz-adv-x="665" 
d="M299 -21q-136 0 -242 31v671q104 31 233 31q148 0 228 -51.5t80 -154.5q0 -46 -24.5 -81t-60.5 -55q111 -50 111 -170q0 -221 -325 -221zM299 293q-8 0 -24 -0.5t-25 -0.5v-166q39 -3 50 -3q61 0 92.5 19.5t31.5 65.5q0 45 -30 65t-95 20zM250 568v-145h38
q62 0 89.5 15.5t27.5 59.5q0 72 -103 72q-34 0 -52 -2z" />
    <glyph glyph-name="Gamma" unicode="&#x393;" horiz-adv-x="575" 
d="M56 718h508v-171h-315v-572h-193v743z" />
    <glyph glyph-name="uni0394" unicode="&#x394;" horiz-adv-x="683" 
d="M224 144h230q-82 246 -115 317q-52 -130 -115 -317zM707 -25h-697l-15 59q118 367 271 684h150q164 -351 291 -743z" />
    <glyph glyph-name="Epsilon" unicode="&#x395;" horiz-adv-x="598" 
d="M519 -13h-462v716h447v-155h-247v-116h217v-152h-217v-138h262v-155z" />
    <glyph glyph-name="Zeta" unicode="&#x396;" horiz-adv-x="602" 
d="M532 703l-14 -112q-21 -47 -115.5 -206.5t-136.5 -242.5h272v-155h-526l15 108q77 173 247 453h-240v155h498z" />
    <glyph glyph-name="Eta" unicode="&#x397;" horiz-adv-x="727" 
d="M440 432v271h199v-716h-199v291h-183v-291h-200v716h200v-271h183z" />
    <glyph glyph-name="Theta" unicode="&#x398;" horiz-adv-x="724" 
d="M451 278h-176v169h176v-169zM694 345q0 -170 -89 -270t-242 -100q-151 0 -240.5 100t-89.5 270q0 169 90.5 270t239.5 101q152 0 241.5 -100.5t89.5 -270.5zM490 350q0 93 -32.5 151.5t-94.5 58.5q-61 0 -94 -58.5t-33 -151.5q0 -94 33 -153t94 -59q62 0 94.5 59
t32.5 153z" />
    <glyph glyph-name="Iota" unicode="&#x399;" horiz-adv-x="305" 
d="M57 -13v716h200v-716h-200z" />
    <glyph glyph-name="Kappa" unicode="&#x39a;" horiz-adv-x="670" 
d="M678 -13h-179q-25 4 -52 6q-82 161 -190 295v-301h-200v716h200v-269q27 29 56 68t43.5 61t47.5 76l39 64h222q-114 -161 -248 -329q141 -169 261 -387z" />
    <glyph glyph-name="Lambda" unicode="&#x39b;" horiz-adv-x="706" 
d="M732 -25h-210q-119 357 -173 484q-47 -118 -170 -484h-203q147 429 293 743h152l29 -29q133 -286 282 -714z" />
    <glyph glyph-name="Mu" unicode="&#x39c;" horiz-adv-x="892" 
d="M479 40h-115l-71.5 187.5l-47 124.5t-13.5 33q-7 -55 -18 -398h-180q33 478 60 716h139q29 -4 47 -7l80 -202l67 -173q5 10 34.5 83l66 164.5t56.5 134.5h178q28 -237 61 -716h-192q-16 364 -19 398q-2 -3 -13.5 -33l-46.5 -122z" />
    <glyph glyph-name="Nu" unicode="&#x39d;" horiz-adv-x="748" 
d="M650 -13h-120l-39 7q-57 98 -146 238.5t-107 155.5q0 -12 0.5 -49t0.5 -59v-293h-182v716h160q104 -126 209 -284l22 -35.5t21 -31.5q0 15 -1 59t-1 69v223h183v-716z" />
    <glyph glyph-name="Xi" unicode="&#x39e;" horiz-adv-x="557" 
d="M501 278h-445v169h445v-169zM546 -25h-536v171h536v-171zM13 718h531v-171h-531v171z" />
    <glyph glyph-name="Omicron" unicode="&#x39f;" horiz-adv-x="787" 
d="M694 345q0 -170 -89 -270t-242 -100q-151 0 -240.5 100t-89.5 270q0 169 90.5 270t239.5 101q152 0 241.5 -100.5t89.5 -270.5zM490 350q0 93 -32.5 151.5t-94.5 58.5q-61 0 -94 -58.5t-33 -151.5q0 -94 33 -153t94 -59q62 0 94.5 59t32.5 153z" />
    <glyph glyph-name="Pi" unicode="&#x3a0;" horiz-adv-x="723" 
d="M56 718h610v-743h-192v572h-225v-572h-193v743z" />
    <glyph glyph-name="Rho" unicode="&#x3a1;" horiz-adv-x="636" 
d="M289 712q160 0 239 -62.5t79 -179.5q0 -245 -324 -245h-28v-238h-198v694q112 31 232 31zM294 567q-9 0 -22 -1t-17 -1v-194h28q66 0 96.5 21.5t30.5 78.5q0 52 -29 74t-87 22z" />
    <glyph glyph-name="Sigma" unicode="&#x3a3;" horiz-adv-x="588" 
d="M445 351q-21 -25 -92.5 -103t-90.5 -103h311v-170h-566v134q46 57 159 183l8 11l45 51q-33 43 -104 125.5t-93 111.5v127h551v-170h-284z" />
    <glyph glyph-name="Tau" unicode="&#x3a4;" horiz-adv-x="603" 
d="M12 703h532v-156h-166v-560h-199v560h-167v156z" />
    <glyph glyph-name="Upsilon" unicode="&#x3a5;" horiz-adv-x="646" 
d="M401 -13h-199v280q-113 204 -225 436h219q54 -135 112 -251q67 136 114 251h205q-104 -217 -226 -434v-282z" />
    <glyph glyph-name="Phi" unicode="&#x3a6;" horiz-adv-x="868" 
d="M529 511v-281q58 11 91 47t33 92t-32.5 93.5t-91.5 48.5zM340 -25v84q-149 13 -233 99.5t-84 209.5q0 121 84.5 209t232.5 105v81h189v-81q148 -17 232 -105t84 -209q0 -122 -84.5 -208.5t-231.5 -100.5v-84h-189zM340 230v281q-59 -11 -92 -48.5t-33 -93.5t33 -92
t92 -47z" />
    <glyph glyph-name="Chi" unicode="&#x3a7;" horiz-adv-x="664" 
d="M320 516l105 187h212l-207 -336q117 -182 217 -380h-187q-12 3 -44 7q-38 85 -106 204q-79 -134 -112 -211h-215q88 167 217 368l-207 348h225l101 -187h1z" />
    <glyph glyph-name="Psi" unicode="&#x3a8;" horiz-adv-x="838" 
d="M511 -25h-184v170q-144 14 -215.5 95.5t-71.5 214.5v263h188v-247q0 -73 23.5 -109.5t73.5 -46.5v403h188v-403q97 24 97 156v247h188v-263q0 -133 -71.5 -214.5t-215.5 -95.5v-170z" />
    <glyph glyph-name="uni03A9" unicode="&#x3a9;" horiz-adv-x="783" 
d="M392 734q157 0 257.5 -94t100.5 -262q0 -129 -80 -235h95v-168h-345v141q133 113 133 258q0 89 -43 137.5t-118 48.5t-118 -48.5t-43 -137.5q0 -149 132 -258v-141h-346v168h97q-81 104 -81 235q0 167 100.5 261.5t258.5 94.5z" />
    <glyph glyph-name="Iotadieresis" unicode="&#x3aa;" horiz-adv-x="305" 
d="M57 -13v716h200v-716h-200zM117 850q0 -44 -28.5 -70.5t-68.5 -26.5q-41 0 -69.5 26.5t-28.5 70.5t28.5 70.5t69.5 26.5q40 0 68.5 -26.5t28.5 -70.5zM382 850q0 -44 -28.5 -70.5t-68.5 -26.5t-68.5 26.5t-28.5 70.5t28.5 70.5t68.5 26.5t68.5 -26.5t28.5 -70.5z" />
    <glyph glyph-name="Upsilondieresis" unicode="&#x3ab;" horiz-adv-x="646" 
d="M401 -13h-199v280q-113 204 -225 436h219q54 -135 112 -251q67 136 114 251h205q-104 -217 -226 -434v-282zM288 850q0 -44 -28.5 -70.5t-68.5 -26.5q-41 0 -69.5 26.5t-28.5 70.5t28.5 70.5t69.5 26.5q40 0 68.5 -26.5t28.5 -70.5zM553 850q0 -44 -28.5 -70.5
t-68.5 -26.5t-68.5 26.5t-28.5 70.5t28.5 70.5t68.5 26.5t68.5 -26.5t28.5 -70.5z" />
    <glyph glyph-name="alphatonos" unicode="&#x3ac;" horiz-adv-x="615" 
d="M455 18q-66 -54 -174 -54q-124 0 -192 79.5t-68 218.5q0 136 79 217.5t215 81.5q115 0 231 -36v-338q0 -34 17 -46t65 -16l-25 -152q-45 -5 -90 11.5t-58 33.5zM361 201v190q-16 4 -44 4q-51 0 -79 -36.5t-28 -99.5q0 -62 22.5 -96t66.5 -34q33 0 65 16q-3 26 -3 56z
M365 643h-137l80 215h225z" />
    <glyph glyph-name="epsilontonos" unicode="&#x3ad;" horiz-adv-x="512" 
d="M288 122q95 0 184 38l43 -151q-37 -18 -102.5 -33t-139.5 -15q-38 0 -72 5t-69 18t-60 33.5t-41 54.5t-16 78q0 80 64 127q-42 38 -46 95q0 28 4 49q16 69 82.5 105.5t169.5 36.5q49 0 106.5 -12.5t88.5 -27.5l-33 -152q-63 26 -130 33q-12 1 -33 1q-64 -4 -64 -30
q0 -7 3.5 -12.5t10.5 -8.5l13 -5.5t17.5 -3t17 -0.5h17.5h13h84v-151h-86q-70 0 -89 -10q-16 -9 -16 -26q0 -36 79 -36zM321 643h-137l80 215h225z" />
    <glyph glyph-name="etatonos" unicode="&#x3ae;" 
d="M47 -25v532q45 54 245 54q138 0 195 -68.5t57 -196.5v-506h-186v487q0 65 -16.5 91.5t-58.5 26.5q-26 0 -50 -4v-416h-186zM341 643h-137l80 215h225z" />
    <glyph glyph-name="iotatonos" unicode="&#x3af;" horiz-adv-x="300" 
d="M308 117l-25 -153q-139 1 -188.5 43.5t-49.5 147.5v10v385h186v-381q0 -26 15.5 -37t61.5 -15zM202 643h-137l80 215h225z" />
    <glyph glyph-name="upsilondieresistonos" unicode="&#x3b0;" horiz-adv-x="589" 
d="M295 -39q-129 0 -191 65.5t-62 199.5v324h186v-309q0 -60 15 -86t52 -26q36 0 51 26t15 86v309h186v-324q0 -135 -61.5 -200t-190.5 -65zM174 674l154 222l131 -100l-175 -202zM160 684q0 -44 -28.5 -70.5t-68.5 -26.5t-68.5 26.5t-28.5 70.5t28 70t69 26t69 -26t28 -70z
M614 684q0 -44 -28.5 -70.5t-68.5 -26.5q-41 0 -69.5 26.5t-28.5 70.5q0 43 28.5 69.5t69.5 26.5t69 -26t28 -70z" />
    <glyph glyph-name="alpha" unicode="&#x3b1;" horiz-adv-x="615" 
d="M455 18q-66 -54 -174 -54q-124 0 -192 79.5t-68 218.5q0 136 79 217.5t215 81.5q115 0 231 -36v-338q0 -34 17 -46t65 -16l-25 -152q-45 -5 -90 11.5t-58 33.5zM361 201v190q-16 4 -44 4q-51 0 -79 -36.5t-28 -99.5q0 -62 22.5 -96t66.5 -34q33 0 65 16q-3 26 -3 56z" />
    <glyph glyph-name="beta" unicode="&#x3b2;" horiz-adv-x="631" 
d="M233 -21v-190h-186v750q0 121 67 191.5t195 70.5q120 0 186 -59.5t66 -155.5q0 -99 -67 -152q117 -64 117 -207q0 -133 -75 -198t-206 -65q-46 0 -97 15zM233 537v-387q40 -18 89 -18q46 0 73 24.5t27 71.5q0 100 -119 100h-26v160h20q36 0 57.5 19.5t21.5 58.5
q0 29 -17 47.5t-47 18.5q-79 0 -79 -95z" />
    <glyph glyph-name="gamma" unicode="&#x3b3;" horiz-adv-x="543" 
d="M266 229q64 151 98 321h191q-67 -293 -224 -560q16 -104 21 -142v1l9 -59h-165l-8.5 11l-10 13t-8.5 12q-18 124 -54 265.5t-62.5 225l-77.5 233.5h197q66 -199 94 -321z" />
    <glyph glyph-name="delta" unicode="&#x3b4;" horiz-adv-x="603" 
d="M297 397q-41 -19 -63.5 -57t-22.5 -86q0 -59 23.5 -92.5t67.5 -33.5q43 0 66.5 33t23.5 92q0 83 -95 144zM162 490q-54 54 -57 123q-1 28 6 58q15 59 71.5 94.5t144.5 35.5q96 0 207 -46l-43 -154q-79 33 -110 38q-29 5 -56 3q-35 -3 -35 -22q0 -14 20 -30t68 -46
q49 -30 80.5 -55t62.5 -60t46 -79.5t15 -99.5q0 -130 -75 -209.5t-205 -79.5q-129 0 -205 76.5t-76 207.5q0 78 37.5 141.5t103.5 103.5z" />
    <glyph glyph-name="epsilon" unicode="&#x3b5;" horiz-adv-x="512" 
d="M288 122q95 0 184 38l43 -151q-37 -18 -102.5 -33t-139.5 -15q-38 0 -72 5t-69 18t-60 33.5t-41 54.5t-16 78q0 80 64 127q-42 38 -46 95q0 28 4 49q16 69 82.5 105.5t169.5 36.5q49 0 106.5 -12.5t88.5 -27.5l-33 -152q-63 26 -130 33q-12 1 -33 1q-64 -4 -64 -30
q0 -7 3.5 -12.5t10.5 -8.5l13 -5.5t17.5 -3t17 -0.5h17.5h13h84v-151h-86q-70 0 -89 -10q-16 -9 -16 -26q0 -36 79 -36z" />
    <glyph glyph-name="zeta" unicode="&#x3b6;" horiz-adv-x="488" 
d="M520 -43q0 -77 -69 -177l-162 55q46 83 46 103q0 18 -17.5 29t-68.5 24q-112 30 -163.5 85.5t-51.5 166.5q0 173 210 388h-183v163h441v-138q-24 -22 -35 -31q-47 -42 -78.5 -74t-75 -84.5t-67 -107t-23.5 -107.5q0 -43 23 -66.5t83 -39.5q109 -31 150 -72t41 -117z" />
    <glyph glyph-name="eta" unicode="&#x3b7;" 
d="M47 -25v532q45 54 245 54q138 0 195 -68.5t57 -196.5v-506h-186v487q0 65 -16.5 91.5t-58.5 26.5q-26 0 -50 -4v-416h-186z" />
    <glyph glyph-name="theta" unicode="&#x3b8;" horiz-adv-x="612" 
d="M306 801q135 0 208 -107t73 -312q0 -206 -73 -313.5t-208 -107.5q-134 0 -207.5 107.5t-73.5 313.5q0 205 73.5 312t207.5 107zM306 128q84 0 93 173h-187q8 -173 94 -173zM306 634q-85 0 -94 -169h187q-9 169 -93 169z" />
    <glyph glyph-name="iota" unicode="&#x3b9;" horiz-adv-x="300" 
d="M308 117l-25 -153q-139 1 -188.5 43.5t-49.5 147.5v10v385h186v-381q0 -26 15.5 -37t61.5 -15z" />
    <glyph glyph-name="kappa" unicode="&#x3ba;" horiz-adv-x="570" 
d="M233 -25h-186v575h186v-164q75 82 142 164h226q-43 -53 -117.5 -135.5t-119.5 -127.5q61 -60 127 -147t110 -165h-212q-82 128 -156 195v-195z" />
    <glyph glyph-name="lambda" unicode="&#x3bb;" horiz-adv-x="538" 
d="M275 305q-60 -159 -104 -330h-192q94 328 209 550q-19 48 -33 68.5t-38 22.5q-16 19 -43 16q-19 -4 -48 -16l-33 162q69 23 127 23q77 0 126 -35t87 -115q123 -270 232 -676h-177q-25 25 -45 84.5t-38.5 137t-29.5 108.5z" />
    <glyph glyph-name="uni03BC" unicode="&#x3bc;" horiz-adv-x="591" 
d="M339 -23q-57 0 -98 19q1 -33 1 -105v-93h-192v744h193v-259q0 -9 -0.5 -26.5t-0.5 -27t0.5 -24.5t2.5 -23.5l4.5 -20t7.5 -17.5t11.5 -12.5t16.5 -9t22 -2.5q30 0 52 5v417h192v-528q-96 -37 -212 -37z" />
    <glyph glyph-name="nu" unicode="&#x3bd;" horiz-adv-x="539" 
d="M275 211q18 34 86 331h191q-87 -289 -195 -555h-128q-16 3 -48 7q-107 260 -191 548h203q62 -276 82 -331z" />
    <glyph glyph-name="xi" unicode="&#x3be;" horiz-adv-x="540" 
d="M326 146q107 -30 149.5 -72t42.5 -117q0 -78 -70 -177l-161 55q46 83 46 103q0 19 -18 30t-68 23q-114 28 -168 81.5t-54 153.5q0 125 113 192q-76 58 -76 163q0 101 72 160.5t189 59.5q92 0 185 -36l-37 -157q-79 30 -136 30q-45 0 -66.5 -20t-21.5 -52q0 -37 28 -55.5
t76 -18.5h116v-163h-109q-144 0 -144 -92q0 -39 25.5 -57t86.5 -34z" />
    <glyph glyph-name="omicron" unicode="&#x3bf;" horiz-adv-x="603" 
d="M568 266q0 -131 -73.5 -211t-196.5 -80q-122 0 -196.5 80.5t-74.5 210.5q0 128 75 208t196 80q122 0 196 -80t74 -208zM375 267q0 66 -19.5 103.5t-57.5 37.5t-57.5 -37.5t-19.5 -103.5q0 -140 77 -140q38 0 57.5 37t19.5 103z" />
    <glyph glyph-name="pi" unicode="&#x3c0;" horiz-adv-x="589" 
d="M542 550v-575h-186v411h-123v-411h-186v575h495z" />
    <glyph glyph-name="rho" unicode="&#x3c1;" horiz-adv-x="608" 
d="M323 -36q-50 0 -91 16v-190h-186v503q0 123 69.5 195.5t192.5 72.5q137 0 208 -78t71 -221q0 -134 -70.5 -216t-193.5 -82zM232 287v-143q28 -14 67 -14q99 0 99 133q0 132 -86 132q-36 0 -58 -26.5t-22 -81.5z" />
    <glyph glyph-name="sigma1" unicode="&#x3c2;" horiz-adv-x="492" 
d="M211 267q0 -27 4.5 -45t10 -29.5t22 -21t28.5 -15t42.5 -16.5t51.5 -20q64 -27 90 -64.5t26 -98.5q0 -79 -69 -177l-162 55q46 83 46 103q0 16 -15 27.5t-57 23.5q-105 30 -156.5 91t-51.5 183q0 132 79 216t213 84q89 0 174 -38l-44 -158q-71 29 -119 29
q-56 0 -84.5 -33.5t-28.5 -95.5z" />
    <glyph glyph-name="sigma" unicode="&#x3c3;" horiz-adv-x="627" 
d="M577 240q0 -124 -75.5 -201.5t-199.5 -77.5q-125 0 -203 81t-78 214q0 142 85 218t225 76h310v-164h-102q38 -68 38 -146zM390 247q0 92 -47 139h-13q-52 0 -85.5 -30.5t-33.5 -99.5q0 -61 24 -94.5t67 -33.5q41 0 64.5 33t23.5 86z" />
    <glyph glyph-name="tau" unicode="&#x3c4;" horiz-adv-x="474" 
d="M453 15l-17 -36q-50 -15 -112 -15q-117 0 -159.5 60.5t-42.5 183.5v178h-136v164h485v-164h-163v-188q0 -33 6.5 -47.5t23.5 -16.5q25 -5 92 6q8 -38 23 -125z" />
    <glyph glyph-name="upsilon" unicode="&#x3c5;" horiz-adv-x="589" 
d="M295 -39q-129 0 -191 65.5t-62 199.5v324h186v-309q0 -60 15 -86t52 -26q36 0 51 26t15 86v309h186v-324q0 -135 -61.5 -200t-190.5 -65z" />
    <glyph glyph-name="phi" unicode="&#x3c6;" horiz-adv-x="785" 
d="M392 563q173 0 272.5 -83t99.5 -217q0 -116 -74 -195t-207 -99v-179h-182v179q-133 19 -206.5 98.5t-73.5 195.5q0 134 99 217t272 83zM577 263q0 47 -24.5 80t-69.5 45v-251q45 13 69.5 46t24.5 80zM208 263q0 -100 93 -125v249q-93 -24 -93 -124z" />
    <glyph glyph-name="chi" unicode="&#x3c7;" horiz-adv-x="545" 
d="M271 143q-19 -10 -89 -156h-198q78 141 182 287l-100 153l-75 115h209l80 -136h1l83 136h193l-176 -261q107 -151 186 -294h-211q-39 82 -85 156z" />
    <glyph glyph-name="psi" unicode="&#x3c8;" horiz-adv-x="805" 
d="M493 -210h-182v177q-139 19 -204 99t-65 202v282h184v-273q0 -119 85 -139v412h182v-412q86 20 86 139v273h184v-282q0 -123 -65 -202.5t-205 -98.5v-177z" />
    <glyph glyph-name="omega" unicode="&#x3c9;" horiz-adv-x="841" 
d="M328 445h185v-137v-13v-44t1.5 -38t5 -35t9.5 -25t16 -18.5t23 -5.5q61 0 61 129q0 119 -98 253l160 56q59 -63 92 -146.5t33 -169.5q0 -286 -240 -286q-98 0 -156 73q-56 -73 -155 -73q-240 0 -240 286q0 86 33 169.5t92 146.5l160 -56q-98 -134 -98 -253
q0 -129 61 -129q13 0 23 5.5t16 18.5t9.5 24.5t5 35.5t1.5 38v44v13v137z" />
    <glyph glyph-name="iotadieresis" unicode="&#x3ca;" horiz-adv-x="300" 
d="M308 117l-25 -153q-139 1 -188.5 43.5t-49.5 147.5v10v385h186v-381q0 -26 15.5 -37t61.5 -15zM110 702q0 -44 -28.5 -70t-69.5 -26t-69 26t-28 70t28.5 70.5t68.5 26.5q41 0 69.5 -26.5t28.5 -70.5zM357 702q0 -44 -28 -70t-69 -26t-69 26t-28 70t28.5 70.5t68.5 26.5
t68.5 -26.5t28.5 -70.5z" />
    <glyph glyph-name="upsilondieresis" unicode="&#x3cb;" horiz-adv-x="589" 
d="M295 -39q-129 0 -191 65.5t-62 199.5v324h186v-309q0 -60 15 -86t52 -26q36 0 51 26t15 86v309h186v-324q0 -135 -61.5 -200t-190.5 -65zM262 702q0 -44 -28.5 -70t-69.5 -26t-69 26t-28 70t28.5 70.5t68.5 26.5q41 0 69.5 -26.5t28.5 -70.5zM509 702q0 -44 -28 -70
t-69 -26t-69 26t-28 70t28.5 70.5t68.5 26.5t68.5 -26.5t28.5 -70.5z" />
    <glyph glyph-name="omicrontonos" unicode="&#x3cc;" horiz-adv-x="603" 
d="M568 266q0 -131 -73.5 -211t-196.5 -80q-122 0 -196.5 80.5t-74.5 210.5q0 128 75 208t196 80q122 0 196 -80t74 -208zM375 267q0 66 -19.5 103.5t-57.5 37.5t-57.5 -37.5t-19.5 -103.5q0 -140 77 -140q38 0 57.5 37t19.5 103zM360 643h-137l80 215h225z" />
    <glyph glyph-name="upsilontonos" unicode="&#x3cd;" horiz-adv-x="589" 
d="M295 -39q-129 0 -191 65.5t-62 199.5v324h186v-309q0 -60 15 -86t52 -26q36 0 51 26t15 86v309h186v-324q0 -135 -61.5 -200t-190.5 -65zM353 643h-137l80 215h225z" />
    <glyph glyph-name="omegatonos" unicode="&#x3ce;" horiz-adv-x="841" 
d="M328 445h185v-137v-13v-44t1.5 -38t5 -35t9.5 -25t16 -18.5t23 -5.5q61 0 61 129q0 119 -98 253l160 56q59 -63 92 -146.5t33 -169.5q0 -286 -240 -286q-98 0 -156 73q-56 -73 -155 -73q-240 0 -240 286q0 86 33 169.5t92 146.5l160 -56q-98 -134 -98 -253
q0 -129 61 -129q13 0 23 5.5t16 18.5t9.5 24.5t5 35.5t1.5 38v44v13v137zM485 643h-137l80 215h225z" />
    <glyph glyph-name="uni0400" unicode="&#x400;" horiz-adv-x="598" 
d="M508 -13h-451v716h439v-154h-240v-119h211v-150h-211v-139h252v-154zM451 743h-136l-168 215h224z" />
    <glyph glyph-name="uni0401" unicode="&#x401;" horiz-adv-x="598" 
d="M508 -13h-451v716h439v-154h-240v-119h211v-150h-211v-139h252v-154zM263 850q0 -44 -28.5 -70.5t-68.5 -26.5q-41 0 -69.5 26.5t-28.5 70.5t28.5 70.5t69.5 26.5q40 0 68.5 -26.5t28.5 -70.5zM528 850q0 -44 -28.5 -70.5t-68.5 -26.5t-68.5 26.5t-28.5 70.5t28.5 70.5
t68.5 26.5t68.5 -26.5t28.5 -70.5z" />
    <glyph glyph-name="uni0403" unicode="&#x403;" horiz-adv-x="575" 
d="M344 1038l124 -116l-204 -171l-97 89zM247 549v-574h-191v743h502v-169h-311z" />
    <glyph glyph-name="uni0404" unicode="&#x404;" horiz-adv-x="637" 
d="M480 275h-218q23 -123 125 -132q29 -2 81 14q33 3 65 21q29 -74 54 -147q-93 -56 -212 -56q-151 0 -238 100t-87 270q0 167 87.5 269t236.5 102q120 0 211 -54l-51 -142q-48 26 -103 31q-68 7 -111.5 -25.5t-56.5 -95.5h217v-155z" />
    <glyph glyph-name="uni0405" unicode="&#x405;" horiz-adv-x="572" 
d="M223 138q85 0 85 53q0 30 -27.5 48t-107.5 50q-139 67 -145 193q-1 23 4 56q15 82 82 130t170 48q119 0 207 -51l-51 -144q-72 40 -136 40q-78 0 -78 -48q0 -20 17 -36.5t35 -25t67 -29.5q6 -3 9 -4q88 -41 124.5 -90t36.5 -129q0 -103 -72 -163.5t-200 -60.5
q-144 0 -229 54l51 154q75 -45 158 -45z" />
    <glyph glyph-name="uni0406" unicode="&#x406;" horiz-adv-x="305" 
d="M256 -13h-199v716h199v-716z" />
    <glyph glyph-name="uni0407" unicode="&#x407;" horiz-adv-x="305" 
d="M256 -13h-199v716h199v-716zM117 850q0 -44 -28.5 -70.5t-68.5 -26.5q-41 0 -69.5 26.5t-28.5 70.5t28.5 70.5t69.5 26.5q40 0 68.5 -26.5t28.5 -70.5zM382 850q0 -44 -28.5 -70.5t-68.5 -26.5t-68.5 26.5t-28.5 70.5t28.5 70.5t68.5 26.5t68.5 -26.5t28.5 -70.5z" />
    <glyph glyph-name="uni0408" unicode="&#x408;" horiz-adv-x="522" 
d="M369 144q0 -245 -234 -266q-78 -6 -162 28q6 29 18 82.5t15 65.5q77 -24 114 17q50 47 50 156v8v468h199v-559z" />
    <glyph glyph-name="uni040A" unicode="&#x40a;" horiz-adv-x="1029" 
d="M426 14v264h-177v-291h-199v716h199v-272h177v272h194v-244q22 2 36 2q323 -5 323 -245q0 -117 -82.5 -177t-237.5 -60q-131 0 -233 35zM780 220q0 99 -116 100q-30 0 -44 -1v-191q20 -4 41 -4q119 0 119 96z" />
    <glyph glyph-name="uni040C" unicode="&#x40c;" horiz-adv-x="670" 
d="M423 994l124 -116l-204 -172l-97 89zM668 -13h-179q-25 4 -52 6q-86 168 -181 296v-302h-199v716h199v-270q27 29 53.5 66.5t43 64.5l43 72.5l39.5 66.5h221q-105 -150 -242 -329q125 -159 254 -387z" />
    <glyph glyph-name="uni040D" unicode="&#x40d;" horiz-adv-x="748" 
d="M216 -25h-160v743h192v-376q159 237 293 376h151v-743h-190v430q-148 -184 -286 -430zM221 883q37 50 149 64l128 -173l-102 -48z" />
    <glyph glyph-name="uni040E" unicode="&#x40e;" horiz-adv-x="636" 
d="M337 732q-74 0 -130 50t-62 136l139 34q15 -77 53 -77t53 76l139 -34q-6 -86 -62 -135.5t-130 -49.5zM18 -7l34 163q69 -25 110 -24q54 2 85 53l-36 59q-111 192 -231 474h211q54 -136 116 -269l35 -74q46 133 108 343h205q-81 -240 -201 -525q-56 -126 -123.5 -177.5
t-154.5 -52.5q-70 -2 -158 30z" />
    <glyph glyph-name="uni0410" unicode="&#x410;" horiz-adv-x="715" 
d="M707 0h-203l-46 134h-217l-42 -134h-190q144 430 256 715h185q115 -294 257 -715zM419 273l-51 169q-3 13 -7 28t-6 24.5t-3 12.5q-5 -18 -7 -23q-1 -3 -64 -211h138z" />
    <glyph glyph-name="uni0411" unicode="&#x411;" horiz-adv-x="634" 
d="M36 735h500v-169h-315v-80q6 0 17 0.5t17 0.5q168 0 255.5 -59.5t87.5 -191.5q0 -125 -87 -188t-251 -63q-109 0 -224 29v721zM405 235q0 47 -39.5 66t-115.5 19q-19 0 -29 -1v-161q21 -3 45 -3q139 0 139 80z" />
    <glyph glyph-name="uni0412" unicode="&#x412;" horiz-adv-x="627" 
d="M597 206q0 -221 -318 -221q-133 0 -242 32v669q104 32 232 32q145 0 224 -51.5t79 -152.5q0 -89 -88 -138q52 -23 82.5 -66.5t30.5 -103.5zM380 505q0 74 -100 74h-1h-7q-23 0 -43 -4v-146h38q61 0 87 16.5t26 59.5zM399 213q0 47 -32 67.5t-100 20.5q-7 0 -19 -0.5
t-19 -0.5v-168q26 -4 50 -4q59 0 89.5 19.5t30.5 65.5z" />
    <glyph glyph-name="uni0413" unicode="&#x413;" horiz-adv-x="510" 
d="M236 562v-562h-199v715h439v-153h-240z" />
    <glyph glyph-name="uni0414" unicode="&#x414;" horiz-adv-x="842" 
d="M644 -13h-442v-165h-182v310h113l140 571h319l105 -571h126v-313h-179v168zM405 525l-86 -393h185l-73 393q-6 30 -6 37h-14q-2 -18 -6 -37z" />
    <glyph glyph-name="uni0415" unicode="&#x415;" horiz-adv-x="598" 
d="M508 -13h-451v716h439v-154h-240v-119h211v-150h-211v-139h252v-154z" />
    <glyph glyph-name="uni0416" unicode="&#x416;" horiz-adv-x="961" 
d="M217 -13h-222q40 97 109.5 207t131.5 175q-107 142 -233 334h220q116 -195 170 -274v274h198v-273q125 194 170 273h220q-146 -217 -232 -334q123 -127 238 -382h-220q-108 200 -176 303v-303h-198v301q-85 -130 -176 -301z" />
    <glyph glyph-name="uni0417" unicode="&#x417;" horiz-adv-x="601" 
d="M551 201q0 -112 -80 -169.5t-221 -57.5q-138 0 -244 56l55 143q88 -39 168 -39q57 0 90.5 24.5t21.5 66.5q-7 63 -140 63h-74v140h64q138 0 138 73q0 62 -85 62q-88 0 -159 -38l-53 135q98 56 230 56q121 0 191 -51.5t70 -139.5q0 -48 -25 -87.5t-68 -60.5
q121 -50 121 -176z" />
    <glyph glyph-name="uni0418" unicode="&#x418;" horiz-adv-x="729" 
d="M659 -13h-197v371l2 71q-124 -227 -220 -442h-193v716h198v-352l-3 -77q78 163 228 429h185v-716z" />
    <glyph glyph-name="uni0419" unicode="&#x419;" horiz-adv-x="748" 
d="M435 944l138 -38q-9 -82 -64 -129.5t-130 -47.5q-74 0 -129 48t-64 131l138 37q17 -74 55 -74q40 0 56 73zM664 -13h-197v371l2 71q-132 -245 -220 -442h-193v716h198v-352l-3 -77q87 178 228 429h185v-716z" />
    <glyph glyph-name="uni041A" unicode="&#x41a;" horiz-adv-x="670" 
d="M668 -13h-179q-25 4 -52 6q-86 168 -181 296v-302h-199v716h199v-270q27 29 53.5 66.5t43 64.5l43 72.5l39.5 66.5h221q-105 -150 -242 -329q125 -159 254 -387z" />
    <glyph glyph-name="uni041B" unicode="&#x41b;" horiz-adv-x="764" 
d="M484 0l-121 417l-9 33.5l-8.5 30.5t-5.5 17q-2 -1 -6 -14t-9.5 -35t-9.5 -35q-60 -185 -127 -414h-191q132 404 255 715h185q122 -308 256 -715h-209z" />
    <glyph glyph-name="uni041C" unicode="&#x41c;" horiz-adv-x="892" 
d="M815 -13h-192q-16 345 -21 404q-2 -2 -14 -36l-115 -323h-114q-70 185 -116 323q-3 7 -5.5 14.5l-4.5 14t-2 7.5q-11 -151 -22 -404h-179q39 508 64 716h139q8 -1 24 -3.5t24 -3.5l116 -309l9.5 -30.5l9 -29t5.5 -16.5q2 0 6 11.5l10 30t10 28.5q71 190 125 322h179
q25 -208 64 -716z" />
    <glyph glyph-name="uni041D" unicode="&#x41d;" horiz-adv-x="727" 
d="M631 -13h-199v291h-176v-291h-199v716h199v-272h176v272h199v-716z" />
    <glyph glyph-name="uni041E" unicode="&#x41e;" horiz-adv-x="748" 
d="M698 345q0 -169 -86.5 -269.5t-237.5 -100.5q-150 0 -237 100.5t-87 269.5q0 168 88 269.5t236 101.5q150 0 237 -101t87 -270zM495 349q0 93 -30.5 152.5t-90.5 59.5t-90.5 -59.5t-30.5 -152.5t30 -152.5t91 -59.5t91 59.5t30 152.5z" />
    <glyph glyph-name="uni041F" unicode="&#x41f;" horiz-adv-x="703" 
d="M653 -25h-192v574h-219v-574h-192v743h603v-743z" />
    <glyph glyph-name="uni0420" unicode="&#x420;" horiz-adv-x="636" 
d="M599 471q0 -245 -322 -244q-4 0 -12 0.5t-12 0.5v-241h-196v692q107 32 229 32q158 0 235.5 -62t77.5 -178zM403 472q0 52 -27.5 74.5t-84.5 22.5q-11 0 -38 -3v-195h24q66 -1 96 22t30 79z" />
    <glyph glyph-name="uni0421" unicode="&#x421;" horiz-adv-x="632" 
d="M582 29q-78 -54 -209 -54q-157 0 -240 102t-83 268q0 163 88.5 267t238.5 104q119 0 200 -54l-50 -143q-60 35 -126 35q-57 0 -95 -39t-45 -111q-7 -41 -4 -89q7 -72 39.5 -119.5t92.5 -51.5q22 -3 46 2q47 4 97 29z" />
    <glyph glyph-name="uni0422" unicode="&#x422;" horiz-adv-x="559" 
d="M539 549h-160v-562h-199v562h-160v154h519v-154z" />
    <glyph glyph-name="uni0423" unicode="&#x423;" horiz-adv-x="636" 
d="M80 -8q0 43 2 129q97 -15 111 14q13 1 20 9t18 30q-6 10 -16 30t-15 29q-92 188 -208 470h207q44 -125 111 -296l13 -40.5t13 -44.5l23 92l81 289h198q-77 -240 -190 -549q-38 -94 -101 -134.5t-149 -42.5q-51 -1 -118 15z" />
    <glyph glyph-name="uni0424" unicode="&#x424;" horiz-adv-x="868" 
d="M522 -32h-188v84q-148 9 -230.5 98.5t-82.5 214.5q0 124 82.5 214.5t230.5 105.5v79h188v-79q149 -15 231 -105t82 -214t-83 -214.5t-230 -99.5v-84zM522 529v-323q56 -1 89 49t33 115q0 63 -32 111t-90 48zM334 206v323q-61 1 -91.5 -46.5t-30.5 -114.5
q0 -62 32.5 -112.5t89.5 -49.5z" />
    <glyph glyph-name="uni0425" unicode="&#x425;" horiz-adv-x="664" 
d="M638 -13h-186q-12 3 -44 7q-48 107 -102 204q-72 -126 -109 -211h-213q84 161 212 367l-201 349h223l97 -188h1l102 188h209l-203 -336q108 -169 214 -380z" />
    <glyph glyph-name="uni0426" unicode="&#x426;" horiz-adv-x="774" 
d="M628 139h116v-319h-187v167h-500v716h199v-564h174v564h198v-564z" />
    <glyph glyph-name="uni0427" unicode="&#x427;" horiz-adv-x="669" 
d="M593 -13h-198v235q-57 -11 -99 -11q-120 0 -190.5 61.5t-70.5 188.5v242h199v-242q0 -49 22.5 -70.5t66.5 -21.5q35 0 72 10v324h198v-716z" />
    <glyph glyph-name="uni0428" unicode="&#x428;" horiz-adv-x="1011" 
d="M927 -13h-870v716h199v-564h137v564h198v-564h137v564h199v-716z" />
    <glyph glyph-name="uni0429" unicode="&#x429;" horiz-adv-x="1063" 
d="M854 -13h-797v716h199v-564h137v564h198v-564h137v564h199v-564h114v-319h-187v167z" />
    <glyph glyph-name="uni042A" unicode="&#x42a;" horiz-adv-x="762" 
d="M-33 703h339v-244q24 2 37 2q324 -5 324 -245q0 -118 -82.5 -177.5t-238.5 -59.5q-131 0 -233 35v543h-147q1 49 1 146zM467 220q0 99 -116 100q-31 0 -45 -1v-191q24 -4 42 -4q119 0 119 96z" />
    <glyph glyph-name="uni042B" unicode="&#x42b;" horiz-adv-x="910" 
d="M57 703h193v-244q22 2 34 2q321 -5 321 -245q0 -117 -82.5 -177t-235.5 -60q-128 0 -230 35v689zM406 220q0 90 -99 99q-26 2 -41 2q-12 -2 -16 -2v-191q22 -4 41 -4q115 0 115 96zM872 -13h-198v716h198v-716z" />
    <glyph glyph-name="uni042C" unicode="&#x42c;" horiz-adv-x="649" 
d="M57 703h193v-244q24 2 36 2q324 -5 324 -245q0 -117 -83 -177t-238 -60q-130 0 -232 35v689zM411 220q0 99 -116 100q-31 0 -45 -1v-191q22 -4 42 -4q119 0 119 96z" />
    <glyph glyph-name="uni042D" unicode="&#x42d;" horiz-adv-x="669" 
d="M347 275h-217v155h216q-12 62 -56 95t-111 26q-54 -5 -104 -31l-50 142q91 54 211 54q149 0 236.5 -102t87.5 -269q0 -170 -87 -270t-238 -100q-120 0 -213 56l54 147q32 -18 65 -21q52 -16 82 -14q51 4 82.5 39t41.5 93z" />
    <glyph glyph-name="uni042E" unicode="&#x42e;" horiz-adv-x="1070" 
d="M968 345q0 -169 -86 -269.5t-233 -100.5q-132 0 -215.5 81.5t-100.5 222.5h-77v-292h-199v716h199v-273h80q21 133 103.5 209.5t209.5 76.5q149 0 234 -101.5t85 -269.5zM765 349q0 94 -29 153.5t-87 59.5q-59 0 -88 -59t-29 -154t29 -153.5t88 -58.5q58 0 87 58.5
t29 153.5z" />
    <glyph glyph-name="uni042F" unicode="&#x42f;" horiz-adv-x="677" 
d="M217 -13h-213q88 162 187 306q-22 12 -33 23q-39 19 -66.5 60.5t-28.5 93.5q-1 36 8 72q22 81 101 125t208 44q118 0 228 -33v-691h-198v267h-40l-20 -29l-20 -29q-62 -105 -113 -209zM261 471q0 -48 28.5 -67t89.5 -19q13 0 31 2v178q-4 1 -12.5 1.5t-13.5 0.5
q-12 0 -34 -2q-90 -8 -89 -94z" />
    <glyph glyph-name="uni0430" unicode="&#x430;" horiz-adv-x="579" 
d="M529 360v-340q-99 -35 -239 -35q-250 0 -250 186q0 94 70 141t165 49q2 0 11.5 -0.5t15.5 -0.5q25 0 43 -4q0 66 -79 66q-82 0 -153 -31l-33 135q22 14 81.5 25.5t130.5 11.5q106 0 171.5 -50.5t65.5 -152.5zM346 121v122q-18 2 -40 0q-82 -9 -82 -67q0 -60 75 -60
q31 0 47 5z" />
    <glyph glyph-name="uni0431" unicode="&#x431;" horiz-adv-x="613" 
d="M382 250q0 123 -85 123q-40 0 -67 -17v-223q22 -12 64 -12q88 0 88 129zM50 44v446q0 51 14 89t53 75.5t118 64.5t198 43q48 5 92 13l9 -143l-98 -20q-12 -3 -33 -7q-99 -21 -129.5 -40t-42.5 -83q46 24 106 24q106 0 171 -67t65 -182q0 -131 -76.5 -201.5t-208.5 -70.5
q-183 0 -238 59z" />
    <glyph glyph-name="uni0432" unicode="&#x432;" horiz-adv-x="609" 
d="M537 571q3 -51 -18.5 -89t-56.5 -58q54 -26 80.5 -82t26.5 -116q0 -103 -76 -176t-214 -73q-120 0 -229 35v504q0 57 15.5 101t39.5 69.5t57.5 42t65 22t66.5 5.5q121 0 179.5 -53t63.5 -132zM377 223q0 19 -2 32t-9 32t-25.5 30.5t-47.5 13.5q-34 0 -51 -12
q0 -33 -0.5 -101t-0.5 -101q12 -3 29 -3q8 -1 25 1q36 2 59 34.5t23 73.5zM240 455q35 9 73 10q1 0 3 -0.5t3 -0.5q51 16 48 85q-2 80 -68 77q-53 -2 -57 -67q0 -11 -1 -33t-1 -35v-36z" />
    <glyph glyph-name="uni0433" unicode="&#x433;" horiz-adv-x="505" 
d="M40 147q0 57 30 97t101 73q54 23 71.5 35.5t17.5 31.5q0 30 -49 30q-46 0 -110 -28l-41 132q81 38 183 38q99 0 152 -45t53 -120q0 -66 -39 -109t-111 -73q-64 -28 -64 -54q0 -33 53 -33q62 0 138 36l40 -144q-80 -39 -198 -39q-105 0 -166 45t-61 127z" />
    <glyph glyph-name="uni0434" unicode="&#x434;" horiz-adv-x="604" 
d="M554 30q0 -250 -271 -250q-120 0 -215 40l40 146q57 -25 111 -32q32 -4 67 3q39 3 60 21.5t21 46.5v12q-30 -15 -87 -15q-109 0 -174.5 70t-65.5 194q0 135 76 212t217 77q131 0 221 -38v-487zM366 148v266q-13 4 -39 4q-95 0 -95 -145q0 -135 86 -135q26 0 48 10z" />
    <glyph glyph-name="uni0435" unicode="&#x435;" horiz-adv-x="597" 
d="M556 220l-322 -22q21 -72 113 -72q85 0 153 32l35 -140q-86 -42 -209 -42q-140 0 -213 80t-73 209q0 134 74 212.5t192 78.5q112 0 177 -64t72 -182q0 -8 1 -39t0 -51zM373 328q-5 90 -70 90q-36 0 -56 -27t-21 -74z" />
    <glyph glyph-name="uni0436" unicode="&#x436;" horiz-adv-x="829" 
d="M206 -13h-214q91 156 201 305q-99 125 -187 252h208q81 -129 131 -200v436h189v-437l52 64l79 137h205q-92 -141 -184 -252q97 -126 202 -305h-214q-5 9 -30.5 62.5t-54.5 102.5t-55 69v-234h-189v231q-25 -24 -48.5 -62t-55 -100t-35.5 -69z" />
    <glyph glyph-name="uni0437" unicode="&#x437;" horiz-adv-x="536" 
d="M496 156q0 -88 -65 -134.5t-172 -46.5q-139 0 -219 40l38 133q58 -23 122 -28q100 -3 100 41q0 17 -9.5 27.5t-27.5 15t-34 6t-39 1.5h-51v120h51q98 0 98 45q0 35 -52 38q-14 2 -30 0q-56 -4 -114 -25l-33 118q44 49 201 49q98 0 157.5 -39t59.5 -116q0 -70 -72 -111
q44 -16 67.5 -51t23.5 -83z" />
    <glyph glyph-name="uni0438" unicode="&#x438;" horiz-adv-x="594" 
d="M544 17q-85 -40 -245 -40q-133 0 -191 59t-58 178v330h191v-272q0 -90 9 -114q14 -33 55 -33q28 0 48 5v414h191v-527z" />
    <glyph glyph-name="uni0439" unicode="&#x439;" horiz-adv-x="594" 
d="M544 17q-85 -40 -245 -40q-133 0 -191 59t-58 178v330h191v-272q0 -90 9 -114q14 -33 55 -33q28 0 48 5v414h191v-527zM300 591q-77 0 -140 50t-71 133l140 29q7 -37 28 -53t43 -16q57 0 70 68l141 -28q-9 -84 -71.5 -133.5t-139.5 -49.5z" />
    <glyph glyph-name="uni043A" unicode="&#x43a;" horiz-adv-x="616" 
d="M596 -13h-215q-4 7 -36 69.5t-61 111.5t-43 54v-235h-191v793h191v-430q84 116 134 194h212l-193 -247q110 -140 202 -310z" />
    <glyph glyph-name="uni043B" unicode="&#x43b;" horiz-adv-x="599" 
d="M20 0q84 277 194 556h169q105 -254 196 -556h-203q-24 109 -63 254q-3 13 -7 32.5l-6.5 31t-4.5 16.5h-1q-1 -2 -18 -80q-39 -136 -67 -254h-189z" />
    <glyph glyph-name="uni043C" unicode="&#x43c;" horiz-adv-x="780" 
d="M740 0h-188q-13 206 -16 301l-10 -34q-60 -180 -81 -235h-108q-37 95 -85 235q-9 32 -11 35q-13 -173 -15 -302h-186q24 329 49 556h180q84 -183 110 -276q11 -36 11 -37q1 0 12 37q26 88 108 276h180q22 -187 50 -556z" />
    <glyph glyph-name="uni043D" unicode="&#x43d;" horiz-adv-x="598" 
d="M548 557v-557h-191v229h-115v-229h-192v556h192v-197h115v198h191z" />
    <glyph glyph-name="uni043E" unicode="&#x43e;" horiz-adv-x="615" 
d="M575 266q0 -130 -72.5 -210t-195.5 -80q-122 0 -194.5 80t-72.5 210q0 129 73.5 209.5t193.5 80.5q122 0 195 -80.5t73 -209.5zM382 268q0 143 -75 143t-75 -143t75 -143t75 143z" />
    <glyph glyph-name="uni043F" unicode="&#x43f;" horiz-adv-x="598" 
d="M548 0h-191v273q0 94 -10 118q-14 33 -58 33q-24 0 -47 -5v-419h-192v529q108 38 244 38q81 0 133 -18t78 -56t34.5 -81.5t8.5 -110.5v-301z" />
    </font>
</defs>
</svg>
